<svg width="15" height="15" viewBox="0 0 15 15" fill="none" xmlns="http://www.w3.org/2000/svg">
    <path d="M14.707 10.195h-3.984V6.504a.293.293 0 0 0-.293-.293h-.51a.619.619 0 0 0-.031-.207l-.562-1.717 1.466-1.06a.594.594 0 0 0 .221-.676.594.594 0 0 0-.574-.417H8.629L8.074.418A.594.594 0 0 0 7.5 0a.594.594 0 0 0-.574.418L6.37 2.134h-1.81a.594.594 0 0 0-.575.417.595.595 0 0 0 .22.675l1.467 1.061-.562 1.717a.62.62 0 0 0-.03.207h-.51a.293.293 0 0 0-.294.293v3.691H.293a.293.293 0 0 0-.293.293v4.219c0 .162.131.293.293.293h14.414a.293.293 0 0 0 .293-.293v-.938a.293.293 0 1 0-.586 0v.645h-3.691v-3.633h3.691v.645a.293.293 0 1 0 .586 0v-.938a.293.293 0 0 0-.293-.293zM5.668 6.186l.629-1.92a.293.293 0 0 0-.107-.328L4.55 2.752c-.007-.006-.01-.008-.006-.02.003-.012.007-.012.016-.012h2.024c.127 0 .24-.082.279-.203l.62-1.919C7.486.59 7.487.586 7.5.586c.013 0 .014.004.017.012l.62 1.919c.039.12.152.203.279.203h2.024c.009 0 .013 0 .017.012.003.012 0 .014-.007.02L8.81 3.938a.293.293 0 0 0-.107.328l.629 1.92c.002.009.004.013-.007.02-.01.008-.013.005-.02 0L7.673 5.015a.292.292 0 0 0-.346 0L5.695 6.206c-.007.005-.01.008-.02 0-.01-.007-.01-.011-.007-.02zM7.5 5.614l.817.597H6.683l.817-.597zM.586 10.781h3.691v3.633H.586v-3.633zm4.277-.293V6.797H10.137v7.617H4.863v-3.926zM13.125 1.008a.293.293 0 0 0 .293-.293V.293a.293.293 0 0 0-.586 0v.422c0 .162.131.293.293.293zM13.125 2.93a.293.293 0 0 0 .293-.293v-.423a.293.293 0 0 0-.586 0v.423c0 .161.131.293.293.293zM13.874 1.758h.423a.293.293 0 1 0 0-.586h-.423a.293.293 0 1 0 0 .586zM11.953 1.758h.422a.293.293 0 1 0 0-.586h-.422a.293.293 0 1 0 0 .586zM1.875 4.68a.293.293 0 0 0 .293-.292v-.423a.293.293 0 1 0-.586 0v.423c0 .161.131.293.293.293z" fill="#fff"/>
    <path d="M1.875 6.602a.293.293 0 0 0 .293-.293v-.422a.293.293 0 1 0-.586 0v.422c0 .162.131.293.293.293zM2.625 5.43h.422a.293.293 0 0 0 0-.586h-.422a.293.293 0 1 0 0 .586zM.703 5.43h.422a.293.293 0 0 0 0-.586H.703a.293.293 0 1 0 0 .586zM14.707 12.305a.295.295 0 0 0-.207.5.295.295 0 0 0 .414 0 .296.296 0 0 0 .086-.207.296.296 0 0 0-.086-.208.296.296 0 0 0-.207-.085z" fill="#fff"/>
</svg>
