<svg width="48" height="60" viewBox="0 0 48 60" fill="none" xmlns="http://www.w3.org/2000/svg">
<path fill-rule="evenodd" clip-rule="evenodd" d="M42.4442 20.4076L43.8909 19.8042L47.9346 29.51L43.8917 39.2158L42.445 38.6124L43.6252 35.7794H33.7415C35.2242 37.7464 36.1145 40.1844 36.1145 42.8324C36.1145 49.3142 30.8411 54.5875 24.3594 54.5875C17.8776 54.5875 12.6043 49.3142 12.6043 42.8324C12.6043 40.1844 13.4945 37.7464 14.9772 35.7794H3.2002V34.212H16.3941C18.4912 32.2732 21.2842 31.0773 24.3594 31.0773C27.4345 31.0773 30.2275 32.2732 32.3246 34.212H44.278L46.2372 29.51L44.278 24.808H38.4655V23.2406H43.6252L42.4442 20.4076ZM24.3593 53.0202C29.9767 53.0202 34.5471 48.4498 34.5471 42.8324C34.5471 37.2151 29.9767 32.6447 24.3593 32.6447C18.742 32.6447 14.1716 37.2151 14.1716 42.8324C14.1716 48.4498 18.742 53.0202 24.3593 53.0202Z" fill="#666666"/>
<path fill-rule="evenodd" clip-rule="evenodd" d="M20.1513 23.2762L6.34222 30.7564C5.9543 30.9664 5.51623 31.0777 5.0758 31.0777C3.60877 31.0777 2.41602 29.8849 2.41602 28.4179V28.193C2.41602 27.2753 2.87917 26.4344 3.655 25.9446L17.6702 17.0922L17.892 16.9716H17.461C16.0794 16.9716 14.9548 15.847 14.9548 14.4654C14.9548 13.275 15.8019 12.2421 16.9696 12.0078L23.6857 10.6646L26.9803 12.3118C27.1652 12.286 27.3517 12.2695 27.539 12.2695C28.7396 12.2695 29.8689 12.7985 30.6369 13.7217L33.7081 17.4065L34.4048 20.8899H35.3303C36.6265 20.8899 37.6813 21.9447 37.6813 23.2409C37.6813 24.5371 36.6265 25.592 35.3303 25.592H30.821L29.278 20.1948L25.0336 20.8014L28.3407 25.4313L27.3376 29.4453L20.4248 30.2133C19.9437 30.2674 19.4546 30.294 18.9711 30.294C17.6208 30.294 16.5221 29.1953 16.5221 27.845C16.5221 26.6131 17.4445 25.5685 18.6671 25.4156L21.8879 25.0128L20.1513 23.2762ZM26.0814 28.008L26.6449 25.7534L23.558 21.4314L21.5886 22.498L25.2617 26.1711L18.8615 26.9712C18.4218 27.0261 18.0895 27.4023 18.0895 27.845C18.0895 28.3309 18.4853 28.7267 18.9712 28.7267C19.3975 28.7267 19.8285 28.7031 20.2525 28.6553L26.0814 28.008ZM17.4609 15.4042C16.9429 15.4042 16.5221 14.9834 16.5221 14.4654C16.5221 14.0202 16.8395 13.6323 17.2768 13.5446L23.4647 12.3071L25.0179 13.0838L21.855 14.8094L18.1004 15.3925C18.0518 15.4003 18.0048 15.4042 17.9562 15.4042H17.4609ZM3.98327 28.193V28.4179C3.98327 29.0205 4.47307 29.5103 5.07571 29.5103C5.25596 29.5103 5.4362 29.4641 5.59529 29.3787L24.1096 19.35L30.4103 18.4503L32.0027 24.0246H35.3302C35.7628 24.0246 36.1139 23.6735 36.1139 23.2409C36.1139 22.8084 35.7628 22.4573 35.3302 22.4573H33.121L32.2504 18.1047L29.4331 14.7248C28.9636 14.1605 28.274 13.8369 27.5389 13.8369C27.1267 13.8369 26.7184 13.9411 26.3571 14.1378L18.464 18.4425L4.49187 27.2698C4.1737 27.4712 3.98327 27.8168 3.98327 28.193Z" fill="#666666"/>
<path fill-rule="evenodd" clip-rule="evenodd" d="M39.2488 10.702C39.2488 13.2952 37.1399 15.4041 34.5468 15.4041C31.9536 15.4041 29.8447 13.2952 29.8447 10.702C29.8447 8.10887 31.9536 6 34.5468 6C37.1399 6 39.2488 8.10887 39.2488 10.702ZM37.6814 10.702C37.6814 8.97326 36.2755 7.56735 34.5467 7.56735C32.8179 7.56735 31.412 8.97326 31.412 10.702C31.412 12.4308 32.8179 13.8367 34.5467 13.8367C36.2755 13.8367 37.6814 12.4308 37.6814 10.702Z" fill="#666666"/>
<rect x="0.0654297" y="34.2124" width="1.56735" height="1.56734" fill="#666666"/>
<rect x="0.0654297" y="17.7549" width="1.56735" height="1.56735" fill="#666666"/>
<rect x="3.2002" y="17.7549" width="7.83673" height="1.56735" fill="#666666"/>
<rect x="1.63281" y="14.6206" width="1.56735" height="1.56735" fill="#666666"/>
<rect x="4.76758" y="14.6206" width="8.62041" height="1.56735" fill="#666666"/>
<rect x="3.2002" y="11.4858" width="1.56735" height="1.56735" fill="#666666"/>
<rect x="6.33496" y="11.4858" width="7.83673" height="1.56735" fill="#666666"/>
<path d="M24.3597 34.2124C19.6067 34.2124 15.7393 38.0798 15.7393 42.8328V43.6165H16.5229H17.3066H18.0903V42.0491H17.3528C17.4328 41.3305 17.6216 40.6456 17.9006 40.0084L18.5385 40.3768L19.3222 39.0195L18.6906 38.6543C19.1106 38.0853 19.613 37.5838 20.1811 37.1637L20.5463 37.7954L21.9036 37.0117L21.5353 36.3738C22.1724 36.094 22.8574 35.9059 23.576 35.826V36.5634H25.1433V35.826C25.862 35.9059 26.5469 36.094 27.184 36.3738L26.8157 37.0117L28.173 37.7954L28.5382 37.1637C29.1072 37.5838 29.6087 38.0861 30.0288 38.6543L29.3971 39.0195L30.1808 40.3768L30.8187 40.0084C31.0985 40.6456 31.2866 41.3305 31.3665 42.0491H30.6291V43.6165H31.4127H32.1964H32.9801V42.8328C32.9801 38.0798 29.1126 34.2124 24.3597 34.2124Z" fill="#666666"/>
<path d="M24.9951 47.207L23.7205 46.2966L27.6383 40.8116L28.9129 41.722L24.9951 47.207Z" fill="#666666"/>
<rect x="23.5752" y="49.1021" width="1.56734" height="1.56734" fill="#666666"/>
<rect x="26.71" y="49.1021" width="1.56734" height="1.56734" fill="#666666"/>
<rect x="20.4414" y="49.1021" width="1.56734" height="1.56734" fill="#666666"/>
</svg>
