<?xml version="1.0" encoding="UTF-8"?>
<svg width="40px" height="50px" viewBox="0 0 40 50" version="1.1" xmlns="http://www.w3.org/2000/svg" xmlns:xlink="http://www.w3.org/1999/xlink">
    <!-- Generator: Sketch 53.2 (72643) - https://sketchapp.com -->
    <title>graphics/holiday</title>
    <desc>Created with Sketch.</desc>
    <g id="graphics/holiday" stroke="none" stroke-width="1" fill="none" fill-rule="evenodd">
        <path d="M11.268414,19.2505887 C11.2562605,19.1530687 11.25,19.053719 11.25,18.952907 C11.25,18.294637 11.5169279,17.6987114 11.9484493,17.2674646 C11.7147059,16.9399079 11.3315119,16.7263445 10.8984375,16.7263445 C10.1865079,16.7263445 9.609375,17.3034774 9.609375,18.015407 C9.609375,18.0219791 9.60942418,18.0285398 9.6095222,18.0350886 C9.60942418,18.0415372 9.609375,18.0479976 9.609375,18.0544695 C9.609375,18.7448254 10.1690191,19.3044695 10.859375,19.3044695 C10.8658469,19.3044695 10.8723073,19.3044203 10.8787559,19.3043223 C10.8853047,19.3044203 10.8918654,19.3044695 10.8984375,19.3044695 C11.0270297,19.3044695 11.151224,19.2856403 11.268414,19.2505887 Z M14.73124,16.8378193 C15.0344391,16.995601 15.299445,17.216665 15.50875,17.4835036 L15.5859375,17.546657 C17.3046875,17.1950945 19.765625,16.6482195 24.53125,18.327907 C23.0989583,16.3487403 21.4192708,15.2419695 19.4921875,15.0075945 C16.6963935,14.8522726 15.0006945,16.5111424 14.73124,16.8378193 Z M16.0093576,19.127064 C15.9890079,19.4087801 15.9196817,19.6769235 15.8098517,19.9230215 C18.0718113,21.0240363 19.9763399,23.031394 21.5234375,25.9450945 C21.6536458,23.7575945 21.2760417,22.1169695 20.390625,21.0232195 C19.5052083,19.9294695 18.046875,19.2914487 16.015625,19.109157 L16.0093576,19.127064 Z M14.7927525,21.0348259 C14.6802274,21.0976535 14.5620829,21.151623 14.4392623,21.1957908 C14.3538935,21.23556 14.2543477,21.2822029 14.140625,21.3357195 C14.5887284,23.442397 14.84375,25.671657 14.140625,28.327907 C16.6145833,25.984157 16.8424479,23.5492612 14.8242188,21.0232195 C14.8217094,21.0232195 14.8112206,21.0270883 14.7927525,21.0348259 Z M12.0588383,20.7419131 C11.8540174,20.5615702 11.6804151,20.3466069 11.5471813,20.106173 C11.3535782,20.1370816 11.1243094,20.2865137 10.859375,20.5544695 C9.0625,26.1013445 5.83333333,31.3357195 1.171875,36.2575945 C1.171875,36.2575945 1.171875,37.781032 1.171875,40.827907 C6.10983091,35.9933638 9.73881866,29.2980325 12.0588383,20.7419131 Z M12.4869552,19.2803066 C12.6146889,19.666044 12.9196755,19.9710306 13.3054129,20.0987643 C13.4094359,20.1284301 13.5192694,20.1443133 13.6328125,20.1443133 C14.290808,20.1443133 14.8242188,19.6109025 14.8242188,18.952907 C14.8242188,18.2949115 14.290808,17.7615008 13.6328125,17.7615008 C12.974817,17.7615008 12.4414063,18.2949115 12.4414063,18.952907 C12.4414063,19.0664501 12.4572894,19.1762836 12.4869552,19.2803066 Z M14.3359375,15.593532 C16.1588542,14.2133237 17.9296875,13.6143653 19.6484375,13.796657 C23.359375,14.3044695 25.6640625,17.624782 25.9375,18.2107195 C26.2109375,18.796657 25.859375,20.1443133 23.7890625,19.3044695 C21.71875,18.4646258 18.59375,18.406032 18.59375,18.406032 C23.28125,20.0075945 22.8125,25.359157 22.6953125,26.374782 C22.578125,27.390407 21.484375,28.562282 20.2734375,26.1013445 C19.0625,23.640407 16.9140625,22.0388445 16.8359375,22.0388445 C16.9921875,22.2732195 17.890625,25.3200945 16.6015625,27.077907 C15.546875,29.031032 14.0625,30.2419695 13.203125,29.812282 C12.34375,29.3825945 13.203125,27.5857195 13.3203125,26.4919695 C13.671875,23.3669695 12.9296875,21.765407 12.96875,21.8044695 C12.5,24.2263445 10.15625,29.6169695 10.234375,29.577907 C17.6171875,30.7107195 20.3125,33.6794695 21.0546875,34.2263445 C21.796875,34.7732195 23.1640625,33.249782 23.90625,33.2107195 C24.609375,33.2888445 25.234375,34.3044695 26.5625,34.343532 C27.890625,34.3825945 28.4765625,33.2107195 29.21875,33.2107195 C29.9609375,33.2107195 29.4140625,33.2107195 30.78125,34.031032 C33.359375,35.124782 33.359375,33.171657 34.5703125,33.2107195 C35.78125,33.249782 34.8828125,33.718532 36.4453125,34.2263445 C38.0078125,34.734157 37.96875,34.031032 38.9453125,33.9138445 C39.5963542,33.8357195 39.9479167,34.1612403 40,34.890407 C40,40.0987403 40,42.9112403 40,43.327907 C39.9739583,44.2133237 39.4791667,44.7471778 38.515625,44.9294695 L15.15625,44.9294695 C14.6875,44.8773862 14.453125,44.6820737 14.453125,44.343532 C14.453125,44.0049903 14.6614583,43.8096778 15.078125,43.7575945 C22.3177083,43.7315528 25.9375,43.7315528 25.9375,43.7575945 C21.5234375,31.140407 9.7265625,30.671657 9.765625,30.671657 C7.29166667,35.515407 4.42708333,39.4476987 1.171875,42.468532 C1.171875,42.624782 1.171875,42.9112403 1.171875,43.327907 C1.328125,43.6664487 1.5625,43.8096778 1.875,43.7575945 L12.1875,43.7575945 C12.65625,43.7681762 12.890625,43.9634887 12.890625,44.343532 C12.890625,44.7235753 12.6822917,44.9188878 12.265625,44.9294695 C6.09375,45.0336362 2.52604167,45.0336362 1.5625,44.9294695 C0.598958333,44.8253028 0.078125,44.2914487 0,43.327907 C0,36.8695737 0,33.2237403 0,32.390407 C4.14742418e-17,31.140407 0.8203125,30.749782 1.796875,30.437282 C2.7734375,30.124782 4.296875,29.656032 5.1171875,29.6950945 C7.25260417,26.3357195 8.80208333,23.1976987 9.765625,20.281032 C9.73958333,19.9424903 9.4921875,19.7732195 9.0234375,19.7732195 C6.40625,20.2419695 3.59375,22.702907 3.28125,22.9763445 C2.96875,23.249782 2.578125,23.484157 2.03125,23.1325945 C1.484375,22.781032 1.5234375,22.1169695 2.1484375,20.671657 C3.75,16.0232195 7.5390625,16.374782 7.53359633,16.374782 C3.984375,14.968532 2.4609375,15.2419695 1.25,15.202907 C0.208333333,14.9945737 -0.0390625,14.4086362 0.5078125,13.4450945 C1.31510417,12.6898862 2.48697917,12.1169695 4.0234375,11.7263445 C9.1015625,10.984157 10.4296875,14.0700945 10.451819,14.0700945 C9.65363805,10.7888445 7.8125,8.562282 7.578125,8.2107195 C7.34375,7.859157 6.328125,6.9607195 6.09375,6.296657 C5.8984375,5.3982195 6.6015625,4.6169695 8.1640625,5.202907 C13.8411458,6.97374034 15.8984375,10.437282 14.3359375,15.593532 Z M7.5,6.2575945 C9.97395833,8.78363617 11.5104167,11.999782 12.109375,15.906032 C12.2395833,16.1664487 12.4609375,16.3487403 12.7734375,16.452907 C13.6067708,14.421657 13.8020833,12.5857195 13.359375,10.9450945 C12.5,8.4450945 10.546875,6.8825945 7.5,6.2575945 Z M1.8359375,13.9919695 C7.6953125,14.421657 8.5546875,15.749782 9.4140625,16.062282 C9.90885417,15.8799903 10.1822917,15.749782 10.234375,15.671657 C8.203125,12.3643653 5.40364583,11.8044695 1.8359375,13.9919695 Z M3.0078125,21.7263445 C5.0464762,20.0434031 6.86939287,19.0538198 8.4765625,18.7575945 C8.359375,18.5232195 8.3984375,17.5857195 8.359375,17.5857195 C5.625,17.3773862 3.84114583,18.7575945 3.0078125,21.7263445 Z M1.171875,34.577907 C3.09895833,32.234157 4.0625,31.062282 4.0625,31.062282 C2.65625,31.2706153 1.69270833,31.5700945 1.171875,31.9607195 L1.171875,34.577907 Z M27.1875,43.7575945 L38.3203125,43.7575945 C38.6588542,43.6794695 38.828125,43.4971778 38.828125,43.2107195 C38.828125,42.9242612 38.828125,41.9086362 38.828125,40.1638445 C37.0572917,40.7107195 35.6510417,40.437282 34.609375,39.343532 C34.609375,39.343532 32.03125,41.9607195 29.21875,39.343532 C29.21875,39.343532 27.7734375,40.827907 25.8984375,40.437282 C25.8984375,40.437282 26.328125,41.5440528 27.1875,43.7575945 Z M38.828125,38.7575945 C38.828125,36.3878028 38.828125,35.202907 38.828125,35.202907 C36.1328125,36.1794695 34.5703125,34.421657 34.5703125,34.421657 C31.796875,36.921657 29.1796875,34.421657 29.1796875,34.421657 C26.5625,37.0388445 23.828125,34.421657 23.828125,34.421657 C23.4635417,34.7862403 22.9427083,35.124782 22.265625,35.437282 C23.3333333,36.6351987 23.9713542,37.3773862 24.1796875,37.6638445 C24.4921875,38.093532 25.234375,39.3044695 26.5234375,39.343532 C28.2421875,39.343532 27.9296875,38.2107195 29.2578125,38.2107195 C30.5859375,38.2107195 29.9609375,39.187282 31.7578125,39.343532 C33.5546875,39.499782 33.3203125,38.2107195 34.6484375,38.2107195 C35.9765625,38.2107195 35.6640625,39.343532 36.9140625,39.343532 C37.7473958,39.343532 38.3854167,39.1482195 38.828125,38.7575945 Z M32.03125,18.2107195 C32.376428,18.2107195 32.65625,18.4905415 32.65625,18.8357195 L32.65625,19.7732195 C32.65625,20.1183975 32.376428,20.3982195 32.03125,20.3982195 C31.686072,20.3982195 31.40625,20.1183975 31.40625,19.7732195 L31.40625,18.8357195 C31.40625,18.4905415 31.686072,18.2107195 32.03125,18.2107195 Z M37.2240654,20.3616541 C37.4681431,20.6057318 37.4681431,21.0014599 37.2240654,21.2455376 L36.5611528,21.9084502 C36.3170751,22.1525278 35.921347,22.1525278 35.6772693,21.9084502 C35.4331917,21.6643725 35.4331917,21.2686444 35.6772693,21.0245667 L36.3401819,20.3616541 C36.5842596,20.1175764 36.9799877,20.1175764 37.2240654,20.3616541 Z M39.375,25.5544695 C39.375,25.8996475 39.095178,26.1794695 38.75,26.1794695 L37.8125,26.1794695 C37.467322,26.1794695 37.1875,25.8996475 37.1875,25.5544695 C37.1875,25.2092915 37.467322,24.9294695 37.8125,24.9294695 L38.75,24.9294695 C39.095178,24.9294695 39.375,25.2092915 39.375,25.5544695 Z M37.2240654,30.7472849 C36.9799877,30.9913626 36.5842596,30.9913626 36.3401819,30.7472849 L35.6772693,30.0843723 C35.4331917,29.8402946 35.4331917,29.4445665 35.6772693,29.2004888 C35.921347,28.9564112 36.3170751,28.9564112 36.5611528,29.2004888 L37.2240654,29.8634014 C37.4681431,30.1074791 37.4681431,30.5032072 37.2240654,30.7472849 Z M32.03125,32.8982195 C31.686072,32.8982195 31.40625,32.6183975 31.40625,32.2732195 L31.40625,31.3357195 C31.40625,30.9905415 31.686072,30.7107195 32.03125,30.7107195 C32.376428,30.7107195 32.65625,30.9905415 32.65625,31.3357195 L32.65625,32.2732195 C32.65625,32.6183975 32.376428,32.8982195 32.03125,32.8982195 Z M26.8384346,30.7472849 C26.5943569,30.5032072 26.5943569,30.1074791 26.8384346,29.8634014 L27.5013472,29.2004888 C27.7454249,28.9564112 28.141153,28.9564112 28.3852307,29.2004888 C28.6293083,29.4445665 28.6293083,29.8402946 28.3852307,30.0843723 L27.7223181,30.7472849 C27.4782404,30.9913626 27.0825123,30.9913626 26.8384346,30.7472849 Z M24.6875,25.5544695 C24.6875,25.2092915 24.967322,24.9294695 25.3125,24.9294695 L26.25,24.9294695 C26.595178,24.9294695 26.875,25.2092915 26.875,25.5544695 C26.875,25.8996475 26.595178,26.1794695 26.25,26.1794695 L25.3125,26.1794695 C24.967322,26.1794695 24.6875,25.8996475 24.6875,25.5544695 Z M26.8384346,20.3616541 C27.0825123,20.1175764 27.4782404,20.1175764 27.7223181,20.3616541 L28.3852307,21.0245667 C28.6293083,21.2686444 28.6293083,21.6643725 28.3852307,21.9084502 C28.141153,22.1525278 27.7454249,22.1525278 27.5013472,21.9084502 L26.8384346,21.2455376 C26.5943569,21.0014599 26.5943569,20.6057318 26.8384346,20.3616541 Z M35.7630359,27.2725731 C35.0941031,28.6597871 33.6744575,29.6169695 32.03125,29.6169695 C29.744446,29.6169695 27.890625,27.7631485 27.890625,25.4763445 C27.890625,23.1895405 29.744446,21.3357195 32.03125,21.3357195 C33.7103621,21.3357195 35.1560357,22.3351884 35.8058043,23.7716595 C35.8511114,23.7814694 35.8819891,23.8028227 35.8984375,23.8357195 C35.9722241,23.9586971 35.9995513,24.1087761 35.9889512,24.2554845 C36.0019192,24.2975722 36.0142342,24.3399461 36.0258846,24.3825945 L35.9701282,24.3825945 C35.909735,24.6503507 35.7235937,24.8745121 35.46875,24.8513445 C35.2320756,24.8728604 35.0131778,24.7166104 34.8120566,24.3825945 L34.7920277,24.3825945 C34.3565347,23.2842758 33.2845942,22.5075945 32.03125,22.5075945 C30.3916546,22.5075945 29.0625,23.8367492 29.0625,25.4763445 C29.0625,27.1159399 30.3916546,28.4450945 32.03125,28.4450945 C33.0642927,28.4450945 33.9740982,27.9174533 34.5058679,27.1169695 L34.5241479,27.1169695 C34.7201642,26.8820466 34.8600821,26.5578454 35,26.452907 C35.15625,26.3357195 35.625,26.2575945 35.8203125,26.531032 C35.9242584,26.6765562 35.9286277,26.8718687 35.8334205,27.1169695 C35.8314692,27.1231223 35.8287967,27.1292673 35.8261098,27.1354046 C35.8082502,27.1795449 35.7872256,27.2252678 35.7630359,27.2725731 Z" id="Combined-Shape" fill="#666666"></path>
    </g>
</svg>