<svg width="48" height="60" viewBox="0 0 48 60" fill="none" xmlns="http://www.w3.org/2000/svg">
<path fill-rule="evenodd" clip-rule="evenodd" d="M25.518 10.5317L24.15 13.0217L14.367 30.8057L11.493 27.9317L10.503 29.5787L1.71304 44.2292L0.352539 46.5002H47.2785L46.3815 44.4077L41.8815 33.9077L41.0085 31.8722L37.9065 34.9742L26.802 13.0667L25.5195 10.5317H25.518ZM25.4086 16.9547L29.9686 25.9487L28.8076 26.9447L25.3876 24.0152L21.9691 26.9447L20.5741 25.7462L25.4086 16.9547ZM28.8091 30.8942L25.3891 27.9647L21.9691 30.8927L19.0981 28.4327C18.4638 29.5876 17.8282 30.7419 17.1927 31.8964C16.8063 32.5982 16.4198 33.3001 16.0336 34.0022L15.0706 35.7512L12.0886 32.7692C11.7319 33.3635 11.3751 33.9578 11.0183 34.5522C9.22825 37.5343 7.43763 40.5173 5.6491 43.5002H42.7231L39.9931 37.1282L37.0951 40.0262L36.1621 38.1767L31.3621 28.7042L28.8091 30.8942Z" fill="#666666"/>
</svg>
