<svg width="48" height="60" viewBox="0 0 48 60" fill="none" xmlns="http://www.w3.org/2000/svg">
<path fill-rule="evenodd" clip-rule="evenodd" d="M41.1928 5.47013L47.3294 11.6067C48.2233 12.5006 48.2233 13.955 47.3294 14.8489L32.2469 29.9315L33.2573 30.8388C33.3292 30.9105 33.3872 30.9998 33.4239 31.0943L27.3095 37.2092C27.2975 37.2748 27.2264 37.3339 27.1271 37.3916L26.3967 38.122C26.3585 38.0878 26.322 38.0551 26.287 38.0238C26.2744 38.1412 26.3256 38.231 26.3193 38.2352C26.3154 38.2378 26.2878 38.2052 26.2045 38.122L25.1304 37.0479L10.05 52.1284C9.61705 52.5613 9.04134 52.7998 8.42896 52.7998C7.81659 52.7998 7.24087 52.5613 6.80793 52.1284L0.671336 45.9917C-0.222477 45.0978 -0.222477 43.6434 0.671336 42.7495L15.7516 27.669C15.8662 27.7836 22.9175 20.602 22.8682 20.5523L24.223 19.1976C24.5123 18.9083 24.9814 18.9083 25.2707 19.1976C25.56 19.487 25.56 19.9559 25.2707 20.2453L23.916 21.6001L31.1993 28.8834L32.6549 27.4279L30.9208 25.6938C30.6315 25.4044 30.6315 24.9354 30.9208 24.646C31.2101 24.3568 31.6791 24.3568 31.9685 24.646L33.7026 26.3802L35.4232 24.6596L31.4774 20.7138C31.1881 20.4244 31.1881 19.9554 31.4774 19.666C31.7667 19.3767 32.2358 19.3769 32.5251 19.666L36.4709 23.612L38.1915 21.8914L36.4573 20.1573C36.168 19.8679 36.168 19.3989 36.4573 19.1095C36.7466 18.8203 37.2156 18.8203 37.505 19.1095L39.2391 20.8437L40.9597 19.1231L39.2256 17.389C38.9362 17.0996 38.9362 16.6307 39.2256 16.3413C39.5149 16.0521 39.9839 16.0521 40.2732 16.3413L42.0074 18.0755L43.728 16.3549L39.7822 12.4091C39.4929 12.1197 39.4929 11.6508 39.7822 11.3614C40.0716 11.0722 40.5406 11.0722 40.8299 11.3614L44.7757 15.3071L46.2817 13.8011C46.4348 13.648 46.5192 13.4444 46.5192 13.2278C46.5192 13.0112 46.4348 12.8076 46.2817 12.6545L40.1451 6.51788C39.9919 6.36469 39.7882 6.28041 39.5717 6.28041C39.3551 6.28041 39.1515 6.36469 38.9983 6.51788L27.4444 18.0718C27.1551 18.361 26.686 18.361 26.3967 18.0718C26.1074 17.7824 26.1074 17.3135 26.3967 17.0241L37.9507 5.47013C38.8446 4.57641 40.299 4.57632 41.1928 5.47013ZM24.9902 34.8011C25.113 34.8333 25.2292 34.8975 25.3254 34.9937L26.3657 36.034L28.3524 34.0474C28.3569 34.0518 28.5365 33.8681 28.6669 33.7347C28.742 33.6578 28.8008 33.5977 28.8004 33.5998L29.4004 32.9998L31.387 31.0132L30.7479 30.5279C30.7209 30.5075 30.6946 30.4857 30.6699 30.4611C30.6453 30.4364 30.6235 30.41 30.6031 30.383L22.9448 22.7247L18.0004 27.669L24.9902 34.8011ZM25.7233 37.5263L26.141 37.9553C26.1977 38.0121 25.2965 37.1619 25.7233 37.5263ZM22.6293 37.4537L24.0831 36.0003L16.7996 28.7169L1.71928 43.7973C1.40316 44.1134 1.40316 44.6278 1.71928 44.9439L7.85588 51.0806C8.00906 51.2338 8.21269 51.3182 8.42925 51.3182C8.64581 51.3182 8.84944 51.2338 9.00263 51.0806L10.5086 49.5746L6.56278 45.6289C6.27347 45.3395 6.27347 44.8705 6.56278 44.5811C6.85209 44.2919 7.32113 44.2919 7.61044 44.5811L11.5563 48.527L13.2769 46.8064L11.5427 45.0722C11.2534 44.7828 11.2534 44.3138 11.5427 44.0244C11.832 43.7352 12.301 43.7352 12.5903 44.0244L14.3245 45.7586L16.0451 44.038L14.3109 42.3039C14.0216 42.0145 14.0216 41.5456 14.3109 41.2562C14.6003 40.967 15.0693 40.967 15.3586 41.2562L17.0928 42.9904L18.8134 41.2698L14.8675 37.3239C14.5782 37.0345 14.5782 36.5656 14.8675 36.2762C15.1568 35.987 15.6259 35.987 15.9152 36.2762L19.861 40.222L21.5816 38.5014L19.8474 36.7673C19.5581 36.4778 19.5581 36.0089 19.8474 35.7195C20.1368 35.4303 20.6058 35.4303 20.8951 35.7195L22.6293 37.4537Z" fill="#666666"/>
</svg>
