<svg width="48" height="60" viewBox="0 0 48 60" fill="none" xmlns="http://www.w3.org/2000/svg">
<path fill-rule="evenodd" clip-rule="evenodd" d="M18.7504 29.1412C19.5763 34.6368 18.0632 37.6415 13.7901 38.2734C9.04162 38.9756 7.08505 35.7946 6.25912 30.299C5.14818 22.904 7.75912 18.3046 11.4819 18.0084C14.8701 17.7393 17.9235 23.6465 18.7504 29.1412Z" stroke="#666666" stroke-width="2"/>
<path fill-rule="evenodd" clip-rule="evenodd" d="M20.9674 44.3935C21.2609 47.5135 19.5743 50.4254 17.0299 50.9242C14.4612 51.4267 11.5259 49.3895 10.9277 46.3126C10.3296 43.2357 12.5918 43.0726 15.364 42.5429C18.1362 42.0132 20.613 40.6304 20.9674 44.3935Z" stroke="#666666" stroke-width="2"/>
<path fill-rule="evenodd" clip-rule="evenodd" d="M29.2497 20.1404C28.4237 25.636 29.9369 28.6407 34.2091 29.2725C38.9584 29.9747 40.9141 26.7938 41.74 21.2982C42.8519 13.9022 40.24 9.27755 36.5181 9.00755C33.1056 8.76005 30.0766 14.6447 29.2497 20.1404Z" stroke="#666666" stroke-width="2"/>
<path fill-rule="evenodd" clip-rule="evenodd" d="M27.0331 35.3933C26.7396 38.5123 28.4262 41.4252 30.9706 41.9239C33.5393 42.4264 36.4746 40.3892 37.0728 37.3123C37.6709 34.2355 35.4087 34.0723 32.6365 33.5417C29.8643 33.0111 27.3875 31.6292 27.0331 35.3933V35.3933Z" stroke="#666666" stroke-width="2"/>
</svg>
