<svg width="48" height="60" viewBox="0 0 48 60" fill="none" xmlns="http://www.w3.org/2000/svg">
<path fill-rule="evenodd" clip-rule="evenodd" d="M32.7973 55.5971C35.7326 52.6618 37.2002 49.1295 37.2002 45C37.2002 40.9375 35.7716 37.4442 32.9145 34.5201V10.7143C32.9145 7.74554 31.8709 5.21763 29.7839 3.13058C27.6968 1.04353 25.1689 0 22.2002 0C19.2314 0 16.7035 1.04353 14.6165 3.13058C12.5294 5.21763 11.4859 7.74554 11.4859 10.7143V34.5201C8.62877 37.4442 7.2002 40.9375 7.2002 45C7.2002 49.1295 8.66783 52.6618 11.6031 55.5971C14.5384 58.5324 18.0707 60 22.2002 60C26.3297 60 29.862 58.5324 32.7973 55.5971ZM31.7761 40.1786C32.535 41.6741 32.9145 43.2812 32.9145 45C32.9145 47.9688 31.8709 50.4967 29.7839 52.5837C27.6968 54.6708 25.1689 55.7143 22.2002 55.7143C19.2314 55.7143 16.7035 54.6708 14.6165 52.5837C12.5294 50.4967 11.4859 47.9688 11.4859 45C11.4859 43.2812 11.8653 41.6741 12.6243 40.1786C13.3832 38.683 14.4323 37.433 15.7716 36.4286V10.7143C15.7716 8.92857 16.3966 7.41071 17.6466 6.16071C18.8966 4.91071 20.4145 4.28571 22.2002 4.28571C23.9859 4.28571 25.5037 4.91071 26.7537 6.16071C28.0037 7.41071 28.6287 8.92857 28.6287 10.7143V36.4286C29.968 37.433 31.0171 38.683 31.7761 40.1786ZM41.4858 25.7143V30H35.0573V25.7143H41.4858ZM41.4858 21.4286V17.1429H35.0573V21.4286H41.4858ZM41.4858 12.8571H35.0573V8.57143H41.4858V12.8571ZM26.4162 49.8161C27.4912 48.7411 28.0287 47.4357 28.0287 45.9C28.0287 44.7482 27.6928 43.6924 27.0209 42.7326C26.349 41.7728 25.4564 41.0913 24.343 40.6882V8.57143H20.6573V40.6882C19.5439 41.0913 18.6513 41.7728 17.9794 42.7326C17.3075 43.6924 16.9716 44.7482 16.9716 45.9C16.9716 47.4357 17.5091 48.7411 18.5841 49.8161C19.6591 50.8911 20.9644 51.4286 22.5001 51.4286C24.0359 51.4286 25.3412 50.8911 26.4162 49.8161Z" fill="#666666"/>
</svg>
