<svg width="48" height="60" viewBox="0 0 48 60" fill="none" xmlns="http://www.w3.org/2000/svg">
<path fill-rule="evenodd" clip-rule="evenodd" d="M24 0C8.01 13.65 0 25.44 0 35.4C0 50.34 11.4 60 24 60C36.6 60 48 50.34 48 35.4C48 25.44 39.99 13.65 24 0ZM24 54C13.95 54 6 46.29 6 35.4C6 28.38 11.85 19.08 24 7.98C36.15 19.08 42 28.35 42 35.4C42 46.29 34.05 54 24 54ZM13.7101 37.86C13.5001 36.78 12.6001 36 11.4901 36C10.8306 36.0003 10.2045 36.2899 9.7772 36.7922C9.34994 37.2945 9.16455 37.959 9.27007 38.61C10.9801 47.7 18.4501 51.36 24.8401 50.97C26.0401 50.91 27.0001 49.92 27.0001 48.72C27.0001 47.43 25.9201 46.41 24.6301 46.47C20.5501 46.8 14.9401 44.52 13.7101 37.86Z" fill="#666666"/>
</svg>
