<svg xmlns="http://www.w3.org/2000/svg" xmlns:xlink="http://www.w3.org/1999/xlink" width="32.084" height="30.482" viewBox="0 0 32.084 30.482">
  <defs>
    <linearGradient id="linear-gradient" x1="1" y1="0.855" x2="0" y2="0.145" gradientUnits="objectBoundingBox">
      <stop offset="0" stop-color="#00669b"/>
      <stop offset="1" stop-color="#4929bb"/>
    </linearGradient>
  </defs>
  <path id="Formaddd_1" data-name="Formaddd 1" d="M7.486,23.323v-.911c-.776,0-1.6-.561-1.6-2.134V18.936A7.571,7.571,0,0,1,0,11.782v-1.11H1.069V3.736A2.669,2.669,0,0,1,3.293,1.113,1.609,1.609,0,1,1,3.326,2.2,1.6,1.6,0,0,0,2.139,3.736v6.937h1.6V11.8a4.243,4.243,0,0,0,3.072,3.981,4.874,4.874,0,0,0,2.941,0A4.245,4.245,0,0,0,12.833,11.8V10.672H13.9l-.024-6.942A1.6,1.6,0,0,0,12.714,2.2a1.593,1.593,0,1,1,.036-1.088,2.672,2.672,0,0,1,2.2,2.612l.022,6.945h1.069v1.113a7.571,7.571,0,0,1-5.882,7.15v1.342c0,1.574-.829,2.134-1.6,2.134v.911a5.875,5.875,0,0,0,5.615,6.092,5.873,5.873,0,0,0,5.615-6.092V12.807l.031-.005h-.031A4.733,4.733,0,0,1,24.33,8.091a4.714,4.714,0,0,1,4.545,4.856v.97a3.742,3.742,0,1,1-1.069,0v-.968A3.646,3.646,0,0,0,24.33,9.16a3.656,3.656,0,0,0-3.476,3.673v10.49a6.943,6.943,0,0,1-6.684,7.159A6.94,6.94,0,0,1,7.486,23.323Zm-.535-3.045c0,.32.053,1.067.535,1.067H8.555c.481,0,.535-.747.535-1.067V19.145c-.043.005-.086.007-.128.012s-.112.01-.165.015c-.251.022-.506.038-.762.038H8.007c-.257,0-.513-.016-.765-.038-.054-.005-.107-.009-.161-.015s-.087-.006-.13-.012Zm18.716-2.668a2.674,2.674,0,1,0,2.674-2.668A2.671,2.671,0,0,0,25.667,17.609Zm-24.6-5.827a6.543,6.543,0,0,0,5.454,6.211,6.89,6.89,0,0,0,.738.112,7.643,7.643,0,0,0,2.256-.11,6.545,6.545,0,0,0,5.454-6.212V11.74H13.9V11.8a5.3,5.3,0,0,1-3.82,5,5.958,5.958,0,0,1-3.593,0,5.3,5.3,0,0,1-3.817-5V11.74h-1.6ZM10.694,1.6a.535.535,0,1,0,.535-.533A.534.534,0,0,0,10.694,1.6Zm-6.417,0a.535.535,0,1,0,.535-.533A.534.534,0,0,0,4.278,1.6ZM26.737,17.609a1.6,1.6,0,1,1,1.6,1.6A1.6,1.6,0,0,1,26.737,17.609Zm1.07,0a.535.535,0,1,0,.535-.533A.534.534,0,0,0,27.806,17.609Z" fill="url(#linear-gradient)"/>
</svg>
