<svg xmlns="http://www.w3.org/2000/svg" xmlns:xlink="http://www.w3.org/1999/xlink" width="37.681" height="31.42" viewBox="0 0 37.681 31.42">
  <defs>
    <linearGradient id="linear-gradient" x1="0.073" y1="0.5" x2="0.907" y2="3.555" gradientUnits="objectBoundingBox">
      <stop offset="0" stop-color="#00669b"/>
      <stop offset="1" stop-color="#4929bb"/>
    </linearGradient>
  </defs>
  <g id="theater" transform="translate(0 0)">
    <g id="Group_485" data-name="Group 485" transform="translate(1.128)">
      <g id="Group_484" data-name="Group 484">
        <path id="Path_274" data-name="Path 274" d="M50.452,42.739a.846.846,0,0,0-.687-.191,111.421,111.421,0,0,1-16.727,1.3,111.424,111.424,0,0,1-16.727-1.3.849.849,0,0,0-.986.838v6.743a.553.553,0,0,0,1.106,0V43.688a111.442,111.442,0,0,0,16.607,1.268,111.441,111.441,0,0,0,16.607-1.268v6.438a.553.553,0,0,0,1.106,0v-6.74A.847.847,0,0,0,50.452,42.739Z" transform="translate(-15.326 -42.537)" fill="url(#linear-gradient)"/>
      </g>
    </g>
    <g id="Group_487" data-name="Group 487" transform="translate(1.128 9.611)">
      <g id="Group_486" data-name="Group 486" transform="translate(0 0)">
        <path id="Path_275" data-name="Path 275" d="M50.2,173.127a.553.553,0,0,0-.553.553v6.436a109.383,109.383,0,0,0-33.214,0V173.68a.553.553,0,1,0-1.106,0v6.737a.848.848,0,0,0,.985.838,111.425,111.425,0,0,1,16.727-1.3,111.423,111.423,0,0,1,16.727,1.3.849.849,0,0,0,.986-.838V173.68A.553.553,0,0,0,50.2,173.127Z" transform="translate(-15.331 -173.127)" fill="url(#linear-gradient)"/>
      </g>
    </g>
    <g id="Group_489" data-name="Group 489" transform="translate(3.339 2.586)">
      <g id="Group_488" data-name="Group 488">
        <path id="Path_276" data-name="Path 276" d="M76.013,77.945a1.062,1.062,0,0,0-.837-.256,114.14,114.14,0,0,1-14.3.929,114.128,114.128,0,0,1-14.3-.929,1.062,1.062,0,0,0-1.2,1.054V89.195a1.062,1.062,0,0,0,1.2,1.054,110.6,110.6,0,0,1,28.607,0,1.062,1.062,0,0,0,1.2-1.054V78.743A1.063,1.063,0,0,0,76.013,77.945ZM60.873,88.214a115.267,115.267,0,0,0-14.4.932V78.792a115.258,115.258,0,0,0,14.4.932,115.269,115.269,0,0,0,14.4-.932V89.146A115.255,115.255,0,0,0,60.873,88.214Z" transform="translate(-45.372 -77.68)" fill="url(#linear-gradient)"/>
      </g>
    </g>
    <g id="Group_491" data-name="Group 491" transform="translate(0 19.218)">
      <g id="Group_490" data-name="Group 490">
        <path id="Path_277" data-name="Path 277" d="M36.99,312.841h-.818v-2.847a2.4,2.4,0,0,0-2.394-2.394H32.83v-1.538a2.4,2.4,0,0,0-2.394-2.395H27.4a2.39,2.39,0,0,0-1.842.866,2.39,2.39,0,0,0-1.842-.866H20.69a2.39,2.39,0,0,0-1.842.866,2.39,2.39,0,0,0-1.842-.866H13.975a2.39,2.39,0,0,0-1.842.866,2.39,2.39,0,0,0-1.842-.866H7.261a2.4,2.4,0,0,0-2.394,2.395V307.6H3.887a2.4,2.4,0,0,0-2.394,2.394v2.847H.69a.691.691,0,0,0-.69.69v1.647a.691.691,0,0,0,.69.691h36.3a.691.691,0,0,0,.69-.691v-1.647A.691.691,0,0,0,36.99,312.841ZM32.278,308.7h1.5a1.29,1.29,0,0,1,1.289,1.289v2.847H29.457v-2.847c0-.035,0-.069.005-.1s.006-.054.009-.081,0-.031.007-.046.01-.051.016-.076.008-.031.012-.047.015-.048.023-.072.011-.03.017-.045.019-.046.03-.069l.02-.042c.012-.023.024-.045.037-.067l.023-.037q.021-.034.044-.066l.024-.032c.017-.022.034-.043.052-.064l.024-.027c.019-.021.039-.041.06-.061l.024-.022c.022-.02.044-.039.067-.057l.024-.018c.024-.018.048-.036.074-.052l.025-.015c.026-.016.052-.031.079-.045l.028-.014c.027-.013.053-.026.081-.037l.034-.013c.026-.01.053-.02.08-.028l.045-.012c.025-.007.049-.013.074-.018l.064-.01.059-.009c.042,0,.085-.007.128-.007h1.531Zm-6.162-2.643a1.29,1.29,0,0,1,1.289-1.289h3.031a1.29,1.29,0,0,1,1.289,1.289V307.6h-.979c-.044,0-.088,0-.131,0l-.035,0-.1.008-.035,0-.1.014-.03.005-.1.021-.02,0q-.058.013-.114.03l-.007,0a2.4,2.4,0,0,0-1.175.771,2.4,2.4,0,0,0-1.175-.771l-.006,0q-.057-.016-.114-.03l-.02,0-.1-.021-.029-.005-.1-.014-.035,0-.1-.008-.035,0c-.043,0-.087,0-.131,0h-.947Zm-.553,2.643h1.5c.043,0,.086,0,.128.007l.059.009.064.01c.025.005.05.012.075.018l.044.011c.027.008.054.018.081.028l.034.012c.028.011.055.024.082.037l.027.013c.027.014.053.03.079.046l.025.015c.025.017.05.034.074.052l.024.018c.023.018.046.038.068.058l.024.022c.021.02.041.04.06.061l.024.026c.018.021.035.042.052.064l.024.032c.015.021.03.043.044.065l.023.037q.019.033.036.067l.021.043q.015.034.029.068c.006.015.012.031.017.047s.016.046.023.07.009.032.013.049.011.049.016.073.005.032.007.049.007.052.009.078.005.069.005.1v2.847H22.743v-2.847c0-.035,0-.069.005-.1s.006-.054.009-.081,0-.031.007-.046.01-.051.016-.076.008-.031.012-.047.015-.048.023-.072.011-.03.017-.045.019-.046.03-.069l.02-.042c.012-.023.024-.045.037-.067l.023-.037q.021-.034.044-.066l.024-.032c.017-.022.034-.043.052-.064l.024-.027c.019-.021.039-.041.06-.061l.024-.022c.022-.02.044-.039.067-.057l.024-.018c.024-.018.048-.036.074-.052l.025-.015c.026-.016.052-.031.079-.045l.028-.014c.027-.013.053-.026.081-.037l.034-.013c.026-.01.053-.02.08-.028l.045-.012c.025-.007.049-.013.074-.018l.064-.01.059-.009c.042,0,.085-.007.128-.007Zm-4.873-3.932h3.031a1.29,1.29,0,0,1,1.289,1.289V307.6h-.979c-.044,0-.088,0-.131,0l-.035,0-.1.008-.035,0-.1.014-.03.005-.1.021-.02,0q-.058.013-.114.03l-.007,0a2.4,2.4,0,0,0-1.175.771,2.4,2.4,0,0,0-1.175-.771l-.006,0q-.057-.016-.114-.03l-.02,0-.1-.021-.029-.005-.1-.014-.035,0-.1-.008-.035,0c-.043,0-.087,0-.131,0H19.4v-1.538h0A1.29,1.29,0,0,1,20.69,304.773ZM18.848,308.7h1.5c.043,0,.086,0,.128.007l.059.009.064.01c.025.005.05.012.075.018l.044.011c.027.008.054.018.081.028l.034.012c.028.011.055.024.082.037l.027.013c.027.014.053.03.079.046l.025.015c.025.017.05.034.074.052l.024.018c.023.018.046.038.068.058l.024.022c.021.02.041.04.06.061l.024.026c.018.021.035.042.052.064l.024.032c.015.021.03.043.044.065l.023.037q.019.033.036.067l.021.043q.015.034.029.068c.006.015.012.031.017.047s.016.046.023.07.009.032.013.049.011.049.016.073.005.032.007.049.007.052.009.078.005.069.005.1v2.847H16.028v-2.847c0-.037,0-.074.006-.111v0a1.3,1.3,0,0,1,1.038-1.15l.033-.005c.029,0,.057-.01.086-.013s.083-.006.126-.006Zm-6.162-2.643a1.29,1.29,0,0,1,1.289-1.289h3.031a1.29,1.29,0,0,1,1.289,1.289V307.6h-.979q-.065,0-.129,0l-.068.005-.055,0-.1.012-.019,0a2.376,2.376,0,0,0-1.465.819,2.384,2.384,0,0,0-1.834-.848h-.963Zm-.553,2.643h1.5a1.29,1.29,0,0,1,1.289,1.289v2.847H9.313v-2.847c0-.037,0-.074.006-.111v0a1.3,1.3,0,0,1,1.038-1.15l.033-.005c.029,0,.057-.01.086-.013s.083-.006.126-.006Zm-6.162-2.643a1.29,1.29,0,0,1,1.289-1.289h3.031a1.29,1.29,0,0,1,1.289,1.289V307.6H10.6q-.065,0-.129,0l-.069.005-.055,0-.1.012-.019,0a2.376,2.376,0,0,0-1.465.819,2.384,2.384,0,0,0-1.834-.848H5.972ZM2.6,309.994A1.29,1.29,0,0,1,3.887,308.7H6.919a1.29,1.29,0,0,1,1.289,1.289v2.847H2.6Zm33.977,4.769H1.106v-.816H36.575Z" transform="translate(0 -303.667)" fill="url(#linear-gradient)"/>
      </g>
    </g>
  </g>
</svg>
