<svg id="fork" xmlns="http://www.w3.org/2000/svg" xmlns:xlink="http://www.w3.org/1999/xlink" width="36.966" height="36.758" viewBox="0 0 36.966 36.758">
  <defs>
    <linearGradient id="linear-gradient" y1="0.102" x2="0.906" y2="0.916" gradientUnits="objectBoundingBox">
      <stop offset="0" stop-color="#00669b"/>
      <stop offset="1" stop-color="#4929bb"/>
    </linearGradient>
  </defs>
  <path id="Path_271" data-name="Path 271" d="M79.591,20.783l2.172-.138h.012a5.114,5.114,0,0,0,3.812-2.225L87.3,15.9a10.165,10.165,0,0,0,1.63-7.458,2.294,2.294,0,0,0-2.152-1.908,10.162,10.162,0,0,0-7.209,2.512l-2.3,2.007A5.114,5.114,0,0,0,75.526,15.1s0,.008,0,.012l.124,2.172a3.058,3.058,0,0,1-.85,2.291L56.869,38a2.605,2.605,0,0,0-.7,1.934,3,3,0,0,0,3.035,2.912q.119,0,.238-.01a2.606,2.606,0,0,0,1.839-.928L77.418,21.9a3.059,3.059,0,0,1,2.174-1.12Zm-3.035.423-16.132,20a1.508,1.508,0,0,1-1.067.522,1.893,1.893,0,0,1-2.078-1.842,1.506,1.506,0,0,1,.387-1.119L75.6,20.351a4.17,4.17,0,0,0,1.161-3.125l-.124-2.167a4.011,4.011,0,0,1,1.374-3.171l2.3-2.007a9.066,9.066,0,0,1,6.427-2.24,1.186,1.186,0,0,1,1.112.986,9.062,9.062,0,0,1-1.453,6.649L84.671,17.8a4.011,4.011,0,0,1-2.984,1.745l-2.166.137a4.172,4.172,0,0,0-2.965,1.529Zm0,0" transform="translate(-52.113 -6.088)" fill="url(#linear-gradient)"/>
  <path id="Path_272" data-name="Path 272" d="M304.715,297.995l-12.022-10.95a.554.554,0,1,0-.746.819l12.019,10.948a1.509,1.509,0,0,1,.457,1.1,1.893,1.893,0,0,1-1.964,1.964,1.506,1.506,0,0,1-1.094-.454l-10.713-11.762a.554.554,0,1,0-.819.746l10.716,11.764a2.605,2.605,0,0,0,1.889.813h.058a3,3,0,0,0,3.035-3.094,2.608,2.608,0,0,0-.815-1.892Zm0,0" transform="translate(-268.774 -266.222)" fill="url(#linear-gradient)"/>
  <path id="Path_273" data-name="Path 273" d="M6.686,15.089a5.131,5.131,0,0,0,3.355,1.357h.012l2.176.007a3.056,3.056,0,0,1,2.236.986l.959,1.052a.554.554,0,1,0,.819-.746l-.96-1.054a4.17,4.17,0,0,0-3.05-1.347l-2.17-.007a4.026,4.026,0,0,1-2.6-1.04L1.156,6.8a.191.191,0,0,1,.282-.259l5.74,5.741a1.457,1.457,0,0,0,2.058,0l.675-.674h0l1.2-1.2h0l.674-.674a1.457,1.457,0,0,0,0-2.058l-5.74-5.74A.191.191,0,0,1,6.3,1.655l7.5,6.307a4.024,4.024,0,0,1,1.041,2.6l.006,2.17a4.173,4.173,0,0,0,1.348,3.052l1.027.935a.554.554,0,1,0,.746-.819l-1.025-.934a3.059,3.059,0,0,1-.988-2.237l-.007-2.176s0-.008,0-.012a5.131,5.131,0,0,0-1.357-3.355.554.554,0,0,0-.051-.049L7.015.807A1.3,1.3,0,0,0,5.26,2.72L11,8.461a.348.348,0,0,1,0,.491l-.283.283-6.4-6.4a.554.554,0,0,0-.783.783l6.4,6.4-.415.414-6.4-6.4a.554.554,0,0,0-.783.783l6.4,6.4-.283.283a.348.348,0,0,1-.491,0L2.221,5.758A1.3,1.3,0,0,0,.308,7.514l6.33,7.524a.516.516,0,0,0,.049.051Zm0,0" transform="translate(0 -0.499)" fill="url(#linear-gradient)"/>
</svg>
