<svg xmlns="http://www.w3.org/2000/svg" xmlns:xlink="http://www.w3.org/1999/xlink" width="38.02" height="34.56" viewBox="0 0 38.02 34.56">
  <defs>
    <linearGradient id="linear-gradient" x1="1" y1="0.871" x2="0" y2="0.129" gradientUnits="objectBoundingBox">
      <stop offset="0" stop-color="#00669b"/>
      <stop offset="1" stop-color="#4929bb"/>
    </linearGradient>
  </defs>
  <path id="Shape_1" data-name="Shape 1" d="M24.327,31.275a3.344,3.344,0,1,1,3.344,3.285A3.318,3.318,0,0,1,24.327,31.275Zm1.867,0a1.477,1.477,0,1,0,1.477-1.451A1.465,1.465,0,0,0,26.194,31.275Zm-13.6,0a3.344,3.344,0,1,1,3.344,3.285A3.319,3.319,0,0,1,12.6,31.275Zm1.867,0a1.477,1.477,0,1,0,1.477-1.451A1.465,1.465,0,0,0,14.465,31.275ZM11,26.508a1.866,1.866,0,0,1-1.829-1.464L4.659,3.505.562,1.758A.911.911,0,0,1,.077.552.939.939,0,0,1,1.305.076L5.4,1.823A1.845,1.845,0,0,1,6.488,3.135l.587,2.8H36.153a1.872,1.872,0,0,1,1.447.675,1.8,1.8,0,0,1,.382,1.529L35.37,20.59a1.866,1.866,0,0,1-1.829,1.464H10.455L11,24.674H33.369a.917.917,0,1,1,0,1.834Zm-.934-6.288H33.542L36.152,7.77H7.46Zm5.774-2.927a.917.917,0,1,1,0-1.834H27.766a.917.917,0,1,1,0,1.834Zm-.728-4.762a.917.917,0,1,1,0-1.834H28.494a.917.917,0,1,1,0,1.834Z" fill="url(#linear-gradient)"/>
</svg>
