<svg xmlns="http://www.w3.org/2000/svg" xmlns:xlink="http://www.w3.org/1999/xlink" width="37.089" height="36.839" viewBox="0 0 37.089 36.839">
  <defs>
    <linearGradient id="linear-gradient" x1="1" y1="0.84" x2="0" y2="0.16" gradientUnits="objectBoundingBox">
      <stop offset="0" stop-color="#00669b"/>
      <stop offset="1" stop-color="#4929bb"/>
    </linearGradient>
  </defs>
  <path id="Forma_1" data-name="Forma 1" d="M1.783,36.839A1.057,1.057,0,0,1,.726,35.783V34.675a1.057,1.057,0,0,1,1.056-1.056H3.649V32.556a.874.874,0,0,1,.692-.854v-.927a.873.873,0,0,1,.872-.872h.073v-.82a.527.527,0,0,1,1.054,0V30.43a.527.527,0,0,1-.527.527H5.4v.791H9.127v-.791H8.709a.527.527,0,0,1-.527-.527V18.792a.527.527,0,0,1,.527-.527h.418v-.727H5.4v.727h.418a.527.527,0,0,1,.527.527v6.981a.527.527,0,0,1-1.054,0V19.319H5.214a.873.873,0,0,1-.872-.872v-.927a.873.873,0,0,1-.692-.853V13.26H.992a.991.991,0,0,1-.536-1.824L17.975.167a1.055,1.055,0,0,1,1.139,0L21.57,1.746a.527.527,0,1,1-.57.886l-2.456-1.58L1.205,12.207H4.021L17.773,3.361a1.428,1.428,0,0,1,1.542,0l13.752,8.846h2.816L23.8,4.436a.527.527,0,1,1,.57-.886l12.26,7.886A.991.991,0,0,1,36.1,13.26H33.439v3.406a.873.873,0,0,1-.692.853v.927a.873.873,0,0,1-.872.872H31.8V29.9h.072a.873.873,0,0,1,.872.872V31.7a.874.874,0,0,1,.692.854v1.063h1.867a1.057,1.057,0,0,1,1.056,1.056v1.108a1.057,1.057,0,0,1-1.056,1.056Zm0-1.056,33.526,0h0v-1.11l-33.526,0Zm25.489-2.164h5.116v-.846a.535.535,0,0,1-.167.027H27.433a.531.531,0,0,1-.164-.027ZM20.519,29.9h.072a.873.873,0,0,1,.872.872V31.7a.873.873,0,0,1,.692.853v1.063h4.06V32.556a.873.873,0,0,1,.692-.853v-.927a.873.873,0,0,1,.873-.872h.072V19.319h-.072a.874.874,0,0,1-.873-.872v-.927a.873.873,0,0,1-.692-.853V15.6h-4.06v1.063a.873.873,0,0,1-.692.853v.927a.873.873,0,0,1-.872.872h-.072Zm-4.533,3.716H21.1v-.846a.526.526,0,0,1-.168.028H16.15a.527.527,0,0,1-.164-.026ZM9.236,29.9h.072a.873.873,0,0,1,.872.872V31.7a.873.873,0,0,1,.692.853v1.063h4.06V32.556a.873.873,0,0,1,.692-.853v-.927A.873.873,0,0,1,16.5,29.9h.072V19.319H16.5a.873.873,0,0,1-.872-.872v-.927a.873.873,0,0,1-.692-.853V15.6h-4.06v1.063a.873.873,0,0,1-.692.853v.927a.873.873,0,0,1-.872.872H9.236ZM4.7,33.619H9.819v-.845a.527.527,0,0,1-.165.027H4.868a.527.527,0,0,1-.165-.027Zm23.259-1.872h3.731v-.791h-.418a.527.527,0,0,1-.527-.527V18.792a.527.527,0,0,1,.527-.527h.418v-.727H27.962v.727h.418a.527.527,0,0,1,.526.527V30.43a.527.527,0,0,1-.526.527h-.418Zm-11.283,0H20.41v-.791h-.418a.527.527,0,0,1-.527-.527V18.792a.527.527,0,0,1,.527-.527h.418v-.727H16.678v.727H17.1a.527.527,0,0,1,.527.527V30.43a.527.527,0,0,1-.527.527h-.418ZM27.269,16.485h5.116V15.6H27.269Zm-11.283,0H21.1V15.6H15.986Zm-11.283,0H9.819V15.6H4.7Zm0-1.936H32.386V13.26H4.7Zm13.641-10.3L5.969,12.207H31.12L18.745,4.247a.372.372,0,0,0-.4,0Zm-.054,7.49v-.251c-1-.016-1.685-.559-1.685-.956,0-.194.17-.462.373-.462.267,0,.486.567,1.313.632V8.8c-.729-.259-1.54-.551-1.54-1.588A1.5,1.5,0,0,1,18.289,5.7V5.467a.214.214,0,0,1,.235-.186c.122,0,.243.089.243.186v.219c.551.016,1.328.186,1.328.583,0,.154-.113.462-.356.462-.194,0-.4-.259-.972-.3V8.075c.7.259,1.474.616,1.474,1.717a1.569,1.569,0,0,1-1.474,1.669v.275c0,.1-.122.186-.243.186A.214.214,0,0,1,18.289,11.737Zm.429-1.053a.771.771,0,0,0,.713-.8.948.948,0,0,0-.713-.907ZM17.56,7.127c0,.462.348.632.778.794V6.447C17.884,6.5,17.56,6.706,17.56,7.127Z" fill="url(#linear-gradient)"/>
</svg>
