<?xml version="1.0" encoding="UTF-8"?>
<svg width="60px" height="19px" viewBox="0 0 60 19" version="1.1" xmlns="http://www.w3.org/2000/svg" xmlns:xlink="http://www.w3.org/1999/xlink">
    <!-- Generator: Sketch 53.2 (72643) - https://sketchapp.com -->
    <title>Apple Watch</title>
    <desc>Created with Sketch.</desc>
    <g id="Page-1" stroke="none" stroke-width="1" fill="none" fill-rule="evenodd">
        <g id="Change-the-tags,-it-should-be-like-this" transform="translate(-1095.000000, -354.000000)">
            <g id="Apple-Watch" transform="translate(1095.000000, 354.000000)">
                <rect id="Rectangle" stroke="#000000" fill="#FFFFFF" x="0.5" y="0.5" width="59" height="18" rx="2"></rect>
                <g id="cdnlogo.com_apple-watch" transform="translate(5.000000, 4.000000)" fill="#010202" fill-rule="nonzero">
                    <path d="M17.6858772,8.50763158 L17.6588596,8.50763158 L16.2645614,2.83491228 L14.6261404,2.83491228 L13.2453509,8.50763158 L13.2183333,8.50763158 L11.9321053,2.83491228 L10.2126316,2.83491228 L12.3788596,10.7828947 L14.0037719,10.7828947 L15.4385965,5.35333333 L15.465614,5.35333333 L16.9004386,10.7828947 L18.5388596,10.7828947 L20.6915789,2.83491228 L18.9721053,2.83491228 L17.6858772,8.50763158 Z M38.2114912,2.71236842 C36.1668421,2.71236842 34.9346491,4.06614035 34.9346491,6.34140351 L34.9346491,7.30245614 C34.9346491,9.60377193 36.1533333,10.9179825 38.1979825,10.9179825 C40.2561404,10.9179825 41.2847368,9.63175439 41.2847368,8.2104386 L41.2847368,8.06184211 L39.7408772,8.06184211 C39.7408772,8.88780702 39.3481579,9.52368421 38.2375439,9.52368421 C37.1269298,9.52368421 36.5721053,8.81929825 36.5721053,7.30342105 L36.5721053,6.34236842 C36.5721053,4.85254386 37.1269298,4.09508772 38.2240351,4.09508772 C39.2526316,4.09508772 39.7408772,4.79947368 39.7408772,5.58491228 L41.2847368,5.58491228 L41.2847368,5.50385965 C41.2857018,3.9445614 40.1345614,2.71236842 38.2114912,2.71236842 Z M23.2910526,2.83491228 L20.7861404,10.7828947 L22.3975439,10.7828947 L22.9658772,8.77877193 L25.4302632,8.77877193 L25.9850877,10.7828947 L27.7045614,10.7828947 L25.1996491,2.83491228 L23.2910526,2.83491228 Z M23.3045614,7.56008772 L24.1980702,4.40578947 L24.2115789,4.40578947 L25.0780702,7.56008772 L23.3045614,7.56008772 Z M47.7978947,2.83491228 L47.7978947,6.03070175 L44.615614,6.03070175 L44.615614,2.83491228 L43.0042105,2.83491228 L43.0042105,10.7828947 L44.615614,10.7828947 L44.615614,7.39798246 L47.7978947,7.39798246 L47.7978947,10.7828947 L49.4092982,10.7828947 L49.4092982,2.83491228 L47.7978947,2.83491228 Z M27.665,4.20219298 L29.9798246,4.20219298 L29.9798246,10.7828947 L31.5912281,10.7828947 L31.5912281,4.21666667 L33.9060526,4.21666667 L33.9060526,2.84938596 L27.6775439,2.84938596 L27.6775439,4.20315789 L27.665,4.20315789 L27.665,4.20219298 Z M7.20596491,5.84061404 C7.19245614,4.47333333 8.30307018,3.80947368 8.35710526,3.78245614 C7.73473684,2.83491228 6.75921053,2.72684211 6.42052632,2.69885965 C5.55403509,2.63131579 4.80912281,3.19964912 4.38938596,3.19964912 C3.96964912,3.19964912 3.31929825,2.71236842 2.64289474,2.72587719 C1.74938596,2.73938596 0.909912281,3.25368421 0.449649123,4.07964912 C-0.484385965,5.74508772 0.205526316,8.19596491 1.12701754,9.53622807 C1.57377193,10.2000877 2.10157895,10.9305263 2.80596491,10.9035088 C3.48333333,10.8764912 3.72649123,10.4567544 4.53894737,10.4567544 C5.35140351,10.4567544 5.58105263,10.9035088 6.2854386,10.89 C7.00333333,10.8764912 7.46359649,10.2126316 7.91035088,9.56324561 C8.42464912,8.80482456 8.62824561,8.05991228 8.64175439,8.01938596 C8.60122807,8.03385965 7.21947368,7.47903509 7.20596491,5.84061404 Z M5.86570175,1.80535088 C6.23140351,1.34508772 6.48807018,0.708245614 6.42052632,0.0723684211 C5.8927193,0.0993859649 5.24236842,0.438070175 4.86315789,0.898333333 C4.52447368,1.3045614 4.21280702,1.95394737 4.29482456,2.5772807 C4.89114035,2.63131579 5.5,2.26561404 5.86570175,1.80535088 Z" id="XMLID_11_"></path>
                </g>
            </g>
        </g>
    </g>
</svg>