<svg width="48" height="19" viewBox="0 0 48 19" fill="none" xmlns="http://www.w3.org/2000/svg">
<path d="M45.9068 0.5H2.09322C1.21331 0.5 0.5 1.39543 0.5 2.5V16.5C0.5 17.6046 1.21331 18.5 2.09322 18.5H45.9068C46.7867 18.5 47.5 17.6046 47.5 16.5V2.5C47.5 1.39543 46.7867 0.5 45.9068 0.5Z" fill="white" stroke="black"/>
<path d="M20.557 10.48H23.086L21.844 7.186L20.557 10.48ZM21.529 6.574H22.213L24.733 13H24.076L23.293 11.002H20.368L19.594 13H18.946L21.529 6.574ZM25.2089 8.356H25.7309V9.238H25.7489C25.8809 8.914 26.0939 8.665 26.3879 8.491C26.6879 8.311 27.0269 8.221 27.4049 8.221C27.7589 8.221 28.0649 8.287 28.3229 8.419C28.5869 8.551 28.8059 8.731 28.9799 8.959C29.1539 9.181 29.2829 9.442 29.3669 9.742C29.4509 10.036 29.4929 10.348 29.4929 10.678C29.4929 11.008 29.4509 11.323 29.3669 11.623C29.2829 11.917 29.1539 12.178 28.9799 12.406C28.8059 12.628 28.5869 12.805 28.3229 12.937C28.0649 13.063 27.7589 13.126 27.4049 13.126C27.2369 13.126 27.0689 13.105 26.9009 13.063C26.7329 13.021 26.5769 12.958 26.4329 12.874C26.2889 12.79 26.1599 12.685 26.0459 12.559C25.9379 12.433 25.8539 12.286 25.7939 12.118H25.7759V14.71H25.2089V8.356ZM28.9259 10.678C28.9259 10.438 28.8959 10.201 28.8359 9.967C28.7819 9.727 28.6919 9.514 28.5659 9.328C28.4459 9.142 28.2899 8.992 28.0979 8.878C27.9059 8.758 27.6749 8.698 27.4049 8.698C27.0929 8.698 26.8319 8.752 26.6219 8.86C26.4119 8.968 26.2439 9.112 26.1179 9.292C25.9919 9.472 25.9019 9.682 25.8479 9.922C25.7999 10.162 25.7759 10.414 25.7759 10.678C25.7759 10.918 25.8029 11.158 25.8569 11.398C25.9169 11.632 26.0099 11.842 26.1359 12.028C26.2679 12.214 26.4359 12.367 26.6399 12.487C26.8499 12.601 27.1049 12.658 27.4049 12.658C27.6749 12.658 27.9059 12.601 28.0979 12.487C28.2899 12.367 28.4459 12.214 28.5659 12.028C28.6919 11.842 28.7819 11.632 28.8359 11.398C28.8959 11.158 28.9259 10.918 28.9259 10.678ZM30.3769 8.356H30.8989V9.238H30.9169C31.0489 8.914 31.2619 8.665 31.5559 8.491C31.8559 8.311 32.1949 8.221 32.5729 8.221C32.9269 8.221 33.2329 8.287 33.4909 8.419C33.7549 8.551 33.9739 8.731 34.1479 8.959C34.3219 9.181 34.4509 9.442 34.5349 9.742C34.6189 10.036 34.6609 10.348 34.6609 10.678C34.6609 11.008 34.6189 11.323 34.5349 11.623C34.4509 11.917 34.3219 12.178 34.1479 12.406C33.9739 12.628 33.7549 12.805 33.4909 12.937C33.2329 13.063 32.9269 13.126 32.5729 13.126C32.4049 13.126 32.2369 13.105 32.0689 13.063C31.9009 13.021 31.7449 12.958 31.6009 12.874C31.4569 12.79 31.3279 12.685 31.2139 12.559C31.1059 12.433 31.0219 12.286 30.9619 12.118H30.9439V14.71H30.3769V8.356ZM34.0939 10.678C34.0939 10.438 34.0639 10.201 34.0039 9.967C33.9499 9.727 33.8599 9.514 33.7339 9.328C33.6139 9.142 33.4579 8.992 33.2659 8.878C33.0739 8.758 32.8429 8.698 32.5729 8.698C32.2609 8.698 31.9999 8.752 31.7899 8.86C31.5799 8.968 31.4119 9.112 31.2859 9.292C31.1599 9.472 31.0699 9.682 31.0159 9.922C30.9679 10.162 30.9439 10.414 30.9439 10.678C30.9439 10.918 30.9709 11.158 31.0249 11.398C31.0849 11.632 31.1779 11.842 31.3039 12.028C31.4359 12.214 31.6039 12.367 31.8079 12.487C32.0179 12.601 32.2729 12.658 32.5729 12.658C32.8429 12.658 33.0739 12.601 33.2659 12.487C33.4579 12.367 33.6139 12.214 33.7339 12.028C33.8599 11.842 33.9499 11.632 34.0039 11.398C34.0639 11.158 34.0939 10.918 34.0939 10.678ZM35.5539 6.574H36.1209V13H35.5539V6.574ZM40.545 10.354C40.539 10.138 40.5 9.931 40.428 9.733C40.362 9.535 40.266 9.361 40.14 9.211C40.014 9.055 39.861 8.932 39.681 8.842C39.501 8.746 39.297 8.698 39.069 8.698C38.835 8.698 38.628 8.746 38.448 8.842C38.268 8.932 38.115 9.055 37.989 9.211C37.863 9.361 37.761 9.538 37.683 9.742C37.611 9.94 37.563 10.144 37.539 10.354H40.545ZM37.539 10.831C37.539 11.035 37.566 11.248 37.62 11.47C37.68 11.686 37.773 11.881 37.899 12.055C38.025 12.229 38.184 12.373 38.376 12.487C38.568 12.601 38.799 12.658 39.069 12.658C39.483 12.658 39.807 12.55 40.041 12.334C40.275 12.118 40.437 11.83 40.527 11.47H41.094C40.974 11.998 40.752 12.406 40.428 12.694C40.11 12.982 39.657 13.126 39.069 13.126C38.703 13.126 38.385 13.063 38.115 12.937C37.851 12.805 37.635 12.628 37.467 12.406C37.299 12.178 37.173 11.917 37.089 11.623C37.011 11.323 36.972 11.008 36.972 10.678C36.972 10.372 37.011 10.072 37.089 9.778C37.173 9.484 37.299 9.223 37.467 8.995C37.635 8.761 37.851 8.575 38.115 8.437C38.385 8.293 38.703 8.221 39.069 8.221C39.441 8.221 39.759 8.296 40.023 8.446C40.287 8.596 40.5 8.794 40.662 9.04C40.83 9.28 40.95 9.559 41.022 9.877C41.094 10.189 41.124 10.507 41.112 10.831H37.539Z" fill="black"/>
<path d="M12.206 9.84051C12.1925 8.47323 13.3031 7.80937 13.3571 7.78235C12.7348 6.83481 11.7592 6.72674 11.4206 6.69876C10.5541 6.63121 9.80916 7.19955 9.38942 7.19955C8.96968 7.19955 8.31933 6.71227 7.64293 6.72577C6.74942 6.73928 5.90995 7.25358 5.44968 8.07955C4.51565 9.74498 5.20556 12.1959 6.12705 13.5361C6.57381 14.2 7.10161 14.9304 7.806 14.9034C8.48337 14.8764 8.72653 14.4567 9.53898 14.4567C10.3514 14.4567 10.5811 14.9034 11.2855 14.8899C12.0034 14.8764 12.4636 14.2125 12.9104 13.5631C13.4247 12.8047 13.6283 12.0598 13.6418 12.0193C13.6013 12.0338 12.2195 11.4789 12.206 9.84051ZM10.8657 5.80525C11.2314 5.34498 11.4881 4.70814 11.4206 4.07227C10.8928 4.09928 10.2424 4.43797 9.86319 4.89823C9.52451 5.30446 9.21284 5.95384 9.29486 6.57718C9.89118 6.63121 10.5 6.26551 10.8657 5.80525Z" fill="#010202"/>
</svg>
