<?xml version="1.0" encoding="UTF-8"?>
<svg width="75px" height="19px" viewBox="0 0 75 19" version="1.1" xmlns="http://www.w3.org/2000/svg" xmlns:xlink="http://www.w3.org/1999/xlink">
    <!-- Generator: Sketch 53.2 (72643) - https://sketchapp.com -->
    <title>Facebook</title>
    <desc>Created with Sketch.</desc>
    <g id="Page-1" stroke="none" stroke-width="1" fill="none" fill-rule="evenodd">
        <g id="Change-the-tags,-it-should-be-like-this" transform="translate(-683.000000, -354.000000)">
            <g id="Facebook" transform="translate(683.000000, 354.000000)">
                <rect id="Rectangle" stroke="#3D74FC" fill="#FFFFFF" x="0.5" y="0.5" width="74" height="18" rx="2"></rect>
                <text font-family="Poppins-Regular, Poppins" font-size="10" font-weight="normal" fill="#3D74FC">
                    <tspan x="21" y="13">Facebook</tspan>
                </text>
                <g id="logos:facebook" transform="translate(5.000000, 4.000000)">
                    <rect id="ViewBox" x="0" y="0" width="11" height="11"></rect>
                    <path d="M11,5.5 C11,2.46245313 8.53754688,0 5.5,0 C2.46245313,0 0,2.46241016 0,5.5 C0,8.2451875 2.01128125,10.5205977 4.640625,10.9331836 L4.640625,7.08984375 L3.24414062,7.08984375 L3.24414062,5.5 L4.640625,5.5 L4.640625,4.28828125 C4.640625,2.90984375 5.46175781,2.1484375 6.71803516,2.1484375 C7.3198125,2.1484375 7.94921875,2.25585938 7.94921875,2.25585938 L7.94921875,3.609375 L7.25570313,3.609375 C6.57241406,3.609375 6.359375,4.03334766 6.359375,4.46832031 L6.359375,5.5 L7.88476562,5.5 L7.64091797,7.08984375 L6.359375,7.08984375 L6.359375,10.9331836 C8.98871875,10.5205977 11,8.24523047 11,5.5" id="Path" fill="#1877F2" fill-rule="nonzero"></path>
                    <path d="M7.64091797,7.08984375 L7.88476562,5.5 L6.359375,5.5 L6.359375,4.46832031 C6.359375,4.03330469 6.57245703,3.609375 7.25570313,3.609375 L7.94921875,3.609375 L7.94921875,2.25585938 C7.94921875,2.25585938 7.3198125,2.1484375 6.71803516,2.1484375 C5.46175781,2.1484375 4.640625,2.90984375 4.640625,4.28828125 L4.640625,5.5 L3.24414062,5.5 L3.24414062,7.08984375 L4.640625,7.08984375 L4.640625,10.9331836 C4.92491388,10.9777359 5.2122413,11.0000756 5.5,11 C5.7877591,11.0000859 6.07508732,10.9777461 6.359375,10.9331836 L6.359375,7.08984375 L7.64091797,7.08984375" id="Path" fill="#FFFFFF" fill-rule="nonzero"></path>
                </g>
            </g>
        </g>
    </g>
</svg>