<?xml version="1.0" encoding="UTF-8"?>
<svg width="53px" height="19px" viewBox="0 0 53 19" version="1.1" xmlns="http://www.w3.org/2000/svg" xmlns:xlink="http://www.w3.org/1999/xlink">
    <!-- Generator: Sketch 53.2 (72643) - https://sketchapp.com -->
    <title>Fitbit</title>
    <desc>Created with Sketch.</desc>
    <g id="Page-1" stroke="none" stroke-width="1" fill="none" fill-rule="evenodd">
        <g id="Change-the-tags,-it-should-be-like-this" transform="translate(-830.000000, -354.000000)">
            <g id="Fitbit" transform="translate(830.000000, 354.000000)">
                <rect id="Rectangle" stroke="#00A9B9" fill="#FFFFFF" x="0.5" y="0.5" width="52" height="18" rx="2"></rect>
                <g id="Garmin-Copy" transform="translate(21.000000, 5.000000)" fill-rule="nonzero">
                    <path d="M3.34309891,3.1758768 L1.64515241,3.1758768 L1.64515241,2.3466692 C1.65245949,1.3870302 1.90791505,1.0305177 2.18872619,0.847548381 C2.47845197,0.658002689 2.91972662,0.640757977 3.34302584,0.64463073 C3.42854502,0.644650411 3.51055652,0.610636728 3.57095913,0.550097028 C3.63136173,0.489557328 3.66518941,0.407468929 3.66497585,0.321950015 C3.66499524,0.236557622 3.63108183,0.154657113 3.57070028,0.0942755719 C3.51031874,0.0338940303 3.42841823,-1.93792266e-05 3.34302584,8.30798821e-09 C2.92169953,0.00343433657 2.35284324,-0.0143949421 1.84405116,0.302732391 C1.32656366,0.626436097 0.993726098,1.28231972 1.00044861,2.34674227 L1.00044861,3.17594987 L0.336965621,3.17594987 C0.158599764,3.17594987 0.0139926225,3.32063008 0.0139926225,3.49789988 C0.0142345256,3.6761017 0.158763635,3.82043462 0.336965621,3.82043445 L1.00044861,3.82043445 L1.00044861,8.65209589 C1.00044861,8.82951183 1.14461733,8.97506889 1.32298319,8.97506889 C1.50134904,8.97506889 1.6456639,8.82951183 1.6456639,8.65209589 C1.64551776,5.56244266 1.64493319,5.34951431 1.64493319,3.82043445 L3.34280663,3.82043445 C3.52094204,3.82027384 3.66537704,3.67603491 3.66577963,3.49789988 C3.66607191,3.32055701 3.52095327,3.1758768 3.34309891,3.1758768 Z M10.9361064,8.33094966 L10.9361064,8.32948825 C10.3926057,8.33431092 9.95432696,8.30164827 9.70559391,8.11444084 C9.45941833,7.93943624 9.24079046,7.55683746 9.2379407,6.58178052 C9.23750227,5.19489647 9.23720999,4.553627 9.23720999,3.82905681 L10.9358141,3.82905681 C11.1139608,3.82905681 11.2583487,3.68444967 11.2583487,3.50652224 C11.2583487,3.3285948 11.1137416,3.18471837 10.9358141,3.18471837 L9.23720999,3.18471837 C9.23720999,2.54264513 9.2379407,1.71387595 9.2379407,0.322534583 C9.2379407,0.144387938 9.09311434,9.23109944e-09 8.9149677,9.23109944e-09 C8.73682105,9.23109944e-09 8.5937484,0.144461009 8.5937484,0.322534583 L8.5937484,3.18471837 L7.92938856,3.18471837 C7.75172798,3.18487951 7.60774584,3.32886166 7.60758469,3.50652224 C7.60762442,3.68435157 7.75155977,3.82861375 7.92938856,3.82905681 L8.5937484,3.82905681 L8.5937484,6.58178052 C8.59002179,7.63129662 8.83882791,8.28381899 9.33000992,8.63835858 C9.81994973,8.97989156 10.3925326,8.97046543 10.9360333,8.97499582 C11.0215808,8.974899 11.1035839,8.9408125 11.1639928,8.88023909 C11.2244018,8.81966567 11.2582652,8.73757025 11.2581295,8.65202282 C11.2580909,8.56671605 11.2241209,8.4849282 11.1637108,8.42469636 C11.1033008,8.36446452 11.0214129,8.33073619 10.9361064,8.33094966 L10.9361064,8.33094966 Z M25.7603478,8.3316073 L25.7603478,8.33007281 C25.0646406,8.33474935 24.6380532,8.25882877 24.432505,8.06833316 C24.2205996,7.89325549 24.0607207,7.48793168 24.0618898,6.59537169 L24.0618898,3.82898374 L25.7600555,3.82898374 C25.9388598,3.82898374 26.0821517,3.6843766 26.0821517,3.50644916 C26.0821517,3.32852173 25.9388598,3.1846453 25.7600555,3.1846453 L24.0618167,3.1846453 L24.0618167,0.321876944 C24.0619916,0.236552517 24.0281891,0.154669223 23.967876,0.0943150533 C23.907563,0.0339608833 23.8257028,0.000102504387 23.7403782,0.00021922075 C23.5622316,0.00021922075 23.4174783,0.14380337 23.4174783,0.321876944 L23.4174783,3.1846453 L22.7535569,3.1846453 C22.6680735,3.18450953 22.5860374,3.21833753 22.5254956,3.27868748 C22.4649538,3.33903744 22.4308656,3.42096578 22.43073,3.50644916 C22.4308914,3.68462736 22.5753786,3.82898381 22.7535569,3.82898374 L23.4174783,3.82898374 L23.4174783,6.59537169 C23.4194512,7.53769291 23.5653006,8.16084081 24.0108864,8.55527706 C24.4629024,8.93619522 25.0462998,8.96988086 25.7602748,8.97484968 C25.937959,8.974608 26.0819176,8.83058398 26.0820786,8.65289967 C26.082137,8.56759373 26.0482452,8.48577132 25.9878837,8.42549204 C25.9275222,8.36521275 25.8456536,8.33143255 25.7603478,8.3316073 L25.7603478,8.3316073 Z M5.29679327,8.65202282 L5.29679327,3.49826523 C5.29679327,3.32055701 5.44140041,3.1758768 5.61845099,3.1758768 C5.79649855,3.17599745 5.94084971,3.32021786 5.94113171,3.49826523 L5.94113171,8.65202282 C5.94113171,8.82943876 5.79645149,8.97499582 5.61845099,8.97499582 C5.44140041,8.97499582 5.29679327,8.82943876 5.29679327,8.65202282 L5.29679327,8.65202282 Z M20.2578963,8.65202282 L20.2578963,3.49826523 C20.2578963,3.32055701 20.4008959,3.1758768 20.5787503,3.1758768 C20.6643111,3.17581864 20.7463908,3.2097518 20.8069325,3.27021136 C20.8674743,3.33067093 20.901519,3.41270436 20.9015771,3.49826523 L20.9015771,8.65202282 C20.9014161,8.83027211 20.7569995,8.97475414 20.5787503,8.97499582 C20.4008959,8.97499582 20.2578963,8.82943876 20.2578963,8.65202282 Z M15.7920274,3.15432091 C14.8729427,3.15490548 14.0535996,3.58076218 13.5192328,4.24497588 L13.5192328,0.322534582 C13.5165814,0.146477128 13.3731044,0.00514462828 13.197027,0.00514462828 C13.0209496,0.00514462828 12.8774726,0.146477128 12.8748213,0.322534582 L12.8748213,6.26582232 C12.8748213,6.28862041 12.8832244,6.30878795 12.8881201,6.33048999 C13.0192823,7.82003853 14.2679163,8.98800242 15.7922466,8.98800242 C17.4029465,8.98800242 18.7082105,7.68303075 18.7082105,6.07189238 C18.7079913,4.46060785 17.4027273,3.15505162 15.7920274,3.15432091 L15.7920274,3.15432091 Z M15.7920274,8.34351784 C14.5365246,8.34110651 13.5208403,7.32710282 13.5192328,6.07189238 C13.5208403,4.81587815 14.5367439,3.80143604 15.7920274,3.79924392 C17.0469455,3.80136297 18.0615338,4.81565894 18.0635067,6.07189238 C18.0613146,7.32702975 17.0468725,8.34103344 15.7920274,8.34351784 Z" id="Shape" fill="#000000"></path>
                    <path d="M5.16358517,1.88259646 C5.04312666,1.76148963 4.97532632,1.59773949 4.97491633,1.42692687 C4.97491633,1.25711029 5.04345676,1.09123955 5.16358517,0.971257269 C5.28442261,0.850707903 5.44805716,0.782879296 5.61874328,0.782588427 C5.78947518,0.78297243 5.95314386,0.850782527 6.07412059,0.971257269 C6.19472013,1.09228203 6.2625898,1.25607277 6.26293557,1.42692687 C6.26251048,1.59776509 6.19465283,1.76152682 6.07412059,1.88259646 C5.95301723,2.00291716 5.78945502,2.07078813 5.61874328,2.07155759 C5.44808536,2.07084069 5.28457226,2.00295742 5.16358517,1.88259646 L5.16358517,1.88259646 Z M20.1235922,1.88259646 C20.0030265,1.76153715 19.9351187,1.59778118 19.934631,1.42692687 C19.934631,1.25711029 20.0032445,1.09123955 20.1235922,0.971257269 C20.2447484,0.850738664 20.4085908,0.782932771 20.579481,0.782588427 C20.748786,0.782588427 20.9143645,0.851128851 21.0347852,0.971257269 C21.1549425,1.0925406 21.222601,1.2562016 21.2231618,1.42692687 C21.2225383,1.59763956 21.1548892,1.76127774 21.0347852,1.88259646 C20.9143645,2.00221338 20.748786,2.07155759 20.579481,2.07155759 C20.4086124,2.07082017 20.2448792,2.0029545 20.1235922,1.88259646 L20.1235922,1.88259646 Z" id="Shape" fill="#00A9B9"></path>
                </g>
                <g id="vscode-icons:file-type-fitbit" transform="translate(5.000000, 4.000000)">
                    <rect id="ViewBox" x="0" y="0" width="11" height="11"></rect>
                    <path d="M6.043125,1.4575 C6.043125,1.85618055 5.71993055,2.179375 5.32125,2.179375 C4.92256945,2.179375 4.599375,1.85618055 4.599375,1.4575 C4.599375,1.05881945 4.92256945,0.735625 5.32125,0.735625 C5.71993055,0.735625 6.043125,1.05881945 6.043125,1.4575 M5.32125,2.75 C5.01645363,2.75000318 4.74173591,2.93379422 4.62541912,3.21552322 C4.50910234,3.49725222 4.57414234,3.82131822 4.79015854,4.03634805 C5.00617474,4.25137787 5.33053501,4.31493405 5.61172872,4.19732912 C5.89292243,4.07972418 6.07545426,3.80416819 6.0740625,3.499375 C6.07217013,3.08495119 5.73567813,2.74999568 5.32125,2.75 M5.32125,4.764375 C4.89029531,4.764375 4.5409375,5.11373281 4.5409375,5.5446875 C4.5409375,5.97564219 4.89029531,6.325 5.32125,6.325 C5.75220469,6.325 6.1015625,5.97564219 6.1015625,5.5446875 C6.1024815,5.33745539 6.02056539,5.13844545 5.87402872,4.99190878 C5.72749205,4.84537211 5.52848211,4.763456 5.32125,4.764375 M5.32125,6.826875 C4.9078344,6.82877142 4.57405316,7.16511314 4.575316,7.57853116 C4.57657883,7.99194918 4.91240861,8.32624549 5.32582808,8.32561625 C5.73924755,8.324987 6.07405815,7.98966995 6.0740625,7.57625 C6.0740646,7.37690637 5.99464112,7.18577711 5.8533617,7.0451428 C5.71208228,6.9045085 5.52059153,6.82596058 5.32125,6.826875 M5.32125,8.889375 C4.92256945,8.889375 4.599375,9.21256945 4.599375,9.61125 C4.599375,10.0099306 4.92256945,10.333125 5.32125,10.333125 C5.71993055,10.333125 6.043125,10.0099306 6.043125,9.61125 C6.043125,9.21256945 5.71993055,8.889375 5.32125,8.889375 M7.3115625,2.65375 C6.96752711,2.65235994 6.65665805,2.85871614 6.52435848,3.17629936 C6.3920589,3.49388258 6.46448234,3.85991168 6.70775408,4.10318342 C6.95102582,4.34645516 7.31705492,4.4188786 7.63463814,4.28657902 C7.95222136,4.15427945 8.15857756,3.84341039 8.1571875,3.499375 C8.15530367,3.03313175 7.77780575,2.65563383 7.3115625,2.65375 M7.3115625,4.668125 C6.8274504,4.668125 6.435,5.0605754 6.435,5.5446875 C6.435,6.0287996 6.8274504,6.42125 7.3115625,6.42125 C7.7956746,6.42125 8.188125,6.0287996 8.188125,5.5446875 C8.188125,5.0605754 7.7956746,4.668125 7.3115625,4.668125 M7.3115625,6.730625 C6.84453671,6.730625 6.4659375,7.10922421 6.4659375,7.57625 C6.4659375,8.04327579 6.84453671,8.421875 7.3115625,8.421875 C7.77858829,8.421875 8.1571875,8.04327579 8.1571875,7.57625 C8.15530367,7.11000675 7.77780575,6.73250883 7.3115625,6.730625 M9.35,4.571875 C8.95562255,4.56769409 8.59774707,4.80204304 8.44391952,5.16520711 C8.29009197,5.52837117 8.37075691,5.94847528 8.64814956,6.22883999 C8.9255422,6.50920471 9.34476282,6.59434206 9.70954559,6.44439345 C10.0743284,6.29444484 10.3124778,5.93908711 10.3125,5.5446875 C10.3144072,5.01064992 9.88402758,4.57565912 9.35,4.571875 M3.3103125,2.853125 C3.04413725,2.85173502 2.80346138,3.01118961 2.70095739,3.25684003 C2.5984534,3.50249044 2.65440727,3.78572146 2.84262416,3.97393834 C3.03084104,4.16215523 3.31407206,4.2181091 3.55972247,4.11560511 C3.80537289,4.01310112 3.96482748,3.77242525 3.9634375,3.50625 C3.9634375,3.14553902 3.67102348,2.853125 3.3103125,2.853125 M3.3103125,4.8675 C2.93061673,4.8675 2.6228125,5.17530423 2.6228125,5.555 C2.6228125,5.93469577 2.93061673,6.2425 3.3103125,6.2425 C3.69000827,6.2425 3.9978125,5.93469577 3.9978125,5.555 C3.9978125,5.17530423 3.69000827,4.8675 3.3103125,4.8675 M3.3103125,6.93 C2.94960152,6.93 2.6571875,7.22241402 2.6571875,7.583125 C2.6571875,7.94383598 2.94960152,8.23625 3.3103125,8.23625 C3.67102348,8.23625 3.9634375,7.94383598 3.9634375,7.583125 C3.9634375,7.22241402 3.67102348,6.93 3.3103125,6.93 M1.2959375,4.956875 C1.05788167,4.95548284 0.842491154,5.09781271 0.750424866,5.31734931 C0.658358577,5.5368859 0.707797281,5.79027627 0.875636684,5.95910297 C1.04347609,6.12792966 1.29657214,6.17885366 1.51664493,6.08807655 C1.73671772,5.99729944 1.88030843,5.7827474 1.8803125,5.5446875 C1.8812277,5.38910688 1.82006405,5.23958419 1.71037313,5.12924802 C1.60068221,5.01891186 1.45152081,4.95687231 1.2959375,4.956875" id="Shape" fill="#00A9B9" fill-rule="nonzero"></path>
                </g>
            </g>
        </g>
    </g>
</svg>