<?xml version="1.0" encoding="UTF-8"?>
<svg width="61px" height="19px" viewBox="0 0 61 19" version="1.1" xmlns="http://www.w3.org/2000/svg" xmlns:xlink="http://www.w3.org/1999/xlink">
    <!-- Generator: Sketch 53.2 (72643) - https://sketchapp.com -->
    <title>Garmin</title>
    <desc>Created with Sketch.</desc>
    <g id="Page-1" stroke="none" stroke-width="1" fill="none" fill-rule="evenodd">
        <g id="Change-the-tags,-it-should-be-like-this" transform="translate(-888.000000, -354.000000)">
            <g id="Garmin" transform="translate(888.000000, 354.000000)">
                <rect id="Rectangle" stroke="#333333" fill="#FFFFFF" x="0.5" y="0.5" width="60" height="18" rx="2"></rect>
                <g id="ic:sharp-watch" transform="translate(5.000000, 4.000000)">
                    <rect id="ViewBox" x="0" y="0" width="11" height="11"></rect>
                    <path d="M9.16666667,5.5 C9.16666667,4.33583333 8.62125,3.29541667 7.77333333,2.62625 L7.33333333,0 L3.66666667,0 L3.23125,2.62625 C2.37875,3.29541667 1.83333333,4.33125 1.83333333,5.5 C1.83333333,6.66875 2.37875,7.70458333 3.23125,8.37375 L3.66666667,11 L7.33333333,11 L7.77333333,8.37375 C8.65377908,7.68009425 9.16734386,6.62086688 9.16666667,5.5 Z M2.75,5.5 C2.75,3.98291667 3.98291667,2.75 5.5,2.75 C7.01708333,2.75 8.25,3.98291667 8.25,5.5 C8.25,7.01708333 7.01708333,8.25 5.5,8.25 C3.98291667,8.25 2.75,7.01708333 2.75,5.5 Z" id="Shape" fill="#333333" fill-rule="nonzero"></path>
                </g>
                <path d="M30.1529716,8.7890977 C30.0819302,8.66385845 29.9519643,8.5834558 29.8081829,8.5757962 L29.5422865,8.5757962 C29.3995654,8.58442487 29.2709079,8.66469832 29.2004198,8.7890977 L27.0834755,13.2085293 C27.0235757,13.3239459 27.0893194,13.4101431 27.2208066,13.4101431 L27.7102312,13.4101431 C27.9030792,13.4101431 27.9921983,13.321024 28.0433322,13.2143732 C28.0973881,13.1077225 28.2128046,12.8725064 28.2332582,12.8257554 C28.2624776,12.7600118 28.3545186,12.7220266 28.4889278,12.7220266 L30.7665787,12.7220266 C30.8966049,12.7220266 30.9828021,12.7454021 31.0222483,12.8257554 C31.0485457,12.8768893 31.1654232,13.0872689 31.2209401,13.1997635 C31.2804286,13.3334893 31.4167216,13.4161971 31.5628068,13.4072211 L32.2728378,13.4072211 C32.4028641,13.4072211 32.4627638,13.3064143 32.4160128,13.2143732 C32.3663399,13.1252541 30.1529716,8.7890977 30.1529716,8.7890977 L30.1529716,8.7890977 Z M28.8176458,12.0382931 C28.6876196,12.0382931 28.6247979,11.9404081 28.6803147,11.8220696 L29.5145281,10.0367653 C29.5715059,9.91842684 29.660625,9.91842684 29.7132199,10.0367653 L30.5240578,11.8220696 C30.5781136,11.9404081 30.515292,12.0382931 30.3838047,12.0382931 L28.8176458,12.0382931 Z M46.5026772,8.82269999 L46.5026772,13.2070684 C46.5026772,13.3283288 46.609328,13.4086821 46.7408152,13.4086821 L47.319359,13.4086821 C47.4493852,13.4086821 47.5574969,13.3254069 47.5574969,13.1953806 L47.5574969,8.81539514 C47.5574969,8.68536889 47.4712997,8.57725717 47.3412735,8.57725717 L46.7408152,8.57725717 C46.609328,8.5757962 46.5026772,8.65614951 46.5026772,8.82269999 L46.5026772,8.82269999 Z M36.8149909,11.569322 C36.7404815,11.4626712 36.7828496,11.3443327 36.9070319,11.3048865 C36.9070319,11.3048865 37.4066834,11.1558677 37.6462823,10.9396443 C37.8873422,10.7263428 38.0056807,10.4136954 38.0056807,10.0104679 C38.0122766,9.77996368 37.9642153,9.55117175 37.8654277,9.342805 C37.7749026,9.16329871 37.638893,9.01066566 37.470966,8.90013135 C37.2816515,8.78040443 37.072309,8.69577659 36.8529761,8.65030563 C36.6119162,8.59917171 36.289042,8.58164008 36.289042,8.58164008 C36.1308557,8.57482405 35.9725571,8.57092747 35.814227,8.56995233 L33.4109328,8.56995233 C33.2797446,8.57074984 33.1735923,8.67690209 33.1727948,8.8080903 L33.1727948,13.1880758 C33.1727948,13.318102 33.2794456,13.4013773 33.4109328,13.4013773 L33.9777888,13.4013773 C34.1078151,13.4013773 34.2159268,13.318102 34.2159268,13.1880758 L34.2159268,11.4451396 C34.2159268,11.4451396 34.2188487,11.4451396 34.2188487,11.4422176 L35.2970439,11.4392957 C35.4270702,11.4392957 35.5965426,11.5284148 35.673974,11.6350656 L36.7930763,13.2085293 C36.8968052,13.3487824 36.9946901,13.4013773 37.1261773,13.4013773 L37.8683496,13.4013773 C37.9983759,13.4013773 38.0202904,13.2771949 37.9750004,13.2143732 C37.9282494,13.1588564 36.8149909,11.569322 36.8149909,11.569322 L36.8149909,11.569322 Z M36.3606295,10.6781308 C36.2579564,10.6988557 36.1539842,10.7125234 36.0494431,10.7190379 C35.8912388,10.7248807 35.7329402,10.7278031 35.5746281,10.7278037 L34.4599086,10.7278037 C34.3287204,10.7270062 34.2225682,10.620854 34.2217707,10.4896658 L34.2217707,9.60139653 C34.2217707,9.47137028 34.3284214,9.36325857 34.4599086,9.36325857 L35.5731671,9.36325857 C35.7031934,9.36325857 35.9179558,9.36910244 36.0479821,9.37202438 C36.0479821,9.37202438 36.2145326,9.37786826 36.3591685,9.41293152 C36.4847196,9.43579245 36.6041329,9.48455287 36.7098011,9.55610649 C36.7899279,9.6098256 36.853637,9.68465844 36.8938832,9.77232992 C36.9689474,9.94672989 36.9689474,10.1443324 36.8938832,10.3187324 C36.8540325,10.4066555 36.7902394,10.481587 36.7098011,10.5349558 C36.6048164,10.606783 36.4858184,10.6555772 36.3606295,10.6781308 L36.3606295,10.6781308 Z M53.6044482,8.5757962 C53.4744219,8.5757962 53.3663102,8.66199338 53.3663102,8.7890977 L53.3663102,11.5926975 C53.3663102,11.7227237 53.2918008,11.7534041 53.1997597,11.661363 L50.393238,8.7511125 C50.2885891,8.64016265 50.1425237,8.57771441 49.9900105,8.57871814 L49.4611397,8.57871814 C49.2945892,8.57871814 49.2230017,8.66783726 49.2230017,8.75695638 L49.2230017,13.2392097 C49.2230017,13.3283288 49.3091989,13.414526 49.4392252,13.414526 L49.968096,13.414526 C50.0981222,13.414526 50.1901633,13.3429385 50.1901633,13.221678 L50.1930852,10.2690594 C50.1930852,10.1390332 50.2675947,10.1083528 50.3596357,10.2033158 L53.2874179,13.2450536 C53.3918588,13.3585889 53.5408792,13.4205472 53.6950283,13.414526 L54.0924119,13.414526 C54.2236001,13.4137285 54.3297523,13.3075762 54.3305498,13.176388 L54.3305498,8.81393417 C54.3297523,8.68274597 54.2236001,8.57659372 54.0924119,8.5757962 L53.6044482,8.5757962 L53.6044482,8.5757962 Z M42.157755,11.3078085 C42.0949333,11.423225 41.9882826,11.4203031 41.9254609,11.3078085 L40.5536109,8.7890977 C40.4888643,8.65797076 40.3550618,8.57519469 40.2088222,8.5757962 L39.4637279,8.5757962 C39.3325397,8.57659372 39.2263875,8.68274597 39.22559,8.81393417 L39.22559,13.1909977 C39.22559,13.321024 39.3117871,13.4101431 39.4637279,13.4101431 L39.9268551,13.4101431 C40.0568814,13.4101431 40.1518444,13.3268678 40.1518444,13.2026855 C40.1518444,13.1427857 40.1547663,10.0192337 40.1576883,10.0192337 C40.1635321,10.0192337 41.8714051,13.1997635 41.8714051,13.1997635 C41.8970364,13.2526856 41.9506643,13.286299 42.0094666,13.286299 C42.068269,13.286299 42.1218969,13.2526856 42.1475282,13.1997635 C42.1475282,13.1997635 43.8700108,10.0250776 43.8729328,10.0250776 C43.8787766,10.0250776 43.8758547,13.1077225 43.8758547,13.1997635 C43.8758547,13.3268678 43.9766616,13.4072211 44.1081488,13.4072211 L44.6399416,13.4072211 C44.7699678,13.4072211 44.8780795,13.3414775 44.8780795,13.1690832 L44.8780795,8.8124732 C44.877282,8.681285 44.7711298,8.57513275 44.6399416,8.57433523 L43.9269886,8.57433523 C43.7781523,8.56916995 43.6395467,8.64983387 43.5705122,8.78179285 L42.157755,11.3078085 L42.157755,11.3078085 Z M21,10.9878562 C21,13.3487824 23.414982,13.4671209 23.8985628,13.4671209 C25.5027069,13.4671209 26.1791356,13.033213 26.206894,13.0156814 C26.3479191,12.939477 26.4338619,12.7902079 26.4289613,12.6299856 L26.4289613,10.999544 C26.4293526,10.9269673 26.4006946,10.8572499 26.3493744,10.8059297 C26.2980541,10.7546095 26.2283368,10.7259515 26.1557601,10.7263428 L24.1425446,10.7263428 C23.9906038,10.7263428 23.8927189,10.8476032 23.8927189,10.999544 L23.8927189,11.1690164 C23.8927189,11.3209572 23.9906038,11.4422176 24.1425446,11.4422176 L25.306937,11.4422176 C25.4198989,11.4422176 25.5114727,11.5337914 25.5114727,11.6467533 L25.5114727,12.4064573 C25.2821005,12.5014203 24.2345857,12.8067628 23.3916065,12.6051491 C22.1702363,12.3144162 22.0752733,11.3048865 22.0752733,11.0039269 C22.0752733,10.7511792 22.1527046,9.4801361 23.651659,9.35303178 C24.8657243,9.24930297 25.6648744,9.73872763 25.6736403,9.74457151 C25.8168152,9.81908094 25.9643731,9.76502508 26.0447264,9.61454526 L26.1966672,9.30920271 C26.2594889,9.18502033 26.2375743,9.05353311 26.0841726,8.9498043 C26.0754068,8.94396042 25.2222008,8.48375515 23.9014847,8.48375515 C21.0803533,8.48083321 21,10.7321866 21,10.9878562 Z M53.3370908,7.36757473 L50.1740926,7.36757473 C50.0586761,7.36757473 49.9578692,7.31059693 49.9008914,7.20979006 C49.8439136,7.10898319 49.8439136,6.99648857 49.9008914,6.8956817 L51.484582,4.15782554 C51.5395594,4.05884985 51.6445785,3.9981971 51.7577832,4.00004087 C51.8709879,3.9981971 51.976007,4.05884985 52.0309844,4.15782554 L53.614675,6.8956817 C53.6746726,6.9917894 53.6746726,7.11368236 53.614675,7.20979006 C53.5566609,7.30787478 53.4510476,7.36790761 53.3370908,7.36757473 L53.3370908,7.36757473 Z M55.5110129,12.4035353 C55.8134335,12.4035353 56.0632592,12.6504391 56.0632592,12.9557817 C56.0624564,13.2604457 55.815677,13.5072252 55.5110129,13.508028 C55.2063488,13.5072252 54.9595694,13.2604457 54.9587666,12.9557817 C54.9603641,12.6514486 55.2066799,12.4051329 55.5110129,12.4035353 L55.5110129,12.4035353 Z M55.5139348,13.4262137 C55.7666825,13.4262137 55.9595304,13.221678 55.9595304,12.9572426 C55.9595304,12.6928072 55.7696044,12.4882715 55.5139348,12.4882715 C55.2582652,12.4882715 55.0654173,12.6928072 55.0654173,12.9572426 C55.0654173,13.2202171 55.2553433,13.4262137 55.5139348,13.4262137 Z M55.3006333,12.6329075 L55.5475371,12.6329075 C55.696556,12.6329075 55.7696044,12.6928072 55.7696044,12.8140677 C55.7696044,12.9177965 55.7038608,12.9923059 55.6030539,12.9923059 L55.7871361,13.2771949 L55.6746414,13.2771949 L55.4934813,12.9923059 L55.4043621,12.9923059 L55.4043621,13.2771949 L55.2977114,13.2771949 L55.2977114,12.6329075 L55.3006333,12.6329075 Z M55.4072841,12.9090307 L55.5314665,12.9090307 C55.6118198,12.9090307 55.6644146,12.891499 55.6644146,12.8082238 C55.6644146,12.7337144 55.598671,12.7132608 55.5314665,12.7132608 L55.4072841,12.7132608 L55.4072841,12.9090307 Z" id="Shape" fill="#333333" fill-rule="nonzero"></path>
            </g>
        </g>
    </g>
</svg>