<?xml version="1.0" encoding="UTF-8"?>
<svg width="62px" height="19px" viewBox="0 0 62 19" version="1.1" xmlns="http://www.w3.org/2000/svg" xmlns:xlink="http://www.w3.org/1999/xlink">
    <!-- Generator: Sketch 53.2 (72643) - https://sketchapp.com -->
    <title>Google</title>
    <desc>Created with Sketch.</desc>
    <defs>
        <linearGradient x1="2.29767464%" y1="46.0457306%" x2="98.0906063%" y2="53.8411944%" id="linearGradient-1">
            <stop stop-color="#FF3D00" offset="0%"></stop>
            <stop stop-color="#FFC107" offset="30.5268159%"></stop>
            <stop stop-color="#4CAF50" offset="68.6945735%"></stop>
            <stop stop-color="#1976D2" offset="100%"></stop>
        </linearGradient>
    </defs>
    <g id="Page-1" stroke="none" stroke-width="1" fill="none" fill-rule="evenodd">
        <g id="Change-the-tags,-it-should-be-like-this" transform="translate(-763.000000, -354.000000)">
            <g id="Google" transform="translate(763.000000, 354.000000)">
                <rect id="Rectangle" stroke="url(#linearGradient-1)" fill="#FFFFFF" x="0.5" y="0.5" width="61" height="18" rx="2"></rect>
                <text font-family="Poppins-Regular, Poppins" font-size="10" font-weight="normal" fill="#4CAF50">
                    <tspan x="21" y="13">Google</tspan>
                </text>
                <g id="flat-color-icons:google" transform="translate(5.000000, 4.000000)">
                    <rect id="ViewBox" x="0" y="0" width="11" height="11"></rect>
                    <path d="M9.9941875,4.60235417 L9.625,4.60235417 L9.625,4.58333333 L5.5,4.58333333 L5.5,6.41666667 L8.09027083,6.41666667 C7.712375,7.48389583 6.6969375,8.25 5.5,8.25 C3.9813125,8.25 2.75,7.0186875 2.75,5.5 C2.75,3.9813125 3.9813125,2.75 5.5,2.75 C6.20102083,2.75 6.83879167,3.01445833 7.32439583,3.4464375 L8.62079167,2.15004167 C7.80220833,1.38714583 6.70725,0.916666667 5.5,0.916666667 C2.96885417,0.916666667 0.916666667,2.96885417 0.916666667,5.5 C0.916666667,8.03114583 2.96885417,10.0833333 5.5,10.0833333 C8.03114583,10.0833333 10.0833333,8.03114583 10.0833333,5.5 C10.0833333,5.1926875 10.0517083,4.89270833 9.9941875,4.60235417 Z" id="Path" fill="#FFC107" fill-rule="nonzero"></path>
                    <path d="M1.445125,3.3666875 L2.95097917,4.47104167 C3.3584375,3.46225 4.34522917,2.75 5.5,2.75 C6.20102083,2.75 6.83879167,3.01445833 7.32439583,3.4464375 L8.62079167,2.15004167 C7.80220833,1.38714583 6.70725,0.916666667 5.5,0.916666667 C3.73954167,0.916666667 2.21283333,1.9105625 1.445125,3.3666875 Z" id="Path" fill="#FF3D00" fill-rule="nonzero"></path>
                    <path d="M5.5,10.0833333 C6.683875,10.0833333 7.75958333,9.63027083 8.57289583,8.8935 L7.15435417,7.693125 C6.67872872,8.05483935 6.09754214,8.25047356 5.5,8.25 C4.307875,8.25 3.29564583,7.48985417 2.9143125,6.42904167 L1.4196875,7.58060417 C2.17822917,9.06491667 3.7186875,10.0833333 5.5,10.0833333 Z" id="Path" fill="#4CAF50" fill-rule="nonzero"></path>
                    <path d="M9.9941875,4.60235417 L9.625,4.60235417 L9.625,4.58333333 L5.5,4.58333333 L5.5,6.41666667 L8.09027083,6.41666667 C7.9095055,6.92459487 7.58389415,7.36843652 7.15366667,7.69335417 L7.15435417,7.69289583 L8.57289583,8.89327083 C8.47252083,8.98447917 10.0833333,7.79166667 10.0833333,5.5 C10.0833333,5.1926875 10.0517083,4.89270833 9.9941875,4.60235417 Z" id="Path" fill="#1976D2" fill-rule="nonzero"></path>
                </g>
            </g>
        </g>
    </g>
</svg>