<?xml version="1.0" encoding="UTF-8"?>
<svg width="70px" height="19px" viewBox="0 0 70 19" version="1.1" xmlns="http://www.w3.org/2000/svg" xmlns:xlink="http://www.w3.org/1999/xlink">
    <!-- Generator: Sketch 53.2 (72643) - https://sketchapp.com -->
    <title>Google Fit</title>
    <desc>Created with Sketch.</desc>
    <defs>
        <linearGradient x1="2.29767464%" y1="46.897916%" x2="98.0906063%" y2="53.0133778%" id="linearGradient-1">
            <stop stop-color="#FF3D00" offset="0%"></stop>
            <stop stop-color="#FFC107" offset="30.5268159%"></stop>
            <stop stop-color="#4CAF50" offset="68.6945735%"></stop>
            <stop stop-color="#1976D2" offset="100%"></stop>
        </linearGradient>
    </defs>
    <g id="Page-1" stroke="none" stroke-width="1" fill="none" fill-rule="evenodd">
        <g id="Change-the-tags,-it-should-be-like-this" transform="translate(-1020.000000, -354.000000)">
            <g id="Google-Fit" transform="translate(1020.000000, 354.000000)">
                <rect id="Rectangle" stroke="url(#linearGradient-1)" fill="#FFFFFF" x="0.5" y="0.5" width="69" height="18" rx="2"></rect>
                <text font-family="Quicksand-Light_Medium, Quicksand" font-size="9" font-weight="400" fill="#3E5463">
                    <tspan x="22" y="13">Google Fit</tspan>
                </text>
                <g id="logos:google-fit" transform="translate(5.000000, 4.000000)">
                    <rect id="ViewBox" x="0" y="0" width="13.037037" height="11"></rect>
                    <path d="M2.83031019,0.0264305556 C3.56298148,-0.0685972222 4.32427315,0.0945185185 4.95132407,0.485425926 C5.30525926,0.694069444 5.58840741,0.996060185 5.87873611,1.28195833 C6.08931481,1.48810648 6.2977037,1.69675 6.50884259,1.90238889 L6.51663426,1.92377778 C6.35891667,2.07905093 6.17996296,2.3895463 5.97972222,2.85531481 C5.55978704,3.003 5.27322685,3.15216204 5.11999074,3.30264815 C4.77797222,2.97341204 4.44705556,2.63251389 4.10641204,2.30159722 C3.78247222,1.99823148 3.2929213,1.87595833 2.86865741,2.01518981 C2.38552315,2.15100926 2.01681944,2.61306019 1.99125463,3.1145787 C1.97460185,3.37547222 2.04268981,3.64049074 2.18380556,3.86054167 C2.27160185,4.00226852 2.39998611,4.11033333 2.51497685,4.22868519 C2.7914537,4.50653704 3.07455093,4.77797222 3.34685185,5.05969444 C3.20140741,5.20259259 3.02927778,5.4791713 2.83031019,5.88948148 C2.40716667,6.09002778 2.11362963,6.27244444 1.94959722,6.43662963 C1.58201389,6.09099537 1.23052315,5.72672222 0.866300926,5.37726852 C0.432615741,4.92606481 0.142592593,4.3406713 0.0425231481,3.72304167 C-0.0674768519,3.06039352 0.0369722222,2.36275926 0.34375,1.76458333 C0.601333333,1.26306481 0.99112037,0.827444444 1.46539352,0.521481481 C1.87763889,0.262268519 2.34462963,0.0806666667 2.83031019,0.0264814815 L2.83031019,0.0264305556 Z" id="Path" fill="#EA4335" fill-rule="nonzero"></path>
                    <polygon id="Path" fill="#34A853" fill-rule="nonzero" points="6.52274537 8.18781944 9.70093056 5.05551852 10.5602037 5.56589815 11.0978796 6.43968519 6.52274537 10.9658796 3.34904167 7.82609259 3.95806481 6.96906019 4.75459722 6.43856481"></polygon>
                    <polygon id="Path" fill="#FBBC05" fill-rule="nonzero" points="5.12274074 3.3057037 5.922125 3.73811574 6.52274537 4.69379167 3.34904167 7.82609259 1.94959722 6.43662963"></polygon>
                    <path d="M10.3549213,0.0455787037 C11.2862546,0.203449074 12.1428287,0.784921296 12.6123657,1.6075787 C13.1471898,2.51136111 13.1763704,3.68413426 12.7017917,4.61933796 C12.5051157,5.02104167 12.2047546,5.36000463 11.8849398,5.66815741 C11.6196157,5.92176852 11.3676343,6.19243981 11.0978796,6.43968519 C10.6310926,5.97962037 10.1637963,5.51975926 9.70093056,5.05551852 C10.0307269,4.72241204 10.3657685,4.39480556 10.6966852,4.06281944 C10.9100648,3.84719907 11.0436944,3.55157407 11.0545417,3.24739352 C11.0692593,2.90201389 10.9328287,2.55169444 10.6825278,2.31218981 C10.4274398,2.07075 10.0701435,1.93350463 9.71839815,1.96263426 C9.41589815,1.97709722 9.12383796,2.11439352 8.91045833,2.32828241 C8.11418056,3.11620833 7.31988889,3.906375 6.52274537,4.69379167 C6.05407407,4.23311574 5.58479167,3.77305093 5.12279167,3.3057037 C5.12193578,3.30461655 5.12099951,3.30359516 5.11999074,3.30264815 C5.58672685,2.84421296 6.05040741,2.38272222 6.51663426,1.92377778 C6.85447685,1.59092593 7.19125,1.25664815 7.52934722,0.923592593 C7.96720833,0.48374537 8.54455556,0.195606481 9.14777315,0.0634027778 C9.54530093,-0.0113564815 9.95545833,-0.0197083333 10.3549213,0.0455787037 Z" id="Path" fill="#4285F4" fill-rule="nonzero"></path>
                </g>
            </g>
        </g>
    </g>
</svg>