<?xml version="1.0" encoding="UTF-8"?>
<svg width="61px" height="19px" viewBox="0 0 61 19" version="1.1" xmlns="http://www.w3.org/2000/svg" xmlns:xlink="http://www.w3.org/1999/xlink">
    <!-- Generator: Sketch 53.2 (72643) - https://sketchapp.com -->
    <title>HealthKit</title>
    <desc>Created with Sketch.</desc>
    <defs>
        <linearGradient x1="2.29767464%" y1="45.9150197%" x2="98.0906063%" y2="53.9681675%" id="linearGradient-1">
            <stop stop-color="#FF3F5A" offset="0%"></stop>
            <stop stop-color="#52CEDA" offset="39.5331693%"></stop>
            <stop stop-color="#58A3E9" offset="75.3626069%"></stop>
            <stop stop-color="#1976D2" offset="100%"></stop>
        </linearGradient>
        <linearGradient x1="14.6446609%" y1="27.8056336%" x2="85.3553391%" y2="72.1943664%" id="linearGradient-2">
            <stop stop-color="#FF5EA9" offset="0%"></stop>
            <stop stop-color="#FF2314" offset="100%"></stop>
        </linearGradient>
    </defs>
    <g id="Page-1" stroke="none" stroke-width="1" fill="none" fill-rule="evenodd">
        <g id="Change-the-tags,-it-should-be-like-this" transform="translate(-954.000000, -354.000000)">
            <g id="HealthKit" transform="translate(954.000000, 354.000000)">
                <rect id="Rectangle" stroke="url(#linearGradient-1)" fill="#FFFFFF" x="0.5" y="0.5" width="60" height="18" rx="2"></rect>
                <text font-family="HelveticaNeue-Light, Helvetica Neue" font-size="9" font-weight="300" fill="#3E5463">
                    <tspan x="20" y="13">HealthKit</tspan>
                </text>
                <g id="Group" transform="translate(5.000000, 4.000000)">
                    <path d="M9.03568297,7.80627398 C9.52123088,7.42824614 9.52121324,6.87935053 9.03568297,6.50133643 L5.98754196,4.12817789 C5.42550412,3.6905981 4.47430936,3.69061664 3.91229533,4.12817789 L0.864154314,6.50133643 C0.378606406,6.87936427 0.378624051,7.42825987 0.864154314,7.80627398 L3.91229533,10.1794325 C4.47433316,10.6170123 5.42552793,10.6169938 5.98754196,10.1794325 L9.03568297,7.80627398 Z" id="Bottom" stroke="#61B3FF" fill="#5299DA"></path>
                    <path d="M9.03568297,6.15627398 C9.52123088,5.77824614 9.52121324,5.22935053 9.03568297,4.85133643 L5.98754196,2.47817789 C5.42550412,2.0405981 4.47430936,2.04061664 3.91229533,2.47817789 L0.864154314,4.85133643 C0.378606406,5.22936427 0.378624051,5.77825987 0.864154314,6.15627398 L3.91229533,8.52943252 C4.47433316,8.9670123 5.42552793,8.96699376 5.98754196,8.52943252 L9.03568297,6.15627398 Z" id="Middle" stroke="#57DAE6" fill="#52CEDA"></path>
                    <path d="M9.03568297,4.50627398 C9.52123088,4.12824614 9.52121324,3.57935053 9.03568297,3.20133643 L5.98754196,0.828177887 C5.42550412,0.390598104 4.47430936,0.390616639 3.91229533,0.828177887 L0.864154314,3.20133643 C0.378606406,3.57936427 0.378624051,4.12825987 0.864154314,4.50627398 L3.91229533,6.87943252 C4.47433316,7.3170123 5.42552793,7.31699376 5.98754196,6.87943252 L9.03568297,4.50627398 Z" id="Top" stroke="#E6E6E6" fill="#FFFFFF"></path>
                    <path d="M3.12641211,2.28688584 C2.71141713,2.61608292 2.71141713,3.14981685 3.12641211,3.47901393 C3.91881324,4.10759056 5.76319518,3.8149773 5.95446442,3.6632519 C6.14573366,3.51152651 6.51461005,2.04846022 5.72220892,1.41988359 C5.30721395,1.09068651 4.63437416,1.09068651 4.21937918,1.41988359 C4.0041499,1.59061543 3.9005452,1.81636322 3.90856511,2.04006099 C3.62668281,2.03383695 3.34181438,2.11601678 3.12641211,2.28688584 Z" id="Heart" fill="url(#linearGradient-2)"></path>
                </g>
            </g>
        </g>
    </g>
</svg>