<?xml version="1.0" encoding="UTF-8"?>
<svg width="79px" height="19px" viewBox="0 0 79 19" version="1.1" xmlns="http://www.w3.org/2000/svg" xmlns:xlink="http://www.w3.org/1999/xlink">
    <!-- Generator: Sketch 53.2 (72643) - https://sketchapp.com -->
    <title>Unverified</title>
    <desc>Created with Sketch.</desc>
    <g id="Page-1" stroke="none" stroke-width="1" fill="none" fill-rule="evenodd">
        <g id="Change-the-tags,-it-should-be-like-this" transform="translate(-529.000000, -354.000000)">
            <g id="Unverified" transform="translate(529.000000, 354.000000)">
                <rect id="Rectangle" stroke="#979797" fill="#FFFFFF" x="0.5" y="0.5" width="78" height="18" rx="2"></rect>
                <path d="M15.0939847,12.4881192 L16.87652,10.7139136 C17.0406045,10.5505958 17.0406045,10.2858061 16.87652,10.1225117 C16.7124354,9.95919393 16.4464261,9.95919393 16.2823415,10.1225117 L14.4997829,11.8967407 L12.7172242,10.1224883 C12.5531397,9.95917056 12.2871303,9.95917056 12.1230458,10.1224883 C11.9589847,10.2858061 11.9589847,10.5505958 12.1230458,10.7138902 L13.9056045,12.4880958 L12.1230458,14.2623248 C11.9589847,14.4256425 11.9589847,14.6904322 12.1230458,14.8537266 C12.2871303,15.0170444 12.5531397,15.0170444 12.7172242,14.8537266 L14.4997829,13.0794977 L16.2823415,14.8537266 C16.4464026,15.0170444 16.7124354,15.0170444 16.87652,14.8537266 C17.0406045,14.6904089 17.0406045,14.4256425 16.87652,14.2623248 L15.0939847,12.4881192 Z M11.1111111,8.27777778 L16,5.22222222 L6.22222222,5.22222222 L11.1111111,8.27777778 Z M11.1111111,9.5 L6.22222222,6.44444444 L6.22222222,12.5555556 L9.36944444,12.5555556 L10.5916667,13.7777778 L6.22222222,13.7777778 C5.88611111,13.7777778 5.59848148,13.6582037 5.35933333,13.4190556 C5.11977778,13.1795 5,12.8916667 5,12.5555556 L5,5.22222222 C5,4.88611111 5.11977778,4.59848148 5.35933333,4.35933333 C5.59848148,4.11977778 5.88611111,4 6.22222222,4 L16,4 C16.3361111,4 16.6239444,4.11977778 16.8635,4.35933333 C17.1026481,4.59848148 17.2222222,4.88611111 17.2222222,5.22222222 L17.2222222,7.88055556 L16,9.10277778 L16,6.44444444 L11.1111111,9.5 Z" id="Shape" fill="#6D7278" fill-rule="nonzero"></path>
                <text font-family="Poppins-Regular, Poppins" font-size="10" font-weight="normal" fill="#979797">
                    <tspan x="22" y="13">Unverified</tspan>
                </text>
            </g>
        </g>
    </g>
</svg>