<svg xmlns="http://www.w3.org/2000/svg" width="48" height="48" viewBox="0 0 48 48">
  <g id="Group_7" data-name="Group 7" transform="translate(-117 -65)">
    <circle id="Oval" cx="24" cy="24" r="24" transform="translate(117 65)" fill="#0289be"/>
    <path id="Combined_Shape" data-name="Combined Shape" d="M5.8,28a.82.82,0,0,1,0-1.641h.82V22.2a.821.821,0,0,1,.821-.82h.82v-.821A2.464,2.464,0,0,1,10.719,18.1a.821.821,0,0,0,.82-.821V16.006a8.168,8.168,0,0,1-4.5-3.514l-.869-.29A9.137,9.137,0,0,1,1.961,9.3,8.981,8.981,0,0,1,0,3.711V2.461A2.463,2.463,0,0,1,2.461,0H25.539A2.463,2.463,0,0,1,28,2.461v1.25A8.95,8.95,0,0,1,21.88,12.2l-.006,0-.921.292a8.164,8.164,0,0,1-4.492,3.509v1.275a.821.821,0,0,0,.82.821,2.464,2.464,0,0,1,2.462,2.461v.821h.82a.821.821,0,0,1,.821.82v4.156h.82A.82.82,0,1,1,22.2,28Zm2.461-1.641H19.742V23.024H8.258ZM7.529,8.973a6.509,6.509,0,0,0,5.015,5.608.817.817,0,0,1,.636.8v1.9a2.464,2.464,0,0,1-2.461,2.462.821.821,0,0,0-.821.82v.821h8.2v-.821a.821.821,0,0,0-.821-.82,2.464,2.464,0,0,1-2.461-2.462v-1.9a.817.817,0,0,1,.636-.8,6.512,6.512,0,0,0,5.016-5.608l.815-7.332H6.713ZM22.1,9.154a8.094,8.094,0,0,1-.257,1.311,7.314,7.314,0,0,0,4.514-6.755V2.461a.821.821,0,0,0-.82-.82h-2.6ZM1.641,2.461v1.25a7.33,7.33,0,0,0,1.6,4.566,7.361,7.361,0,0,0,2.905,2.163A8.174,8.174,0,0,1,5.9,9.154L5.063,1.641h-2.6A.821.821,0,0,0,1.641,2.461Zm14,8.289L14,9.906l-1.638.843a.813.813,0,0,1-1.172-.866L11.5,8.125l-1.31-1.249a.815.815,0,0,1,.446-1.4l1.827-.259.814-1.612a.812.812,0,0,1,1.451,0l.814,1.612,1.827.259a.815.815,0,0,1,.446,1.4L16.5,8.125l.309,1.759a.813.813,0,0,1-.8.955A.825.825,0,0,1,15.638,10.75ZM14.37,8.267l.555.285-.1-.575a.815.815,0,0,1,.24-.731l.41-.391-.584-.083a.819.819,0,0,1-.612-.439L14,5.781l-.279.554a.815.815,0,0,1-.611.439l-.584.083.409.391a.813.813,0,0,1,.24.731l-.1.575.555-.285A.812.812,0,0,1,14,8.177.8.8,0,0,1,14.37,8.267Z" transform="translate(127 75)" fill="#fff"/>
  </g>
</svg>
