<svg xmlns="http://www.w3.org/2000/svg" width="48" height="48" viewBox="0 0 48 48">
  <g id="Group_4" data-name="Group 4" transform="translate(-92.5 -53.5)">
    <circle id="Oval" cx="23.5" cy="23.5" r="23.5" transform="translate(93 54)" fill="rgba(235,56,90,0.18)" stroke="#eb385a" stroke-miterlimit="10" stroke-width="1"/>
    <path id="Combined_Shape" data-name="Combined Shape" d="M12.529,27.461a1.865,1.865,0,0,1,0-2.6l5.037-5.138L13.431,15.5a1.865,1.865,0,0,1,0-2.6l7.214-7.358a1.8,1.8,0,0,1,3.08,1.3v3.68H29.2a1.84,1.84,0,0,1,0,3.68H21.921a1.823,1.823,0,0,1-1.8-1.84V11.283L17.257,14.2l4.135,4.218a1.865,1.865,0,0,1,0,2.6L15.08,27.461a1.777,1.777,0,0,1-2.551,0ZM1.517,27.455a1.93,1.93,0,0,1,0-2.631L10.847,15a3.737,3.737,0,0,0,.9,1.679L13,17.994,4.016,27.455a1.7,1.7,0,0,1-2.5,0ZM2.849,12A.933.933,0,0,1,2,11a.933.933,0,0,1,.85-1h4.3A.933.933,0,0,1,8,11a.933.933,0,0,1-.85,1ZM9.524,9.445a1.975,1.975,0,0,1,0-2.679l4.917-5.21A1.714,1.714,0,0,1,16.7,1.318L20,3.741a3.58,3.58,0,0,0-1.013.738L17.24,6.331l-1.307-1L12.052,9.445a1.716,1.716,0,0,1-2.528,0ZM.849,8A.933.933,0,0,1,0,7,.933.933,0,0,1,.849,6h4.3A.933.933,0,0,1,6,7a.933.933,0,0,1-.85,1ZM22,2.5A2.5,2.5,0,1,1,24.5,5,2.5,2.5,0,0,1,22,2.5ZM2.849,5A.934.934,0,0,1,2,4a.933.933,0,0,1,.85-1h4.3A.933.933,0,0,1,8,4a.934.934,0,0,1-.85,1Z" transform="translate(101 63)" fill="#eb385a"/>
  </g>
</svg>
