<svg width="84" height="62" viewBox="0 0 84 62" fill="none" xmlns="http://www.w3.org/2000/svg">
<path fill-rule="evenodd" clip-rule="evenodd" d="M80.2449 45.5226L75.1631 44.0628C74.9437 43.9998 74.7905 43.7956 74.7905 43.5661V41.8607C75.2039 41.5727 75.5984 41.2504 75.967 40.8906C77.7537 39.1474 78.7375 36.8092 78.7375 34.3065V31.9532L79.2289 30.9653C79.7682 29.8807 80.0531 28.6665 80.0531 27.4541V21.0787C80.0531 20.3955 79.5022 19.8416 78.8227 19.8416H66.9818C62.6761 19.8416 59.1731 23.3636 59.1731 27.6926V27.7664C59.1731 28.7746 59.4101 29.7842 59.8585 30.6858L60.4887 31.953V33.9737C60.4887 37.176 62.0583 40.0493 64.4357 41.7784L64.436 43.5658C64.436 43.8414 64.436 43.9556 63.42 44.2475L60.9404 44.9598L53.7674 42.3374C53.7931 41.9971 53.679 41.651 53.432 41.3902L51.1399 38.9691V34.9047C51.3822 34.7039 51.6211 34.4977 51.8526 34.2797C54.7442 31.5547 56.4026 27.7073 56.4026 23.7242V20.4783C57.2757 18.568 57.7182 16.5465 57.7182 14.4646V1.23714C57.7182 0.553909 57.1672 0 56.4877 0H38.0686C31.5865 0 26.313 5.30222 26.313 11.8193V14.465C26.313 16.5468 26.7555 18.5683 27.6286 20.4786V23.2714C27.6286 27.896 29.6738 32.0624 32.8913 34.8092V38.9692L30.5991 41.3904C30.3522 41.6512 30.238 41.9973 30.2638 42.3376L22.6931 45.1053C22.1445 45.3059 21.6348 45.5775 21.1719 45.9066L19.9831 45.309C23.522 43.7603 24.643 41.5821 24.6968 41.4739C24.8701 41.1257 24.8701 40.7156 24.6968 40.3674C23.8097 38.5836 23.7023 35.3141 23.616 32.687C23.5873 31.8125 23.56 30.9862 23.508 30.2505C23.0885 24.3166 18.6017 19.8416 13.0712 19.8416C7.54064 19.8416 3.0537 24.3164 2.63435 30.2505C2.58234 30.9864 2.55511 31.8126 2.5264 32.6874C2.4401 35.3142 2.33248 38.5834 1.44555 40.3672C1.2723 40.7154 1.2723 41.1255 1.44555 41.4737C1.49937 41.5819 2.61811 43.7557 6.16399 45.3062L2.86191 46.9661C1.09659 47.8542 0 49.6382 0 51.6224V60.7622C0 61.4454 0.550922 61.9993 1.23047 61.9993C1.91002 61.9993 2.46094 61.4454 2.46094 60.7622V51.6224C2.46094 50.5812 3.0363 49.6451 3.96244 49.1794L8.07434 47.1124L9.50463 48.4791C10.5048 49.4346 11.7877 49.9122 13.0712 49.9122C14.3543 49.9122 15.6379 49.4343 16.6377 48.4791L18.0679 47.1126L19.4086 47.7866C18.7773 48.8022 18.419 49.9931 18.419 51.2407V60.7625C18.419 61.4458 18.9699 61.9997 19.6494 61.9997C20.329 61.9997 20.8799 61.4458 20.8799 60.7625V51.2407C20.8799 49.5423 21.9465 48.0112 23.5341 47.4308L31.5161 44.5126L34.8388 49.524C35.2636 50.1647 35.9443 50.5756 36.7064 50.6515C36.7913 50.6599 36.8758 50.664 36.9602 50.664C37.6325 50.664 38.2764 50.3979 38.7578 49.9141L40.785 47.876V60.7627C40.785 61.4459 41.3359 61.9998 42.0154 61.9998C42.695 61.9998 43.2459 61.4459 43.2459 60.7627V47.876L45.273 49.9141C45.7542 50.3981 46.3982 50.6642 47.0707 50.6642C47.1548 50.6642 47.2395 50.66 47.3243 50.6516C48.0866 50.5758 48.7673 50.1649 49.192 49.5242L52.5149 44.5129L60.4967 47.4311C62.0842 48.0116 63.1509 49.5427 63.1509 51.241V60.7629C63.1509 61.4461 63.7019 62 64.3814 62C65.061 62 65.6119 61.4461 65.6119 60.7629V51.241C65.6119 49.5209 64.9322 47.9077 63.7919 46.7146L64.0959 46.6273C64.4026 46.5392 64.8209 46.4186 65.2409 46.2116L68.3826 49.3703V60.7629C68.3826 61.4461 68.9335 62 69.613 62C70.2926 62 70.8435 61.4461 70.8435 60.7629V49.3703L73.9633 46.2336C74.1292 46.3183 74.3034 46.3899 74.4868 46.4426L79.5688 47.9024C80.7288 48.2356 81.5391 49.3155 81.5391 50.5286V60.7629C81.5391 61.4461 82.09 62 82.7695 62C83.4491 62 84 61.4461 84 60.7629V50.5286C84 48.2163 82.4558 46.1578 80.2449 45.5226ZM7.89387 43.3375C5.59223 42.5048 4.43773 41.3947 3.94488 40.7885C4.28088 39.9053 4.49876 38.8939 4.64625 37.8261C5.32481 39.462 6.46127 40.8584 7.89387 41.8547V43.3375ZM11.2001 46.6855C12.2492 47.6881 13.8933 47.6883 14.9428 46.6857L16.087 45.5926C15.8937 45.2287 15.7877 44.8161 15.7877 44.384L15.7879 43.0663C14.928 43.3345 14.016 43.4807 13.0715 43.4807C12.1259 43.4807 11.2133 43.3352 10.355 43.0655V44.3841C10.355 44.8161 10.2488 45.2285 10.0557 45.5922L11.2001 46.6855ZM13.0718 41.0064C9.3975 41.0064 6.40845 38.001 6.40845 34.3069C6.40845 33.6236 5.85752 33.0697 5.17798 33.0697C5.10907 33.0697 5.0418 33.0768 4.97602 33.0879L4.98668 32.7695C5.01408 31.9189 5.04049 31.1154 5.08922 30.4262C5.24639 28.2033 6.12987 26.1549 7.5769 24.6582C9.03689 23.1479 10.9882 22.3162 13.0715 22.3162C15.1548 22.3162 17.106 23.1479 18.5661 24.6582C20.0132 26.1549 20.8966 28.2033 21.0538 30.4262C21.1024 31.1152 21.129 31.9185 21.1568 32.769L21.1642 32.9897C19.8255 30.916 17.758 29.3877 15.0865 28.5246C12.6185 27.7274 10.4959 27.7768 10.4063 27.7791C10.0841 27.7881 9.77829 27.9237 9.55467 28.157L7.33458 30.4719C6.8629 30.9638 6.87701 31.747 7.36624 32.2212C7.85548 32.6955 8.63445 32.6811 9.10612 32.1894L10.9535 30.2632C12.5444 30.3414 17.6626 30.9399 19.6532 35.3469C19.1523 38.5945 16.3761 41.0064 13.0718 41.0064ZM18.2487 41.8661L18.2485 43.3416C20.5478 42.5093 21.7078 41.3893 22.1978 40.7888C21.8625 39.9077 21.6448 38.8985 21.4973 37.8332C20.8182 39.4814 19.6801 40.8753 18.2487 41.8661ZM30.0896 23.2713V20.2018C30.0896 20.0156 30.0477 19.8317 29.9672 19.6639C29.1754 18.0154 28.7739 16.2662 28.7739 14.465V11.8195C28.7739 6.66653 32.9436 2.47444 38.0686 2.47444H55.2572V14.4651C55.2572 16.2664 54.8558 18.0156 54.064 19.6641C53.9835 19.8318 53.9416 20.0158 53.9416 20.202V23.7245C53.9416 27.0749 52.602 30.1824 50.1697 32.4748C49.866 32.7608 49.5508 33.029 49.225 33.2789L49.2183 33.2836L49.2118 33.2885L49.2038 33.2944C46.9252 35.0338 44.1341 35.8792 41.2194 35.6893C34.9783 35.2831 30.0896 29.8284 30.0896 23.2713ZM37.0176 48.1645L37.0177 48.1643L40.0967 45.0685L34.2914 41.0788L33.0599 42.3798L36.8867 48.1511C36.8934 48.1614 36.9091 48.1849 36.9492 48.1889C36.9891 48.1932 37.0089 48.1732 37.0176 48.1645ZM42.0156 43.3901L35.3522 38.8107V36.5014C37.0763 37.4385 39.0068 38.0246 41.0601 38.1582C41.3844 38.1793 41.7068 38.1897 42.0282 38.1897C44.381 38.1897 46.6454 37.6242 48.679 36.5509V38.8107L42.0156 43.3901ZM47.082 48.1892C47.122 48.1853 47.1378 48.1617 47.1445 48.1515L50.9714 42.3801L49.7398 41.0791L43.9345 45.069L47.0134 48.1647L47.0146 48.1658C47.0239 48.1749 47.0436 48.1941 47.082 48.1892ZM69.613 47.1076L66.8207 44.3003C66.8694 44.0778 66.897 43.8342 66.8968 43.5655L66.8966 43.0434C67.6715 43.2991 68.4882 43.4508 69.3333 43.4762C69.4281 43.4792 69.5221 43.4805 69.6166 43.4805C70.5505 43.4805 71.462 43.3387 72.3296 43.068V43.5661C72.3296 43.8129 72.3604 44.0547 72.4185 44.2871L69.613 47.1076ZM69.4073 41.0031C71.2263 41.0595 72.9491 40.3875 74.2532 39.1151C75.558 37.842 76.2766 36.1344 76.2766 34.3067V31.6612C76.2766 31.469 76.3211 31.2798 76.4065 31.108L77.0277 29.8589C77.397 29.1162 77.5922 28.2846 77.5922 27.4543V22.316H66.9818C64.0331 22.316 61.634 24.7279 61.634 27.6928V27.7665C61.634 28.3927 61.7812 29.0195 62.0596 29.5795L62.8197 31.108C62.9052 31.2797 62.9496 31.469 62.9496 31.6612V33.974C62.9496 37.7423 65.8465 40.8957 69.4073 41.0031ZM74.2771 26.531C71.2408 25.0175 65.548 25 65.3071 25C64.5852 25 64 25.5835 64 26.3032C64 27.0228 64.5852 27.6063 65.3071 27.6063C66.7761 27.6065 71.0413 27.832 73.1081 28.8622C73.2958 28.9559 73.4951 29 73.6916 29C74.171 29 74.6327 28.7359 74.8617 28.2794C75.1846 27.6357 74.9228 26.8529 74.2771 26.531ZM75 52.3071C75 51.5853 75.6716 51 76.5 51C77.3284 51 78 51.5854 78 52.3071V60.6929C78 61.4148 77.3284 62 76.5 62C75.6716 62 75 61.4148 75 60.6929V52.3071ZM6.5 54C5.6716 54 5 54.505 5 55.1278V60.8722C5 61.495 5.6716 62 6.5 62C7.3284 62 8 61.495 8 60.8722V55.1278C8 54.5051 7.3284 54 6.5 54ZM33.1706 11.4836C37.1641 10.8911 46.957 10.0102 51.6375 14.6178C52.1208 15.0934 52.1208 15.8648 51.6375 16.3406C51.1544 16.8163 50.3708 16.8163 49.8875 16.3406C48.234 14.7127 45.4388 13.759 41.5796 13.5061C38.3002 13.2909 35.1349 13.656 33.5398 13.8927C33.5028 13.8982 33.4751 13.9336 33.4751 13.975V16.7817C33.4751 17.4545 32.921 18 32.2375 18C31.5541 18 31 17.4545 31 16.7817V13.9752C31 12.7181 31.9128 11.6703 33.1706 11.4836ZM27.5 54C26.6716 54 26 54.5706 26 55.2745V60.7255C26 61.4294 26.6716 62 27.5 62C28.3284 62 29 61.4294 29 60.7255V55.2745C29 54.5708 28.3284 54 27.5 54ZM54 55.2745C54 54.5706 54.6716 54 55.5 54C56.3284 54 57 54.5708 57 55.2745V60.7255C57 61.4294 56.3284 62 55.5 62C54.6716 62 54 61.4294 54 60.7255V55.2745Z" fill="#BCB3B3"/>
</svg>
