<svg xmlns="http://www.w3.org/2000/svg" width="98" height="98" viewBox="0 0 98 98">
  <g id="Group_2" data-name="Group 2" transform="translate(-82 -83)">
    <circle id="Oval" cx="49" cy="49" r="49" transform="translate(82 83)" fill="#ededed"/>
    <path id="Combined_Shape" data-name="Combined Shape" d="M14.073,57.271.356,43.571a1.211,1.211,0,0,1,0-1.715l3.738-3.719a5.577,5.577,0,0,1,3.973-1.652c.1,0,.194,0,.291.007a14.529,14.529,0,0,1,10.413-8.15V1.211A1.211,1.211,0,0,1,19.981,0H51.1a1.211,1.211,0,0,1,1.21,1.211V24.856l1.172-1.212a4.844,4.844,0,0,1,7.373,6.286L50.01,42.957a1.241,1.241,0,0,1-.085.093,10.84,10.84,0,0,1-7.6,3.089H26.38a5.62,5.62,0,0,0-3.917,1.581L21.13,49.008A5.609,5.609,0,0,1,19.5,53.551L15.785,57.27a1.211,1.211,0,0,1-1.712,0ZM5.805,39.851,2.926,42.715l12,11.986,2.864-2.863a3.211,3.211,0,0,0,0-4.549l-7.439-7.438a3.211,3.211,0,0,0-4.549,0Zm14.35-9.3a12.185,12.185,0,0,0-9.424,6.6,5.633,5.633,0,0,1,1.336.988L19.5,45.576a5.672,5.672,0,0,1,.743.916l.535-.516a8.03,8.03,0,0,1,5.6-2.26H42.323a8.435,8.435,0,0,0,5.868-2.36L59,28.373a2.422,2.422,0,1,0-3.7-3.131l-.054.059-2.009,2.077-.058.06c-2.226,2.3-5.59,5.781-5.758,5.953a5.016,5.016,0,0,1,.043.636,4.849,4.849,0,0,1-4.844,4.844H32.09a1.211,1.211,0,0,1,0-2.422H42.627a2.422,2.422,0,0,0,0-4.844H28.586a3.063,3.063,0,0,1-1.156-.23,13.386,13.386,0,0,0-5.077-.984A15.464,15.464,0,0,0,20.155,30.555Zm8.186-1.423a.667.667,0,0,0,.246.052H42.627a4.837,4.837,0,0,1,3.761,1.8l3.5-3.623V2.422h-28.7V28.015c.414-.028.822-.041,1.211-.041A15.656,15.656,0,0,1,28.34,29.132ZM26.183,38.31a1.213,1.213,0,1,1,.856.354A1.213,1.213,0,0,1,26.183,38.31Zm2.154-26.079V9.809a1.211,1.211,0,0,1,0-2.422h2.422a1.211,1.211,0,1,1,0,2.422v2.422a4.844,4.844,0,0,0,9.688,0V9.809a1.211,1.211,0,1,1,0-2.422h2.422a1.211,1.211,0,0,1,0,2.422v2.422a7.266,7.266,0,0,1-14.532,0Z" transform="translate(100 104)" fill="#c4c4c4"/>
  </g>
</svg>
