<svg xmlns="http://www.w3.org/2000/svg" width="98" height="94.889" viewBox="0 0 98 94.889">
  <path id="Combined_Shape" data-name="Combined Shape" d="M3.111,71.944a22.633,22.633,0,0,1,43.164-9.833h-.852a6.787,6.787,0,0,0-2.525.5A19.381,19.381,0,0,0,25.791,52.277a19.668,19.668,0,0,0,0,39.334A19.587,19.587,0,0,0,44.963,75.192c.09,0,.178.03.268.03h2.991A22.805,22.805,0,0,1,25.791,94.889,22.839,22.839,0,0,1,3.111,71.944Zm6.222.389A16.4,16.4,0,0,1,40.368,64.98a6.212,6.212,0,0,0-1.354,2.8A6.357,6.357,0,0,0,42,74.578,16.416,16.416,0,0,1,9.333,72.333Zm12.651-3.165,5.36,14.22,4.444-11.055h5.456V69.067H29.566l-2.123,5.279-4.49-11.912L16.721,70.7h-4.1v3.267h5.746l3.619-4.8v0ZM83.057,81.653A3.488,3.488,0,0,1,80.2,79.29l-9.02-24.252-1.336.241a6.256,6.256,0,0,1-3.094-.184,6.93,6.93,0,0,1-4.567-6.53l.008-.1-.016,0c0-.016,0-.031,0-.046V33.568a2.775,2.775,0,0,0-4.746-1.982l-4.071,4.1a3.3,3.3,0,0,0-.955,2.322v.962H45.889V42.26H4.917a1.686,1.686,0,0,0,0,3.37H26.222A25.545,25.545,0,0,0,13.537,49H4.917a5.057,5.057,0,0,1,0-10.111H45.889v-.475a9.887,9.887,0,0,1,2.863-6.967l2.815-2.839a20.3,20.3,0,0,1,15.679-6.019,21.147,21.147,0,0,1,14.8,7.691l.593.7a3.227,3.227,0,0,0,2.684,1.425h9.418a3.238,3.238,0,0,1,2.513,1.2,3.3,3.3,0,0,1,.679,2.755,3.411,3.411,0,0,1-3.384,2.615H85.326a9.7,9.7,0,0,1-6.868-2.866L75.2,33.315V49.188l.543.49a3.229,3.229,0,0,1,.877,1.278l9.773,26.27a3.3,3.3,0,0,1-1.9,4.226,3.25,3.25,0,0,1-1.145.214Q83.206,81.666,83.057,81.653Zm-37.744-9.32a3.307,3.307,0,0,1-2.557-1.2,3.258,3.258,0,0,1-.69-2.758,3.461,3.461,0,0,1,3.443-2.619h12a3.323,3.323,0,0,0,3.3-3.033l.53-6.72a9.142,9.142,0,0,0,6.324,3.106l-.759,8.717a4.928,4.928,0,0,1-4.951,4.51Zm3.054-23.394A3.255,3.255,0,0,1,45.889,45.7V42.778h6.222v3.111A3.114,3.114,0,0,1,49,49,3.355,3.355,0,0,1,48.367,48.939ZM26.132,32.055l-7.84-5.978H4.738a1.629,1.629,0,0,1-1.626-1.63V1.63A1.629,1.629,0,0,1,4.738,0H37.263a1.63,1.63,0,0,1,1.626,1.63V24.448a1.63,1.63,0,0,1-1.626,1.63H29.131v4.89a1.7,1.7,0,0,1-3,1.088ZM9.616,10.439a7.164,7.164,0,0,0,2.578,5.515L21,23.31l8.806-7.356A7.182,7.182,0,0,0,25.221,3.26h-.3a7.083,7.083,0,0,0-3.927,1.162A7.118,7.118,0,0,0,17.081,3.26h-.3A7.179,7.179,0,0,0,9.616,10.439Zm49.495-.717a9.722,9.722,0,1,1,9.722,9.723A9.722,9.722,0,0,1,59.111,9.722ZM14.637,13.875a3.859,3.859,0,0,1-1.415-2.987A3.913,3.913,0,0,1,17.15,7h.3a4.093,4.093,0,0,1,2.885,1.238l1.156.945L22.549,8.14A3.972,3.972,0,0,1,25.325,7h.3a3.913,3.913,0,0,1,3.929,3.888,3.859,3.859,0,0,1-1.415,2.987l-6.753,5.569Z" fill="#e3e3e3"/>
</svg>
