<svg xmlns="http://www.w3.org/2000/svg" width="62" height="62" viewBox="0 0 62 62">
  <path id="Combined_Shape" data-name="Combined Shape" d="M12.836,62a1.817,1.817,0,0,1,0-3.633h1.816v-9.2a1.819,1.819,0,0,1,1.817-1.816h1.816V45.531a5.455,5.455,0,0,1,5.449-5.449,1.819,1.819,0,0,0,1.816-1.817V35.442A18.087,18.087,0,0,1,15.6,27.659l-1.925-.641A20.242,20.242,0,0,1,4.343,20.6,19.886,19.886,0,0,1,0,8.217V5.45A5.455,5.455,0,0,1,5.45,0h51.1A5.455,5.455,0,0,1,62,5.45V8.217a19.819,19.819,0,0,1-13.551,18.8l-.023.007-2.029.646a18.092,18.092,0,0,1-9.947,7.771v2.823a1.819,1.819,0,0,0,1.816,1.817,5.455,5.455,0,0,1,5.45,5.449v1.817h1.816a1.819,1.819,0,0,1,1.817,1.816v9.2h1.816a1.817,1.817,0,0,1,0,3.633Zm5.45-3.633h25.43V50.981H18.285Zm-1.616-38.5A14.413,14.413,0,0,0,27.775,32.286a1.808,1.808,0,0,1,1.409,1.77v4.209a5.455,5.455,0,0,1-5.449,5.45,1.819,1.819,0,0,0-1.817,1.816v1.817H40.082V45.531a1.819,1.819,0,0,0-1.817-1.816,5.455,5.455,0,0,1-5.449-5.45V34.056a1.808,1.808,0,0,1,1.409-1.77A14.411,14.411,0,0,0,45.33,19.868l1.8-16.236H14.865Zm32.272.4a17.913,17.913,0,0,1-.571,2.9,16.182,16.182,0,0,0,10-14.955V5.45a1.819,1.819,0,0,0-1.816-1.817H50.79ZM3.632,5.45V8.217A16.247,16.247,0,0,0,7.179,18.328a16.327,16.327,0,0,0,6.435,4.788,18.013,18.013,0,0,1-.555-2.846L11.21,3.632H5.45A1.819,1.819,0,0,0,3.632,5.45Zm31,18.352L31,21.936,27.372,23.8a1.8,1.8,0,0,1-2.595-1.916l.683-3.894-2.9-2.766a1.8,1.8,0,0,1,.988-3.092l4.045-.574,1.8-3.569a1.8,1.8,0,0,1,3.213,0l1.8,3.569,4.045.574a1.8,1.8,0,0,1,.988,3.092l-2.9,2.766.683,3.894A1.8,1.8,0,0,1,34.628,23.8Zm-2.806-5.5,1.229.632-.223-1.274a1.8,1.8,0,0,1,.532-1.618l.906-.864L32.972,15a1.8,1.8,0,0,1-1.354-.972L31,12.8l-.618,1.226A1.8,1.8,0,0,1,29.028,15l-1.293.184.906.864a1.8,1.8,0,0,1,.532,1.618l-.224,1.274,1.228-.632a1.8,1.8,0,0,1,1.644,0Z" fill="#e3e3e3"/>
</svg>
