<svg width="98" height="72" viewBox="0 0 98 72" fill="none" xmlns="http://www.w3.org/2000/svg">
<path fill-rule="evenodd" clip-rule="evenodd" d="M93.6191 52.6814L87.6903 50.992C87.4344 50.9191 87.2556 50.6828 87.2556 50.4172V48.4436C87.7379 48.1103 88.1981 47.7373 88.6282 47.321C90.7126 45.3036 91.8605 42.5977 91.8605 39.7015V36.9781L92.4337 35.8348C93.0629 34.5797 93.3953 33.1745 93.3953 31.7715V24.3935C93.3953 23.6028 92.7526 22.9618 91.9598 22.9618H78.1454C73.1222 22.9618 69.0353 27.0378 69.0353 32.0475V32.1329C69.0353 33.2996 69.3118 34.468 69.835 35.5114L70.5701 36.9779V39.3163C70.5701 43.0223 72.4013 46.3474 75.175 48.3484L75.1754 50.4169C75.1754 50.7358 75.1754 50.8679 73.99 51.2058L71.0971 52.0301L62.7286 48.9953C62.7587 48.6015 62.6254 48.201 62.3374 47.8992L59.6632 45.0973V40.3937C59.9459 40.1614 60.2246 39.9228 60.4947 39.6704C63.8682 36.5169 65.803 32.0645 65.803 27.455V23.6987C66.8216 21.4879 67.3379 19.1486 67.3379 16.7393V1.43169C67.3379 0.641015 66.6951 0 65.9023 0H44.4133C36.8509 0 30.6985 6.13603 30.6985 13.678V16.7397C30.6985 19.1489 31.2147 21.4883 32.2334 23.699V26.931C32.2334 32.2829 34.6195 37.1044 38.3731 40.2832V45.0975L35.699 47.8994C35.4109 48.2012 35.2777 48.6017 35.3078 48.9955L26.4753 52.1985C25.8353 52.4306 25.2406 52.745 24.7006 53.1258L23.3137 52.4342C27.4423 50.6419 28.7502 48.1212 28.813 47.996C29.0151 47.593 29.0151 47.1184 28.813 46.7155C27.778 44.6512 27.6527 40.8675 27.552 37.8273C27.5185 36.8152 27.4867 35.8591 27.426 35.0077C26.9366 28.1405 21.702 22.9618 15.2497 22.9618C8.79741 22.9618 3.56264 28.1403 3.07341 35.0077C3.01273 35.8593 2.98096 36.8154 2.94746 37.8277C2.84679 40.8677 2.72122 44.651 1.68648 46.7153C1.48436 47.1183 1.48436 47.5928 1.68648 47.9958C1.74926 48.121 3.05446 50.6366 7.19132 52.431L3.33889 54.3519C1.27936 55.3797 0 57.4442 0 59.7404V70.3175C0 71.1082 0.642742 71.7492 1.43555 71.7492C2.22835 71.7492 2.87109 71.1082 2.87109 70.3175V59.7404C2.87109 58.5355 3.54236 57.4522 4.62284 56.9133L9.42006 54.5212L11.0887 56.1028C12.2556 57.2086 13.7523 57.7612 15.2497 57.7612C16.7467 57.7612 18.2443 57.2082 19.4107 56.1028L21.0792 54.5214L22.6434 55.3014C21.9068 56.4767 21.4888 57.855 21.4888 59.2987V70.3179C21.4888 71.1086 22.1315 71.7496 22.9243 71.7496C23.7171 71.7496 24.3599 71.1086 24.3599 70.3179V59.2987C24.3599 57.3333 25.6042 55.5614 27.4565 54.8897L36.7688 51.5126L40.6453 57.3121C41.1409 58.0535 41.935 58.529 42.8241 58.6168C42.9232 58.6266 43.0218 58.6313 43.1202 58.6313C43.9046 58.6313 44.6558 58.3234 45.2174 57.7635L47.5824 55.4049V70.3181C47.5824 71.1088 48.2252 71.7498 49.018 71.7498C49.8108 71.7498 50.4535 71.1088 50.4535 70.3181V55.4049L52.8186 57.7635C53.3799 58.3236 54.1312 58.6315 54.9158 58.6315C55.014 58.6315 55.1128 58.6267 55.2117 58.617C56.101 58.5292 56.8951 58.0537 57.3907 57.3123L61.2674 51.513L70.5795 54.89C72.4316 55.5618 73.6761 57.3336 73.6761 59.2991V70.3183C73.6761 71.109 74.3188 71.75 75.1116 71.75C75.9044 71.75 76.5472 71.109 76.5472 70.3183V59.2991C76.5472 57.3084 75.7542 55.4415 74.4239 54.0608L74.7786 53.9598C75.1363 53.8579 75.6244 53.7183 76.1144 53.4788L79.7797 57.1342V70.3183C79.7797 71.109 80.4224 71.75 81.2152 71.75C82.008 71.75 82.6507 71.109 82.6507 70.3183V57.1342L86.2905 53.5042C86.484 53.6023 86.6873 53.6851 86.9013 53.746L92.8303 55.4354C94.1835 55.821 95.1289 57.0708 95.1289 58.4746V70.3183C95.1289 71.109 95.7717 71.75 96.5645 71.75C97.3573 71.75 98 71.109 98 70.3183V58.4746C98 55.7987 96.1985 53.4165 93.6191 52.6814ZM9.20951 50.1527C6.52427 49.189 5.17735 47.9043 4.60236 47.2028C4.99436 46.1808 5.24855 45.0102 5.42062 43.7746C6.21228 45.6677 7.53815 47.2838 9.20951 48.4367V50.1527ZM13.0667 54.0272C14.2908 55.1874 16.2089 55.1876 17.4333 54.0274L18.7681 52.7624C18.5427 52.3412 18.419 51.8638 18.419 51.3637L18.4192 49.8388C17.4161 50.1492 16.352 50.3184 15.2501 50.3184C14.1468 50.3184 13.0822 50.15 12.0808 49.8379V51.3639C12.0808 51.8638 11.957 52.3411 11.7317 52.762L13.0667 54.0272ZM15.2505 47.455C10.9638 47.455 7.47652 43.9769 7.47652 39.7019C7.47652 38.9112 6.83378 38.2702 6.04097 38.2702C5.96058 38.2702 5.88211 38.2784 5.80535 38.2912L5.81779 37.9228C5.84976 36.9384 5.88057 36.0085 5.93742 35.211C6.12079 32.6385 7.15151 30.268 8.83972 28.5359C10.543 26.7881 12.8196 25.8256 15.2501 25.8256C17.6806 25.8256 19.957 26.7881 21.6605 28.5359C23.3487 30.268 24.3794 32.6385 24.5628 35.211C24.6194 36.0083 24.6504 36.938 24.683 37.9222L24.6916 38.1776C23.1297 35.7777 20.7176 34.0091 17.601 33.0104C14.7216 32.0878 12.2452 32.1449 12.1407 32.1475C11.7648 32.158 11.408 32.315 11.1471 32.5849L8.55701 35.2639C8.00671 35.8331 8.02318 36.7395 8.59395 37.2883C9.16472 37.8371 10.0735 37.8205 10.6238 37.2514L12.779 35.0224C14.6351 35.1129 20.6064 35.8054 22.9287 40.9055C22.3444 44.6638 19.1054 47.455 15.2505 47.455ZM21.2901 48.4499L21.2899 50.1574C23.9725 49.1942 25.3257 47.898 25.8975 47.2032C25.5062 46.1835 25.2522 45.0156 25.0802 43.7828C24.2879 45.6902 22.9601 47.3032 21.2901 48.4499ZM35.1045 26.9309V23.3787C35.1045 23.1632 35.0557 22.9504 34.9617 22.7562C34.038 20.8485 33.5696 18.8242 33.5696 16.7397V13.6782C33.5696 7.7149 38.4342 2.86357 44.4133 2.86357H64.4668V16.7399C64.4668 18.8244 63.9984 20.8486 63.0747 22.7564C62.9807 22.9506 62.9319 23.1634 62.9319 23.3789V27.4554C62.9319 31.3326 61.3691 34.9288 58.5313 37.5817C58.177 37.9127 57.8093 38.2231 57.4291 38.5123C57.4239 38.5158 57.4189 38.5196 57.4138 38.5233L57.4045 38.5302C54.746 40.5432 51.4898 41.5215 48.0893 41.3018C40.808 40.8316 35.1045 34.5192 35.1045 26.9309ZM43.1872 55.7388L43.1874 55.7386L46.7795 52.1559L40.0066 47.5388L38.5699 49.0444L43.0344 55.7233C43.0423 55.7351 43.0607 55.7624 43.1074 55.767C43.1539 55.7719 43.1771 55.7488 43.1872 55.7388ZM49.0182 50.2136L41.2442 44.914V42.2415C43.2557 43.326 45.508 44.0042 47.9034 44.1589C48.2818 44.1833 48.658 44.1953 49.0329 44.1953C51.7779 44.1953 54.4197 43.5409 56.7921 42.2988V44.914L49.0182 50.2136ZM54.929 55.7674C54.9757 55.7628 54.9941 55.7355 55.0019 55.7237L59.4667 49.0447L58.0298 47.5392L51.2569 52.1565L54.849 55.7389L54.8504 55.7403C54.8612 55.7508 54.8841 55.773 54.929 55.7674ZM81.2152 54.5157L77.9575 51.2669C78.0143 51.0094 78.0465 50.7274 78.0463 50.4165L78.0461 49.8123C78.9501 50.1082 79.9029 50.2838 80.8889 50.3132C80.9995 50.3166 81.1092 50.3182 81.2194 50.3182C82.3089 50.3182 83.3724 50.154 84.3845 49.8408V50.4172C84.3845 50.7028 84.4205 50.9827 84.4883 51.2516L81.2152 54.5157ZM80.9752 47.4512C83.0973 47.5165 85.1073 46.7388 86.6287 45.2662C88.151 43.7929 88.9894 41.8168 88.9894 39.7017V36.6402C88.9894 36.4178 89.0412 36.1988 89.141 35.9999L89.8656 34.5545C90.2965 33.6949 90.5242 32.7326 90.5242 31.7717V25.8254H78.1454C74.7053 25.8254 71.9063 28.6166 71.9063 32.0477V32.133C71.9063 32.8577 72.078 33.5831 72.4029 34.2311L73.2896 35.9999C73.3894 36.1987 73.4412 36.4178 73.4412 36.6402V39.3167C73.4412 43.6776 76.8209 47.3269 80.9752 47.4512ZM86.695 32.2995C83.3136 30.6442 76.9739 30.625 76.7056 30.625C75.9017 30.625 75.25 31.2632 75.25 32.0503C75.25 32.8375 75.9017 33.4757 76.7056 33.4757C78.3416 33.4758 83.0914 33.7225 85.3931 34.8493C85.6021 34.9517 85.8241 35 86.0429 35C86.5768 35 87.0909 34.7111 87.3459 34.2119C87.7056 33.5078 87.4141 32.6516 86.695 32.2995ZM88.8125 60.9557C88.8125 60.1518 89.4981 59.5 90.3438 59.5C91.1894 59.5 91.875 60.1519 91.875 60.9557V70.2943C91.875 71.0982 91.1894 71.75 90.3438 71.75C89.4981 71.75 88.8125 71.0982 88.8125 70.2943V60.9557ZM7.65625 61.6875C6.81059 61.6875 6.125 62.3226 6.125 63.1061V70.3314C6.125 71.1149 6.81059 71.75 7.65625 71.75C8.50191 71.75 9.1875 71.1149 9.1875 70.3314V63.1061C9.1875 62.3228 8.50191 61.6875 7.65625 61.6875ZM39.2824 13.6993C43.9414 12.9957 55.3665 11.9496 60.8271 17.4211C61.391 17.9859 61.391 18.902 60.8271 19.4669C60.2635 20.0319 59.3492 20.0319 58.7854 19.4669C56.8563 17.5338 53.5952 16.4013 49.0929 16.101C45.2668 15.8454 41.574 16.279 39.7131 16.5601C39.6699 16.5666 39.6376 16.6087 39.6376 16.6579V19.9908C39.6376 20.7898 38.9912 21.4375 38.1938 21.4375C37.3964 21.4375 36.75 20.7898 36.75 19.9908V16.6581C36.75 15.1653 37.8149 13.9209 39.2824 13.6993ZM32.1562 62.5625C31.3106 62.5625 30.625 63.2178 30.625 64.0262V70.2863C30.625 71.0947 31.3106 71.75 32.1562 71.75C33.0019 71.75 33.6875 71.0947 33.6875 70.2863V64.0262C33.6875 63.218 33.0019 62.5625 32.1562 62.5625ZM64.3125 64.0262C64.3125 63.2178 64.9981 62.5625 65.8438 62.5625C66.6894 62.5625 67.375 63.218 67.375 64.0262V70.2863C67.375 71.0947 66.6894 71.75 65.8438 71.75C64.9981 71.75 64.3125 71.0947 64.3125 70.2863V64.0262Z" fill="#E2E2E2"/>
</svg>
