<svg width="134" height="126" viewBox="0 0 134 126" fill="none" xmlns="http://www.w3.org/2000/svg">
<path fill-rule="evenodd" clip-rule="evenodd" d="M67 23.5088C73.4918 23.5088 78.7544 18.2462 78.7544 11.7544C78.7544 5.26262 73.4918 0 67 0C60.5082 0 55.2456 5.26262 55.2456 11.7544C55.2456 18.2462 60.5082 23.5088 67 23.5088ZM67.5876 31.7339C76.8445 31.7339 84.581 25.1836 86.5443 16.4561C93.5073 18.0176 98.7366 24.2613 98.7368 31.7339V47.4084C98.7368 51.7288 95.2424 55.2456 90.9495 55.2456C86.6566 55.2456 83.1622 51.7288 83.1622 47.4084V39.5711H52.0132V47.4084C52.0132 51.7288 48.5188 55.2456 44.2259 55.2456C39.933 55.2456 36.4386 51.7288 36.4386 47.4084V31.7339C36.4386 24.2613 41.6677 18.0176 48.6308 16.4561C50.5942 25.1836 58.3307 31.7339 67.5876 31.7339ZM127.975 96.7872C122.401 93.5417 115.273 95.4673 112.055 101.089C108.836 106.71 110.746 113.898 116.321 117.143C121.895 120.388 129.282 118.462 132.5 112.841C135.719 107.22 133.55 100.033 127.975 96.7872ZM106.822 61.0042L120.341 68.9075C126.786 72.6753 129.551 80.4199 127.408 87.3268C118.896 84.6522 109.37 88.1487 104.731 96.2852C100.092 104.422 101.864 114.524 108.408 120.65C103.572 125.983 95.5663 127.431 89.1209 123.663L75.6025 115.76C71.8761 113.581 70.5941 108.737 72.7455 104.964C74.8968 101.19 79.6809 99.8924 83.4073 102.071L90.1668 106.022L105.777 78.6447L99.0175 74.6932C95.2911 72.5148 94.0091 67.6705 96.1605 63.8972C98.3118 60.1239 103.096 58.8258 106.822 61.0042ZM21.9454 101.089C18.7269 95.4674 11.5992 93.5416 6.02459 96.7873C0.450439 100.033 -1.71888 107.22 1.49991 112.841C4.71792 118.462 12.1051 120.388 17.6792 117.143C23.2539 113.897 25.1637 106.71 21.9454 101.089ZM50.5926 102.071C54.3188 99.8925 59.1032 101.19 61.2545 104.964C63.4059 108.737 62.1239 113.581 58.3977 115.76L44.8794 123.663C38.4339 127.431 30.4284 125.983 25.5926 120.65C32.1358 114.524 33.9084 104.422 29.2694 96.2853C24.6304 88.1488 15.1036 84.6521 6.59252 87.3269C4.44923 80.4198 7.21373 72.6752 13.6592 68.9074L27.1776 61.0041C30.9038 58.826 35.6881 60.1237 37.8395 63.8971C39.9905 67.6701 38.7089 72.5146 34.9824 74.6931L28.223 78.6446L43.8332 106.022L50.5926 102.071Z" fill="black" fill-opacity="0.10006"/>
</svg>
