<svg xmlns="http://www.w3.org/2000/svg" width="99.878" height="87.204" viewBox="0 0 99.878 87.204">
  <path id="Combined_Shape" data-name="Combined Shape" d="M43.653,87.2H11.021a2.452,2.452,0,0,1-2.449-2.449V41.674A14.345,14.345,0,0,1,0,28.571a2.458,2.458,0,0,1,.327-1.2L15.163,1.245A2.422,2.422,0,0,1,17.285,0H82.571a2.449,2.449,0,0,1,2.122,1.245L99.551,27.367a2.267,2.267,0,0,1,.327,1.2,14.374,14.374,0,0,1-8.612,13.143,1.064,1.064,0,0,1,.021.266V84.755a2.452,2.452,0,0,1-2.45,2.449ZM13.469,82.327h8.673V55.877a8.4,8.4,0,0,1,8.388-8.388h7.123a8.4,8.4,0,0,1,8.387,8.388V82.306H86.387V42.878h-.036c-.131,0-.258,0-.381.009-.138,0-.277.01-.419.01a14.311,14.311,0,0,1-11.878-6.326,14.275,14.275,0,0,1-23.714,0,14.313,14.313,0,0,1-23.755,0A14.308,14.308,0,0,1,14.326,42.9c-.281,0-.571,0-.857-.02ZM27.061,55.877V82.306h14.1V55.877a3.494,3.494,0,0,0-3.49-3.489H30.551A3.494,3.494,0,0,0,27.061,55.877ZM85.551,38a9.432,9.432,0,0,0,9.285-7.755H76.286A9.383,9.383,0,0,0,85.551,38Zm-23.735-.02a9.383,9.383,0,0,0,9.265-7.755H52.551A9.383,9.383,0,0,0,61.817,37.98Zm-23.735,0a9.383,9.383,0,0,0,9.266-7.755H28.8A9.429,9.429,0,0,0,38.082,37.98Zm-23.8,0h.04a9.4,9.4,0,0,0,9.286-7.755H5.062A9.357,9.357,0,0,0,14.286,37.98ZM7.123,25.347H92.755L81.143,4.918H18.715ZM57.388,71.367a6.742,6.742,0,0,1-6.735-6.735V54.224a6.742,6.742,0,0,1,6.735-6.735H70.959a6.742,6.742,0,0,1,6.735,6.735V64.633a6.742,6.742,0,0,1-6.735,6.735ZM55.551,54.224V64.633a1.839,1.839,0,0,0,1.837,1.836H70.959A1.838,1.838,0,0,0,72.8,64.633V54.224a1.839,1.839,0,0,0-1.837-1.837H57.388A1.839,1.839,0,0,0,55.551,54.224Z" fill="#d0d0d0"/>
</svg>
