<svg width="69" height="38" viewBox="0 0 69 38" fill="none" xmlns="http://www.w3.org/2000/svg">
<path d="M34.633 7.89961e-07C34.4651 7.89961e-07 34.3041 0.0666917 34.1854 0.185402C34.0667 0.304113 34 0.465119 34 0.633001V37.367C34 37.535 34.0667 37.6961 34.1855 37.815C34.3044 37.9338 34.4655 38.0005 34.6335 38.0005C34.8015 38.0005 34.9626 37.9338 35.0815 37.815C35.2003 37.6961 35.267 37.535 35.267 37.367V0.633001C35.267 0.54979 35.2506 0.467395 35.2187 0.390531C35.1868 0.313667 35.1401 0.243841 35.0812 0.185048C35.0224 0.126256 34.9525 0.0796501 34.8755 0.0478977C34.7986 0.0161454 34.7162 -0.000130665 34.633 7.89961e-07V7.89961e-07Z" fill="#424A60"/>
<path d="M49 20H43V23H49V20Z" fill="#871B1B"/>
<path d="M49 3H35V21H49V3Z" fill="#DD352E"/>
<path d="M49.2002 5.7002V20.9002H45.4002C44.7283 20.9002 44.0839 21.1671 43.6087 21.6422C43.1336 22.1174 42.8667 22.7618 42.8667 23.4337C42.8667 24.1056 43.1336 24.75 43.6087 25.2252C44.0839 25.7003 44.7283 25.9672 45.4002 25.9672H68.8342L61.8672 15.8332L68.8342 5.7002H49.2002Z" fill="#C03A2B"/>
<path d="M42.8672 23.4329C42.8672 24.1047 43.1341 24.749 43.6091 25.224C44.0841 25.699 44.7284 25.9659 45.4002 25.9659H49.2002V20.8999H45.4002C44.7284 20.8999 44.0841 21.1668 43.6091 21.6418C43.1341 22.1168 42.8672 22.7611 42.8672 23.4329V23.4329Z" fill="#B02721"/>
</svg>