<svg width="30" height="32" viewBox="0 0 38.351 54.757" fill="none" xmlns="http://www.w3.org/2000/svg">
<path d="M32.7374 5.617C29.1154 1.995 24.2994 0 19.1774 0C14.0544 0 9.23945 1.995 5.61745 5.617C-1.08555 12.319 -1.91855 24.929 3.81345 32.569L19.1774 54.757L34.5184 32.6C40.2734 24.929 39.4404 12.319 32.7374 5.617ZM19.3544 26C15.4954 26 12.3544 22.859 12.3544 19C12.3544 15.141 15.4954 12 19.3544 12C23.2134 12 26.3544 15.141 26.3544 19C26.3544 22.859 23.2134 26 19.3544 26Z" fill="#1EB4FF"/>
<circle cx="19.5" cy="18.5" r="15" fill="white" stroke="#00669B"/>
<circle cx="19.3151" cy="12.9948" r="4.39912" fill="#00669B"/>
<path d="M19.3152 19.5938C14.9116 19.5938 11.3418 23.1636 11.3418 27.5672H27.2886C27.2886 23.1636 23.7188 19.5938 19.3152 19.5938Z" fill="#00669B"/>
</svg>