<?xml version="1.0" encoding="UTF-8"?>
<svg width="32px" height="20px" viewBox="0 0 32 20" version="1.1" xmlns="http://www.w3.org/2000/svg" xmlns:xlink="http://www.w3.org/1999/xlink">
    <!-- Generator: Sketch 53.2 (72643) - https://sketchapp.com -->
    <title>achievement</title>
    <desc>Created with Sketch.</desc>
    <g id="Symbols" stroke="none" stroke-width="1" fill="none" fill-rule="evenodd">
        <g id="Header" transform="translate(-1229.000000, -80.000000)" fill="#FFFFFF" fill-rule="nonzero">
            <g id="Nav">
                <g transform="translate(23.000000, 80.000000)">
                    <path d="M1220.7614,3.53017888 L1221.73444,4.67433702 L1223.12313,5.24694996 L1222.33642,6.52618598 L1222.2211,8.02298825 L1220.7614,7.66981018 L1219.30117,8.02298825 L1219.18585,6.52618598 L1218.39914,5.24694996 L1219.78783,4.67433702 L1220.7614,3.53017888 Z M1221.26648,6.17781308 L1221.51928,5.76777416 L1221.07347,5.58411089 L1220.7614,5.21731822 L1220.44933,5.58411089 L1220.00352,5.76777416 L1220.25633,6.17781308 L1220.29343,6.65859439 L1220.7614,6.54487262 L1221.2299,6.65859439 L1221.26648,6.17781308 Z M1214.56063,8.28540244 L1211.20264,5.34679013 C1210.67621,4.88603027 1210.37375,4.22025089 1210.37375,3.52030166 C1210.37375,2.18206917 1211.46291,1.09343714 1212.80061,1.09343714 L1213.66607,1.09343714 C1213.66234,0.972507706 1213.65406,0.852913019 1213.65406,0.731449648 L1213.65406,0 L1227.86874,0 L1227.86874,0.731449648 C1227.86874,0.852913019 1227.86047,0.972507706 1227.85673,1.09343714 L1228.72219,1.09343714 C1230.05989,1.09343714 1231.14905,2.18206917 1231.14905,3.52030166 C1231.14905,4.22078483 1230.8466,4.88656415 1230.32017,5.34679013 L1226.96217,8.28540244 C1226.84365,8.38951392 1226.77531,8.53927421 1226.77531,8.69677611 C1226.77531,9.04915331 1227.0209,9.29421567 1227.32202,9.29421567 C1227.62315,9.29421567 1227.86874,9.04915331 1227.86874,8.7474971 L1227.86874,8.20077853 L1228.96218,8.20077853 L1228.96218,8.7474971 C1228.96218,9.65166499 1228.22619,10.3876528 1227.32202,10.3876528 C1226.41786,10.3876528 1225.68187,9.65166499 1225.68187,8.7474971 C1225.68187,8.22373648 1225.88635,7.77445553 1226.24167,7.46212115 L1229.6002,4.52350885 C1229.88984,4.27043795 1230.05562,3.90471316 1230.05562,3.52030166 C1230.05562,2.78564859 1229.45738,2.18687428 1228.72219,2.18687428 L1227.77531,2.18687428 C1227.33884,5.64764553 1225.36793,8.79341292 1222.40156,10.6850378 L1222.40156,16.4015571 L1224.04171,16.4015571 C1225.54893,16.4015571 1226.77531,17.6279365 1226.77531,19.1351499 L1226.77531,19.6818685 L1214.7475,19.6818685 L1214.7475,19.1351499 C1214.7475,17.6279365 1215.97388,16.4015571 1217.48109,16.4015571 L1219.12125,16.4015571 L1219.12125,10.6850378 C1216.15487,8.79341292 1214.18316,5.64764553 1213.74749,2.18687428 L1212.80061,2.18687428 C1212.06543,2.18687428 1211.46719,2.78564859 1211.46719,3.52030166 C1211.46719,3.90524703 1211.63296,4.27097188 1211.92261,4.52350885 L1215.28114,7.46212115 C1215.63645,7.77392159 1215.84093,8.22373648 1215.84093,8.69677611 C1215.84093,9.65166499 1215.10495,10.3876528 1214.20078,10.3876528 C1213.29661,10.3876528 1212.56062,9.65166499 1212.56062,8.7474971 L1212.56062,8.20077853 L1213.65406,8.20077853 L1213.65406,8.7474971 C1213.65406,9.04915331 1213.89966,9.29421567 1214.20078,9.29421567 C1214.5019,9.29421567 1214.7475,9.04915331 1214.7475,8.7474971 C1214.7475,8.53927421 1214.67916,8.38951392 1214.56063,8.28540244 Z M1225.58844,18.5884313 C1225.36259,17.9520168 1224.75474,17.4949942 1224.04171,17.4949942 L1217.48109,17.4949942 C1216.76806,17.4949942 1216.16021,17.9520168 1215.93437,18.5884313 L1225.58844,18.5884313 Z M1220.21468,16.4015571 L1221.30812,16.4015571 L1221.30812,10.9343714 L1220.21468,10.9343714 L1220.21468,16.4015571 Z M1226.76917,1.09343714 L1214.75364,1.09343714 C1214.76618,1.46129755 1214.80276,1.82542072 1214.85294,2.18687428 L1224.04171,2.18687428 L1224.04171,3.28031141 L1215.06464,3.28031141 C1215.73042,5.97119187 1217.42476,8.35614488 1219.82226,9.84093424 L1221.70187,9.84093424 C1224.09857,8.35614488 1225.79292,5.97119187 1226.45923,3.28031141 L1225.13515,3.28031141 L1225.13515,2.18687428 L1226.66986,2.18687428 C1226.72005,1.82542072 1226.75662,1.46129755 1226.76917,1.09343714 Z M1209.28031,10.3876528 L1210.37375,10.3876528 L1210.37375,11.8014329 L1211.37375,10.801963 L1212.14685,11.5750572 L1211.14684,12.5745271 L1212.56062,12.5745271 L1212.56062,13.6679642 L1211.14684,13.6679642 L1212.14685,14.6674341 L1211.37375,15.4405283 L1210.37375,14.4410585 L1210.37375,15.8548385 L1209.28031,15.8548385 L1209.28031,14.4410585 L1208.28031,15.4405283 L1207.50721,14.6674341 L1208.50722,13.6679642 L1207.09344,13.6679642 L1207.09344,12.5745271 L1208.50722,12.5745271 L1207.50721,11.5750572 L1208.28031,10.801963 L1209.28031,11.8014329 L1209.28031,10.3876528 Z M1210.27978,12.0278085 L1209.37428,12.0278085 L1208.73359,12.6684943 L1208.73359,13.573997 L1209.37428,14.2146828 L1210.27978,14.2146828 L1210.92047,13.573997 L1210.92047,12.6684943 L1210.27978,12.0278085 Z M1236.2959,6.01390426 L1237.70968,6.01390426 L1237.70968,7.1073414 L1236.2959,7.1073414 L1237.2959,8.10681128 L1236.52281,8.87990551 L1235.5228,7.88043562 L1235.5228,9.29421567 L1234.42937,9.29421567 L1234.42937,7.88043562 L1233.42936,8.87990551 L1232.65627,8.10681128 L1233.65627,7.1073414 L1232.24249,7.1073414 L1232.24249,6.01390426 L1233.65627,6.01390426 L1232.65627,5.01443437 L1233.42936,4.24134015 L1234.42937,5.24081003 L1234.42937,3.82702998 L1235.5228,3.82702998 L1235.5228,5.24081003 L1236.52281,4.24134015 L1237.2959,5.01443437 L1236.2959,6.01390426 Z M1236.06952,6.10787151 L1235.42884,5.46718569 L1234.52333,5.46718569 L1233.88265,6.10787151 L1233.88265,7.01337414 L1234.52333,7.65405997 L1235.42884,7.65405997 L1236.06952,7.01337414 L1236.06952,6.10787151 Z M1228.96218,11.4810899 L1230.05562,11.4810899 L1230.05562,12.5745271 L1228.96218,12.5745271 L1228.96218,11.4810899 Z M1227.86874,12.5745271 L1228.96218,12.5745271 L1228.96218,13.6679642 L1227.86874,13.6679642 L1227.86874,12.5745271 Z M1228.96218,13.6679642 L1230.05562,13.6679642 L1230.05562,14.7614014 L1228.96218,14.7614014 L1228.96218,13.6679642 Z M1230.05562,12.5745271 L1231.14905,12.5745271 L1231.14905,13.6679642 L1230.05562,13.6679642 L1230.05562,12.5745271 Z M1207.09344,0 L1208.18687,0 L1208.18687,1.09343714 L1207.09344,1.09343714 L1207.09344,0 Z M1206,1.09343714 L1207.09344,1.09343714 L1207.09344,2.18687428 L1206,2.18687428 L1206,1.09343714 Z M1207.09344,2.18687428 L1208.18687,2.18687428 L1208.18687,3.28031141 L1207.09344,3.28031141 L1207.09344,2.18687428 Z M1208.18687,1.09343714 L1209.28031,1.09343714 L1209.28031,2.18687428 L1208.18687,2.18687428 L1208.18687,1.09343714 Z" id="achievement"></path>
                </g>
            </g>
        </g>
    </g>
</svg>