<svg width="15" height="15" viewBox="0 0 15 15" fill="none" xmlns="http://www.w3.org/2000/svg">
<g clip-path="url(#clip0_115_9)">
<path d="M14.5296 5.53548C14.1705 5.53551 13.877 5.84035 13.877 6.21502C13.877 6.58968 14.1705 6.89452 14.5312 6.89452L14.5489 6.89391L15 6.88156V9.11847L14.5296 9.10548C14.1705 9.10551 13.877 9.41032 13.877 9.78501C13.877 10.1593 14.1698 10.4638 14.5301 10.4645L14.5489 10.4639L15 10.4515V13H0V3H15V5.54848L14.5296 5.53548ZM14.1211 8.25057V7.74949C13.4742 7.56276 12.9981 6.94557 12.9981 6.21505C12.9981 5.48452 13.4742 4.86733 14.1211 4.68061V3.91281H0.878906V12.0873H14.1211V11.3195C13.4742 11.1327 12.9981 10.5155 12.9981 9.78501C12.9981 9.05449 13.4742 8.4373 14.1211 8.25057ZM10 7.16667H10.8333V8.41667H10V7.16667ZM10 5.08333H10.8333V6.33333H10V5.08333ZM10 9.66667H10.8333V10.9167H10V9.66667ZM6.45833 8C7.05195 8 7.49997 8.37926 7.5 9.04167C7.5 9.70942 7.05198 10.0833 6.45833 10.0833C5.86469 10.0833 5.41667 9.70939 5.41667 9.04167C5.41667 8.37926 5.86471 8 6.45833 8ZM6.45833 9.50639C6.58154 9.50639 6.70474 9.39954 6.70474 9.04164C6.70474 8.68374 6.58154 8.57689 6.45833 8.57689C6.33513 8.57689 6.21193 8.68374 6.21193 9.04164C6.21193 9.39954 6.33513 9.50639 6.45833 9.50639ZM4.58333 6.95832C4.58333 7.62605 4.13532 8 3.54167 8C2.94802 8 2.5 7.62605 2.5 6.95832C2.5 6.29594 2.94802 5.91667 3.54167 5.91667C4.13532 5.91667 4.58333 6.29594 4.58333 6.95832ZM3.29526 6.95832C3.29526 7.31622 3.41846 7.42307 3.54167 7.42307C3.66487 7.42307 3.78807 7.31622 3.78807 6.95832C3.78807 6.60042 3.66487 6.49357 3.54167 6.49357C3.41846 6.49357 3.29526 6.60042 3.29526 6.95832ZM6.10382 5.91667H7.08333L4.31285 10.0833H3.33333L6.10382 5.91667Z" fill="#666666"/>
</g>
<defs>
<clipPath id="clip0_115_9">
<rect width="15" height="10" fill="white" transform="translate(0 3)"/>
</clipPath>
</defs>
</svg>
