<svg xmlns="http://www.w3.org/2000/svg" width="10.148" height="12.178" viewBox="0 0 10.148 12.178">
  <path id="stopwatch" d="M8.248,2.054V1.522H8.5a.254.254,0,0,0,.254-.254V.253A.254.254,0,0,0,8.5,0H6.98a.254.254,0,0,0-.254.254V1.268a.254.254,0,0,0,.254.254h.254v.535a5.07,5.07,0,0,0-1.311.314l-.531-.513L4.465.931,2.68,2.716,3.832,3.868A5.074,5.074,0,1,0,8.248,2.054ZM7.234.507H8.249v.507H7.234ZM3.4,2.716,4.464,1.649l.592.592L3.989,3.308Zm4.344,8.446A4.059,4.059,0,1,1,11.8,7.1,4.064,4.064,0,0,1,7.741,11.162ZM7.339,4.8a.507.507,0,0,0-.717.717l1,1L6.285,8.377a.507.507,0,1,0,.884.5l1.522-2.2a.506.506,0,0,0-.083-.607L7.339,4.8Z" transform="translate(-2.667 0.001)" fill="#FE6C0B"/>
</svg>
