<svg width="50" height="44" viewBox="0 0 50 44" fill="none" xmlns="http://www.w3.org/2000/svg">
<path fill-rule="evenodd" clip-rule="evenodd" d="M26.1631 14.1515C26.1631 11.8872 28.0052 10.0449 30.2696 10.0449C32.534 10.0449 34.3762 11.887 34.3762 14.1515C34.3762 16.4158 32.5339 18.258 30.2696 18.258C28.0052 18.258 26.1631 16.4158 26.1631 14.1515ZM27.7567 14.1515C27.7567 15.5371 28.884 16.6644 30.2696 16.6644C31.6553 16.6644 32.7825 15.537 32.7825 14.1515C32.7825 12.7658 31.6552 11.6385 30.2696 11.6385C28.884 11.6385 27.7567 12.7658 27.7567 14.1515Z" fill="#666666"/>
<path d="M30.2969 35.5521C30.277 35.5035 30.2523 35.4573 30.2236 35.4142C30.1949 35.3704 30.1615 35.3298 30.1248 35.2931C30.0882 35.2565 30.0475 35.223 30.0037 35.1943C29.9607 35.1656 29.9144 35.1409 29.8658 35.121C29.818 35.1011 29.7678 35.0852 29.7168 35.0756C29.6141 35.0549 29.5089 35.0549 29.4061 35.0756C29.3551 35.0852 29.3049 35.1011 29.2571 35.121C29.2085 35.1409 29.1623 35.1656 29.1192 35.1943C29.0754 35.223 29.0348 35.2565 28.9981 35.2931C28.9615 35.3298 28.928 35.3704 28.8993 35.4142C28.8706 35.4573 28.8459 35.5035 28.826 35.5521C28.8061 35.5999 28.7901 35.6501 28.7806 35.7011C28.7702 35.7521 28.7646 35.8047 28.7646 35.8565C28.7646 35.9083 28.7702 35.9609 28.7806 36.0119C28.7901 36.0628 28.8061 36.113 28.826 36.1609C28.8459 36.2095 28.8706 36.2557 28.8993 36.2987C28.928 36.3425 28.9615 36.3832 28.9981 36.4198C29.0164 36.4381 29.0356 36.4555 29.0557 36.472C29.076 36.4886 29.0972 36.5043 29.1192 36.5186C29.1623 36.5473 29.2085 36.572 29.2571 36.5919C29.3049 36.6119 29.3551 36.6278 29.4061 36.6373C29.4571 36.6477 29.5097 36.6533 29.5615 36.6533C29.6133 36.6533 29.6658 36.6477 29.7168 36.6373C29.7678 36.6278 29.818 36.6119 29.8658 36.5919C29.9144 36.572 29.9607 36.5473 30.0037 36.5186C30.0257 36.5042 30.0469 36.4886 30.0672 36.472C30.0874 36.4555 30.1066 36.4381 30.1248 36.4198C30.1615 36.3832 30.1949 36.3425 30.2236 36.2987C30.2523 36.2557 30.277 36.2095 30.2969 36.1609C30.3168 36.113 30.3328 36.0628 30.3431 36.0119C30.3535 35.9609 30.3583 35.9083 30.3583 35.8565C30.3583 35.8047 30.3535 35.7521 30.3431 35.7011C30.3328 35.65 30.3168 35.5998 30.2969 35.5521Z" fill="#666666"/>
<path d="M17.7569 4.01986C17.737 3.97206 17.7123 3.92584 17.6836 3.88202C17.6549 3.83899 17.6214 3.79755 17.5848 3.7609C17.5481 3.72425 17.5075 3.69078 17.4637 3.66209C17.4206 3.63341 17.3744 3.60871 17.3258 3.58879C17.278 3.56887 17.2278 3.55373 17.1768 3.54337C17.074 3.52265 16.9688 3.52265 16.866 3.54337C16.815 3.55373 16.7648 3.56887 16.7162 3.58879C16.6684 3.60871 16.6222 3.63341 16.5792 3.66209C16.5354 3.69078 16.4947 3.72425 16.4581 3.7609C16.4214 3.79755 16.388 3.83899 16.3585 3.88202C16.3298 3.92584 16.3059 3.97206 16.286 4.01986C16.266 4.06767 16.2501 4.11787 16.2405 4.16887C16.2302 4.22066 16.2246 4.27245 16.2246 4.32504C16.2246 4.37684 16.2302 4.42863 16.2405 4.48042C16.2501 4.53142 16.266 4.58162 16.286 4.62943C16.3059 4.67723 16.3298 4.72345 16.3585 4.76727C16.388 4.8103 16.4214 4.85174 16.4581 4.88839C16.4947 4.92504 16.5354 4.95851 16.5792 4.98719C16.6222 5.01588 16.6684 5.04058 16.7162 5.0605C16.7648 5.08042 16.815 5.09556 16.866 5.10592C16.917 5.11628 16.9696 5.12186 17.0214 5.12186C17.0732 5.12186 17.1258 5.11628 17.1768 5.10592C17.2278 5.09556 17.278 5.08042 17.3258 5.0605C17.3744 5.04058 17.4206 5.01588 17.4637 4.98719C17.5075 4.95851 17.5481 4.92504 17.5848 4.88839C17.6214 4.85174 17.6549 4.8103 17.6836 4.76727C17.7123 4.72345 17.737 4.67723 17.7569 4.62943C17.7768 4.58162 17.7927 4.53142 17.8023 4.48042C17.8127 4.42863 17.8182 4.37684 17.8182 4.32504C17.8182 4.27245 17.8127 4.22066 17.8023 4.16887C17.7927 4.11787 17.7768 4.06767 17.7569 4.01986Z" fill="#666666"/>
<path fill-rule="evenodd" clip-rule="evenodd" d="M36.3449 3.53123C35.8671 1.51139 34.05 0.00341797 31.8862 0.00341797H6.88582C3.089 0.00333829 0 3.09234 0 6.88915V31.8896C0 34.3725 1.98542 36.3991 4.45195 36.4687C4.92972 38.4885 6.74677 39.9965 8.9106 39.9965H36.2143C38.7411 39.9965 40.7968 37.9408 40.7968 35.414V29.4014V8.11027C40.7968 5.6274 38.8114 3.60079 36.3449 3.53123ZM39.2032 35.4142C39.2032 37.0622 37.8624 38.403 36.2143 38.403H8.9106C7.6349 38.403 6.5439 37.5994 6.11578 36.4721C5.99076 36.143 5.92175 35.7866 5.92175 35.4142V34.8785V31.1869L15.0632 15.687C15.3415 15.2151 15.8378 14.9396 16.3824 14.9484C16.9302 14.9578 17.4136 15.2505 17.6756 15.7317L21.6116 22.959L27.3327 33.4644C27.4773 33.7299 27.7508 33.8802 28.0332 33.8802C28.162 33.8802 28.2926 33.8489 28.4136 33.783C28.8001 33.5725 28.9428 33.0886 28.7324 32.7021L26.8758 29.293C27.6909 29.3306 28.4927 29.0666 29.1312 28.537L32.7145 25.5644C33.2892 25.0876 34.1377 25.1086 34.6881 25.6132L34.8752 25.7847L36.4688 27.2455L39.2032 29.752V35.4142ZM36.4688 25.0835L39.2032 27.5901V8.11027C39.2032 6.54796 37.9981 5.2627 36.4687 5.13314L34.8751 5.12151H20.2087C19.7686 5.12151 19.4119 4.76477 19.4119 4.32469C19.4119 3.88461 19.7686 3.52788 20.2087 3.52788H34.681C34.2529 2.40055 33.1619 1.59696 31.8862 1.59696H6.88582C3.96773 1.59696 1.59363 3.97099 1.59363 6.88915V31.8896C1.59363 33.4519 2.79873 34.7371 4.32805 34.8668V30.9694V8.11027C4.32805 5.5835 6.38375 3.5278 8.91052 3.5278H13.8342C14.2743 3.5278 14.631 3.88453 14.631 4.32461C14.631 4.76469 14.2743 5.12143 13.8342 5.12143H8.91052C7.26247 5.12143 5.92167 6.46222 5.92167 8.11027V28.0499L13.6905 14.8774C14.2641 13.9048 15.281 13.3372 16.4096 13.3549C17.5386 13.3742 18.5351 13.9778 19.0752 14.9694L21.6073 19.6188V19.6189L23.0111 22.1966L25.5252 26.8131C25.7701 27.2628 26.199 27.5762 26.702 27.6728C27.2049 27.7695 27.7195 27.6374 28.1136 27.3104L31.697 24.3378C32.6022 23.5868 33.8368 23.4358 34.8751 23.87L36.4688 25.0835Z" fill="#666666"/>
<rect x="25.5" y="19.5" width="24" height="24" rx="2.5" fill="white" stroke="#979797"/>
<path d="M44.4821 29.9821H39.3214C39.1538 29.9821 39.0179 29.8462 39.0179 29.6786V24.5179C39.0179 23.6796 38.3382 23 37.5 23C36.6618 23 35.9821 23.6796 35.9821 24.5179V29.6786C35.9821 29.8462 35.8462 29.9821 35.6786 29.9821H30.5179C29.6796 29.9821 29 30.6618 29 31.5C29 32.3382 29.6796 33.0179 30.5179 33.0179H35.6786C35.8462 33.0179 35.9821 33.1538 35.9821 33.3214V38.4821C35.9821 39.3204 36.6618 40 37.5 40C38.3382 40 39.0179 39.3204 39.0179 38.4821V33.3214C39.0179 33.1538 39.1538 33.0179 39.3214 33.0179H44.4821C45.3204 33.0179 46 32.3382 46 31.5C46 30.6618 45.3204 29.9821 44.4821 29.9821Z" fill="black"/>
</svg>
