<svg xmlns="http://www.w3.org/2000/svg" width="34.4" height="22.933" viewBox="0 0 34.4 22.933">
  <g id="megaphone" transform="translate(0 -10)">
    <path id="Path_237" data-name="Path 237" d="M24.08,10a2.3,2.3,0,0,0-2.293,2.293v.726l-17.8,5.61A2,2,0,0,0,0,18.887v5.16a2,2,0,0,0,3.988.257l1.224.385A1.929,1.929,0,0,0,4.8,25.4,1.951,1.951,0,0,0,6.05,27.851l6.545,2.12h0a1.934,1.934,0,0,0,2.516-2.163l6.675,2.1v.726a2.293,2.293,0,0,0,4.587,0V12.293A2.3,2.3,0,0,0,24.08,10ZM13.96,28.365a.8.8,0,0,1-1.011.517L6.4,26.761A.8.8,0,1,1,6.9,25.234l6.546,2.12A.8.8,0,0,1,13.96,28.365ZM2.867,24.047a.86.86,0,0,1-1.72,0v-5.16a.86.86,0,0,1,1.72,0v5.16Zm1.147-.937V19.824l17.773-5.6v14.49Zm21.213,7.53a1.147,1.147,0,0,1-2.293,0V12.293a1.147,1.147,0,0,1,2.293,0Z" fill="#FE6C0B"/>
    <path id="Path_238" data-name="Path 238" d="M54.147,29h-.573a.573.573,0,1,0,0,1.147h.573a.573.573,0,1,0,0-1.147Z" transform="translate(-22.613 -8.107)" fill="#FE6C0B"/>
    <path id="Path_239" data-name="Path 239" d="M49.573,30.147h.573a.573.573,0,1,0,0-1.147h-.573a.573.573,0,1,0,0,1.147Z" transform="translate(-20.906 -8.107)" fill="#FE6C0B"/>
    <path id="Path_240" data-name="Path 240" d="M58.147,29h-.573a.573.573,0,1,0,0,1.147h.573a.573.573,0,0,0,0-1.147Z" transform="translate(-24.32 -8.107)" fill="#FE6C0B"/>
    <path id="Path_241" data-name="Path 241" d="M52.4,15.381a.572.572,0,0,0,.405-.168l.405-.405A.573.573,0,0,0,52.4,14L52,14.4a.573.573,0,0,0,.405.979Z" transform="translate(-22.113 -1.634)" fill="#FE6C0B"/>
    <path id="Path_242" data-name="Path 242" d="M55.23,12.552a.572.572,0,0,0,.405-.168l.405-.405a.573.573,0,0,0-.811-.811l-.405.405a.573.573,0,0,0,.405.979Z" transform="translate(-23.32 -0.427)" fill="#FE6C0B"/>
    <path id="Path_243" data-name="Path 243" d="M49.573,18.209a.572.572,0,0,0,.405-.168l.405-.405a.573.573,0,0,0-.811-.811l-.405.405a.573.573,0,0,0,.405.979Z" transform="translate(-20.906 -2.84)" fill="#FE6C0B"/>
    <path id="Path_244" data-name="Path 244" d="M49.936,23.078l-.544.181a.573.573,0,1,0,.362,1.088l.544-.181a.573.573,0,0,0-.362-1.088Z" transform="translate(-20.907 -5.567)" fill="#FE6C0B"/>
    <path id="Path_245" data-name="Path 245" d="M53.368,23.111a.571.571,0,0,0,.181-.03l.544-.181a.573.573,0,0,0-.363-1.088l-.544.181a.573.573,0,0,0,.182,1.117Z" transform="translate(-22.525 -5.027)" fill="#FE6C0B"/>
    <path id="Path_246" data-name="Path 246" d="M56.619,21.453a.574.574,0,0,0,.544.393.583.583,0,0,0,.181-.029l.544-.181a.574.574,0,0,0-.362-1.089l-.544.181A.574.574,0,0,0,56.619,21.453Z" transform="translate(-24.145 -4.488)" fill="#b8da01"/>
    <path id="Path_247" data-name="Path 247" d="M55.636,46.461a.573.573,0,0,0-.811.811l.405.405a.573.573,0,1,0,.811-.811Z" transform="translate(-23.32 -15.485)" fill="#FE6C0B"/>
    <path id="Path_248" data-name="Path 248" d="M52.807,43.632a.573.573,0,1,0-.811.811l.405.405a.573.573,0,0,0,.811-.811Z" transform="translate(-22.113 -14.278)" fill="#FE6C0B"/>
    <path id="Path_249" data-name="Path 249" d="M49.979,40.8a.573.573,0,1,0-.811.811l.405.405a.573.573,0,0,0,.811-.811Z" transform="translate(-20.906 -13.071)" fill="#FE6C0B"/>
    <path id="Path_250" data-name="Path 250" d="M53.187,37.017l.544.181a.573.573,0,0,0,.362-1.088l-.544-.181a.573.573,0,1,0-.362,1.088Z" transform="translate(-22.525 -11.05)" fill="#FE6C0B"/>
    <path id="Path_251" data-name="Path 251" d="M50.3,34.847l-.544-.181a.573.573,0,0,0-.363,1.088l.544.181a.573.573,0,0,0,.363-1.088Z" transform="translate(-20.907 -10.511)" fill="#FE6C0B"/>
    <path id="Path_252" data-name="Path 252" d="M57.888,37.376l-.544-.181a.574.574,0,0,0-.362,1.089l.544.181a.583.583,0,0,0,.181.029.574.574,0,0,0,.181-1.118Z" transform="translate(-24.145 -11.591)" fill="#FE6C0B"/>
  </g>
</svg>
