<?xml version="1.0" encoding="UTF-8"?>
<svg width="21px" height="21px" viewBox="0 0 21 21" version="1.1" xmlns="http://www.w3.org/2000/svg" xmlns:xlink="http://www.w3.org/1999/xlink">
    <!-- Generator: Sketch 53.2 (72643) - https://sketchapp.com -->
    <title>appointment</title>
    <desc>Created with Sketch.</desc>
    <g id="Page-1" stroke="none" stroke-width="1" fill="none" fill-rule="evenodd">
        <g id="3-Coupons-list" transform="translate(-1162.000000, -168.000000)" fill="#6D7278" fill-rule="nonzero">
            <g id="appointment" transform="translate(1162.000000, 168.000000)">
                <path d="M18.9492188,1.8046875 L16.994127,1.8046875 L16.994127,1.23046875 C16.994127,0.551988281 16.4421387,0 15.7636582,0 C15.0851777,0 14.5331895,0.551988281 14.5331895,1.23046875 L14.5331895,1.8046875 L7.64256445,1.8046875 L7.64256445,1.23046875 C7.64256445,0.551988281 7.09057617,0 6.4120957,0 C5.73361523,0 5.18162695,0.551988281 5.18162695,1.23046875 L5.18162695,1.81986328 C5.14676367,1.81022461 5.11021875,1.8046875 5.0722793,1.8046875 L3.43805273,1.8046875 C2.30725195,1.8046875 1.38727148,2.72466797 1.38727148,3.85546875 L1.38727148,10.8417832 C1.38727148,11.0683125 1.57093945,11.2519395 1.79742773,11.2519395 C2.02391602,11.2519395 2.20758398,11.0683125 2.20758398,10.8417832 L2.20758398,6.02929688 L16.994127,6.02929688 C17.2206152,6.02929688 17.4042832,5.84566992 17.4042832,5.61914062 C17.4042832,5.39261133 17.2206152,5.20898438 16.994127,5.20898438 L2.20758398,5.20898438 L2.20758398,3.85546875 C2.20758398,3.17698828 2.75957227,2.625 3.43805273,2.625 L5.0722793,2.625 C5.11021875,2.625 5.14676367,2.61942188 5.18162695,2.60982422 L5.18162695,3.13769531 C5.18162695,3.81617578 5.73361523,4.36816406 6.4120957,4.36816406 C7.09057617,4.36816406 7.64256445,3.81617578 7.64256445,3.13769531 L7.64256445,2.625 L14.5331895,2.625 L14.5331895,3.13769531 C14.5331895,3.81617578 15.0851777,4.36816406 15.7636582,4.36816406 C16.4421387,4.36816406 16.994127,3.81617578 16.994127,3.13769531 L16.994127,2.625 L18.9492188,2.625 C19.6276992,2.625 20.1796875,3.17698828 20.1796875,3.85546875 L20.1796875,19.4411602 C20.1796875,19.8483633 19.8484043,20.1796875 19.4411602,20.1796875 C19.033916,20.1796875 18.7026328,19.8483633 18.7026328,19.4411602 L18.7026328,18.380127 C18.7026328,18.1535977 18.5189648,17.9699707 18.2924766,17.9699707 L13.521498,17.9699707 C13.2950098,17.9699707 13.1113418,18.1535977 13.1113418,18.380127 C13.1113418,18.6066563 13.2950098,18.7902832 13.521498,18.7902832 L17.8823203,18.7902832 L17.8823203,19.4411602 C17.8823203,19.7082129 17.9499141,19.9597207 18.0687363,20.1796875 L1.55859375,20.1796875 C1.15151367,20.1796875 0.8203125,19.8484863 0.8203125,19.4414062 L0.8203125,18.7902832 L10.0006348,18.7902832 C10.227123,18.7902832 10.410791,18.6066563 10.410791,18.380127 C10.410791,18.1535977 10.227123,17.9699707 10.0006348,17.9699707 L5.90251758,17.9699707 C6.61922461,17.3527266 7.07433398,16.4397188 7.07433398,15.421875 C7.07433398,13.5673535 5.56557422,12.0585938 3.71105273,12.0585938 C1.85653125,12.0585938 0.347771484,13.5673535 0.347771484,15.421875 C0.347771484,16.4397187 0.802880859,17.3527266 1.51958789,17.9699707 L0.41015625,17.9699707 C0.183667969,17.9699707 0,18.1535977 0,18.380127 L0,19.4414062 C0,20.3008066 0.699193359,21 1.55859375,21 L19.4411602,21 C20.3006836,21 21,20.3007246 21,19.4411602 L21,3.85546875 C21,2.72466797 20.0800195,1.8046875 18.9492188,1.8046875 Z M6.82225195,3.13769531 C6.82225195,3.36385547 6.63825586,3.54785156 6.4120957,3.54785156 C6.18593555,3.54785156 6.00193945,3.36385547 6.00193945,3.13769531 L6.00193945,1.23046875 C6.00193945,1.00430859 6.18593555,0.8203125 6.4120957,0.8203125 C6.63825586,0.8203125 6.82225195,1.00430859 6.82225195,1.23046875 L6.82225195,3.13769531 Z M16.1738145,3.13769531 C16.1738145,3.36385547 15.9898184,3.54785156 15.7636582,3.54785156 C15.537498,3.54785156 15.353502,3.36385547 15.353502,3.13769531 L15.353502,1.23046875 C15.353502,1.00430859 15.537498,0.8203125 15.7636582,0.8203125 C15.9898184,0.8203125 16.1738145,1.00430859 16.1738145,1.23046875 L16.1738145,3.13769531 Z M1.16808398,15.421875 C1.16808398,14.0196738 2.30885156,12.8789063 3.71105273,12.8789063 C5.11325391,12.8789063 6.25402148,14.0196738 6.25402148,15.421875 C6.25402148,16.8240762 5.11325391,17.9648437 3.71105273,17.9648437 C2.30885156,17.9648437 1.16808398,16.8240762 1.16808398,15.421875 Z" id="Shape"></path>
                <path d="M19.7327605,4.58297368 C19.6300263,4.48018421 19.4874474,4.42105263 19.3421053,4.42105263 C19.1967079,4.42105263 19.0541842,4.48018421 18.9513947,4.58297368 C18.8486053,4.68576316 18.7894737,4.82834211 18.7894737,4.97368421 C18.7894737,5.11902632 18.84855,5.26160526 18.9513947,5.36439474 C19.0542395,5.46718421 19.1967079,5.52631579 19.3421053,5.52631579 C19.4874474,5.52631579 19.6300263,5.46718421 19.7327605,5.36439474 C19.83555,5.26160526 19.8947368,5.11902632 19.8947368,4.97368421 C19.8947368,4.82834211 19.8356053,4.68576316 19.7327605,4.58297368 Z" id="Path"></path>
                <path d="M11.9959184,17.8456597 C11.8931842,17.7428188 11.7506053,17.6842105 11.6052632,17.6842105 C11.4599211,17.6842105 11.3173421,17.7428188 11.2145526,17.8456597 C11.1117632,17.9490535 11.0526316,18.0911508 11.0526316,18.2365657 C11.0526316,18.3825334 11.1117079,18.5246307 11.2145526,18.6280245 C11.3173421,18.7308654 11.4599211,18.7894737 11.6052632,18.7894737 C11.7506053,18.7894737 11.8931842,18.7308654 11.9959184,18.6280245 C12.0987079,18.5246307 12.1578947,18.3819805 12.1578947,18.2365657 C12.1578947,18.0911508 12.0987632,17.9490535 11.9959184,17.8456597 Z" id="Path"></path>
                <path d="M9.39473684,12.1578947 C8.48058241,12.1578947 7.73684211,12.901635 7.73684211,13.8157895 C7.73684211,14.7299439 8.48058241,15.4736842 9.39473684,15.4736842 C10.3088913,15.4736842 11.0526316,14.7299439 11.0526316,13.8157895 C11.0526316,12.901635 10.3088913,12.1578947 9.39473684,12.1578947 Z M9.39473684,14.601108 C8.96172091,14.601108 8.60941828,14.2488054 8.60941828,13.8157895 C8.60941828,13.3827735 8.96172091,13.0304709 9.39473684,13.0304709 C9.82775277,13.0304709 10.1800554,13.3827735 10.1800554,13.8157895 C10.1800554,14.2488054 9.82775277,14.601108 9.39473684,14.601108 Z" id="Shape"></path>
                <path d="M13.8157895,12.1578947 C12.901635,12.1578947 12.1578947,12.901635 12.1578947,13.8157895 C12.1578947,14.7299439 12.901635,15.4736842 13.8157895,15.4736842 C14.7299439,15.4736842 15.4736842,14.7299439 15.4736842,13.8157895 C15.4736842,12.901635 14.7299439,12.1578947 13.8157895,12.1578947 Z M13.8157895,14.601108 C13.3827735,14.601108 13.0304709,14.2488054 13.0304709,13.8157895 C13.0304709,13.3827735 13.3827735,13.0304709 13.8157895,13.0304709 C14.2488054,13.0304709 14.601108,13.3827735 14.601108,13.8157895 C14.601108,14.2488054 14.2488054,14.601108 13.8157895,14.601108 Z" id="Shape"></path>
                <path d="M18.2368421,12.1578947 C17.3226877,12.1578947 16.5789474,12.901635 16.5789474,13.8157895 C16.5789474,14.7299439 17.3226877,15.4736842 18.2368421,15.4736842 C19.1509965,15.4736842 19.8947368,14.7299439 19.8947368,13.8157895 C19.8947368,12.901635 19.1509965,12.1578947 18.2368421,12.1578947 Z M18.2368421,14.601108 C17.8038262,14.601108 17.4515235,14.2488054 17.4515235,13.8157895 C17.4515235,13.3827735 17.8038262,13.0304709 18.2368421,13.0304709 C18.669858,13.0304709 19.0221607,13.3827735 19.0221607,13.8157895 C19.0221607,14.2488054 18.669858,14.601108 18.2368421,14.601108 Z" id="Shape"></path>
                <path d="M6.07894737,7.73684211 C5.16479294,7.73684211 4.42105263,8.48058241 4.42105263,9.39473684 C4.42105263,10.3088913 5.16479294,11.0526316 6.07894737,11.0526316 C6.9931018,11.0526316 7.73684211,10.3088913 7.73684211,9.39473684 C7.73684211,8.48058241 6.9931018,7.73684211 6.07894737,7.73684211 Z M6.07894737,10.1800554 C5.64593144,10.1800554 5.29362881,9.82775277 5.29362881,9.39473684 C5.29362881,8.96172091 5.64593144,8.60941828 6.07894737,8.60941828 C6.5119633,8.60941828 6.86426593,8.96172091 6.86426593,9.39473684 C6.86426593,9.82775277 6.5119633,10.1800554 6.07894737,10.1800554 Z" id="Shape"></path>
                <path d="M13.8157895,7.73684211 C12.901635,7.73684211 12.1578947,8.48058241 12.1578947,9.39473684 C12.1578947,10.3088913 12.901635,11.0526316 13.8157895,11.0526316 C14.7299439,11.0526316 15.4736842,10.3088913 15.4736842,9.39473684 C15.4736842,8.48058241 14.7299439,7.73684211 13.8157895,7.73684211 Z M13.8157895,10.1800554 C13.3827735,10.1800554 13.0304709,9.82775277 13.0304709,9.39473684 C13.0304709,8.96172091 13.3827735,8.60941828 13.8157895,8.60941828 C14.2488054,8.60941828 14.601108,8.96172091 14.601108,9.39473684 C14.601108,9.82775277 14.2488054,10.1800554 13.8157895,10.1800554 Z" id="Shape"></path>
                <path d="M18.2368421,7.73684211 C17.3226877,7.73684211 16.5789474,8.48058241 16.5789474,9.39473684 C16.5789474,10.3088913 17.3226877,11.0526316 18.2368421,11.0526316 C19.1509965,11.0526316 19.8947368,10.3088913 19.8947368,9.39473684 C19.8947368,8.48058241 19.1509965,7.73684211 18.2368421,7.73684211 Z M18.2368421,10.1800554 C17.8038262,10.1800554 17.4515235,9.82775277 17.4515235,9.39473684 C17.4515235,8.96172091 17.8038262,8.60941828 18.2368421,8.60941828 C18.669858,8.60941828 19.0221607,8.96172091 19.0221607,9.39473684 C19.0221607,9.82775277 18.669858,10.1800554 18.2368421,10.1800554 Z" id="Shape"></path>
                <path d="M9.39473684,7.73684211 C8.48058241,7.73684211 7.73684211,8.48058241 7.73684211,9.39473684 C7.73684211,10.3088913 8.48058241,11.0526316 9.39473684,11.0526316 C10.3088913,11.0526316 11.0526316,10.3088913 11.0526316,9.39473684 C11.0526316,8.48058241 10.3088913,7.73684211 9.39473684,7.73684211 Z M9.39473684,10.1800554 C8.96172091,10.1800554 8.60941828,9.82775277 8.60941828,9.39473684 C8.60941828,8.96172091 8.96172091,8.60941828 9.39473684,8.60941828 C9.82775277,8.60941828 10.1800554,8.96172091 10.1800554,9.39473684 C10.1800554,9.82775277 9.82775277,10.1800554 9.39473684,10.1800554 Z" id="Shape"></path>
                <path d="M4.2962928,13.3174363 C4.12990375,13.2450651 3.86025637,13.2450651 3.69382473,13.3174363 L2.30656778,13.9209987 L1.83249106,13.7147455 C1.66610201,13.6423744 1.39645464,13.6423744 1.23002299,13.7147455 C1.06367655,13.7871167 1.06367655,13.9044673 1.23002299,13.976857 L2.00535505,14.3141381 C2.0852695,14.3488873 2.19359703,14.3684211 2.30656778,14.3684211 C2.41953853,14.3684211 2.52786606,14.3488873 2.60778052,14.3141381 L4.2962928,13.5795292 C4.46263924,13.507158 4.46263924,13.3898074 4.2962928,13.3174363 Z" id="Path"></path>
            </g>
        </g>
    </g>
</svg>