<svg width="21" height="21" viewBox="0 0 21 21" fill="none" xmlns="http://www.w3.org/2000/svg">
<path fill-rule="evenodd" clip-rule="evenodd" d="M19.1883 1.13551L19.9417 1.94393C20.6255 2.67757 21 3.65421 21 4.69159C21 5.72897 20.6211 6.70561 19.9374 7.43925L14.929 12.8131C14.8157 12.9393 14.6633 13 14.5152 13C14.3672 13 14.2147 12.9346 14.1015 12.8131C13.8707 12.5654 13.8707 12.1682 14.1015 11.9206L19.1099 6.54673C20.0637 5.52336 20.0637 3.85981 19.1099 2.83645L18.3564 2.02804C17.4027 1.00467 15.8523 1.00467 14.8985 2.02804L9.89012 7.40187C8.93635 8.42523 8.93635 10.0888 9.89012 11.1121C10.1209 11.3598 10.1209 11.757 9.89012 12.0047C9.6593 12.2523 9.28911 12.2523 9.05829 12.0047C7.64724 10.4907 7.64724 8.02337 9.05829 6.50935L14.0667 1.13551C15.4777 -0.378505 17.7772 -0.378505 19.1883 1.13551ZM11.1105 9.88685C10.8798 9.63917 10.8798 9.24193 11.1105 8.99425C11.3413 8.74656 11.7157 8.74656 11.9421 8.99425C13.3526 10.5084 13.3526 12.9759 11.9421 14.4901L6.93537 19.8644C6.23007 20.6215 5.30275 21 4.37542 21C3.44809 21 2.52076 20.6215 1.81547 19.8644L1.06229 19.0559C0.374414 18.3222 0 17.3455 0 16.308C0 15.2705 0.378768 14.2938 1.06229 13.5601L6.06899 8.18576C6.29973 7.93808 6.66979 7.93808 6.90054 8.18576C7.13128 8.43345 7.13128 8.83068 6.90054 9.07837L1.89384 14.4527C0.940389 15.4761 0.940389 17.1398 1.89384 18.1633L2.64702 18.9718C3.60047 19.9952 5.15037 19.9952 6.10382 18.9718L11.1105 13.5975C12.064 12.574 12.064 10.9103 11.1105 9.88685Z" fill="#666666"/>
</svg>
