<?xml version="1.0" encoding="UTF-8"?>
<svg width="20px" height="20px" viewBox="0 0 20 20" version="1.1" xmlns="http://www.w3.org/2000/svg" xmlns:xlink="http://www.w3.org/1999/xlink">
    <!-- Generator: Sketch 53.2 (72643) - https://sketchapp.com -->
    <title>Combined Shape</title>
    <desc>Created with Sketch.</desc>
    <g id="Symbols" stroke="none" stroke-width="1" fill="none" fill-rule="evenodd">
        <g id="Header" transform="translate(-856.000000, -80.000000)" fill="#FFFFFF" fill-rule="nonzero">
            <g id="Nav">
                <g transform="translate(23.000000, 80.000000)">
                    <path d="M852.660391,4.030625 C853.108672,4.47890625 853.108672,5.2375 852.660352,5.68582031 L849.694844,8.65132812 C849.246602,9.09960937 848.487969,9.09960937 848.039688,8.65132812 L846.453477,7.06511719 L844.177617,9.34097656 L847.039688,12.2030469 C847.108633,12.2720312 847.143125,12.4099609 847.143125,12.5133984 L846.07418,18.2720312 C845.970742,18.6858594 845.694883,19.0306641 845.350039,19.2030859 C845.143125,19.3065234 844.93625,19.3410156 844.729336,19.3410156 C844.522422,19.3410156 844.350039,19.3065234 844.143125,19.2030859 C843.556914,18.9272266 843.21207,18.2720312 843.384492,17.5823828 L844.005195,13.5823828 L841.93625,11.4099609 L839.453477,14.0651172 C839.384531,14.1340625 839.315547,14.1685547 839.212109,14.1685547 L834.384492,14.1685547 C834.005195,14.1685547 833.660352,13.9961328 833.384492,13.7547656 C833.108633,13.4789062 832.970703,13.0995703 833.005195,12.7202734 C833.039688,11.9961328 833.660391,11.4099219 834.453477,11.4099219 L837.694844,11.4099219 L842.936133,5.54789062 L842.143047,5.54789062 L839.90168,7.9271875 C839.694766,8.16855469 839.384453,8.30648437 839.039609,8.30648437 C838.694766,8.30648437 838.384453,8.16855469 838.177539,7.9271875 C837.76375,7.47890625 837.798242,6.7203125 838.246523,6.23753906 L841.418945,3.20304687 C841.453438,3.16855469 841.522422,3.1340625 841.625859,3.1340625 L845.384492,3.1340625 C845.729336,3.1340625 846.039688,3.27199219 846.281055,3.47890625 L848.79832,5.82371094 C848.901797,5.92714844 849.039727,5.92714844 849.143164,5.82371094 L850.93625,3.99613281 C851.384531,3.54785156 852.177617,3.54785156 852.625898,3.99613281 L852.660391,4.030625 Z M852.177617,5.20304687 C852.350039,5.030625 852.350039,4.72027344 852.177656,4.54789062 L852.143164,4.51339844 C851.970742,4.34097656 851.625938,4.34097656 851.453516,4.51339844 L849.660391,6.34097656 C849.315547,6.68582031 848.729336,6.7203125 848.350039,6.37546875 L845.832813,4.030625 C845.729375,3.9271875 845.556953,3.85820312 845.419023,3.85820312 L841.763867,3.85820312 L838.694883,6.78921875 C838.487969,6.99613281 838.487969,7.30644531 838.660391,7.51335937 C838.763828,7.61679687 838.901758,7.68578125 839.039688,7.68578125 C839.177617,7.68578125 839.315547,7.61679687 839.384531,7.51335937 L841.729375,5.03058594 C841.79832,4.96164062 841.901758,4.92714844 841.970742,4.92714844 L843.694883,4.92714844 C843.832813,4.92714844 843.970742,4.99613281 844.005234,5.1340625 C844.039688,5.27199219 844.039688,5.40992187 843.93625,5.51335937 L838.07418,12.0650781 C838.005234,12.0650781 837.93625,12.0995703 837.832813,12.0995703 L834.453516,12.0995703 C834.039727,12.0995703 833.694883,12.3754297 833.694883,12.7547266 C833.694883,12.9616016 833.763867,13.1340234 833.867305,13.2719531 C834.005234,13.4098828 834.177617,13.4788672 834.384531,13.4788672 L839.07418,13.4788672 L841.694883,10.6857812 C841.729336,10.6168359 841.832813,10.5823437 841.93625,10.5823437 C842.039688,10.5823437 842.108633,10.6167969 842.177617,10.6857812 L844.625898,13.2375 C844.694844,13.3064453 844.729336,13.4099219 844.729336,13.5133594 L844.07418,17.7202734 C844.005195,18.0995703 844.143125,18.4444141 844.453477,18.5823437 C844.660391,18.6857812 844.867266,18.6513281 845.039688,18.5823437 C845.21207,18.4789062 845.35,18.3064844 845.418984,18.1340625 L846.453477,12.5823437 L843.487969,9.61683594 C843.384531,9.51339844 843.350039,9.44441406 843.350039,9.34097656 C843.350039,9.23753906 843.384492,9.16859375 843.453477,9.09960937 L846.212109,6.34097656 C846.350039,6.20304687 846.556953,6.20304687 846.694883,6.34097656 L848.522461,8.16855469 C848.694883,8.34097656 849.005195,8.34097656 849.212109,8.16855469 L852.177617,5.20304687 Z M848.867266,4.16855469 C847.729336,4.16855469 846.798281,3.23757812 846.798281,2.09960937 C846.798281,0.961640625 847.729336,0.030625 848.867266,0.030625 C850.005195,0.030625 850.93625,0.961601562 850.93625,2.09957031 C850.93625,3.23753906 850.005195,4.16855469 848.867266,4.16855469 Z M848.867266,0.720273437 C848.108672,0.720273437 847.487969,1.34097656 847.487969,2.09957031 C847.487969,2.85816406 848.108672,3.47886719 848.867266,3.47886719 C849.625859,3.47886719 850.246563,2.85820312 850.246563,2.09957031 C850.246563,1.34097656 849.625898,0.720273437 848.867266,0.720273437 Z" id="Combined-Shape"></path>
                </g>
            </g>
        </g>
    </g>
</svg>