<?xml version="1.0" encoding="UTF-8"?>
<svg width="10px" height="8px" viewBox="0 0 10 8" version="1.1" xmlns="http://www.w3.org/2000/svg" xmlns:xlink="http://www.w3.org/1999/xlink">
    <!-- Generator: Sketch 53.2 (72643) - https://sketchapp.com -->
    <title>Path</title>
    <desc>Created with Sketch.</desc>
    <g id="Page-1" stroke="none" stroke-width="1" fill="none" fill-rule="evenodd">
        <g id="3-Coupons-list" transform="translate(-399.000000, -214.000000)" fill="#333333" fill-rule="nonzero">
            <g id="pending-tab" transform="translate(253.000000, 203.000000)">
                <path d="M146.115385,15.4 C146.038462,15.32 146,15.2 146,15.12 C146,15.04 146.038462,14.92 146.115385,14.84 L146.653846,14.28 C146.807692,14.12 147.038462,14.12 147.192308,14.28 L147.230769,14.32 L149.346154,16.68 C149.423077,16.76 149.538462,16.76 149.615385,16.68 L154.769231,11.12 L154.807692,11.12 L154.807692,11.12 C154.961538,10.96 155.192308,10.96 155.346154,11.12 L155.884615,11.68 C156.038462,11.84 156.038462,12.08 155.884615,12.24 L155.884615,12.24 L149.730769,18.88 C149.653846,18.96 149.576923,19 149.461538,19 C149.346154,19 149.269231,18.96 149.192308,18.88 L146.192308,15.52 L146.115385,15.4 Z" id="Path"></path>
            </g>
        </g>
    </g>
</svg>