<svg xmlns="http://www.w3.org/2000/svg" width="24.678" height="24.678" viewBox="0 0 24.678 24.678">
  <g id="teamwork" transform="translate(0)">
    <g id="Group_404" data-name="Group 404" transform="translate(9.871)">
      <g id="Group_403" data-name="Group 403">
        <path id="Path_225" data-name="Path 225" d="M194.468,0a2.468,2.468,0,1,0,2.468,2.468A2.468,2.468,0,0,0,194.468,0Zm0,4.113a1.645,1.645,0,1,1,1.645-1.645A1.645,1.645,0,0,1,194.468,4.113Z" transform="translate(-192)" fill="#33333"/>
      </g>
    </g>
    <g id="Group_406" data-name="Group 406" transform="translate(8.637 5.347)">
      <g id="Group_405" data-name="Group 405">
        <path id="Path_226" data-name="Path 226" d="M174.17,104h-1.816l-.652.652-.652-.652h-1.815A1.234,1.234,0,0,0,168,105.234v3.29a1.234,1.234,0,0,0,1.234,1.234h4.936a1.234,1.234,0,0,0,1.234-1.234v-3.29A1.234,1.234,0,0,0,174.17,104Zm.411,4.524a.411.411,0,0,1-.411.411h-4.936a.411.411,0,0,1-.411-.411v-3.29a.411.411,0,0,1,.411-.411h1.475l.993.993.993-.993h1.475a.411.411,0,0,1,.411.411Z" transform="translate(-168 -104)" fill="#333"/>
      </g>
    </g>
    <g id="Group_408" data-name="Group 408" transform="translate(18.509 13.573)">
      <g id="Group_407" data-name="Group 407">
        <path id="Path_227" data-name="Path 227" d="M362.468,264a2.468,2.468,0,1,0,2.468,2.468A2.468,2.468,0,0,0,362.468,264Zm0,4.113a1.645,1.645,0,1,1,1.645-1.645A1.645,1.645,0,0,1,362.468,268.113Z" transform="translate(-360 -264)" fill="#333"/>
      </g>
    </g>
    <g id="Group_410" data-name="Group 410" transform="translate(17.275 18.92)">
      <g id="Group_409" data-name="Group 409">
        <path id="Path_228" data-name="Path 228" d="M342.17,368h-1.815l-.652.652-.652-.652h-1.816A1.234,1.234,0,0,0,336,369.234v3.29a1.234,1.234,0,0,0,1.234,1.234h4.936a1.234,1.234,0,0,0,1.234-1.234v-3.29A1.234,1.234,0,0,0,342.17,368Zm.411,4.524a.411.411,0,0,1-.411.411h-4.936a.411.411,0,0,1-.411-.411v-3.29a.411.411,0,0,1,.411-.411h1.475l.993.993.993-.993h1.475a.411.411,0,0,1,.411.411Z" transform="translate(-336 -368)" fill="#333"/>
      </g>
    </g>
    <g id="Group_412" data-name="Group 412" transform="translate(1.234 13.573)">
      <g id="Group_411" data-name="Group 411">
        <path id="Path_229" data-name="Path 229" d="M26.468,264a2.468,2.468,0,1,0,2.468,2.468A2.47,2.47,0,0,0,26.468,264Zm0,4.113a1.645,1.645,0,1,1,1.645-1.645A1.645,1.645,0,0,1,26.468,268.113Z" transform="translate(-24 -264)" fill="#333"/>
      </g>
    </g>
    <g id="Group_414" data-name="Group 414" transform="translate(0 18.92)">
      <g id="Group_413" data-name="Group 413">
        <path id="Path_230" data-name="Path 230" d="M6.17,368H4.354l-.652.652L3.049,368H1.234A1.234,1.234,0,0,0,0,369.234v3.29a1.234,1.234,0,0,0,1.234,1.234H6.17A1.234,1.234,0,0,0,7.4,372.524v-3.29A1.234,1.234,0,0,0,6.17,368Zm.411,4.524a.411.411,0,0,1-.411.411H1.234a.411.411,0,0,1-.411-.411v-3.29a.411.411,0,0,1,.411-.411H2.709l.993.993.993-.993H6.17a.411.411,0,0,1,.411.411Z" transform="translate(0 -368)" fill="#333"/>
      </g>
    </g>
    <g id="Group_416" data-name="Group 416" transform="translate(4.108 9.049)">
      <g id="Group_415" data-name="Group 415">
        <path id="Path_231" data-name="Path 231" d="M83.488,176.122a.411.411,0,0,0-.582,0L80.027,179a.411.411,0,0,0,.572.592l.01-.01,2.879-2.879A.411.411,0,0,0,83.488,176.122Z" transform="translate(-79.902 -176.002)" fill="#333"/>
      </g>
    </g>
    <g id="Group_418" data-name="Group 418" transform="translate(16.869 9.054)">
      <g id="Group_417" data-name="Group 417">
        <path id="Path_232" data-name="Path 232" d="M331.675,179.092l-2.879-2.879a.411.411,0,0,0-.582.582l2.879,2.879a.411.411,0,1,0,.582-.582Z" transform="translate(-328.099 -176.098)" fill="#333"/>
      </g>
    </g>
    <g id="Group_420" data-name="Group 420" transform="translate(8.226 21.388)">
      <g id="Group_419" data-name="Group 419">
        <path id="Path_233" data-name="Path 233" d="M167.815,416h-7.4a.411.411,0,1,0,0,.823h7.4a.411.411,0,0,0,0-.823Z" transform="translate(-160 -416)" fill="#333"/>
      </g>
    </g>
  </g>
</svg>
