<?xml version="1.0" encoding="UTF-8"?>
<svg width="15px" height="15px" viewBox="0 0 15 15" version="1.1" xmlns="http://www.w3.org/2000/svg" xmlns:xlink="http://www.w3.org/1999/xlink">
    <!-- Generator: Sketch 53.2 (72643) - https://sketchapp.com -->
    <title>Combined Shape</title>
    <desc>Created with Sketch.</desc>
    <g id="Page-1" stroke="none" stroke-width="1" fill="none" fill-rule="evenodd">
        <g id="19-Communities" transform="translate(-488.000000, -1666.000000)" fill="#FE6C0B" fill-rule="nonzero">
            <g id="post" transform="translate(291.000000, 1278.000000)">
                <g id="Group-3" transform="translate(11.000000, 385.000000)">
                    <path d="M190.300699,8.70454545 C190.184895,8.70454545 190.090909,8.59279545 190.090909,8.45454545 C190.090909,8.31629545 190.184895,8.20454545 190.300699,8.20454545 L192.608392,8.20454545 C192.724196,8.20454545 192.818182,8.31629545 192.818182,8.45454545 C192.818182,8.59279545 192.724196,8.70454545 192.608392,8.70454545 L190.300699,8.70454545 Z M193.944664,10.9318182 C194.075573,10.9318182 194.181818,11.0435682 194.181818,11.1818182 C194.181818,11.3200682 194.075573,11.4318182 193.944664,11.4318182 L188.964427,11.4318182 C188.833518,11.4318182 188.727273,11.3200682 188.727273,11.1818182 C188.727273,11.0435682 188.833518,10.9318182 188.964427,10.9318182 L193.944664,10.9318182 Z M193.944664,12.2954545 C194.075573,12.2954545 194.181818,12.4072045 194.181818,12.5454545 C194.181818,12.6837045 194.075573,12.7954545 193.944664,12.7954545 L188.964427,12.7954545 C188.833518,12.7954545 188.727273,12.6837045 188.727273,12.5454545 C188.727273,12.4072045 188.833518,12.2954545 188.964427,12.2954545 L193.944664,12.2954545 Z M197.306,3 C199.343,3 201,4.68471354 201,6.75578262 L201,9.63921509 C201,11.3737482 199.75425,12.9250165 198.0785,13.3189975 C197.6055,14.8499314 196.20575,15.9632454 194.556,15.9632454 L194.19525,15.9632454 C192.77975,15.9632454 191.4645,16.5077017 190.492,17.4964669 L190.11175,17.8830766 C190.03675,17.9595852 189.943,18 189.84925,18 C189.80675,18 189.76425,17.9913578 189.7235,17.9743277 C189.58575,17.9163744 189.5,17.7735245 189.5,17.6016979 L189.5,15.9546032 C187.57825,15.819633 186,14.1466118 186,12.1812821 L186,9.29759545 C186,7.4934167 187.25775,5.98332571 188.9285,5.62365919 C189.411,4.07162829 190.832,3 192.444,3 L197.306,3 Z M194.556,15.4546286 C195.976,15.4546286 197.18125,14.4994154 197.5955,13.1835189 L197.63375,13.0399065 C197.66725,12.9151035 197.692,12.7903004 197.711,12.6660058 C197.715,12.6388084 197.72,12.6118652 197.72325,12.5841594 C197.72875,12.5404402 197.73275,12.4972294 197.7365,12.4537644 C197.74375,12.3637843 197.75,12.2732957 197.75,12.1812821 L197.75,9.29759545 C197.75,7.50714249 196.31725,6.05017539 194.556,6.05042957 L189.694,6.05042957 C189.676,6.05042957 189.6565,6.0527172 189.63825,6.05297138 C189.56725,6.05424229 189.497,6.058055 189.42725,6.06390117 C189.34225,6.07178079 189.2545,6.08321895 189.16225,6.09897819 L189.03225,6.12109196 C187.58775,6.43195567 186.5,7.73768492 186.5,9.29759545 L186.5,12.1810279 C186.5,13.8708251 187.85,15.3077119 189.5,15.4414112 L189.5,14.6529409 C189.5,14.5123786 189.612,14.3987596 189.75,14.3987596 C189.888,14.3987596 190,14.5123786 190,14.6529409 L190,15.4546286 L190,15.7088099 L190,17.2776168 L190.13825,17.1368004 C191.20525,16.0522088 192.646,15.4546286 194.19525,15.4546286 L194.556,15.4546286 Z M200.5,9.63921509 L200.5,6.75578262 C200.5,4.96532967 199.06725,3.50836256 197.306,3.50861675 L192.444,3.50861675 C191.13025,3.50861675 189.961,4.33063901 189.48175,5.54918408 C189.549,5.54460882 189.61475,5.54282955 189.67975,5.54257536 C189.68475,5.54257536 189.68925,5.54181282 189.694,5.54181282 L194.556,5.54181282 C196.33825,5.54181282 197.82975,6.83178283 198.17475,8.54166031 C198.224,8.78592852 198.25,9.0388389 198.25,9.29759545 L198.25,12.1810279 C198.25,12.2895633 198.24375,12.3991154 198.23375,12.5086676 C198.22825,12.573738 198.2195,12.6375375 198.21075,12.7015912 C198.20775,12.7216715 198.20675,12.7417518 198.2035,12.7618321 C199.53625,12.3373494 200.5,11.0575466 200.5,9.63921509 Z" id="Combined-Shape"></path>
                </g>
            </g>
        </g>
    </g>
</svg>