<svg xmlns="http://www.w3.org/2000/svg" width="31.346" height="18.412" viewBox="0 0 31.346 18.412">
  <g id="voucher" transform="translate(0)">
    <path id="Path_210" data-name="Path 210" d="M30.731,5.4a.615.615,0,0,0,.615-.615V.615A.615.615,0,0,0,30.731,0H.615A.615.615,0,0,0,0,.615v4.17A.615.615,0,0,0,.615,5.4a3.806,3.806,0,0,1,0,7.613A.615.615,0,0,0,0,13.627V17.8a.615.615,0,0,0,.615.615H6.082a.615.615,0,1,0,0-1.23H1.23V14.2a5.036,5.036,0,0,0,0-10V1.23H22.347V2.459a.615.615,0,0,0,1.23,0V1.23h6.539V4.207a5.036,5.036,0,0,0,0,10v2.978H23.577v-1.23a.615.615,0,0,0-1.23,0v1.23H11.13a.615.615,0,1,0,0,1.23h19.6a.615.615,0,0,0,.615-.615v-4.17a.615.615,0,0,0-.615-.615,3.806,3.806,0,1,1,0-7.613Zm0,0" fill="#FE6C0B"/>
    <path id="Path_211" data-name="Path 211" d="M365.634,109.321a.615.615,0,0,0,.615-.615v-4.5a.615.615,0,1,0-1.23,0v4.5A.615.615,0,0,0,365.634,109.321Zm0,0" transform="translate(-342.672 -97.252)" fill="#FE6C0B"/>
    <path id="Path_212" data-name="Path 212" d="M150.679,72.97a2.417,2.417,0,1,0-1.707.706A2.4,2.4,0,0,0,150.679,72.97Zm-2.891-1.707a1.184,1.184,0,1,1,.347.837A1.176,1.176,0,0,1,147.788,71.263Zm0,0" transform="translate(-137.586 -64.635)" fill="#FE6C0B"/>
    <path id="Path_213" data-name="Path 213" d="M237.405,158.609a2.414,2.414,0,1,0,3.413,0A2.416,2.416,0,0,0,237.405,158.609Zm2.544.87a1.185,1.185,0,1,1-.837-.346A1.185,1.185,0,0,1,239.949,159.478Zm0,0" transform="translate(-222.208 -148.236)" fill="#FE6C0B"/>
    <path id="Path_214" data-name="Path 214" d="M169.65,98.3l6.4-6.4a.615.615,0,0,0-.87-.87l-6.4,6.4a.615.615,0,1,0,.87.87Zm0,0" transform="translate(-158.28 -85.282)" fill="#FE6C0B"/>
    <path id="Path_215" data-name="Path 215" d="M130.975,280.555a.615.615,0,1,0,.6.5A.62.62,0,0,0,130.975,280.555Zm0,0" transform="translate(-122.38 -263.378)" fill="#FE6C0B"/>
  </g>
</svg>
