<svg xmlns="http://www.w3.org/2000/svg" width="35" height="29" viewBox="0 0 35 29"><g transform="translate(-158 -647.053)"><g transform="translate(158 647.053)" fill="none" stroke="#FE6C0B" stroke-width="1"><rect width="35" height="29" rx="3" stroke="none"/><rect x="0.5" y="0.5" width="34" height="28" rx="2.5" fill="none"/></g><path d="M49.341,34.4a.824.824,0,0,0-1.08.008l-2.25,2.014v-.264a.559.559,0,1,0-1.118,0v1.265l-.932.834a.559.559,0,0,0,.746.833l4.1-3.67,4.1,3.67a.559.559,0,1,0,.746-.833Z" transform="translate(117.329 616.522)" fill="#FE6C0B"/><path d="M68.055,119.52a.559.559,0,0,0-.559.559v3.914H61.905v-3.914a.559.559,0,1,0-1.118,0v4.269a.773.773,0,0,0,.783.763h6.262a.775.775,0,0,0,.783-.765v-4.267A.559.559,0,0,0,68.055,119.52Z" transform="translate(101.435 536.794)" fill="#FE6C0B"/><path d="M64.7,221.92a3.914,3.914,0,1,0,3.914,3.914A3.914,3.914,0,0,0,64.7,221.92Zm-2.8,3.914a2.8,2.8,0,0,1,2.236-2.74v2.423l-2.069,1.241A2.757,2.757,0,0,1,61.905,225.834Zm.744,1.882,1.965-1.179,1.626,1.626A2.769,2.769,0,0,1,62.649,227.716Zm4.381-.344L65.26,225.6v-2.508a2.79,2.79,0,0,1,1.771,4.278Z" transform="translate(101.435 441.103)" fill="#FE6C0B"/><path d="M254.523,42.014V40.1a.882.882,0,0,0-.882-.882h-1.591a.882.882,0,0,0-.882.882v1.914h-1.118V38.509a.968.968,0,0,0-.967-.967h-1.42a.968.968,0,0,0-.967.967v3.506h-1.118v-6.15a1.118,1.118,0,0,0-1.118-1.118h-1.118a1.118,1.118,0,0,0-1.118,1.118v6.15h-.559a.559.559,0,0,1-.559-.559V34.746a.559.559,0,0,0-1.118,0v6.709a1.677,1.677,0,0,0,1.677,1.677h12.859a.559.559,0,1,0,0-1.118Zm-10.064,0h-1.118v-6.15h1.118Zm4.473,0h-1.118V38.66h1.118Zm4.473,0h-1.118V40.337h1.118v1.677Z" transform="translate(-66.024 616.536)" fill="#FE6C0B"/><path d="M254.523,212.681H241.664a.559.559,0,0,1-.559-.559v-.887l1.841-1.841a.571.571,0,0,1,.791,0l.655.655a1.677,1.677,0,0,0,2.372,0l2.333-2.333a.571.571,0,0,1,.791,0l.655.656a1.681,1.681,0,0,0,2.372,0l2-2a.559.559,0,0,0-.791-.791l-2,2a.559.559,0,0,1-.791,0l-.655-.655a1.718,1.718,0,0,0-2.372,0l-2.333,2.333a.559.559,0,0,1-.791,0l-.655-.655a1.718,1.718,0,0,0-2.372,0l-1.051,1.051v-4.241a.559.559,0,0,0-1.118,0v6.709a1.677,1.677,0,0,0,1.677,1.677h12.859a.559.559,0,1,0,0-1.118Z" transform="translate(-66.024 457.051)" fill="#FE6C0B"/></g></svg>