<?xml version="1.0" encoding="UTF-8"?>
<svg width="18px" height="18px" viewBox="0 0 18 18" version="1.1" xmlns="http://www.w3.org/2000/svg" xmlns:xlink="http://www.w3.org/1999/xlink">
    <!-- Generator: Sketch 53.2 (72643) - https://sketchapp.com -->
    <title>status/deactivate</title>
    <desc>Created with Sketch.</desc>
    <g id="status/deactivate" stroke="none" stroke-width="1" fill="none" fill-rule="evenodd">
        <rect id="Rectangle" x="0" y="0" width="18" height="18"></rect>
        <g id="deactivated" fill="#035B96" fill-rule="nonzero">
            <path d="M9,18 C4.03733827,18 0,13.9626617 0,9 C0,4.03733827 4.03733827,0 9,0 C13.9626617,0 18,4.03733827 18,9 C18,13.9626617 13.9626617,18 9,18 Z M9,1.28567503 C4.74636839,1.28567503 1.28567503,4.74636839 1.28567503,9 C1.28567503,13.2536316 4.74636839,16.714325 9,16.714325 C13.2536316,16.714325 16.714325,13.2536316 16.714325,9 C16.714325,4.74636839 13.2536316,1.28567503 9,1.28567503 Z" id="Shape"></path>
            <path d="M12.214325,12.8571625 C12.0498047,12.8571625 11.8852844,12.7944031 11.7597656,12.668747 L5.33125304,6.24023438 C5.08007813,5.98905946 5.08007813,5.58229064 5.33125304,5.33125304 C5.58229064,5.08021545 5.98919678,5.08007813 6.24023438,5.33125304 L12.668747,11.7597656 C12.9199219,12.0109405 12.9199219,12.4177094 12.668747,12.668747 C12.5432281,12.7944031 12.3788452,12.8571625 12.214325,12.8571625 L12.214325,12.8571625 Z" id="Path"></path>
            <path d="M5.78567503,12.8571625 C5.62115479,12.8571625 5.45677186,12.7944031 5.33125304,12.668747 C5.08007813,12.4177094 5.08007813,12.0108032 5.33125304,11.7597656 L11.7597656,5.33125304 C12.0109405,5.08007813 12.4177094,5.08007813 12.668747,5.33125304 C12.9197846,5.58229064 12.9199219,5.98919678 12.668747,6.24023438 L6.24023438,12.668747 C6.11471559,12.7944031 5.95019531,12.8571625 5.78567503,12.8571625 L5.78567503,12.8571625 Z" id="Path"></path>
        </g>
    </g>
</svg>