<?xml version="1.0" standalone="no"?>
<!DOCTYPE svg PUBLIC "-//W3C//DTD SVG 20010904//EN"
 "http://www.w3.org/TR/2001/REC-SVG-20010904/DTD/svg10.dtd">
<svg version="1.0" xmlns="http://www.w3.org/2000/svg"
 width="512.000000pt" height="512.000000pt" viewBox="0 0 512.000000 512.000000"
 preserveAspectRatio="xMidYMid meet">
<metadata>
Created by potrace 1.16, written by Peter Selinger 2001-2019
</metadata>
<g transform="translate(0.000000,512.000000) scale(0.100000,-0.100000)"
fill="#000000" stroke="none">
<path d="M1945 5105 c-154 -42 -262 -133 -327 -275 -25 -55 -41 -131 -53 -242
l-6 -57 -423 -3 -422 -3 -36 -24 c-45 -31 -77 -79 -85 -125 l-6 -36 -98 0 -99
0 0 -205 0 -205 2170 0 2170 0 0 205 0 205 -99 0 -98 0 -6 36 c-8 46 -40 94
-85 125 l-36 24 -422 3 -423 3 -6 57 c-12 111 -28 187 -53 242 -56 122 -141
203 -267 256 l-70 29 -585 2 c-471 2 -595 -1 -635 -12z m1117 -406 c45 -12 62
-41 72 -116 l7 -53 -581 0 -581 0 7 53 c9 72 28 105 67 116 45 13 962 14 1009
0z"/>
<path d="M782 2118 l3 -1633 28 -80 c52 -149 154 -269 287 -339 133 -70 50
-66 1460 -66 1410 0 1327 -4 1460 66 133 70 235 190 287 339 l28 80 3 1633 2
1632 -1780 0 -1780 0 2 -1632z m1178 -148 l0 -1180 -190 0 -190 0 0 1180 0
1180 190 0 190 0 0 -1180z m790 0 l0 -1180 -190 0 -190 0 0 1180 0 1180 190 0
190 0 0 -1180z m790 0 l0 -1180 -190 0 -190 0 0 1180 0 1180 190 0 190 0 0
-1180z"/>
</g>
</svg>
