<?xml version="1.0" encoding="UTF-8"?>
<svg width="18px" height="18px" viewBox="0 0 18 18" version="1.1" xmlns="http://www.w3.org/2000/svg" xmlns:xlink="http://www.w3.org/1999/xlink">
    <!-- Generator: Sketch 53.2 (72643) - https://sketchapp.com -->
    <title>status/delete</title>
    <desc>Created with Sketch.</desc>
    <g id="status/delete" stroke="none" stroke-width="1" fill="none" fill-rule="evenodd">
        <rect id="Rectangle" x="0" y="0" width="18" height="18"></rect>
        <g id="deactivated" fill="#E02020" fill-rule="nonzero">
            <path d="M9,18 C4.03733827,18 0,13.9626617 0,9 C0,4.03733827 4.03733827,0 9,0 C13.9626617,0 18,4.03733827 18,9 C18,13.9626617 13.9626617,18 9,18 Z M9,1.28567503 C4.74636839,1.28567503 1.28567503,4.74636839 1.28567503,9 C1.28567503,13.2536316 4.74636839,16.714325 9,16.714325 C13.2536316,16.714325 16.714325,13.2536316 16.714325,9 C16.714325,4.74636839 13.2536316,1.28567503 9,1.28567503 Z" id="Shape"></path>
        </g>
        <path d="M7.65432758,5.46051954 L7.65432758,4.63500023 C7.65432758,4.28485708 7.93918466,4 8.28932782,4 L10.7785591,4 C11.1287023,4 11.4135594,4.28485708 11.4135594,4.63500023 L11.4135594,5.46051954 L14.067887,5.46051954 L14.067887,6.22251982 L13.2610452,6.22251982 L12.6311182,13.3805799 C12.6139796,13.5773122 12.4491304,13.72831 12.2516381,13.72831 L6.80340447,13.72831 C6.60593117,13.72831 6.44119592,13.5774262 6.42392437,13.3807129 L5.7940163,6.22251982 L5,6.22251982 L5,5.46051954 L7.65432758,5.46051954 Z M8.41632786,5.46051954 L10.6515591,5.46051954 L10.6515591,4.76200028 L8.41632786,4.76200028 L8.41632786,5.46051954 Z M11.3879086,7.35410088 L11.2228123,11.8625265 L10.461306,11.8347097 L10.6264023,7.32616999 L11.3879086,7.35410088 Z M9.15294334,7.34013544 L9.91494362,7.34013544 L9.91494362,11.8486941 L9.15294334,11.8486941 L9.15294334,7.34013544 Z M8.60644792,11.8345957 L7.84496066,11.8625265 L7.6798454,7.35398688 L8.44135166,7.32603699 L8.60644792,11.8345957 Z M11.902654,12.9663097 L12.4961379,6.22251982 L6.55894268,6.22251982 L7.15229358,12.9663097 L11.902654,12.9663097 Z" id="Combined-Shape" fill="#E02020" fill-rule="nonzero"></path>
    </g>
</svg>