<?xml version="1.0" encoding="UTF-8"?>
<svg width="26px" height="26px" viewBox="0 0 26 26" version="1.1" xmlns="http://www.w3.org/2000/svg" xmlns:xlink="http://www.w3.org/1999/xlink">
    <!-- Generator: Sketch 53.2 (72643) - https://sketchapp.com -->
    <title>distance</title>
    <desc>Created with Sketch.</desc>
    <g id="Page-1" stroke="none" stroke-width="1" fill="none" fill-rule="evenodd">
        <g id="Edit-challenge" transform="translate(-685.000000, -3650.000000)" fill="#000000" fill-rule="nonzero">
            <g id="challenge-edit" transform="translate(248.000000, 454.000000)">
                <g id="Group-6" transform="translate(18.000000, 2602.000000)">
                    <g id="show-map" transform="translate(0.000000, 478.000000)">
                        <g id="Group-9" transform="translate(1.000000, 105.000000)">
                            <path d="M422.333316,28.3333164 C422.930555,28.3333164 423.416633,28.8194961 423.416633,29.4166836 C423.416633,30.0138711 422.930504,30.5 422.333316,30.5 C421.736129,30.5 421.25,30.0138203 421.25,29.4166328 C421.25,28.8194453 421.736129,28.3333164 422.333316,28.3333164 Z M427.75,14.25 C428.347188,14.25 428.833316,14.7361289 428.833316,15.3333164 C428.833316,15.9305039 428.347188,16.4166328 427.75,16.4166328 C427.152812,16.4166328 426.666684,15.9305039 426.666684,15.3333164 C426.666684,14.7361289 427.152812,14.25 427.75,14.25 Z M439.666684,16.4166836 C442.056043,16.4166836 444,18.3606406 444,20.75 C444,22.9637578 440.496094,27.5996289 440.09675,28.1213047 C440.048102,28.1847812 439.985336,28.2333789 439.916375,28.2694336 C439.913277,28.2710586 439.912059,28.2747148 439.908961,28.2762891 L439.906625,28.277457 L439.906371,28.2775078 L438.939852,28.760793 C438.862105,28.7993867 438.779586,28.8179219 438.698133,28.8179219 C438.499223,28.8179219 438.308285,28.7084375 438.21307,28.5185156 C438.086625,28.265168 438.177117,27.9604805 438.413555,27.8149922 C438.171785,27.6784922 438.070223,27.3770039 438.18768,27.1193906 C438.226375,27.0342812 438.288176,26.9703477 438.357949,26.9174336 C437.194094,25.2619141 435.333367,22.3646406 435.333367,20.75 C435.333367,18.3606406 437.277324,16.4166836 439.666684,16.4166836 Z M439.666684,26.8850352 C440.857402,25.2467812 442.916684,22.1290156 442.916684,20.75 C442.916684,18.9578281 441.458855,17.5 439.666684,17.5 C437.874512,17.5 436.416684,18.9578281 436.416684,20.75 C436.416684,22.1290664 438.475965,25.246832 439.666684,26.8850352 Z M439.666684,19.6666836 C440.263871,19.6666836 440.75,20.1528125 440.75,20.75 C440.75,21.3471875 440.263871,21.8333164 439.666684,21.8333164 C439.069496,21.8333164 438.583367,21.3471875 438.583367,20.75 C438.583367,20.1528125 439.069496,19.6666836 439.666684,19.6666836 Z M423.656168,35.5638555 C423.708777,35.6092539 423.753871,35.6652656 423.78693,35.7314336 C423.920738,35.9991016 423.81232,36.324457 423.544652,36.4582656 L422.575594,36.9428203 C422.575187,36.9430234 422.57473,36.9429727 422.574324,36.9431758 C422.511863,36.9742031 422.441684,36.9860859 422.370691,36.9912656 C422.35825,36.9921289 422.346316,37 422.333875,37 L422.333621,36.9999492 L422.333367,37 C422.239828,37 422.152434,36.9714102 422.072961,36.9271797 C422.048789,36.9138242 422.032387,36.89275 422.010297,36.8757383 C421.973582,36.8474023 421.932145,36.8255156 421.903301,36.7878867 C421.503906,36.2663125 418,31.6304414 418,29.4166836 C418,27.0273242 419.943957,25.0833164 422.333367,25.0833672 C424.722727,25.0833672 426.666684,27.0273242 426.666684,29.4166836 C426.666684,31.024875 424.820887,33.9051367 423.656168,35.5638555 Z M422.333316,35.551668 C423.524035,33.9134648 425.583316,30.7956992 425.583316,29.4166328 C425.583316,27.6244609 424.125488,26.1666328 422.333316,26.1666328 C420.541145,26.1666328 419.083316,27.6244609 419.083316,29.4166328 C419.083316,30.7956992 421.142598,33.9134648 422.333316,35.551668 Z M436.745137,28.6464844 C437.012297,28.51425 437.33816,28.6216016 437.471918,28.8887617 C437.605727,29.1564297 437.497309,29.4817852 437.229641,29.6155938 L435.518922,30.4709531 C435.441176,30.5095469 435.358656,30.528082 435.277203,30.528082 C435.078293,30.528082 434.887355,30.4185977 434.792141,30.2286758 C434.658332,29.9610078 434.76675,29.6356523 435.034418,29.5018438 L436.745137,28.6464844 Z M426.481535,33.7785898 C426.748645,33.6463047 427.074,33.7531992 427.208316,34.0208672 C427.342125,34.2885352 427.233707,34.6138906 426.966039,34.7476992 L425.25532,35.6030586 C425.177574,35.6416523 425.095055,35.6601875 425.013602,35.6601875 C424.814691,35.6601875 424.623754,35.5507031 424.528539,35.3607812 C424.39473,35.0931133 424.503148,34.7677578 424.770816,34.6339492 L426.481535,33.7785898 Z M433.32375,30.3572031 C433.591418,30.2239023 433.916215,30.3318125 434.050531,30.5994805 C434.18434,30.8671484 434.075922,31.1925039 433.808254,31.3263125 L432.097535,32.1816719 C432.019789,32.2202656 431.93727,32.2388008 431.855816,32.2388008 C431.656906,32.2388008 431.465969,32.1293164 431.370754,31.9393945 C431.236945,31.6717266 431.345363,31.3463711 431.613031,31.2125625 L433.32375,30.3572031 Z M429.902363,32.0678711 C430.168965,31.9350781 430.494828,32.0424805 430.629145,32.3101484 C430.762953,32.5778164 430.654535,32.9031719 430.386867,33.0369805 L428.676707,33.8923398 C428.598961,33.9309336 428.516441,33.9494688 428.434988,33.9494688 C428.236078,33.9494688 428.045141,33.8399844 427.949926,33.6500625 C427.816117,33.3823945 427.924535,33.0570391 428.192203,32.9232305 L429.902363,32.0678711 Z M430.232441,23.5033086 C430.35518,23.2319336 430.675762,23.1091953 430.949727,23.2345742 L432.938117,24.138582 C433.210559,24.2623359 433.330656,24.5834258 433.206852,24.8558672 C433.11641,25.0552852 432.919633,25.17325 432.713309,25.17325 C432.638762,25.17325 432.56259,25.1579141 432.489566,25.1246016 L430.501176,24.2205937 C430.228734,24.0968398 430.108637,23.77575 430.232441,23.5033086 Z M436.691207,26.9812656 C436.616609,26.9812656 436.540437,26.9659297 436.467465,26.9326172 L434.478516,26.0286094 C434.206074,25.9048555 434.085977,25.5837656 434.209781,25.3113242 C434.333027,25.0399492 434.651477,24.9177695 434.927066,25.0425898 L436.916016,25.9465977 C437.188457,26.0703516 437.308555,26.3914414 437.18475,26.6638828 C437.094309,26.8633008 436.897531,26.9812656 436.691207,26.9812656 Z M428.735461,23.3647266 C428.660914,23.3647266 428.584742,23.3493906 428.511719,23.3160273 L427.525801,22.8679844 C427.522957,22.8666641 427.521281,22.8640234 427.518438,22.8627031 C427.499801,22.8538672 427.486496,22.8378711 427.468977,22.8269531 C427.419312,22.795875 427.373406,22.7622578 427.337453,22.7188906 C427.332477,22.713 427.324656,22.7106641 427.319984,22.7045195 C426.92059,22.1829453 423.416684,17.5470742 423.416684,15.3333164 C423.416684,12.943957 425.360641,11 427.75,11 C430.139359,11 432.083316,12.943957 432.083316,15.3333164 C432.083316,17.1946523 429.61225,20.7593945 428.586164,22.160043 L428.96027,22.3300586 C429.232203,22.4538125 429.352809,22.7749023 429.229004,23.0473438 C429.138562,23.2467617 428.941785,23.3647266 428.735461,23.3647266 Z M424.5,15.3333164 C424.5,16.7123828 426.559281,19.8300977 427.75,21.4683516 C428.940719,19.8300977 431,16.712332 431,15.3333164 C431,13.5411445 429.542172,12.0833164 427.75,12.0833164 C425.957828,12.0833164 424.5,13.5411445 424.5,15.3333164 Z" id="distance"></path>
                        </g>
                    </g>
                </g>
            </g>
        </g>
    </g>
</svg>