<?xml version="1.0" encoding="UTF-8"?>
<svg width="18px" height="18px" viewBox="0 0 18 18" version="1.1" xmlns="http://www.w3.org/2000/svg" xmlns:xlink="http://www.w3.org/1999/xlink">
    <!-- Generator: Sketch 53.2 (72643) - https://sketchapp.com -->
    <title>status/resume</title>
    <desc>Created with Sketch.</desc>
    <g id="status/resume" stroke="none" stroke-width="1" fill="none" fill-rule="evenodd">
        <rect id="Rectangle" x="0" y="0" width="18" height="18"></rect>
        <g id="deactivated" fill-rule="nonzero">
            <path d="M9,18 C4.03733827,18 0,13.9626617 0,9 C0,4.03733827 4.03733827,0 9,0 C13.9626617,0 18,4.03733827 18,9 C18,13.9626617 13.9626617,18 9,18 Z M9,1.28567503 C4.74636839,1.28567503 1.28567503,4.74636839 1.28567503,9 C1.28567503,13.2536316 4.74636839,16.714325 9,16.714325 C13.2536316,16.714325 16.714325,13.2536316 16.714325,9 C16.714325,4.74636839 13.2536316,1.28567503 9,1.28567503 Z" id="Shape" fill="#333333"></path>
            <path d="M11.8589142,8.84368124 L7.97929107,6.18770546 C7.80012281,6.06496192 7.61959764,6 7.46954635,6 C7.17945095,6 7,6.23282262 7,6.62253761 L7,12.362876 C7,12.7521387 7.1792248,12.984509 7.46864174,12.984509 C7.61891919,12.984509 7.79656093,12.9194905 7.97612495,12.7964078 L11.8575573,10.1404885 C12.1071717,9.96940518 12.2454066,9.7391833 12.2454066,9.49194354 C12.2454631,9.2448734 12.1088113,9.01470805 11.8589142,8.84368124 Z" id="Path" stroke="#333333"></path>
        </g>
    </g>
</svg>