<?xml version="1.0" encoding="UTF-8"?>
<svg width="18px" height="18px" viewBox="0 0 18 18" version="1.1" xmlns="http://www.w3.org/2000/svg" xmlns:xlink="http://www.w3.org/1999/xlink">
    <!-- Generator: Sketch 53.2 (72643) - https://sketchapp.com -->
    <title>status/activate</title>
    <desc>Created with Sketch.</desc>
    <g id="status/activate" stroke="none" stroke-width="1" fill="none" fill-rule="evenodd">
        <rect id="Rectangle" x="0" y="0" width="18" height="18"></rect>
        <g id="deactivated" fill="#333333" fill-rule="nonzero">
            <path d="M9,18 C4.03733827,18 0,13.9626617 0,9 C0,4.03733827 4.03733827,0 9,0 C13.9626617,0 18,4.03733827 18,9 C18,13.9626617 13.9626617,18 9,18 Z M9,1.28567503 C4.74636839,1.28567503 1.28567503,4.74636839 1.28567503,9 C1.28567503,13.2536316 4.74636839,16.714325 9,16.714325 C13.2536316,16.714325 16.714325,13.2536316 16.714325,9 C16.714325,4.74636839 13.2536316,1.28567503 9,1.28567503 Z" id="Shape"></path>
            <path d="M5.01842765,10.3711203 C4.88281596,8.96061117 5.50625304,7.68296289 6.54029219,6.87123763 C6.94336027,6.55455558 7.5460789,6.82573734 7.5460789,7.32624058 L7.5460789,7.32624058 C7.5460789,7.51006177 7.45567111,7.67932287 7.30875844,7.79398361 C6.57607861,8.37092735 6.13534061,9.28093325 6.24269987,10.2855798 C6.38207855,11.5941682 7.46697208,12.6534151 8.81932201,12.799016 C10.5841575,12.9901173 12.0834201,11.6542286 12.0834201,9.98709782 C12.0834201,9.10257209 11.6596336,8.31086696 10.9985266,7.7921636 C10.8516139,7.67750286 10.7630896,7.50824176 10.7630896,7.32624058 L10.7630896,7.32624058 C10.7630896,6.83119737 11.3563907,6.55091556 11.7556918,6.86031756 C12.7012067,7.59742234 13.3076923,8.72400964 13.3076923,9.98709782 C13.3076923,12.2966928 11.2772839,14.1585649 8.84945794,13.9893038 C6.8416515,13.8528029 5.20489373,12.3076129 5.01842765,10.3711203 Z M9.06730769,5 C8.73180473,5 8.46153846,5.27069972 8.46153846,5.602585 L8.46153846,8.37818423 C8.46153846,8.71192361 8.73366864,8.98076923 9.06730769,8.98076923 C9.40094675,8.98076923 9.67307692,8.71006951 9.67307692,8.37818423 L9.67307692,5.602585 C9.67307692,5.27069972 9.40281065,5 9.06730769,5 Z" id="Shape"></path>
        </g>
    </g>
</svg>