<svg width="20" height="20" viewBox="0 0 20 20" fill="none" xmlns="http://www.w3.org/2000/svg">
<path fill-rule="evenodd" clip-rule="evenodd" d="M10 0C4.48601 0 0 4.48601 0 10C0 15.514 4.48601 20 10 20C15.514 20 20 15.514 20 10C20 4.48601 15.5141 0 10 0ZM10 18.9189C7.55024 18.9189 5.32811 17.9259 3.71464 16.3216C3.07031 15.6809 2.52334 14.9425 2.09746 14.131C1.4488 12.8952 1.0811 11.4898 1.0811 10C1.0811 5.0821 5.0821 1.0811 10 1.0811C12.3327 1.0811 14.4586 1.98165 16.0496 3.45288C16.8745 4.2156 17.5556 5.13156 18.0468 6.15535C18.6056 7.32017 18.9189 8.62417 18.9189 10C18.9189 14.9179 14.9179 18.9189 10 18.9189ZM7 9C7.55228 9 8 8.55229 8 8C8 7.44772 7.55228 7 7 7C6.44772 7 6 7.44772 6 8C6 8.55229 6.44772 9 7 9ZM14 8C14 8.55229 13.5523 9 13 9C12.4477 9 12 8.55229 12 8C12 7.44772 12.4477 7 13 7C13.5523 7 14 7.44772 14 8ZM15 12.5129C13.9017 14.0651 11.9834 15 9.9817 15C9.75893 15 9.53544 14.9885 9.31164 14.9649C7.56825 14.7812 5.9564 13.8647 5 12.5129L5.86897 12C6.65938 13.1171 7.99065 13.8746 9.43023 14.0262C11.2775 14.2208 13.1224 13.4254 14.131 12L15 12.5129Z" fill="#666666"/>
</svg>
