<?xml version="1.0" encoding="UTF-8"?>
<svg width="15px" height="12px" viewBox="0 0 15 12" version="1.1" xmlns="http://www.w3.org/2000/svg" xmlns:xlink="http://www.w3.org/1999/xlink">
    <!-- Generator: Sketch 53.2 (72643) - https://sketchapp.com -->
    <title>envelope</title>
    <desc>Created with Sketch.</desc>
    <g id="Page-1" stroke="none" stroke-width="1" fill="none" fill-rule="evenodd">
        <g id="19-Communities" transform="translate(-1157.000000, -430.000000)" fill="#000000" fill-rule="nonzero">
            <g id="list" transform="translate(257.000000, 296.000000)">
                <g id="down-arrow" transform="translate(804.000000, 8.000000)">
                    <g id="envelope" transform="translate(96.000000, 126.000000)">
                        <path d="M13.1688315,0.288461538 L1.83426336,0.288461538 C0.822470035,0.288461538 0,1.11980801 0,2.14252102 L0,9.9728636 C0,10.9955766 0.822470035,11.8269231 1.83426336,11.8269231 L13.1657279,11.8269231 C14.1775212,11.8269231 14.9999912,10.9955766 14.9999912,9.9728636 L14.9999912,2.14565818 C15.0030949,1.12294516 14.1806249,0.288461538 13.1688315,0.288461538 Z M14.1651066,9.9728636 C14.1651066,10.5281403 13.7181795,10.9798908 13.1688315,10.9798908 L1.83426336,10.9798908 C1.28491545,10.9798908 0.837988338,10.5281403 0.837988338,9.9728636 L0.837988338,2.14565818 C0.837988338,1.59038148 1.28491545,1.13863094 1.83426336,1.13863094 L13.1657279,1.13863094 C13.7150758,1.13863094 14.1620029,1.59038148 14.1620029,2.14565818 L14.1620029,9.9728636 L14.1651066,9.9728636 Z" id="Shape"></path>
                        <path d="M9.45682798,6.53804444 L13.1236775,3.31515147 C13.2943008,3.16312822 13.309812,2.90468869 13.1546999,2.73442265 C12.9995878,2.56719707 12.7358973,2.55199474 12.5621718,2.70401799 L7.50551804,7.15221838 L6.51900523,6.2887263 C6.51590299,6.28568584 6.51280075,6.28264537 6.51280075,6.27960491 C6.49108506,6.25832165 6.46936937,6.24007886 6.44455143,6.22183607 L2.43025087,2.70097753 C2.25652534,2.54895428 1.99283481,2.5641566 1.83772273,2.73442265 C1.68261066,2.90468869 1.69812186,3.16312822 1.87184739,3.31515147 L5.58212828,6.56540862 L1.8873586,9.95552717 C1.71983755,10.1105909 1.71053083,10.3690304 1.86874515,10.536256 C1.95250567,10.621389 2.06418637,10.666996 2.17586706,10.666996 C2.27824103,10.666996 2.380615,10.6305104 2.46127328,10.5575393 L6.21188332,7.11877327 L7.22941854,8.00962953 C7.31007683,8.07956022 7.40934855,8.11300534 7.50862028,8.11300534 C7.60789201,8.11300534 7.71026598,8.07651976 7.78782202,8.00658906 L8.83327743,7.08836861 L12.5621718,10.5605797 C12.64283,10.6365913 12.7483063,10.6730769 12.8506802,10.6730769 C12.9623609,10.6730769 13.0709394,10.6305104 13.1546999,10.5453774 C13.3129142,10.3811923 13.3067097,10.1197123 13.1391887,9.96464856 L9.45682798,6.53804444 Z" id="Path"></path>
                    </g>
                </g>
            </g>
        </g>
    </g>
</svg>