<svg id="female" xmlns="http://www.w3.org/2000/svg" width="109" height="96" viewBox="0 0 109 96">
  <rect id="Rectangle" width="109" height="96" rx="3" fill="#fff"/>
  <text id="Female-2" data-name="Female" transform="translate(55 79)" fill="#6d7278" font-size="14" font-family="Poppins-Regular, Poppins"><tspan x="-25.865" y="0">Female</tspan></text>
  <path id="Combined_Shape" data-name="Combined Shape" d="M0,40v-.644a10.208,10.208,0,0,1,5.294-8.969,11.661,11.661,0,0,1-2.628-2.97l-.338-.592.61-.305a6.322,6.322,0,0,0,3.514-5.686V9.281A5.765,5.765,0,0,1,9.958,3.969l1.105-1.105A9.707,9.707,0,0,1,17.974,0h.167A10.232,10.232,0,0,1,28.388,10.227V20.838A6.318,6.318,0,0,0,31.9,26.519l.609.305-.337.592a11.472,11.472,0,0,1-2.628,2.97,10.21,10.21,0,0,1,5.294,8.969V40H0Zm27.1-5.161h1.289V38.71h5.139a8.9,8.9,0,0,0-5.548-7.652L23.851,29.37a3.431,3.431,0,0,1-3.528,2.888,3.854,3.854,0,0,1-.863-.107l1.087,6.559H27.1V34.84h0Zm-10.3-3.344L15.6,38.71h3.64l-1.2-7.215a3.369,3.369,0,0,1-.625-.614A3.369,3.369,0,0,1,16.795,31.495ZM6.452,34.839h1.29V38.71h6.55l1.086-6.559a3.859,3.859,0,0,1-.862.107,3.43,3.43,0,0,1-3.528-2.889L6.861,31.057A8.9,8.9,0,0,0,1.313,38.71H6.451V34.84h0Zm12.039-4.682a2.391,2.391,0,0,0,1.832.811,2.118,2.118,0,0,0,2.258-1.936.563.563,0,0,0-.015-.117c0-.025-.01-.051-.013-.077L21.36,28.35a3.206,3.206,0,0,1-.459-.234A3.853,3.853,0,0,1,18.491,30.157ZM13.479,28.35l-1.193.488c0,.024-.008.049-.013.073a.68.68,0,0,0-.015.122,2.118,2.118,0,0,0,2.258,1.936,2.392,2.392,0,0,0,1.831-.811,3.849,3.849,0,0,1-2.408-2.041A3.356,3.356,0,0,1,13.479,28.35Zm-1.5-24.574-.9.9a8.753,8.753,0,0,0,7.34,5.61l7.393.74v4.036A11.959,11.959,0,0,1,20.645,24.9v.463a1.928,1.928,0,0,0,1.2,1.792l6.368,2.605a10.408,10.408,0,0,0,2.475-2.441A7.589,7.589,0,0,1,27.1,20.838V10.226A8.942,8.942,0,0,0,18.14,1.291h-.167A8.422,8.422,0,0,0,11.975,3.776Zm-4.233,5.5V20.833A7.592,7.592,0,0,1,4.148,27.32a10.379,10.379,0,0,0,2.474,2.44l6.368-2.6a1.928,1.928,0,0,0,1.2-1.791V24.9a11.957,11.957,0,0,1-5.161-9.836V13.739a4.5,4.5,0,0,1,2.092-3.812l1.411-.9A10.153,10.153,0,0,1,9.969,5.405,4.431,4.431,0,0,0,7.742,9.281Zm7.2,17.871a2.567,2.567,0,0,0,4.947,0,3.242,3.242,0,0,1-.516-1.477,11.964,11.964,0,0,1-1.754.743l-.2.068-.2-.068a12.154,12.154,0,0,1-1.755-.743A3.213,3.213,0,0,1,14.945,27.152ZM11.817,11.017a3.21,3.21,0,0,0-1.494,2.722v1.327a10.7,10.7,0,0,0,7.1,10.058,10.693,10.693,0,0,0,7.1-10.058V12.2l-6.233-.624a10.1,10.1,0,0,1-4.671-1.7ZM14.838,20h1.291a1.291,1.291,0,1,0,2.581,0H20a2.581,2.581,0,1,1-5.161,0Zm5.807-5.161a.645.645,0,1,1,.645.645A.645.645,0,0,1,20.645,14.838Zm-7.742,0a.645.645,0,1,1,.645.645A.645.645,0,0,1,12.9,14.838ZM24.112,8.6l1.217-.43a8.362,8.362,0,0,1,.363,1.4l-1.274.213A6.972,6.972,0,0,0,24.112,8.6ZM17.42,3.871V2.58a8.417,8.417,0,0,1,7.265,4.194l-1.117.645A7.126,7.126,0,0,0,17.42,3.871Z" transform="translate(37 17)" fill="#666"/>
</svg>
