<svg xmlns="http://www.w3.org/2000/svg" width="26.57" height="24" viewBox="0 0 26.57 24">
  <g id="food-svgrepo-com" transform="translate(0 -48.187)">
    <path id="Path_2" data-name="Path 2" d="M282.966,153.1a.443.443,0,0,0,.626-.626,1.155,1.155,0,0,1,0-1.631,2.038,2.038,0,0,0,0-2.884.443.443,0,1,0-.626.626,1.152,1.152,0,0,1,0,1.631A2.042,2.042,0,0,0,282.966,153.1Z" transform="translate(-274.84 -96.981)" fill="#FE6C0B"/>
    <path id="Path_3" data-name="Path 3" d="M648.3,153.1a.443.443,0,0,0,.626-.626,1.155,1.155,0,0,1,0-1.631,2.038,2.038,0,0,0,0-2.884.443.443,0,0,0-.626.626,1.152,1.152,0,0,1,0,1.631A2.042,2.042,0,0,0,648.3,153.1Z" transform="translate(-630.436 -96.981)" fill="#FE6C0B"/>
    <path id="Path_4" data-name="Path 4" d="M465.635,53.459a.443.443,0,0,0,.626-.626,1.155,1.155,0,0,1,0-1.631,2.038,2.038,0,0,0,0-2.884.443.443,0,1,0-.626.626,1.153,1.153,0,0,1,0,1.631A2.042,2.042,0,0,0,465.635,53.459Z" transform="translate(-452.638)" fill="#FE6C0B"/>
    <path id="Path_5" data-name="Path 5" d="M404.731,434.5a.463.463,0,0,0,.1-.011,8.92,8.92,0,0,1,1.958-.216h.006a.443.443,0,0,0,0-.886h-.006a9.816,9.816,0,0,0-2.152.238.443.443,0,0,0,.1.875Z" transform="translate(-393.507 -374.932)" fill="#FE6C0B"/>
    <path id="Path_6" data-name="Path 6" d="M149.826,486.4a.412.412,0,0,0,.08.008.443.443,0,0,0,.435-.363,8.862,8.862,0,0,1,4.068-6,.443.443,0,0,0-.451-.762,9.759,9.759,0,0,0-4.488,6.608A.442.442,0,0,0,149.826,486.4Z" transform="translate(-145.477 -419.536)" fill="#FE6C0B"/>
    <path id="Path_7" data-name="Path 7" d="M24.632,295.708a11.542,11.542,0,0,0-9.152-9.363,2.037,2.037,0,0,0,.019-.213,2.214,2.214,0,0,0-4.428,0,1.924,1.924,0,0,0,.019.213,11.542,11.542,0,0,0-9.152,9.363C1.012,296.232,0,297,0,297.868c0,2.252,6.869,3.764,13.285,3.764s13.285-1.512,13.285-3.764C26.57,297,25.558,296.232,24.632,295.708Zm-12.673-9.5c0-.026,0-.051,0-.076a1.329,1.329,0,0,1,2.657,0c0,.025,0,.051,0,.076l-.062-.005c-.152-.017-.306-.029-.46-.039-.057,0-.113-.01-.17-.013-.21-.012-.421-.018-.634-.018s-.424.007-.634.018c-.057,0-.113.009-.17.013-.154.011-.307.023-.46.039Zm-.269.929c.238-.035.477-.061.717-.081l.147-.011a10.875,10.875,0,0,1,1.461,0l.147.011c.24.019.479.045.717.081a10.652,10.652,0,0,1,8.924,9c.02.142.037.285.051.427,0,.049.012.1.016.147.017.2.03.392.036.589a47.258,47.258,0,0,1-21.245,0q.01-.294.036-.589c0-.049.011-.1.016-.147.015-.143.031-.286.051-.427A10.651,10.651,0,0,1,11.69,287.138Zm1.595,13.608c-7.571,0-12.4-1.89-12.4-2.878,0-.17.21-.543.914-1.031,0,.025,0,.05,0,.075-.015.243-.026.487-.026.734V298l.34.082a48.094,48.094,0,0,0,22.348,0L24.8,298v-.349c0-.247-.011-.491-.026-.734,0-.025,0-.05,0-.075.7.488.914.861.914,1.031C25.684,298.856,20.856,300.746,13.285,300.746Z" transform="translate(0 -229.445)" fill="#FE6C0B"/>
  </g>
</svg>
