<svg width="21" height="20" viewBox="0 0 21 20" fill="none" xmlns="http://www.w3.org/2000/svg">
<path id="Formula" fill-rule="evenodd" clip-rule="evenodd" d="M1.40404 2.43765C1.35529 2.44356 1.30565 2.4466 1.2553 2.4466C0.579689 2.4466 0.0319988 1.89891 0.0319988 1.2233C0.0319988 0.547691 0.579689 0 1.2553 0C1.93091 0 2.4786 0.547691 2.4786 1.2233C2.4786 1.52406 2.37006 1.79947 2.19002 2.0125L3.37544 3.98538H7.14511L7.5376 3.33217C7.33166 3.10131 7.20649 2.79684 7.20649 2.46313C7.20649 1.74187 7.79119 1.15718 8.51245 1.15718C9.23371 1.15718 9.81841 1.74187 9.81841 2.46313C9.81841 3.18439 9.23371 3.76909 8.51245 3.76909C8.44275 3.76909 8.37432 3.76363 8.30756 3.75311L8.32118 3.76129L7.89295 4.47399L9.75751 7.70349H14.1496L16.2659 11.3691H18.0568C18.0867 11.292 18.1249 11.2169 18.1717 11.1448C18.5397 10.5782 19.2973 10.4172 19.8639 10.7851C20.4305 11.1531 20.5916 11.9107 20.2236 12.4773C19.8556 13.044 19.098 13.205 18.5314 12.837C18.31 12.6932 18.1505 12.4899 18.0603 12.2617H16.2788L14.4224 15.4771L15.4809 17.1071C15.5991 17.0764 15.7231 17.0601 15.8509 17.0601C16.6628 17.0601 17.3209 17.7182 17.3209 18.53C17.3209 19.3419 16.6628 20 15.8509 20C15.0391 20 14.381 19.3419 14.381 18.53C14.381 18.182 14.5019 17.8623 14.704 17.6105L13.6255 15.9497L9.99353 15.9497L9.53428 16.6056C9.72362 16.8502 9.82724 17.1627 9.80396 17.4956C9.75364 18.2151 9.12959 18.7576 8.41008 18.7073C7.69058 18.657 7.14809 18.0329 7.19841 17.3134C7.24872 16.5939 7.87278 16.0514 8.59228 16.1017C8.66182 16.1066 8.7297 16.1168 8.79555 16.132L8.78254 16.1228L9.16949 15.5702L7.24195 12.2316L3.39817 12.2316L2.16327 14.4594C2.21614 14.5229 2.26332 14.5928 2.30365 14.6687C2.62083 15.2652 2.39438 16.0059 1.79785 16.3231C1.20132 16.6403 0.460613 16.4138 0.143433 15.8173C-0.173747 15.2208 0.0527101 14.48 0.649239 14.1629C0.882367 14.0389 1.13752 13.998 1.3808 14.0297L2.6089 11.8142L0.469425 8.10849L2.59711 4.42324L1.40404 2.43765ZM1.65205 1.23983C1.65205 1.46808 1.46702 1.65311 1.23877 1.65311C1.01052 1.65311 0.825491 1.46808 0.825491 1.23983C0.825491 1.01159 1.01052 0.826555 1.23877 0.826555C1.46702 0.826555 1.65205 1.01159 1.65205 1.23983ZM7.13146 4.81573L9.03253 8.10849L7.13146 11.4013L3.3293 11.4012L1.42823 8.10849L3.3293 4.81573H7.13146ZM13.6702 8.53384L15.5712 11.8266L13.6702 15.1194H9.868L7.96692 11.8266L9.868 8.53384H13.6702ZM1.6108 15.0558C1.50365 14.8543 1.25341 14.7778 1.05188 14.8849C0.850349 14.9921 0.773843 15.2423 0.880998 15.4438C0.988154 15.6454 1.23839 15.7219 1.43992 15.6147C1.64145 15.5076 1.71796 15.2573 1.6108 15.0558ZM18.9677 12.1348C18.7763 12.0105 18.7219 11.7546 18.8462 11.5631C18.9705 11.3717 19.2265 11.3173 19.4179 11.4416C19.6093 11.5659 19.6637 11.8219 19.5394 12.0133C19.4151 12.2047 19.1591 12.2591 18.9677 12.1348ZM15.8708 18.0136C15.5965 18.0136 15.3742 18.2359 15.3742 18.5102C15.3742 18.7844 15.5965 19.0068 15.8708 19.0068C16.1451 19.0068 16.3674 18.7844 16.3674 18.5102C16.3674 18.2359 16.1451 18.0136 15.8708 18.0136ZM8.09917 2.4962C8.09917 2.7427 8.29901 2.94253 8.54551 2.94253C8.79202 2.94253 8.99185 2.7427 8.99185 2.4962C8.99185 2.24969 8.79202 2.04986 8.54551 2.04986C8.29901 2.04986 8.09917 2.24969 8.09917 2.4962ZM8.50164 16.924C8.74755 16.9412 8.93295 17.1544 8.91576 17.4003C8.89856 17.6463 8.68528 17.8317 8.43937 17.8145C8.19347 17.7973 8.00806 17.584 8.02525 17.3381C8.04245 17.0922 8.25574 16.9068 8.50164 16.924ZM3.45394 8.1395L4.19783 6.87694C4.19783 6.87694 4.24743 6.48019 4.01599 6.381C3.78456 6.28182 3.50353 6.44713 3.50353 6.44713L2.61085 7.90186C2.61085 7.90186 2.54413 8.16457 2.61085 8.31514C2.67757 8.46571 3.45394 9.73681 3.45394 9.73681C3.45394 9.73681 3.75149 10.0344 4.01599 9.8856C4.28049 9.73682 4.2309 9.42272 4.2309 9.42272L3.45394 8.1395ZM12.6042 10.3076L11.0479 10.3057L10.2275 11.6752C10.2275 11.6752 9.98032 11.8752 9.71922 11.7205C9.45812 11.5659 9.56704 11.1594 9.56704 11.1594C9.56704 11.1594 10.3772 9.7965 10.4742 9.66343C10.5713 9.53037 10.8322 9.4568 10.8322 9.4568L12.6293 9.49138C12.6293 9.49138 12.9428 9.58803 12.9428 9.90213C12.9428 10.2162 12.6042 10.3076 12.6042 10.3076Z" fill="#666666"/>
</svg>
