<?xml version="1.0" encoding="UTF-8"?>
<svg width="40px" height="33px" viewBox="0 0 40 33" version="1.1" xmlns="http://www.w3.org/2000/svg" xmlns:xlink="http://www.w3.org/1999/xlink">
    <!-- Generator: Sketch 53.2 (72643) - https://sketchapp.com -->
    <title>friends</title>
    <desc>Created with Sketch.</desc>
    <defs>
        <linearGradient x1="9.1%" y1="-37.4621266%" x2="136.8%" y2="75.1859442%" id="linearGradient-1">
            <stop stop-color="#00669B" offset="0%"></stop>
            <stop stop-color="#4929BB" offset="100%"></stop>
        </linearGradient>
    </defs>
    <g id="Page-1" stroke="none" stroke-width="1" fill="none" fill-rule="evenodd">
        <g id="1-Promotion-mock-up" transform="translate(-183.000000, -2547.000000)" fill="url(#linearGradient-1)" fill-rule="nonzero">
            <g id="Features" transform="translate(163.000000, 2135.000000)">
                <g id="Group-6-Copy-3" transform="translate(0.000000, 399.858639)">
                    <path d="M56.6976929,24.6984239 C58.6715698,25.8817459 60,28.0655044 60,30.5603857 L60,40.1098658 C60,40.5489153 59.6502686,40.9047502 59.21875,40.9047502 C58.7872314,40.9047502 58.4375,40.5489153 58.4375,40.1098658 L58.4375,30.5603857 C58.4375,27.6879343 56.1404419,25.350788 53.3172608,25.350788 C51.8798828,25.350788 50.5004883,25.9705494 49.5324707,27.0517164 L41.1486816,36.413964 C40.8636475,36.7319177 40.7351684,37.1585471 40.7955933,37.5842449 C40.856018,38.0102533 41.0983277,38.3822343 41.4599609,38.6051745 C41.984253,38.9284068 42.6477051,38.870964 43.1112671,38.4632752 L49.5892334,32.7633954 C49.8202515,32.5603273 50.1470947,32.51251 50.4251098,32.6419892 C50.703125,32.7711579 50.8813477,33.0537145 50.8813477,33.3648371 L50.8813477,43.5278687 C50.8813477,43.9669181 50.5316162,44.3227531 50.1000977,44.3227531 C49.6688843,44.3227531 49.3188477,43.9669181 49.3188477,43.5278687 L49.3188477,35.1030258 L44.1333008,39.6658484 C43.1555176,40.5262486 41.7559814,40.6464128 40.6503296,39.9648615 C40.406189,39.8142682 40.1882934,39.6313827 40,39.4227256 C39.8117066,39.6313827 39.593811,39.8142682 39.3496704,39.9648615 C38.2443238,40.6464128 36.8444824,40.5262486 35.8666992,39.6658484 L30.6811523,35.1030258 L30.6811523,43.5278687 C30.6811523,43.9669181 30.3311157,44.3227531 29.8999023,44.3227531 C29.4683838,44.3227531 29.1186523,43.9669181 29.1186523,43.5278687 L29.1186523,33.3648371 C29.1186523,33.0537145 29.296875,32.7711579 29.5748902,32.6419892 C29.8529053,32.51251 30.1797485,32.5600167 30.4107666,32.7633954 L36.8887329,38.4632752 C37.3522949,38.870964 38.015747,38.9280963 38.5400391,38.6051745 C38.9016723,38.3822343 39.143982,38.0102533 39.2044067,37.5842449 C39.2648316,37.1585471 39.1363525,36.7319177 38.8513184,36.413964 L30.4675293,27.0517164 C29.4995117,25.9708599 28.1201172,25.350788 26.6827392,25.350788 C23.8595581,25.350788 21.5625,27.6879343 21.5625,30.5603857 L21.5625,43.5278687 C21.5625,43.9669181 21.2127686,44.3227531 20.78125,44.3227531 C20.3497314,44.3227531 20,43.9669181 20,43.5278687 L20,30.5603857 C20,29.5583967 20.2157593,28.60733 20.5999756,27.7500347 C20.5841064,27.6863819 20.5743408,27.6199345 20.5743408,27.5510031 L20.5743408,19.8393826 C20.5743408,15.6323949 23.9385986,12.2094241 28.0734253,12.2094241 L30.0439453,12.2094241 C31.7416382,12.2094241 33.1228638,13.6147549 33.1228638,15.3420758 C33.1228638,16.3266768 32.673645,17.2060176 31.9735718,17.7807563 L31.9735718,21.0494078 C31.9735718,22.5693137 31.1938477,23.9066445 30.0210571,24.6717208 C30.6130981,25.0188617 31.1547852,25.4585321 31.6226196,25.9811065 L40,35.335902 L48.3773804,25.9811065 C48.8452148,25.4585321 49.387207,25.0188617 49.9789429,24.6717208 C48.8061523,23.9066445 48.0264282,22.5693137 48.0264282,21.0494078 L48.0264282,17.7807563 C47.326355,17.2060176 46.8771363,16.3266768 46.8771363,15.3420758 L46.8771363,13.0043085 C46.8771363,12.565259 47.2268677,12.2094241 47.6583863,12.2094241 L54.4094848,12.2094241 C57.175293,12.2094241 59.4256592,14.4990637 59.4256592,17.3131407 L59.4256592,20.0253732 C59.4256592,21.4800737 58.8595581,22.8378977 57.8320312,23.8488913 C57.4874878,24.1879591 57.1057129,24.4714472 56.6976929,24.6984239 Z M30.4110718,21.0494078 L30.4110718,18.45144 C30.2905273,18.4663441 30.1681519,18.4747276 30.0439453,18.4747276 L28.6837769,18.4747276 C27.607727,18.4747276 26.7321777,19.365557 26.7321777,20.460386 L26.7321777,23.7610193 L27.7459717,23.7610193 C29.215393,23.7610193 30.4110718,22.5447841 30.4110718,21.0494078 Z M22.1368408,25.5827328 C22.9763794,24.7884694 24.0161133,24.2118677 25.1696777,23.9389367 L25.1696777,20.460386 C25.1696777,18.4887002 26.7462158,16.8846483 28.6837769,16.8846483 L30.0439453,16.8846483 C30.880127,16.8846483 31.5603638,16.19254 31.5603638,15.3420758 C31.5603638,14.4913011 30.880127,13.7991928 30.0439453,13.7991928 L28.0734253,13.7991928 C24.8001098,13.7991928 22.1368408,16.5089413 22.1368408,19.8393826 L22.1368408,25.5827328 Z M48.4396363,13.7991928 L48.4396363,15.3420758 C48.4396363,16.1928505 49.119873,16.8849588 49.9557495,16.8849588 L54.0490723,16.8849588 C54.4805908,16.8849588 54.8303223,17.2407938 54.8303223,17.6798432 L54.8303223,23.7001609 C55.5471802,23.5744077 56.2097168,23.2337873 56.7459106,22.7059344 C57.4664306,21.9973695 57.8631592,21.0453713 57.8631592,20.0256836 L57.8631592,17.3131407 C57.8631592,15.37561 56.3137817,13.7991928 54.4094848,13.7991928 L48.4396363,13.7991928 Z M49.5889282,18.45144 L49.5889282,21.0494078 C49.5889282,22.5447841 50.784607,23.7610193 52.2540283,23.7610193 L53.2678223,23.7610193 L53.2678223,18.4747276 L49.9560547,18.4747276 C49.8318481,18.4747276 49.7094727,18.4663441 49.5889282,18.45144 Z M59.21875,42.7329843 C59.4241333,42.7329843 59.6258545,42.8180617 59.7711181,42.9658606 C59.9163819,43.1136594 60,43.318901 60,43.5278687 C60,43.7368363 59.9163819,43.942078 59.7711181,44.0898767 C59.6258545,44.2376756 59.4241333,44.3227531 59.21875,44.3227531 C59.0133667,44.3227531 58.8116455,44.2376756 58.6663819,44.0898767 C58.5211181,43.942078 58.4375,43.7368363 58.4375,43.5278687 C58.4375,43.318901 58.5211181,43.1136594 58.6663819,42.9658606 C58.8116455,42.8180617 59.0133667,42.7329843 59.21875,42.7329843 Z" id="friends"></path>
                </g>
            </g>
        </g>
    </g>
</svg>