<?xml version="1.0" encoding="UTF-8"?>
<svg width="30px" height="29px" viewBox="0 0 30 29" version="1.1" xmlns="http://www.w3.org/2000/svg" xmlns:xlink="http://www.w3.org/1999/xlink">
    <!-- Generator: Sketch 53.2 (72643) - https://sketchapp.com -->
    <title>gift</title>
    <desc>Created with Sketch.</desc>
    <defs>
        <linearGradient x1="9.1%" y1="-73.4638392%" x2="136.8%" y2="85.5531415%" id="linearGradient-1">
            <stop stop-color="#00669B" offset="0%"></stop>
            <stop stop-color="#4929BB" offset="100%"></stop>
        </linearGradient>
    </defs>
    <g id="Page-1" stroke="none" stroke-width="1" fill="none" fill-rule="evenodd">
        <g id="1-Promotion-mock-up" transform="translate(-193.000000, -2442.000000)" fill="url(#linearGradient-1)" fill-rule="nonzero">
            <g id="Features" transform="translate(163.000000, 2135.000000)">
                <path d="M58.125,314.873905 L52.1925,314.873905 C52.618125,314.577821 52.98375,314.283646 53.23875,314.020036 C54.75,312.470846 54.75,309.949353 53.23875,308.400164 C51.770625,306.894909 49.209375,306.892999 47.739375,308.400164 C46.9275,309.23111 44.769375,312.614113 45.0675,314.873905 L44.9325,314.873905 C45.22875,312.614113 43.0725,309.23111 42.260625,308.400164 C40.790625,306.892999 38.229375,306.894909 36.76125,308.400164 C35.25,309.949353 35.25,312.470846 36.759375,314.020036 C37.01625,314.283646 37.381875,314.577821 37.8075,314.873905 L31.875,314.873905 C30.841875,314.873905 30,315.731595 30,316.784127 L30,321.559681 C30,322.086902 30.42,322.514792 30.9375,322.514792 L31.875,322.514792 L31.875,333.976122 C31.875,335.028654 32.716875,335.886344 33.75,335.886344 L56.25,335.886344 C57.283125,335.886344 58.125,335.028654 58.125,333.976122 L58.125,322.514792 L59.0625,322.514792 C59.58,322.514792 60,322.086902 60,321.559681 L60,316.784127 C60,315.731595 59.158125,314.873905 58.125,314.873905 Z M38.090625,309.74687 C38.47125,309.357185 38.975625,309.14324 39.511875,309.14324 C40.04625,309.14324 40.550625,309.357185 40.93125,309.74687 C42.195,311.042 43.45125,314.350504 43.014375,314.810868 C43.014375,314.810868 42.935625,314.873905 42.6675,314.873905 C41.371875,314.873905 38.89875,313.502366 38.090625,312.67333 C37.305,311.867216 37.305,310.552983 38.090625,309.74687 Z M44.0625,333.976122 L33.75,333.976122 L33.75,322.514792 L44.0625,322.514792 L44.0625,333.976122 Z M44.0625,320.60457 L31.875,320.60457 L31.875,316.784127 L42.6675,316.784127 L44.0625,316.784127 L44.0625,320.60457 Z M49.06875,309.74687 C49.83,308.96941 51.15,308.97132 51.909375,309.74687 C52.695,310.552983 52.695,311.867216 51.909375,312.67333 C51.10125,313.502366 48.628125,314.873905 47.3325,314.873905 C47.064375,314.873905 46.985625,314.812778 46.98375,314.810868 C46.54875,314.350504 47.805,311.042 49.06875,309.74687 Z M56.25,333.976122 L45.9375,333.976122 L45.9375,322.514792 L56.25,322.514792 L56.25,333.976122 Z M58.125,320.60457 L45.9375,320.60457 L45.9375,316.784127 L47.3325,316.784127 L58.125,316.784127 L58.125,320.60457 Z" id="gift"></path>
            </g>
        </g>
    </g>
</svg>