<?xml version="1.0" encoding="UTF-8"?>
<svg width="29px" height="26px" viewBox="0 0 29 26" version="1.1" xmlns="http://www.w3.org/2000/svg" xmlns:xlink="http://www.w3.org/1999/xlink">
    <!-- Generator: Sketch 53.2 (72643) - https://sketchapp.com -->
    <title>goal</title>
    <desc>Created with Sketch.</desc>
    <g id="Page-1" stroke="none" stroke-width="1" fill="none" fill-rule="evenodd">
        <g id="Edit-challenge" transform="translate(-486.000000, -3650.000000)" fill="#000000" fill-rule="nonzero">
            <g id="challenge-edit" transform="translate(248.000000, 454.000000)">
                <g id="Group-6" transform="translate(18.000000, 2602.000000)">
                    <g id="show-map" transform="translate(0.000000, 478.000000)">
                        <g id="Group-9" transform="translate(1.000000, 105.000000)">
                            <g id="target" transform="translate(219.000000, 11.000000)">
                                <path d="M26.1220678,12.0084746 L28.0420466,10.0884958 C28.199589,9.93095339 28.2466864,9.69397881 28.1614153,9.4881822 C28.0761441,9.28233051 27.8753051,9.14814407 27.6524873,9.14814407 L23.6725593,9.14814407 C23.152339,7.0185678 22.0605042,5.07809746 20.499678,3.5172161 C18.2316737,1.24910169 15.2160593,0 12.0084746,0 C8.80088983,0 5.78527542,1.24910169 3.5172161,3.5172161 C1.24910169,5.78533051 0,8.80088983 0,12.0084746 C0,15.2160593 1.24910169,18.2316737 3.5172161,20.4997331 C4.19167373,21.1741907 4.93261864,21.7577585 5.7246822,22.2459195 L4.06514407,25.1778051 C3.96863559,25.3483475 3.96995763,25.557339 4.06866949,25.7265593 C4.16732627,25.8958898 4.3485,26 4.54449153,26 L7.38135593,26 C7.57982627,26 7.76298305,25.8932458 7.86075847,25.7205 L9.03417373,23.6473856 C9.99457627,23.8910254 10.9918305,24.0169492 12.0084746,24.0169492 C13.0251186,24.0169492 14.0223729,23.8910254 14.9827754,23.6473856 L16.1561907,25.7205 C16.2539661,25.8932458 16.4371229,26 16.6355932,26 L19.4724576,26 C19.6684492,26 19.8496229,25.8958898 19.9483347,25.7266144 C20.0470466,25.557339 20.0483686,25.3483475 19.9518602,25.1778602 L18.292322,22.2459746 C19.0843856,21.7577585 19.8253305,21.1742458 20.4997881,20.4997881 C22.0600085,18.9395678 23.1523941,16.9982712 23.6725593,14.8688602 L27.6525424,14.8688602 C27.8753051,14.8688602 28.0761992,14.7346186 28.1614703,14.528822 C28.2467415,14.3230254 28.199589,14.0860508 28.0421017,13.9285085 L26.1220678,12.0084746 Z M25.1148432,11.4576271 L21.2705339,11.4576271 L22.478322,10.249839 L26.3226864,10.249839 L25.1148432,11.4576271 Z M7.06015678,24.8983051 L5.48925,24.8983051 L6.68822458,22.7801314 C7.09970763,22.9838347 7.52215254,23.1640169 7.95434746,23.3185847 L7.06015678,24.8983051 Z M18.5276992,24.8983051 L16.9567924,24.8983051 L16.0626017,23.3185847 C16.4947966,23.1640169 16.9172415,22.9838347 17.3287246,22.7801314 L18.5276992,24.8983051 Z M19.7207246,19.7207246 C18.9930551,20.4483941 18.1803347,21.0599449 17.3054788,21.5474449 C17.2946822,21.552678 17.2837754,21.5576356 17.2731441,21.5636398 C17.2664788,21.5674407 17.2604195,21.5717924 17.2539746,21.5758136 C16.5828771,21.9449915 15.8756992,22.2414025 15.1419153,22.4603093 C15.1130508,22.4660381 15.0845169,22.4745212 15.0563686,22.4850975 C14.0783941,22.7681229 13.0548093,22.9152542 12.0084746,22.9152542 C10.9621398,22.9152542 9.93855508,22.7681229 8.96058051,22.4851525 C8.93237712,22.4745763 8.90384322,22.4660932 8.87492373,22.4603644 C8.14119492,22.2414576 7.43401695,21.9450466 6.76297458,21.5758686 C6.75652966,21.5718475 6.75047034,21.5674958 6.74380508,21.5636949 C6.73317373,21.5576907 6.72232203,21.5527331 6.71152542,21.5475 C5.83666949,21.06 5.02394915,20.4484492 4.29627966,19.7207246 C2.23622034,17.6607203 1.10169492,14.9217966 1.10169492,12.0084746 C1.10169492,9.09515254 2.23622034,6.35622881 4.29622458,4.29622458 C6.35622881,2.23622034 9.09515254,1.10169492 12.0084746,1.10169492 C14.9217966,1.10169492 17.6607203,2.23622034 19.7207246,4.29622458 C21.074322,5.64982203 22.0397373,7.31729237 22.5354449,9.14814407 L22.2502161,9.14814407 C22.1041314,9.14814407 21.9639958,9.20620339 21.8607119,9.30948729 L20.3987076,10.7714915 C20.2511907,9.76999576 19.9274025,8.79620763 19.4384703,7.91061017 C19.2914492,7.64427542 18.9563136,7.54765678 18.6899788,7.69462288 C18.4236441,7.84164407 18.3269703,8.17677966 18.4739915,8.44311441 C18.996911,9.39024153 19.2890254,10.4199958 19.3637754,11.4576822 L16.9349788,11.4576822 C16.8123602,10.3418856 16.3192966,9.30822034 15.5140678,8.50299153 C14.5776822,7.56655085 13.3327119,7.05084746 12.0084746,7.05084746 C10.6842373,7.05084746 9.43926695,7.56655085 8.50293644,8.50288136 C7.56655085,9.43932203 7.05084746,10.6842373 7.05084746,12.0084746 C7.05084746,13.3327119 7.56655085,14.5776822 8.50288136,15.5140127 C9.43926695,16.4503983 10.6842373,16.9661017 12.0084746,16.9661017 C13.3327119,16.9661017 14.5776822,16.4503983 15.5140127,15.5140678 C16.3192415,14.708839 16.8123051,13.6751737 16.9349237,12.559322 L19.3613517,12.559322 C19.2299746,14.2812712 18.5033517,15.952322 17.2278644,17.2278644 C15.8337246,18.6220593 13.9800678,19.3898305 12.0084746,19.3898305 C10.0368814,19.3898305 8.18322458,18.6220593 6.78908475,17.2278644 C5.39488983,15.8337246 4.62711864,13.9801229 4.62711864,12.0084746 C4.62711864,10.0368263 5.39488983,8.18322458 6.78908475,6.78908475 C9.10165254,4.47651695 12.7141102,3.96411864 15.5738898,5.54301271 C15.8401695,5.68997881 16.1753051,5.59336017 16.3223814,5.32702542 C16.4694025,5.06069068 16.3727288,4.72561017 16.1063941,4.5785339 C14.5284915,3.70736864 12.6705381,3.36016949 10.8749407,3.60111017 C9.01941102,3.84998305 7.33712288,4.68297458 6.01007627,6.01007627 C4.40782627,7.61232627 3.52542373,9.74256356 3.52542373,12.0084746 C3.52542373,14.2743856 4.40782627,16.404678 6.01002119,18.0068729 C7.61227119,19.6091229 9.74256356,20.4915254 12.0084746,20.4915254 C14.2743856,20.4915254 16.404678,19.6091229 18.0068729,18.006928 C19.3088008,16.7050551 20.1347415,15.0612712 20.4006356,13.2474958 L21.8606568,14.7075169 C21.9639407,14.8108008 22.1040763,14.8688602 22.250161,14.8688602 L22.5352797,14.8688602 C22.039572,16.6996017 21.0737712,18.367678 19.7207246,19.7207246 Z M13.8075424,10.9697966 C13.6554534,10.7062712 13.3185551,10.6160424 13.0550847,10.7681864 L11.7330508,11.5314407 C11.5626186,11.629822 11.4576271,11.8116568 11.4576271,12.0084746 C11.4576271,12.2052924 11.5626186,12.3871271 11.7330508,12.4855085 L13.0550847,13.2487627 C13.1418432,13.2988347 13.2365339,13.3226314 13.3300127,13.3226314 C13.5203856,13.3226314 13.7055254,13.2238644 13.8075424,13.0471525 C13.8969449,12.8923644 13.9020678,12.7124025 13.8381144,12.559322 L15.8251314,12.559322 C15.7084068,13.38025 15.3317924,14.1382712 14.7350042,14.7350042 L14.7350042,14.7350042 C14.0067288,15.4633347 13.0384492,15.8644068 12.0084746,15.8644068 C10.9785,15.8644068 10.0102203,15.4633347 9.28188983,14.7350042 C8.55361441,14.0067288 8.15254237,13.0384492 8.15254237,12.0084746 C8.15254237,10.9785 8.55361441,10.0102203 9.28194492,9.28188983 C10.0102203,8.55361441 10.9785,8.15254237 12.0084746,8.15254237 C13.0384492,8.15254237 14.0067288,8.55361441 14.7350593,9.28194492 C15.3317924,9.87867797 15.7084619,10.6366992 15.8251864,11.4576271 L13.8381695,11.4576271 C13.9020678,11.3044915 13.8969449,11.1245847 13.8075424,10.9697966 Z M22.478322,13.7671102 L21.2705339,12.559322 L25.1148432,12.559322 L26.3226864,13.7671102 L22.478322,13.7671102 Z" id="goal"></path>
                            </g>
                        </g>
                    </g>
                </g>
            </g>
        </g>
    </g>
</svg>