<?xml version="1.0" encoding="UTF-8"?>
<svg width="18px" height="18px" viewBox="0 0 18 18" version="1.1" xmlns="http://www.w3.org/2000/svg" xmlns:xlink="http://www.w3.org/1999/xlink">
    <!-- Generator: Sketch 53.2 (72643) - https://sketchapp.com -->
    <title>Path</title>
    <desc>Created with Sketch.</desc>
    <g id="Page-1" stroke="none" stroke-width="1" fill="none" fill-rule="evenodd">
        <g id="3-Coupons-list" transform="translate(-1198.000000, -631.000000)" fill="#666666" fill-rule="nonzero">
            <g id="detail" transform="translate(250.000000, 623.000000)">
                <g id="cancel-music" transform="translate(948.000000, 8.000000)">
                    <path d="M11.1392733,9.00003169 L17.5569349,2.58237013 C18.1476884,1.99161667 18.1476884,1.03381855 17.5569349,0.443149605 C16.9661815,-0.14760385 16.0084678,-0.14760385 15.4177144,0.443149605 L8.99996831,6.86089568 L2.58222223,0.443065091 C1.99146877,-0.147688364 1.03375516,-0.147688364 0.443001706,0.443065091 C-0.147667235,1.03381855 -0.147667235,1.99161667 0.443001706,2.58228561 L6.86074779,8.99994718 L0.443001706,15.4176933 C-0.147667235,16.0084467 -0.147667235,16.9662448 0.443001706,17.5569138 C1.03375516,18.1476672 1.99146877,18.1476672 2.58222223,17.5569138 L8.99996831,11.1391677 L15.4177144,17.5569138 C16.0083833,18.1476672 16.9661815,18.1476672 17.5569349,17.5569138 C18.1476884,16.9661603 18.1476884,16.0084467 17.5569349,15.4176933 L11.1392733,9.00003169 Z" id="Path"></path>
                </g>
            </g>
        </g>
    </g>
</svg>