<?xml version="1.0" encoding="UTF-8"?>
<svg width="20px" height="12px" viewBox="0 0 20 12" version="1.1" xmlns="http://www.w3.org/2000/svg" xmlns:xlink="http://www.w3.org/1999/xlink">
    <!-- Generator: Sketch 53.2 (72643) - https://sketchapp.com -->
    <title>group copy</title>
    <desc>Created with Sketch.</desc>
    <g id="Symbols" stroke="none" stroke-width="1" fill="none" fill-rule="evenodd">
        <g id="requests" transform="translate(0.000000, -4.000000)" fill="#666666" fill-rule="nonzero">
            <g id="group" transform="translate(0.000000, 4.000000)">
                <path d="M13.9048785,4.16411513 C13.9048785,3.1761584 14.7091243,2.3759951 15.6929986,2.37191264 L16.0236783,2.37191264 C17.0075526,2.37191264 17.8117983,3.17207593 17.8117983,4.16003266 L17.8117983,5.69912227 C17.8117983,5.98897734 17.6974893,6.25842009 17.5015309,6.46254338 L17.5015309,7.55256175 C17.8975301,7.7607675 18.7670953,8.24658093 19.579506,8.91202286 C19.8489488,9.13247602 20,9.45499081 20,9.80200041 L20,10.8552766 C20,11.0798122 19.8203715,11.2594407 19.5958359,11.2594407 L16.3584405,11.2594407 C16.1339049,11.2594407 15.9542764,11.0798122 15.9542764,10.8552766 C15.9542764,10.630741 16.1339049,10.4511125 16.3584405,10.4511125 L19.1916718,10.4511125 L19.1916718,9.80200041 C19.1916718,9.6958563 19.1467646,9.60195958 19.0691978,9.53664013 C18.1465605,8.78138396 17.1504389,8.27924066 16.958563,8.18534395 C16.7993468,8.1077771 16.6932027,7.940396 16.6932027,7.7607675 L16.6932027,6.27883241 C16.6932027,6.14411104 16.7585221,6.0175546 16.8728312,5.94407022 C16.9544805,5.89099816 17.0034701,5.80118392 17.0034701,5.70320474 L17.0034701,4.16411513 C17.0034701,3.62522964 16.5625638,3.18432333 16.0236783,3.18432333 L15.6929986,3.18432333 C15.1541131,3.18432333 14.7132068,3.62522964 14.7132068,4.16411513 L14.7132068,5.70320474 C14.7132068,5.80118392 14.7621964,5.89099816 14.8438457,5.94407022 C14.9540723,6.0175546 15.0234742,6.14411104 15.0234742,6.27883241 L15.0234742,6.98918147 C15.0234742,7.21371709 14.8438457,7.39334558 14.6193101,7.39334558 C14.3947744,7.39334558 14.2151459,7.21371709 14.2151459,6.98918147 L14.2151459,6.46662584 C14.0191876,6.26250255 13.9048785,5.99305981 13.9048785,5.70320474 L13.9048785,4.16411513 Z M0.404164115,11.2594407 C0.179628496,11.2594407 -3.5512633e-13,11.0798122 -3.55271368e-13,10.8552766 L-3.55271368e-13,9.80608287 C-3.55271368e-13,9.45907328 0.155133701,9.13655848 0.420493978,8.91610533 C1.23290467,8.24658093 2.09838743,7.76484997 2.49846908,7.55664421 L2.49846908,6.46662584 C2.30251072,6.26250255 2.18820167,5.99305981 2.18820167,5.70320474 L2.18820167,4.16411513 C2.18820167,3.18024087 2.98836497,2.3759951 3.9763217,2.3759951 L4.30700143,2.3759951 C5.29087569,2.3759951 6.09512145,3.1761584 6.09512145,4.16411513 L6.09512145,5.70320474 C6.09512145,5.99305981 5.98081241,6.26250255 5.78485405,6.46662584 L5.78485405,7.02184119 C5.78485405,7.24637681 5.60522556,7.42600531 5.38068994,7.42600531 C5.15615432,7.42600531 4.97652582,7.24637681 4.97652582,7.02184119 L4.97652582,6.27883241 C4.97652582,6.14411104 5.04184527,6.0175546 5.15615432,5.94407022 C5.23780363,5.89099816 5.28679322,5.80118392 5.28679322,5.70320474 L5.28679322,4.16411513 C5.28679322,3.62522964 4.84588692,3.18432333 4.30700143,3.18432333 L3.9763217,3.18432333 C3.43743621,3.18432333 2.9965299,3.62522964 2.9965299,4.16411513 L2.9965299,5.70320474 C2.9965299,5.80118392 3.04551949,5.89099816 3.12716881,5.94407022 C3.23739539,6.0175546 3.30679731,6.14411104 3.30679731,6.27883241 L3.30679731,7.7607675 C3.30679731,7.940396 3.20473566,8.1077771 3.04143703,8.18534395 C2.84956113,8.2751582 1.84935701,8.78138396 0.930802205,9.53664013 C0.853235354,9.60195958 0.80832823,9.69993876 0.80832823,9.80200041 L0.80832823,10.4511125 L3.69054909,10.4511125 C3.91508471,10.4511125 4.09471321,10.630741 4.09471321,10.8552766 C4.09471321,11.0798122 3.91508471,11.2594407 3.69054909,11.2594407 L0.404164115,11.2594407 Z M12.4270259,4.18452745 C12.4270259,4.54378445 12.2800572,4.88262911 12.0228618,5.12349459 L12.0228618,6.65441927 C12.5005103,6.89936722 13.6680955,7.54031435 14.7581139,8.43437436 C15.0765462,8.69565217 15.2561747,9.07940396 15.2561747,9.49173301 L15.2561747,10.8552766 C15.2561747,11.0798122 15.0765462,11.2594407 14.8520106,11.2594407 L5.17656665,11.2594407 C4.95203103,11.2594407 4.77240253,11.0798122 4.77240253,10.8552766 L4.77240253,9.49173301 C4.77240253,9.07940396 4.95203103,8.69565217 5.27046336,8.43437436 C6.36048173,7.53623188 7.52806695,6.89936722 8.00571545,6.65441927 L8.00571545,5.12349459 C7.75260257,4.87854664 7.6056338,4.54378445 7.6056338,4.18452745 L7.6056338,2.19636661 C7.6056338,0.98387426 8.58950806,-2.54907206e-13 9.80200041,-2.54907206e-13 L10.2306593,-2.54907206e-13 C11.4431517,-2.54907206e-13 12.4270259,0.98387426 12.4270259,2.19636661 L12.4270259,4.18452745 Z M14.2478057,9.05899163 C13.0475607,8.07511737 11.7452541,7.41375791 11.5003062,7.29128394 C11.3329251,7.20963462 11.2226985,7.03817106 11.2226985,6.85037763 L11.2226985,4.9316187 C11.2226985,4.79689733 11.288018,4.67034089 11.402327,4.5968565 C11.5411308,4.50704225 11.6227802,4.35190855 11.6227802,4.18860992 L11.6227802,2.20044907 C11.6227802,1.43702796 11.0022454,0.812410696 10.2347418,0.812410696 L9.80608287,0.812410696 C9.04266177,0.812410696 8.4180445,1.4329455 8.4180445,2.20044907 L8.4180445,4.18860992 C8.4180445,4.35190855 8.49969382,4.50295979 8.63849765,4.5968565 C8.74872423,4.67034089 8.81812615,4.79689733 8.81812615,4.9316187 L8.81812615,6.85037763 C8.81812615,7.03408859 8.70789957,7.20963462 8.54051847,7.29128394 C8.29148806,7.41375791 6.98918147,8.07103491 5.78893652,9.05899163 C5.65829761,9.16513574 5.58481323,9.32435191 5.58481323,9.49173301 L5.58481323,10.4511125 L14.451929,10.4511125 L14.451929,9.49173301 C14.451929,9.32435191 14.3784446,9.16513574 14.2478057,9.05899163 Z" id="Combined-Shape"></path>
            </g>
        </g>
    </g>
</svg>