<svg width="23" height="23" viewBox="0 0 23 23" fill="none" xmlns="http://www.w3.org/2000/svg">
<path fill-rule="evenodd" clip-rule="evenodd" d="M17.2105 16.2377L22.8011 21.8271C23.0663 22.0922 23.0663 22.5308 22.8011 22.796C22.6684 22.9337 22.4899 23 22.3165 23C22.143 23 21.9645 22.9286 21.8319 22.796L16.2413 17.2067C14.5172 18.706 12.2677 19.6137 9.80905 19.6137C4.40208 19.6137 0 15.2126 0 9.80687C0 4.40111 4.39698 0 9.80905 0C15.216 0 19.6181 4.39601 19.6181 9.80687C19.6181 12.265 18.7101 14.514 17.2105 16.2377ZM9.80395 1.37694C5.15702 1.37694 1.37214 5.15588 1.37214 9.80687C1.37214 14.4579 5.15702 18.2419 9.80395 18.2419C14.456 18.2419 18.2358 14.4528 18.2358 9.80687C18.2358 5.16098 14.456 1.37694 9.80395 1.37694Z" fill="#666666"/>
</svg>
