<?xml version="1.0" encoding="UTF-8"?>
<svg width="20px" height="26px" viewBox="0 0 20 26" version="1.1" xmlns="http://www.w3.org/2000/svg" xmlns:xlink="http://www.w3.org/1999/xlink">
    <!-- Generator: Sketch 53.2 (72643) - https://sketchapp.com -->
    <title>hourgalss</title>
    <desc>Created with Sketch.</desc>
    <g id="Page-1" stroke="none" stroke-width="1" fill="none" fill-rule="evenodd">
        <g id="Edit-challenge" transform="translate(-326.000000, -3650.000000)" fill="#000000" fill-rule="nonzero">
            <g id="challenge-edit" transform="translate(248.000000, 454.000000)">
                <g id="Group-6" transform="translate(18.000000, 2602.000000)">
                    <g id="show-map" transform="translate(0.000000, 478.000000)">
                        <g id="Group-9" transform="translate(1.000000, 105.000000)">
                            <path d="M77.6333333,34.4 C78.3500667,34.4 78.9333333,34.9832667 78.9333333,35.7 C78.9333333,36.4167333 78.3500667,37 77.6333333,37 L60.3,37 C59.5832667,37 59,36.4167333 59,35.7 C59,34.9832667 59.5832667,34.4 60.3,34.4 L62.4666667,34.4 L62.4666667,31.8 C62.4666667,28.5105667 64.2637,25.5426667 67.1094,24 C64.2637,22.4573333 62.4666667,19.4894333 62.4666667,16.2 L62.4666667,13.6 L60.3,13.6 C59.5832667,13.6 59,13.0167333 59,12.3 C59,11.5832667 59.5832667,11 60.3,11 L77.6333333,11 C78.3500667,11 78.9333333,11.5832667 78.9333333,12.3 C78.9333333,13.0167333 78.3500667,13.6 77.6333333,13.6 L75.4666667,13.6 L75.4666667,16.2 C75.4666667,19.4894333 73.6696333,22.4573333 70.8239333,24 C73.6696333,25.5426667 75.4666667,28.5105667 75.4666667,31.8 L75.4666667,34.4 L77.6333333,34.4 Z M63.3333333,16.2 C63.3333333,19.4183667 65.2361,22.3004667 68.1875333,23.5666667 L69.7453667,23.5666667 C72.6972333,22.3004667 74.6,19.4183667 74.6,16.2 L74.6,13.6 L63.3333333,13.6 L63.3333333,16.2 Z M63.3333333,31.8 L63.3333333,34.4 C63.3333333,34.1608 63.5274667,33.9666667 63.7666667,33.9666667 C64.0058667,33.9666667 64.2,34.1608 64.2,34.4 L65.0666667,34.4 C65.0666667,34.1608 65.2608,33.9666667 65.5,33.9666667 C65.7392,33.9666667 65.9333333,34.1608 65.9333333,34.4 L66.8,34.4 C66.8,34.1608 66.9941333,33.9666667 67.2333333,33.9666667 C67.4725333,33.9666667 67.6666667,34.1608 67.6666667,34.4 L68.5333333,34.4 C68.5333333,34.1608 68.7274667,33.9666667 68.9666667,33.9666667 C69.2058667,33.9666667 69.4,34.1608 69.4,34.4 L70.2666667,34.4 C70.2666667,34.1608 70.4608,33.9666667 70.7,33.9666667 C70.9392,33.9666667 71.1333333,34.1608 71.1333333,34.4 L72,34.4 C72,34.1608 72.1941333,33.9666667 72.4333333,33.9666667 C72.6725333,33.9666667 72.8666667,34.1608 72.8666667,34.4 L73.7333333,34.4 C73.7333333,34.1608 73.9274667,33.9666667 74.1666667,33.9666667 C74.4058667,33.9666667 74.6,34.1608 74.6,34.4 L74.6,31.8 C74.6,28.5816333 72.6972333,25.6995333 69.7458,24.4333333 L68.1879667,24.4333333 C65.2361,25.6995333 63.3333333,28.5816333 63.3333333,31.8 Z M64.6333333,33.9666667 C64.3940099,33.9666667 64.2,33.7726567 64.2,33.5333333 C64.2,33.2940099 64.3940099,33.1 64.6333333,33.1 C64.8726567,33.1 65.0666667,33.2940099 65.0666667,33.5333333 C65.0666667,33.7726567 64.8726567,33.9666667 64.6333333,33.9666667 Z M66.3666667,33.9666667 C66.1273433,33.9666667 65.9333333,33.7726567 65.9333333,33.5333333 C65.9333333,33.2940099 66.1273433,33.1 66.3666667,33.1 C66.6059901,33.1 66.8,33.2940099 66.8,33.5333333 C66.8,33.7726567 66.6059901,33.9666667 66.3666667,33.9666667 Z M68.1,33.9666667 C67.8606766,33.9666667 67.6666667,33.7726567 67.6666667,33.5333333 C67.6666667,33.2940099 67.8606766,33.1 68.1,33.1 C68.3393234,33.1 68.5333333,33.2940099 68.5333333,33.5333333 C68.5333333,33.7726567 68.3393234,33.9666667 68.1,33.9666667 Z M69.8333333,33.9666667 C69.5940099,33.9666667 69.4,33.7726567 69.4,33.5333333 C69.4,33.2940099 69.5940099,33.1 69.8333333,33.1 C70.0726567,33.1 70.2666667,33.2940099 70.2666667,33.5333333 C70.2666667,33.7726567 70.0726567,33.9666667 69.8333333,33.9666667 Z M71.5666667,33.9666667 C71.3273433,33.9666667 71.1333333,33.7726567 71.1333333,33.5333333 C71.1333333,33.2940099 71.3273433,33.1 71.5666667,33.1 C71.8059901,33.1 72,33.2940099 72,33.5333333 C72,33.7726567 71.8059901,33.9666667 71.5666667,33.9666667 Z M73.3,33.9666667 C73.0606766,33.9666667 72.8666667,33.7726567 72.8666667,33.5333333 C72.8666667,33.2940099 73.0606766,33.1 73.3,33.1 C73.5393234,33.1 73.7333333,33.2940099 73.7333333,33.5333333 C73.7333333,33.7726567 73.5393234,33.9666667 73.3,33.9666667 Z M65.5,33.1 C65.2606766,33.1 65.0666667,32.9059901 65.0666667,32.6666667 C65.0666667,32.4273433 65.2606766,32.2333333 65.5,32.2333333 C65.7393234,32.2333333 65.9333333,32.4273433 65.9333333,32.6666667 C65.9333333,32.9059901 65.7393234,33.1 65.5,33.1 Z M67.2333333,33.1 C66.9940099,33.1 66.8,32.9059901 66.8,32.6666667 C66.8,32.4273433 66.9940099,32.2333333 67.2333333,32.2333333 C67.4726567,32.2333333 67.6666667,32.4273433 67.6666667,32.6666667 C67.6666667,32.9059901 67.4726567,33.1 67.2333333,33.1 Z M68.9666667,25.7333333 C68.7273433,25.7333333 68.5333333,25.5393234 68.5333333,25.3 C68.5333333,25.0606766 68.7273433,24.8666667 68.9666667,24.8666667 C69.2059901,24.8666667 69.4,25.0606766 69.4,25.3 C69.4,25.5393234 69.2059901,25.7333333 68.9666667,25.7333333 Z M66.3666667,20.9666667 C66.1273433,20.9666667 65.9333333,20.7726567 65.9333333,20.5333333 C65.9333333,20.2940099 66.1273433,20.1 66.3666667,20.1 C66.6059901,20.1 66.8,20.2940099 66.8,20.5333333 C66.8,20.7726567 66.6059901,20.9666667 66.3666667,20.9666667 Z M68.1,20.9666667 C67.8606766,20.9666667 67.6666667,20.7726567 67.6666667,20.5333333 C67.6666667,20.2940099 67.8606766,20.1 68.1,20.1 C68.3393234,20.1 68.5333333,20.2940099 68.5333333,20.5333333 C68.5333333,20.7726567 68.3393234,20.9666667 68.1,20.9666667 Z M69.8333333,20.9666667 C69.5940099,20.9666667 69.4,20.7726567 69.4,20.5333333 C69.4,20.2940099 69.5940099,20.1 69.8333333,20.1 C70.0726567,20.1 70.2666667,20.2940099 70.2666667,20.5333333 C70.2666667,20.7726567 70.0726567,20.9666667 69.8333333,20.9666667 Z M71.5666667,20.9666667 C71.3273433,20.9666667 71.1333333,20.7726567 71.1333333,20.5333333 C71.1333333,20.2940099 71.3273433,20.1 71.5666667,20.1 C71.8059901,20.1 72,20.2940099 72,20.5333333 C72,20.7726567 71.8059901,20.9666667 71.5666667,20.9666667 Z M70.7,20.1 C70.4606766,20.1 70.2666667,19.9059901 70.2666667,19.6666667 C70.2666667,19.4273433 70.4606766,19.2333333 70.7,19.2333333 C70.9393234,19.2333333 71.1333333,19.4273433 71.1333333,19.6666667 C71.1333333,19.9059901 70.9393234,20.1 70.7,20.1 Z M71.5666667,19.2333333 C71.3273433,19.2333333 71.1333333,19.0393234 71.1333333,18.8 C71.1333333,18.5606766 71.3273433,18.3666667 71.5666667,18.3666667 C71.8059901,18.3666667 72,18.5606766 72,18.8 C72,19.0393234 71.8059901,19.2333333 71.5666667,19.2333333 Z M67.2333333,20.1 C66.9940099,20.1 66.8,19.9059901 66.8,19.6666667 C66.8,19.4273433 66.9940099,19.2333333 67.2333333,19.2333333 C67.4726567,19.2333333 67.6666667,19.4273433 67.6666667,19.6666667 C67.6666667,19.9059901 67.4726567,20.1 67.2333333,20.1 Z M68.9666667,20.1 C68.7273433,20.1 68.5333333,19.9059901 68.5333333,19.6666667 C68.5333333,19.4273433 68.7273433,19.2333333 68.9666667,19.2333333 C69.2059901,19.2333333 69.4,19.4273433 69.4,19.6666667 C69.4,19.9059901 69.2059901,20.1 68.9666667,20.1 Z M66.3666667,19.2333333 C66.1273433,19.2333333 65.9333333,19.0393234 65.9333333,18.8 C65.9333333,18.5606766 66.1273433,18.3666667 66.3666667,18.3666667 C66.6059901,18.3666667 66.8,18.5606766 66.8,18.8 C66.8,19.0393234 66.6059901,19.2333333 66.3666667,19.2333333 Z M67.2333333,21.8333333 C66.9940099,21.8333333 66.8,21.6393234 66.8,21.4 C66.8,21.1606766 66.9940099,20.9666667 67.2333333,20.9666667 C67.4726567,20.9666667 67.6666667,21.1606766 67.6666667,21.4 C67.6666667,21.6393234 67.4726567,21.8333333 67.2333333,21.8333333 Z M68.1,22.7 C67.8606766,22.7 67.6666667,22.5059901 67.6666667,22.2666667 C67.6666667,22.0273433 67.8606766,21.8333333 68.1,21.8333333 C68.3393234,21.8333333 68.5333333,22.0273433 68.5333333,22.2666667 C68.5333333,22.5059901 68.3393234,22.7 68.1,22.7 Z M69.8333333,22.7 C69.5940099,22.7 69.4,22.5059901 69.4,22.2666667 C69.4,22.0273433 69.5940099,21.8333333 69.8333333,21.8333333 C70.0726567,21.8333333 70.2666667,22.0273433 70.2666667,22.2666667 C70.2666667,22.5059901 70.0726567,22.7 69.8333333,22.7 Z M68.9666667,21.8333333 C68.7273433,21.8333333 68.5333333,21.6393234 68.5333333,21.4 C68.5333333,21.1606766 68.7273433,20.9666667 68.9666667,20.9666667 C69.2059901,20.9666667 69.4,21.1606766 69.4,21.4 C69.4,21.6393234 69.2059901,21.8333333 68.9666667,21.8333333 Z M70.7,21.8333333 C70.4606766,21.8333333 70.2666667,21.6393234 70.2666667,21.4 C70.2666667,21.1606766 70.4606766,20.9666667 70.7,20.9666667 C70.9393234,20.9666667 71.1333333,21.1606766 71.1333333,21.4 C71.1333333,21.6393234 70.9393234,21.8333333 70.7,21.8333333 Z M68.9666667,27.0333333 C68.7273433,27.0333333 68.5333333,26.8393234 68.5333333,26.6 C68.5333333,26.3606766 68.7273433,26.1666667 68.9666667,26.1666667 C69.2059901,26.1666667 69.4,26.3606766 69.4,26.6 C69.4,26.8393234 69.2059901,27.0333333 68.9666667,27.0333333 Z M68.9666667,28.3333333 C68.7273433,28.3333333 68.5333333,28.1393234 68.5333333,27.9 C68.5333333,27.6606766 68.7273433,27.4666667 68.9666667,27.4666667 C69.2059901,27.4666667 69.4,27.6606766 69.4,27.9 C69.4,28.1393234 69.2059901,28.3333333 68.9666667,28.3333333 Z M68.9666667,29.6333333 C68.7273433,29.6333333 68.5333333,29.4393234 68.5333333,29.2 C68.5333333,28.9606766 68.7273433,28.7666667 68.9666667,28.7666667 C69.2059901,28.7666667 69.4,28.9606766 69.4,29.2 C69.4,29.4393234 69.2059901,29.6333333 68.9666667,29.6333333 Z M68.9666667,30.9333333 C68.7273433,30.9333333 68.5333333,30.7393234 68.5333333,30.5 C68.5333333,30.2606766 68.7273433,30.0666667 68.9666667,30.0666667 C69.2059901,30.0666667 69.4,30.2606766 69.4,30.5 C69.4,30.7393234 69.2059901,30.9333333 68.9666667,30.9333333 Z M68.9666667,32.2333333 C68.7273433,32.2333333 68.5333333,32.0393234 68.5333333,31.8 C68.5333333,31.5606766 68.7273433,31.3666667 68.9666667,31.3666667 C69.2059901,31.3666667 69.4,31.5606766 69.4,31.8 C69.4,32.0393234 69.2059901,32.2333333 68.9666667,32.2333333 Z M70.7,33.1 C70.4606766,33.1 70.2666667,32.9059901 70.2666667,32.6666667 C70.2666667,32.4273433 70.4606766,32.2333333 70.7,32.2333333 C70.9393234,32.2333333 71.1333333,32.4273433 71.1333333,32.6666667 C71.1333333,32.9059901 70.9393234,33.1 70.7,33.1 Z M72.4333333,33.1 C72.1940099,33.1 72,32.9059901 72,32.6666667 C72,32.4273433 72.1940099,32.2333333 72.4333333,32.2333333 C72.6726567,32.2333333 72.8666667,32.4273433 72.8666667,32.6666667 C72.8666667,32.9059901 72.6726567,33.1 72.4333333,33.1 Z" id="hourgalss"></path>
                        </g>
                    </g>
                </g>
            </g>
        </g>
    </g>
</svg>