<svg width="18" height="20" viewBox="0 0 18 20" fill="none" xmlns="http://www.w3.org/2000/svg">
<path fill-rule="evenodd" clip-rule="evenodd" d="M8.4347 10.7743H8.50095H8.5258H8.5672C9.78045 10.7536 10.7618 10.3271 11.4865 9.51139C13.0807 7.71429 12.8157 4.63354 12.7867 4.33954C12.6831 2.1325 11.6397 1.0766 10.7784 0.583851C10.1366 0.215321 9.38708 0.0165631 8.55064 0H8.52166H8.50509H8.48025C8.02062 0 7.11793 0.0745342 6.2525 0.567288C5.38294 1.06004 4.3229 2.11594 4.21938 4.33954C4.19039 4.63354 3.92538 7.71429 5.51958 9.51139C6.24008 10.3271 7.22145 10.7536 8.4347 10.7743ZM5.32735 4.42325L5.32735 4.42324C5.32827 4.41822 5.32911 4.41366 5.32911 4.40994C5.46575 1.44099 7.57341 1.12215 8.47611 1.12215H8.49267H8.5258C9.64381 1.147 11.5444 1.60248 11.6728 4.40994C11.6728 4.42236 11.6728 4.43478 11.6769 4.44306C11.6811 4.47205 11.9709 7.28778 10.6542 8.77019C10.1324 9.35818 9.43677 9.64803 8.52166 9.65631H8.50095H8.48025C7.56927 9.64803 6.86948 9.35818 6.35188 8.77019C5.03925 7.29607 5.32083 4.46791 5.32497 4.44306C5.32497 4.43623 5.32622 4.42939 5.32735 4.42325ZM17.0103 15.8716V15.8841C17.0144 16.0994 17.0185 17.205 16.8115 17.7557C16.7701 17.8634 16.6914 17.9545 16.5962 18.0166L16.5944 18.0177C16.4463 18.1116 13.4733 19.9959 8.51337 19.9959C3.53201 19.9959 0.554781 18.0994 0.430558 18.0166C0.331179 17.9545 0.256645 17.8634 0.215237 17.7557C-0.0042249 17.2008 -8.41203e-05 16.0952 0.00405667 15.8799V15.8675C0.00819745 15.8344 0.00819745 15.8012 0.00819745 15.764L0.0083876 15.7577C0.0333272 14.9385 0.0914426 13.0295 1.88397 12.4141C1.8964 12.4099 1.90882 12.4058 1.92538 12.4017C3.80116 11.9255 5.34567 10.8489 5.36223 10.8364C5.61482 10.6584 5.96265 10.7205 6.1407 10.9731C6.31876 11.2257 6.25664 11.5735 6.00406 11.7516C6.0009 11.7536 5.99457 11.7579 5.98517 11.7642C5.78498 11.8991 4.19313 12.972 2.22352 13.4783C1.25872 13.8219 1.15105 14.853 1.12207 15.7971C1.12207 15.8163 1.12097 15.8344 1.11991 15.8519C1.1189 15.8685 1.11793 15.8845 1.11793 15.9006C1.10965 16.2733 1.13863 16.8489 1.20488 17.1801C1.87983 17.5611 4.5258 18.882 8.50923 18.882C12.5092 18.882 15.1386 17.5652 15.8094 17.1843C15.8757 16.853 15.9005 16.2774 15.8964 15.9048C15.8923 15.8716 15.8923 15.8385 15.8923 15.8012C15.8633 14.8571 15.7556 13.8261 14.7908 13.4824C12.7287 12.9524 11.0807 11.8054 11.0103 11.7557C10.7577 11.5776 10.6956 11.2298 10.8736 10.9772C11.0517 10.7246 11.3995 10.6625 11.6521 10.8406C11.6687 10.853 13.2214 11.9296 15.0889 12.4058C15.0952 12.4079 15.1024 12.4099 15.1096 12.412C15.1169 12.4141 15.1241 12.4161 15.1304 12.4182C16.9232 13.0296 16.981 14.9391 17.0059 15.7622L17.0061 15.7681C17.0061 15.7873 17.0072 15.8054 17.0083 15.8229C17.0093 15.8395 17.0103 15.8556 17.0103 15.8716Z" fill="#666666"/>
</svg>
