<?xml version="1.0" encoding="UTF-8"?>
<svg width="21px" height="21px" viewBox="0 0 21 21" version="1.1" xmlns="http://www.w3.org/2000/svg" xmlns:xlink="http://www.w3.org/1999/xlink">
    <!-- Generator: Sketch 53.2 (72643) - https://sketchapp.com -->
    <title>Combined Shape</title>
    <desc>Created with Sketch.</desc>
    <g id="Page-1" stroke="none" stroke-width="1" fill="none" fill-rule="evenodd">
        <g id="19-Communities" transform="translate(-1053.000000, -1219.000000)" fill="#979797" fill-rule="nonzero">
            <g id="Group" transform="translate(269.000000, 1143.000000)">
                <path d="M795.110516,84.9942482 C795.341259,84.7465624 795.715673,84.7465624 795.942063,84.9942482 C797.352646,86.508403 797.352646,88.9759144 795.942063,90.4900692 L790.935365,95.8643839 C790.230074,96.6214613 789.302746,97 788.375419,97 C787.448091,97 786.520764,96.6214613 785.815472,95.8643839 L785.062291,95.0559001 C784.374414,94.3221893 784,93.345466 784,92.3079896 C784,91.2705132 784.378768,90.2937899 785.062291,89.5600791 L790.068989,84.1857644 C790.299732,83.9380785 790.669792,83.9380785 790.900536,84.1857644 C791.131279,84.4334502 791.131279,84.8306821 790.900536,85.0783679 L785.893838,90.4526827 C784.940388,91.4761391 784.940388,93.13984 785.893838,94.1632965 L786.647019,94.9717804 C787.600469,95.9952368 789.150368,95.9952368 790.103818,94.9717804 L795.110516,89.5974656 C796.063965,88.5740092 796.063965,86.9103083 795.110516,85.8868518 C794.879772,85.639166 794.879772,85.241934 795.110516,84.9942482 Z M803.941709,77.9439252 C804.625461,78.6775701 805,79.6542056 805,80.6915888 C805,81.728972 804.621106,82.7056075 803.937353,83.4392523 L798.928978,88.8130841 C798.815745,88.9392523 798.663317,89 798.515243,89 C798.367169,89 798.21474,88.9345794 798.101508,88.8130841 C797.870687,88.5654206 797.870687,88.1682243 798.101508,87.9205607 L803.109883,82.546729 C804.063652,81.5233645 804.063652,79.8598131 803.109883,78.8364486 L802.356449,78.0280374 C801.40268,77.0046729 799.852261,77.0046729 798.898492,78.0280374 L793.890117,83.4018692 C792.936348,84.4252336 792.936348,86.088785 793.890117,87.1121495 C794.120938,87.3598131 794.120938,87.7570093 793.890117,88.0046729 C793.659296,88.2523364 793.289112,88.2523364 793.058291,88.0046729 C791.647236,86.4906542 791.647236,84.0233645 793.058291,82.5093458 L798.066667,77.135514 C799.477722,75.6214953 801.777219,75.6214953 803.188275,77.135514 L803.941709,77.9439252 Z" id="Combined-Shape"></path>
            </g>
        </g>
    </g>
</svg>