<?xml version="1.0" encoding="UTF-8"?>
<svg width="21px" height="21px" viewBox="0 0 21 21" version="1.1" xmlns="http://www.w3.org/2000/svg" xmlns:xlink="http://www.w3.org/1999/xlink">
    <!-- Generator: Sketch 53.2 (72643) - https://sketchapp.com -->
    <title>Artboard</title>
    <desc>Created with Sketch.</desc>
    <g id="Artboard" stroke="none" stroke-width="1" fill="none" fill-rule="evenodd">
        <g id="link" fill="#FA6400" fill-rule="nonzero">
            <g id="attachment-copy" transform="translate(0.000000, 2.000000)">
                <path d="M18.60941,1.86747 C16.11937,-0.62249 12.06769,-0.62249 9.57749,1.86747 L1.30353,10.14155 C-0.43451,11.87971 -0.43451,14.70779 1.30353,16.44583 C3.04145,18.18375 5.86949,18.18375 7.60773,16.44583 L15.88173,8.17147 C16.86769,7.18535 16.86765,5.58103 15.88177,4.59527 C15.40421,4.11759 14.76917,3.85447 14.09369,3.85447 C13.41825,3.85447 12.78317,4.11751 12.30545,4.59519 L5.39465,11.50599 C5.16029,11.74031 5.16029,12.12027 5.39465,12.35459 C5.62897,12.58891 6.00893,12.58891 6.24325,12.35459 L13.15401,5.44383 C13.40505,5.19283 13.73881,5.05463 14.09369,5.05463 C14.44857,5.05463 14.78217,5.19279 15.03305,5.44383 C15.55105,5.96175 15.55105,6.80475 15.03305,7.32287 L6.75921,15.59719 C5.48897,16.86723 3.42229,16.86719 2.15221,15.59723 C0.88209,14.32711 0.88213,12.26039 2.15221,10.99019 L10.42617,2.71611 C12.44837,0.69407 15.73877,0.69403 17.76089,2.71607 C18.74049,3.69567 19.27997,4.99807 19.27997,6.38339 C19.28001,7.76875 18.74053,9.07119 17.76089,10.05075 L10.85029,16.96155 C10.61593,17.19591 10.61593,17.57583 10.85029,17.81015 C10.96745,17.92735 11.12101,17.98591 11.27457,17.98591 C11.42813,17.98591 11.58173,17.92731 11.69885,17.81015 L18.60941,10.89927 C19.81569,9.69307 20.48005,8.08923 20.48001,6.38331 C20.48001,4.67747 19.81573,3.07367 18.60941,1.86747 Z" id="Path"></path>
            </g>
        </g>
    </g>
</svg>