<?xml version="1.0" encoding="UTF-8"?>
<svg width="8px" height="12px" viewBox="0 0 8 12" version="1.1" xmlns="http://www.w3.org/2000/svg" xmlns:xlink="http://www.w3.org/1999/xlink">
    <!-- Generator: Sketch 53.2 (72643) - https://sketchapp.com -->
    <title>location</title>
    <desc>Created with Sketch.</desc>
    <g id="Symbols" stroke="none" stroke-width="1" fill="none" fill-rule="evenodd">
        <g id="past--challenge" transform="translate(-445.000000, -50.000000)" fill="#999999" fill-rule="nonzero">
            <g id="challenge">
                <g id="Group" transform="translate(120.000000, 46.000000)">
                    <path d="M329,6 C330.102571,6 331,6.89742857 331,8 C331,9.10257143 330.102571,10 329,10 C327.897429,10 327,9.10257143 327,8 C327,6.89742857 327.897429,6 329,6 Z M329,9 C329.5514,9 330,8.5514 330,8 C330,7.4486 329.5514,7 329,7 C328.4486,7 328,7.4486 328,8 C328,8.5514 328.4486,9 329,9 Z M331.829013,5.2309659 C333.227255,6.69970963 333.401018,9.46319192 332.200529,11.1442921 L329.000405,16 L325.795483,11.1374984 C324.599791,9.46319192 324.773554,6.69970963 326.171796,5.2309659 C326.927344,4.43720438 327.93175,4 329.000405,4 C330.068851,4 331.073466,4.43720438 331.829013,5.2309659 Z M331.86218,10.8881056 C332.951487,9.36216374 332.79608,6.86648282 331.534053,5.54084409 C330.857148,4.82992129 329.957459,4.43830013 329.000405,4.43830013 C328.043351,4.43830013 327.143661,4.82992129 326.466965,5.54084409 C325.204938,6.86648282 325.049531,9.36216374 326.13404,10.881312 L329.000405,15.2299067 L331.86218,10.8881056 Z" id="location"></path>
                </g>
            </g>
        </g>
    </g>
</svg>