<?xml version="1.0" encoding="UTF-8"?>
<svg width="23px" height="20px" viewBox="0 0 23 20" version="1.1" xmlns="http://www.w3.org/2000/svg" xmlns:xlink="http://www.w3.org/1999/xlink">
    <!-- Generator: Sketch 53.2 (72643) - https://sketchapp.com -->
    <title>locale</title>
    <desc>Created with Sketch.</desc>
    <g id="Symbols" stroke="none" stroke-width="1" fill="none" fill-rule="evenodd">
        <g id="Header" transform="translate(-1104.000000, -80.000000)" fill="#FFFFFF" fill-rule="nonzero">
            <g id="Nav">
                <g transform="translate(23.000000, 80.000000)">
                    <path d="M1100.62963,14.0996296 L1100.62963,9.62962963 L1092.48148,9.62962963 L1092.48148,5.90037037 C1093.94074,5.71703704 1095.07407,4.47111111 1095.07407,2.96296296 C1095.07407,1.32925926 1093.74481,0 1092.11111,0 C1090.47741,0 1089.14815,1.32925926 1089.14815,2.96296296 C1089.14815,4.47111111 1090.28148,5.71703704 1091.74074,5.90037037 L1091.74074,9.62962963 L1083.59259,9.62962963 L1083.59259,14.0996296 C1082.13333,14.282963 1081,15.5288889 1081,17.037037 C1081,18.6707407 1082.32926,20 1083.96296,20 C1085.59667,20 1086.92593,18.6707407 1086.92593,17.037037 C1086.92593,15.5288889 1085.79259,14.282963 1084.33333,14.0996296 L1084.33333,10.3703704 L1091.74074,10.3703704 L1091.74074,14.0996296 C1090.28148,14.282963 1089.14815,15.5288889 1089.14815,17.037037 C1089.14815,18.6707407 1090.47741,20 1092.11111,20 C1093.74481,20 1095.07407,18.6707407 1095.07407,17.037037 C1095.07407,15.5288889 1093.94074,14.282963 1092.48148,14.0996296 L1092.48148,10.3703704 L1099.88889,10.3703704 L1099.88889,14.0996296 C1098.42963,14.282963 1097.2963,15.5288889 1097.2963,17.037037 C1097.2963,18.6707407 1098.62556,20 1100.25926,20 C1101.89296,20 1103.22222,18.6707407 1103.22222,17.037037 C1103.22222,15.5288889 1102.08889,14.282963 1100.62963,14.0996296 Z M1089.88889,2.96296296 C1089.88889,1.73740741 1090.88556,0.740740741 1092.11111,0.740740741 C1093.33667,0.740740741 1094.33333,1.73740741 1094.33333,2.96296296 C1094.33333,4.18851852 1093.33667,5.18518519 1092.11111,5.18518519 C1090.88556,5.18518519 1089.88889,4.18851852 1089.88889,2.96296296 Z M1086.18519,17.037037 C1086.18519,18.2625926 1085.18852,19.2592593 1083.96296,19.2592593 C1082.73741,19.2592593 1081.74074,18.2625926 1081.74074,17.037037 C1081.74074,15.8114815 1082.73741,14.8148148 1083.96296,14.8148148 C1085.18852,14.8148148 1086.18519,15.8114815 1086.18519,17.037037 Z M1094.33333,17.037037 C1094.33333,18.2625926 1093.33667,19.2592593 1092.11111,19.2592593 C1090.88556,19.2592593 1089.88889,18.2625926 1089.88889,17.037037 C1089.88889,15.8114815 1090.88556,14.8148148 1092.11111,14.8148148 C1093.33667,14.8148148 1094.33333,15.8114815 1094.33333,17.037037 Z M1100.25926,19.2592593 C1099.0337,19.2592593 1098.03704,18.2625926 1098.03704,17.037037 C1098.03704,15.8114815 1099.0337,14.8148148 1100.25926,14.8148148 C1101.48481,14.8148148 1102.48148,15.8114815 1102.48148,17.037037 C1102.48148,18.2625926 1101.48481,19.2592593 1100.25926,19.2592593 Z" id="locale"></path>
                </g>
            </g>
        </g>
    </g>
</svg>