<svg xmlns="http://www.w3.org/2000/svg" xmlns:xlink="http://www.w3.org/1999/xlink" width="31.012" height="22.047" viewBox="0 0 31.012 22.047">
  <defs>
    <clipPath id="clip-path">
      <rect width="31.012" height="22.047" fill="none"/>
    </clipPath>
  </defs>
  <g id="Group_471" data-name="Group 471" transform="translate(-1124 -27)">
    <g id="mail" transform="translate(1124 27)" clip-path="url(#clip-path)">
      <g id="Group_421" data-name="Group 421" transform="translate(0 -4.482)">
        <path id="Path_255" data-name="Path 255" d="M25.109,21.51a.5.5,0,0,1-.342-.136l-5.754-5.4a.5.5,0,1,1,.685-.728l5.754,5.4a.5.5,0,0,1-.343.864Z" fill="#666"/>
        <path id="Path_256" data-name="Path 256" d="M5.9,21.51a.5.5,0,0,1-.343-.864l5.756-5.4a.5.5,0,1,1,.685.728l-5.756,5.4A.5.5,0,0,1,5.9,21.51Z" fill="#666"/>
      </g>
      <path id="Path_257" data-name="Path 257" d="M28.512,26.529H2.5a2.5,2.5,0,0,1-2.5-2.5V6.982a2.5,2.5,0,0,1,2.5-2.5H28.512a2.5,2.5,0,0,1,2.5,2.5V24.029A2.5,2.5,0,0,1,28.512,26.529ZM2.5,5.482A1.5,1.5,0,0,0,1,6.982V24.029a1.5,1.5,0,0,0,1.5,1.5H28.512a1.5,1.5,0,0,0,1.5-1.5V6.982a1.5,1.5,0,0,0-1.5-1.5Z" transform="translate(0 -4.482)" fill="#666"/>
      <path id="Path_258" data-name="Path 258" d="M15.506,18.018a2.8,2.8,0,0,1-1.836-.662L.83,6.155A.5.5,0,1,1,1.487,5.4l12.84,11.2a1.871,1.871,0,0,0,2.357,0L29.508,5.419a.5.5,0,1,1,.658.754L17.342,17.355A2.794,2.794,0,0,1,15.506,18.018Z" transform="translate(0 -4.482)" fill="#666"/>
    </g>
  </g>
</svg>
