<svg id="male" xmlns="http://www.w3.org/2000/svg" width="109" height="96" viewBox="0 0 109 96">
  <rect id="Rectangle" width="109" height="96" rx="3" fill="#fff"/>
  <text id="Male-2" data-name="Male" transform="translate(38 79)" fill="#6d7278" font-size="14" font-family="Poppins-Regular, Poppins"><tspan x="0" y="0">Male</tspan></text>
  <path id="Combined_Shape" data-name="Combined Shape" d="M.781,40A.782.782,0,0,1,0,39.218V31.7a7.114,7.114,0,0,1,2.974-5.467,10.851,10.851,0,0,1,6.113-2.358l2.156-1.937A10.218,10.218,0,0,1,7.109,13.75V8.594A8.565,8.565,0,0,1,15.675,0H18.8a8.618,8.618,0,0,1,8.621,8.594V13.75a10.2,10.2,0,0,1-4.188,8.2l2.139,1.922a10.849,10.849,0,0,1,6.115,2.361A7.117,7.117,0,0,1,34.46,31.7v7.518a.782.782,0,0,1-.781.781Zm19.61-5.893.986,4.331H32.9V31.7a5.609,5.609,0,0,0-2.383-4.237,9.351,9.351,0,0,0-4.948-2.012l-2.923,6.567a.787.787,0,0,1-.45.418.771.771,0,0,1-.264.046.787.787,0,0,1-.349-.082l-.509-.256Zm-5.735,4.331h5.119l-.819-3.594H15.5ZM3.946,27.464A5.608,5.608,0,0,0,1.562,31.7v6.737H13.052l1.019-4.343-.634-1.974-.557.279a.8.8,0,0,1-.349.082.774.774,0,0,1-.264-.046.787.787,0,0,1-.45-.418L8.894,25.451A9.351,9.351,0,0,0,3.946,27.464Zm10.905,3.95.6,1.868h3.573l.638-1.841-2.431-1.216Zm3.5-2.377,3.2,1.6,2.575-5.785L22.1,23.035Zm-8.011-4.185,2.575,5.785,3.2-1.6-3.752-6Zm6.893,3.025,2.71-4.336a10.155,10.155,0,0,1-5.425-.007ZM8.672,11.944V13.75a8.594,8.594,0,0,0,17.188,0V11.979L23.624,8.76a9.31,9.31,0,0,1-6.394,2.178,9.313,9.313,0,0,1-6.389-2.174Zm2.6-4.918a7.71,7.71,0,0,0,5.963,2.349,7.706,7.706,0,0,0,5.962-2.349.784.784,0,0,1,.558-.235l.066,0a.781.781,0,0,1,.577.333L25.86,9.239V8.594A7.053,7.053,0,0,0,18.8,1.562H15.675a7.026,7.026,0,0,0-7,7.032v.579l1.392-2.04a.78.78,0,0,1,.577-.338l.067,0A.787.787,0,0,1,11.268,7.026Zm18.419,28.6a.781.781,0,1,1,.781.781A.782.782,0,0,1,29.687,35.625Zm-5.425.781a.781.781,0,1,1,0-1.562h3.125a.781.781,0,1,1,0,1.562ZM15.142,19.433a.782.782,0,0,1,.667-1.414,3.35,3.35,0,0,0,2.817.013.782.782,0,1,1,.653,1.42,4.922,4.922,0,0,1-4.137-.019Zm5.214-6.151a.781.781,0,1,1,.781.781A.781.781,0,0,1,20.355,13.281Zm-7.812,0a.781.781,0,1,1,.781.781A.781.781,0,0,1,12.543,13.281Z" transform="translate(37.039 17)" fill="#666"/>
</svg>
