<svg width="71" height="66" viewBox="0 0 71 66" fill="none" xmlns="http://www.w3.org/2000/svg">
<path fill-rule="evenodd" clip-rule="evenodd" d="M68.9188 56.6395C68.9188 56.0715 69.3845 55.6111 69.959 55.6111C70.2355 55.611 70.5007 55.7196 70.696 55.913C70.8913 56.1065 71.0007 56.3689 71 56.6422V63.5113C70.9985 64.742 69.9896 65.7393 68.7447 65.7407H36.7133C36.2825 65.7406 35.8609 65.6176 35.499 65.3866C35.1371 65.6176 34.7154 65.7405 34.2847 65.7407H2.25529C1.00955 65.7393 0.000371305 64.7407 0 63.5093V47.3855C0.000629214 44.559 1.68158 41.9967 4.29199 40.8432L4.31155 40.8352L13.498 37.314V35.562C11.9524 34.389 10.9154 32.6793 10.5971 30.779C8.78549 30.5731 7.41762 29.0577 7.4162 27.255C7.41755 26.4605 7.70448 25.6923 8.22575 25.0876V22.2413C8.21921 20.1022 8.92391 18.0202 10.2314 16.3158C11.5088 14.6487 13.2862 13.4231 15.31 12.8139C15.6691 12.6968 16.0642 12.7816 16.3419 13.0353C16.6195 13.289 16.7361 13.6716 16.6463 14.0347C16.5565 14.3978 16.2745 14.6842 15.9098 14.7826C12.593 15.7897 10.3235 18.8113 10.3077 22.2413V23.8185C10.3225 23.8145 10.5795 23.7638 10.6025 23.7598C10.8783 23.0212 11.6454 22.5798 12.4314 22.7074C15.5476 22.842 18.6277 22.0039 21.2353 20.3119C21.9064 19.8767 22.7972 19.9841 23.3428 20.566C23.7053 20.9505 24.0089 21.2707 24.2646 21.5404L24.2662 21.5421L24.2679 21.5439L24.2701 21.5463L24.2702 21.5464C25.0968 22.4182 25.4218 22.7611 25.6251 23.0495C25.7806 23.2492 25.8675 23.4926 25.8734 23.7445C25.8794 23.7451 26.0231 23.7698 26.0683 23.7791V22.2433C26.0679 18.7066 23.658 15.6138 20.1991 14.7106C19.6523 14.5588 19.3296 14.0016 19.4742 13.4587C19.6188 12.9157 20.1771 12.5878 20.7287 12.7219C22.1743 13.0972 23.5153 13.7907 24.6516 14.7506C24.6772 13.9945 24.9606 13.2693 25.4558 12.6925V9.84617C25.4558 4.40828 29.9151 0 35.416 0C40.9169 0 45.3762 4.40828 45.3762 9.84617V12.6205C45.8765 13.226 46.1595 13.9784 46.1811 14.7599C49.1337 12.2605 53.2883 11.6893 56.8188 13.2974C60.3494 14.9055 62.6096 18.3985 62.6063 22.2413V25.0156C63.8341 26.502 63.6405 28.6848 62.1698 29.9373C61.6244 30.4006 60.9522 30.6933 60.2383 30.7783C59.939 32.6154 58.9603 34.2771 57.4919 35.4413V37.314L66.6851 40.8345L66.7046 40.8425C69.3148 41.9966 70.9954 44.559 70.9959 47.3855V51.8405C71.0056 52.214 70.8095 52.5633 70.4838 52.7528C70.1581 52.9424 69.754 52.9424 69.4282 52.7528C69.1025 52.5633 68.9064 52.214 68.9161 51.8405V47.3849C68.915 45.3932 67.7451 43.5831 65.9173 42.7452L60.5169 40.6778L58.1557 45.3622C57.9434 45.7829 57.5556 46.0909 57.0941 46.205C56.6327 46.3192 56.1438 46.2281 55.7561 45.9557L55.6448 45.8777L55.217 46.5139L57.5432 60.0854C57.5479 60.0954 57.5479 60.1061 57.5479 60.1161C57.615 60.5932 57.467 61.0754 57.1431 61.4352L55.076 63.6827H62.7128V48.6613C62.7272 48.1038 63.1886 47.6591 63.7528 47.6591C64.317 47.6591 64.7784 48.1038 64.7927 48.6613V63.682H68.7434C68.8402 63.682 68.9188 63.6044 68.9188 63.5086V56.6395ZM9.4981 27.2544C9.49722 27.8834 9.89759 28.4445 10.4972 28.6549V25.9166C9.92484 26.1266 9.53261 26.6518 9.4981 27.2544ZM58.572 39.9315L56.5305 43.9763L54.2307 42.3617L56.7835 39.2473L58.572 39.9315ZM50.0372 37.6481L52.727 40.9319L55.4107 37.6561V36.621C54.5562 36.9362 53.6518 37.0985 52.7398 37.1005C51.8208 37.1023 50.9078 36.9547 50.0372 36.6637V37.6481ZM53.9481 44.6886L53.5656 45.2581H51.8884L51.5059 44.6886L52.727 43.8316L53.9481 44.6886ZM32.8072 25.2523L35.497 28.5348L38.1806 25.2597V24.224C37.3261 24.5391 36.4218 24.7014 35.5098 24.7035C34.5908 24.7052 33.6778 24.5576 32.8072 24.2666V25.2523ZM36.718 32.2915L36.3355 32.861H34.6591L34.2766 32.2915L35.4976 31.4345L36.718 32.2915ZM27.3073 18.2866L27.307 18.2865V18.2858L27.3073 18.2866ZM27.3073 18.2866C27.4786 18.3317 27.653 18.3647 27.8291 18.3852C28.1475 20.2855 29.1845 21.9953 30.73 23.1683V24.9202L28.6043 25.7318C28.4809 25.4757 28.3266 25.2352 28.1449 25.0156V22.2413C28.1459 20.8799 27.8607 19.5332 27.3073 18.2866ZM41.0242 17.1968C40.9661 20.2174 38.4725 22.6361 35.4163 22.6361C32.3602 22.6361 29.8665 20.2174 29.8085 17.1968V12.3811C33.1549 12.4716 36.4541 11.5853 39.2938 9.83283C39.621 10.1798 39.9019 10.476 40.1391 10.726L40.1397 10.7267L40.14 10.727C40.582 11.193 40.8717 11.4984 41.0249 11.6728C41.0242 14.2317 41.0242 15.2201 41.0242 17.1968ZM43.5284 18.2845C43.3578 18.3295 43.1842 18.3625 43.009 18.3832H43.0083C42.7089 20.2202 41.7302 21.882 40.2619 23.0462V24.9189L42.2743 25.6878C42.3901 25.4742 42.528 25.2731 42.6858 25.0876V22.2413C42.685 20.8787 42.972 19.5311 43.5284 18.2845ZM31.4377 26.8542L33.9912 29.9693L32.2473 31.1951L31.6947 31.5832L29.6533 27.5385L31.4377 26.8542ZM39.5535 26.8529L37.8912 28.8809L37.0021 29.97L38.7467 31.1951L39.3005 31.5819L41.3419 27.5378L39.5535 26.8529ZM38.4154 33.4826L38.5267 33.5606C38.9145 33.833 39.4033 33.9241 39.8648 33.8099C40.3262 33.6958 40.7141 33.3879 40.9264 32.9671L42.6804 29.4892C43.2745 30.205 44.1242 30.6677 45.0538 30.7816C45.3609 32.6853 46.4003 34.398 47.9547 35.562V37.314L39.115 40.7032L37.9877 34.1188L38.4154 33.4826ZM51.2232 42.3644L48.6698 39.2493L46.882 39.9316L48.9295 43.977L51.2232 42.3644ZM58.2536 29.5945C58.1955 32.6152 55.7019 35.0339 52.6457 35.0339C49.5895 35.0339 47.0959 32.6152 47.0378 29.5945V24.7762C50.3842 24.8662 53.6832 23.9799 56.5231 22.2279C56.8506 22.5752 57.1318 22.8716 57.3691 23.1218C57.8112 23.5879 58.101 23.8934 58.2542 24.0679C58.2536 26.6268 58.2536 27.6158 58.2536 29.5945ZM60.3341 28.6609C60.9336 28.4504 61.3339 27.8893 61.3332 27.2604V27.255C61.3324 26.6278 60.9323 26.069 60.3341 25.8599V28.6609ZM44.765 22.2413C44.7388 19.4411 46.235 16.8424 48.6838 15.4348C51.1327 14.0272 54.1574 14.0272 56.6062 15.4348C59.0551 16.8424 60.5512 19.4411 60.525 22.2413V23.7791C60.4778 23.7691 60.3476 23.7471 60.3301 23.7445C60.3242 23.4926 60.2372 23.2492 60.0818 23.0495C59.8806 22.7638 59.5712 22.4375 58.8088 21.6336L58.8088 21.6335L58.8082 21.6329C58.5353 21.3452 58.2043 20.9962 57.7995 20.566C57.2537 19.9846 56.3632 19.8773 55.692 20.3119C53.0613 22.0164 49.9522 22.8536 46.8105 22.7034C46.0472 22.6036 45.3168 23.0435 45.0565 23.7598C45.0335 23.7638 44.7765 23.8145 44.7616 23.8185V22.2413H44.765ZM44.9573 28.6515V25.9172C44.3861 26.1265 43.9941 26.6499 43.9582 27.251C43.9565 27.8803 44.3571 28.4419 44.9573 28.6515ZM44.1032 14.86C44.1033 15.2917 43.9126 15.7019 43.581 15.983C43.4397 16.1032 43.2774 16.197 43.1021 16.2598V13.4628C43.7016 13.6717 44.1028 14.2316 44.1032 14.86ZM43.2957 9.84617C43.2908 5.54683 39.7672 2.06231 35.418 2.05607C31.0665 2.05901 27.5392 5.54449 27.5343 9.84617V11.4234C27.5492 11.4194 27.8062 11.3687 27.8291 11.3647C28.085 10.6843 28.7644 10.2523 29.4968 10.3043C32.6665 10.4757 35.8083 9.63904 38.462 7.91682C39.1331 7.48192 40.0238 7.5893 40.5695 8.17091C40.9614 8.58723 41.2847 8.9283 41.5534 9.21175L41.5534 9.21178L41.5536 9.21199C42.2752 9.97318 42.6029 10.3188 42.8059 10.5904C42.9872 10.8037 43.091 11.0709 43.1007 11.3494C43.1182 11.352 43.2485 11.3747 43.2957 11.3841V9.84617ZM27.7273 13.5221V16.2598C27.1276 16.0495 26.7273 15.4883 26.7281 14.8593C26.7631 14.257 27.1552 13.7322 27.7273 13.5221ZM26.8688 27.2577C26.8688 26.631 26.4708 26.0717 25.8741 25.8599V28.6555C26.4708 28.4437 26.8688 27.8845 26.8688 27.2577ZM25.7776 30.7836C26.7624 30.6629 27.655 30.1507 28.2494 29.3651L30.0709 32.9664C30.2832 33.387 30.671 33.6948 31.1322 33.8089C31.5935 33.923 32.0822 33.8321 32.4699 33.5599L32.5812 33.4819L33.0089 34.1181L31.8816 40.7005L23.0325 37.314V35.442C24.4991 34.2779 25.4771 32.6177 25.7776 30.7823V30.7836ZM15.5772 37.6481L18.2669 40.9319L20.9506 37.6561V36.621C20.0962 36.9363 19.1918 37.0986 18.2798 37.1005C17.3608 37.1023 16.4477 36.9548 15.5772 36.6637V37.6481ZM19.488 44.6886L19.1055 45.2581H17.429L17.0465 44.6886L18.2676 43.8316L19.488 44.6886ZM24.1119 39.9315L22.3215 39.25L19.772 42.3631L21.5166 43.5875L22.0705 43.9763L24.1119 39.9315ZM12.5778 29.5945V24.7762C15.9232 24.8653 19.2211 23.9791 22.0604 22.2279C22.3847 22.5718 22.6648 22.8671 22.9022 23.1172C23.3446 23.5835 23.6382 23.893 23.7915 24.0679V29.5945C23.7334 32.6152 21.2398 35.0339 18.1836 35.0339C15.1275 35.0339 12.6338 32.6152 12.5758 29.5945H12.5778ZM16.7612 42.3664L14.2077 39.2513L12.4226 39.9315L14.4674 43.977L15.0199 43.5889L16.7612 42.3664ZM8.28782 63.6847V63.6833H15.9165L13.8501 61.4359C13.5265 61.0759 13.3785 60.5938 13.4454 60.1167C13.4501 60.1067 13.4501 60.0961 13.4501 60.0861L15.7735 46.5152L15.3458 45.879L15.2345 45.957C14.8467 46.2294 14.3579 46.3205 13.8964 46.2063C13.435 46.0922 13.0471 45.7843 12.8348 45.3635L10.4736 40.6791L5.07658 42.7466C3.24995 43.585 2.08099 45.3946 2.07988 47.3855V63.5093C2.07988 63.5553 2.09836 63.5994 2.13126 63.6319C2.16415 63.6644 2.20877 63.6827 2.25529 63.6827H6.20794V48.6613C6.2223 48.1038 6.68367 47.6591 7.24788 47.6591C7.81209 47.6591 8.27345 48.1038 8.28782 48.6613V63.6833H8.28714L8.28782 63.6847ZM17.7502 47.3142L15.5414 60.2168L18.2669 63.1812L20.9931 60.2168L18.7844 47.3142H17.7502ZM34.4601 63.5113C34.4601 63.5573 34.4416 63.6014 34.4087 63.6339C34.3758 63.6664 34.3312 63.6847 34.2847 63.6847H30.3327V48.6613C30.3183 48.1038 29.8569 47.6591 29.2927 47.6591C28.7285 47.6591 28.2672 48.1038 28.2528 48.6613V63.6827H20.616L22.6831 61.4352C23.007 61.0754 23.1549 60.5932 23.0878 60.1161C23.0878 60.1061 23.0878 60.0954 23.0831 60.0854L20.7577 46.5139L21.1854 45.8777L21.2967 45.9557C21.6844 46.2281 22.1733 46.3192 22.6347 46.205C23.0962 46.0909 23.484 45.7829 23.6963 45.3622L26.0576 40.6778L31.458 42.7452C33.2876 43.581 34.4583 45.3924 34.4567 47.3849V63.5086L34.4601 63.5113ZM33.8043 41.7882C34.4738 42.3083 35.0476 42.9387 35.5003 43.6515L35.4997 43.6495C35.9516 42.939 36.5237 42.3105 37.191 41.7915L36.0144 34.9191H34.9802L33.8043 41.7882ZM42.7479 63.6847V63.6833H50.3766L48.3102 61.4359C47.9864 61.0759 47.8385 60.5938 47.9054 60.1167C47.9101 60.1067 47.9101 60.0961 47.9101 60.0861L50.2336 46.5152L49.8058 45.879L49.6945 45.957C49.3068 46.2291 48.8181 46.3201 48.3569 46.206C47.8956 46.0919 47.5079 45.7841 47.2955 45.3635L44.9343 40.6791L39.5373 42.7466C38.8573 43.0715 38.2508 43.529 37.7543 44.0917C36.9536 45.0047 36.5213 46.1773 36.5399 47.3855V63.5093C36.5399 63.5553 36.5584 63.5994 36.5913 63.6319C36.6242 63.6644 36.6688 63.6827 36.7153 63.6827H40.668V48.6613C40.6824 48.1038 41.1437 47.6591 41.7079 47.6591C42.2721 47.6591 42.7335 48.1038 42.7479 48.6613V63.6833H42.7472L42.7479 63.6847ZM52.2102 47.3142L50.0015 60.2168L52.7283 63.1792L55.4545 60.2148L53.2444 47.3142H52.2102Z" fill="#9E9E9E"/>
</svg>
