<svg xmlns="http://www.w3.org/2000/svg" width="27.008" height="25.296" viewBox="0 0 27.008 25.296">
  <g id="employee" transform="translate(1.531 -14.79)">
    <g id="Group_393" data-name="Group 393" transform="translate(0 16.224)">
      <path id="Path_218" data-name="Path 218" d="M26.612,37.623a.4.4,0,0,0-.4.4v2.643a.067.067,0,0,1-.067.067h-1.5v-5.78a.4.4,0,0,0-.791,0v5.78h-2.9l.786-.865a.633.633,0,0,0,.153-.508l0-.012L21,34.123l.163-.245.042.03a.619.619,0,0,0,.913-.228h0l.9-1.8,2.054.8a1.969,1.969,0,0,1,1.141,1.785v1.715a.4.4,0,0,0,.791,0V34.458a2.759,2.759,0,0,0-1.633-2.518l-.008,0-3.5-1.355v-.721a2.889,2.889,0,0,0,1.045-1.794,1.381,1.381,0,0,0,.735-.324,1.362,1.362,0,0,0,.166-1.894V24.783A3.786,3.786,0,0,0,17.567,21.9a1.36,1.36,0,0,0-.306-.823V20.013a3.789,3.789,0,1,0-7.578,0v1.1a1.291,1.291,0,0,0-.306.792,3.772,3.772,0,0,0-1.492-.782.4.4,0,0,0-.2.765,3,3,0,0,1,2.232,2.9v.592l-.074-.013a.456.456,0,0,0-.095-.267c-.1-.146-.283-.327-.868-.956a.625.625,0,0,0-.8-.1,5.653,5.653,0,0,1-3.349.922.632.632,0,0,0-.7.405l-.112.022v-.607a3.017,3.017,0,0,1,2.132-2.87.4.4,0,1,0-.228-.758A3.819,3.819,0,0,0,3.892,22.5a3.755,3.755,0,0,0-.763,2.28v1.1a1.289,1.289,0,0,0-.307.834,1.366,1.366,0,0,0,1.21,1.356,2.922,2.922,0,0,0,1.1,1.84v.674L1.64,31.937l-.007,0A2.758,2.758,0,0,0,0,34.458v6.2a.859.859,0,0,0,.858.858H13.042a.852.852,0,0,0,.462-.136.852.852,0,0,0,.462.136H26.15a.859.859,0,0,0,.858-.858V38.019A.4.4,0,0,0,26.612,37.623ZM3.993,27.251a.571.571,0,0,1-.38-.539.584.584,0,0,1,.38-.515ZM22.28,31.59,21.5,33.147l-.875-.621.971-1.2Zm-2.223.384-1.023-1.263v-.38a3.191,3.191,0,0,0,1.028.168h0a2.925,2.925,0,0,0,1.016-.185v.4Zm.465,1.446-.146.219h-.638l-.146-.219.464-.33ZM13.5,27.2,12.48,25.941v-.38a3.19,3.19,0,0,0,1.028.168h0a2.924,2.924,0,0,0,1.016-.185v.4Zm.464,1.446-.146.219h-.638l-.146-.219.464-.33Zm-3.58-5.39a1.416,1.416,0,0,0,.2.038,2.922,2.922,0,0,0,1.1,1.84v.674l-.807.313a1.356,1.356,0,0,0-.175-.276V24.783A3.78,3.78,0,0,0,10.387,23.26Zm5.218-.419a2.134,2.134,0,0,1-4.267,0V20.988a6.479,6.479,0,0,0,3.608-.981c.357.383.569.6.658.708C15.605,21.7,15.605,22.081,15.605,22.841Zm.755.457a1.424,1.424,0,0,0,.2-.038,3.766,3.766,0,0,0-.321,1.523v1.1a1.35,1.35,0,0,0-.156.231l-.765-.3v-.721A2.889,2.889,0,0,0,16.36,23.3Zm-4.4,3.26.971,1.2-.662.47h0l-.21.149L11.28,26.82Zm2.455.78.632-.78.68.263-.777,1.556-.211-.15h0l-.664-.471Zm.2,1.771.042.03a.619.619,0,0,0,.913-.228h0l.668-1.338a1.389,1.389,0,0,0,.9.5,2.876,2.876,0,0,0,1.1,1.839v.674l-3.364,1.3-.429-2.534Zm3.9,2.219.971,1.2-.874.621-.777-1.556Zm3.647-3.716a2.134,2.134,0,0,1-4.266,0V25.758a6.482,6.482,0,0,0,3.608-.981c.357.383.569.6.658.708C22.159,26.47,22.159,26.851,22.159,27.611Zm1.172-.9a.571.571,0,0,1-.38.539V26.174A.57.57,0,0,1,23.331,26.712Zm-6.3-1.929a3,3,0,1,1,6,0v.592l-.074-.013a.456.456,0,0,0-.095-.267c-.1-.149-.284-.328-.868-.956a.626.626,0,0,0-.8-.1,5.664,5.664,0,0,1-3.378.92.622.622,0,0,0-.666.407l-.112.022v-.607ZM17.1,26.2V27.25a.57.57,0,0,1-.38-.538A.584.584,0,0,1,17.1,26.2Zm-.325-4.255a.569.569,0,0,1-.2.432.585.585,0,0,1-.182.106V21.4A.57.57,0,0,1,16.777,21.942Zm-3.3-4.927a3,3,0,0,1,3,3V20.6l-.074-.013a.479.479,0,0,0-.112-.292c-.106-.143-.3-.341-.851-.931a.626.626,0,0,0-.8-.1,5.651,5.651,0,0,1-3.41.919.629.629,0,0,0-.634.408l-.112.022v-.607h0A3,3,0,0,1,13.472,17.015Zm-2.925,4.412v1.054a.571.571,0,0,1-.38-.539A.585.585,0,0,1,10.547,21.427Zm-.7,4.747a.571.571,0,0,1,0,1.076Zm-.037,1.895a1.387,1.387,0,0,0,.94-.546l.692,1.387h0a.619.619,0,0,0,.913.228l.042-.03.163.245-.429,2.533-3.366-1.3v-.72h0A2.892,2.892,0,0,0,9.806,28.069ZM6.949,31.974,5.926,30.711v-.38a3.189,3.189,0,0,0,1.028.168h0a2.923,2.923,0,0,0,1.016-.185v.4Zm.465,1.446-.146.219H6.63l-.146-.219.464-.33Zm1.078-2.093.68.264L8.4,33.147,8.185,33h0l-.664-.471ZM4.785,27.611V25.758a6.485,6.485,0,0,0,3.608-.981c.353.379.569.6.658.708v2.126a2.134,2.134,0,0,1-4.267,0Zm.62,3.716.971,1.2L5.713,33h0l-.21.149L4.726,31.59Zm-2.252,9.4v-5.78a.4.4,0,0,0-.791,0v5.78H.858a.067.067,0,0,1-.067-.067v-6.2a1.969,1.969,0,0,1,1.14-1.785l2.053-.8.9,1.8h0a.619.619,0,0,0,.913.228l.042-.03L6,34.123l-.884,5.222,0,.012a.633.633,0,0,0,.153.508l.786.865h-2.9Zm2.759-1.334.84-4.965h.393l.84,4.965L6.949,40.536Zm7.2,1.268a.067.067,0,0,1-.067.067h-1.5v-5.78a.4.4,0,0,0-.791,0v5.78h-2.9l.786-.865a.633.633,0,0,0,.153-.508l0-.012L7.9,34.123l.163-.245.042.03a.619.619,0,0,0,.913-.228h0l.9-1.8,2.054.8a1.965,1.965,0,0,1,1.141,1.785v6.2Zm.4-7.642a2.817,2.817,0,0,0-.645-.717l.447-2.643H13.7l.448,2.645A2.819,2.819,0,0,0,13.5,33.02Zm2.757,7.709h0v-5.78a.4.4,0,0,0-.791,0v5.78h-1.5a.067.067,0,0,1-.067-.067v-6.2a1.891,1.891,0,0,1,.462-1.267,2.13,2.13,0,0,1,.678-.518l2.053-.8.9,1.8h0a.619.619,0,0,0,.913.228l.042-.03.163.245-.884,5.222,0,.012a.633.633,0,0,0,.153.508l.786.865h-2.9Zm2.759-1.334.84-4.965h.393l.84,4.965-1.037,1.141Z" transform="translate(-1.531 -17.658)" fill="#FE6C0B"/>
    </g>
  </g>
</svg>
