<?xml version="1.0" encoding="UTF-8"?>
<svg width="216px" height="161px" viewBox="0 0 216 161" version="1.1" xmlns="http://www.w3.org/2000/svg" xmlns:xlink="http://www.w3.org/1999/xlink">
    <!-- Generator: Sketch 53.2 (72643) - https://sketchapp.com -->
    <title>Group 4</title>
    <desc>Created with Sketch.</desc>
    <defs>
        <linearGradient x1="50%" y1="107.216071%" x2="50%" y2="-14.1357143%" id="linearGradient-1">
            <stop stop-color="#006DF0" offset="0%"></stop>
            <stop stop-color="#00E7F0" offset="100%"></stop>
        </linearGradient>
        <linearGradient x1="50%" y1="107.216071%" x2="50%" y2="-14.1357143%" id="linearGradient-2">
            <stop stop-color="#006DF0" offset="0%"></stop>
            <stop stop-color="#00E7F0" offset="100%"></stop>
        </linearGradient>
        <linearGradient x1="50%" y1="107.216071%" x2="50%" y2="-14.1357143%" id="linearGradient-3">
            <stop stop-color="#006DF0" offset="0%"></stop>
            <stop stop-color="#00E7F0" offset="100%"></stop>
        </linearGradient>
    </defs>
    <g id="Page-1" stroke="none" stroke-width="1" fill="none" fill-rule="evenodd">
        <g id="3-Sign-Up-step-1" transform="translate(-800.000000, -176.000000)">
            <g id="Group-6" transform="translate(178.000000, 142.000000)">
                <g id="Group-4" transform="translate(622.000000, 34.000000)">
                    <g id="Group-5">
                        <path d="M137,147 L46,147 C42.1340068,147 39,143.865993 39,140 C39,136.134007 42.1340068,133 46,133 L7,133 C3.13400675,133 4.73447626e-16,129.865993 0,126 C-4.73447626e-16,122.134007 3.13400675,119 7,119 L47,119 C50.8659932,119 54,115.865993 54,112 C54,108.134007 50.8659932,105 47,105 L22,105 C18.1340068,105 15,101.865993 15,98 C15,94.1340068 18.1340068,91 22,91 L62,91 C58.1340068,91 55,87.8659932 55,84 C55,80.1340068 58.1340068,77 62,77 L119,77 C122.865993,77 126,80.1340068 126,84 C126,87.8659932 122.865993,91 119,91 L183,91 C186.865993,91 190,94.1340068 190,98 C190,101.865993 186.865993,105 183,105 L205,105 C208.865993,105 212,108.134007 212,112 C212,115.865993 208.865993,119 205,119 L186,119 C182.134007,119 179,122.134007 179,126 C179,129.865993 182.134007,133 186,133 L192,133 C195.865993,133 199,136.134007 199,140 C199,143.865993 195.865993,147 192,147 L140,147 C139.485125,147 138.983234,146.944412 138.5,146.83891 C138.016766,146.944412 137.514875,147 137,147 Z M209,147 C205.134007,147 202,143.865993 202,140 C202,136.134007 205.134007,133 209,133 C212.865993,133 216,136.134007 216,140 C216,143.865993 212.865993,147 209,147 Z" id="Background" fill="#F3F7FF"></path>
                        <g id="Passsport" transform="translate(45.000000, 41.000000)" fill-rule="nonzero" stroke-width="2">
                            <path d="M15.2958734,1 C13.0867344,1 11.2958734,2.790861 11.2958734,5 L11.2958734,100 C11.2958734,102.209139 13.0867344,104 15.2958734,104 L88.2958734,104 C90.5050124,104 92.2958734,102.209139 92.2958734,100 L92.2958734,5 C92.2958734,2.790861 90.5050124,1 88.2958734,1 L15.2958734,1 Z" id="Rectangle-14" stroke="url(#linearGradient-1)" fill="#FFFFFF"></path>
                            <path d="M5.29587339,11 C3.08673439,11 1.29587339,12.790861 1.29587339,15 L1.29587339,110 C1.29587339,112.209139 3.08673439,114 5.29587339,114 L78.2958734,114 C80.5050124,114 82.2958734,112.209139 82.2958734,110 L82.2958734,15 C82.2958734,12.790861 80.5050124,11 78.2958734,11 L5.29587339,11 Z" id="Rectangle-14" stroke="url(#linearGradient-1)" fill="#FFFFFF"></path>
                            <path d="M38.2958734,59 C37.7435886,59 37.2958734,59.4477153 37.2958734,60 L37.2958734,108 C37.2958734,108.552285 37.7435886,109 38.2958734,109 L44.2958734,109 C44.8481581,109 45.2958734,108.552285 45.2958734,108 L45.2958734,60 C45.2958734,59.4477153 44.8481581,59 44.2958734,59 L38.2958734,59 Z" id="Rectangle-6" stroke="url(#linearGradient-2)" fill="#FFFFFF" transform="translate(41.295873, 84.000000) rotate(90.000000) translate(-41.295873, -84.000000) "></path>
                            <rect id="Rectangle-6-Copy" stroke="url(#linearGradient-2)" fill="#FFFFFF" transform="translate(41.295873, 67.000000) rotate(90.000000) translate(-41.295873, -67.000000) " x="37.2958734" y="42" width="8" height="50" rx="2"></rect>
                            <path d="M38.2958734,26 C37.7435886,26 37.2958734,26.4477153 37.2958734,27 L37.2958734,75 C37.2958734,75.5522847 37.7435886,76 38.2958734,76 L44.2958734,76 C44.8481581,76 45.2958734,75.5522847 45.2958734,75 L45.2958734,27 C45.2958734,26.4477153 44.8481581,26 44.2958734,26 L38.2958734,26 Z" id="Rectangle-6-Copy-2" stroke="url(#linearGradient-2)" fill="#FFFFFF" transform="translate(41.295873, 51.000000) rotate(90.000000) translate(-41.295873, -51.000000) "></path>
                            <path d="M38.2958734,9 C37.7435886,9 37.2958734,9.44771525 37.2958734,10 L37.2958734,58 C37.2958734,58.5522847 37.7435886,59 38.2958734,59 L44.2958734,59 C44.8481581,59 45.2958734,58.5522847 45.2958734,58 L45.2958734,10 C45.2958734,9.44771525 44.8481581,9 44.2958734,9 L38.2958734,9 Z" id="Rectangle-6-Copy-3" stroke="url(#linearGradient-2)" fill="#FFFFFF" transform="translate(41.295873, 34.000000) rotate(90.000000) translate(-41.295873, -34.000000) "></path>
                            <path d="M17.2958734,100 L65.2958734,100" id="Line-7" stroke="url(#linearGradient-3)" fill="#D8D8D8" stroke-linecap="round"></path>
                        </g>
                        <g id="Group-2" transform="translate(110.000000, 0.000000)" fill-rule="nonzero">
                            <path d="M37.1874907,22.2574327 C36.9957689,23.9378997 35.6929153,25.291578 35.2101782,26.9145339 C34.4835875,29.3573049 35.7399717,31.9786161 37.4585905,33.8810682 C40.259534,36.9490525 44.1923521,38.7861701 48.3792835,38.9823969 C48.9882329,39.0350614 49.6017641,38.9692769 50.1848854,38.7887955 C50.7055176,38.5826911 51.1742854,38.2675213 51.5586091,37.8651905 C52.852891,36.5866485 53.547661,34.8151335 53.8245443,33.031363 C54.1014277,31.2475925 53.9938242,29.4303197 53.885554,27.6290181 C53.8860848,27.2566635 53.8173223,26.8873591 53.682667,26.5393669 C53.5061716,26.2078701 53.263739,25.9146628 52.9697775,25.6771709 C52.0379528,24.8362042 51.0115653,24.1026699 49.9105605,23.4908226 C49.4129027,23.2714308 48.9740171,22.9410325 48.6286783,22.5258064 C48.4206082,22.1700932 48.2859499,21.7774743 48.2324233,21.3704591 L47.8944538,19.6760764 C47.8341651,19.1877959 47.664661,18.7187218 47.3981271,18.302576 C46.8010778,17.5102062 45.659009,17.402374 44.6572066,17.3637121 L40.9870093,17.22207 C39.845368,17.17801 38.3411139,16.8559321 37.2266199,17.076508 C36.185902,17.2824841 36.5315979,18.2259834 36.7206433,19.0850818 C36.9947854,20.1223414 37.151355,21.1862728 37.1874907,22.2574327 L37.1874907,22.2574327 Z" id="Path" fill="#A0616A"></path>
                            <path d="M37.1874907,22.2574327 C36.9957689,23.9378997 35.6929153,25.291578 35.2101782,26.9145339 C34.4835875,29.3573049 35.7399717,31.9786161 37.4585905,33.8810682 C40.259534,36.9490525 44.1923521,38.7861701 48.3792835,38.9823969 C48.9882329,39.0350614 49.6017641,38.9692769 50.1848854,38.7887955 C50.7055176,38.5826911 51.1742854,38.2675213 51.5586091,37.8651905 C52.852891,36.5866485 53.547661,34.8151335 53.8245443,33.031363 C54.1014277,31.2475925 53.9938242,29.4303197 53.885554,27.6290181 C53.8860848,27.2566635 53.8173223,26.8873591 53.682667,26.5393669 C53.5061716,26.2078701 53.263739,25.9146628 52.9697775,25.6771709 C52.0379528,24.8362042 51.0115653,24.1026699 49.9105605,23.4908226 C49.4129027,23.2714308 48.9740171,22.9410325 48.6286783,22.5258064 C48.4206082,22.1700932 48.2859499,21.7774743 48.2324233,21.3704591 L47.8944538,19.6760764 C47.8341651,19.1877959 47.664661,18.7187218 47.3981271,18.302576 C46.8010778,17.5102062 45.659009,17.402374 44.6572066,17.3637121 L40.9870093,17.22207 C39.845368,17.17801 38.3411139,16.8559321 37.2266199,17.076508 C36.185902,17.2824841 36.5315979,18.2259834 36.7206433,19.0850818 C36.9947854,20.1223414 37.151355,21.1862728 37.1874907,22.2574327 L37.1874907,22.2574327 Z" id="Path" fill="#000000" opacity="0.1"></path>
                            <path d="M59.7598318,96.2949782 C59.2489542,101.887641 58.7380818,107.479438 58.2272146,113.070372 C57.8272883,117.470312 57.4196205,121.888289 56.6352573,126.231542 C56.3643292,127.728238 56.0469645,129.217217 55.6702628,130.693304 C54.6227192,134.791831 53.1030244,138.797623 52.6127762,142.999213 C52.5972963,143.12028 52.584399,143.24392 52.5715017,143.367591 C52.5166134,144.296674 52.3405332,145.214634 52.0477205,146.098223 C51.8026027,146.739663 51.4258916,147.324436 51.1601443,147.958156 C50.6312136,149.225581 50.5615431,150.626966 50.4970409,152 C48.6364378,150.955312 46.5996585,150.260292 44.4878445,149.949455 C43.4686782,149.797461 42.3334172,149.68927 41.6393508,148.929319 C40.8704518,148.089516 40.9556023,146.804057 41.0845941,145.675736 C41.4896835,142.172283 41.89391,138.670546 42.2972734,135.170527 C42.4289123,133.664704 42.6852217,132.17235 43.0635742,130.708765 C43.2029153,130.221882 43.3706147,129.742737 43.5409156,129.263593 C43.7757031,128.604119 44.0130731,127.944641 44.1911061,127.26713 C44.4476589,126.172449 44.6269917,125.061149 44.7277846,123.941412 C45.1431845,120.417343 45.643738,116.900997 46.0823688,113.379507 L46.1055965,113.194036 C46.7635347,107.856404 47.2640882,102.493017 47.1196008,97.1167509 C47.0989525,96.3207538 47.0654101,95.524738 47.0138052,94.7261625 C46.9415678,93.5695067 46.8357816,92.9564019 47.7956015,92.2325248 C48.8560456,91.4339398 50.2518886,90.8749273 51.4645866,90.3519793 C52.1173754,90.0686162 59.3057054,87.5208769 59.4734206,88.0798957 C59.8106354,89.2722786 59.9876343,90.5041183 59.9997687,91.7430629 C60.0048953,93.2636487 59.9247911,94.7833295 59.7598318,96.2949782 Z" id="Path" fill="#605D82"></path>
                            <path d="M57,126.962519 C56.7310235,128.450606 56.415945,129.93102 56.0419569,131.398616 C55.0019594,135.473569 53.4932118,139.456319 53.0064952,143.63374 C52.9911268,143.754112 52.9783224,143.87704 52.965518,144 C49.784027,139.456328 47.1046272,134.569451 44,129.977123 C44.2330961,129.321442 44.4687563,128.665758 44.6455068,127.992144 C44.9002114,126.90376 45.0782525,125.798852 45.1783193,124.685556 C45.5907268,121.181758 46.0876746,117.685638 46.5231456,114.184404 L46.546206,114 C46.7284218,114.743303 46.9885787,115.465304 47.322355,116.15401 C49.4074842,120.390339 54.361565,122.531546 56.7848207,126.586002 C56.8591018,126.711518 56.9308282,126.837024 57,126.962519 Z" id="Path" fill="#000000" opacity="0.1"></path>
                            <path d="M31.0119945,89.4598191 C31.1180183,92.8317467 31.6668744,96.173249 32.2145939,99.5035185 L33.344672,106.374599 C33.9631704,110.135161 34.6070994,113.972362 36.4166686,117.340569 C37.7703291,119.860154 39.7206177,122.010199 41.4849549,124.2707 C45.8224116,129.827926 49.0808964,136.123095 53.1937566,141.843092 C54.3892197,143.505695 56.0980051,145.303729 58.1382522,144.956571 C59.4772854,144.728723 60.4498443,143.632333 61.5023997,142.787003 C62.7433272,141.790386 64.2389347,141.061135 65.2153144,139.811908 C66.1916941,138.562681 66.3829953,136.486205 65.0601906,135.597259 C64.5815478,135.336506 64.0733826,135.132019 63.5461663,134.988011 C61.495546,134.221048 60.1682643,132.251694 59.3237377,130.260359 C58.4792112,128.269024 57.9675341,126.127819 56.8421779,124.275692 C54.3974109,120.252056 49.3981233,118.127209 47.2937564,113.921576 C46.1151309,111.56606 46.0027996,108.851122 45.9127092,106.227354 L45.6830486,99.5389365 C45.6579319,98.8075209 45.6382843,98.0468255 45.940617,97.3781131 C46.7455596,95.5977177 49.1759442,95.4318882 51.1438521,95.2061774 C53.3773661,94.9487463 55.5410452,94.2773998 57.5203786,93.2276684 C58.6538412,92.6257288 59.761195,91.8583733 60.3675651,90.7406663 C60.920779,89.7209386 60.9971243,88.5248958 61.0619975,87.3708723 L61.7433849,75.2495761 C61.8020072,74.2067314 61.8554681,73.1284594 61.4817318,72.1508468 C60.5432877,69.6960455 57.3913103,68.8938865 54.7272683,69.0110089 C49.7698627,69.2289574 45.1934051,71.3261729 40.5191933,72.7424429 C39.361441,73.1015812 38.1860154,73.4030936 36.9973914,73.6458324 C35.9483554,73.8528662 34.6787667,73.7669626 33.6782593,74.0986804 C31.8989682,74.6886092 31.9441469,78.5153207 31.6918435,80.1026908 C31.1707506,83.1942615 30.9431541,86.3267937 31.0119945,89.4598191 L31.0119945,89.4598191 Z" id="Path" fill="#605D82"></path>
                            <path d="M56.9620547,145.801218 C57.388005,146.232799 57.5272372,146.865073 57.6381935,147.462548 C58.2534624,150.776715 58.5734946,154.139384 58.5944914,157.510641 C58.5660251,157.825192 58.628527,158.141312 58.7744933,158.42105 C58.8944461,158.587895 59.0569852,158.719131 59.2449729,158.80092 C60.4760582,159.390422 61.9049742,158.568868 62.9308103,157.666038 C64.8324789,155.992374 66.4416048,153.745918 66.5496181,151.208252 C66.5298209,150.554623 66.5526094,149.900393 66.6178377,149.249754 C66.7848686,148.294386 67.3401486,147.461976 67.8294208,146.625768 C68.6620737,145.202314 69.3336705,143.68977 69.8316903,142.116336 C70.0187191,141.525198 70.1431143,140.78087 69.6820692,140.368323 C69.5186014,140.239634 69.3327637,140.142571 69.1340119,140.082073 L63.5728668,138.007532 C63.0909581,137.827761 61.8918014,140.922557 61.7014749,141.26089 C61.2359052,142.088493 60.7729787,142.558318 59.8389515,142.74935 C58.8855291,142.944347 57.7505692,142.664545 56.860949,143.142454 C55.3560614,143.950872 56.1099766,144.937867 56.9620547,145.801218 Z" id="Path" fill="#535070"></path>
                            <path d="M48.6717735,147.951599 C48.5627815,147.747563 48.4110512,147.566417 48.2257255,147.419077 C47.9544347,147.257051 47.6459769,147.158372 47.3260154,147.13125 C46.2103941,146.952876 44.8880877,146.835425 44.1180925,147.616263 C43.3961968,148.348328 43.5203026,149.540906 42.9167715,150.362514 C42.7257113,150.622611 42.4668391,150.836968 42.3011873,151.112079 C42.0955814,151.532623 42.0028441,151.994293 42.0311292,152.456498 C41.9999795,153.729982 41.968878,155.005627 42.0622983,156.276419 C42.1405837,157.341285 42.3312024,158.457149 43.0383694,159.291397 C44.1734194,160.630403 46.2205646,160.822944 48.0376535,160.909852 L49.5093131,160.980237 C49.9146215,161.026624 50.3257747,160.991129 50.7153696,160.876118 C51.2026001,160.664042 51.5778777,160.27523 51.7556582,159.79831 C52.5217077,158.005376 51.3085432,156.073684 50.5612583,154.273741 C49.702343,152.204861 49.8565735,149.907641 48.6717735,147.951599 Z" id="Path" fill="#535070"></path>
                            <path d="M36.8549539,12.9849726 C36.8376536,12.8004737 36.864873,12.6145278 36.9343435,12.442633 C37.1411724,12.0783288 37.6812425,12.1774777 38.0886428,12.2797942 C39.7270286,12.6912633 41.4533628,12.3188031 43.1402559,12.4149293 C44.827149,12.5110555 46.7273141,13.3511225 47.0664911,15 C48.2909059,14.1353152 49.3463806,13.0550104 50.1809014,11.8123231 C50.6490703,11.1144165 51.0571449,10.3150161 50.9934099,9.47803047 C50.9014835,8.27079071 49.8846794,7.36794915 48.9431882,6.60232249 L46.1366674,4.32002925 C45.7683496,3.98280609 45.3428918,3.71335198 44.8800734,3.52419387 C44.2319862,3.30357527 43.5252399,3.40868956 42.8403562,3.4091271 C40.7973973,3.41043047 38.6192075,2.48426373 36.8022429,3.41465181 C36.0432558,3.80329489 35.4719847,4.46929498 34.9212772,5.11869015 L32.4164161,8.0723603 C32.2278627,8.26060273 32.0901307,8.49326499 32.0160157,8.74873194 C31.9447488,9.10926771 32.1306182,9.46507991 32.1954792,9.82681122 C32.3137966,10.4866611 32.0284967,11.1908874 32.2478376,11.824565 C32.6119766,12.8765491 33.8942099,13.0254635 34.6781096,13.6285534 C34.9702733,13.8533287 35.4281667,14.6150945 35.7762675,14.6057922 C36.4043418,14.5890085 36.8386249,13.4710607 36.8549539,12.9849726 Z" id="Path" fill="#3F3D56"></path>
                            <circle id="Oval" fill="#A0616A" cx="41" cy="13" r="8"></circle>
                            <path d="M43.4373417,30.6951702 C42.8749073,29.0889346 41.3334102,28.031266 39.6277888,28.0813188 C39.3900215,28.1254461 39.1443689,28.0944774 38.9251006,27.9927329 C38.8010969,27.8977377 38.7020076,27.7742174 38.636303,27.6327305 C38.1451154,26.7520577 37.7502435,25.8213196 37.4584845,24.8565379 C37.329616,24.4302374 37.1533887,23.9276628 36.7208822,23.8168295 C36.3559764,23.7692166 35.9944576,23.9260093 35.7806086,24.2246314 C35.5751941,24.5196158 35.3507005,24.8009274 35.1085574,25.0667748 C34.0925994,25.9724863 32.2916679,25.146981 31.2133425,25.9779278 C31.0372055,26.1136546 30.8918426,26.2875248 30.7068462,26.4109866 C30.5216859,26.5221159 30.3221245,26.6074215 30.1137316,26.6645226 C28.0314209,27.3423084 25.9901113,28.1394405 24,29.0519368 C24.7172731,33.3587996 25.4522586,37.74075 27.1335673,41.771935 C27.9336771,43.6903305 28.8404011,45.569182 29.4811051,47.5461824 C30.9007237,51.9266079 30.9636611,56.6134531 30.9795949,61.2168495 C30.9904977,64.3674713 30.9747914,67.5853571 29.9524287,70.5665471 C29.6773982,71.2253741 29.4835368,71.9150314 29.3750921,72.6204086 C29.3133477,73.3308007 29.5207447,74.1140753 30.098044,74.534956 C30.432753,74.7532133 30.8155628,74.8872718 31.2136446,74.9256351 C32.985126,75.1847989 34.7710241,74.714746 36.5153076,74.3119788 C41.190515,73.2324623 45.9586645,72.6147435 50.7176619,71.998649 L58.6922657,70.966255 C59.2638814,70.9275447 59.8233251,70.7833849 60.3421711,70.5411006 C61.8014324,69.7444893 61.9399671,67.5559414 61.0337602,66.164865 C60.5993162,65.4979676 59.9863552,64.9508578 59.621325,64.2438077 C59.2562947,63.5367575 59.2252091,62.5480353 59.8536178,62.0583221 C61.1318889,61.0621768 60.7505978,59.2139958 60.8115634,57.5975382 C60.9820278,53.0777148 60.9589656,48.5561261 60.742377,44.0327722 C60.6783538,43.0964209 60.6633238,42.1573788 60.6973483,41.2194675 C60.839066,39.6301682 61.1335858,38.058118 61.5768495,36.5249787 L64,27.012294 C63.3669903,26.0149529 62.1549587,25.3821892 61.0067959,25.0949016 C59.8586331,24.8076141 58.6627907,24.7230628 57.5320662,24.3737167 C55.2155922,23.6580384 53.1532821,21.8418045 50.734094,22.0110749 C50.5511011,22.0143526 50.37113,22.058168 50.2072157,22.1393477 C49.6616001,22.4475285 49.7480066,23.2314864 49.71313,23.8557462 C49.635969,25.23689 48.6171171,26.3912115 47.4919687,27.200532 C46.3668202,28.0098525 45.0818174,28.599988 44.048418,29.5229682 C43.6775611,29.8015841 43.4529461,30.2324536 43.4373417,30.6951702 L43.4373417,30.6951702 Z" id="Path" fill="#3F3D56"></path>
                            <path d="M11.4167877,39.9924857 C10.8657674,40.3403864 10.2802318,40.6335565 9.66899606,40.867582 C9.07046154,41.0408372 8.50495796,41.307885 7.99473721,41.6582172 C7.75958687,41.8561271 7.5624559,42.0931293 7.41254053,42.3581677 C6.8396274,43.3467148 6.86502353,44.5603273 7.47881741,45.5253608 C8.09261129,46.4903943 9.1975144,47.0538876 10.3623091,46.9959225 C11.1223493,46.9130549 11.8610642,46.698734 12.5436424,46.3630595 L18.4043399,43.8918259 C19.3962862,43.4735612 20.4677958,42.9833822 20.9366396,42.0354986 C20.9912643,41.9470828 21.0115096,41.8425427 20.9937022,41.740845 C20.9464443,41.6333035 20.8609981,41.5458985 20.7529774,41.4946019 C19.4310554,40.6592136 18.274988,39.5984547 17.3403988,38.3633628 C17.0999496,38.045695 16.8057415,37.2956191 16.4658589,37.1051606 C15.2253309,36.4099994 12.4097113,39.3654596 11.4167877,39.9924857 Z" id="Path" fill="#A0616A"></path>
                            <path d="M71.51035,38 L73.59699,40.3777614 C74.0449545,40.8882221 74.4933986,41.3992754 74.9017384,41.9418022 C75.9044763,43.3203137 76.708896,44.8320199 77.2915961,46.4329437 C77.7451677,47.6202022 78.1216253,48.8848385 77.9631297,50.1455144 C77.8579008,50.791802 77.6829188,51.4248434 77.4412353,52.0335987 C77.0587923,53.2043958 76.5847045,54.3434017 76.02335,55.4400974 C75.551196,56.2733179 75.0178921,57.0705514 74.4278052,57.8252702 C72.8122335,59.961219 71.0444682,61.9782633 69.1382422,63.8607338 C68.4248745,64.5651681 68.1257075,65.7041918 67.8151745,66.6563879 C67.2423885,68.4127076 65.8794826,69.7806325 64.5615116,71.0777947 C64.1379756,71.5239363 63.6698733,71.9257659 63.1644892,72.2770302 C62.4073332,72.7634732 61.5224983,73.0148476 60.622031,72.9993219 C60.2278416,73.0020657 59.837542,72.9214708 59.4768395,72.7628456 C58.5749228,72.3356122 58.1165268,71.2952376 58.0225695,70.3036782 C57.9386109,69.4038596 58.0897777,68.4976913 58.4613372,67.6734877 C59.6587231,65.0275699 62.7335598,63.881002 64.9069904,61.9504458 C66.1814532,60.8184015 67.1560497,59.3964354 68.1172627,57.9898726 C68.7701501,57.1116718 69.315219,56.1586109 69.7408187,55.1510615 C70.2262045,53.8591284 70.0372687,52.3296941 70.4613284,51.0164371 C70.6405724,50.4613285 70.95925,49.9601036 71.1519858,49.4095079 C71.3447217,48.8589122 71.393246,48.2053088 71.0560883,47.7288588 C70.8017405,47.4260505 70.4775595,47.189301 70.1113472,47.0389141 C68.7229151,46.3359584 67.1678892,45.4312903 66.9021579,43.9008776 C66.7962375,43.0521759 67.0185505,42.1951092 67.5238365,41.5041661 C68.0272957,40.8224418 68.6156332,40.2073626 69.2746866,39.6737345 C69.8819202,39.13811 70.9030947,38.5356276 71.51035,38 Z" id="Path" fill="#A0616A"></path>
                            <path d="M10.1149277,43.0646596 C9.72767389,42.3375587 9.24353101,41.5957356 8.46210553,41.234203 C7.6964901,40.9252214 6.82799614,40.9218336 6.05961759,41.2248315 C5.30188649,41.5284821 4.59249042,41.927202 3.95122163,42.409867 L2.06085049,43.7050927 C1.63224667,43.9664143 1.25303995,44.2917619 0.938550454,44.6679915 C0.640252541,45.1243564 0.441627434,45.6308833 0.354025422,46.1586271 C0.0245386722,47.3621727 -0.0760446476,48.6099918 0.0568176271,49.8457351 C0.356809478,51.8271508 1.64203861,53.5569671 3.05667109,55.0652392 C3.94062856,56.0077142 5.03199174,56.9588201 6.37648615,56.9990206 C6.95685136,57.0163729 7.60229715,56.8037467 7.8436742,56.31287 C7.92725908,56.1182515 7.9716757,55.9110187 7.9747135,55.7014853 C8.11994953,53.4914122 7.26937147,51.3326887 6.27748953,49.3195643 C5.96123875,48.792436 5.77435984,48.2068085 5.73024678,47.6046546 C5.72313489,47.5033192 5.75148505,47.4025645 5.81106248,47.3174407 C5.89661176,47.2346781 6.01095758,47.1827853 6.13378212,47.170983 C7.49135445,46.921391 9.82971152,47.9016542 10.7820735,46.5003738 C11.3994706,45.5919565 10.5536703,43.8884407 10.1149277,43.0646596 Z" id="Path" fill="#A0616A"></path>
                            <path d="M36.8549546,9.98497228 C36.8376534,9.80047354 36.8648718,9.61452764 36.9343413,9.44263251 C37.1411702,9.07832829 37.6812434,9.17747726 38.0886438,9.27979378 C39.7270267,9.69126294 41.4533613,9.3188026 43.1402546,9.41492885 C44.827148,9.5110551 46.7273134,10.3511222 47.0664936,12 C48.2909085,11.135315 49.3463834,10.05501 50.1809043,8.8123226 C50.6490703,8.11441588 51.0571449,7.31501534 50.9934099,6.47802952 C50.9014835,5.27080496 49.8846792,4.36795092 48.943191,3.60232105 L46.1366666,1.32002742 C45.7683496,0.982803841 45.3428914,0.713350573 44.8800724,0.524194984 C44.2319851,0.303576347 43.5252387,0.40868757 42.8403549,0.409125109 C40.7973957,0.410431566 38.6192055,-0.515735332 36.8022437,0.414649819 C36.0432564,0.803292966 35.4719853,1.46929318 34.9212777,2.11869153 L32.4164162,5.07236219 C32.2278632,5.26060379 32.0901312,5.49326498 32.0160157,5.74873086 C31.9447487,6.1092667 32.1306183,6.46507896 32.1954823,6.82681341 C32.3137998,7.48666342 32.0284967,8.19088982 32.2478376,8.82456447 C32.6119798,9.8765487 33.8942102,10.0254632 34.6781131,10.6285563 C34.9702737,10.8533285 35.4281672,11.6150975 35.7762681,11.6057921 C36.4043239,11.5890084 36.8386226,10.4710605 36.8549546,9.98497228 Z" id="Path" fill="#3F3D56"></path>
                            <path d="M19.238072,32.6400591 C18.9180827,32.8468056 18.6372104,33.1087386 18.4084906,33.4137017 C18.1179061,33.8538289 18.0588418,34.4094623 17.8092372,34.874136 C17.2750967,35.8684729 16.0257686,36.2222176 15.2463972,37.037966 C15.1225805,37.1501288 15.0365404,37.2980033 15.0001362,37.4612074 C14.996378,37.6825974 15.0704921,37.8982546 15.2094976,38.070407 L18.9678247,43.9893382 C20.219167,44.0997129 21.4196451,43.3143375 22.6715192,43.4185917 C23.1389421,43.4575194 23.6172458,43.6192527 24.0654808,43.4808809 C24.3863851,43.3383385 24.6871485,43.1540715 24.9600102,42.9328345 C25.7068771,42.4597532 26.7016035,42.4046317 27.3282052,41.7804752 C27.9295523,41.1814714 28.0062794,40.2442829 27.9991091,39.3947751 C28.0091565,38.657052 27.9341871,37.9206317 27.7756885,37.200128 C27.2223693,34.9282134 25.4878729,33.1847405 24.400511,31.1722459 C23.8711476,30.1924708 23.5830939,29.6189075 22.4626407,30.2916455 C21.3363743,30.9678617 20.2980183,31.8635629 19.238072,32.6400591 Z" id="Path" fill="#3F3D56"></path>
                            <path d="M65.5480118,29.0504441 C66.2641928,29.5220173 66.9098471,30.095474 67.4651893,30.7532412 C68.0457483,31.5123019 68.3745624,32.4412686 68.9322468,33.2177639 C69.4728055,33.9704138 70.2086369,34.5533305 70.8217832,35.2463985 C71.751657,36.2974768 72.3814984,37.5797842 73,38.8448863 C71.4893091,40.8427125 69.8420813,42.7304647 68.0704794,44.4942043 C67.8732899,44.7298238 67.6134711,44.9030116 67.3219632,44.9931438 C66.9192141,45.0365056 66.5218496,44.8722382 66.263798,44.5557064 C65.9893396,44.2637264 65.7948137,43.9037676 65.5324294,43.6005877 C64.91315,42.9528035 64.0878343,42.5480536 63.2025476,42.4579712 C62.3251248,42.3719747 61.4421943,42.3596455 60.5627689,42.4211095 C60.3696865,42.4429195 60.1744333,42.4096467 59.9989885,42.3250367 C59.8685417,42.2337568 59.7627733,42.1107398 59.6913755,41.9672589 C58.659587,40.1869548 58.991463,37.9517348 59.3554831,35.9200269 L60.1907778,31.2579974 C60.3117982,30.3676189 60.5454516,29.4967622 60.8859673,28.6669353 C61.2023043,27.9813245 61.9098128,26.8186934 62.7797061,27.0239432 C63.6566283,27.2308367 64.8102558,28.5123615 65.5480118,29.0504441 Z" id="Path" fill="#3F3D56"></path>
                        </g>
                    </g>
                </g>
            </g>
        </g>
    </g>
</svg>