<svg id="notification" xmlns="http://www.w3.org/2000/svg" width="25.814" height="30.974" viewBox="0 0 25.814 30.974">
  <g id="Group_353" data-name="Group 353" transform="translate(0 4.517)">
    <g id="Group_352" data-name="Group 352">
      <path id="Path_189" data-name="Path 189" d="M68.379,96.275l-2.217-3.694A10.979,10.979,0,0,1,64.6,86.937V83.7a9.034,9.034,0,0,0-18.069,0v3.236a10.979,10.979,0,0,1-1.563,5.645L42.75,96.275a.645.645,0,0,0,.554.977H67.825a.645.645,0,0,0,.554-.977Zm-23.936-.314,1.63-2.717a12.258,12.258,0,0,0,1.747-6.308V83.7a7.744,7.744,0,0,1,15.488,0v3.236a12.269,12.269,0,0,0,1.746,6.308l1.631,2.717Z" transform="translate(-42.657 -74.667)" fill="#666"/>
    </g>
  </g>
  <g id="Group_355" data-name="Group 355" transform="translate(10.326)">
    <g id="Group_354" data-name="Group 354">
      <path id="Path_190" data-name="Path 190" d="M215.914,0a2.584,2.584,0,0,0-2.581,2.581V5.162a.645.645,0,0,0,1.291,0V2.581a1.291,1.291,0,0,1,2.581,0V5.162a.645.645,0,0,0,1.291,0V2.581A2.584,2.584,0,0,0,215.914,0Z" transform="translate(-213.333)" fill="#666"/>
    </g>
  </g>
  <g id="Group_357" data-name="Group 357" transform="translate(9.68 25.813)">
    <g id="Group_356" data-name="Group 356">
      <path id="Path_191" data-name="Path 191" d="M208.686,427a.646.646,0,0,0-1.115.653,1.936,1.936,0,1,1-3.353,0A.646.646,0,0,0,203.1,427a3.228,3.228,0,1,0,5.583,0Z" transform="translate(-202.666 -426.68)" fill="#666"/>
    </g>
  </g>
</svg>
