<svg width="30" height="33" viewBox="0 0 30 33" fill="none" xmlns="http://www.w3.org/2000/svg">
<path d="M29.2524 20.8159L26.172 17.7355V13.655C26.1685 10.835 25.1195 8.11657 23.2278 6.02523C21.3362 3.9339 18.7362 2.61826 15.9308 2.33272V0H13.655V2.33272C10.8495 2.61826 8.2496 3.9339 6.35795 6.02523C4.46629 8.11657 3.41727 10.835 3.41374 13.655V17.7355L0.333409 20.8159C0.119994 21.0292 6.44485e-05 21.3186 0 21.6204V25.0341C0 25.3359 0.119887 25.6253 0.333287 25.8387C0.546687 26.0521 0.83612 26.172 1.13791 26.172H9.10331V27.0562C9.07856 28.4998 9.58739 29.9017 10.5323 30.9934C11.4772 32.0851 12.7917 32.7897 14.2239 32.9722C15.015 33.0506 15.8137 32.9626 16.5687 32.7139C17.3237 32.4651 18.0183 32.0611 18.6078 31.5278C19.1972 30.9944 19.6686 30.3436 19.9914 29.6172C20.3143 28.8908 20.4816 28.1049 20.4825 27.3099V26.172H28.4478C28.7496 26.172 29.0391 26.0521 29.2525 25.8387C29.4659 25.6253 29.5858 25.3359 29.5858 25.0341V21.6204C29.5857 21.3186 29.4658 21.0292 29.2524 20.8159ZM18.2066 27.3099C18.2066 28.2153 17.847 29.0836 17.2068 29.7238C16.5666 30.364 15.6983 30.7237 14.7929 30.7237C13.8875 30.7237 13.0192 30.364 12.379 29.7238C11.7388 29.0836 11.3791 28.2153 11.3791 27.3099V26.172H18.2066V27.3099ZM27.3099 23.8962H2.27583V22.0915L5.35616 19.0111C5.56958 18.7978 5.68951 18.5084 5.68957 18.2066V13.655C5.68957 11.2406 6.64867 8.92516 8.35587 7.21795C10.0631 5.51075 12.3785 4.55166 14.7929 4.55166C17.2072 4.55166 19.5227 5.51075 21.2299 7.21795C22.9371 8.92516 23.8962 11.2406 23.8962 13.655V18.2066C23.8963 18.5084 24.0162 18.7978 24.2296 19.0111L27.3099 22.0915V23.8962Z" fill="white"/>
</svg>
