<?xml version="1.0" encoding="UTF-8"?>
<svg width="216px" height="90px" viewBox="0 0 216 90" version="1.1" xmlns="http://www.w3.org/2000/svg" xmlns:xlink="http://www.w3.org/1999/xlink">
    <!-- Generator: Sketch 53.2 (72643) - https://sketchapp.com -->
    <title>Group 2</title>
    <desc>Created with Sketch.</desc>
    <defs>
        <linearGradient x1="9.1%" y1="-85.6967228%" x2="136.8%" y2="89.0757717%" id="linearGradient-1">
            <stop stop-color="#00669B" offset="0%"></stop>
            <stop stop-color="#4929BB" offset="100%"></stop>
        </linearGradient>
    </defs>
    <g id="Page-1" stroke="none" stroke-width="1" fill="none" fill-rule="evenodd">
        <g id="1-Promotion-mock-up" transform="translate(-223.000000, -1626.000000)">
            <g id="Group-8" transform="translate(163.000000, 1526.000000)">
                <g id="Group-2" transform="translate(60.000000, 100.000000)">
                    <path d="M137,84 L46,84 C42.1340068,84 39,80.8659932 39,77 C39,73.1340068 42.1340068,70 46,70 L7,70 C3.13400675,70 4.73447626e-16,66.8659932 0,63 C-4.73447626e-16,59.1340068 3.13400675,56 7,56 L47,56 C50.8659932,56 54,52.8659932 54,49 C54,45.1340068 50.8659932,42 47,42 L22,42 C18.1340068,42 15,38.8659932 15,35 C15,31.1340068 18.1340068,28 22,28 L62,28 C58.1340068,28 55,24.8659932 55,21 C55,17.1340068 58.1340068,14 62,14 L119,14 C122.865993,14 126,17.1340068 126,21 C126,24.8659932 122.865993,28 119,28 L183,28 C186.865993,28 190,31.1340068 190,35 C190,38.8659932 186.865993,42 183,42 L205,42 C208.865993,42 212,45.1340068 212,49 C212,52.8659932 208.865993,56 205,56 L186,56 C182.134007,56 179,59.1340068 179,63 C179,66.8659932 182.134007,70 186,70 L192,70 C195.865993,70 199,73.1340068 199,77 C199,80.8659932 195.865993,84 192,84 L140,84 C139.485125,84 138.983234,83.944412 138.5,83.8389102 C138.016766,83.944412 137.514875,84 137,84 Z M209,84 C205.134007,84 202,80.8659932 202,77 C202,73.1340068 205.134007,70 209,70 C212.865993,70 216,73.1340068 216,77 C216,80.8659932 212.865993,84 209,84 Z" id="Combined-Shape" fill-opacity="0.06" fill="#6236FF"></path>
                    <path d="M146.5,78 C147.328369,78 148,78.6716308 148,79.5 L148,84 C148,87.3134766 145.313477,90 142,90 L64,90 C60.6865234,90 58,87.3134766 58,84 L58,79.5 C58,78.6716308 58.6716308,78 59.5,78 L62.5,78 L62.5,51 L65.5,51 L65.5,78 L68.5,78 L68.5,51 L71.5,51 L71.5,78 L93.822754,78 C95.4208984,77.9941406 96.8828125,78.8979493 97.5925292,80.3298339 C97.7954103,80.7421875 98.2165527,81.0029297 98.677246,81 L107.31543,81 C107.775391,81.0029297 108.197266,80.7421875 108.400146,80.3298339 C109.110596,78.895752 110.576172,77.9919433 112.177246,78 L134.5,78 L134.5,75 L137.5,75 L137.5,78 L140.5,78 L140.5,75 L143.5,75 L143.5,78 L146.5,78 Z M145,84 L145,80.9999756 L112.177246,81 C111.719482,81 111.302002,81.2600098 111.099854,81.6701661 C110.389404,83.1042482 108.923828,84.0087891 107.322754,84 L98.677246,84 C97.0791016,84.0058594 95.6171875,83.1020509 94.9074708,81.6701661 C94.7045898,81.2578125 94.2834473,80.9970703 93.822754,81 L61,80.9999756 L61,84 C61,85.6567384 62.3432616,87 64,87 L142,87 C143.656738,87 145,85.6567384 145,84 Z M97,24 L70.3913043,24 C67.942213,24 65.9565217,26.0148926 65.9565217,28.5 L65.9565217,30 L63,30 L63,28.5 C63.0050527,24.3596192 66.3109291,21.005127 70.3913043,21 L97,21 L97,24 Z M69,30 C69,28.3432618 70.32194,27 71.952381,27 L100,27 L100,30 L69,30 Z M143.09442,18.8671918 L147.510906,22.880381 C147.822081,23.1646821 148,23.5669536 148,23.9890089 C148,24.4110642 147.822081,24.8133356 147.510906,25.097637 L143.108331,29.1108261 L144.907288,34.7873237 C145.036151,35.1903278 144.98856,35.6277705 144.777693,35.994138 C144.566826,36.3597728 144.211721,36.6198937 143.799506,36.7100202 L137.983099,37.9827807 L136.711309,43.803627 C136.621251,44.2161566 136.361329,44.5715332 135.995973,44.7825609 C135.629885,44.9935885 135.192776,45.0412163 134.790811,44.9122549 L129.117911,43.1038651 L125.108515,47.5098002 C124.82443,47.8219454 124.421733,48 124,48 C123.578267,48 123.176302,47.8219454 122.892218,47.5098002 L118.882089,43.1038651 L113.209921,44.9122549 C112.807956,45.0412163 112.370115,44.9935885 112.004759,44.7825609 C111.638671,44.5715332 111.378749,44.2161566 111.288691,43.803627 L110.017633,37.9827807 L104.200494,36.7100202 C103.788279,36.6198937 103.433174,36.3597728 103.222307,35.994138 C103.01144,35.6277705 102.964581,35.1903278 103.092712,34.7873237 L104.892401,29.1108261 L100.489826,25.097637 C100.177919,24.8133356 100,24.4110642 100,23.9890089 C100,23.5669536 100.177919,23.1646821 100.489826,22.880381 L104.892401,18.8671918 L103.092712,13.1906942 C102.964581,12.7876901 103.01144,12.3502472 103.222307,11.9838798 C103.433174,11.618245 103.788279,11.3581242 104.200494,11.2679978 L110.005186,9.99523725 L111.276976,4.17439095 C111.367034,3.76186114 111.626956,3.40648474 111.992312,3.19545708 C112.3584,2.98442942 112.795509,2.93680151 113.197474,3.06576286 L118.876232,4.87415286 L122.88636,0.468217574 C123.177034,0.168529034 123.576802,0 123.994143,0 C124.411483,0 124.811251,0.168529034 125.101925,0.468217574 L129.117911,4.86609273 L134.790811,3.06576286 C135.192776,2.93899976 135.629153,2.98809305 135.993776,3.20058609 C136.3584,3.41234662 136.616126,3.76845571 136.705452,4.18025283 L137.970652,9.99523725 L143.787791,11.2679978 C144.199274,11.3588569 144.554379,11.6189779 144.765246,11.9846126 C144.975381,12.3502472 145.02224,12.7884228 144.894109,13.1906942 L143.09442,18.8671918 Z M140.364136,27.5398425 L144.260045,23.9890089 L140.364136,20.4447701 C139.93142,20.0490932 139.767412,19.4379922 139.946063,18.8796483 L141.544403,13.8538193 L136.396473,12.7268731 C135.825376,12.6008427 135.379481,12.1546071 135.253546,11.5830737 L134.12746,6.43121454 L129.106196,8.02784401 C128.547546,8.20663114 127.936911,8.04323139 127.542268,7.60945231 L123.994143,3.70763885 L120.446017,7.61238325 C120.051374,8.04616233 119.440739,8.20956227 118.882089,8.03150763 L113.860826,6.43121454 L112.740596,11.5772118 C112.614662,12.1487453 112.168767,12.5949808 111.597669,12.7210112 L106.449739,13.8479574 L108.045151,18.8730537 C108.223802,19.4321303 108.060527,20.0432313 107.627078,20.4381755 L103.728241,23.9890089 L107.630007,27.5398425 C108.063455,27.9347866 108.226731,28.5458875 108.048812,29.1049643 L106.449739,34.1300603 L111.591812,35.2511449 C112.162909,35.3771753 112.608804,35.8234108 112.734739,36.3949441 L113.860826,41.5468034 L118.888679,39.9501739 C119.03365,39.9032789 119.18521,39.8798314 119.338235,39.8790987 C119.759968,39.8790987 120.161933,40.0564205 120.446017,40.3685656 L123.994143,44.2703791 L127.542268,40.3656347 C127.937643,39.9340539 128.547546,39.7706539 129.106196,39.9465103 L134.12746,41.5468034 L135.247689,36.4008059 C135.373623,35.8292727 135.819519,35.3830372 136.390616,35.2570068 L141.538546,34.1300603 L139.946063,29.1049643 C139.767412,28.5458875 139.93142,27.9347866 140.364136,27.5398425 Z M116,29.8939083 L130.893181,15 L133,17.1060917 L118.106092,32 L116,29.8939083 Z M121,19.5 C121,21.9851076 118.985107,24 116.5,24 C114.014893,24 112,21.9851076 112,19.5 C112,17.0148926 114.014893,15 116.5,15 C118.985107,15 121,17.0148926 121,19.5 Z M115,19.5 C115,20.3283692 115.671631,21 116.5,21 C117.328369,21 118,20.3283692 118,19.5 C118,18.6716308 117.328369,18 116.5,18 C115.671631,18 115,18.6716308 115,19.5 Z M131.5,24 C133.985107,24 136,26.0148926 136,28.5 C136,30.9851076 133.985107,33 131.5,33 C129.014893,33 127,30.9851076 127,28.5 C127,26.0148926 129.014893,24 131.5,24 Z M131.5,30 C132.328369,30 133,29.3283692 133,28.5 C133,27.6716308 132.328369,27 131.5,27 C130.671631,27 130,27.6716308 130,28.5 C130,29.3283692 130.671631,30 131.5,30 Z M97.0916692,40.0410047 C97.586054,40.1585658 97.9860302,40.5259441 98.151786,41.0145572 L105.919251,63.9771703 C106.074917,64.437128 106.00285,64.9455796 105.726109,65.3416133 C105.449369,65.7376471 105.001828,65.9727692 104.524739,65.9727692 L104.499516,65.9727692 L88.4543462,65.7016441 L91.5100199,72.8934417 C91.7089269,73.3585425 91.664245,73.8956497 91.3911081,74.3203391 C91.1179712,74.7450283 90.6531341,75.0007236 90.1551457,74.9999889 L84.3486451,74.9999889 C83.7850752,75.0021932 83.2697905,74.676696 83.0204359,74.1616316 L79.9460247,67.8192127 C77.7890363,67.5488223 75.9786938,66.0330194 75.3012565,63.9279418 C74.4357226,61.3313119 75.4850294,58.4731088 77.8099359,57.0947052 L81.3124298,54.9697894 L95.7180573,40.4348343 C96.0776755,40.0696603 96.5980048,39.9205047 97.0916692,40.0410047 Z M78.1054137,62.9632062 C78.3583716,63.7376398 78.9320311,64.3599785 79.6743293,64.6663721 C80.4295996,64.9874607 81.2850439,64.9595398 82.0179731,64.5884878 L84.2037889,63.4856182 L81.6223211,58.2806025 L79.3168731,59.6751704 C78.1969398,60.337921 77.6903033,61.7126506 78.1054137,62.9632062 Z M85.2667886,71.9918953 L87.9023071,71.9918953 L85.4498407,66.2167084 L83.3209585,67.2909227 C83.2279911,67.3379471 83.1278171,67.3541116 83.0348495,67.3959929 L85.2667886,71.9918953 Z M87.1088408,62.6759165 L102.45135,62.9286728 L96.1353298,44.257038 L84.0329883,56.4672232 L87.1088408,62.6759165 Z M105,50.8919789 L110.007146,49 L111,52.1080213 L105.993593,54 L105,50.8919789 Z M101,41.7444327 L104.022213,38 L106,40.2555673 L102.977118,44 L101,41.7444327 Z M110,61 L114,61 L114,64 L110,64 L110,61 Z M146.52381,50.6666667 C147.33903,50.6666667 148,51.3489583 148,52.1904762 L148,70.4761905 C148,71.3177084 147.33903,72 146.52381,72 L118.47619,72 C117.66097,72 117,71.3177084 117,70.4761905 L117,52.1904762 C117,51.3489583 117.66097,50.6666667 118.47619,50.6666667 L134.714286,50.6666667 L134.714286,47.6190476 L137.666667,47.6190476 L137.666667,50.6666667 L140.619048,50.6666667 L140.619048,40 L143.571429,40 L143.571429,50.6666667 L146.52381,50.6666667 Z M145.047619,68.952381 L145.047619,53.7142857 L119.952381,53.7142857 L119.952381,68.952381 L145.047619,68.952381 Z M123,57 L129,57 L129,60 L123,60 L123,57 Z M132,57 L142,57 L142,60 L132,60 L132,57 Z M123,63 L142,63 L142,66 L123,66 L123,63 Z M60.4705882,48 C59.6584616,48 59,47.3283692 59,46.5 L59,34.5 C59,33.6716308 59.6584616,33 60.4705882,33 L82.5294118,33 C83.3415384,33 84,33.6716308 84,34.5 L84,46.5 C84,47.3283692 83.3415384,48 82.5294118,48 L60.4705882,48 Z M61.9411765,36 L61.9411765,45 L81.0588235,45 L81.0588235,36 L61.9411765,36 Z M64,39 L67,39 L67,42 L64,42 L64,39 Z M71,39 L78,39 L78,42 L71,42 L71,39 Z" id="Combined-Shape" fill="url(#linearGradient-1)" fill-rule="nonzero"></path>
                </g>
            </g>
        </g>
    </g>
</svg>