<svg xmlns="http://www.w3.org/2000/svg" width="26.035" height="26.033" viewBox="0 0 26.035 26.033">
  <g id="payment-method" transform="translate(0 -0.023)">
    <g id="Group_396" data-name="Group 396" transform="translate(7.767 19.541)">
      <g id="Group_395" data-name="Group 395">
        <path id="Path_221" data-name="Path 221" d="M153.757,384.266a.53.53,0,0,0-.029-.1.518.518,0,0,0-.047-.087.5.5,0,0,0-.14-.14.506.506,0,0,0-.088-.047.476.476,0,0,0-.1-.029.5.5,0,0,0-.2,0,.492.492,0,0,0-.1.029.521.521,0,0,0-.087.047.507.507,0,0,0-.216.323.487.487,0,0,0,0,.2.48.48,0,0,0,.029.1.473.473,0,0,0,.047.088.494.494,0,0,0,.14.14.515.515,0,0,0,.087.047.494.494,0,0,0,.1.029.487.487,0,0,0,.2,0,.478.478,0,0,0,.1-.029.5.5,0,0,0,.088-.047.494.494,0,0,0,.14-.14.5.5,0,0,0,.047-.088.515.515,0,0,0,.029-.1.489.489,0,0,0,0-.2Z" transform="translate(-152.75 -383.857)" fill="#fff"/>
      </g>
    </g>
    <g id="Group_398" data-name="Group 398" transform="translate(0 15.782)">
      <g id="Group_397" data-name="Group 397">
        <path id="Path_222" data-name="Path 222" d="M23.391,314.247l-.006-.015a2.115,2.115,0,0,0-2.865-1.056l-3.543.98a2.322,2.322,0,0,0-1.438-1.416l-.013,0-3.894-1.322a4.017,4.017,0,0,0-3.24-1.491,4.066,4.066,0,0,0-3.176,1.9H.509a.508.508,0,0,0-.509.509v6.411a.508.508,0,0,0,.509.509H3.532a.508.508,0,0,0,.509-.509v-.439H5.458a.508.508,0,0,0,.509-.509v-.146a3.605,3.605,0,0,1,1.857.667,30.77,30.77,0,0,0,3.055,1.56l.022.009a4.564,4.564,0,0,0,1.636.308,4.053,4.053,0,0,0,1.685-.361l7.83-2.8.041-.017A2.17,2.17,0,0,0,23.391,314.247Zm-20.367,3.99H1.017v-5.394H3.023Zm1.926-.948H4.04v-4.446H4.95Zm16.738-1.208-7.827,2.8-.023.009-.02.009a3.3,3.3,0,0,1-2.532.043,29.467,29.467,0,0,1-2.952-1.508,4.577,4.577,0,0,0-2.366-.8v-4.1a3.14,3.14,0,0,1,2.424-1.6,2.934,2.934,0,0,1,2.489,1.169.509.509,0,0,0,.27.215l4.041,1.372a1.141,1.141,0,0,1,.83,1.346.991.991,0,0,1-1.217.684l-4.556-1.444a.509.509,0,1,0-.307.97L14.5,316.7l.015,0a2,2,0,0,0,1.526-.177,1.994,1.994,0,0,0,.954-1.2q.018-.062.031-.124l3.818-1.058c.551-.188,1.275-.256,1.6.486C22.78,315.5,21.913,315.975,21.687,316.083Z" transform="translate(0 -309.922)" fill="#fff"/>
      </g>
    </g>
    <g id="Group_400" data-name="Group 400" transform="translate(17.251 6.302)">
      <g id="Group_399" data-name="Group 399">
        <path id="Path_223" data-name="Path 223" d="M340.257,123.907a.491.491,0,0,0-.029-.1.5.5,0,0,0-.187-.228.515.515,0,0,0-.087-.047.506.506,0,0,0-.294-.029.478.478,0,0,0-.1.029.5.5,0,0,0-.088.047.494.494,0,0,0-.14.14.519.519,0,0,0-.047.087.494.494,0,0,0-.029.1.487.487,0,0,0,0,.2.479.479,0,0,0,.029.1.5.5,0,0,0,.047.088.494.494,0,0,0,.14.14.5.5,0,0,0,.088.047.513.513,0,0,0,.1.029.5.5,0,0,0,.1.01.51.51,0,0,0,.1-.01.536.536,0,0,0,.1-.029.515.515,0,0,0,.087-.047.5.5,0,0,0,.14-.14.47.47,0,0,0,.047-.088.476.476,0,0,0,.029-.1.511.511,0,0,0,0-.2Z" transform="translate(-339.25 -123.498)" fill="#fff"/>
      </g>
    </g>
    <g id="Group_402" data-name="Group 402" transform="translate(1.51 0.023)">
      <g id="Group_401" data-name="Group 401">
        <path id="Path_224" data-name="Path 224" d="M53.708,1.745H50.684a.508.508,0,0,0-.508.509v.439H48.758a.508.508,0,0,0-.509.509v.146a3.605,3.605,0,0,1-1.857-.667,30.769,30.769,0,0,0-3.055-1.56l-.022-.009a4.326,4.326,0,0,0-3.32.052L37.948,1.9,36.223.172a.509.509,0,0,0-.719,0L29.842,5.835a.5.5,0,0,0,0,.719l9.676,9.676a.549.549,0,0,0,.719,0l5.17-5.17c.134.012.274.018.418.018A4.066,4.066,0,0,0,49,9.174h4.707a.508.508,0,0,0,.508-.509V2.254A.508.508,0,0,0,53.708,1.745ZM35.864,1.251,37.023,2.41a2.217,2.217,0,0,1-2.318,0Zm-3.784,6.1L30.92,6.194l1.159-1.159a2.217,2.217,0,0,1,0,2.318Zm7.8,7.8-1.159-1.159a2.214,2.214,0,0,1,2.317,0Zm1.891-1.891a3.231,3.231,0,0,0-3.783,0L32.812,8.086a3.231,3.231,0,0,0,0-3.783l1.16-1.16a3.231,3.231,0,0,0,3.783,0l1.1,1.1a2.015,2.015,0,0,0-1.513,1.109,2.9,2.9,0,1,0,3.332,3.588l1.717.583A3.246,3.246,0,0,0,42.93,12.1Zm-3.092-5,.013,0,1.017.345a1.882,1.882,0,1,1-2.554-2.149A2.251,2.251,0,0,0,38.677,8.261Zm4.986,3.105a2.224,2.224,0,0,1-.325-1.057,3.954,3.954,0,0,0,.9.486Zm4.587-2.9a3.14,3.14,0,0,1-2.424,1.6,3.7,3.7,0,0,1-.53-.037h0a2.913,2.913,0,0,1-1.884-1.031c-.01-.015-.055-.073-.061-.083a.507.507,0,0,0-.28-.233L39.025,7.3a1.141,1.141,0,0,1-.83-1.346h0a.991.991,0,0,1,1.217-.682l4.556,1.444a.509.509,0,0,0,.307-.97L40.652,4.6l-.032-.032h0L38.743,2.692l1.612-.577.018-.007.005,0L40.4,2.1a3.3,3.3,0,0,1,2.532-.043,29.456,29.456,0,0,1,2.953,1.508,4.576,4.576,0,0,0,2.365.8Zm1.926-.306h-.909V3.71h.909Zm3.023,0H51.193V2.762H53.2Z" transform="translate(-29.691 -0.023)" fill="#fff"/>
      </g>
    </g>
  </g>
</svg>
