<?xml version="1.0" encoding="UTF-8"?>
<svg width="15px" height="16px" viewBox="0 0 15 16" version="1.1" xmlns="http://www.w3.org/2000/svg" xmlns:xlink="http://www.w3.org/1999/xlink">
    <!-- Generator: Sketch 53.2 (72643) - https://sketchapp.com -->
    <title>icon/16-date copy 3</title>
    <desc>Created with Sketch.</desc>
    <g id="Symbols" stroke="none" stroke-width="1" fill="none" fill-rule="evenodd">
        <g id="merchant-item" transform="translate(-365.000000, -59.000000)">
            <g id="Group">
                <g id="icon/16-phone" transform="translate(365.000000, 59.000000)">
                    <rect id="Rectangle" fill="#FFFFFF" fill-rule="evenodd" x="0" y="0" width="15" height="16"></rect>
                    <path d="M10.8437143,0 L4.15628571,0 C3.59914286,0 3.14314286,0.485942857 3.14314286,1.08068571 L3.14314286,14.9188571 C3.14314286,15.5136 3.59914286,16 4.15628571,16 L10.8437143,16 C11.4008571,16 11.8568571,15.5145143 11.8568571,14.9193143 L11.8568571,1.08068571 C11.8568571,0.485942857 11.4008571,0 10.8437143,0 Z M6.43028571,0.778971429 L8.56971429,0.778971429 C8.63742857,0.778971429 8.69228571,0.837485714 8.69228571,0.910171429 C8.69228571,0.9824 8.63742857,1.04091429 8.56971429,1.04091429 L6.43028571,1.04091429 C6.36257143,1.04091429 6.30771429,0.9824 6.30771429,0.910171429 C6.30771429,0.837485714 6.36257143,0.778971429 6.43028571,0.778971429 Z M7.5,15.4596571 C7.22014286,15.4596571 6.99342857,15.2178286 6.99342857,14.9188571 C6.99342857,14.6198857 7.22014286,14.3785143 7.5,14.3785143 C7.77985714,14.3785143 8.00657143,14.6198857 8.00657143,14.9188571 C8.00657143,15.2178286 7.77985714,15.4596571 7.5,15.4596571 Z M11.1518571,14 L3.84814286,14 L3.84814286,1.71382857 L11.1518571,1.71382857 L11.1518571,14 Z" id="Shape" fill="#666666" fill-rule="nonzero"></path>
                </g>
            </g>
        </g>
    </g>
</svg>