<svg width="22" height="18" viewBox="0 0 22 18" fill="none" xmlns="http://www.w3.org/2000/svg">
<path fill-rule="evenodd" clip-rule="evenodd" d="M2.75 0.75C2.02065 0.75 1.32118 1.03973 0.805456 1.55546C0.289731 2.07118 0 2.77065 0 3.5V14.5C0 15.2293 0.289731 15.9288 0.805456 16.4445C1.32118 16.9603 2.02065 17.25 2.75 17.25H19.25C19.9793 17.25 20.6788 16.9603 21.1945 16.4445C21.7103 15.9288 22 15.2293 22 14.5V3.5C22 2.77065 21.7103 2.07118 21.1945 1.55546C20.6788 1.03973 19.9793 0.75 19.25 0.75H2.75ZM1.375 3.5C1.375 3.13533 1.51987 2.78559 1.77773 2.52773C2.03559 2.26987 2.38533 2.125 2.75 2.125H19.25C19.6147 2.125 19.9644 2.26987 20.2223 2.52773C20.4801 2.78559 20.625 3.13533 20.625 3.5V14.5C20.625 14.8647 20.4801 15.2144 20.2223 15.4723C19.9644 15.7301 19.6147 15.875 19.25 15.875H2.75C2.38533 15.875 2.03559 15.7301 1.77773 15.4723C1.51987 15.2144 1.375 14.8647 1.375 14.5V3.5ZM11.6875 4.1875C11.6875 4.00516 11.6151 3.8303 11.4861 3.70136C11.3572 3.57243 11.1823 3.5 11 3.5C10.8177 3.5 10.6428 3.57243 10.5139 3.70136C10.3849 3.8303 10.3125 4.00516 10.3125 4.1875V13.8125C10.3125 13.9948 10.3849 14.1697 10.5139 14.2986C10.6428 14.4276 10.8177 14.5 11 14.5C11.1823 14.5 11.3572 14.4276 11.4861 14.2986C11.6151 14.1697 11.6875 13.9948 11.6875 13.8125V4.1875ZM2.75 5.5625C2.75 5.38016 2.82243 5.2053 2.95136 5.07636C3.0803 4.94743 3.25516 4.875 3.4375 4.875H8.25C8.43234 4.875 8.6072 4.94743 8.73614 5.07636C8.86507 5.2053 8.9375 5.38016 8.9375 5.5625C8.9375 5.74484 8.86507 5.9197 8.73614 6.04864C8.6072 6.17757 8.43234 6.25 8.25 6.25H3.4375C3.25516 6.25 3.0803 6.17757 2.95136 6.04864C2.82243 5.9197 2.75 5.74484 2.75 5.5625ZM2.75 8.3125C2.75 8.1302 2.82243 7.9553 2.95136 7.82636C3.0803 7.69743 3.25516 7.625 3.4375 7.625H8.25C8.43234 7.625 8.6072 7.69743 8.73614 7.82636C8.86507 7.9553 8.9375 8.1302 8.9375 8.3125C8.9375 8.4948 8.86507 8.6697 8.73614 8.7986C8.6072 8.9276 8.43234 9 8.25 9H3.4375C3.25516 9 3.0803 8.9276 2.95136 8.7986C2.82243 8.6697 2.75 8.4948 2.75 8.3125ZM2.75 11.0625C2.75 10.8802 2.82243 10.7053 2.95136 10.5764C3.0803 10.4474 3.25516 10.375 3.4375 10.375H8.25C8.43234 10.375 8.6072 10.4474 8.73614 10.5764C8.86507 10.7053 8.9375 10.8802 8.9375 11.0625C8.9375 11.2448 8.86507 11.4197 8.73614 11.5486C8.6072 11.6776 8.43234 11.75 8.25 11.75H3.4375C3.25516 11.75 3.0803 11.6776 2.95136 11.5486C2.82243 11.4197 2.75 11.2448 2.75 11.0625ZM14.4375 4.875C14.2552 4.875 14.0803 4.94743 13.9514 5.07636C13.8224 5.2053 13.75 5.38016 13.75 5.5625V9.6875C13.75 9.8698 13.8224 10.0447 13.9514 10.1736C14.0803 10.3026 14.2552 10.375 14.4375 10.375H18.5625C18.7448 10.375 18.9197 10.3026 19.0486 10.1736C19.1776 10.0447 19.25 9.8698 19.25 9.6875V5.5625C19.25 5.38016 19.1776 5.2053 19.0486 5.07636C18.9197 4.94743 18.7448 4.875 18.5625 4.875H14.4375ZM17.875 9H15.125V6.25H17.875V9Z" fill="white"/>
</svg>
