<?xml version="1.0" encoding="UTF-8"?>
<svg width="216px" height="72px" viewBox="0 0 216 72" version="1.1" xmlns="http://www.w3.org/2000/svg" xmlns:xlink="http://www.w3.org/1999/xlink">
    <!-- Generator: Sketch 53.2 (72643) - https://sketchapp.com -->
    <title>Group 9</title>
    <desc>Created with Sketch.</desc>
    <defs>
        <linearGradient x1="9.1%" y1="-85.6967228%" x2="136.8%" y2="89.0757717%" id="linearGradient-1">
            <stop stop-color="#00669B" offset="0%"></stop>
            <stop stop-color="#4929BB" offset="100%"></stop>
        </linearGradient>
    </defs>
    <g id="Page-1" stroke="none" stroke-width="1" fill="none" fill-rule="evenodd">
        <g id="1-Promotion-mock-up" transform="translate(-613.000000, -1639.000000)">
            <g id="Group-8-Copy" transform="translate(553.000000, 1526.000000)">
                <g id="Group-9" transform="translate(60.000000, 113.000000)">
                    <path d="M137,71 L46,71 C42.1340068,71 39,67.8659932 39,64 C39,60.1340068 42.1340068,57 46,57 L7,57 C3.13400675,57 4.73447626e-16,53.8659932 0,50 C-4.73447626e-16,46.1340068 3.13400675,43 7,43 L47,43 C50.8659932,43 54,39.8659932 54,36 C54,32.1340068 50.8659932,29 47,29 L22,29 C18.1340068,29 15,25.8659932 15,22 C15,18.1340068 18.1340068,15 22,15 L62,15 C58.1340068,15 55,11.8659932 55,8 C55,4.13400675 58.1340068,1 62,1 L119,1 C122.865993,1 126,4.13400675 126,8 C126,11.8659932 122.865993,15 119,15 L183,15 C186.865993,15 190,18.1340068 190,22 C190,25.8659932 186.865993,29 183,29 L205,29 C208.865993,29 212,32.1340068 212,36 C212,39.8659932 208.865993,43 205,43 L186,43 C182.134007,43 179,46.1340068 179,50 C179,53.8659932 182.134007,57 186,57 L192,57 C195.865993,57 199,60.1340068 199,64 C199,67.8659932 195.865993,71 192,71 L140,71 C139.485125,71 138.983234,70.944412 138.5,70.8389102 C138.016766,70.944412 137.514875,71 137,71 Z M209,71 C205.134007,71 202,67.8659932 202,64 C202,60.1340068 205.134007,57 209,57 C212.865993,57 216,60.1340068 216,64 C216,67.8659932 212.865993,71 209,71 Z" id="Combined-Shape" fill-opacity="0.06" fill="#6236FF"></path>
                    <path d="M97.2115024,30.2657076 C97.6035615,30.6579074 97.6035615,31.2935271 97.2113617,31.6855862 L89.8281899,39.0687581 C89.6321603,39.2647876 89.3752406,39.3628024 89.1183209,39.3628024 C88.8614012,39.3628024 88.6044815,39.264647 88.408452,39.0687581 C88.0163928,38.6766989 88.0163928,38.0410793 88.408452,37.6488795 L95.7916238,30.2657076 C96.1836829,29.8737891 96.8194432,29.8737891 97.2115024,30.2657076 Z M102.369162,35.4233671 C102.761221,35.8154262 102.761221,36.4510459 102.369162,36.8432457 L94.98599,44.2262768 C94.7899604,44.4223064 94.5330407,44.5203212 94.276121,44.5203212 C94.0190607,44.5203212 93.762141,44.4223064 93.5661114,44.2264175 C93.1740522,43.8343583 93.1740522,43.1987387 93.5661114,42.8065389 L100.949283,35.4233671 C101.341342,35.0314485 101.977103,35.0314485 102.369162,35.4233671 Z M112.68434,45.7385453 C113.076399,46.1306045 113.076399,46.7662241 112.68434,47.1584239 L105.301168,54.5415957 C105.105139,54.7376253 104.848219,54.8356401 104.591299,54.8356401 C104.33438,54.8356401 104.07746,54.7376253 103.88143,54.5415957 C103.489371,54.1495365 103.489371,53.5139169 103.88143,53.1217171 L111.264461,45.7385453 C111.656521,45.3466267 112.29214,45.3466267 112.68434,45.7385453 Z M107.526821,40.5808859 C107.91888,40.972945 107.91888,41.6085647 107.526821,42.0007645 L100.143509,49.3839363 C99.9474792,49.5799659 99.6905595,49.6779807 99.4336398,49.6779807 C99.1767201,49.6779807 98.9198004,49.5799659 98.7237708,49.3839363 C98.3317116,48.9918771 98.3317116,48.3562575 98.7237708,47.9640577 L106.106943,40.5808859 C106.499142,40.1888267 107.134762,40.1891079 107.526821,40.5808859 Z M141.94028,26.4166934 C142.0802,26.8464397 141.967139,27.3137327 141.645251,27.6357612 L97.6361863,71.6446851 C97.4054226,71.8754488 97.1001283,71.9989165 96.7875216,71.9989165 C96.6639133,71.9989165 96.5391799,71.979651 96.4173997,71.9399951 C95.9935596,71.8020432 95.6872809,71.4426087 95.6178127,71.0016125 L94.8792565,66.2967617 L90.0896096,65.5449868 C89.5812545,65.4648313 89.1865235,65.069819 89.1069304,64.5618858 L88.3550149,59.7726607 L83.5486338,59.0180734 C83.5223371,59.0139953 83.4978686,59.0055579 83.472275,58.9997923 C83.0641847,58.9082462 82.7380781,58.6129362 82.6101105,58.2198926 C82.590845,58.1602681 82.5759389,58.0985343 82.5659546,58.035113 L81.8113672,53.2290131 L77.3804517,52.5334877 C76.9357992,52.4635977 76.5780522,52.1526784 76.442069,51.7360101 C76.4226629,51.6765262 76.4077568,51.6147924 76.3977725,51.551371 L75.7021065,47.119893 L70.9978182,46.3813367 C70.6673523,46.3297278 70.3823078,46.1445262 70.2021687,45.8763566 C70.1421224,45.7870605 70.0937478,45.6883426 70.0591543,45.5824529 C69.9189524,45.1525659 70.0321546,44.6854136 70.3543237,44.3631038 L102.558863,12.1584236 C102.950922,11.766505 103.586683,11.766505 103.978742,12.1584236 C104.370801,12.5504828 104.370801,13.1861024 103.978742,13.5783022 L81.2117473,36.3454374 L97.1956119,52.3298644 C97.5876711,52.7219236 97.5876711,53.3575432 97.1956119,53.749743 C96.8035527,54.1416616 96.1677925,54.1416616 95.7757333,53.749743 L79.7917281,37.7655972 L72.9081927,44.6491326 L76.6094113,45.2301902 C77.1169226,45.3093614 77.5123568,45.7043737 77.5920905,46.2131506 L78.2876158,50.643785 L82.7185314,51.3393103 C83.2266052,51.4193253 83.6213363,51.8139157 83.7012106,52.321427 L84.4559386,57.1283706 L89.2624603,57.8830986 C89.579567,57.9324576 89.8530803,58.1052842 90.0329382,58.3522196 C90.1409373,58.5002965 90.2151867,58.6750919 90.2451395,58.8659184 L90.997055,63.6552841 L95.7865613,64.407059 C96.2946351,64.4870739 96.6893662,64.8816643 96.7692405,65.3893163 L97.3502981,69.0909568 L104.233833,62.2074214 L100.938596,58.9121837 C100.546537,58.5201245 100.546537,57.8845049 100.938596,57.4923051 C101.330796,57.1002459 101.966556,57.1005271 102.358474,57.4923051 L105.653712,60.7875428 L139.09096,27.3504355 L135.389882,26.7693779 C134.882652,26.6903473 134.487218,26.2956163 134.407203,25.7872612 L133.655147,20.9970518 L128.86564,20.2452769 C128.356723,20.1651214 127.961992,19.7696872 127.882821,19.2613321 L127.128233,14.456076 L122.321852,13.7014886 C121.813778,13.6214737 121.419188,13.2268833 121.339314,12.719372 L120.643648,8.28789388 L116.212732,7.59236853 C115.703814,7.51221296 115.309083,7.11677881 115.229912,6.60842374 L114.648995,2.90847072 L109.016168,8.54115736 C108.624109,8.93321654 107.988349,8.93307592 107.596289,8.54101674 C107.20423,8.14895756 107.20423,7.51333795 107.596289,7.12113815 L114.363248,0.354461112 C114.685557,0.0321513428 115.152569,-0.081050823 115.582597,0.059151114 C116.006437,0.197243694 116.312575,0.556959396 116.381762,0.998096283 L117.120177,5.7021033 L121.550952,6.39762865 C122.058182,6.47665923 122.453617,6.87139026 122.533632,7.37974533 L123.229298,11.8112234 L128.035679,12.5658108 C128.544596,12.6459663 128.939468,13.0412599 129.018498,13.5496149 L129.773086,18.3550117 L134.562592,19.1067866 C135.07151,19.1869422 135.466241,19.5823763 135.545412,20.0907314 L136.297187,24.8791127 L141.001616,25.6176689 C141.442331,25.6867152 141.802046,25.9928532 141.94028,26.4166934 Z M118.244043,40.0054532 C118.369057,40.3809188 118.223231,40.8191026 117.931014,41.1113189 C117.451206,41.5911273 116.720946,41.5286903 116.345481,41.1530841 C116.241138,41.0486007 116.157607,40.9234455 116.115983,40.756525 L108.437642,17.763548 C108.291393,17.3669888 108.437642,17.0123356 108.687952,16.7620252 C109.105183,16.3447944 109.877067,16.1985456 110.357157,16.6784947 C110.482312,16.8036498 110.565702,16.928805 110.628279,17.0747726 L118.244043,40.0054532 Z M125.880619,26.6935817 C127.758369,28.5711908 127.215842,30.490987 125.630168,32.0768017 C124.023541,33.6832881 122.124838,34.2048618 120.247229,32.3272527 L117.15913,29.2391538 C115.28138,27.3614041 115.802954,25.4627015 117.409441,23.8560745 C118.995255,22.2704004 120.914911,21.7278737 122.792661,23.6056235 L125.880619,26.6935817 Z M124.294663,30.7412974 C125.108453,29.9277886 125.233609,29.0512804 124.378194,28.1958658 L121.290236,25.1079076 C120.434821,24.252493 119.558454,24.3776482 118.744804,25.1914381 C117.931014,26.0050875 117.826531,26.8606428 118.681945,27.7160574 L121.769904,30.8040156 C122.625459,31.6595708 123.480874,31.5550873 124.294663,30.7412974 Z M109.564179,28.821923 C111.442069,30.6998133 110.899543,32.619469 109.313869,34.205143 C107.707242,35.81177 105.808398,36.3333437 103.930649,34.4554534 L100.84269,31.3674952 C98.9646594,29.4896048 99.4865143,27.5909022 101.093141,25.9842752 C102.678815,24.3986011 104.59833,23.8560745 106.476221,25.7339648 L109.564179,28.821923 Z M107.978505,32.8694981 C108.792154,32.0559894 108.917309,31.1794812 108.061754,30.3239259 L104.973796,27.2359677 C104.118522,26.3805531 103.242154,26.5057083 102.428364,27.3194982 C101.614715,28.1332882 101.510513,28.9888435 102.365927,29.8441175 L105.453886,32.9320757 C106.309441,33.7876309 107.164715,33.6834287 107.978505,32.8694981 Z" id="Combined-Shape" fill="url(#linearGradient-1)" fill-rule="nonzero"></path>
                </g>
            </g>
        </g>
    </g>
</svg>