<svg width="17" height="17" viewBox="0 0 17 17" fill="none" xmlns="http://www.w3.org/2000/svg">
<circle cx="8.5" cy="8.5" r="7.5" fill="#6AC259" stroke="#4BA23A"/>
<path d="M3.2662 9.10426C3.18379 9.02184 3.14258 8.89821 3.14258 8.81579C3.14258 8.73338 3.18379 8.60975 3.2662 8.52733L3.84313 7.95041C4.00796 7.78557 4.25522 7.78557 4.42005 7.95041L4.46126 7.99162L6.72774 10.4229C6.81016 10.5054 6.93379 10.5054 7.0162 10.4229L12.5382 4.69492H12.5794C12.7442 4.53008 12.9915 4.53008 13.1563 4.69492L13.7332 5.27184C13.8981 5.43667 13.8981 5.68393 13.7332 5.84876L7.13983 12.6894C7.05741 12.7718 6.975 12.813 6.85137 12.813C6.72774 12.813 6.64533 12.7718 6.56291 12.6894L3.34862 9.22788L3.2662 9.10426Z" fill="white"/>
</svg>
