<svg xmlns="http://www.w3.org/2000/svg" width="29.055" height="29.612" viewBox="0 0 29.055 29.612">
  <g id="analysis" transform="translate(-4.809 0)">
    <g id="Group_433" data-name="Group 433" transform="translate(4.809 0)">
      <g id="Group_432" data-name="Group 432">
        <path id="Path_260" data-name="Path 260" d="M33.762,2.015a.436.436,0,0,0-.3-.153l-6.444-.55L26.9.382A.436.436,0,0,0,26.417,0L20.439.755a.434.434,0,0,0-.073-.013l-8.217-.7a.44.44,0,0,0-.472.4l-.122,1.434-6.365.8a.44.44,0,0,0-.378.487L8.061,29a1.2,1.2,0,0,0,.038.345.44.44,0,0,0,.4.266H29.894a.436.436,0,0,0,.436-.436v-.568l.844.072a.44.44,0,0,0,.472-.4l2.216-25.95A.436.436,0,0,0,33.762,2.015ZM8.064,22.037,5.732,3.483,8.064,3.19ZM12.509.947l3.816.326-3.885.489ZM26.093.923,26.316,2.7H12Zm4.721,26.851-.484-.041V14.991a.436.436,0,0,0-.872,0V28.74H8.936V3.567H29.458v9.389a.436.436,0,1,0,.872,0V3.131a.436.436,0,0,0-.436-.436h-2.7l-.063-.5,5.824.5Z" transform="translate(-4.809 0)" fill="#fffdfd"/>
      </g>
    </g>
    <g id="Group_435" data-name="Group 435" transform="translate(19.691 5.021)">
      <g id="Group_434" data-name="Group 434">
        <path id="Path_261" data-name="Path 261" d="M270.014,86.806h-2.325a.436.436,0,0,0-.363.194l-.987,1.48a6.447,6.447,0,0,0-3.766-1.209.436.436,0,0,0-.436.436v6.046a.436.436,0,0,0,.436.436h6.046a.436.436,0,0,0,.436-.436,6.465,6.465,0,0,0-2.039-4.715l.906-1.36h2.092a.436.436,0,1,0,0-.872Zm-1.848,6.511h-5.157V88.16a5.577,5.577,0,0,1,2.846,1.047l-.389.584a.436.436,0,1,0,.726.484l.333-.5A5.6,5.6,0,0,1,268.166,93.317Z" transform="translate(-262.137 -86.806)" fill="#fffdfd"/>
      </g>
    </g>
    <g id="Group_437" data-name="Group 437" transform="translate(11.785 7.346)">
      <g id="Group_436" data-name="Group 436">
        <path id="Path_262" data-name="Path 262" d="M141.214,139.105H137.27l-.695-1.112a6.46,6.46,0,0,0,1.819-4.5.436.436,0,0,0-.436-.436h-5.61v-5.61a.436.436,0,0,0-.436-.436,6.482,6.482,0,1,0,4.006,11.575l.74,1.184a.436.436,0,0,0,.37.2h4.186a.436.436,0,0,0,0-.872Zm-6.141-3.516a.436.436,0,0,0-.74.462l1.12,1.792a5.609,5.609,0,1,1-3.977-9.942V133.5a.436.436,0,0,0,.436.436h5.593a5.588,5.588,0,0,1-1.409,3.3Z" transform="translate(-125.43 -127.013)" fill="#fffdfd"/>
      </g>
    </g>
    <g id="Group_439" data-name="Group 439" transform="translate(10.39 21.764)">
      <g id="Group_438" data-name="Group 438">
        <path id="Path_263" data-name="Path 263" d="M105.463,376.3h-3.721a.436.436,0,1,0,0,.872h3.721a.436.436,0,1,0,0-.872Z" transform="translate(-101.306 -376.3)" fill="#fffdfd"/>
      </g>
    </g>
    <g id="Group_441" data-name="Group 441" transform="translate(15.971 21.764)">
      <g id="Group_440" data-name="Group 440">
        <path id="Path_264" data-name="Path 264" d="M201.962,376.3h-3.721a.436.436,0,1,0,0,.872h3.721a.436.436,0,1,0,0-.872Z" transform="translate(-197.805 -376.3)" fill="#fffdfd"/>
      </g>
    </g>
    <g id="Group_443" data-name="Group 443" transform="translate(10.39 24.089)">
      <g id="Group_442" data-name="Group 442">
        <path id="Path_265" data-name="Path 265" d="M107.788,416.508h-6.046a.436.436,0,1,0,0,.872h6.046a.436.436,0,0,0,0-.872Z" transform="translate(-101.306 -416.508)" fill="#fffdfd"/>
      </g>
    </g>
    <g id="Group_445" data-name="Group 445" transform="translate(18.296 24.089)">
      <g id="Group_444" data-name="Group 444">
        <path id="Path_266" data-name="Path 266" d="M239.843,416.508h-1.4a.436.436,0,1,0,0,.872h1.4a.436.436,0,0,0,0-.872Z" transform="translate(-238.012 -416.508)" fill="#fffdfd"/>
      </g>
    </g>
    <g id="Group_447" data-name="Group 447" transform="translate(10.39 26.414)">
      <g id="Group_446" data-name="Group 446">
        <path id="Path_267" data-name="Path 267" d="M103.6,456.715h-1.86a.436.436,0,0,0,0,.872h1.86a.436.436,0,0,0,0-.872Z" transform="translate(-101.306 -456.715)" fill="#fffdfd"/>
      </g>
    </g>
    <g id="Group_449" data-name="Group 449" transform="translate(14.111 26.414)">
      <g id="Group_448" data-name="Group 448">
        <path id="Path_268" data-name="Path 268" d="M171.656,456.715h-5.581a.436.436,0,0,0,0,.872h5.581a.436.436,0,0,0,0-.872Z" transform="translate(-165.639 -456.715)" fill="#fffdfd"/>
      </g>
    </g>
  </g>
</svg>
