<?xml version="1.0" encoding="UTF-8"?>
<svg width="42px" height="26px" viewBox="0 0 42 26" version="1.1" xmlns="http://www.w3.org/2000/svg" xmlns:xlink="http://www.w3.org/1999/xlink">
    <!-- Generator: Sketch 53.2 (72643) - https://sketchapp.com -->
    <title>scale</title>
    <desc>Created with Sketch.</desc>
    <g id="Page-1" stroke="none" stroke-width="1" fill="none" fill-rule="evenodd">
        <g id="Edit-challenge" transform="translate(-850.000000, -3650.000000)" fill="#000000" fill-rule="nonzero">
            <g id="challenge-edit" transform="translate(248.000000, 454.000000)">
                <g id="Group-6" transform="translate(18.000000, 2602.000000)">
                    <g id="show-map" transform="translate(0.000000, 478.000000)">
                        <g id="Group-9" transform="translate(1.000000, 105.000000)">
                            <path d="M583.972778,32.3547852 C583.425928,32.3547852 582.988574,31.9053711 583.000317,31.3591553 C583.244067,19.84292 592.692554,11 603.8,11 C615.141357,11 624.358789,20.06604 624.6,31.3591553 C624.611426,31.9075928 624.172485,32.3547852 623.627222,32.3547852 L610.403467,32.3547852 L610.318091,32.6312256 C609.644287,34.8110108 607.916772,36.4299805 605.696997,36.9622314 C605.369458,37.040625 605.040649,36.8387695 604.962256,36.5115478 C604.883862,36.1843262 605.085718,35.8555175 605.412939,35.777124 C607.209644,35.3461181 608.608032,34.0356445 609.153296,32.2709961 C609.260571,31.9244141 611.86311,23.5029785 612.050049,22.8993164 C601.991553,26.0077637 602.63457,25.806543 602.466992,25.8662109 C598.909131,27.1306641 597.843677,31.7016113 600.545874,34.4034912 C601.206348,35.0639648 601.987427,35.5175049 602.867212,35.7510986 C603.192529,35.8374267 603.38645,36.1709961 603.299805,36.4963135 C603.213477,36.8216309 602.879907,37.0152344 602.55459,36.9292236 C600.392895,36.3553955 598.597144,34.6135986 598.009985,32.3547852 L583.972778,32.3547852 Z M623.374268,31.1360352 C623.21272,26.3587891 621.341113,21.8652832 618.073975,18.3931153 C616.843481,19.6236084 617.162451,19.3046387 615.050269,21.4168213 C617.459204,24.0212647 618.937891,27.4356689 619.097852,31.1360352 L623.374268,31.1360352 Z M604.409375,12.2279541 L604.409375,16.5040528 C608.062769,16.6452881 611.50542,18.0725586 614.188574,20.5548096 L617.211645,17.5317383 C613.712817,14.2398438 609.20852,12.3739502 604.409375,12.2279541 Z M603.797778,17.7110596 C596.288184,17.7110596 590.080493,23.6051758 589.722803,31.1360352 L597.817969,31.1360352 C597.676099,28.7109131 598.916748,26.2918213 601.215552,25.086084 C601.921094,24.7160156 601.462793,24.8953369 611.861841,21.6815186 C612.261108,21.5580566 612.692749,21.6650147 612.988232,21.9604981 C613.283716,22.2559814 613.390991,22.6876221 613.267529,23.087207 L610.779883,31.1360352 L617.877197,31.1360352 C617.528394,23.6746826 611.392749,17.7110596 603.801587,17.7110596 L603.797778,17.7110596 Z M603.190625,12.2276367 C598.393066,12.3666504 594.093481,14.1509766 590.394702,17.5384033 C591.286548,18.430249 591.307813,18.4511963 593.411426,20.5548096 C596.04126,18.122705 599.454712,16.6494141 603.190625,16.5043701 L603.190625,12.2276367 Z M589.526025,18.3931153 C586.257935,21.8671875 584.386328,26.360376 584.225415,31.1360352 L588.502148,31.1360352 C588.662744,27.4404297 590.134448,24.0314209 592.549731,21.4168213 L589.526025,18.3931153 Z M606.667236,32.5874267 C605.560205,34.1683106 603.303931,34.3606445 601.946167,33.0025635 C600.74043,31.7968262 600.74043,29.835083 601.946167,28.6293457 C603.301074,27.2741211 605.556714,27.45979 606.667236,29.0444825 C606.860205,29.3199707 606.793237,29.7001953 606.517432,29.8931641 C606.241943,30.0861328 605.861719,30.019165 605.66875,29.7436767 C604.994946,28.781372 603.627978,28.6709228 602.807861,29.49104 C602.077246,30.2216553 602.077246,31.4102539 602.807861,32.1408691 C603.627661,32.9606689 604.995264,32.8511719 605.66875,31.8885498 C605.861719,31.6127441 606.241943,31.5457764 606.517432,31.7387451 C606.793237,31.9317139 606.860205,32.3116211 606.667236,32.5874267 Z" id="scale"></path>
                        </g>
                    </g>
                </g>
            </g>
        </g>
    </g>
</svg>