<?xml version="1.0" encoding="UTF-8"?>
<svg width="30px" height="28px" viewBox="0 0 30 28" version="1.1" xmlns="http://www.w3.org/2000/svg" xmlns:xlink="http://www.w3.org/1999/xlink">
    <!-- Generator: Sketch 53.2 (72643) - https://sketchapp.com -->
    <title>search-store</title>
    <desc>Created with Sketch.</desc>
    <defs>
        <linearGradient x1="9.1%" y1="-57.0865878%" x2="136.8%" y2="80.8370826%" id="linearGradient-1">
            <stop stop-color="#00669B" offset="0%"></stop>
            <stop stop-color="#4929BB" offset="100%"></stop>
        </linearGradient>
    </defs>
    <g id="Page-1" stroke="none" stroke-width="1" fill="none" fill-rule="evenodd">
        <g id="1-Promotion-mock-up" transform="translate(-193.000000, -2338.000000)" fill="url(#linearGradient-1)" fill-rule="nonzero">
            <g id="Features" transform="translate(163.000000, 2135.000000)">
                <g id="Group-6-Copy" transform="translate(0.000000, 188.228621)">
                    <path d="M51.3138537,29.775128 C52.4295055,29.775128 53.3367389,30.6981944 53.3367389,31.8333166 L53.3367389,35.0141535 C53.3367389,36.1492756 52.4295055,37.072342 51.3138537,37.072342 L47.2374336,37.072342 C46.1217818,37.072342 45.2145484,36.1492756 45.2145484,35.0141535 L45.2145484,31.8333166 C45.2145484,30.6981944 46.1217818,29.775128 47.2374336,29.775128 L51.3138537,29.775128 Z M51.8655497,35.0141535 L51.8655497,31.8333166 C51.8655497,31.5277068 51.6203515,31.2719924 51.3138537,31.2719924 L47.2374336,31.2719924 C46.9370658,31.2719924 46.6857376,31.5214698 46.6857376,31.8333166 L46.6857376,35.0141535 C46.6857376,35.3197633 46.9309358,35.5754776 47.2374336,35.5754776 L51.3138537,35.5754776 C51.6142215,35.5754776 51.8655497,35.3260002 51.8655497,35.0141535 Z M60,23.9934892 C60,25.7897265 58.9333878,27.3302495 57.413159,28.0100754 C57.4192889,28.0350231 57.4192889,28.0599709 57.4192889,28.0911555 L57.4192889,41.1637714 C57.4192889,41.5754091 57.0882714,41.9122036 56.6836943,41.9122036 L43.1119738,41.9122036 C43.1058439,41.9122036 43.0997139,41.9122036 43.093584,41.9122036 L37.3927258,41.9122036 C37.3865958,41.9122036 37.3804659,41.9122036 37.3743359,41.9122036 L33.3101757,41.9122036 C32.9055987,41.9122036 32.5745811,41.5754091 32.5745811,41.1637714 L32.5745811,27.9976015 C31.0604822,27.3177756 30,25.7834896 30,23.9934892 C30,23.8625136 30.0367797,23.7377749 30.0980793,23.62551 L34.5545566,15.6422331 C34.6832857,15.4052296 34.9284839,15.2617801 35.1920719,15.2617801 L54.8017981,15.2617801 C55.0653862,15.2617801 55.3105844,15.4114665 55.4393134,15.6422331 L59.9019207,23.62551 C59.9693502,23.7377749 60,23.8625136 60,23.9934892 Z M35.6211688,16.7648815 L32.1393543,23.0080535 L57.8606457,23.0080535 L54.3727013,16.7648815 L35.6211688,16.7648815 Z M51.3506334,24.4986809 L45.7846342,24.4986809 C46.0175725,25.8458589 47.176134,26.8687163 48.5676338,26.8687163 C49.9591336,26.8687163 51.1176951,25.8458589 51.3506334,24.4986809 Z M44.2214957,24.4986809 L38.6493666,24.4986809 C38.8884348,25.8458589 40.0469963,26.8687163 41.4384961,26.8687163 C42.8299959,26.8687163 43.9885574,25.8458589 44.2214957,24.4986809 Z M31.5202289,24.4986809 C31.7531671,25.8458589 32.9117286,26.8749532 34.3032284,26.8687163 C35.6947282,26.8687163 36.8594197,25.8458589 37.092358,24.4986809 L31.5202289,24.4986809 Z M42.3579894,40.4153392 L42.3641193,40.4153392 L42.3641193,32.3385083 C42.3641193,31.7459995 41.8921128,31.2719924 41.315897,31.2719924 L39.1765427,31.2719924 C38.594197,31.2719924 38.1283204,31.7522364 38.1283204,32.3385083 L38.1283204,40.4153392 L42.3579894,40.4153392 Z M55.9480997,40.4153392 L55.9480997,28.3655807 C55.8622803,28.3655807 55.7825909,28.3718176 55.6967716,28.3718176 C54.2133224,28.3718176 52.9015121,27.6046746 52.1291377,26.4383677 C51.3567634,27.6046746 50.051083,28.3718176 48.5676338,28.3718176 C47.0903147,28.3718176 45.7785043,27.6046746 45.00613,26.4383677 C44.2276257,27.6046746 42.9219452,28.3718176 41.4384961,28.3718176 C39.955047,28.3718176 38.6432366,27.6046746 37.8708623,26.4383677 C37.0984879,27.6046746 35.7866776,28.3718176 34.3032284,28.3718176 C34.2174091,28.3718176 34.1315897,28.3718176 34.0457703,28.3655807 L34.0457703,40.4215762 L36.6510012,40.4215762 L36.6510012,32.3385083 C36.6510012,30.9227241 37.7850429,29.775128 39.1704128,29.775128 L41.3097671,29.775128 C42.7012669,29.775128 43.8291786,30.928961 43.8291786,32.3385083 L43.8291786,40.4153392 L55.9480997,40.4153392 Z M55.6967716,26.8749532 C57.0882714,26.8749532 58.2468329,25.8458589 58.4859011,24.5049179 L52.913772,24.5049179 C53.1467103,25.8520958 54.3052718,26.8749532 55.6967716,26.8749532 Z" id="search-store"></path>
                </g>
            </g>
        </g>
    </g>
</svg>