<?xml version="1.0" encoding="UTF-8"?>
<svg width="13px" height="14px" viewBox="0 0 13 14" version="1.1" xmlns="http://www.w3.org/2000/svg" xmlns:xlink="http://www.w3.org/1999/xlink">
    <!-- Generator: Sketch 53.2 (72643) - https://sketchapp.com -->
    <title>Shape</title>
    <desc>Created with Sketch.</desc>
    <g id="Page-1" stroke="none" stroke-width="1" fill="none" fill-rule="evenodd">
        <g id="19-Communities" transform="translate(-576.000000, -1665.000000)" fill="#000000" fill-rule="nonzero">
            <g id="post" transform="translate(291.000000, 1278.000000)">
                <g id="Group-3" transform="translate(11.000000, 385.000000)">
                    <path d="M283.025623,11.7607169 C282.90364,11.8826996 282.798651,12.0167876 282.707862,12.1585576 L278.685224,9.71680707 C278.79161,9.45049353 278.851903,9.16090085 278.851903,8.85710787 C278.851903,8.5533149 278.79161,8.26372222 278.685457,7.99740868 L282.709026,5.57428145 C283.122231,6.22330429 283.846679,6.65583098 284.671692,6.65583098 C285.955304,6.65583098 286.999607,5.61152809 286.999607,4.32791549 C286.999607,3.04430289 285.955304,2 284.671692,2 C283.388079,2 282.343776,3.04430289 282.343776,4.32791549 C282.343776,4.62030168 282.400345,4.89918595 282.499048,5.15711899 L278.470125,7.58350531 C278.053894,6.94938113 277.337361,6.52919238 276.523755,6.52919238 C275.240142,6.52919238 274.195839,7.57349527 274.195839,8.85710787 C274.195839,10.1407205 275.240142,11.1850234 276.523755,11.1850234 C277.337361,11.1850234 278.053661,10.7648346 278.469892,10.1307104 L282.498117,12.5757201 C282.398017,12.8378434 282.343544,13.1178916 282.343544,13.4067859 C282.343544,14.0285721 282.585647,14.6133445 283.02539,15.052855 C283.479101,15.5065657 284.07528,15.7335374 284.671459,15.7335374 C285.267638,15.7335374 285.863817,15.5065657 286.317528,15.052855 C286.757271,14.6131117 286.999374,14.0285721 286.999374,13.4067859 C286.999374,12.7849997 286.757271,12.2002273 286.317528,11.7607169 C285.409874,10.8528298 283.933277,10.8528298 283.025623,11.7607169 Z M284.671692,2.4655831 C285.698535,2.4655831 286.534024,3.30107197 286.534024,4.32791549 C286.534024,5.35475902 285.698535,6.19024789 284.671692,6.19024789 C283.644848,6.19024789 282.809359,5.35475902 282.809359,4.32791549 C282.809359,3.30107197 283.644615,2.4655831 284.671692,2.4655831 Z M276.523988,10.7194403 C275.497144,10.7194403 274.661655,9.8839514 274.661655,8.85710787 C274.661655,7.83026435 275.497144,6.99477548 276.523988,6.99477548 C277.550831,6.99477548 278.38632,7.83026435 278.38632,8.85710787 C278.38632,9.8839514 277.550831,10.7194403 276.523988,10.7194403 Z M285.988361,14.7236877 C285.262284,15.4497645 284.080867,15.4497645 283.35479,14.7236877 C283.003042,14.3719397 282.809359,13.9040287 282.809359,13.4067859 C282.809359,12.9095432 283.003042,12.4416321 283.35479,12.0898841 C283.717945,11.7267293 284.194702,11.5453847 284.671692,11.5453847 C285.148682,11.5453847 285.625439,11.7267293 285.988594,12.0898841 C286.340342,12.4416321 286.534024,12.9095432 286.534024,13.4067859 C286.534024,13.9040287 286.340342,14.3719397 285.988361,14.7236877 Z" id="Shape"></path>
                </g>
            </g>
        </g>
    </g>
</svg>