<?xml version="1.0" encoding="UTF-8"?>
<svg width="30px" height="29px" viewBox="0 0 30 29" version="1.1" xmlns="http://www.w3.org/2000/svg" xmlns:xlink="http://www.w3.org/1999/xlink">
    <!-- Generator: Sketch 53.2 (72643) - https://sketchapp.com -->
    <title>sign up</title>
    <desc>Created with Sketch.</desc>
    <defs>
        <linearGradient x1="9.1%" y1="-63.5758304%" x2="136.8%" y2="82.7057509%" id="linearGradient-1">
            <stop stop-color="#00669B" offset="0%"></stop>
            <stop stop-color="#4929BB" offset="100%"></stop>
        </linearGradient>
    </defs>
    <g id="Page-1" stroke="none" stroke-width="1" fill="none" fill-rule="evenodd">
        <g id="1-Promotion-mock-up" transform="translate(-193.000000, -2228.000000)" fill="url(#linearGradient-1)" fill-rule="nonzero">
            <g id="Features" transform="translate(163.000000, 2135.000000)">
                <g id="Group-6" transform="translate(0.000000, 79.361257)">
                    <path d="M59.9257732,15.6163149 C59.9690722,15.6163149 60,15.6477825 60,15.6918371 L60,17.4729026 C60,17.5169572 59.9628866,17.5484248 59.9257732,17.5484248 L41.2329897,17.5484248 C41.1896907,17.5484248 41.1587629,17.5106637 41.1587629,17.4729026 L41.1587629,15.6918371 C41.1587629,15.6477825 41.1958763,15.6163149 41.2329897,15.6163149 L59.9257732,15.6163149 Z M34.4226804,31.035433 C33.1279428,31.035433 32.0783505,29.9675232 32.0783505,28.6501898 C32.0783505,27.3328564 33.1279428,26.2649467 34.4226804,26.2649467 C35.7174181,26.2649467 36.7670103,27.3328564 36.7670103,28.6501898 C36.7670103,29.9675232 35.7174181,31.035433 34.4226804,31.035433 Z M34.4226804,41.5078462 C33.1211104,41.5078462 32.0659794,40.4343011 32.0659794,39.110016 C32.0659794,37.785731 33.1211104,36.7121858 34.4226804,36.7121858 C35.7242505,36.7121858 36.7793814,37.785731 36.7793814,39.110016 C36.7793814,40.4343011 35.7242505,41.5078462 34.4226804,41.5078462 Z M41.2329897,20.7707058 C41.1958763,20.7707058 41.1649485,20.7392382 41.1587629,20.6951836 L41.1587629,18.9141181 C41.1587629,18.8700635 41.1958763,18.8385959 41.2329897,18.8385959 L50.0659794,18.8385959 C50.1092784,18.8385959 50.1402062,18.876357 50.1402062,18.9141181 L50.1402062,20.6951836 C50.1402062,20.7392382 50.1030928,20.7707058 50.0659794,20.7707058 L41.2329897,20.7707058 Z M59.9257732,26.0761411 C59.9690722,26.0761411 60,26.1076087 60,26.1516633 L60,27.9327288 C60,27.9767834 59.9628866,28.008251 59.9257732,28.008251 L41.2329897,28.008251 C41.1896907,28.008251 41.1587629,27.9704899 41.1587629,27.9327288 L41.1587629,26.1516633 C41.1587629,26.1076087 41.1958763,26.0761411 41.2329897,26.0761411 L59.9257732,26.0761411 Z M41.2329897,31.230532 C41.1958763,31.230532 41.1649485,31.1927709 41.1587629,31.1550098 L41.1587629,29.3739443 C41.1587629,29.3298897 41.1958763,29.2984221 41.2329897,29.2984221 L50.0659794,29.2984221 C50.1092784,29.2984221 50.1402062,29.3361832 50.1402062,29.3739443 L50.1402062,31.1550098 C50.1402062,31.1990644 50.1030928,31.230532 50.0659794,31.230532 L41.2329897,31.230532 Z M59.9257732,36.5296738 C59.9690722,36.5296738 60,36.5611414 60,36.605196 L60,38.3862615 C60,38.4303161 59.9628866,38.4617837 59.9257732,38.4617837 L41.2329897,38.4617837 C41.1896907,38.4617837 41.1587629,38.4240226 41.1587629,38.3862615 L41.1587629,36.605196 C41.1587629,36.5611414 41.1958763,36.5296738 41.2329897,36.5296738 L59.9257732,36.5296738 Z M50.0659794,39.7582483 C50.1092784,39.7582483 50.1402062,39.7897159 50.1402062,39.8337705 L50.1402062,41.614836 C50.1402062,41.6588906 50.1030928,41.6903582 50.0659794,41.6903582 L41.2329897,41.6903582 C41.1896907,41.6903582 41.1587629,41.6525971 41.1587629,41.614836 L41.1587629,39.8337705 C41.1587629,39.7897159 41.1958763,39.7582483 41.2329897,39.7582483 L50.0659794,39.7582483 Z M33.3030928,18.1526025 L37.1690722,14.2443281 L38.8453608,15.9624584 L34.9793814,19.8707328 L33.2969072,21.5762761 L31.6206186,19.8581458 L30,18.2092442 L31.6886598,16.4974074 L33.3030928,18.1526025 Z" id="sign-up"></path>
                </g>
            </g>
        </g>
    </g>
</svg>