<svg xmlns="http://www.w3.org/2000/svg" width="43" height="43" viewBox="0 0 43 43">
  <g id="Group_2" data-name="Group 2" transform="translate(-364 1)">
    <circle id="Oval_Copy_3" data-name="Oval Copy 3" cx="20.5" cy="20.5" r="20.5" transform="translate(365)" fill="none" stroke="#fff" stroke-miterlimit="10" stroke-width="2"/>
    <path id="Path_Copy" data-name="Path Copy" d="M-26.724.271a.976.976,0,0,1,1.349,0l11.862,11.52L-1.628.271a.976.976,0,0,1,1.349,0,.905.905,0,0,1,0,1.308L-12.815,13.729A.947.947,0,0,1-13.49,14a.987.987,0,0,1-.674-.271L-26.7,1.578A.887.887,0,0,1-26.724.271Z" transform="translate(378.5 6.5) rotate(-90)" fill="#fff"/>
  </g>
</svg>
