<svg xmlns="http://www.w3.org/2000/svg" width="43" height="43" viewBox="0 0 43 43">
  <g id="Group_1" data-name="Group 1" transform="translate(1 1)">
    <circle id="Oval" cx="20.5" cy="20.5" r="20.5" fill="none" stroke="#fff" stroke-miterlimit="10" stroke-width="2"/>
    <path id="Path" d="M26.724.271a.976.976,0,0,0-1.349,0L13.513,11.791,1.628.271a.976.976,0,0,0-1.349,0,.905.905,0,0,0,0,1.308L12.815,13.729A.947.947,0,0,0,13.49,14a.987.987,0,0,0,.674-.271L26.7,1.578A.887.887,0,0,0,26.724.271Z" transform="translate(27.5 6.5) rotate(90)" fill="#fff"/>
  </g>
</svg>
