<?xml version="1.0" encoding="UTF-8"?>
<svg width="18px" height="18px" viewBox="0 0 18 18" version="1.1" xmlns="http://www.w3.org/2000/svg" xmlns:xlink="http://www.w3.org/1999/xlink">
    <!-- Generator: Sketch 53.2 (72643) - https://sketchapp.com -->
    <title>Group 10</title>
    <desc>Created with Sketch.</desc>
    <g id="Page-1" stroke="none" stroke-width="1" fill="none" fill-rule="evenodd">
        <g id="Group-19" transform="translate(0.000000, -0.000016)" fill-rule="nonzero">
            <g id="Group-10" transform="translate(0.000359, 0.000000)">
                <path d="M17.1400622,8.98370005 L17.9282727,6.9278404 C18.0147289,6.70103338 17.9473604,6.44391058 17.7576061,6.29008601 L16.0486938,4.90454215 L15.7028692,2.72966496 C15.6646938,2.48938426 15.4760622,2.30187549 15.2357815,2.26370005 L13.0609043,1.91787549 L11.6764832,0.2078404 C11.5237815,0.0180860142 11.2610447,-0.0492824068 11.0398517,0.0371737335 L8.98286921,0.826507067 L6.92700957,0.0382965405 C6.69907974,-0.0492824068 6.44420255,0.0203316282 6.29037799,0.208963207 L4.90483413,1.91899829 L2.72995693,2.26482286 C2.49079904,2.30299829 2.30216746,2.49162987 2.26399202,2.73078777 L1.91816746,4.90566496 L0.208132373,6.29120882 C0.0195007938,6.44391058 -0.0489904343,6.70103338 0.0374657061,6.9278404 L0.825676232,8.98370005 L0.0374657061,11.0395597 C-0.0501132413,11.2663667 0.0195007938,11.5234895 0.208132373,11.6761913 L1.91816746,13.0606123 L2.26399202,15.2354895 C2.30216746,15.4757702 2.48967623,15.6644018 2.72995693,15.7025772 L4.90483413,16.0484018 L6.29037799,17.7573141 C6.44420255,17.9481913 6.70132536,18.0155597 6.92813237,17.9279808 L8.98286921,17.140893 L11.0387289,17.9291036 C11.1038517,17.9538053 11.1712201,17.9661562 11.2397113,17.9661562 C11.404764,17.9661562 11.567571,17.8931737 11.6764832,17.7573141 L13.0609043,16.0484018 L15.2357815,15.7025772 C15.4760622,15.6644018 15.6646938,15.4757702 15.7028692,15.2354895 L16.0486938,13.0606123 L17.7576061,11.6761913 C17.9473604,11.5223667 18.0147289,11.2663667 17.9282727,11.0395597 L17.1400622,8.98370005 Z" id="Path" fill="#F44336"></path>
                <path d="M4.23871676,10.3262528 C4.23871676,10.7246923 4.09028074,11.0319809 3.79340426,11.2481278 C3.49652777,11.4642747 3.07986527,11.5723466 2.54340426,11.5723466 C1.97569308,11.5723466 1.53298918,11.4825037 1.21527926,11.3028153 L1.21527926,10.7012528 C1.42100945,10.80542 1.64171037,10.8874504 1.87738863,10.9473466 C2.11306689,11.0072427 2.34027816,11.0371903 2.55902926,11.0371903 C2.89757262,11.0371903 3.15798668,10.9831544 3.34027926,10.8750809 C3.52257183,10.7670075 3.61371676,10.6022956 3.61371676,10.3809403 C3.61371676,10.2142728 3.54145185,10.0716961 3.39691988,9.95320593 C3.25238791,9.83471576 2.97048969,9.6947432 2.55121676,9.53328406 C2.15277726,9.38484582 1.86957697,9.25528982 1.70160738,9.14461218 C1.53363779,9.03393455 1.40863904,8.90828476 1.32660738,8.76765906 C1.24457572,8.62703336 1.20356051,8.45906629 1.20356051,8.26375281 C1.20356051,7.91479273 1.34548617,7.63940486 1.62934176,7.43758093 C1.91319734,7.23575701 2.30251637,7.13484656 2.79731051,7.13484656 C3.25825031,7.13484656 3.70876664,7.22859562 4.14887301,7.41609656 L3.91840426,7.94344031 C3.48871461,7.76635609 3.09939558,7.67781531 2.75043551,7.67781531 C2.4431423,7.67781531 2.21137379,7.72599191 2.05512301,7.82234656 C1.89887223,7.91870121 1.82074801,8.05151238 1.82074801,8.22078406 C1.82074801,8.33536797 1.85004459,8.43302324 1.90863863,8.51375281 C1.96723267,8.59448238 2.06163277,8.67130453 2.19184176,8.74422156 C2.32205074,8.81713859 2.57204824,8.92260629 2.94184176,9.06062781 C3.4496568,9.24552457 3.79275232,9.43172062 3.97113863,9.61922156 C4.14952494,9.8067225 4.23871676,10.0423972 4.23871676,10.3262528 Z M7.92621676,11.4942216 L7.79731051,10.8848466 L7.76606051,10.8848466 C7.55251777,11.1530771 7.33962928,11.3347159 7.12738863,11.4297684 C6.91514799,11.524821 6.65017668,11.5723466 6.33246676,11.5723466 C5.90798547,11.5723466 5.5753065,11.4629727 5.33441988,11.2442216 C5.09353326,11.0254705 4.97309176,10.7142757 4.97309176,10.3106278 C4.97309176,9.44604015 5.66449109,8.99291968 7.04731051,8.95125281 L7.77387301,8.92781531 L7.77387301,8.66219031 C7.77387301,8.32625113 7.7016081,8.07820674 7.55707613,7.91804968 C7.41254416,7.75789263 7.18142668,7.67781531 6.86371676,7.67781531 C6.50694414,7.67781531 6.10330234,7.78718922 5.65277926,8.00594031 L5.45356051,7.50984656 C5.66449906,7.39526265 5.89561654,7.3054198 6.14691988,7.24031531 C6.39822322,7.17521082 6.65017383,7.14265906 6.90277926,7.14265906 C7.41319848,7.14265906 7.7914499,7.25593918 8.03754488,7.48250281 C8.28363986,7.70906644 8.40668551,8.07234406 8.40668551,8.57234656 L8.40668551,11.4942216 L7.92621676,11.4942216 Z M6.46137301,11.0371903 C6.86502086,11.0371903 7.18207498,10.9265143 7.41254488,10.7051591 C7.64301478,10.4838038 7.75824801,10.1739111 7.75824801,9.77547156 L7.75824801,9.38875281 L7.10981051,9.41609656 C6.59418293,9.43432582 6.22244185,9.51440314 5.99457613,9.65633093 C5.76671041,9.79825873 5.65277926,10.0189596 5.65277926,10.3184403 C5.65277926,10.5528165 5.72374209,10.7312001 5.86566988,10.8535966 C6.00759767,10.975993 6.2061634,11.0371903 6.46137301,11.0371903 Z M10.3910605,11.4942216 L9.74262301,11.4942216 L9.74262301,5.41609656 L10.3910605,5.41609656 L10.3910605,11.4942216 Z M13.5746543,11.5723466 C12.9418386,11.5723466 12.4424946,11.3796402 12.0766074,10.9942216 C11.7107201,10.608803 11.5277793,10.0736521 11.5277793,9.38875281 C11.5277793,8.69864519 11.6976994,8.15047359 12.0375449,7.74422156 C12.3773903,7.33796953 12.833766,7.13484656 13.4066855,7.13484656 C13.9431465,7.13484656 14.3676214,7.31127709 14.680123,7.66414343 C14.9926246,8.01700978 15.148873,8.48249992 15.148873,9.06062781 L15.148873,9.47078406 L12.1996543,9.47078406 C12.2126752,9.97339074 12.339627,10.3548973 12.5805136,10.6153153 C12.8214003,10.8757333 13.1605896,11.0059403 13.5980918,11.0059403 C14.0590316,11.0059403 14.5147562,10.9095871 14.9652793,10.7168778 L14.9652793,11.2950028 C14.7361114,11.3939616 14.5193167,11.4649245 14.3148886,11.5078934 C14.1104605,11.5508624 13.8637182,11.5723466 13.5746543,11.5723466 Z M13.398873,7.67781531 C13.0551213,7.67781531 12.7810355,7.78979336 12.5766074,8.01375281 C12.3721793,8.23771226 12.2517378,8.547605 12.2152793,8.94344031 L14.4535605,8.94344031 C14.4535605,8.5345841 14.3624156,8.22143619 14.180123,8.00398718 C13.9978304,7.78653818 13.7374164,7.67781531 13.398873,7.67781531 Z" id="sale" fill="#FFFFFF" transform="translate(8.176217, 8.494222) rotate(-39.000000) translate(-8.176217, -8.494222) "></path>
            </g>
        </g>
    </g>
</svg>