<svg xmlns="http://www.w3.org/2000/svg" width="27.021" height="25.114" viewBox="0 0 27.021 25.114">
  <g id="shopping" transform="translate(0)">
    <path id="Path_234" data-name="Path 234" d="M214.193,300.2a.528.528,0,1,0-.747,0A.529.529,0,0,0,214.193,300.2Zm0,0" transform="translate(-202.035 -283.499)" fill="#FE6C0B"/>
    <path id="Path_235" data-name="Path 235" d="M224.536,62.059v1.056a3.167,3.167,0,0,0,6.333,0V62.059a.528.528,0,0,0,0-1.056h-1.056a.528.528,0,0,0,0,1.056v1.056a2.111,2.111,0,0,1-4.222,0V62.059a.528.528,0,1,0,0-1.056h-1.056a.528.528,0,1,0,0,1.056Zm0,0" transform="translate(-212.185 -57.784)" fill="#FE6C0B"/>
    <path id="Path_236" data-name="Path 236" d="M6.134,24.96a.528.528,0,0,0,.746,0L8.5,23.339a2.443,2.443,0,0,0,.709-1.98L9.79,20.8a2.449,2.449,0,0,1,1.707-.689h6.949a4.723,4.723,0,0,0,3.313-1.346.5.5,0,0,0,.037-.04l4.728-5.678A2.111,2.111,0,0,0,23.311,10.3l-.511.528V.528A.528.528,0,0,0,22.272,0H8.708a.528.528,0,0,0-.528.528V12.352A6.349,6.349,0,0,0,3.643,15.9a2.437,2.437,0,0,0-1.858.716L.155,18.242a.528.528,0,0,0,0,.748Zm15.611-23.9V11.924L20.217,13.5a2.121,2.121,0,0,0-1.639-.784H12.459a.291.291,0,0,1-.107-.023,6.82,6.82,0,0,0-2.587-.505c-.177,0-.353.006-.528.018V1.056ZM8.784,13.317a6,6,0,0,1,3.171.358,1.343,1.343,0,0,0,.5.1h6.119a1.056,1.056,0,0,1,0,2.111H13.986a.528.528,0,0,0,0,1.056h4.592a2.113,2.113,0,0,0,2.111-2.111,2.135,2.135,0,0,0-.019-.277c.11-.113,3.3-3.412,3.411-3.527L24.1,11a1.056,1.056,0,1,1,1.611,1.365L21,18.025a3.672,3.672,0,0,1-2.557,1.028H11.5a3.5,3.5,0,0,0-2.44.985l-.233.225a2.457,2.457,0,0,0-.324-.4L5.259,16.622a2.464,2.464,0,0,0-.582-.431A5.284,5.284,0,0,1,8.784,13.317ZM2.53,17.368a1.4,1.4,0,0,1,1.982,0L7.754,20.61a1.4,1.4,0,0,1,0,1.982L6.506,23.841,1.275,18.617Zm0,0" transform="translate(0)" fill="#FE6C0B"/>
  </g>
</svg>
