<?xml version="1.0" encoding="UTF-8"?>
<svg width="15px" height="15px" viewBox="0 0 15 15" version="1.1" xmlns="http://www.w3.org/2000/svg" xmlns:xlink="http://www.w3.org/1999/xlink">
    <!-- Generator: Sketch 53.2 (72643) - https://sketchapp.com -->
    <title>icon/16-store</title>
    <desc>Created with Sketch.</desc>
    <g id="Symbols" stroke="none" stroke-width="1" fill="none" fill-rule="evenodd">
        <g id="coupon-list" transform="translate(-171.000000, -35.000000)">
            <g id="Group">
                <g id="icon/16-store" transform="translate(171.000000, 35.000000)">
                    <g id="Group-3">
                        <rect id="Rectangle" fill="#FFFFFF" x="0" y="0" width="15" height="15"></rect>
                        <g id="Group-2" transform="translate(0.500000, 0.500000)" fill="#646161" fill-rule="nonzero">
                            <path d="M10.0037736,8 L7.99622642,8 C7.44679245,8 7,8.50598291 7,9.12820513 L7,10.8717949 C7,11.4940171 7.44679245,12 7.99622642,12 L10.0037736,12 C10.5532075,12 11,11.4940171 11,10.8717949 L11,9.12820513 C11,8.50598291 10.5532075,8 10.0037736,8 Z M10.2754717,10.8717949 C10.2754717,11.042735 10.1516981,11.1794872 10.0037736,11.1794872 L7.99622642,11.1794872 C7.84528302,11.1794872 7.7245283,11.0393162 7.7245283,10.8717949 L7.7245283,9.12820513 C7.7245283,8.95726496 7.84830189,8.82051282 7.99622642,8.82051282 L10.0037736,8.82051282 C10.154717,8.82051282 10.2754717,8.96068376 10.2754717,9.12820513 L10.2754717,10.8717949 Z" id="Shape"></path>
                            <path d="M14,4.58694126 C14,4.51813714 13.9856968,4.45260941 13.9542297,4.39363445 L11.8716796,0.199859583 C11.811606,0.0786332787 11.6971802,0 11.5741725,0 L2.4229669,0 C2.29995913,0 2.18553331,0.0753568921 2.12545975,0.199859583 L0.045770331,4.39363445 C0.0171638741,4.45260941 0,4.51813714 0,4.58694126 C0,5.52726422 0.494891704,6.33325532 1.20147119,6.69038147 L1.20147119,13.6068336 C1.20147119,13.8230751 1.35594606,14 1.54474867,14 L3.44135676,14 C3.44421741,14 3.44707805,14 3.4499387,14 L6.11033919,14 C6.11319984,14 6.11606048,14 6.11892113,14 L12.4523907,14 C12.6411933,14 12.7956682,13.8230751 12.7956682,13.6068336 L12.7956682,6.73952726 C12.7956682,6.72314533 12.7956682,6.71003978 12.7928075,6.69693424 C13.5022477,6.3398081 14,5.5305406 14,4.58694126 Z M2.6232121,0.789609174 L11.3739273,0.789609174 L13.0016347,4.06927217 L0.998365345,4.06927217 L2.6232121,0.789609174 Z M9.96362893,4.85232857 C9.8549244,5.56002808 9.31426236,6.09735549 8.66489579,6.09735549 C8.01552922,6.09735549 7.47486718,5.56002808 7.36616265,4.85232857 L9.96362893,4.85232857 Z M6.636698,4.85232857 C6.52799346,5.56002808 5.98733143,6.09735549 5.33796485,6.09735549 C4.68859828,6.09735549 4.14793625,5.56002808 4.03637107,4.85232857 L6.636698,4.85232857 Z M0.709440131,4.85232857 L3.30976706,4.85232857 C3.20106253,5.56002808 2.65753984,6.09735549 2.00817327,6.09735549 C1.3588067,6.10063187 0.818144667,5.56002808 0.709440131,4.85232857 Z M5.76706171,13.2136672 L3.79321618,13.2136672 L3.79321618,8.97074655 C3.79321618,8.66276621 4.01062526,8.41048444 4.2823866,8.41048444 L5.28075194,8.41048444 C5.54965264,8.41048444 5.76992235,8.65948982 5.76992235,8.97074655 L5.76992235,13.2136672 L5.76706171,13.2136672 Z M12.1091132,13.2136672 L6.45361667,13.2136672 L6.45361667,8.97074655 C6.45361667,8.23028317 5.92725787,7.62415165 5.2778913,7.62415165 L4.27952595,7.62415165 C3.63302002,7.62415165 3.10380057,8.22700679 3.10380057,8.97074655 L3.10380057,13.2169436 L1.88802615,13.2169436 L1.88802615,6.88368828 C1.92807519,6.88696466 1.96812423,6.88696466 2.00817327,6.88696466 C2.70044953,6.88696466 3.31262771,6.48396911 3.67306906,5.87128481 C4.03351042,6.48396911 4.6456886,6.88696466 5.33796485,6.88696466 C6.03024111,6.88696466 6.63955864,6.48396911 7.00286065,5.87128481 C7.363302,6.48396911 7.97548018,6.88696466 8.66489579,6.88696466 C9.35717205,6.88696466 9.96648958,6.48396911 10.3269309,5.87128481 C10.6873723,6.48396911 11.2995505,6.88696466 11.9918267,6.88696466 C12.0318758,6.88696466 12.0690642,6.88368828 12.1091132,6.88368828 L12.1091132,13.2136672 L12.1091132,13.2136672 Z M11.9918267,6.10063187 C11.3424602,6.10063187 10.8017981,5.56330447 10.6930936,4.85560496 L13.2934205,4.85560496 C13.1818553,5.56002808 12.6411933,6.10063187 11.9918267,6.10063187 Z" id="Shape"></path>
                        </g>
                    </g>
                </g>
            </g>
        </g>
    </g>
</svg>