<?xml version="1.0" encoding="UTF-8"?>
<svg width="241px" height="134px" viewBox="0 0 241 134" version="1.1" xmlns="http://www.w3.org/2000/svg" xmlns:xlink="http://www.w3.org/1999/xlink">
    <!-- Generator: Sketch 53.2 (72643) - https://sketchapp.com -->
    <title>Group 8</title>
    <desc>Created with Sketch.</desc>
    <defs>
        <linearGradient x1="50%" y1="107.216071%" x2="50%" y2="-14.1357143%" id="linearGradient-1">
            <stop stop-color="#006DF0" offset="0%"></stop>
            <stop stop-color="#00E7F0" offset="100%"></stop>
        </linearGradient>
        <linearGradient x1="50%" y1="2402.05%" x2="50%" y2="-995.8%" id="linearGradient-2">
            <stop stop-color="#006DF0" offset="0%"></stop>
            <stop stop-color="#00E7F0" offset="100%"></stop>
        </linearGradient>
        <linearGradient x1="50%" y1="320.41%" x2="50%" y2="-359.16%" id="linearGradient-3">
            <stop stop-color="#006DF0" offset="0%"></stop>
            <stop stop-color="#00E7F0" offset="100%"></stop>
        </linearGradient>
        <linearGradient x1="50.0004578%" y1="354.033752%" x2="50.0004578%" y2="-410.03946%" id="linearGradient-4">
            <stop stop-color="#006DF0" offset="0%"></stop>
            <stop stop-color="#00E7F0" offset="100%"></stop>
        </linearGradient>
        <linearGradient x1="50%" y1="1502.05%" x2="50%" y2="-1895.8%" id="linearGradient-5">
            <stop stop-color="#006DF0" offset="0%"></stop>
            <stop stop-color="#00E7F0" offset="100%"></stop>
        </linearGradient>
        <linearGradient x1="50%" y1="1252.05%" x2="50%" y2="-2145.8%" id="linearGradient-6">
            <stop stop-color="#006DF0" offset="0%"></stop>
            <stop stop-color="#00E7F0" offset="100%"></stop>
        </linearGradient>
    </defs>
    <g id="Page-1" stroke="none" stroke-width="1" fill="none" fill-rule="evenodd">
        <g id="4-Sign-Up-step-2" transform="translate(-780.000000, -214.000000)">
            <g id="Group-6" transform="translate(178.000000, 142.000000)">
                <g id="Group-8" transform="translate(602.000000, 72.000000)">
                    <g id="discount">
                        <path d="M152.856481,124 L51.3240741,124 C47.0106279,124 43.5138889,120.507821 43.5138889,116.2 C43.5138889,111.892179 47.0106279,108.4 51.3240741,108.4 L7.81018519,108.4 C3.49673901,108.4 5.28244805e-16,104.907821 0,100.6 C-5.28244805e-16,96.292179 3.49673901,92.8 7.81018519,92.8 L52.4398148,92.8 C56.753261,92.8 60.25,89.307821 60.25,85 C60.25,80.692179 56.753261,77.2 52.4398148,77.2 L24.5462963,77.2 C20.2328501,77.2 16.7361111,73.707821 16.7361111,69.4 C16.7361111,65.092179 20.2328501,61.6 24.5462963,61.6 L69.1759259,61.6 C64.8624798,61.6 61.3657407,58.107821 61.3657407,53.8 C61.3657407,49.492179 64.8624798,46 69.1759259,46 L132.773148,46 C137.086594,46 140.583333,49.492179 140.583333,53.8 C140.583333,58.107821 137.086594,61.6 132.773148,61.6 L204.180556,61.6 C208.494002,61.6 211.990741,65.092179 211.990741,69.4 C211.990741,73.707821 208.494002,77.2 204.180556,77.2 L228.726852,77.2 C233.040298,77.2 236.537037,80.692179 236.537037,85 C236.537037,89.307821 233.040298,92.8 228.726852,92.8 L207.527778,92.8 C203.214332,92.8 199.717593,96.292179 199.717593,100.6 C199.717593,104.907821 203.214332,108.4 207.527778,108.4 L214.222222,108.4 C218.535668,108.4 222.032407,111.892179 222.032407,116.2 C222.032407,120.507821 218.535668,124 214.222222,124 L156.203704,124 C155.629237,124 155.069256,123.938059 154.530093,123.8205 C153.990929,123.938059 153.430948,124 152.856481,124 Z M233.189815,124 C228.876369,124 225.37963,120.507821 225.37963,116.2 C225.37963,111.892179 228.876369,108.4 233.189815,108.4 C237.503261,108.4 241,111.892179 241,116.2 C241,120.507821 237.503261,124 233.189815,124 Z" id="Background" fill="#F3F7FF"></path>
                        <path d="M221,26.7589286 L221,9.91071429 C220.993278,4.43949678 216.595166,0.00677491473 211.166667,0 L112.833333,0 C107.404834,0.00677491473 103.006722,4.43949678 103,9.91071429 L103,26.7589286 C103.003841,31.1490653 105.227865,35.2352994 108.9,37.5968368 L108.9,91.1785714 L103,91.1785714 L103,101.089286 C103.006722,106.560503 107.404834,110.993225 112.833333,111 L211.166667,111 C216.595166,110.993225 220.993278,106.560503 221,101.089286 L221,91.1785714 L215.1,91.1785714 L215.1,37.5968368 C218.772135,35.2352994 220.996159,31.1490653 221,26.7589286 Z M199.366651,3.96428571 L211.166667,3.96428571 C214.424919,3.96428571 217.066667,6.6268224 217.066667,9.91071429 L217.066667,23.7857143 L203.3,23.7857143 L203.3,27.75 L216.966797,27.75 C216.453044,32.447911 212.38335,35.9215001 207.700993,35.6582468 C203.017676,35.3940254 199.358024,31.4858747 199.366667,26.7589286 L199.366651,3.96428571 Z M120.7,38.6517857 C123.266846,37.5629622 125.413086,35.6640537 126.816064,33.2405744 C130.111768,38.4640243 136.451579,40.8410471 142.333333,39.0582799 L142.333333,46.7506975 L132.5,56.6614118 L132.5,81.2678571 L156.1,81.2678571 L156.1,56.6614118 L146.266667,46.7506975 L146.266667,37.1371112 C147.859782,36.0115095 149.199382,34.5597447 150.2,32.8776331 C152.673698,37.0722656 157.158236,39.6438249 162,39.6438249 C166.841764,39.6438249 171.326302,37.0722656 173.8,32.8776331 C174.800618,34.5597447 176.140218,36.0115095 177.733333,37.1371112 L177.733333,46.7506975 L167.9,56.6614118 L167.9,81.2678571 L191.5,81.2678571 L191.5,56.6614118 L181.666667,46.7506975 L181.666667,39.0582799 C187.549382,40.8400791 193.890153,38.4601526 197.183936,33.2347674 C198.585954,35.6611504 200.732194,37.5619942 203.3,38.6517857 L203.3,83.25 L120.7,83.25 L120.7,38.6517857 Z M144.3,50.3781738 L152.166667,58.3067453 L152.166667,77.3035714 L136.433333,77.3035714 L136.433333,58.3028739 L144.3,50.3781738 Z M179.7,50.3781738 L187.566667,58.3067453 L187.566667,77.3035714 L171.833333,77.3035714 L171.833333,58.3028739 L179.7,50.3781738 Z M175.766662,3.96428571 L195.433333,3.96428571 L195.433333,23.7857143 L179.7,23.7857143 L179.7,27.75 L195.236475,27.75 C194.231055,32.7401995 189.638004,36.1499111 184.611865,35.6379221 C179.585726,35.1269009 175.761865,30.8596801 175.766667,25.7678571 L175.766662,3.96428571 Z M171.833333,3.96428571 L171.833333,23.7857143 L167.9,23.7857143 L167.9,27.75 L171.636475,27.75 C170.705957,32.3695155 166.676595,35.6882497 162,35.6882497 C157.323405,35.6882497 153.294043,32.3695155 152.363525,27.75 L156.1,27.75 L156.1,23.7857143 L152.166667,23.7857143 L152.166667,3.96428571 L171.833333,3.96428571 Z M148.233333,3.96428571 L148.233333,23.7857143 L144.3,23.7857143 L144.3,27.75 L148.036475,27.75 C147.105957,32.3695155 143.076595,35.6882497 138.4,35.6882497 C133.723405,35.6882497 129.694043,32.3695155 128.763525,27.75 L140.366667,27.75 L140.366667,23.7857143 L128.566667,23.7857143 L128.566667,3.96428571 L148.233333,3.96428571 Z M112.833333,3.96428571 L124.633349,3.96428571 L124.633333,26.7589286 C124.641976,31.4858747 120.982324,35.3940254 116.299007,35.6582468 C111.61665,35.9215001 107.546956,32.447911 107.033203,27.75 L120.7,27.75 L120.7,23.7857143 L106.933333,23.7857143 L106.933333,9.91071429 C106.933333,6.6268224 109.575081,3.96428571 112.833333,3.96428571 Z M217.066667,95.1428571 L217.066667,101.089286 C217.066667,104.373178 214.424919,107.035714 211.166667,107.035714 L112.833333,107.035714 C109.575081,107.035714 106.933333,104.373178 106.933333,101.089286 L106.933333,95.1428571 L148.430192,95.1428571 C149.371273,99.7546299 153.395833,103.065621 158.066667,103.071429 L165.933333,103.071429 C170.604167,103.065621 174.628727,99.7546299 175.569808,95.1428571 L217.066667,95.1428571 Z M152.502767,95.1428571 L171.497233,95.1428571 C170.660824,97.5169764 168.432959,99.1042393 165.933333,99.1071429 L158.066667,99.1071429 C155.567041,99.1042393 153.339176,97.5169764 152.502767,95.1428571 Z M211.166667,91.1785714 L112.833333,91.1785714 L112.833333,39.2818517 C113.799382,39.5180054 114.789437,39.6399536 115.783333,39.6428571 C116.115592,39.6428571 116.440169,39.6167253 116.766667,39.5934971 L116.766667,87.2142857 L207.233333,87.2142857 L207.233333,39.5934971 C207.559831,39.6167253 207.884408,39.6428571 208.216667,39.6428571 C209.210563,39.6399536 210.200618,39.5180054 211.166667,39.2818517 L211.166667,91.1785714 Z" id="Shape" fill="url(#linearGradient-1)" fill-rule="nonzero"></path>
                        <polygon id="Path" fill="url(#linearGradient-2)" fill-rule="nonzero" points="160 24 164 24 164 28 160 28"></polygon>
                        <path d="M141,76 L145,76 L145,74 C147.208984,74 149,72.2089845 149,70 L149,68 C149,65.7910155 147.208984,64 145,64 L141,64 L141,62 L149,62 L149,58 L145,58 L145,56 L141,56 L141,58 C138.791016,58 137,59.7910155 137,62 L137,64 C137,66.2089845 138.791016,68 141,68 L145,68 L145,70 L137,70 L137,74 L141,74 L141,76 Z" id="Path" fill="url(#linearGradient-3)" fill-rule="nonzero"></path>
                        <polygon id="Path" fill="url(#linearGradient-4)" fill-rule="nonzero" points="174 72.2902004 182.292197 57 186 58.7097996 177.708815 74"></polygon>
                        <polygon id="Path" fill="url(#linearGradient-5)" fill-rule="nonzero" points="174 59 178 59 178 63 174 63"></polygon>
                        <polygon id="Path" fill="url(#linearGradient-6)" fill-rule="nonzero" points="182 69 186 69 186 73 182 73"></polygon>
                    </g>
                    <g id="Group-3" transform="translate(48.000000, 0.000000)" fill-rule="nonzero">
                        <circle id="Oval" fill="#3F3D56" cx="19.5" cy="10.5" r="8.5"></circle>
                        <path d="M15.214888,75.3437089 C16.0609217,81.3713298 15.0291733,87.5176872 13.4219386,93.3823365 C13.1215852,94.4742462 12.798304,95.5754685 12.2365743,96.5556263 C11.6748446,97.535784 10.8930086,98.37858 10.2326897,99.3005336 C8.85702517,101.223598 8.04996866,103.491232 7.29564596,105.735583 C5.21600346,111.945832 3.46940434,118.265985 2.06353527,124.668227 C1.97882158,124.930648 1.97882158,125.213679 2.06353527,125.4761 C2.26300663,125.941733 2.86829901,126.002266 3.36583101,125.999937 L9.79935536,125.965015 C10.0286328,125.518007 9.60446956,125.033749 9.34080053,124.605366 C8.42369085,123.157247 9.30411614,121.276089 10.1134654,119.760453 C12.0805167,116.079411 13.6032125,112.170917 14.6485728,108.119625 C15.0887854,106.41308 15.4464582,104.669284 16.1618037,103.060521 C17.0261796,101.109518 18.3812091,99.4309108 19.4817407,97.605629 C20.7611087,95.48467 21.6942678,93.1821142 22.6205486,90.8702457 C23.9136732,87.6620334 25.2182617,84.4142423 25.7272576,80.9871825 C26.2064474,77.7696575 25.9702917,74.4916003 25.6584744,71.2531219 C25.6878773,71.0576839 25.6229018,70.8598151 25.4838718,70.7214072 C25.3448418,70.5829993 25.1487326,70.5209516 24.9568855,70.5546722 L16.3245907,70.103008 C14.5453979,70.0098814 14.1235275,69.6140932 14.3940748,71.3881555 C14.5820823,72.7128817 15.0268805,74.0026855 15.214888,75.3437089 Z" id="Path" fill="#3F3D56"></path>
                        <path d="M15.214888,75.3437089 C16.0609217,81.3713298 15.0291733,87.5176872 13.4219386,93.3823365 C13.1215852,94.4742462 12.798304,95.5754685 12.2365743,96.5556263 C11.6748446,97.535784 10.8930086,98.37858 10.2326897,99.3005336 C8.85702517,101.223598 8.04996866,103.491232 7.29564596,105.735583 C5.21600346,111.945832 3.46940434,118.265985 2.06353527,124.668227 C1.97882158,124.930648 1.97882158,125.213679 2.06353527,125.4761 C2.26300663,125.941733 2.86829901,126.002266 3.36583101,125.999937 L9.79935536,125.965015 C10.0286328,125.518007 9.60446956,125.033749 9.34080053,124.605366 C8.42369085,123.157247 9.30411614,121.276089 10.1134654,119.760453 C12.0805167,116.079411 13.6032125,112.170917 14.6485728,108.119625 C15.0887854,106.41308 15.4464582,104.669284 16.1618037,103.060521 C17.0261796,101.109518 18.3812091,99.4309108 19.4817407,97.605629 C20.7611087,95.48467 21.6942678,93.1821142 22.6205486,90.8702457 C23.9136732,87.6620334 25.2182617,84.4142423 25.7272576,80.9871825 C26.2064474,77.7696575 25.9702917,74.4916003 25.6584744,71.2531219 C25.6878773,71.0576839 25.6229018,70.8598151 25.4838718,70.7214072 C25.3448418,70.5829993 25.1487326,70.5209516 24.9568855,70.5546722 L16.3245907,70.103008 C14.5453979,70.0098814 14.1235275,69.6140932 14.3940748,71.3881555 C14.5820823,72.7128817 15.0268805,74.0026855 15.214888,75.3437089 Z" id="Path" fill="#000000" opacity="0.1"></path>
                        <path d="M16.1869877,60.6469905 C14.3955265,63.1954132 12.5174195,66.128416 13.1122314,69.1795729 C13.5641948,71.4963208 15.3486307,73.2918004 17.03237,74.9714426 C23.7626439,81.6575769 30.3805124,89.0850706 32.6707726,98.2478084 C33.260901,100.615525 33.546598,103.045793 34.0547642,105.429727 C34.9774252,109.762045 36.6307215,113.904391 38.269967,118.021251 L42.653778,128.998003 C45.4449171,129.065853 47.9809225,127.399426 49,124.827857 C48.4239223,124.783839 47.6722111,124.232453 47.3349949,123.769103 C45.4615714,121.204463 45.0775196,117.905414 44.5974548,114.777804 C44.0658709,111.321217 43.3563118,107.89243 42.6444108,104.46596 L39.5064265,89.3097951 C39.1434507,87.5606505 38.7804749,85.8091891 38.3074355,84.0878455 C36.476164,77.4086613 33.005647,71.1140574 32.4693795,64.207832 C32.389759,63.1930964 32.3405817,62.0787407 31.6450732,61.3257976 C30.9144381,60.5311531 29.715447,60.3990985 28.6312032,60.3365463 C24.2450505,60.0492696 20.460735,59.6253047 16.1869877,60.6469905 Z" id="Path" fill="#3F3D56"></path>
                        <path d="M5.40445993,124.230182 C4.92145653,124.114481 4.42771955,124.050415 3.9314159,124.039041 C2.96697575,124.073508 2.07517518,124.564987 1.52528612,125.365079 C1.24861043,125.812375 1.03124896,126.294332 0.878757148,126.798633 L0.236964656,128.657475 C0.0475056174,129.202226 -0.137216945,129.8306 0.144603375,130.329955 C0.352742306,130.643757 0.654752071,130.882319 1.006642,131.010893 C2.56020611,131.708556 4.31033398,131.746785 6.00362414,131.914033 C7.6471813,132.076502 9.27652903,132.367991 10.898772,132.676206 C11.4576762,132.781333 12.0142121,132.888849 12.580221,132.946192 C13.8448601,133.075212 15.1189721,132.946192 16.3836112,132.831507 L17.6885103,132.704877 C18.1253064,132.685871 18.5573357,132.605454 18.9720953,132.465951 C19.3907847,132.322666 19.7330902,132.01272 19.9193905,131.608208 C20.2414709,130.803028 19.5499454,129.849714 18.7044844,129.696802 C18.3610899,129.627514 18.0058542,129.658574 17.6577232,129.613178 C17.263156,129.544933 16.8782631,129.4286 16.5114961,129.266736 C14.8418883,128.604912 13.1557028,127.93592 11.6873953,126.894204 C11.2800584,126.605103 10.8537755,126.201319 10.898772,125.699575 C10.9411096,125.484674 11.0120075,125.276522 11.1095452,125.080757 C11.3086366,124.568068 11.3153736,123.99969 11.1284911,123.482344 C11.047971,123.262533 10.8916673,123.030775 10.6714212,123.004493 C10.0462064,122.928037 10.12199,123.847901 10.0296287,124.199122 C9.90411209,124.676973 9.67676125,124.71998 9.2315325,124.676973 C7.952684,124.538396 6.67383549,124.473886 5.40445993,124.230182 Z" id="Path" fill="#F2F2F2"></path>
                        <path d="M41.0252784,130.935937 C41.0366279,131.806076 41.3529796,132.648051 41.924733,133.329851 C42.0995364,133.533241 42.3177801,133.69943 42.5651824,133.817541 C42.9340109,133.960864 43.3330304,134.021092 43.730706,133.993466 C44.8515452,133.970404 45.9590561,133.758501 47.0012361,133.367708 C47.3683891,133.210448 47.7459119,133.075811 48.1314408,132.96464 C48.6166402,132.870767 49.1072352,132.803846 49.600707,132.764219 C51.5479556,132.499218 53.2573903,131.412493 55.1387103,130.862449 C55.7008185,130.730723 56.2517526,130.55952 56.7869256,130.350263 C57.5309771,130.018455 58.133753,129.459504 58.7247559,128.918368 C59.072628,128.626502 59.3725975,128.287261 59.6147921,127.911811 C59.9609173,127.301641 59.9821087,126.575673 59.9962362,125.885335 C60.0089352,125.777729 59.9893517,125.668915 59.939726,125.571342 C59.8859591,125.501072 59.8125874,125.446329 59.7278126,125.413233 C59.1556464,125.146005 58.4775236,125.279619 57.844138,125.384283 C55.5554734,125.769536 53.2126531,125.698275 50.8886695,125.627015 C50.4353428,125.685948 49.9967507,125.449308 49.8196842,125.050248 L48.9367117,123.71411 C48.6847702,123.331084 48.2844894,122.892385 47.8276983,123.023772 C47.4627363,123.128436 47.314397,123.551547 47.3285245,123.914531 C47.3426521,124.277515 47.4603817,124.638273 47.3873894,124.992349 C47.2821732,125.386256 47.0094913,125.721518 46.6339195,125.918738 C46.2630149,126.10948 45.8671853,126.253235 45.4566229,126.346302 C44.1568874,126.693698 42.6452385,127.087859 41.6398272,127.991979 C40.9122579,128.642233 40.9805411,130.078582 41.0252784,130.935937 Z" id="Path" fill="#F2F2F2"></path>
                        <path d="M41.186054,38.7091832 C41.6990817,38.3417546 42.1393575,37.8928157 42.4868605,37.3827811 C42.7862588,36.8073134 42.9742138,36.1865733 43.0419665,35.549488 L43.416008,33.3343518 C43.6232793,32.1129008 43.8662871,30.8199937 44.7358739,29.8888326 C45.6054606,28.9576716 47.3374869,28.6249545 48.2213682,29.5449506 C48.6073218,29.9446576 48.7597973,30.4939757 48.8550945,31.0276627 C49.4056448,34.2509287 48.3703934,37.5345798 46.0390628,39.9596633 C44.969352,41.0582993 43.6566333,41.9314024 42.5249793,42.9697474 C41.5386535,43.8629475 40.6833613,44.8878946 39.7732733,45.8592496 C37.5724302,48.2056644 35.0516061,50.270318 32.2757677,52 C32.3091217,50.3386479 32.5354525,48.5567138 32.2757677,46.9065267 C32.0827909,45.7141046 31.5610389,45.0710006 32.7927549,44.2916835 C35.6516703,42.4695554 38.5367924,40.8216013 41.186054,38.7091832 Z" id="Path" fill="#FBBEBE"></path>
                        <path d="M18.6770484,21.563262 C18.5836128,22.7754194 18.0541447,24.0149187 17,24.7144155 C19.9851461,25.7078377 22.929564,26.8030326 25.8332535,28 C25.2726402,27.4873395 25.1025395,26.7012599 25.0761859,25.9630287 C25.0019166,24.0331466 25.7038812,22.1351633 26.7292765,20.4718646 C26.8924002,20.2608815 26.9865602,20.0088731 27,19.7473044 C26.966459,19.2095804 26.2956397,18.9612249 25.7446095,18.8359079 C23.864637,18.4021865 21.945961,18.1374769 20.0138955,18.0452714 C19.1873503,18.020208 18.2074748,17.7718524 18.394346,18.7721101 C18.5716339,19.7062916 18.7513177,20.6176881 18.6770484,21.563262 Z" id="Path" fill="#FBBEBE"></path>
                        <circle id="Oval" fill="#FBBEBE" cx="23.5" cy="15.5" r="6.5"></circle>
                        <path d="M29.3125913,32.892231 C29.079348,32.3785909 28.7952131,31.8908301 28.4646566,31.4366221 C27.2533212,29.6557244 26.0099882,27.8771669 24.4558221,26.4028363 C23.2785407,25.3278102 22.0043653,24.3694976 20.6504005,23.5407629 C19.9198471,23.0280038 19.1166117,22.6333549 18.2688694,22.3706593 C17.7658212,22.2565096 17.254393,22.1852792 16.7398442,22.1577004 L15.0051205,22.0126076 C14.8530117,21.9919577 14.698639,21.9966996 14.5480128,22.0266488 C14.0771918,22.1483396 13.8623512,22.7474326 13.9629149,23.2318555 C14.0634786,23.7162784 14.4200226,24.1094332 14.7354269,24.4768458 C14.8131352,28.1018268 13.2383992,31.6776634 13.0258441,35.297964 C12.6533014,41.6165236 16.4267254,47.516186 16.7284165,53.851127 C16.7595189,54.1373921 16.7298938,54.4271585 16.641566,54.7006222 C16.5912842,54.8316738 16.5158614,54.9510244 16.4587229,55.0797358 C16.2804509,55.477571 16.2873075,55.929231 16.25531,56.3668498 C16.1307848,57.9276201 15.4633255,59.3907963 14.3743118,60.4902949 C14.6573365,60.8500209 15.0211926,61.1342579 15.4348017,61.3187283 C16.1638885,61.6440171 17.0346786,61.6720996 17.8094762,61.8990997 C19.8298922,62.5028731 21.90059,63.111327 24.0009999,62.9826156 C24.2619435,62.4011985 24.4235138,61.7782448 24.4786775,61.1408725 C24.7757975,60.9513157 25.1186282,61.3561716 25.164339,61.7118831 C25.2100498,62.0675946 25.1437692,62.4818113 25.3928928,62.7392341 C25.6420165,62.9966569 25.9574209,62.9568733 26.2613975,62.9170898 C27.5435846,62.7509351 28.7754898,62.3086359 30.032536,62.0114296 C31.2895821,61.7142233 32.6334788,61.5714707 33.8562418,61.9973884 C34.10308,61.67678 33.9979452,61.2017179 33.7968178,60.8506868 C33.5956905,60.4996557 33.3099981,60.1907484 33.1957212,59.7999338 C33.1382148,59.5747677 33.1135688,59.3421272 33.122584,59.1095726 C33.122584,57.1086955 33.5248388,55.0867564 33.1431538,53.1233225 C33.0311625,52.5476316 32.8528904,51.9859818 32.7386135,51.4079506 C32.5100597,50.2869914 32.5443428,49.130929 32.5740548,47.9865677 C32.6037668,46.8422063 32.46892,45.6042367 32.4460646,44.4434939 C32.4453563,43.9638095 32.4148207,43.4846579 32.3546431,43.0089469 C32.2769348,42.5104827 32.1260892,42.0237196 32.0849495,41.5205751 C31.9615304,40.2428219 32.4643489,38.9744296 32.3889261,37.691996 C32.2632215,35.7449436 30.0531058,34.6871699 29.3125913,32.892231 Z" id="Path" fill="#FF6584"></path>
                        <path d="M14.1939016,32.0589779 C12.5440689,36.4070379 11.7377947,41.0190376 10.9315206,45.5986236 L9.06730285,56.3553257 C8.53833108,59.3952633 8.00702903,62.4537229 8.02800148,65.5376505 C8.02800148,66.403558 8.08392801,67.2856724 7.85556134,68.1214816 C7.55728651,69.2189153 6.81625996,70.1334433 6.25466438,71.1313208 C5.11515002,73.1691028 4.73557452,75.5409246 5.18273919,77.8293705 C5.37382151,78.7902038 5.89580247,79.8806917 6.87684704,79.9918242 C7.6831212,80.0798041 8.37987257,79.4431074 8.85058755,78.7855733 C9.93183382,77.2783384 10.4677964,75.4585434 10.9478325,73.6665315 C12.4931848,67.8101864 13.5738609,61.8424389 14.1799199,55.8181852 C14.2375261,55.0556097 14.3457306,54.2976436 14.5038278,53.5492295 C14.7096299,52.7776406 14.9728999,52.0223262 15.2914597,51.2895349 C16.004523,49.5330236 16.7183631,47.7765124 17.4329798,46.0200011 C19.0804823,41.9613488 20.7373057,37.8841743 23,34.1288212 C20.7629387,33.4898092 18.4349969,32.7396646 16.1979356,32.1075984 C15.5524502,31.917747 14.8603594,32.0311948 14.1939016,32.0589779 Z" id="Path" fill="#FBBEBE"></path>
                        <path d="M18.460831,36.2293493 C16.9402988,35.8877899 15.3677245,35.9937911 13.8155145,35.9537462 C13.5950784,35.9704345 13.3755245,35.9108084 13.1910102,35.7841443 C12.8764953,35.5038301 13.0099944,34.9785354 13.1683832,34.580442 L13.9195985,32.6959766 C14.0428967,32.3064245 14.248573,31.9506321 14.5214759,31.6548095 C14.9038716,31.3014722 15.4423935,31.2143157 15.9492376,31.150715 C17.5987435,30.9528461 19.2957661,30.8868899 20.8954928,31.3509395 C22.4952194,31.8149891 23.9999128,32.8702897 24.714925,34.4320404 C25.013601,35.082181 25.1516255,35.9019234 24.7556535,36.4931744 C24.1673524,37.3718064 22.8482001,38.354084 21.863927,37.8735453 C20.685062,37.2987834 19.782246,36.5285082 18.460831,36.2293493 Z" id="Path" fill="#FF6584"></path>
                        <path d="M26.133567,4.66614835 C24.8075624,4.65223803 23.5065107,5.02447138 22.3911873,5.7368503 C20.2393187,3.71181601 17.1560411,2.99471616 14.3225431,3.86026821 C13.9114433,1.52699095 11.8045561,-0.129708891 9.42345573,0.00798929402 C7.04235536,0.145687479 5.14332744,2.03404797 5.00769796,4.39894238 C4.87206849,6.76383679 6.54291611,8.8541269 8.89287432,9.25943689 C7.94258005,12.0932648 8.62690589,15.2162736 10.6770282,17.4016524 C12.7271506,19.5870312 15.815563,20.4856663 18.7290449,19.7445471 C21.6425268,19.0034278 23.9156504,16.7409478 24.6554649,13.8458766 C25.1403556,13.9444452 25.6340253,13.994161 26.1289695,13.9942681 C29.3702197,13.9942681 32,11.905372 32,9.33020823 C32,6.75504448 29.3702197,4.66614835 26.133567,4.66614835 Z" id="Path" fill="#3F3D56"></path>
                        <path d="M27.8263778,11.7587719 C27.2775641,11.760052 26.7300799,11.7122811 26.1927365,11.6162281 C25.9374938,12.4183206 25.5348312,13.1801318 25,13.872807 C25.5039536,13.9563705 26.0159255,13.9989558 26.5291494,14 C29.8881809,14 32.6457471,12.245614 33,10 C31.8047149,11.0701754 29.9315068,11.7587719 27.8263778,11.7587719 Z" id="Path" fill="#000000" opacity="0.1"></path>
                        <path d="M19.1891322,17.6029588 C16.5260664,17.5990773 14.0223829,16.321524 12.4402858,14.1592284 C10.8581886,11.9969328 10.384887,9.20575869 11.1644697,6.63543191 C8.87138379,6.22820603 7.19920386,4.21753061 7.19909369,1.86735411 C7.19861333,1.57645405 7.22454722,1.28612171 7.27656996,1 C6.08374321,2.3007888 5.69047223,4.15554449 6.25134478,5.83519577 C6.81221734,7.51484706 8.23756506,8.75086303 9.96710924,9.05738792 C8.62147492,13.5172558 11.0985154,18.2364847 15.5099439,19.6175326 C19.9213725,20.9985804 24.6092795,18.5224198 26,14.0766666 C24.4256003,16.2916031 21.8898335,17.6044835 19.1891322,17.6029588 L19.1891322,17.6029588 Z" id="Path" fill="#000000" opacity="0.1"></path>
                    </g>
                </g>
            </g>
        </g>
    </g>
</svg>