<svg width="100" height="88" viewBox="0 0 100 88" fill="none" xmlns="http://www.w3.org/2000/svg">
<path fill-rule="evenodd" clip-rule="evenodd" d="M99.8775 28.5817C99.8775 28.1531 99.7755 27.7449 99.551 27.3776L84.6939 1.25515C84.2653 0.50005 83.449 0.0102539 82.5714 0.0102539H17.2857C16.4082 0.0102539 15.5918 0.479642 15.1633 1.25515L0.326531 27.3776C0.122449 27.7449 0 28.1531 0 28.5817C0 34.4388 3.53061 39.4592 8.57143 41.6837V84.7654C8.57143 86.1123 9.67347 87.2143 11.0204 87.2143H24.551H24.6122H43.5918H43.6531H88.8367C90.1837 87.2143 91.2857 86.1123 91.2857 84.7654V41.9898C91.2857 41.8878 91.2857 41.8062 91.2653 41.7245C96.3265 39.5 99.8775 34.4592 99.8775 28.5817ZM18.7143 4.92862H81.1429L92.7551 25.3572H7.12245L18.7143 4.92862ZM61.8163 37.9898C66.449 37.9898 70.3061 34.6429 71.0816 30.2347H52.551C53.3265 34.6429 57.1837 37.9898 61.8163 37.9898ZM47.3469 30.2347C46.5714 34.6429 42.7143 37.9898 38.0816 37.9898C33.449 37.9898 29.5918 34.6429 28.7959 30.2347H47.3469ZM23.6122 30.2347H5.06122C5.83673 34.6429 9.69388 38.0103 14.3265 37.9898C18.9592 37.9898 22.8367 34.6429 23.6122 30.2347ZM41.1429 82.3164H27.0612V55.8878C27.0612 53.9694 28.6122 52.398 30.551 52.398H37.6735C39.5918 52.398 41.1633 53.949 41.1633 55.8878V82.3164H41.1429ZM46.0408 82.3164H86.3878V42.8878C86.2449 42.8878 86.1071 42.8929 85.9694 42.898C85.8316 42.9031 85.6939 42.9082 85.551 42.9082C80.6122 42.9082 76.2449 40.398 73.6735 36.5817C71.102 40.398 66.7551 42.9082 61.8163 42.9082C56.898 42.9082 52.5306 40.398 49.9592 36.5817C47.3673 40.398 43.0204 42.9082 38.0816 42.9082C33.1429 42.9082 28.7755 40.398 26.2041 36.5817C23.6327 40.398 19.2653 42.9082 14.3265 42.9082C14.0408 42.9082 13.7551 42.9082 13.4694 42.8878V82.3368H22.1429V55.8878C22.1429 51.2552 25.9184 47.5001 30.5306 47.5001H37.6531C42.2857 47.5001 46.0408 51.2756 46.0408 55.8878V82.3164ZM85.551 38.0103C80.9184 38.0103 77.0612 34.6633 76.2857 30.2552H94.8367C94.0408 34.6429 90.1837 38.0103 85.551 38.0103ZM70.9592 47.5H57.3878C53.6735 47.5 50.6531 50.5205 50.6531 54.2347V64.6429C50.6531 68.3572 53.6735 71.3776 57.3878 71.3776H70.9592C74.6735 71.3776 77.6939 68.3572 77.6939 64.6429V54.2347C77.6939 50.5205 74.6735 47.5 70.9592 47.5ZM72.7959 64.6429C72.7959 65.6633 71.9592 66.4796 70.9592 66.4796H57.3878C56.3673 66.4796 55.551 65.6429 55.551 64.6429V54.2347C55.551 53.2143 56.3878 52.398 57.3878 52.398H70.9592C71.9796 52.398 72.7959 53.2347 72.7959 54.2347V64.6429Z" fill="#D0D0D0"/>
</svg>
