<svg xmlns="http://www.w3.org/2000/svg" width="18.087" height="23.744" viewBox="0 0 18.087 23.744">
  <path id="Path_254" data-name="Path 254" d="M17.391,16.788h-.7V14.7a.7.7,0,0,0-.7-.7H9.739V12.482a6.261,6.261,0,1,0-1.391,0v1.523H2.087a.7.7,0,0,0-.7.7v2.087H.7a.7.7,0,0,0-.7.7v2.783a.7.7,0,0,0,.7.7h.7v2.087a.7.7,0,0,0,1.391,0V20.962h.7a.7.7,0,0,0,.7-.7V17.484a.7.7,0,0,0-.7-.7h-.7V15.4H8.348v1.391h-.7a.7.7,0,0,0-.7.7v2.783a.7.7,0,0,0,.7.7h.7v2.087a.7.7,0,0,0,1.391,0V20.962h.7a.7.7,0,0,0,.7-.7V17.484a.7.7,0,0,0-.7-.7h-.7V15.4H15.3v1.391h-.7a.7.7,0,0,0-.7.7v2.783a.7.7,0,0,0,.7.7h.7v2.087a.7.7,0,1,0,1.391,0V20.962h.7a.7.7,0,0,0,.7-.7V17.484A.7.7,0,0,0,17.391,16.788ZM6.956,10.66v-.225a2.087,2.087,0,0,1,4.174,0v.225a4.842,4.842,0,0,1-2.086.47h0A4.842,4.842,0,0,1,6.956,10.66Zm-2.783-4.4a4.869,4.869,0,1,1,8.277,3.475,3.479,3.479,0,0,0-6.815,0A4.855,4.855,0,0,1,4.174,6.261ZM2.783,19.571H1.391V18.179H2.783Zm6.956,0H8.348V18.179H9.739Zm6.956,0H15.3V18.179H16.7Zm0,0" fill="#fff"/>
</svg>
