<svg xmlns="http://www.w3.org/2000/svg" width="25.517" height="21.323" viewBox="0 0 25.517 21.323">
  <g id="XMLID_10_" transform="translate(70.993 -42.313)">
    <g id="Group_1" data-name="Group 1" transform="translate(-70.993 42.313)">
      <path id="Path_1" data-name="Path 1" d="M25.517,46.531a7.346,7.346,0,0,0-1.293-4.169,7.456,7.456,0,0,0-2.3-2.173,5.549,5.549,0,1,0-8.362-7.209,5.515,5.515,0,0,0-1.607,0,5.549,5.549,0,1,0-8.362,7.209,7.454,7.454,0,0,0-2.3,2.173A7.347,7.347,0,0,0,0,46.531v3.088H5.352v2.312H20.165V49.619h5.352V46.531ZM18.11,31.978a4.181,4.181,0,0,1,0,8.363l-.124,0L18,40.313a5.5,5.5,0,0,0,.179-.623c0-.015.007-.03.01-.045.012-.057.023-.115.034-.173.005-.027.01-.055.015-.082q.013-.078.024-.156c.005-.036.01-.072.014-.109s.011-.092.015-.139.008-.095.011-.142.006-.075.007-.112q.006-.121.006-.242c0-.006,0-.012,0-.018s0-.006,0-.01c0-.083,0-.165-.006-.246,0-.024,0-.047,0-.071q-.006-.1-.016-.208c0-.016,0-.031,0-.047a5.524,5.524,0,0,0-3.295-4.506A4.194,4.194,0,0,1,18.11,31.978Zm-6.8,2.57.04-.014.126-.043.1-.03.071-.02.127-.033a4.157,4.157,0,0,1,1.973,0l.127.033.072.02.1.029.127.043.039.014a4.2,4.2,0,0,1,2.684,3.272l.005.036c.008.051.014.1.02.154,0,.019,0,.038.006.057,0,.047.008.095.011.142,0,.02,0,.041,0,.061q0,.091,0,.184c0,.005,0,.011,0,.016s0,.005,0,.007c0,.06,0,.119,0,.178,0,.019,0,.037,0,.056q0,.085-.013.17c0,.022-.005.044-.007.065s-.009.073-.014.109-.008.056-.012.084-.015.085-.023.127-.015.075-.024.112l-.016.067q-.02.083-.044.166c-.006.022-.012.044-.019.065s-.02.063-.03.094l-.025.075c-.01.028-.02.056-.03.084q-.027.071-.056.141l-.027.062q-.025.058-.052.116l-.006.014-.02.041q-.03.062-.063.123l-.025.047,0,0c-.024.043-.048.086-.074.128l-.03.05q-.041.067-.085.132c-.018.027-.037.053-.055.08l-.048.067-.064.085-.045.057-.07.086-.045.052c-.025.028-.049.057-.075.084l-.046.048q-.062.065-.126.128l-.077.074-.055.049-.091.079-.047.039q-.056.045-.113.089l-.031.024a4.172,4.172,0,0,1-4.979,0l-.031-.023q-.058-.044-.114-.089l-.047-.039L9.986,41.6l-.055-.049-.077-.074q-.065-.063-.127-.128L9.682,41.3c-.025-.028-.05-.056-.075-.084l-.045-.052-.07-.085-.045-.057-.064-.085-.048-.067c-.019-.026-.037-.053-.055-.08q-.044-.065-.085-.132l-.03-.049c-.026-.043-.051-.086-.075-.13l-.026-.049c-.022-.041-.043-.082-.063-.123l-.021-.044,0-.007c-.019-.04-.037-.08-.055-.121L8.9,40.076q-.03-.072-.057-.144c-.01-.026-.019-.053-.028-.079s-.019-.054-.028-.082-.019-.059-.028-.089-.026-.089-.038-.134-.016-.063-.024-.1-.012-.05-.017-.075-.014-.062-.02-.093q-.014-.072-.026-.146c0-.026-.008-.053-.012-.079s-.011-.078-.015-.117c0-.019,0-.039-.007-.058-.006-.058-.01-.116-.013-.174,0-.017,0-.034,0-.05,0-.062,0-.125,0-.188s0-.135.005-.2c0-.018,0-.036,0-.054,0-.05.007-.1.011-.15,0-.017,0-.035.005-.052.006-.054.013-.107.02-.161l0-.031A4.194,4.194,0,0,1,11.312,34.549ZM3.225,36.16a4.18,4.18,0,0,1,7.307-2.775,5.524,5.524,0,0,0-3.3,4.508c0,.014,0,.027,0,.041q-.01.107-.016.215c0,.022,0,.044,0,.066,0,.086-.007.172-.007.258s0,.175.007.262c0,.035,0,.07.007.1,0,.05.007.1.011.15s.009.089.014.133.009.077.015.115.015.1.023.15c.005.03.01.059.016.089.01.056.021.112.033.167,0,.018.008.036.013.054a5.486,5.486,0,0,0,.173.6l.013.038-.124,0A4.186,4.186,0,0,1,3.225,36.16ZM6.5,44.894l-.044.072c-.031.051-.062.1-.092.152l-.049.086c-.027.047-.054.1-.08.143l-.048.091q-.037.072-.073.144l-.044.091c-.024.051-.048.1-.071.153-.013.028-.025.056-.038.084-.027.061-.052.123-.077.185l-.022.054q-.048.121-.091.243l-.019.056c-.022.063-.043.126-.063.189-.009.029-.018.058-.026.088-.016.054-.032.107-.047.162-.009.032-.017.064-.026.1q-.02.078-.039.156-.012.05-.023.1c-.012.053-.023.106-.033.159-.006.032-.013.064-.019.1-.011.058-.02.116-.03.174,0,.027-.009.055-.013.082-.013.086-.024.171-.034.258v0q-.013.118-.023.236H1.37V46.531a6.024,6.024,0,0,1,3.463-5.455,5.527,5.527,0,0,0,3.379.576c.042.059.084.118.128.176l.045.057c.043.055.087.11.133.164l.057.065q.064.073.13.144l.07.074q.061.062.123.123l.046.046q-.089.054-.177.11l-.028.019q-.088.057-.174.116l-.059.041-.152.11-.048.035q-.1.072-.189.147l-.04.033q-.074.061-.147.123l-.056.049q-.073.064-.144.13l-.037.034q-.087.082-.172.167l-.044.045q-.065.066-.128.134l-.05.054q-.071.078-.14.157l-.022.025q-.079.092-.154.186l-.042.053q-.057.072-.112.146l-.043.057c-.048.066-.1.132-.142.2S6.547,44.82,6.5,44.894Zm.221,5.667V48.844q0-.114,0-.227c0-.025,0-.05,0-.074,0-.05,0-.1.008-.151,0-.03.006-.061.008-.091s.008-.089.012-.133.008-.064.012-.1.01-.084.017-.125.011-.066.017-.1.013-.08.02-.12.014-.067.021-.1.016-.078.024-.116.016-.068.025-.1.018-.076.028-.113.019-.068.029-.1.021-.074.032-.11.022-.068.033-.1.023-.072.035-.107.024-.067.036-.1.025-.071.039-.105.027-.066.04-.1.028-.069.043-.1.029-.066.044-.1.03-.067.046-.1.032-.065.048-.1.032-.066.049-.1.034-.064.051-.1.035-.064.053-.1l.055-.094.056-.094.058-.092.059-.092.062-.09.062-.089.065-.088.065-.087.068-.086.069-.084.071-.083.072-.082.074-.081.075-.079.077-.078.078-.077.08-.075.081-.074.083-.072.084-.072.085-.069.087-.069.088-.066.09-.066.09-.063.093-.063.092-.06.1-.06.094-.056.1-.057.1-.053.1-.054.1-.05.078-.037a5.534,5.534,0,0,0,5.148,0l.078.037.1.05.1.053.1.054.1.056.1.057.1.059.093.061.092.062.091.064.089.065.089.067.086.068.086.07.084.071.083.073.081.074.08.076.077.076.078.079.074.079.075.081.071.081.072.084.068.084.069.086.065.086.065.088.062.089.062.09.059.091.059.093.055.093c.018.031.037.063.055.094s.035.064.052.1.035.064.051.1.033.065.049.1.032.064.048.1.031.067.046.1.03.065.044.1.028.068.042.1.027.066.04.1.026.07.039.1.025.067.036.1.024.072.035.108.022.067.032.1.021.073.032.11.02.067.029.1.019.075.028.113.017.067.025.1.016.077.024.116.014.067.021.1.014.08.02.119.012.067.017.1.011.083.016.124.009.065.013.1.008.088.012.133.006.061.008.091c0,.05.006.1.008.151,0,.025,0,.049,0,.074q0,.113,0,.227v1.718Zm13.42-2.312q-.02-.25-.057-.5c0-.026-.009-.052-.013-.078-.01-.06-.019-.119-.03-.179-.006-.031-.012-.062-.018-.094q-.016-.081-.034-.162-.011-.049-.022-.1-.019-.079-.039-.158c-.008-.032-.017-.064-.025-.1-.015-.055-.031-.109-.047-.163-.009-.029-.017-.057-.026-.086-.02-.064-.042-.128-.064-.192l-.018-.054q-.043-.123-.091-.244l-.021-.052c-.025-.063-.051-.126-.078-.188l-.037-.082c-.023-.052-.047-.1-.071-.155l-.044-.09q-.036-.073-.074-.145l-.048-.09q-.039-.072-.08-.144l-.049-.086c-.03-.051-.061-.1-.093-.153l-.044-.071q-.07-.111-.145-.22c-.046-.068-.094-.134-.142-.2l-.042-.057q-.056-.074-.113-.147l-.041-.052q-.076-.095-.155-.187l-.021-.024q-.069-.08-.141-.159l-.05-.054q-.064-.068-.129-.135L18,43.617q-.085-.085-.172-.167l-.036-.034q-.071-.066-.144-.131l-.056-.049q-.073-.063-.147-.124l-.04-.033q-.093-.075-.189-.147l-.048-.035q-.075-.055-.151-.109l-.06-.042q-.085-.059-.172-.115l-.03-.02q-.088-.056-.177-.11l.045-.045q.064-.062.125-.125l.068-.072c.045-.048.089-.1.132-.146L17,42.05c.046-.054.091-.11.135-.166l.043-.055c.044-.058.087-.117.128-.177a5.529,5.529,0,0,0,3.379-.576,6.024,6.024,0,0,1,3.463,5.455v1.718Z" transform="translate(0 -30.608)" fill="#FE6C0B"/>
    </g>
  </g>
</svg>
