<?xml version="1.0" encoding="UTF-8"?>
<svg width="16px" height="12px" viewBox="0 0 16 12" version="1.1" xmlns="http://www.w3.org/2000/svg" xmlns:xlink="http://www.w3.org/1999/xlink">
    <!-- Generator: Sketch 53.2 (72643) - https://sketchapp.com -->
    <title>team</title>
    <desc>Created with Sketch.</desc>
    <g id="Symbols" stroke="none" stroke-width="1" fill="none" fill-rule="evenodd">
        <g id="past--challenge" transform="translate(-549.000000, -50.000000)" fill="#999999" fill-rule="nonzero">
            <g id="challenge">
                <g id="Group" transform="translate(120.000000, 46.000000)">
                    <g id="team" transform="translate(429.000000, 4.000000)">
                        <path d="M13.8685692,5.3827375 C13.3165128,5.0043873 12.2814467,5 12.2376548,5 C12.106406,5 12,5.14586682 12,5.3257895 C12,5.50571218 12.106406,5.65157899 12.2376548,5.65157899 C12.5047472,5.65162243 13.2802308,5.70800573 13.6560107,5.96555319 C13.6901379,5.9889666 13.7263882,6 13.7620998,6 C13.8492716,6 13.9332113,5.93397333 13.9748484,5.81986013 C14.033565,5.65892012 13.9859706,5.46322923 13.8685692,5.3827375 Z" id="Path"></path>
                        <path d="M15.28475,8.81082936 L14.3167813,8.52828261 C14.275,8.51608681 14.2458125,8.47656219 14.2458125,8.43215286 L14.2458125,8.10206802 C14.3245625,8.0463249 14.3996875,7.98394113 14.4699062,7.91431012 C14.8102187,7.57691417 14.997625,7.12436048 14.997625,6.63997637 L14.997625,6.18448547 L15.0912187,5.99327954 C15.1939375,5.78336486 15.2482187,5.5483562 15.2482187,5.31369873 L15.2482187,4.07975161 C15.2482187,3.94751335 15.1432812,3.84030521 15.0138437,3.84030521 L12.7584375,3.84030521 C11.9383125,3.84030521 11.2710625,4.52199315 11.2710625,5.35986399 L11.2710625,5.374135 C11.2710625,5.56926785 11.3162187,5.76468804 11.401625,5.93919658 L11.5216562,6.18445354 L11.5216562,6.57554933 C11.5216562,7.19536432 11.820625,7.75148656 12.2734687,8.08613685 L12.2735312,8.43208901 C12.2735312,8.48543767 12.2735312,8.50753059 12.08,8.56403994 L11.6076875,8.70189721 L10.2414063,8.1943347 C10.2463125,8.12847098 10.2245625,8.06148984 10.1775313,8.01101453 L9.7409375,7.54240197 L9.7409375,6.75574073 C9.78709375,6.71688656 9.83259375,6.67697882 9.8766875,6.63477241 C10.4274688,6.1073518 10.7433438,5.36270543 10.7433438,4.5917838 L10.7433438,3.96354029 C10.9096563,3.59380313 10.9939375,3.20254771 10.9939375,2.79960731 L10.9939375,0.2394464 C10.9939375,0.107208135 10.889,0 10.7595625,0 L7.25115625,0 C6.01646875,0 5.012,1.02623534 5.012,2.28760705 L5.012,2.79967116 C5.012,3.20261156 5.09628125,3.59386698 5.26259375,3.96360415 L5.26259375,4.50414641 C5.26259375,5.39922898 5.65215625,6.20562061 6.265,6.73725547 L6.265,7.54243389 L5.82840625,8.01104646 C5.781375,8.06152176 5.759625,8.1285029 5.76453125,8.19436662 L4.3225,8.73005611 C4.218,8.76887835 4.12090625,8.82146078 4.03275,8.88515353 L3.8063125,8.76948495 C4.480375,8.46972998 4.69390625,8.04814469 4.70415625,8.02720111 C4.73715625,7.95980493 4.73715625,7.88043643 4.70415625,7.81304025 C4.5351875,7.46779047 4.51471875,6.83498152 4.49828125,6.32652507 C4.4928125,6.15725243 4.487625,5.99733416 4.47771875,5.85494337 C4.3978125,4.70643073 3.5431875,3.84030521 2.48975,3.84030521 C1.4363125,3.84030521 0.58165625,4.70639881 0.50178125,5.85494337 C0.491875,5.99736609 0.4866875,6.15728436 0.48121875,6.32658893 C0.46478125,6.83501345 0.44428125,7.46775854 0.27534375,7.81300832 C0.24234375,7.8804045 0.24234375,7.959773 0.27534375,8.02716918 C0.28559375,8.04811276 0.4986875,8.46883605 1.17409375,8.76894221 L0.545125,9.09021542 C0.208875,9.26210601 0,9.60738772 0,9.99142782 L0,11.7604259 C0,11.8926642 0.1049375,11.9998723 0.234375,11.9998723 C0.3638125,11.9998723 0.46875,11.8926642 0.46875,11.7604259 L0.46875,9.99142782 C0.46875,9.78990973 0.57834375,9.60872862 0.75475,9.51860099 L1.53796875,9.11853395 L1.81040625,9.38304241 C2.00090625,9.56799081 2.24528125,9.66041712 2.48975,9.66041712 C2.73415625,9.66041712 2.97865625,9.56792695 3.16909375,9.38304241 L3.4415,9.11856588 L3.696875,9.24901627 C3.576625,9.44558581 3.508375,9.67609287 3.508375,9.91755062 L3.508375,11.7604897 C3.508375,11.892728 3.6133125,11.9999361 3.74275,11.9999361 C3.8721875,11.9999361 3.977125,11.892728 3.977125,11.7604897 L3.977125,9.91755062 C3.977125,9.58883861 4.18028125,9.29249974 4.4826875,9.18015149 L6.0030625,8.61534532 L6.63596875,9.5852948 C6.716875,9.70929611 6.84653125,9.78882424 6.9916875,9.80351028 C7.007875,9.80513852 7.02396875,9.80593667 7.04003125,9.80593667 C7.16809375,9.80593667 7.29075,9.75443974 7.3824375,9.66080023 L7.7685625,9.26632027 L7.7685625,11.7605217 C7.7685625,11.8927599 7.8735,11.9999681 8.0029375,11.9999681 C8.132375,11.9999681 8.2373125,11.8927599 8.2373125,11.7605217 L8.2373125,9.26632027 L8.6234375,9.66080023 C8.71509375,9.75447166 8.83775,9.8059686 8.96584375,9.8059686 C8.981875,9.8059686 8.998,9.80517045 9.01415625,9.80354221 C9.15934375,9.78885616 9.289,9.70932803 9.36990625,9.58532672 L10.0028438,8.61540917 L11.5231875,9.18021534 C11.8255625,9.29256359 12.02875,9.58890246 12.02875,9.91761448 L12.02875,11.7605536 C12.02875,11.8927919 12.1336875,12 12.263125,12 C12.3925625,12 12.4975,11.8927919 12.4975,11.7605536 L12.4975,9.91761448 C12.4975,9.5846882 12.3680313,9.2724501 12.1508437,9.04152799 L12.20875,9.02463903 C12.2671563,9.00759045 12.3468437,8.98425241 12.4268437,8.94418504 L13.02525,9.55553959 L13.02525,11.7605536 C13.02525,11.8927919 13.1301875,12 13.259625,12 C13.3890625,12 13.494,11.8927919 13.494,11.7605536 L13.494,9.55553959 L14.08825,8.94843123 C14.1198438,8.96484129 14.1530312,8.97869725 14.1879687,8.98888171 L15.1559687,9.27142846 C15.3769062,9.33591935 15.53125,9.5449401 15.53125,9.77972528 L15.53125,11.7605536 C15.53125,11.8927919 15.6361875,12 15.765625,12 C15.8950625,12 16,11.8927919 16,11.7605536 L16,9.77972528 C16,9.33218399 15.705875,8.93377711 15.28475,8.81082936 Z M1.50359375,8.38790317 C1.0651875,8.22673978 0.84528125,8.01187654 0.75140625,7.89454781 C0.81540625,7.723615 0.85690625,7.52784363 0.885,7.32118542 C1.01425,7.63779741 1.23071875,7.90808451 1.50359375,8.10091868 L1.50359375,8.38790317 Z M2.84625,9.0359409 C2.64634375,9.22998827 2.3331875,9.22995634 2.13334375,9.03590898 L1.915375,8.82430221 C1.95215625,8.75390497 1.972375,8.67408951 1.972375,8.59047482 L1.972375,8.33525689 C2.135875,8.3874562 2.3096875,8.4156151 2.4898125,8.4156151 C2.66971875,8.4156151 2.8434375,8.3873285 3.00721875,8.33541652 L3.0071875,8.5904429 C3.0071875,8.67408951 3.027375,8.7539369 3.0641875,8.82436607 L2.84625,9.0359409 Z M2.489875,7.9367223 C1.79,7.9367223 1.22065625,7.35502718 1.22065625,6.64004023 C1.22065625,6.50780196 1.11571875,6.40059383 0.98628125,6.40059383 C0.97315625,6.40059383 0.96034375,6.40196665 0.9478125,6.40410571 C0.9485,6.38351332 0.94915625,6.362889 0.94984375,6.34248817 C0.9550625,6.17784482 0.96009375,6.02233237 0.969375,5.88894476 C0.9993125,5.45870747 1.16759375,5.06224808 1.44321875,4.77254986 C1.7213125,4.4802337 2.093,4.31926187 2.4898125,4.31926187 C2.886625,4.31926187 3.25828125,4.4802337 3.53640625,4.77254986 C3.81203125,5.06224808 3.9803125,5.45870747 4.01025,5.88894476 C4.0195,6.02230044 4.0245625,6.17778097 4.029875,6.34239239 C4.03034375,6.35653569 4.0308125,6.37087055 4.03128125,6.38510963 C3.77628125,5.98373361 3.38246875,5.68793749 2.873625,5.52089968 C2.40353125,5.36660042 1.99921875,5.37614635 1.98215625,5.37659332 C1.92078125,5.37834926 1.86253125,5.40459258 1.8199375,5.44973621 L1.3970625,5.89778831 C1.30721875,5.9929922 1.30990625,6.14457774 1.40309375,6.23636552 C1.49628125,6.32815331 1.64465625,6.32537573 1.7345,6.23020377 L2.086375,5.85740169 C2.38940625,5.8725347 3.3643125,5.9883629 3.74346875,6.84133483 C3.6480625,7.4698976 3.11925,7.9367223 2.489875,7.9367223 Z M3.47590625,8.38870132 L3.4759375,8.10312158 C3.74859375,7.91134098 3.965375,7.6415647 4.09471875,7.32255825 C4.1228125,7.52873756 4.16428125,7.72406197 4.22815625,7.89461166 C4.1348125,8.01082298 3.913875,8.22760178 3.47590625,8.38870132 Z M5.73134375,4.50411449 L5.73134375,3.91003201 C5.73134375,3.87398734 5.723375,3.83838964 5.70803125,3.80592071 C5.55721875,3.4868504 5.48075,3.14830512 5.48075,2.79967116 L5.48075,2.28763898 C5.48075,1.29029683 6.27496875,0.478924726 7.25115625,0.478924726 L10.5251875,0.478924726 L10.5251875,2.79970309 C10.5251875,3.14833704 10.4487187,3.48688233 10.2979062,3.80595264 C10.2825625,3.83842157 10.2745937,3.87401927 10.2745937,3.91006393 L10.2745937,4.59184765 C10.2745937,5.24030043 10.0194375,5.84175786 9.556125,6.28543607 C9.49828125,6.34079608 9.43825,6.39270806 9.3761875,6.44107623 C9.3748125,6.44203402 9.3735,6.44308758 9.37215625,6.44407729 C8.938125,6.78073893 8.4065,6.94436064 7.8513125,6.9076136 C6.66253125,6.8289794 5.73134375,5.77324426 5.73134375,4.50411449 Z M7.051,9.32212724 C7.049375,9.3237874 7.04559375,9.32771432 7.0379375,9.32688424 C7.0303125,9.32611802 7.0273125,9.32155257 7.02603125,9.31957315 L6.297125,8.20253973 L6.5316875,7.95073789 L7.63746875,8.72293657 L7.051,9.32212724 Z M8.00296875,8.39808762 L6.73375,7.51175283 L6.73375,7.06478621 C7.06215625,7.24615888 7.429875,7.35959262 7.82096875,7.38545283 C7.88275,7.38953938 7.94415625,7.39155073 8.005375,7.39155073 C8.45353125,7.39155073 8.88484375,7.28210777 9.2721875,7.07436407 L9.2721875,7.51175283 L8.00296875,8.39808762 Z M8.97990625,9.319637 C8.978625,9.32161642 8.975625,9.32618187 8.968,9.3269481 C8.96034375,9.32793781 8.95659375,9.32381933 8.9549375,9.32219109 L8.36846875,8.72303235 L9.47425,7.95080175 L9.70884375,8.20260358 L8.97990625,9.319637 Z M13.259625,9.11760809 L12.72775,8.57425632 C12.7370312,8.53118789 12.7422812,8.48403292 12.74225,8.43202516 L12.7422187,8.33097878 C12.8898125,8.38046437 13.045375,8.40983646 13.2063437,8.41475309 C13.2244062,8.41532776 13.2423125,8.41558317 13.2603125,8.41558317 C13.4381875,8.41558317 13.6118125,8.38812665 13.7770625,8.33573578 L13.7770625,8.43215286 C13.7770625,8.47991444 13.7829375,8.52671823 13.794,8.57170222 L13.259625,9.11760809 Z M14.1434687,7.57065664 C13.8950625,7.81693525 13.5669062,7.94700253 13.2204375,7.93608377 C12.5421875,7.91529983 11.9904062,7.30496692 11.9904062,6.57561318 L11.9904062,6.12797612 C11.9904062,6.09078211 11.9819375,6.05413085 11.9656562,6.02089569 L11.820875,5.72506764 C11.7678437,5.61667824 11.7398125,5.49535873 11.7398125,5.37416693 L11.7398125,5.35989592 C11.7398125,4.78605464 12.1967812,4.31922994 12.7584375,4.31922994 L14.7794687,4.31922994 L14.7794687,5.31373065 C14.7794687,5.47444708 14.7422812,5.63538699 14.6719375,5.7791506 L14.553625,6.02089569 C14.5373437,6.05416278 14.528875,6.09078211 14.528875,6.12797612 L14.528875,6.6400083 C14.528875,6.99375045 14.392,7.32425033 14.1434687,7.57065664 Z" id="Shape"></path>
                        <path d="M15,10 C14.8705625,10 14.765625,10.1064089 14.765625,10.2376614 L14.765625,11.7623386 C14.765625,11.8935911 14.8705625,12 15,12 C15.1294375,12 15.234375,11.8935911 15.234375,11.7623386 L15.234375,10.2376614 C15.234375,10.1064406 15.1294375,10 15,10 Z" id="Path"></path>
                        <path d="M1,10 C0.8705625,10 0.765625,10.1262382 0.765625,10.2819496 L0.765625,11.7180504 C0.765625,11.8737618 0.8705625,12 1,12 C1.1294375,12 1.234375,11.8737618 1.234375,11.7180504 L1.234375,10.2819496 C1.234375,10.1262758 1.1294375,10 1,10 Z" id="Path"></path>
                        <path d="M9.93095713,2.51682833 C9.03942641,1.85859917 7.17411383,1.98443914 6.41345578,2.06909049 C6.17386829,2.09575288 6,2.24544745 6,2.42502989 L6,2.82596352 C6,2.92207807 6.10554044,3 6.23572165,3 C6.36590286,3 6.4714433,2.92207807 6.4714433,2.82596352 L6.4714433,2.42500668 C6.4714433,2.41908944 6.47672347,2.41403078 6.48376369,2.41324182 C6.78759318,2.37943233 7.39050631,2.3272678 8.01516869,2.35801424 C8.75024309,2.39414422 9.28265973,2.53037997 9.59761528,2.76293911 C9.68967245,2.83090616 9.8389314,2.83090616 9.93095713,2.76293911 C10.0230143,2.69497207 10.0230143,2.58477217 9.93095713,2.51682833 Z" id="Path"></path>
                        <path d="M5,10 C4.8705625,10 4.765625,10.1426599 4.765625,10.3186269 L4.765625,11.6813731 C4.765625,11.8573401 4.8705625,12 5,12 C5.1294375,12 5.234375,11.8573401 5.234375,11.6813731 L5.234375,10.3186269 C5.234375,10.1427024 5.1294375,10 5,10 Z" id="Path"></path>
                        <path d="M11,10 C10.8705625,10 10.765625,10.1426599 10.765625,10.3186269 L10.765625,11.6813731 C10.765625,11.8573401 10.8705625,12 11,12 C11.1294375,12 11.234375,11.8573401 11.234375,11.6813731 L11.234375,10.3186269 C11.234375,10.1427024 11.1294375,10 11,10 Z" id="Path"></path>
                    </g>
                </g>
            </g>
        </g>
    </g>
</svg>