<svg xmlns="http://www.w3.org/2000/svg" width="25.069" height="21.888" viewBox="0 0 25.069 21.888">
  <g id="Group_394" data-name="Group 394" transform="translate(0)">
    <path id="Path_219" data-name="Path 219" d="M253.3,263.75H249.89a1.692,1.692,0,0,0-1.69,1.69v2.612a1.692,1.692,0,0,0,1.69,1.69H253.3a1.692,1.692,0,0,0,1.69-1.69V265.44A1.692,1.692,0,0,0,253.3,263.75Zm.461,4.3a.462.462,0,0,1-.461.461H249.89a.462.462,0,0,1-.461-.461V265.44a.462.462,0,0,1,.461-.461H253.3a.462.462,0,0,1,.461.461Z" transform="translate(-235.486 -251.83)" fill="#666666"/>
    <path id="Path_220" data-name="Path 220" d="M25.069,38.221a.571.571,0,0,0-.082-.3l-3.729-6.557a.618.618,0,0,0-.533-.312H4.339a.607.607,0,0,0-.533.312L.082,37.919a.621.621,0,0,0-.082.3A3.6,3.6,0,0,0,2.151,41.51V52.324a.617.617,0,0,0,.615.615H22.3a.617.617,0,0,0,.615-.615V41.587a.271.271,0,0,0-.005-.067A3.606,3.606,0,0,0,25.069,38.221ZM4.7,32.285h15.67l2.915,5.128H1.788Zm13.144,6.352a2.362,2.362,0,0,1-4.651,0Zm-5.957,0a2.366,2.366,0,0,1-4.656,0Zm-10.614,0H5.927a2.366,2.366,0,0,1-4.656,0Zm9.056,13.072H6.792V45.075a.876.876,0,0,1,.876-.876H9.456a.876.876,0,0,1,.876.876v6.634Zm11.356,0H11.556V45.075A2.109,2.109,0,0,0,9.451,42.97H7.663a2.109,2.109,0,0,0-2.105,2.105v6.639H3.381v-9.9c.072.005.143.005.215.005a3.591,3.591,0,0,0,2.981-1.588,3.593,3.593,0,0,0,5.963,0,3.583,3.583,0,0,0,5.952,0,3.591,3.591,0,0,0,2.981,1.588c.072,0,.138-.005.21-.005v9.9Zm-.21-11.121a2.361,2.361,0,0,1-2.326-1.947H23.8A2.376,2.376,0,0,1,21.473,40.588Z" transform="translate(0 -31.05)" fill="#666666"/>
  </g>
</svg>
