<?xml version="1.0" encoding="UTF-8"?>
<svg width="20px" height="20px" viewBox="0 0 20 20" version="1.1" xmlns="http://www.w3.org/2000/svg" xmlns:xlink="http://www.w3.org/1999/xlink">
    <!-- Generator: Sketch 53.2 (72643) - https://sketchapp.com -->
    <title>tracker</title>
    <desc>Created with Sketch.</desc>
    <g id="Symbols" stroke="none" stroke-width="1" fill="none" fill-rule="evenodd">
        <g id="Header" transform="translate(-990.000000, -80.000000)" fill="#FE6C0B" fill-rule="nonzero">
            <g id="Nav">
                <g transform="translate(23.000000, 80.000000)">
                    <path d="M986.705484,6.92193548 C986.951613,7.22032258 987.049677,7.61225806 986.975161,7.99645161 C986.85871,8.59645161 986.310323,9.03225806 985.671613,9.03225806 L983.844194,9.03225806 C983.359032,9.03225806 982.888387,8.89451613 982.483871,8.64225806 L982.483871,10.1170968 C982.587742,10.2345161 982.669677,10.3696774 982.723871,10.513871 L984.66,15.6758065 C984.90871,16.3416129 984.570645,17.0867742 983.905806,17.3367742 C983.757097,17.3919355 983.604839,17.4193548 983.450968,17.4193548 C983.414194,17.4193548 983.377419,17.4177419 983.339677,17.4145161 C982.847419,17.3725806 982.409677,17.0267742 982.224839,16.533871 L980.953871,13.1445161 L980.879032,14.0096774 C980.806774,14.8503226 980.115806,15.483871 979.272581,15.483871 L977.276452,15.483871 C976.956452,18.0387097 974.769032,20 972.16129,20 C969.315484,20 967,17.6845161 967,14.8387097 C967,12.8967742 968.079032,11.2035484 969.668065,10.3225806 L967.967742,10.3225806 C967.434194,10.3225806 967,9.8883871 967,9.35483871 C967,8.82129032 967.434194,8.38709677 967.967742,8.38709677 L975.387097,8.38709677 L975.387097,8.27709677 C975.387097,7.58741935 975.655484,6.93935484 976.143226,6.4516129 L976.700645,5.89419355 C977.339355,5.25548387 978.130645,4.82677419 978.991613,4.63419355 C978.370968,4.16225806 977.967742,3.41870968 977.967742,2.58064516 C977.967742,1.15774194 979.125484,0 980.548387,0 C981.97129,0 983.129032,1.15774194 983.129032,2.58064516 C983.129032,3.56387097 982.576129,4.41967742 981.765161,4.85548387 C982.469677,5.13580645 983.106452,5.57967742 983.610645,6.17193548 L983.844194,6.4516129 L985.709677,6.4516129 C986.095806,6.4516129 986.45871,6.62290323 986.705484,6.92193548 Z M978.612903,2.58064516 C978.612903,3.64806452 979.480968,4.51612903 980.548387,4.51612903 C981.615806,4.51612903 982.483871,3.64806452 982.483871,2.58064516 C982.483871,1.51322581 981.615806,0.64516129 980.548387,0.64516129 C979.480968,0.64516129 978.612903,1.51322581 978.612903,2.58064516 Z M967.967742,9.67741935 L972.16129,9.67741935 C974.267419,9.67741935 976.158387,10.9658065 976.942903,12.9032258 L978.406452,12.9032258 L978.614194,10.2577419 C978.614194,10.2525806 978.612903,10.2474194 978.612903,10.2422581 L978.612903,7.55290323 L977.967742,8.19806452 L977.967742,9.67741935 C977.967742,10.063871 977.796452,10.4267742 977.497419,10.6732258 C977.199032,10.9190323 976.806774,11.0170968 976.423226,10.9429032 C975.822903,10.8264516 975.387097,10.2777419 975.387097,9.63903226 L975.387097,9.03225806 L967.967742,9.03225806 C967.789677,9.03225806 967.645161,9.17709677 967.645161,9.35483871 C967.645161,9.53258065 967.789677,9.67741935 967.967742,9.67741935 Z M976.032258,9.03225806 L976.032258,9.63903226 C976.032258,9.96451613 976.253226,10.2529032 976.546129,10.31 C976.743226,10.3474194 976.935161,10.3003226 977.087097,10.1754839 C977.236452,10.0519355 977.322581,9.87064516 977.322581,9.67741935 L977.322581,9.03225806 L976.032258,9.03225806 Z M972.16129,19.3548387 C974.415806,19.3548387 976.312581,17.68 976.627742,15.483871 L976.032258,15.483871 C976.014194,15.483871 975.996774,15.4787097 975.97871,15.4780645 C975.67129,17.316129 974.059032,18.7096774 972.16129,18.7096774 C970.026774,18.7096774 968.290323,16.9732258 968.290323,14.8387097 C968.290323,12.7041935 970.026774,10.9677419 972.16129,10.9677419 C973.595806,10.9677419 974.896129,11.7558065 975.567419,13.0012903 C975.723548,12.9396774 975.892581,12.9032258 976.070323,12.9032258 L976.24,12.9032258 C975.49871,11.3432258 973.915161,10.3225806 972.16129,10.3225806 C969.670968,10.3225806 967.645161,12.3483871 967.645161,14.8387097 C967.645161,17.3290323 969.670968,19.3548387 972.16129,19.3548387 Z M975.036452,15.0135484 C974.790323,14.7151613 974.692258,14.3232258 974.766774,13.9390323 C974.807419,13.7306452 974.902581,13.543871 975.032903,13.3864516 C974.485806,12.3054839 973.385161,11.6129032 972.16129,11.6129032 C970.382581,11.6129032 968.935484,13.06 968.935484,14.8387097 C968.935484,16.6174194 970.382581,18.0645161 972.16129,18.0645161 C973.773226,18.0645161 975.135806,16.8574194 975.353548,15.2819355 C975.236452,15.2087097 975.126774,15.1232258 975.036452,15.0135484 Z M980.236774,13.9541935 L980.384194,12.2448387 C980.243548,12.2332258 980.104194,12.2119355 979.96871,12.1687097 C979.65129,12.0674194 979.374194,11.8787097 979.152903,11.6358065 L979.049677,12.9535484 C979.023226,13.2870968 978.740968,13.5483871 978.406452,13.5483871 L976.070323,13.5483871 C975.744839,13.5483871 975.457097,13.7693548 975.4,14.0622581 C975.361935,14.2596774 975.409355,14.4516129 975.534516,14.6032258 C975.657742,14.7529032 975.839032,14.8387097 976.032258,14.8387097 L979.272903,14.8387097 C979.77871,14.8387097 980.192903,14.4583871 980.236774,13.9541935 Z M986.341935,7.87354839 C986.38,7.67612903 986.332581,7.48387097 986.207419,7.33225806 C986.084194,7.18258065 985.902903,7.09677419 985.709677,7.09677419 L983.844194,7.09677419 C983.629677,7.09677419 983.432581,6.99258065 983.312581,6.81677419 L983.119355,6.59 C982.346452,5.68193548 981.219677,5.16129032 980.027419,5.16129032 C978.942903,5.16129032 977.923548,5.58354839 977.157097,6.35032258 L976.599355,6.90806452 C976.233548,7.27387097 976.032258,7.76 976.032258,8.27709677 L976.032258,8.38709677 L977.322581,8.38709677 L977.322581,8.19806452 C977.322581,8.02580645 977.389677,7.86387097 977.511613,7.74193548 L978.479355,6.77419355 L979.258065,6.77419355 L979.258065,10.2419355 C979.258065,10.2451613 979.25871,10.2480645 979.25871,10.2509677 L979.261935,10.2512903 L979.260323,10.2709677 C979.272258,10.8612903 979.64,11.3864516 980.165161,11.553871 C980.362903,11.6167742 980.563226,11.6283871 980.778065,11.59 L981.042581,11.5425806 L982.829355,16.3074194 C982.927419,16.5683871 983.149032,16.7506452 983.394839,16.7716129 C983.492258,16.7806452 983.585806,16.7670968 983.680323,16.7322581 C984.010968,16.6077419 984.180323,16.2351613 984.055806,15.9019355 L982.12,10.7406452 C982.084516,10.6458065 982.025806,10.5612903 981.946129,10.4896774 L981.83871,10.3935484 L981.83871,6.77419355 L982.483871,6.77419355 L982.483871,7.82419355 C982.844194,8.18322581 983.333548,8.38709677 983.844194,8.38709677 L985.671613,8.38709677 C985.997097,8.38709677 986.284839,8.16612903 986.341935,7.87354839 Z M971.193548,5.25870968 L969.446774,3.80290323 C969.121935,3.53193548 968.935484,3.13419355 968.935484,2.71129032 C968.935484,1.92774194 969.573226,1.29032258 970.356452,1.29032258 L970.416129,1.29032258 C970.695806,1.29032258 970.962903,1.37064516 971.191935,1.52032258 C971.413871,1.37354839 971.686129,1.29032258 971.970968,1.29032258 L972.030645,1.29032258 C972.813871,1.29032258 973.451613,1.92774194 973.451613,2.71129032 C973.451613,3.13419355 973.265161,3.53225806 972.940323,3.80290323 L971.193548,5.25870968 Z M970.356452,1.93548387 C969.92871,1.93548387 969.580645,2.28354839 969.580645,2.71129032 C969.580645,2.94225806 969.682258,3.15935484 969.86,3.30741935 L971.193548,4.41870968 L972.527097,3.30741935 C972.704839,3.15935484 972.806452,2.94225806 972.806452,2.71129032 C972.806452,2.28354839 972.458387,1.93548387 972.030645,1.93548387 L971.970968,1.93548387 C971.766774,1.93548387 971.567097,2.0183871 971.422903,2.16290323 L971.214516,2.37129032 L970.986129,2.18258065 C970.82,2.0183871 970.620323,1.93548387 970.416129,1.93548387 L970.356452,1.93548387 Z M967.967742,6.4516129 C967.434194,6.4516129 967,6.01741935 967,5.48387097 L967,0.967741935 C967,0.434193548 967.434194,-2.22044605e-15 967.967742,-2.22044605e-15 L974.419355,-2.22044605e-15 C974.952903,-2.22044605e-15 975.387097,0.434193548 975.387097,0.967741935 L975.387097,5.48387097 C975.387097,6.01741935 974.952903,6.4516129 974.419355,6.4516129 L973.451613,6.4516129 L973.451613,6.77419355 C973.451613,7.31548387 973.01129,7.75580645 972.47,7.75580645 C972.19129,7.75580645 971.928387,7.63870968 971.742581,7.43354839 L970.440323,6.4516129 L967.967742,6.4516129 Z M967.645161,0.967741935 L967.645161,5.48387097 C967.645161,5.6616129 967.789677,5.80645161 967.967742,5.80645161 L970.656452,5.80645161 L972.211613,6.98967742 C972.275484,7.06645161 972.369677,7.11064516 972.47,7.11064516 C972.655484,7.11064516 972.806452,6.95967742 972.806452,6.77419355 L972.806452,5.80645161 L974.419355,5.80645161 C974.597419,5.80645161 974.741935,5.6616129 974.741935,5.48387097 L974.741935,0.967741935 C974.741935,0.79 974.597419,0.64516129 974.419355,0.64516129 L967.967742,0.64516129 C967.789677,0.64516129 967.645161,0.79 967.645161,0.967741935 Z M972.493548,15.236129 L972.910645,14.1935484 L974.419355,14.1935484 L974.419355,14.8387097 L973.347419,14.8387097 L972.474194,17.0219355 L971.420968,14.2132258 L970.709677,15.1612903 L969.580645,15.1612903 L969.580645,14.516129 L970.387097,14.516129 L971.61129,12.8835484 L972.493548,15.236129 Z" id="tracker"></path>
                </g>
            </g>
        </g>
    </g>
</svg>