<?xml version="1.0" encoding="UTF-8"?>
<svg width="216px" height="76px" viewBox="0 0 216 76" version="1.1" xmlns="http://www.w3.org/2000/svg" xmlns:xlink="http://www.w3.org/1999/xlink">
    <!-- Generator: Sketch 53.2 (72643) - https://sketchapp.com -->
    <title>Group 10</title>
    <desc>Created with Sketch.</desc>
    <defs>
        <linearGradient x1="9.1%" y1="-85.6967228%" x2="136.8%" y2="89.0757717%" id="linearGradient-1">
            <stop stop-color="#00669B" offset="0%"></stop>
            <stop stop-color="#4929BB" offset="100%"></stop>
        </linearGradient>
    </defs>
    <g id="Page-1" stroke="none" stroke-width="1" fill="none" fill-rule="evenodd">
        <g id="1-Promotion-mock-up" transform="translate(-1003.000000, -1638.000000)">
            <g id="Group-8-Copy-2" transform="translate(943.000000, 1526.000000)">
                <g id="Group-10" transform="translate(60.000000, 112.000000)">
                    <path d="M137,72 L46,72 C42.1340068,72 39,68.8659932 39,65 C39,61.1340068 42.1340068,58 46,58 L7,58 C3.13400675,58 4.73447626e-16,54.8659932 0,51 C-4.73447626e-16,47.1340068 3.13400675,44 7,44 L47,44 C50.8659932,44 54,40.8659932 54,37 C54,33.1340068 50.8659932,30 47,30 L22,30 C18.1340068,30 15,26.8659932 15,23 C15,19.1340068 18.1340068,16 22,16 L62,16 C58.1340068,16 55,12.8659932 55,9 C55,5.13400675 58.1340068,2 62,2 L119,2 C122.865993,2 126,5.13400675 126,9 C126,12.8659932 122.865993,16 119,16 L183,16 C186.865993,16 190,19.1340068 190,23 C190,26.8659932 186.865993,30 183,30 L205,30 C208.865993,30 212,33.1340068 212,37 C212,40.8659932 208.865993,44 205,44 L186,44 C182.134007,44 179,47.1340068 179,51 C179,54.8659932 182.134007,58 186,58 L192,58 C195.865993,58 199,61.1340068 199,65 C199,68.8659932 195.865993,72 192,72 L140,72 C139.485125,72 138.983234,71.944412 138.5,71.8389102 C138.016766,71.944412 137.514875,72 137,72 Z M209,72 C205.134007,72 202,68.8659932 202,65 C202,61.1340068 205.134007,58 209,58 C212.865993,58 216,61.1340068 216,65 C216,68.8659932 212.865993,72 209,72 Z" id="Combined-Shape" fill-opacity="0.06" fill="#6236FF"></path>
                    <path d="M80.238806,7.94029851 L96.6865672,7.94029851 L96.6865672,10.2089552 L80.238806,10.2089552 L80.238806,7.94029851 Z M80.238806,13.0447761 L96.6865672,13.0447761 L96.6865672,15.3134328 L80.238806,15.3134328 L80.238806,13.0447761 Z M80.238806,18.1492537 L91.5820896,18.1492537 L91.5820896,20.4179104 L80.238806,20.4179104 L80.238806,18.1492537 Z M80.238806,22.6865672 L91.5820896,22.6865672 L91.5820896,24.9552239 L80.238806,24.9552239 L80.238806,22.6865672 Z M74,73.7313433 L150,73.7313433 L150,76 L74,76 L74,73.7313433 Z M147.597286,10.8885438 C147.910534,11.5178561 147.656129,12.282578 147.028838,12.5968364 C146.401707,12.9110948 145.639283,12.6557101 145.326035,12.0265569 L141.593062,4.53527368 L139.54513,10.4060975 C130.400173,36.5496895 106.834834,54.8923543 79.320183,57.2835821 L79.1044776,54.7376914 C105.620064,52.4330239 128.330828,34.7588145 137.148262,9.56595361 L139.154323,3.8198784 L131.802575,7.50505512 C131.175443,7.8193135 130.41302,7.56392884 130.099771,6.93477562 C129.786523,6.30562239 130.041087,5.54074137 130.668218,5.22648299 L140.819061,0.134701686 C140.819378,0.134542568 140.819695,0.13438345 140.820012,0.134224332 C141.447144,-0.179715809 142.208933,0.0758279648 142.521865,0.704981192 L147.597286,10.8885438 Z M89.1873964,60.6865672 C89.8834328,60.6865672 90.4477612,61.2579496 90.4477612,61.9626866 L90.4477612,69.619403 C90.4477612,70.3241399 89.8834328,70.8955224 89.1873964,70.8955224 L80.3648425,70.8955224 C79.668806,70.8955224 79.1044776,70.3241399 79.1044776,69.619403 L79.1044776,61.9626866 C79.1044776,61.2579496 79.668806,60.6865672 80.3648425,60.6865672 L89.1873964,60.6865672 Z M87.9270315,68.3432836 L87.9270315,63.238806 L81.6252073,63.238806 L81.6252073,68.3432836 L87.9270315,68.3432836 Z M103.366501,56.7164179 C104.062537,56.7164179 104.626866,57.2935719 104.626866,58.0054274 L104.626866,69.6065129 C104.626866,70.3183684 104.062537,70.8955224 103.366501,70.8955224 L94.5439469,70.8955224 C93.8479104,70.8955224 93.2835821,70.3183684 93.2835821,69.6065129 L93.2835821,58.0054274 C93.2835821,57.2935719 93.8479104,56.7164179 94.5439469,56.7164179 L103.366501,56.7164179 Z M102.106136,68.3175034 L102.106136,59.2944369 L95.8043118,59.2944369 L95.8043118,68.3175034 L102.106136,68.3175034 Z M116.978441,50.4776119 C117.674478,50.4776119 118.238806,51.0489944 118.238806,51.7537313 L118.238806,69.619403 C118.238806,70.3241399 117.674478,70.8955224 116.978441,70.8955224 L108.155887,70.8955224 C107.459851,70.8955224 106.895522,70.3241399 106.895522,69.619403 L106.895522,51.7537313 C106.895522,51.0489944 107.459851,50.4776119 108.155887,50.4776119 L116.978441,50.4776119 Z M115.718076,68.3432836 L115.718076,53.0298507 L109.416252,53.0298507 L109.416252,68.3432836 L115.718076,68.3432836 Z M131.157546,41.9701493 C131.853582,41.9701493 132.41791,42.5332508 132.41791,43.2277742 L132.41791,69.6378975 C132.41791,70.3324208 131.853582,70.8955224 131.157546,70.8955224 L122.334992,70.8955224 C121.638955,70.8955224 121.074627,70.3324208 121.074627,69.6378975 L121.074627,43.2277742 C121.074627,42.5332508 121.638955,41.9701493 122.334992,41.9701493 L131.157546,41.9701493 Z M129.897181,68.3802726 L129.897181,44.4853991 L123.595357,44.4853991 L123.595357,68.3802726 L129.897181,68.3802726 Z M144.769486,23.8208955 C145.465522,23.8208955 146.029851,24.3905621 146.029851,25.0931827 L146.029851,69.6232352 C146.029851,70.3258558 145.465522,70.8955224 144.769486,70.8955224 L135.946932,70.8955224 C135.250896,70.8955224 134.686567,70.3258558 134.686567,69.6232352 L134.686567,25.0931827 C134.686567,24.3905621 135.250896,23.8208955 135.946932,23.8208955 L144.769486,23.8208955 Z M143.509121,68.350948 L143.509121,26.3654699 L137.207297,26.3654699 L137.207297,68.350948 L143.509121,68.350948 Z" id="Combined-Shape" fill="url(#linearGradient-1)" fill-rule="nonzero"></path>
                </g>
            </g>
        </g>
    </g>
</svg>