<svg xmlns="http://www.w3.org/2000/svg" width="17.104" height="17.104" viewBox="0 0 17.104 17.104">
  <path id="grid" d="M3.742,6.414H.535A.534.534,0,0,0,0,6.949v3.207a.534.534,0,0,0,.535.535H3.742a.534.534,0,0,0,.535-.535V6.949A.534.534,0,0,0,3.742,6.414ZM3.207,9.087a.534.534,0,0,1-.535.535H1.6a.534.534,0,0,1-.535-.535V8.018A.534.534,0,0,1,1.6,7.483H2.673a.534.534,0,0,1,.535.535ZM3.742,0H.535A.534.534,0,0,0,0,.535V3.742a.534.534,0,0,0,.535.535H3.742c.3,0,.535-.773.535-1.069V.535A.534.534,0,0,0,3.742,0ZM3.207,2.673a.534.534,0,0,1-.535.535H1.6a.534.534,0,0,1-.535-.535V1.6A.534.534,0,0,1,1.6,1.069H2.673a.534.534,0,0,1,.535.535Zm.535,10.156H.535A.534.534,0,0,0,0,13.363V16.57a.534.534,0,0,0,.535.535H3.742a.534.534,0,0,0,.535-.535V13.363A.534.534,0,0,0,3.742,12.828ZM3.207,15.5a.534.534,0,0,1-.535.535H1.6a.534.534,0,0,1-.535-.535V14.432A.534.534,0,0,1,1.6,13.9H2.673a.534.534,0,0,1,.535.535Zm6.949-9.087H6.949a.534.534,0,0,0-.535.535v3.207a.534.534,0,0,0,.535.535h3.207a.534.534,0,0,0,.535-.535V6.949A.534.534,0,0,0,10.156,6.414ZM9.621,9.087a.534.534,0,0,1-.535.535H8.018a.534.534,0,0,1-.535-.535V8.018a.534.534,0,0,1,.535-.535H9.087a.534.534,0,0,1,.535.535Zm.535,3.742H6.949a.534.534,0,0,0-.535.535V16.57a.534.534,0,0,0,.535.535h3.207a.534.534,0,0,0,.535-.535V13.363A.534.534,0,0,0,10.156,12.828ZM9.621,15.5a.534.534,0,0,1-.535.535H8.018a.534.534,0,0,1-.535-.535V14.432a.534.534,0,0,1,.535-.535H9.087a.534.534,0,0,1,.535.535ZM16.57,6.414H13.363a.534.534,0,0,0-.535.535v3.207a.534.534,0,0,0,.535.535H16.57a.534.534,0,0,0,.535-.535V6.949A.534.534,0,0,0,16.57,6.414Zm-.535,2.673a.534.534,0,0,1-.535.535H14.432a.534.534,0,0,1-.535-.535V8.018a.534.534,0,0,1,.535-.535H15.5a.534.534,0,0,1,.535.535ZM16.57,0H13.363a.534.534,0,0,0-.535.535V3.742a.534.534,0,0,0,.535.535H16.57c.3,0,.535-.773.535-1.069V.535A.534.534,0,0,0,16.57,0Zm-.535,2.673a.534.534,0,0,1-.535.535H14.432a.534.534,0,0,1-.535-.535V1.6a.534.534,0,0,1,.535-.535H15.5a.534.534,0,0,1,.535.535ZM10.156,0H6.949a.534.534,0,0,0-.535.535V3.742a.534.534,0,0,0,.535.535h3.207c.3,0,.535-.773.535-1.069V.535A.534.534,0,0,0,10.156,0ZM9.621,2.673a.534.534,0,0,1-.535.535H8.018a.534.534,0,0,1-.535-.535V1.6a.534.534,0,0,1,.535-.535H9.087a.534.534,0,0,1,.535.535ZM16.57,12.828H13.363a.534.534,0,0,0-.535.535V16.57a.534.534,0,0,0,.535.535H16.57a.534.534,0,0,0,.535-.535V13.363A.534.534,0,0,0,16.57,12.828ZM16.035,15.5a.534.534,0,0,1-.535.535H14.432A.534.534,0,0,1,13.9,15.5V14.432a.534.534,0,0,1,.535-.535H15.5a.534.534,0,0,1,.535.535Z" fill="#FE6C0B"/>
</svg>
