<svg xmlns="http://www.w3.org/2000/svg" viewBox="0 0 64 64"><path  d="M 18 2 A 2.006 2.006 0 0 0 16 4 L 16 20 A 2.006 2.006 0 0 0 18 22 L 46 22 A 2.006 2.006 0 0 0 48 20 L 48 4 A 2.006 2.006 0 0 0 46 2 L 18 2 z M 18 4 L 20.859375 4 A 4.017 4.017 0 0 1 18 6.859375 L 18 4 z M 22.910156 4 L 41.089844 4 A 5.992 5.992 0 0 0 46 8.9101562 L 46 11.089844 A 5.992 5.992 0 0 0 41.089844 16 L 22.910156 16 A 5.992 5.992 0 0 0 18 11.089844 L 18 8.9101562 A 5.992 5.992 0 0 0 22.910156 4 z M 43.140625 4 L 46 4 L 46 6.859375 A 4.017 4.017 0 0 1 43.140625 4 z M 7.984375 6 A 1 1 0 0 0 7.2929688 6.2929688 L 4.2929688 9.2929688 L 5.7070312 10.707031 L 7 9.4140625 L 7 17 L 9 17 L 9 9.4140625 L 10.292969 10.707031 L 11.707031 9.2929688 L 8.7070312 6.2929688 A 1 1 0 0 0 7.984375 6 z M 32 6 A 4 4 0 1 0 36 10 A 4 4 0 0 0 32 6 z M 55.984375 6 A 1 1 0 0 0 55.292969 6.2929688 L 52.292969 9.2929688 L 53.707031 10.707031 L 55 9.4140625 L 55 17 L 57 17 L 57 9.4140625 L 58.292969 10.707031 L 59.707031 9.2929688 L 56.707031 6.2929688 A 1 1 0 0 0 55.984375 6 z M 31.916016 8.0019531 A 2 2 0 0 1 34 10 A 2 2 0 0 1 32 12 A 2 2 0 0 1 31.916016 8.0019531 z M 18 13.140625 A 4.017 4.017 0 0 1 20.859375 16 L 18 16 L 18 13.140625 z M 46 13.140625 L 46 16 L 43.140625 16 A 4.017 4.017 0 0 1 46 13.140625 z M 18 18 L 28 18 L 28 20 L 18 20 L 18 18 z M 30 18 L 34 18 L 34 20 L 30 20 L 30 18 z M 36 18 L 46 18 L 46 20 L 36 20 L 36 18 z M 7 19 L 7 21 L 9 21 L 9 19 L 7 19 z M 55 19 L 55 21 L 57 21 L 57 19 L 55 19 z M 13 24 A 5.006 5.006 0 0 0 8 29 L 8 41.080078 A 7.006 7.006 0 0 0 2 48 L 2 61 A 1 1 0 0 0 3 62 L 18 62 A 1 1 0 0 0 19 61 L 19 59.789062 A 5.034 5.034 0 0 1 19.169922 58.496094 L 19.300781 58 L 25 58 A 5.006 5.006 0 0 0 30 53 L 30 29 A 5.006 5.006 0 0 0 25 24 L 13 24 z M 39 24 A 5.006 5.006 0 0 0 34 29 L 34 53 A 5.006 5.006 0 0 0 39 58 L 44.699219 58 L 44.832031 58.5 A 5.034 5.034 0 0 1 45 59.789062 L 45 61 A 1 1 0 0 0 46 62 L 61 62 A 1 1 0 0 0 62 61 L 62 48 A 7.006 7.006 0 0 0 56 41.080078 L 56 29 A 5.006 5.006 0 0 0 51 24 L 39 24 z M 13 26 L 25 26 A 3 3 0 0 1 28 29 L 28 53 A 3 3 0 0 1 25 56 L 19.839844 56 L 21.039062 51.53125 A 3.0020286 3.0020286 0 1 0 15.238281 49.978516 L 14.085938 54.279297 A 0.986 0.986 0 0 1 13.132812 55.011719 L 13.119141 55.011719 A 0.994 0.994 0 0 1 12.285156 54.53125 L 10 50.722656 L 10 29 A 3 3 0 0 1 13 26 z M 39 26 L 51 26 A 3 3 0 0 1 54 29 L 54 50.722656 L 51.712891 54.533203 A 0.994 0.994 0 0 1 50.878906 55.013672 L 50.865234 55.013672 A 0.986 0.986 0 0 1 49.912109 54.28125 L 48.759766 49.982422 A 3.0020286 3.0020286 0 0 0 42.958984 51.533203 L 44.160156 56 L 39 56 A 3 3 0 0 1 36 53 L 36 29 A 3 3 0 0 1 39 26 z M 12 28 L 12 30 L 14 30 L 14 28 L 12 28 z M 16 28 L 16 30 L 22 30 L 22 28 L 16 28 z M 38 28 L 38 30 L 40 30 L 40 28 L 38 28 z M 42 28 L 42 30 L 48 30 L 48 28 L 42 28 z M 18 33 L 18 34 A 3 3 0 0 0 18 40 L 20 40 A 1 1 0 0 1 20 42 L 18 42 A 1 1 0 0 1 17 41 L 15 41 A 3 3 0 0 0 18 44 L 18 45 L 20 45 L 20 44 A 3 3 0 0 0 20 38 L 18 38 A 1 1 0 0 1 18 36 L 20 36 A 1 1 0 0 1 21 37 L 23 37 A 3 3 0 0 0 20 34 L 20 33 L 18 33 z M 44 33 L 44 34 A 3 3 0 0 0 44 40 L 46 40 A 1 1 0 0 1 46 42 L 44 42 A 1 1 0 0 1 43 41 L 41 41 A 3 3 0 0 0 44 44 L 44 45 L 46 45 L 46 44 A 3 3 0 0 0 46 38 L 44 38 A 1 1 0 0 1 44 36 L 46 36 A 1 1 0 0 1 47 37 L 49 37 A 3 3 0 0 0 46 34 L 46 33 L 44 33 z M 8 43.099609 L 8 51 A 1 1 0 0 0 8.1425781 51.515625 L 10.572266 55.5625 A 2.972 2.972 0 0 0 13.099609 57.013672 L 13.138672 57.013672 A 2.986 2.986 0 0 0 16.019531 54.800781 L 17.173828 50.5 A 1 1 0 1 1 19.103516 51.017578 L 17.238281 57.978516 A 6.985 6.985 0 0 0 17 59.789062 L 17 60 L 4 60 L 4 48 A 5.008 5.008 0 0 1 8 43.099609 z M 56 43.099609 A 5.008 5.008 0 0 1 60 48 L 60 60 L 47 60 L 47 59.789062 A 6.985 6.985 0 0 0 46.761719 57.978516 L 44.900391 51.013672 A 1 1 0 1 1 46.830078 50.496094 L 47.984375 54.796875 A 3.05 3.05 0 0 0 50.900391 57.013672 A 2.972 2.972 0 0 0 53.425781 55.5625 L 55.853516 51.515625 A 1 1 0 0 0 56 51 L 56 43.099609 z" fill="#6D7278"></path></svg>