<svg width="160" height="160" viewBox="0 0 160 160" fill="none" xmlns="http://www.w3.org/2000/svg">
<g clip-path="url(#clip0_0_5941)">
<rect width="160" height="160" rx="3" fill="white"/>
<rect width="160" height="160" rx="3" stroke="#E6E6E6"/>
<path d="M62.9554 99.0682L45.7597 108.461C44.7507 109.012 43.8438 109.69 43 110.428C53.0256 118.893 65.9675 124 80.1077 124C94.1434 124 107.003 118.969 117 110.619C116.078 109.84 115.078 109.139 113.968 108.585L95.5549 99.3666C93.1757 98.1753 91.6729 95.7405 91.6729 93.077V85.8423C92.1905 85.2521 92.7821 84.4942 93.4149 83.5991C95.9246 80.0493 97.8231 76.1444 99.1388 72.048C101.501 71.3184 103.24 69.134 103.24 66.5381V58.8155C103.24 57.1168 102.486 55.5988 101.314 54.5361V43.3725C101.314 43.3725 103.604 26 80.1098 26C56.6161 26 58.9061 43.3725 58.9061 43.3725V54.5361C57.7317 55.5988 56.9793 57.1168 56.9793 58.8155V66.5381C56.9793 68.5721 58.0471 70.3623 59.6455 71.3968C61.5723 79.7967 66.6177 85.8423 66.6177 85.8423V92.8985C66.6155 95.4683 65.2107 97.8356 62.9554 99.0682Z" fill="#ECF0F1"/>
<path d="M81.4851 9.00859C49.733 8.46433 23.551 33.8484 23.0086 65.7048C22.7004 83.7676 30.7247 100.002 43.5011 110.798C44.3365 110.066 45.2326 109.396 46.2286 108.851L63.386 99.4618C65.6362 98.2296 67.0379 95.8632 67.0379 93.2899V86.2364C67.0379 86.2364 62.0016 80.1929 60.0812 71.7961C58.4885 70.7621 57.4209 68.9747 57.4209 66.9392V59.2195C57.4209 57.5214 58.1739 56.004 59.3435 54.9416V43.7822C59.3435 43.7822 57.0586 26.4161 80.4999 26.4161C103.941 26.4161 101.656 43.7822 101.656 43.7822V54.9416C102.828 56.004 103.579 57.5214 103.579 59.2195V66.9392C103.579 69.5342 101.843 71.7178 99.4865 72.4471C98.1737 76.5421 96.2794 80.4455 93.7754 83.994C93.1439 84.8888 92.5537 85.6464 92.0373 86.2364V93.4684C92.0373 96.1309 93.5367 98.567 95.9105 99.7557L114.283 108.971C115.385 109.524 116.381 110.223 117.299 111C129.689 100.633 137.694 85.1326 137.991 67.6772C138.538 35.8208 113.239 9.55285 81.4851 9.00859Z" fill="#556080"/>
<path d="M9.05 144.752V138.34H10.03V144.752C10.03 145.611 10.2587 146.25 10.716 146.67C11.1827 147.081 11.8173 147.286 12.62 147.286C13.4227 147.286 14.0527 147.081 14.51 146.67C14.9673 146.25 15.196 145.611 15.196 144.752V138.34H16.176V144.752C16.176 145.853 15.8447 146.689 15.182 147.258C14.5193 147.818 13.6653 148.098 12.62 148.098C11.5747 148.098 10.716 147.818 10.044 147.258C9.38133 146.689 9.05 145.853 9.05 144.752ZM22.5501 147.3C23.3341 147.3 24.0015 147.006 24.5521 146.418C25.1121 145.821 25.3921 145.055 25.3921 144.122C25.3921 143.179 25.1168 142.433 24.5661 141.882C24.0155 141.331 23.3435 141.056 22.5501 141.056C21.7661 141.056 21.0988 141.345 20.5481 141.924C19.9975 142.493 19.7221 143.245 19.7221 144.178C19.7221 145.111 19.9975 145.867 20.5481 146.446C21.0988 147.015 21.7661 147.3 22.5501 147.3ZM22.7041 140.216C23.7775 140.216 24.6595 140.575 25.3501 141.294C26.0501 142.003 26.4001 142.946 26.4001 144.122C26.4001 145.289 26.0501 146.25 25.3501 147.006C24.6501 147.762 23.7681 148.14 22.7041 148.14C22.0135 148.14 21.4068 147.972 20.8841 147.636C20.3615 147.291 19.9741 146.852 19.7221 146.32V151.612H18.7421V140.356H19.7221V142.022C19.9741 141.49 20.3615 141.056 20.8841 140.72C21.4068 140.384 22.0135 140.216 22.7041 140.216ZM28.4889 148V137.64H29.4689V148H28.4889ZM35.2484 147.356C36.0417 147.356 36.7277 147.071 37.3064 146.502C37.885 145.933 38.1744 145.158 38.1744 144.178C38.1744 143.189 37.899 142.414 37.3484 141.854C36.7977 141.285 36.1257 141 35.3324 141C34.539 141 33.8764 141.28 33.3444 141.84C32.8124 142.4 32.5464 143.179 32.5464 144.178C32.5464 145.177 32.7984 145.956 33.3024 146.516C33.8064 147.076 34.455 147.356 35.2484 147.356ZM35.2484 148.14C34.1564 148.14 33.265 147.776 32.5744 147.048C31.893 146.32 31.5524 145.368 31.5524 144.192C31.5524 143.007 31.9164 142.05 32.6444 141.322C33.3724 140.585 34.2824 140.216 35.3744 140.216C36.4664 140.216 37.3764 140.585 38.1044 141.322C38.8324 142.05 39.1964 143.002 39.1964 144.178C39.1964 145.345 38.8137 146.297 38.0484 147.034C37.283 147.771 36.3497 148.14 35.2484 148.14ZM46.6313 146.446C47.1913 145.867 47.4713 145.111 47.4713 144.178C47.4713 143.245 47.1913 142.493 46.6313 141.924C46.0806 141.345 45.4133 141.056 44.6293 141.056C43.8453 141.056 43.178 141.331 42.6273 141.882C42.0766 142.433 41.8013 143.179 41.8013 144.122C41.8013 145.055 42.0766 145.821 42.6273 146.418C43.1873 147.006 43.8546 147.3 44.6293 147.3C45.4133 147.3 46.0806 147.015 46.6313 146.446ZM44.4893 148.14C43.4253 148.14 42.5433 147.762 41.8433 147.006C41.1433 146.25 40.7933 145.289 40.7933 144.122C40.7933 142.946 41.1386 142.003 41.8293 141.294C42.5293 140.575 43.416 140.216 44.4893 140.216C45.18 140.216 45.7866 140.384 46.3093 140.72C46.832 141.056 47.2193 141.49 47.4713 142.022V140.356H48.4513V148H47.4713V146.32C47.2193 146.852 46.832 147.291 46.3093 147.636C45.7866 147.972 45.18 148.14 44.4893 148.14ZM56.3781 146.446C56.9381 145.867 57.2181 145.111 57.2181 144.178C57.2181 143.245 56.9381 142.493 56.3781 141.924C55.8274 141.345 55.1601 141.056 54.3761 141.056C53.5921 141.056 52.9248 141.331 52.3741 141.882C51.8234 142.433 51.5481 143.179 51.5481 144.122C51.5481 145.055 51.8234 145.821 52.3741 146.418C52.9341 147.006 53.6014 147.3 54.3761 147.3C55.1601 147.3 55.8274 147.015 56.3781 146.446ZM54.2361 148.14C53.1721 148.14 52.2901 147.762 51.5901 147.006C50.8901 146.25 50.5401 145.289 50.5401 144.122C50.5401 142.946 50.8854 142.003 51.5761 141.294C52.2761 140.575 53.1628 140.216 54.2361 140.216C54.9268 140.216 55.5334 140.384 56.0561 140.72C56.5788 141.056 56.9661 141.49 57.2181 142.022V137.64H58.1981V148H57.2181V146.32C56.9661 146.852 56.5788 147.291 56.0561 147.636C55.5334 147.972 54.9268 148.14 54.2361 148.14ZM68.6855 148H67.7055V144.192L64.6115 138.34H65.6615L68.1815 143.296L70.7015 138.34H71.7655L68.6855 144.192V148ZM76.7089 147.356C77.5023 147.356 78.1883 147.071 78.767 146.502C79.3456 145.933 79.6349 145.158 79.6349 144.178C79.6349 143.189 79.3596 142.414 78.8089 141.854C78.2583 141.285 77.5863 141 76.7929 141C75.9996 141 75.3369 141.28 74.8049 141.84C74.2729 142.4 74.0069 143.179 74.0069 144.178C74.0069 145.177 74.2589 145.956 74.7629 146.516C75.2669 147.076 75.9156 147.356 76.7089 147.356ZM76.7089 148.14C75.6169 148.14 74.7256 147.776 74.0349 147.048C73.3536 146.32 73.0129 145.368 73.0129 144.192C73.0129 143.007 73.3769 142.05 74.1049 141.322C74.8329 140.585 75.7429 140.216 76.8349 140.216C77.9269 140.216 78.8369 140.585 79.5649 141.322C80.2929 142.05 80.6569 143.002 80.6569 144.178C80.6569 145.345 80.2743 146.297 79.5089 147.034C78.7436 147.771 77.8103 148.14 76.7089 148.14ZM88.1899 140.356H89.1699V148H88.1899V146.754C87.6766 147.678 86.8319 148.14 85.6559 148.14C84.8066 148.14 84.0972 147.865 83.5279 147.314C82.9586 146.754 82.6739 145.951 82.6739 144.906V140.356H83.6399V144.724C83.6399 145.564 83.8406 146.203 84.2419 146.642C84.6526 147.081 85.2079 147.3 85.9079 147.3C86.6172 147.3 87.1726 147.081 87.5739 146.642C87.9846 146.203 88.1899 145.564 88.1899 144.724V140.356ZM92.7324 140.356V141.616C93.1524 140.683 93.9411 140.216 95.0984 140.216V141.238H94.8184C94.1464 141.238 93.6284 141.42 93.2644 141.784C92.9097 142.148 92.7324 142.773 92.7324 143.66V148H91.7524V140.356H92.7324ZM107.258 139.124C107.818 139.637 108.098 140.314 108.098 141.154C108.098 141.994 107.818 142.671 107.258 143.184C106.707 143.697 105.886 143.954 104.794 143.954H102.82V148H101.84V138.34H104.794C105.876 138.34 106.698 138.601 107.258 139.124ZM102.82 143.156H104.794C106.334 143.156 107.104 142.489 107.104 141.154C107.104 139.81 106.334 139.138 104.794 139.138H102.82V143.156ZM111.396 138.2C111.396 138.396 111.326 138.564 111.186 138.704C111.056 138.844 110.888 138.914 110.682 138.914C110.486 138.914 110.318 138.844 110.178 138.704C110.038 138.564 109.968 138.396 109.968 138.2C109.968 137.995 110.038 137.822 110.178 137.682C110.318 137.542 110.486 137.472 110.682 137.472C110.888 137.472 111.056 137.542 111.186 137.682C111.326 137.822 111.396 137.995 111.396 138.2ZM110.178 148V140.356H111.158V148H110.178ZM114.264 147.048C113.582 146.32 113.242 145.363 113.242 144.178C113.242 142.993 113.582 142.036 114.264 141.308C114.945 140.58 115.832 140.216 116.924 140.216C118.716 140.216 119.854 141.019 120.34 142.624H119.29C119.131 142.111 118.846 141.714 118.436 141.434C118.034 141.145 117.53 141 116.924 141C116.13 141 115.486 141.275 114.992 141.826C114.497 142.367 114.25 143.151 114.25 144.178C114.25 145.195 114.497 145.979 114.992 146.53C115.486 147.081 116.13 147.356 116.924 147.356C117.53 147.356 118.034 147.216 118.436 146.936C118.846 146.647 119.131 146.245 119.29 145.732H120.34C120.097 146.46 119.691 147.043 119.122 147.482C118.552 147.921 117.82 148.14 116.924 148.14C115.832 148.14 114.945 147.776 114.264 147.048ZM126.006 141.126H123.892V146.194C123.892 146.577 123.966 146.847 124.116 147.006C124.265 147.155 124.531 147.23 124.914 147.23H126.006V148H124.704C123.509 148 122.912 147.398 122.912 146.194V141.126H121.848V140.356H122.912V138.438H123.892V140.356H126.006V141.126ZM133.271 140.356H134.251V148H133.271V146.754C132.758 147.678 131.913 148.14 130.737 148.14C129.888 148.14 129.178 147.865 128.609 147.314C128.04 146.754 127.755 145.951 127.755 144.906V140.356H128.721V144.724C128.721 145.564 128.922 146.203 129.323 146.642C129.734 147.081 130.289 147.3 130.989 147.3C131.698 147.3 132.254 147.081 132.655 146.642C133.066 146.203 133.271 145.564 133.271 144.724V140.356ZM137.814 140.356V141.616C138.234 140.683 139.022 140.216 140.18 140.216V141.238H139.9C139.228 141.238 138.71 141.42 138.346 141.784C137.991 142.148 137.814 142.773 137.814 143.66V148H136.834V140.356H137.814ZM145.438 148.14C144.346 148.14 143.46 147.776 142.778 147.048C142.097 146.32 141.756 145.363 141.756 144.178C141.756 142.983 142.102 142.027 142.792 141.308C143.492 140.58 144.393 140.216 145.494 140.216C146.605 140.216 147.487 140.557 148.14 141.238C148.794 141.919 149.12 142.764 149.12 143.772C149.12 144.043 149.102 144.295 149.064 144.528H142.764C142.802 145.405 143.068 146.096 143.562 146.6C144.057 147.104 144.682 147.356 145.438 147.356C146.026 147.356 146.526 147.221 146.936 146.95C147.356 146.679 147.646 146.325 147.804 145.886H148.854C148.602 146.539 148.192 147.081 147.622 147.51C147.053 147.93 146.325 148.14 145.438 148.14ZM148.112 143.758C148.112 142.918 147.856 142.251 147.342 141.756C146.838 141.252 146.208 141 145.452 141C144.706 141 144.08 141.247 143.576 141.742C143.082 142.227 142.811 142.899 142.764 143.758H148.112Z" fill="#999999"/>
</g>
<defs>
<clipPath id="clip0_0_5941">
<rect width="160" height="160" fill="white"/>
</clipPath>
</defs>
</svg>
