<svg width="160" height="160" viewBox="0 0 160 160" fill="none" xmlns="http://www.w3.org/2000/svg">
<g clip-path="url(#clip0_0_5760)">
<rect width="160" height="160" rx="3" fill="white"/>
<rect width="160" height="160" rx="3" stroke="#E6E6E6"/>
<circle cx="81" cy="66.5" r="57.5" fill="#556080"/>
<path fill-rule="evenodd" clip-rule="evenodd" d="M119 55.2794C119 54.9452 118.922 54.627 118.752 54.3405L107.446 33.9707C107.12 33.3819 106.499 33 105.831 33H56.1532C55.4855 33 54.8643 33.366 54.5382 33.9707L43.2485 54.3405C43.0932 54.627 43 54.9452 43 55.2794C43 59.8467 45.6866 63.7615 49.5223 65.4961V99.0903C49.5223 100.141 50.3608 101 51.3858 101H61.6817H61.7282H76.1704H76.217H110.599C111.624 101 112.462 100.141 112.462 99.0903V65.7348C112.462 65.6553 112.462 65.5916 112.447 65.528C116.298 63.7934 119 59.8626 119 55.2794ZM57.2403 36.8352H104.744L113.58 52.765H48.4197L57.2403 36.8352ZM90.038 62.6157C93.5631 62.6157 96.4982 60.0058 97.0883 56.5685H82.9877C83.5779 60.0058 86.5129 62.6157 90.038 62.6157ZM79.0278 56.5685C78.4377 60.0058 75.5027 62.6157 71.9775 62.6157C68.4524 62.6157 65.5174 60.0058 64.9117 56.5685H79.0278ZM60.9673 56.5685H46.8512C47.4414 60.0058 50.3764 62.6316 53.9015 62.6157C57.4266 62.6157 60.3772 60.0058 60.9673 56.5685ZM74.3069 97.1807H63.5917V76.5722C63.5917 75.0763 64.772 73.8509 66.2472 73.8509H71.6669C73.1267 73.8509 74.3224 75.0604 74.3224 76.5722V97.1807H74.3069ZM78.0339 97.1807H108.735V66.4351C108.626 66.4351 108.522 66.439 108.417 66.443C108.312 66.447 108.207 66.451 108.098 66.451C104.34 66.451 101.017 64.4936 99.0605 61.5177C97.1038 64.4936 93.7961 66.451 90.038 66.451C86.2955 66.451 82.9722 64.4936 81.0155 61.5177C79.0433 64.4936 75.7356 66.451 71.9775 66.451C68.2195 66.451 64.8962 64.4936 62.9395 61.5177C60.9828 64.4936 57.6596 66.451 53.9015 66.451C53.6841 66.451 53.4667 66.451 53.2493 66.4351V97.1966H59.8492V76.5722C59.8492 72.9597 62.7221 70.0316 66.2317 70.0316H71.6514C75.1765 70.0316 78.0339 72.9757 78.0339 76.5722V97.1807ZM108.098 62.6316C104.573 62.6316 101.638 60.0218 101.048 56.5844H115.164C114.559 60.0059 111.624 62.6316 108.098 62.6316ZM96.7698 70H86.2302C83.3457 70 81 72.4034 81 75.359V83.641C81 86.5966 83.3457 89 86.2302 89H96.7698C99.6543 89 102 86.5966 102 83.641V75.359C102 72.4034 99.6543 70 96.7698 70ZM98.1962 83.641C98.1962 84.453 97.5464 85.1026 96.7698 85.1026H86.2302C85.4377 85.1026 84.8038 84.4368 84.8038 83.641V75.359C84.8038 74.547 85.4536 73.8974 86.2302 73.8974H96.7698C97.5623 73.8974 98.1962 74.5632 98.1962 75.359V83.641Z" fill="white"/>
<path d="M6.05 144.752V138.34H7.03V144.752C7.03 145.611 7.25867 146.25 7.716 146.67C8.18267 147.081 8.81733 147.286 9.62 147.286C10.4227 147.286 11.0527 147.081 11.51 146.67C11.9673 146.25 12.196 145.611 12.196 144.752V138.34H13.176V144.752C13.176 145.853 12.8447 146.689 12.182 147.258C11.5193 147.818 10.6653 148.098 9.62 148.098C8.57467 148.098 7.716 147.818 7.044 147.258C6.38133 146.689 6.05 145.853 6.05 144.752ZM19.5501 147.3C20.3341 147.3 21.0015 147.006 21.5521 146.418C22.1121 145.821 22.3921 145.055 22.3921 144.122C22.3921 143.179 22.1168 142.433 21.5661 141.882C21.0155 141.331 20.3435 141.056 19.5501 141.056C18.7661 141.056 18.0988 141.345 17.5481 141.924C16.9975 142.493 16.7221 143.245 16.7221 144.178C16.7221 145.111 16.9975 145.867 17.5481 146.446C18.0988 147.015 18.7661 147.3 19.5501 147.3ZM19.7041 140.216C20.7775 140.216 21.6595 140.575 22.3501 141.294C23.0501 142.003 23.4001 142.946 23.4001 144.122C23.4001 145.289 23.0501 146.25 22.3501 147.006C21.6501 147.762 20.7681 148.14 19.7041 148.14C19.0135 148.14 18.4068 147.972 17.8841 147.636C17.3615 147.291 16.9741 146.852 16.7221 146.32V151.612H15.7421V140.356H16.7221V142.022C16.9741 141.49 17.3615 141.056 17.8841 140.72C18.4068 140.384 19.0135 140.216 19.7041 140.216ZM25.4889 148V137.64H26.4689V148H25.4889ZM32.2484 147.356C33.0417 147.356 33.7277 147.071 34.3064 146.502C34.885 145.933 35.1744 145.158 35.1744 144.178C35.1744 143.189 34.899 142.414 34.3484 141.854C33.7977 141.285 33.1257 141 32.3324 141C31.539 141 30.8764 141.28 30.3444 141.84C29.8124 142.4 29.5464 143.179 29.5464 144.178C29.5464 145.177 29.7984 145.956 30.3024 146.516C30.8064 147.076 31.455 147.356 32.2484 147.356ZM32.2484 148.14C31.1564 148.14 30.265 147.776 29.5744 147.048C28.893 146.32 28.5524 145.368 28.5524 144.192C28.5524 143.007 28.9164 142.05 29.6444 141.322C30.3724 140.585 31.2824 140.216 32.3744 140.216C33.4664 140.216 34.3764 140.585 35.1044 141.322C35.8324 142.05 36.1964 143.002 36.1964 144.178C36.1964 145.345 35.8137 146.297 35.0484 147.034C34.283 147.771 33.3497 148.14 32.2484 148.14ZM43.6313 146.446C44.1913 145.867 44.4713 145.111 44.4713 144.178C44.4713 143.245 44.1913 142.493 43.6313 141.924C43.0806 141.345 42.4133 141.056 41.6293 141.056C40.8453 141.056 40.178 141.331 39.6273 141.882C39.0766 142.433 38.8013 143.179 38.8013 144.122C38.8013 145.055 39.0766 145.821 39.6273 146.418C40.1873 147.006 40.8546 147.3 41.6293 147.3C42.4133 147.3 43.0806 147.015 43.6313 146.446ZM41.4893 148.14C40.4253 148.14 39.5433 147.762 38.8433 147.006C38.1433 146.25 37.7933 145.289 37.7933 144.122C37.7933 142.946 38.1386 142.003 38.8293 141.294C39.5293 140.575 40.416 140.216 41.4893 140.216C42.18 140.216 42.7866 140.384 43.3093 140.72C43.832 141.056 44.2193 141.49 44.4713 142.022V140.356H45.4513V148H44.4713V146.32C44.2193 146.852 43.832 147.291 43.3093 147.636C42.7866 147.972 42.18 148.14 41.4893 148.14ZM53.3781 146.446C53.9381 145.867 54.2181 145.111 54.2181 144.178C54.2181 143.245 53.9381 142.493 53.3781 141.924C52.8274 141.345 52.1601 141.056 51.3761 141.056C50.5921 141.056 49.9248 141.331 49.3741 141.882C48.8234 142.433 48.5481 143.179 48.5481 144.122C48.5481 145.055 48.8234 145.821 49.3741 146.418C49.9341 147.006 50.6014 147.3 51.3761 147.3C52.1601 147.3 52.8274 147.015 53.3781 146.446ZM51.2361 148.14C50.1721 148.14 49.2901 147.762 48.5901 147.006C47.8901 146.25 47.5401 145.289 47.5401 144.122C47.5401 142.946 47.8854 142.003 48.5761 141.294C49.2761 140.575 50.1628 140.216 51.2361 140.216C51.9268 140.216 52.5334 140.384 53.0561 140.72C53.5788 141.056 53.9661 141.49 54.2181 142.022V137.64H55.1981V148H54.2181V146.32C53.9661 146.852 53.5788 147.291 53.0561 147.636C52.5334 147.972 51.9268 148.14 51.2361 148.14ZM63.1515 140.888C63.1515 141.271 63.2495 141.583 63.4455 141.826C63.6508 142.069 63.9121 142.251 64.2295 142.372C64.5468 142.484 64.8968 142.582 65.2795 142.666C65.6621 142.75 66.0448 142.843 66.4275 142.946C66.8101 143.049 67.1601 143.184 67.4775 143.352C67.7948 143.511 68.0515 143.758 68.2475 144.094C68.4528 144.43 68.5555 144.845 68.5555 145.34C68.5555 146.077 68.2801 146.721 67.7295 147.272C67.1788 147.823 66.4228 148.098 65.4615 148.098C64.5095 148.098 63.7348 147.883 63.1375 147.454C62.5401 147.025 62.2415 146.446 62.2415 145.718H63.2775C63.3148 146.166 63.5061 146.539 63.8515 146.838C64.1968 147.127 64.7101 147.272 65.3915 147.272C66.0821 147.272 66.6281 147.095 67.0295 146.74C67.4401 146.385 67.6455 145.947 67.6455 145.424C67.6455 144.892 67.4588 144.495 67.0855 144.234C66.7121 143.963 66.2595 143.777 65.7275 143.674C65.2048 143.571 64.6775 143.455 64.1455 143.324C63.6228 143.184 63.1748 142.918 62.8015 142.526C62.4281 142.134 62.2415 141.565 62.2415 140.818C62.2415 140.071 62.5168 139.455 63.0675 138.97C63.6275 138.485 64.3601 138.242 65.2655 138.242C66.1801 138.242 66.8988 138.452 67.4215 138.872C67.9441 139.292 68.2615 139.852 68.3735 140.552H67.2675C67.2301 140.16 67.0341 139.819 66.6795 139.53C66.3248 139.231 65.8395 139.082 65.2235 139.082C64.6075 139.082 64.1081 139.236 63.7255 139.544C63.3428 139.852 63.1515 140.3 63.1515 140.888ZM74.3288 141.126H72.2148V146.194C72.2148 146.577 72.2894 146.847 72.4388 147.006C72.5881 147.155 72.8541 147.23 73.2368 147.23H74.3288V148H73.0268C71.8321 148 71.2348 147.398 71.2348 146.194V141.126H70.1708V140.356H71.2348V138.438H72.2148V140.356H74.3288V141.126ZM79.3542 147.356C80.1475 147.356 80.8335 147.071 81.4122 146.502C81.9909 145.933 82.2802 145.158 82.2802 144.178C82.2802 143.189 82.0049 142.414 81.4542 141.854C80.9035 141.285 80.2315 141 79.4382 141C78.6449 141 77.9822 141.28 77.4502 141.84C76.9182 142.4 76.6522 143.179 76.6522 144.178C76.6522 145.177 76.9042 145.956 77.4082 146.516C77.9122 147.076 78.5609 147.356 79.3542 147.356ZM79.3542 148.14C78.2622 148.14 77.3709 147.776 76.6802 147.048C75.9989 146.32 75.6582 145.368 75.6582 144.192C75.6582 143.007 76.0222 142.05 76.7502 141.322C77.4782 140.585 78.3882 140.216 79.4802 140.216C80.5722 140.216 81.4822 140.585 82.2102 141.322C82.9382 142.05 83.3022 143.002 83.3022 144.178C83.3022 145.345 82.9195 146.297 82.1542 147.034C81.3889 147.771 80.4555 148.14 79.3542 148.14ZM86.3691 140.356V141.616C86.7891 140.683 87.5778 140.216 88.7351 140.216V141.238H88.4551C87.7831 141.238 87.2651 141.42 86.9011 141.784C86.5465 142.148 86.3691 142.773 86.3691 143.66V148H85.3891V140.356H86.3691ZM93.994 148.14C92.902 148.14 92.0153 147.776 91.334 147.048C90.6526 146.32 90.312 145.363 90.312 144.178C90.312 142.983 90.6573 142.027 91.348 141.308C92.048 140.58 92.9486 140.216 94.05 140.216C95.1606 140.216 96.0426 140.557 96.696 141.238C97.3493 141.919 97.676 142.764 97.676 143.772C97.676 144.043 97.6573 144.295 97.62 144.528H91.32C91.3573 145.405 91.6233 146.096 92.118 146.6C92.6126 147.104 93.238 147.356 93.994 147.356C94.582 147.356 95.0813 147.221 95.492 146.95C95.912 146.679 96.2013 146.325 96.36 145.886H97.41C97.158 146.539 96.7473 147.081 96.178 147.51C95.6086 147.93 94.8806 148.14 93.994 148.14ZM96.668 143.758C96.668 142.918 96.4113 142.251 95.898 141.756C95.394 141.252 94.764 141 94.008 141C93.2613 141 92.636 141.247 92.132 141.742C91.6373 142.227 91.3666 142.899 91.32 143.758H96.668ZM109.848 139.124C110.408 139.637 110.688 140.314 110.688 141.154C110.688 141.994 110.408 142.671 109.848 143.184C109.298 143.697 108.476 143.954 107.384 143.954H105.41V148H104.43V138.34H107.384C108.467 138.34 109.288 138.601 109.848 139.124ZM105.41 143.156H107.384C108.924 143.156 109.694 142.489 109.694 141.154C109.694 139.81 108.924 139.138 107.384 139.138H105.41V143.156ZM113.987 138.2C113.987 138.396 113.917 138.564 113.777 138.704C113.646 138.844 113.478 138.914 113.273 138.914C113.077 138.914 112.909 138.844 112.769 138.704C112.629 138.564 112.559 138.396 112.559 138.2C112.559 137.995 112.629 137.822 112.769 137.682C112.909 137.542 113.077 137.472 113.273 137.472C113.478 137.472 113.646 137.542 113.777 137.682C113.917 137.822 113.987 137.995 113.987 138.2ZM112.769 148V140.356H113.749V148H112.769ZM116.854 147.048C116.173 146.32 115.832 145.363 115.832 144.178C115.832 142.993 116.173 142.036 116.854 141.308C117.536 140.58 118.422 140.216 119.514 140.216C121.306 140.216 122.445 141.019 122.93 142.624H121.88C121.722 142.111 121.437 141.714 121.026 141.434C120.625 141.145 120.121 141 119.514 141C118.721 141 118.077 141.275 117.582 141.826C117.088 142.367 116.84 143.151 116.84 144.178C116.84 145.195 117.088 145.979 117.582 146.53C118.077 147.081 118.721 147.356 119.514 147.356C120.121 147.356 120.625 147.216 121.026 146.936C121.437 146.647 121.722 146.245 121.88 145.732H122.93C122.688 146.46 122.282 147.043 121.712 147.482C121.143 147.921 120.41 148.14 119.514 148.14C118.422 148.14 117.536 147.776 116.854 147.048ZM128.596 141.126H126.482V146.194C126.482 146.577 126.557 146.847 126.706 147.006C126.856 147.155 127.122 147.23 127.504 147.23H128.596V148H127.294C126.1 148 125.502 147.398 125.502 146.194V141.126H124.438V140.356H125.502V138.438H126.482V140.356H128.596V141.126ZM135.862 140.356H136.842V148H135.862V146.754C135.348 147.678 134.504 148.14 133.328 148.14C132.478 148.14 131.769 147.865 131.2 147.314C130.63 146.754 130.346 145.951 130.346 144.906V140.356H131.312V144.724C131.312 145.564 131.512 146.203 131.914 146.642C132.324 147.081 132.88 147.3 133.58 147.3C134.289 147.3 134.844 147.081 135.246 146.642C135.656 146.203 135.862 145.564 135.862 144.724V140.356ZM140.404 140.356V141.616C140.824 140.683 141.613 140.216 142.77 140.216V141.238H142.49C141.818 141.238 141.3 141.42 140.936 141.784C140.581 142.148 140.404 142.773 140.404 143.66V148H139.424V140.356H140.404ZM148.029 148.14C146.937 148.14 146.05 147.776 145.369 147.048C144.688 146.32 144.347 145.363 144.347 144.178C144.347 142.983 144.692 142.027 145.383 141.308C146.083 140.58 146.984 140.216 148.085 140.216C149.196 140.216 150.078 140.557 150.731 141.238C151.384 141.919 151.711 142.764 151.711 143.772C151.711 144.043 151.692 144.295 151.655 144.528H145.355C145.392 145.405 145.658 146.096 146.153 146.6C146.648 147.104 147.273 147.356 148.029 147.356C148.617 147.356 149.116 147.221 149.527 146.95C149.947 146.679 150.236 146.325 150.395 145.886H151.445C151.193 146.539 150.782 147.081 150.213 147.51C149.644 147.93 148.916 148.14 148.029 148.14ZM150.703 143.758C150.703 142.918 150.446 142.251 149.933 141.756C149.429 141.252 148.799 141 148.043 141C147.296 141 146.671 141.247 146.167 141.742C145.672 142.227 145.402 142.899 145.355 143.758H150.703Z" fill="#999999"/>
</g>
<defs>
<clipPath id="clip0_0_5760">
<rect width="160" height="160" fill="white"/>
</clipPath>
</defs>
</svg>
