<?xml version="1.0" encoding="UTF-8"?>
<svg width="15px" height="15px" viewBox="0 0 15 15" version="1.1" xmlns="http://www.w3.org/2000/svg" xmlns:xlink="http://www.w3.org/1999/xlink">
    <!-- Generator: Sketch 53.2 (72643) - https://sketchapp.com -->
    <title>icon/16-user</title>
    <desc>Created with Sketch.</desc>
    <g id="Symbols" stroke="none" stroke-width="1" fill="none" fill-rule="evenodd">
        <g id="user-item" transform="translate(-381.000000, -35.000000)">
            <g id="Group">
                <g id="icon/16-screen" transform="translate(381.000000, 35.000000)">
                    <rect id="Rectangle" fill="#FFFFFF" fill-rule="evenodd" x="0" y="0" width="15" height="15"></rect>
                    <path d="M14.0944629,0.0274511719 C14.5937695,0.0274511719 15,0.433681641 14.9999414,0.932988281 L14.9999414,10.039043 C14.9999414,10.5383496 14.5936816,10.9445801 14.094375,10.9445801 L9.57503906,10.9445801 L9.57503906,11.6034375 C9.57503906,12.2074512 10.0664648,12.698877 10.6704785,12.698877 L11.6665137,12.698877 C11.8574707,12.698877 12.0123047,12.8536816 12.0123047,13.044668 C12.0123047,13.2356543 11.8574707,13.390459 11.6665137,13.390459 L3.33342773,13.390459 C3.1424707,13.390459 2.98763672,13.2356543 2.98763672,13.044668 C2.98763672,12.8536816 3.1424707,12.698877 3.33342773,12.698877 L4.32943359,12.698877 C4.93344727,12.698877 5.42487305,12.2074512 5.42487305,11.6034375 L5.42487305,10.9445508 L0.905537109,10.9445508 C0.406230469,10.9445508 -2.7533531e-14,10.5383203 -2.7533531e-14,10.0390137 L-2.7533531e-14,0.932988281 C-2.7533531e-14,0.433681641 0.406230469,0.0274511719 0.905537109,0.0274511719 L14.0944629,0.0274511719 Z M5.73984375,12.6989355 L9.26018555,12.6989355 C9.02446289,12.3961523 8.88351562,12.016084 8.88351562,11.6034961 L8.88351562,10.9446094 L6.11651367,10.9446094 L6.11651367,11.6034961 C6.11651367,12.016084 5.97556641,12.396123 5.73984375,12.6989355 Z M14.308418,10.039043 L14.308418,8.22166992 L0.691552734,8.22166992 L0.691552734,10.039043 C0.691552734,10.1570508 0.787558594,10.2530273 0.905537109,10.2530273 L14.0944336,10.2530273 C14.2124414,10.2530273 14.308418,10.1570215 14.308418,10.039043 Z M14.3084473,7.53005859 L14.3084473,0.932988281 C14.3084473,0.814980469 14.2124121,0.719003906 14.0944336,0.719003906 L0.905566406,0.719003906 C0.787558594,0.719003906 0.691582031,0.815009766 0.691582031,0.932988281 L0.691582031,7.53005859 L14.3084473,7.53005859 Z M7.50008789,9.61063477 C7.29398428,9.61063477 7.1269043,9.44355478 7.1269043,9.23745117 C7.1269043,9.03134756 7.29398428,8.86426758 7.50008789,8.86426758 C7.7061915,8.86426758 7.87327148,9.03134756 7.87327148,9.23745117 C7.87327148,9.44355478 7.7061915,9.61063477 7.50008789,9.61063477 Z M8.09291016,2.40978516 C8.22793945,2.54484375 8.22793945,2.76380859 8.09291016,2.89883789 L5.64914063,5.34260742 C5.58161133,5.41013672 5.49316406,5.44388672 5.40462891,5.44388672 C5.31609375,5.44388672 5.22764648,5.41013672 5.16008789,5.34260742 C5.02505859,5.20754883 5.02505859,4.98858398 5.16008789,4.85355469 L7.60385742,2.40978516 C7.73897461,2.27475586 7.95785156,2.27475586 8.09291016,2.40978516 Z M9.54134766,3.8259668 C9.67637695,3.96099609 9.67637695,4.17996094 9.54134766,4.31499023 L8.5678125,5.2884668 C8.5002832,5.35599609 8.41177734,5.38974609 8.32330078,5.38974609 C8.23479492,5.38974609 8.14631836,5.35599609 8.07878906,5.2884668 C7.94375977,5.1534375 7.94375977,4.93447266 8.07878906,4.79941406 L9.05232422,3.8259375 C9.1874707,3.6909375 9.40634766,3.6909375 9.54134766,3.8259668 Z" id="Combined-Shape" fill="#666666" fill-rule="nonzero"></path>
                </g>
            </g>
        </g>
    </g>
</svg>