<?xml version="1.0" encoding="UTF-8"?>
<svg width="15px" height="15px" viewBox="0 0 15 15" version="1.1" xmlns="http://www.w3.org/2000/svg" xmlns:xlink="http://www.w3.org/1999/xlink">
    <!-- Generator: Sketch 53.2 (72643) - https://sketchapp.com -->
    <title>icon/16-user</title>
    <desc>Created with Sketch.</desc>
    <g id="Symbols" stroke="none" stroke-width="1" fill="none" fill-rule="evenodd">
        <g id="coupon-list" transform="translate(-308.000000, -34.000000)">
            <g id="Group">
                <g id="icon/16-user" transform="translate(308.000000, 34.000000)">
                    <g id="Group-3-Copy" stroke-width="1" fill-rule="evenodd" fill="#FFFFFF">
                        <rect id="Rectangle" x="0" y="0" width="15" height="15"></rect>
                    </g>
                    <path d="M7.45252635,7.5 C7.46691231,7.5 7.48129826,7.5 7.4985614,7.5 C7.50431579,7.5 7.51007017,7.5 7.51582455,7.5 C7.52445612,7.5 7.53596488,7.5 7.54459646,7.5 C8.38761336,7.48654881 9.06950758,7.20945427 9.57301597,6.67947733 C10.6807344,5.51191391 10.4965942,3.51037663 10.4764539,3.31936972 C10.4045241,1.88547271 9.67947203,1.19946195 9.08101634,0.879323597 C8.63505177,0.63989239 8.11428023,0.510760953 7.53308769,0.5 L7.51294736,0.5 C7.51007017,0.5 7.50431579,0.5 7.5014386,0.5 L7.48417545,0.5 C7.16480727,0.5 6.53757968,0.548424289 5.9362468,0.868562644 C5.33203674,1.188701 4.59547589,1.87471176 4.52354612,3.31936972 C4.50340579,3.51037663 4.31926558,5.51191391 5.42698403,6.67947733 C5.92761523,7.20945427 6.60950945,7.48654881 7.45252635,7.5 Z M5.29175607,3.38662567 C5.29175607,3.37855496 5.29463326,3.37048424 5.29463326,3.36510377 C5.38958055,1.43620292 6.85407067,1.22905457 7.48129826,1.22905457 L7.49280702,1.22905457 C7.4985614,1.22905457 7.50719298,1.22905457 7.51582455,1.22905457 C8.29266606,1.245196 9.61329664,1.54112221 9.70248955,3.36510377 C9.70248955,3.37317448 9.70248955,3.3812452 9.70536674,3.38662567 C9.70824393,3.40545734 9.90964729,5.23481937 8.99470062,6.19792467 C8.63217458,6.57993851 8.14880652,6.76825519 7.51294736,6.77363566 C7.50719298,6.77363566 7.50431579,6.77363566 7.4985614,6.77363566 L7.4985614,6.77363566 C7.49280702,6.77363566 7.48992983,6.77363566 7.48417545,6.77363566 C6.85119348,6.76825519 6.36494823,6.57993851 6.00529938,6.19792467 C5.0932299,5.24019985 5.28887888,3.4027671 5.29175607,3.38662567 Z" id="Shape" fill="#646161" fill-rule="nonzero"></path>
                    <path d="M13.4991818,11.3921006 C13.4991818,11.3889707 13.4991818,11.3858409 13.4991818,11.3827111 C13.4991818,11.3576727 13.4962604,11.3326342 13.4962604,11.3044659 C13.4787317,10.6847639 13.4407529,9.23566277 12.1728445,8.77245117 C12.1640801,8.76932137 12.1523943,8.76619156 12.14363,8.76306175 C10.826057,8.40313382 9.73051398,7.58938371 9.71882819,7.57999429 C9.54061986,7.44541254 9.29521824,7.49235966 9.16959598,7.68327796 C9.04397371,7.87419625 9.08779543,8.13710013 9.26600376,8.27168188 C9.31566837,8.30923958 10.4784047,9.17619642 11.9332857,9.57681186 C12.6139831,9.83658593 12.6899407,10.6159081 12.7103909,11.3295044 C12.7103909,11.3576727 12.7103909,11.3827111 12.7133123,11.4077496 C12.7162338,11.6894323 12.6987051,12.1244757 12.6519619,12.3748603 C12.1786874,12.6628026 10.3235679,13.6580816 7.5014492,13.6580816 C4.69101627,13.6580816 2.82421104,12.6596728 2.34801502,12.3717305 C2.30127185,12.1213458 2.28082172,11.6863025 2.28666461,11.4046198 C2.28666461,11.3795813 2.28958606,11.3545429 2.28958606,11.3263746 C2.3100362,10.6127783 2.38599385,9.83345612 3.06669122,9.57368205 C4.52157229,9.17306661 5.68430858,8.30297996 5.73397319,8.26855207 C5.91218152,8.13397032 5.95600323,7.87106644 5.83038097,7.68014815 C5.70475871,7.48922985 5.45935708,7.44228273 5.28114876,7.57686448 C5.26946297,7.5862539 4.17976288,8.40000401 2.85634696,8.75993194 C2.84466117,8.76306175 2.83589683,8.76619156 2.82713248,8.76932137 C1.55922408,9.23566277 1.52124525,10.6847639 1.50371657,11.3013361 C1.50371657,11.3295044 1.50371657,11.3545429 1.50079512,11.3795813 C1.50079512,11.3827111 1.50079512,11.3858409 1.50079512,11.3889707 C1.49787367,11.5517208 1.49495222,12.3873795 1.64978896,12.8067738 C1.67900344,12.8881488 1.73158951,12.9570046 1.80170426,13.0039517 C1.88934769,13.0665479 3.98986877,14.5 7.50437065,14.5 C11.0188725,14.5 13.1193936,13.0634181 13.207037,13.0039517 C13.2742303,12.9570046 13.3297379,12.8881488 13.3589523,12.8067738 C13.5050247,12.3905093 13.5021033,11.5548506 13.4991818,11.3921006 Z" id="Path" fill="#646161" fill-rule="nonzero"></path>
                </g>
            </g>
        </g>
    </g>
</svg>