<svg xmlns="http://www.w3.org/2000/svg" width="18.214" height="21.413" viewBox="0 0 18.214 21.413">
  <g id="avatar" transform="translate(-36.073)">
    <g id="Group_392" data-name="Group 392" transform="translate(36.073)">
      <path id="Path_216" data-name="Path 216" d="M141.632,11.538h.142a4.092,4.092,0,0,0,3.126-1.352c1.707-1.924,1.423-5.223,1.392-5.538A4.524,4.524,0,0,0,144.142.625,4.93,4.93,0,0,0,141.756,0h-.075A4.938,4.938,0,0,0,139.3.607a4.527,4.527,0,0,0-2.177,4.04c-.031.315-.315,3.614,1.392,5.538A4.075,4.075,0,0,0,141.632,11.538Zm-3.33-6.78c0-.013,0-.027,0-.035.146-3.179,2.4-3.521,3.37-3.521h.053c1.2.027,3.233.514,3.37,3.521a.086.086,0,0,0,0,.035c0,.031.315,3.046-1.1,4.634a2.906,2.906,0,0,1-2.284.949h-.044a2.9,2.9,0,0,1-2.279-.949C138,7.813,138.3,4.785,138.3,4.758Z" transform="translate(-132.603)" fill="#fff"/>
      <path id="Path_217" data-name="Path 217" d="M54.285,264.758v-.013c0-.035,0-.071,0-.111-.027-.878-.084-2.931-2.009-3.587l-.044-.013a12.8,12.8,0,0,1-3.68-1.676.6.6,0,1,0-.687.98,13.811,13.811,0,0,0,4.048,1.849c1.033.368,1.148,1.472,1.18,2.483a.892.892,0,0,0,0,.111,8.048,8.048,0,0,1-.093,1.37,16.318,16.318,0,0,1-7.817,1.818,16.413,16.413,0,0,1-7.822-1.822,7.62,7.62,0,0,1-.093-1.37c0-.035,0-.071,0-.111.031-1.011.146-2.115,1.179-2.483a13.939,13.939,0,0,0,4.048-1.849.6.6,0,0,0-.687-.98,12.654,12.654,0,0,1-3.68,1.676l-.044.013c-1.924.661-1.982,2.714-2.009,3.587a.89.89,0,0,1,0,.111v.013a6.8,6.8,0,0,0,.226,2.009.569.569,0,0,0,.231.279,16.772,16.772,0,0,0,8.656,2.12,16.822,16.822,0,0,0,8.656-2.12.593.593,0,0,0,.231-.279A7.134,7.134,0,0,0,54.285,264.758Z" transform="translate(-36.073 -247.749)" fill="#fff"/>
    </g>
  </g>
</svg>
