<svg width="21" height="21" viewBox="0 0 21 21" fill="none" xmlns="http://www.w3.org/2000/svg">
<path d="M9.04685 19.9292L0.521854 11.4042C0.392688 11.275 0.300979 11.1351 0.246729 10.9844C0.192479 10.8337 0.165785 10.6722 0.166646 10.5C0.166646 10.3278 0.193771 10.1663 0.248021 10.0156C0.302271 9.86493 0.393549 9.725 0.521854 9.59583L9.04685 1.07083C9.28366 0.834025 9.57988 0.710455 9.93552 0.700122C10.2912 0.689789 10.5977 0.813358 10.8552 1.07083C11.1135 1.30764 11.2483 1.60386 11.2595 1.9595C11.2707 2.31514 11.1467 2.62169 10.8875 2.87916L4.55831 9.20833H18.9927C19.3587 9.20833 19.6656 9.33233 19.9136 9.58033C20.1616 9.82833 20.2852 10.1349 20.2844 10.5C20.2844 10.866 20.1608 11.173 19.9136 11.421C19.6665 11.669 19.3595 11.7925 18.9927 11.7917H4.55831L10.8875 18.1208C11.1243 18.3576 11.2483 18.659 11.2595 19.025C11.2707 19.391 11.1467 19.6924 10.8875 19.9292C10.6507 20.1875 10.3493 20.3167 9.98331 20.3167C9.61734 20.3167 9.30519 20.1875 9.04685 19.9292V19.9292Z" fill="white"/>
</svg>
