<?xml version="1.0" encoding="UTF-8"?>
<svg width="205px" height="205px" viewBox="0 0 205 205" version="1.1" xmlns="http://www.w3.org/2000/svg" xmlns:xlink="http://www.w3.org/1999/xlink">
    <!-- Generator: Sketch 53.2 (72643) - https://sketchapp.com -->
    <title>active-achievement</title>
    <desc>Created with Sketch.</desc>
    <g id="Page-1" stroke="none" stroke-width="1" fill="none" fill-rule="evenodd">
        <g id="1-Dashboard" transform="translate(-164.000000, -2407.000000)">
            <g id="total-Challenge-Copy-2" transform="translate(125.000000, 2326.000000)">
                <g id="active-achievement" transform="translate(0.000000, 42.000000)">
                    <circle id="Oval-Copy" stroke="#EAEAEA" stroke-width="3" transform="translate(141.500000, 141.500000) rotate(187.000000) translate(-141.500000, -141.500000) " cx="141.5" cy="141.5" r="100.5"></circle>
                    <path d="M141.5,242 C197.004617,242 242,197.004617 242,141.5 C242,85.9953826 197.004617,41 141.5,41 C85.9953826,41 41,85.9953826 41,141.5 C41,197.004617 85.9953826,242 141.5,242 Z" id="Oval-Copy-9" stroke="#FB9B40" stroke-width="3" stroke-linecap="round" stroke-dasharray="220,410" transform="translate(141.500000, 141.500000) rotate(127.000000) translate(-141.500000, -141.500000) "></path>
                    <circle id="Oval" fill="#FB9B40" cx="142" cy="89" r="24"></circle>
                    <path d="M153.539062,75 C154.895996,75 156,76.1040039 156,77.4609375 L156,78.710846 C156,80.7353516 155.303589,82.7209778 154.038727,84.3017883 C152.958649,85.651886 151.520538,86.6546326 149.880127,87.2015076 C149.876709,87.2025757 149.873077,87.2038574 149.869659,87.2049255 L148.952789,87.4967346 C147.94278,89.1394958 146.360474,90.4045715 144.460938,91.0059204 L144.460938,92.28125 C144.460938,92.73349 144.82901,93.1015625 145.28125,93.1015625 C146.638184,93.1015625 147.742188,94.2055664 147.742188,95.5625 L147.742188,96.3828125 L148.5625,96.3828125 C149.015594,96.3828125 149.382812,96.7500305 149.382812,97.203125 L149.382812,101.359375 L150.203125,101.359375 C150.656219,101.359375 151.023438,101.726593 151.023438,102.179688 C151.023438,102.632782 150.656219,103 150.203125,103 L133.796875,103 C133.343781,103 132.976562,102.632782 132.976562,102.179688 C132.976562,101.726593 133.343781,101.359375 133.796875,101.359375 L134.617188,101.359375 L134.617188,97.203125 C134.617188,96.7500305 134.984406,96.3828125 135.4375,96.3828125 L136.257812,96.3828125 L136.257812,95.5625 C136.257812,94.2055664 137.361816,93.1015625 138.71875,93.1015625 C139.17099,93.1015625 139.539062,92.73349 139.539062,92.28125 L139.539062,91.0059204 C137.63739,90.4039307 136.053589,89.1365051 135.043793,87.4911804 L134.174347,87.2015076 C132.509369,86.6465149 131.013153,85.6166382 129.961273,84.3017883 C128.696411,82.7209778 128,80.7353516 128,78.710846 L128,77.4609375 C128,76.1040039 129.104004,75 130.460938,75 C130.856567,75 153.141937,75 153.539062,75 Z M131.242371,83.2768249 C131.983643,84.2033081 133.001129,84.9571839 134.148285,85.4393311 C134.031647,85.0227661 133.946411,84.5935974 133.897491,84.1541748 L133.062653,76.640625 L130.460938,76.640625 C130.008698,76.640625 129.640625,77.0086975 129.640625,77.4609375 L129.640625,78.710846 C129.640625,80.3642883 130.209503,81.9856872 131.242371,83.2768249 Z M136.257812,101.359375 L147.742188,101.359375 L147.742188,98.0234375 L136.257812,98.0234375 L136.257812,101.359375 Z M143.456696,89.5806275 C146.152832,88.9602661 148.168152,86.7067566 148.471924,83.9730225 L149.286682,76.640625 L134.713318,76.640625 L135.528076,83.9730225 C135.831848,86.7067566 137.847168,88.9602661 140.543304,89.5806275 C140.915863,89.6662903 141.179688,89.9978333 141.179688,90.3800049 L141.179688,92.28125 C141.179688,93.6381836 140.075684,94.7421875 138.71875,94.7421875 C138.26651,94.7421875 137.898438,95.11026 137.898438,95.5625 L137.898438,96.3828125 L146.101562,96.3828125 L146.101562,95.5625 C146.101562,95.11026 145.73349,94.7421875 145.28125,94.7421875 C143.924316,94.7421875 142.820312,93.6381836 142.820312,92.28125 L142.820312,90.3800049 C142.820312,89.9978333 143.084137,89.6662903 143.456696,89.5806275 Z M154.359375,78.710846 L154.359375,77.4609375 C154.359375,77.0086975 153.991302,76.640625 153.539062,76.640625 L150.937347,76.640625 L150.102509,84.1541748 C150.052521,84.6025696 149.964935,85.0400696 149.844452,85.4647522 C150.98349,84.993927 151.983246,84.2449646 152.757629,83.2768249 C153.790497,81.9856872 154.359375,80.3642883 154.359375,78.710846 Z M145.365703,80.4798223 C145.674351,80.5237161 145.93071,80.7404291 146.02576,81.0377203 C146.12081,81.3350115 146.037827,81.6605051 145.811951,81.8757336 L144.501785,83.1249079 L144.810221,84.8834213 C144.863568,85.1879221 144.740363,85.4962398 144.491836,85.6798733 C144.24352,85.8632947 143.912856,85.8900128 143.638291,85.7487889 L142.000002,84.9063225 L140.361502,85.7487889 C140.087571,85.8895887 139.756907,85.8635068 139.507957,85.6798733 C139.259642,85.4964518 139.136436,85.1879221 139.189783,84.8834213 L139.498219,83.1249079 L138.187842,81.8757336 C137.962178,81.6607171 137.879194,81.3350115 137.974244,81.0377203 C138.069294,80.7404291 138.325654,80.5237161 138.63409,80.4798223 L140.460997,80.2202756 L141.274532,78.6082873 C141.412767,78.3341094 141.693471,78.1612903 142.000002,78.1612903 C142.306533,78.1612903 142.587237,78.3341094 142.725473,78.6082873 L143.539007,80.2202756 L145.365703,80.4798223 Z M143.065451,82.2459693 L143.474653,81.8558012 L142.890593,81.7728904 C142.627459,81.73557 142.399254,81.571657 142.279225,81.3339512 L142.000002,80.7805062 L141.720568,81.3341633 C141.60075,81.571657 141.372545,81.73557 141.109411,81.7728904 L140.525352,81.8560132 L140.934553,82.2459693 C141.131639,82.4340559 141.22182,82.7082338 141.174824,82.9768985 L141.073847,83.5519725 L141.628693,83.266768 C141.861767,83.1469609 142.138237,83.1469609 142.371099,83.266768 L142.925946,83.5519725 L142.82518,82.9768985 C142.777972,82.7082338 142.868154,82.4340559 143.065451,82.2459693 Z" id="Combined-Shape" fill="#FFFFFF" fill-rule="nonzero"></path>
                </g>
            </g>
        </g>
    </g>
</svg>