<?xml version="1.0" encoding="UTF-8"?>
<svg width="201px" height="133px" viewBox="0 0 201 133" version="1.1" xmlns="http://www.w3.org/2000/svg" xmlns:xlink="http://www.w3.org/1999/xlink">
    <!-- Generator: Sketch 53.2 (72643) - https://sketchapp.com -->
    <title>active-challenge-chart</title>
    <desc>Created with Sketch.</desc>
    <defs>
        <circle id="path-1" cx="141.5" cy="141.5" r="100.5"></circle>
        <mask id="mask-2" maskContentUnits="userSpaceOnUse" maskUnits="objectBoundingBox" x="0" y="0" width="201" height="201" fill="white">
            <use xlink:href="#path-1"></use>
        </mask>
        <circle id="path-3" cx="141.5" cy="141.5" r="100.5"></circle>
        <mask id="mask-4" maskContentUnits="userSpaceOnUse" maskUnits="objectBoundingBox" x="0" y="0" width="201" height="201" fill="white">
            <use xlink:href="#path-3"></use>
        </mask>
    </defs>
    <g id="Page-1" stroke="none" stroke-width="1" fill="none" fill-rule="evenodd">
        <g id="1-Dashboard" transform="translate(-566.000000, -2047.000000)">
            <g id="total-Challenge" transform="translate(525.000000, 1964.000000)">
                <g id="Active-challenge" transform="translate(0.000000, 42.000000)">
                    <g id="active-challenge-chart">
                        <use id="Oval-Copy" stroke="#EAEAEA" mask="url(#mask-2)" stroke-width="32" stroke-dasharray="202,251" transform="translate(141.500000, 141.500000) rotate(187.000000) translate(-141.500000, -141.500000) " xlink:href="#path-1"></use>
                        <use id="Oval-Copy-9" stroke="#00CC99" mask="url(#mask-4)" stroke-width="32" stroke-dasharray="122,491" transform="translate(141.500000, 141.500000) rotate(142.000000) translate(-141.500000, -141.500000) " xlink:href="#path-3"></use>
                        <circle id="Oval" stroke="#00CC99" fill-opacity="0.176411" fill="#00CC99" cx="141.5" cy="102.5" r="23.5"></circle>
                        <path d="M133.150943,91 C133.620245,91 134,91.4472667 134,92 C134,92.5527333 133.620245,93 133.150943,93 L128.849057,93 C128.379755,93 128,92.5527333 128,92 C128,91.4472667 128.379755,91 128.849057,91 L133.150943,91 Z M133.150943,98 C133.620245,98 134,98.4472667 134,99 C134,99.5527333 133.620245,100 133.150943,100 L128.849057,100 C128.379755,100 128,99.5527333 128,99 C128,98.4472667 128.379755,98 128.849057,98 L133.150943,98 Z M131.150943,94 C131.620245,94 132,94.4472667 132,95 C132,95.5527333 131.620245,96 131.150943,96 L126.849057,96 C126.379755,96 126,95.5527333 126,95 C126,94.4472667 126.379755,94 126.849057,94 L131.150943,94 Z M155.196204,98.5210827 C156.19232,98.5210827 157,99.3449227 157,100.36097 C157,101.377016 156.19232,102.200856 155.196204,102.200856 L147.920893,102.200856 C146.924777,102.200856 146.117097,101.377016 146.117097,100.36097 L146.117097,99.2829185 L143.256397,102.200856 L147.392441,106.419656 C148.097064,107.138377 148.097064,108.302657 147.392441,109.021378 L141.079155,115.460982 C140.374532,116.179703 139.23303,116.179642 138.528467,115.460982 C137.823844,114.742261 137.823844,113.577981 138.528467,112.859259 L143.566409,107.720517 L139.430365,103.501718 C138.725742,102.782997 138.725742,101.618716 139.430365,100.899995 L146.645008,93.5409996 C147.786871,92.3747567 149.724689,93.2255203 149.724689,94.841309 L149.724689,98.5210827 L155.196204,98.5210827 Z M142.696506,89.3179276 L146,91.741707 C145.623164,91.9293564 145.278571,92.1696816 144.986424,92.4792938 L143.239857,94.3302717 L141.932644,93.3323378 L138.052126,97.4448361 C137.353702,98.1850125 136.222242,98.1850757 135.523818,97.4448993 C134.825394,96.7047228 134.825394,95.5056863 135.523818,94.7655099 L140.440618,89.554779 C141.043031,88.9164171 141.985865,88.8173816 142.696506,89.3179276 Z M137.751004,104.678685 L139,105.993939 L130.015542,115.455018 C129.325476,116.181692 128.207556,116.18163 127.517549,115.455018 C126.827484,114.728345 126.827484,113.551182 127.517549,112.824509 L136.847129,103 C137.004645,103.627274 137.303424,104.207361 137.751004,104.678685 Z M150.5,93 C149.119288,93 148,91.8807119 148,90.5 C148,89.1192881 149.119288,88 150.5,88 C151.880712,88 153,89.1192881 153,90.5 C153,91.8807119 151.880712,93 150.5,93 Z" id="Combined-Shape" fill="#00CC99" fill-rule="nonzero"></path>
                    </g>
                </g>
            </g>
        </g>
    </g>
</svg>