<svg xmlns="http://www.w3.org/2000/svg" width="1105.209" height="410" viewBox="0 0 1105.209 410">
  <g id="chart" transform="translate(-164 -203)">
    <text id="_3000_2000_1000_500_300_200_100_50_0" data-name="3000
2000
1000
500
300
200
100
50
0" transform="translate(164 218)" fill="#9a9a9a" font-size="14" font-family="Poppins-Light, Poppins" font-weight="300"><tspan x="0" y="0">3000</tspan><tspan x="0" y="47">2000</tspan><tspan x="0" y="94">1000</tspan><tspan x="0" y="141">500</tspan><tspan x="0" y="188">300</tspan><tspan x="0" y="235">200</tspan><tspan x="0" y="282">100</tspan><tspan x="0" y="329">50</tspan><tspan x="0" y="376">0</tspan></text>
    <g id="Group_507" data-name="Group 507">
      <line id="Line_31" data-name="Line 31" x2="1028.209" transform="translate(220.5 210.5)" fill="none" stroke="#d9d9d9" stroke-width="1"/>
      <line id="Line_32" data-name="Line 32" x2="1028.209" transform="translate(220.5 260.5)" fill="none" stroke="#d9d9d9" stroke-width="1"/>
      <line id="Line_33" data-name="Line 33" x2="1028.209" transform="translate(220.5 310.5)" fill="none" stroke="#d9d9d9" stroke-width="1"/>
      <line id="Line_34" data-name="Line 34" x2="1028.209" transform="translate(220.5 360.5)" fill="none" stroke="#d9d9d9" stroke-width="1"/>
      <line id="Line_35" data-name="Line 35" x2="1028.209" transform="translate(220.5 410.5)" fill="none" stroke="#d9d9d9" stroke-width="1"/>
      <line id="Line_36" data-name="Line 36" x2="1028.209" transform="translate(220.5 460.5)" fill="none" stroke="#d9d9d9" stroke-width="1"/>
      <line id="Line_37" data-name="Line 37" x2="1028.209" transform="translate(220.5 510.5)" fill="none" stroke="#d9d9d9" stroke-width="1"/>
      <line id="Line_38" data-name="Line 38" x2="1028.209" transform="translate(220.5 560.5)" fill="none" stroke="#d9d9d9" stroke-width="1"/>
    </g>
    <g id="Group_506" data-name="Group 506">
      <text id="Apr_1" data-name="Apr 1" transform="translate(204 608)" fill="#9a9a9a" font-size="14" font-family="Poppins-Light, Poppins" font-weight="300"><tspan x="0" y="0">Apr 1</tspan></text>
      <text id="Apr_2" data-name="Apr 2" transform="translate(274 608)" fill="#9a9a9a" font-size="14" font-family="Poppins-Light, Poppins" font-weight="300"><tspan x="0" y="0">Apr 2</tspan></text>
      <text id="Apr_3" data-name="Apr 3" transform="translate(351.771 608)" fill="#9a9a9a" font-size="14" font-family="Poppins-Light, Poppins" font-weight="300"><tspan x="0" y="0">Apr 3</tspan></text>
      <text id="Apr_4" data-name="Apr 4" transform="translate(424.793 608)" fill="#9a9a9a" font-size="14" font-family="Poppins-Light, Poppins" font-weight="300"><tspan x="0" y="0">Apr 4</tspan></text>
      <text id="Apr_5" data-name="Apr 5" transform="translate(497.815 608)" fill="#9a9a9a" font-size="14" font-family="Poppins-Light, Poppins" font-weight="300"><tspan x="0" y="0">Apr 5</tspan></text>
      <text id="Apr_6" data-name="Apr 6" transform="translate(570.838 608)" fill="#9a9a9a" font-size="14" font-family="Poppins-Light, Poppins" font-weight="300"><tspan x="0" y="0">Apr 6</tspan></text>
      <text id="Apr_7" data-name="Apr 7" transform="translate(643.84 608)" fill="#9a9a9a" font-size="14" font-family="Poppins-Light, Poppins" font-weight="300"><tspan x="0" y="0">Apr 7</tspan></text>
      <text id="Apr_8" data-name="Apr 8" transform="translate(716.882 608)" fill="#9a9a9a" font-size="14" font-family="Poppins-Light, Poppins" font-weight="300"><tspan x="0" y="0">Apr 8</tspan></text>
      <text id="Apr_9" data-name="Apr 9" transform="translate(789.904 608)" fill="#9a9a9a" font-size="14" font-family="Poppins-Light, Poppins" font-weight="300"><tspan x="0" y="0">Apr 9</tspan></text>
      <text id="Apr_10" data-name="Apr 10" transform="translate(863.04 608)" fill="#9a9a9a" font-size="14" font-family="Poppins-Light, Poppins" font-weight="300"><tspan x="0" y="0">Apr 10</tspan></text>
      <text id="Apr_11" data-name="Apr 11" transform="translate(935.948 608)" fill="#9a9a9a" font-size="14" font-family="Poppins-Light, Poppins" font-weight="300"><tspan x="0" y="0">Apr 11</tspan></text>
      <text id="Apr_12" data-name="Apr 12" transform="translate(1009.108 608)" fill="#9a9a9a" font-size="14" font-family="Poppins-Light, Poppins" font-weight="300"><tspan x="0" y="0">Apr 12</tspan></text>
      <text id="Apr_13" data-name="Apr 13" transform="translate(1088.209 608)" fill="#9a9a9a" font-size="14" font-family="Poppins-Light, Poppins" font-weight="300"><tspan x="0" y="0">Apr 13</tspan></text>
      <text id="Apr_14" data-name="Apr 14" transform="translate(1158.209 608)" fill="#9a9a9a" font-size="14" font-family="Poppins-Light, Poppins" font-weight="300"><tspan x="0" y="0">Apr 14</tspan></text>
      <text id="Apr_15" data-name="Apr 15" transform="translate(1228.209 608)" fill="#9a9a9a" font-size="14" font-family="Poppins-Light, Poppins" font-weight="300"><tspan x="0" y="0">Apr 15</tspan></text>
    </g>
    <path id="Path_202" data-name="Path 202" d="M484.269,470.178s22.758,2.451,45.167-32.562S572.852,403.3,579.5,403.3s30.111-4.2,44.466-38.164,32.912-46.917,44.816-46.917,31.161-4.9,46.917-24.159,42.716-53.92,79.129-23.809c4.2,7,12.6,18.907,23.809,42.716s30.461,45.867,65.124,35.363,68.975-44.466,92.434-15.756c2.1,2.451,9.8,7,29.761,63.023s26.259,63.373,59.872,60.922,53.57-32.212,97.686-20.307,46.567,37.814,93.834,23.459,21.708-32.562,63.723-41.315,36.763-2.8,54.62-25.559,51.819-45.167,79.829-23.108,37.114,43.766,66.524,40.265" transform="translate(-268 73)" fill="none" stroke="#12a7ff" stroke-linecap="round" stroke-width="4"/>
    <g id="Group_505" data-name="Group 505">
      <g id="Ellipse_8" data-name="Ellipse 8" transform="translate(280 476)" fill="#273033" stroke="#fff" stroke-width="3">
        <circle cx="8" cy="8" r="8" stroke="none"/>
        <circle cx="8" cy="8" r="6.5" fill="none"/>
      </g>
      <g id="Ellipse_9" data-name="Ellipse 9" transform="translate(359 409)" fill="#273033" stroke="#fff" stroke-width="3">
        <circle cx="8" cy="8" r="8" stroke="none"/>
        <circle cx="8" cy="8" r="6.5" fill="none"/>
      </g>
      <g id="Ellipse_10" data-name="Ellipse 10" transform="translate(435 363)" fill="#273033" stroke="#fff" stroke-width="3">
        <circle cx="8" cy="8" r="8" stroke="none"/>
        <circle cx="8" cy="8" r="6.5" fill="none"/>
      </g>
      <g id="Ellipse_11" data-name="Ellipse 11" transform="translate(508 328)" fill="#273033" stroke="#fff" stroke-width="3">
        <circle cx="8" cy="8" r="8" stroke="none"/>
        <circle cx="8" cy="8" r="6.5" fill="none"/>
      </g>
      <g id="Ellipse_12" data-name="Ellipse 12" transform="translate(581 412)" fill="#273033" stroke="#fff" stroke-width="3">
        <circle cx="8" cy="8" r="8" stroke="none"/>
        <circle cx="8" cy="8" r="6.5" fill="none"/>
      </g>
      <g id="Ellipse_13" data-name="Ellipse 13" transform="translate(653 392)" fill="#273033" stroke="#fff" stroke-width="3">
        <circle cx="8" cy="8" r="8" stroke="none"/>
        <circle cx="8" cy="8" r="6.5" fill="none"/>
      </g>
      <g id="Ellipse_22" data-name="Ellipse 22" transform="translate(709 408)" fill="#fff" stroke="#273033" stroke-width="1">
        <circle cx="11" cy="11" r="11" stroke="none"/>
        <circle cx="11" cy="11" r="10.5" fill="none"/>
      </g>
      <g id="Ellipse_14" data-name="Ellipse 14" transform="translate(712 411)" fill="#273033" stroke="#fff" stroke-width="3">
        <circle cx="8" cy="8" r="8" stroke="none"/>
        <circle cx="8" cy="8" r="6.5" fill="none"/>
      </g>
      <g id="Ellipse_15" data-name="Ellipse 15" transform="translate(800 518)" fill="#273033" stroke="#fff" stroke-width="3">
        <circle cx="8" cy="8" r="8" stroke="none"/>
        <circle cx="8" cy="8" r="6.5" fill="none"/>
      </g>
      <g id="Ellipse_16" data-name="Ellipse 16" transform="translate(867 498)" fill="#273033" stroke="#fff" stroke-width="3">
        <circle cx="8" cy="8" r="8" stroke="none"/>
        <circle cx="8" cy="8" r="6.5" fill="none"/>
      </g>
      <g id="Ellipse_17" data-name="Ellipse 17" transform="translate(944 526)" fill="#273033" stroke="#fff" stroke-width="3">
        <circle cx="8" cy="8" r="8" stroke="none"/>
        <circle cx="8" cy="8" r="6.5" fill="none"/>
      </g>
      <g id="Ellipse_18" data-name="Ellipse 18" transform="translate(1019 499)" fill="#273033" stroke="#fff" stroke-width="3">
        <circle cx="8" cy="8" r="8" stroke="none"/>
        <circle cx="8" cy="8" r="6.5" fill="none"/>
      </g>
      <g id="Ellipse_19" data-name="Ellipse 19" transform="translate(1092 465)" fill="#273033" stroke="#fff" stroke-width="3">
        <circle cx="8" cy="8" r="8" stroke="none"/>
        <circle cx="8" cy="8" r="6.5" fill="none"/>
      </g>
      <g id="Ellipse_20" data-name="Ellipse 20" transform="translate(1162 426)" fill="#273033" stroke="#fff" stroke-width="3">
        <circle cx="8" cy="8" r="8" stroke="none"/>
        <circle cx="8" cy="8" r="6.5" fill="none"/>
      </g>
      <g id="Ellipse_21" data-name="Ellipse 21" transform="translate(1244 475)" fill="#273033" stroke="#fff" stroke-width="3">
        <circle cx="8" cy="8" r="8" stroke="none"/>
        <circle cx="8" cy="8" r="6.5" fill="none"/>
      </g>
    </g>
    <g id="Group_504" data-name="Group 504">
      <g id="Rectangle_160" data-name="Rectangle 160" transform="translate(704 369)" fill="#fff" stroke="#b7b7b7" stroke-width="1">
        <rect width="86" height="29" rx="14.5" stroke="none"/>
        <rect x="0.5" y="0.5" width="85" height="28" rx="14" fill="none"/>
      </g>
      <text id="_350.00" data-name="$ 350.00" transform="translate(719 389)" fill="#9a9a9a" font-size="14" font-family="Poppins-Light, Poppins" font-weight="300"><tspan x="0" y="0">$ 350.00</tspan></text>
    </g>
    <g id="Group_461" data-name="Group 461" transform="translate(19 -5)">
      <g id="Rectangle_188" data-name="Rectangle 188" transform="translate(1056 216)" fill="rgba(18,167,255,0.27)" stroke="#12a7ff" stroke-width="1">
        <rect width="175" height="84" rx="5" stroke="none"/>
        <rect x="0.5" y="0.5" width="174" height="83" rx="4.5" fill="none"/>
      </g>
      <text id="Total_Earning" data-name="Total Earning" transform="translate(1077 280)" font-size="16" font-family="Poppins-Light, Poppins" font-weight="300"><tspan x="0" y="0">Total Earning</tspan></text>
      <text id="_20k" data-name="$20k" transform="translate(1077 256)" font-size="24" font-family="Poppins-Bold, Poppins" font-weight="700"><tspan x="0" y="0">$20k</tspan></text>
    </g>
  </g>
</svg>
