<?xml version="1.0" encoding="UTF-8"?>
<svg width="176px" height="176px" viewBox="0 0 176 176" version="1.1" xmlns="http://www.w3.org/2000/svg" xmlns:xlink="http://www.w3.org/1999/xlink">
    <!-- Generator: Sketch 53.2 (72643) - https://sketchapp.com -->
    <title>community-chart</title>
    <desc>Created with Sketch.</desc>
    <defs>
        <linearGradient x1="86.8291444%" y1="27.0619007%" x2="16.3922353%" y2="75.5637141%" id="linearGradient-1">
            <stop stop-color="#D4373B" offset="0%"></stop>
            <stop stop-color="#FE794C" offset="100%"></stop>
        </linearGradient>
    </defs>
    <g id="Page-1" stroke="none" stroke-width="1" fill="none" fill-rule="evenodd">
        <g id="1-Dashboard" transform="translate(-632.000000, -843.000000)">
            <g id="New-users-Copy-4" transform="translate(534.000000, 772.000000)">
                <g id="community-chart" transform="translate(70.000000, 43.000000)">
                    <circle id="Oval-Copy-2" stroke-opacity="0.1" stroke="#000000" stroke-width="10" stroke-linecap="round" transform="translate(115.802959, 115.802959) rotate(212.000000) translate(-115.802959, -115.802959) " cx="115.802959" cy="115.802959" r="82.5"></circle>
                    <path d="M115.802959,198.302959 C161.366451,198.302959 198.302959,161.366451 198.302959,115.802959 C198.302959,70.239467 161.366451,33.3029589 115.802959,33.3029589 C70.239467,33.3029589 33.3029589,70.239467 33.3029589,115.802959 C33.3029589,161.366451 70.239467,198.302959 115.802959,198.302959 Z" id="Oval-Copy-6" stroke="url(#linearGradient-1)" stroke-width="10" fill="#FFFFFF" stroke-linecap="round" stroke-dasharray="234,234" transform="translate(115.802959, 115.802959) rotate(142.000000) translate(-115.802959, -115.802959) "></path>
                    <path d="M116,65.5087719 C109.508232,65.5087719 104.245614,60.2461541 104.245614,53.754386 C104.245614,47.2626179 109.508232,42 116,42 C122.491768,42 127.754386,47.2626179 127.754386,53.754386 C127.754386,60.2461541 122.491768,65.5087719 116,65.5087719 Z M135.544351,58.4561404 C142.507265,60.0176369 147.736583,66.2612741 147.736842,73.733908 L147.736842,89.4083787 C147.736842,93.7287888 144.242419,97.245614 139.949529,97.245614 C135.656639,97.245614 132.162216,93.7287888 132.162216,89.4083787 L132.162216,81.5711433 L101.013223,81.5711433 L101.013223,89.4083787 C101.013223,93.7287888 97.5187992,97.245614 93.2259096,97.245614 C88.93302,97.245614 85.4385965,93.7287888 85.4385965,89.4083787 L85.4385965,73.733908 C85.4385965,66.2612741 90.6676545,60.0176369 97.6308282,58.4561404 C99.5941885,67.1836088 107.330674,73.733908 116.58759,73.733908 C125.844506,73.733908 133.580991,67.1836088 135.544351,58.4561404 Z M176.975499,138.787239 C182.549673,142.032528 184.718744,149.220016 181.500198,154.841218 C178.282169,160.462159 170.894959,162.38825 165.320786,159.1427 C159.746095,155.897672 157.836288,148.709662 161.054575,143.088721 C164.273122,137.467258 171.400809,135.541689 176.975499,138.787239 Z M169.340699,110.907516 C175.786155,114.675323 178.550647,122.419908 176.40762,129.326764 C167.896332,126.652242 158.369804,130.148702 153.73078,138.285174 C149.091757,146.421647 150.8644,156.524138 157.407586,162.650114 C152.571804,167.98284 144.566317,169.430903 138.120861,165.663096 L124.602505,157.759809 C120.876055,155.581397 119.594138,150.737149 121.745482,146.963816 C123.896827,143.190482 128.680885,141.892436 132.407335,144.070848 L139.166773,148.02236 L154.776952,120.644701 L148.017514,116.693189 C144.291064,114.514778 143.009146,109.67053 145.160491,105.897196 C147.311835,102.123862 152.095893,100.825817 155.822343,103.004228 L169.340699,110.907516 Z M70.9454323,143.088742 C74.1637041,148.709593 72.2539064,155.897227 66.6792426,159.142725 C61.1050964,162.388223 53.717923,160.462163 50.4999099,154.841312 C47.2811205,149.219939 49.4504397,142.032566 55.0245859,138.787329 C60.5992496,135.54157 67.7269016,137.46737 70.9454323,143.088742 Z M110.254506,146.963647 C112.405855,150.736713 111.123935,155.581219 107.397738,157.759627 L93.8793551,165.663169 C87.433886,169.430972 79.4283836,167.982647 74.5925923,162.650191 C81.1357909,156.523959 82.9084379,146.421742 78.2694052,138.285279 C73.6303725,130.148815 64.1035647,126.652097 55.59252,129.326879 C53.4492286,122.419767 56.2137262,114.675191 62.6591953,110.907388 L76.1775778,103.00411 C79.9037753,100.825964 84.6881026,102.123745 86.8394514,105.897075 C88.9905403,109.670141 87.7088802,114.514646 83.9824228,116.693055 L77.2229716,120.644563 L92.8331815,148.02219 L99.5926327,144.070682 C103.31883,141.892537 108.103158,143.190318 110.254506,146.963647 Z" id="Combined-Shape" fill-opacity="0.100060096" fill="#000000" fill-rule="nonzero"></path>
                </g>
            </g>
        </g>
    </g>
</svg>