<svg xmlns="http://www.w3.org/2000/svg" xmlns:xlink="http://www.w3.org/1999/xlink" width="730" height="274" viewBox="0 0 730 274">
  <defs>
    <clipPath id="clip-path">
      <rect width="693" height="17" fill="none"/>
    </clipPath>
    <linearGradient id="linear-gradient" x1="0.5" y1="0.265" x2="0.5" y2="1" gradientUnits="objectBoundingBox">
      <stop offset="0" stop-color="#41c5d3"/>
      <stop offset="1" stop-color="#fff"/>
    </linearGradient>
  </defs>
  <g id="Group_456" data-name="Group 456" transform="translate(-153 -136)">
    <g id="Group_423" data-name="Group 423" transform="translate(-394 -1002)">
      <g id="Repeat_Grid_1" data-name="Repeat Grid 1" transform="translate(584 1395)" clip-path="url(#clip-path)">
        <g transform="translate(-584 -1395)">
          <text id="Apr_1" data-name="Apr 1" transform="translate(584 1408)" fill="#9a9a9a" font-size="12" font-family="Poppins-Light, Poppins" font-weight="300"><tspan x="0" y="0">Apr 1</tspan></text>
        </g>
        <g transform="translate(-534 -1395)">
          <text id="Apr_2" data-name="Apr 2" transform="translate(584 1408)" fill="#9a9a9a" font-size="12" font-family="Poppins-Light, Poppins" font-weight="300"><tspan x="0" y="0">Apr 2</tspan></text>
        </g>
        <g transform="translate(-484 -1395)">
          <text id="Apr_3" data-name="Apr 3" transform="translate(584 1408)" fill="#9a9a9a" font-size="12" font-family="Poppins-Light, Poppins" font-weight="300"><tspan x="0" y="0">Apr 3</tspan></text>
        </g>
        <g transform="translate(-434 -1395)">
          <text id="Apr_4" data-name="Apr 4" transform="translate(584 1408)" fill="#9a9a9a" font-size="12" font-family="Poppins-Light, Poppins" font-weight="300"><tspan x="0" y="0">Apr 4</tspan></text>
        </g>
        <g transform="translate(-384 -1395)">
          <text id="Apr_4-2" data-name="Apr 4" transform="translate(584 1408)" fill="#9a9a9a" font-size="12" font-family="Poppins-Light, Poppins" font-weight="300"><tspan x="0" y="0">Apr 4</tspan></text>
        </g>
        <g transform="translate(-334 -1395)">
          <text id="Apr_5" data-name="Apr 5" transform="translate(584 1408)" fill="#9a9a9a" font-size="12" font-family="Poppins-Light, Poppins" font-weight="300"><tspan x="0" y="0">Apr 5</tspan></text>
        </g>
        <g transform="translate(-284 -1395)">
          <text id="Apr_6" data-name="Apr 6" transform="translate(584 1408)" fill="#9a9a9a" font-size="12" font-family="Poppins-Light, Poppins" font-weight="300"><tspan x="0" y="0">Apr 6</tspan></text>
        </g>
        <g transform="translate(-234 -1395)">
          <text id="Apr_7" data-name="Apr 7" transform="translate(584 1408)" fill="#9a9a9a" font-size="12" font-family="Poppins-Light, Poppins" font-weight="300"><tspan x="0" y="0">Apr 7</tspan></text>
        </g>
        <g transform="translate(-184 -1395)">
          <text id="Apr_8" data-name="Apr 8" transform="translate(584 1408)" fill="#9a9a9a" font-size="12" font-family="Poppins-Light, Poppins" font-weight="300"><tspan x="0" y="0">Apr 8</tspan></text>
        </g>
        <g transform="translate(-134 -1395)">
          <text id="Apr_9" data-name="Apr 9" transform="translate(584 1408)" fill="#9a9a9a" font-size="12" font-family="Poppins-Light, Poppins" font-weight="300"><tspan x="0" y="0">Apr 9</tspan></text>
        </g>
        <g transform="translate(-84 -1395)">
          <text id="Apr_10" data-name="Apr 10" transform="translate(584 1408)" fill="#9a9a9a" font-size="12" font-family="Poppins-Light, Poppins" font-weight="300"><tspan x="0" y="0">Apr 10</tspan></text>
        </g>
        <g transform="translate(-34 -1395)">
          <text id="Apr_11" data-name="Apr 11" transform="translate(584 1408)" fill="#9a9a9a" font-size="12" font-family="Poppins-Light, Poppins" font-weight="300"><tspan x="0" y="0">Apr 11</tspan></text>
        </g>
        <g transform="translate(16 -1395)">
          <text id="Apr_12" data-name="Apr 12" transform="translate(584 1408)" fill="#9a9a9a" font-size="12" font-family="Poppins-Light, Poppins" font-weight="300"><tspan x="0" y="0">Apr 12</tspan></text>
        </g>
        <g transform="translate(66 -1395)">
          <text id="Apr_13" data-name="Apr 13" transform="translate(584 1408)" fill="#9a9a9a" font-size="12" font-family="Poppins-Light, Poppins" font-weight="300"><tspan x="0" y="0">Apr 13</tspan></text>
        </g>
      </g>
    </g>
    <text id="_300_200_100_50_0" data-name="
300
200
100
50
0" transform="translate(153 149)" fill="#9a9a9a" font-size="12" font-family="Poppins-Light, Poppins" font-weight="300"><tspan x="0" y="0"></tspan><tspan x="0" y="47">300</tspan><tspan x="0" y="94">200</tspan><tspan x="0" y="141">100</tspan><tspan x="0" y="188">50</tspan><tspan x="0" y="235">0</tspan></text>
    <g id="horizentle_line" data-name="horizentle line" transform="translate(-10.5 18)">
      <line id="Line_39" data-name="Line 39" x2="681.5" transform="translate(200.5 173.5)" fill="none" stroke="#dcdcdc" stroke-width="1"/>
      <line id="Line_40" data-name="Line 40" x2="681.5" transform="translate(200.5 223.5)" fill="none" stroke="#dcdcdc" stroke-width="1"/>
      <line id="Line_41" data-name="Line 41" x2="681.5" transform="translate(200.5 268.5)" fill="none" stroke="#dcdcdc" stroke-width="1"/>
      <line id="Line_42" data-name="Line 42" x2="681.5" transform="translate(200.5 314.5)" fill="none" stroke="#dcdcdc" stroke-width="1"/>
      <line id="Line_43" data-name="Line 43" x2="681.5" transform="translate(200.5 364.5)" fill="none" stroke="#dcdcdc" stroke-width="1"/>
    </g>
    <g id="vartical_line" data-name="vartical line">
      <line id="Line_46" data-name="Line 46" y2="191" transform="translate(204 192)" fill="none" stroke="#dcdcdc" stroke-width="1"/>
      <line id="Line_47" data-name="Line 47" y2="191" transform="translate(255 192)" fill="none" stroke="#dcdcdc" stroke-width="1"/>
      <line id="Line_48" data-name="Line 48" y2="191" transform="translate(305 192)" fill="none" stroke="#dcdcdc" stroke-width="1"/>
      <line id="Line_49" data-name="Line 49" y2="191" transform="translate(356 192)" fill="none" stroke="#dcdcdc" stroke-width="1"/>
      <line id="Line_50" data-name="Line 50" y2="191" transform="translate(405 192)" fill="none" stroke="#dcdcdc" stroke-width="1"/>
      <line id="Line_51" data-name="Line 51" y2="191" transform="translate(455 192)" fill="none" stroke="#dcdcdc" stroke-width="1"/>
      <line id="Line_52" data-name="Line 52" y2="191" transform="translate(505 192)" fill="none" stroke="#dcdcdc" stroke-width="1"/>
      <line id="Line_53" data-name="Line 53" y2="191" transform="translate(555 192)" fill="none" stroke="#dcdcdc" stroke-width="1"/>
      <line id="Line_54" data-name="Line 54" y2="191" transform="translate(605 192)" fill="none" stroke="#dcdcdc" stroke-width="1"/>
      <line id="Line_55" data-name="Line 55" y2="191" transform="translate(655 192)" fill="none" stroke="#dcdcdc" stroke-width="1"/>
      <line id="Line_56" data-name="Line 56" y2="191" transform="translate(707 192)" fill="none" stroke="#dcdcdc" stroke-width="1"/>
      <line id="Line_57" data-name="Line 57" y2="191" transform="translate(759 192)" fill="none" stroke="#dcdcdc" stroke-width="1"/>
      <line id="Line_58" data-name="Line 58" y2="191" transform="translate(809 192)" fill="none" stroke="#dcdcdc" stroke-width="1"/>
      <line id="Line_59" data-name="Line 59" y2="191" transform="translate(858 192)" fill="none" stroke="#dcdcdc" stroke-width="1"/>
    </g>
    <g id="downloaded">
      <path id="Path_273" data-name="Path 273" d="M204,270s44.917,28.531,49.694,31.288,47.517,23.252,78.244,27.333,49.851,2.306,69.054-7.882,44.1-34.7,44.1-34.7,30.889-24.347,59.178-22.131,34.006,4.307,51.327,22.131,37.21,41.52,37.21,41.52,22.413,27.988,71.242,27.207c22.565-4.865,54-14.6,75.091-29.071s60.7-41.945,60.7-41.945l58.873-59.519V382.75H204Z" opacity="0.335" fill="url(#linear-gradient)"/>
      <path id="Path_270" data-name="Path 270" d="M204,309.915s79.291,60.159,152.837,61,75.735-67.791,148.511-68,64.767,90.341,152,91,203.757-131,203.757-131" transform="translate(0 -40)" fill="none" stroke="#41c5d3" stroke-linecap="round" stroke-width="3"/>
    </g>
  </g>
</svg>
