<?xml version="1.0" encoding="UTF-8"?>
<svg width="181px" height="181px" viewBox="0 0 181 181" version="1.1" xmlns="http://www.w3.org/2000/svg" xmlns:xlink="http://www.w3.org/1999/xlink">
    <!-- Generator: Sketch 53.2 (72643) - https://sketchapp.com -->
    <title>locale-chart</title>
    <desc>Created with Sketch.</desc>
    <defs>
        <linearGradient x1="50%" y1="107.216071%" x2="50%" y2="-14.1357143%" id="linearGradient-1">
            <stop stop-color="#006DF0" offset="0%"></stop>
            <stop stop-color="#00E7F0" offset="100%"></stop>
        </linearGradient>
    </defs>
    <g id="Page-1" stroke="none" stroke-width="1" fill="none" fill-rule="evenodd">
        <g id="1-Dashboard" transform="translate(-1028.000000, -2409.000000)">
            <g id="total-Challenge-Copy" transform="translate(933.000000, 2326.000000)">
                <g id="locale-chart" transform="translate(63.000000, 51.000000)">
                    <circle id="Oval-Copy" stroke="#DADADA" fill="#FFFFFF" cx="122.5" cy="122.5" r="90"></circle>
                    <path d="M122.568389,209.568389 C170.617162,209.568389 209.568389,170.617162 209.568389,122.568389 C209.568389,74.5196154 170.617162,35.5683886 122.568389,35.5683886 C74.5196154,35.5683886 35.5683886,74.5196154 35.5683886,122.568389 C35.5683886,170.617162 74.5196154,209.568389 122.568389,209.568389 Z" id="Oval-Copy-2" stroke="url(#linearGradient-1)" stroke-width="6" fill="#FFFFFF" stroke-linecap="round" stroke-dasharray="219,177" transform="translate(122.568389, 122.568389) rotate(140.000000) translate(-122.568389, -122.568389) "></path>
                    <path d="M161.333333,135.448333 L161.333333,115.333333 L124.666667,115.333333 L124.666667,98.5516667 C131.233333,97.7266667 136.333333,92.12 136.333333,85.3333333 C136.333333,77.9816667 130.351667,72 123,72 C115.648333,72 109.666667,77.9816667 109.666667,85.3333333 C109.666667,92.12 114.766667,97.7266667 121.333333,98.5516667 L121.333333,115.333333 L84.6666667,115.333333 L84.6666667,135.448333 C78.1,136.273333 73,141.88 73,148.666667 C73,156.018333 78.9816667,162 86.3333333,162 C93.685,162 99.6666667,156.018333 99.6666667,148.666667 C99.6666667,141.88 94.5666667,136.273333 88,135.448333 L88,118.666667 L121.333333,118.666667 L121.333333,135.448333 C114.766667,136.273333 109.666667,141.88 109.666667,148.666667 C109.666667,156.018333 115.648333,162 123,162 C130.351667,162 136.333333,156.018333 136.333333,148.666667 C136.333333,141.88 131.233333,136.273333 124.666667,135.448333 L124.666667,118.666667 L158,118.666667 L158,135.448333 C151.433333,136.273333 146.333333,141.88 146.333333,148.666667 C146.333333,156.018333 152.315,162 159.666667,162 C167.018333,162 173,156.018333 173,148.666667 C173,141.88 167.9,136.273333 161.333333,135.448333 Z M113,85.3333333 C113,79.8183333 117.485,75.3333333 123,75.3333333 C128.515,75.3333333 133,79.8183333 133,85.3333333 C133,90.8483333 128.515,95.3333333 123,95.3333333 C117.485,95.3333333 113,90.8483333 113,85.3333333 Z M96.3333333,148.666667 C96.3333333,154.181667 91.8483333,158.666667 86.3333333,158.666667 C80.8183333,158.666667 76.3333333,154.181667 76.3333333,148.666667 C76.3333333,143.151667 80.8183333,138.666667 86.3333333,138.666667 C91.8483333,138.666667 96.3333333,143.151667 96.3333333,148.666667 Z M133,148.666667 C133,154.181667 128.515,158.666667 123,158.666667 C117.485,158.666667 113,154.181667 113,148.666667 C113,143.151667 117.485,138.666667 123,138.666667 C128.515,138.666667 133,143.151667 133,148.666667 Z M159.666667,158.666667 C154.151667,158.666667 149.666667,154.181667 149.666667,148.666667 C149.666667,143.151667 154.151667,138.666667 159.666667,138.666667 C165.181667,138.666667 169.666667,143.151667 169.666667,148.666667 C169.666667,154.181667 165.181667,158.666667 159.666667,158.666667 Z" id="Shape" fill="#E8E8E8" fill-rule="nonzero"></path>
                </g>
            </g>
        </g>
    </g>
</svg>