<?xml version="1.0" encoding="UTF-8"?>
<svg width="210px" height="146px" viewBox="0 0 210 146" version="1.1" xmlns="http://www.w3.org/2000/svg" xmlns:xlink="http://www.w3.org/1999/xlink">
    <!-- Generator: Sketch 53.2 (72643) - https://sketchapp.com -->
    <title>chart 1 copy 9</title>
    <desc>Created with Sketch.</desc>
    <defs>
        <linearGradient x1="86.8291444%" y1="27.0619007%" x2="16.3922353%" y2="75.5637141%" id="linearGradient-1">
            <stop stop-color="#2E3192" offset="0%"></stop>
            <stop stop-color="#1BFFFF" offset="100%"></stop>
        </linearGradient>
    </defs>
    <g id="Page-1" stroke="none" stroke-width="1" fill="none" fill-rule="evenodd">
        <g id="1-Dashboard" transform="translate(-215.000000, -841.000000)">
            <g id="New-users-Copy-5" transform="translate(134.000000, 772.000000)">
                <g id="chart-1-copy-9" transform="translate(54.000000, 42.000000)">
                    <g id="merchant-chart" transform="translate(0.568389, 0.568389)">
                        <path d="M131,226 C183.467051,226 226,183.467051 226,131 C226,78.5329488 183.467051,36 131,36 C78.5329488,36 36,78.5329488 36,131 C36,183.467051 78.5329488,226 131,226 Z" id="Oval-Copy-2" stroke="#ACD9D9" stroke-width="19" stroke-linecap="round" stroke-dasharray="234,234" transform="translate(131.000000, 131.000000) rotate(212.000000) translate(-131.000000, -131.000000) "></path>
                        <path d="M131,226 C183.467051,226 226,183.467051 226,131 C226,78.5329488 183.467051,36 131,36 C78.5329488,36 36,78.5329488 36,131 C36,183.467051 78.5329488,226 131,226 Z" id="Oval-Copy-6" stroke="url(#linearGradient-1)" stroke-width="10" stroke-linecap="round" stroke-dasharray="234,234" transform="translate(131.000000, 131.000000) rotate(212.000000) translate(-131.000000, -131.000000) "></path>
                        <path d="M166.126597,107.731088 C166.845682,108.083239 167.137197,108.939387 166.777558,109.643499 C166.52253,110.142745 166.0084,110.431611 165.474473,110.431611 C165.255739,110.431611 165.033706,110.38334 164.824677,110.280907 C162.523025,109.154136 157.773188,108.90746 156.137247,108.90727 C155.333348,108.90727 154.681611,108.269102 154.681611,107.48194 C154.681611,106.694779 155.333348,106.056611 156.137247,106.056611 C156.405473,106.056611 162.745252,106.075806 166.126597,107.731088 Z M173.050705,128.113029 C175.630096,128.848154 177.431611,131.230295 177.431611,133.906219 L177.431611,145.749921 C177.431611,146.540596 176.788869,147.181611 175.996065,147.181611 C175.20326,147.181611 174.560518,146.540596 174.560518,145.749921 L174.560518,133.906219 C174.560518,132.502399 173.615162,131.252629 172.26192,130.867027 L166.33292,129.177633 C166.118928,129.116739 165.915654,129.033892 165.722143,128.935773 L162.082361,132.565775 L162.082361,145.749921 C162.082361,146.540596 161.439619,147.181611 160.646815,147.181611 C159.85401,147.181611 159.211268,146.540596 159.211268,145.749921 L159.211268,132.565775 L155.546029,128.910384 C155.056029,129.149954 154.567943,129.289496 154.210205,129.391432 L153.855529,129.492414 C155.185803,130.873136 155.978799,132.74006 155.978799,134.730681 L155.978799,145.749921 C155.978799,146.540596 155.336057,147.181611 154.543252,147.181611 C153.750447,147.181611 153.107705,146.540596 153.107705,145.749921 L153.107705,134.730681 C153.107705,132.765257 151.863182,130.993398 150.011135,130.321649 L140.699029,126.944579 L136.822287,132.743877 C136.326736,133.485302 135.532592,133.960814 134.643318,134.048624 C134.544361,134.05836 134.445596,134.063132 134.347404,134.063132 C133.56283,134.063132 132.811561,133.755223 132.250166,133.195146 L129.88515,130.836485 L129.88515,145.749731 C129.88515,146.540405 129.242408,147.181421 128.449604,147.181421 C127.656799,147.181421 127.014057,146.540405 127.014057,145.749731 L127.014057,130.836485 L124.649041,133.195146 C124.087455,133.755032 123.336186,134.062941 122.551803,134.062941 C122.45342,134.062941 122.354846,134.058169 122.255697,134.048433 C121.366615,133.960623 120.572471,133.485111 120.07692,132.743687 L116.200369,126.944197 L106.888072,130.321267 C105.035834,130.993016 103.791502,132.764876 103.791502,134.7303 L103.791502,145.74954 C103.791502,146.540214 103.14876,147.18123 102.355955,147.18123 C101.56315,147.18123 100.920408,146.540214 100.920408,145.74954 L100.920408,134.7303 C100.920408,133.286583 101.33844,131.908343 102.074971,130.733021 L100.510799,129.953037 L98.8423106,131.534386 C97.6758809,132.639841 96.1783184,133.192855 94.6813302,133.192855 C93.1839591,133.192855 91.6871622,132.640223 90.5203497,131.534386 L88.85167,129.952846 L84.0544552,132.344913 C82.9739669,132.883801 82.3027052,133.967113 82.3027052,135.172024 L82.3027052,145.749158 C82.3027052,146.539833 81.659963,147.180848 80.8671583,147.180848 C80.0743536,147.180848 79.4316114,146.539833 79.4316114,145.749158 L79.4316114,135.172024 C79.4316114,132.875784 80.7109708,130.811287 82.770502,129.783524 L86.6229356,127.862578 C82.4860723,126.068194 81.1808731,123.552619 81.1180919,123.427394 C80.9159669,123.024421 80.9159669,122.549863 81.1180919,122.14689 C82.1528341,120.082584 82.2783966,116.299296 82.3790762,113.259341 C82.4125723,112.247041 82.4443458,111.290863 82.5050216,110.439294 C82.9942559,103.571954 88.2290255,98.3934363 94.6813302,98.3934363 C101.133635,98.3934363 106.368213,103.572145 106.857639,110.439294 C106.918315,111.290672 106.950088,112.24685 106.983584,113.258959 C107.084264,116.299105 107.209635,120.082775 108.244568,122.147081 C108.446693,122.550054 108.446693,123.024612 108.244568,123.427585 C108.181787,123.55281 106.873908,126.073539 102.745275,127.865824 L104.132205,128.557425 C104.672162,128.176596 105.266861,127.862197 105.906924,127.630072 L114.739365,124.427095 C114.709315,124.033285 114.842533,123.632794 115.1306,123.330993 L117.804736,120.529081 L117.804736,115.714785 C114.051068,112.536051 111.664998,107.714501 111.664998,102.362654 L111.664998,99.1306612 C110.646334,96.9199411 110.130111,94.5805597 110.130111,92.1713119 L110.130111,89.1095952 C110.130111,81.5676436 116.282482,75.4316114 123.844943,75.4316114 L145.333932,75.4316114 C146.126736,75.4316114 146.769479,76.0726267 146.769479,76.8633013 L146.769479,92.1709301 C146.769479,94.5801779 146.253256,96.9195593 145.234592,99.1302794 L145.234592,102.886652 C145.234592,107.496121 143.299857,111.948486 139.926322,115.102021 C139.656248,115.354381 139.377561,115.592996 139.094854,115.825311 L139.094854,120.52889 L141.76899,123.330802 C142.057057,123.632603 142.190275,124.033094 142.160225,124.426904 L150.528697,127.461705 L153.421611,126.637434 C154.60699,126.299555 154.60699,126.167457 154.60699,125.848477 L154.606607,123.779971 C151.83294,121.779041 150.001756,118.453894 150.001756,114.747917 L150.001756,112.40949 L149.266565,110.943058 C148.743451,109.899642 148.466869,108.731192 148.466869,107.56446 L148.466869,107.479132 C148.466869,102.469362 152.553775,98.3934363 157.577041,98.3934363 L171.391404,98.3934363 C172.184209,98.3934363 172.826951,99.0344516 172.826951,99.8251263 L172.826951,107.203102 C172.826951,108.606158 172.494479,110.011314 171.865326,111.266429 L171.292065,112.409681 L171.292065,115.133137 C171.292065,118.02935 170.144201,120.735244 168.059787,122.752591 C167.629697,123.168926 167.169557,123.541929 166.687213,123.875226 L166.687213,125.848859 C166.687213,126.114389 166.865986,126.350714 167.121897,126.423635 L173.050705,128.113029 Z M88.6411231,125.584282 L88.6411231,123.868354 C86.9697637,122.715367 85.6438927,121.099275 84.8522364,119.206199 C84.6801622,120.441843 84.4259747,121.612393 84.0339747,122.634428 C84.6089591,123.335957 85.9558848,124.62066 88.6411231,125.584282 Z M96.8648927,129.459008 L98.1997598,128.193967 C97.9742833,127.772859 97.8506348,127.295438 97.8506348,126.795301 L97.8508262,125.270456 C96.8476661,125.580846 95.7836387,125.749977 94.681713,125.749977 C93.5784473,125.749977 92.5138458,125.58161 91.5124083,125.269502 L91.5124083,126.795492 C91.5124083,127.295438 91.3885684,127.772668 91.1632833,128.193585 L92.4983419,129.458817 C93.7223848,130.619059 95.6404669,130.61925 96.8648927,129.459008 Z M94.6820958,122.886597 C98.5370177,122.886597 101.775994,120.095374 102.360357,116.337093 C100.038025,111.237031 94.0667247,110.544475 92.2106583,110.453992 L90.0554239,112.683038 C89.5051309,113.252087 88.5963341,113.268695 88.0255606,112.71988 C87.4547872,112.171066 87.4383262,111.264711 87.9886192,110.695471 L90.5787286,108.016492 C90.8396153,107.746571 91.1963966,107.589658 91.5723184,107.579159 C91.6768262,107.576486 94.1532403,107.51941 97.0325645,108.441991 C100.149232,109.440738 102.561334,111.209352 104.123209,113.609246 C104.120338,113.524108 104.117467,113.438398 104.114596,113.353833 C104.082057,112.369593 104.051049,111.439949 103.994393,110.642594 C103.811025,108.070133 102.780303,105.699636 101.0921,103.967482 C99.3885841,102.219675 97.1121895,101.257198 94.681713,101.257198 C92.2512364,101.257198 89.9746505,102.219675 88.2713262,103.967482 C86.5831231,105.699636 85.5524005,108.070133 85.3690333,110.642594 C85.3121856,111.44014 85.2813692,112.369975 85.2494044,113.354405 C85.2451934,113.476385 85.2411739,113.599701 85.236963,113.722827 C85.3137169,113.710037 85.3921934,113.701829 85.4725841,113.701829 C86.2653887,113.701829 86.9081309,114.342844 86.9081309,115.133519 C86.9081309,119.408545 90.3953614,122.886597 94.6820958,122.886597 Z M100.721537,125.589055 C103.404096,124.625814 104.757338,123.329657 105.329068,122.63481 C104.937834,121.615065 104.683838,120.447188 104.511764,119.214408 C103.719533,121.1218 102.391748,122.734838 100.721729,123.881526 L100.721537,125.589055 Z M114.536092,102.362463 C114.536092,109.950801 120.239615,116.263217 127.5209,116.733384 C130.921424,116.953101 134.177627,115.97478 136.836068,113.961824 C136.844299,113.955906 136.852338,113.949606 136.86076,113.94388 C137.240893,113.654678 137.608584,113.344288 137.962877,113.013281 C140.800666,110.360455 142.363498,106.764241 142.363498,102.887034 L142.363498,98.8105353 C142.363498,98.5950183 142.412307,98.3821737 142.506287,98.1880366 C143.430014,96.280262 143.898385,94.2560433 143.898385,92.1715028 L143.898385,78.2951822 L123.844943,78.2951822 C117.865795,78.2951822 113.001205,83.1465112 113.001205,89.1097861 L113.001205,92.1713119 C113.001205,94.2558524 113.469576,96.2800711 114.393303,98.1878457 C114.487283,98.3819828 114.536092,98.5948274 114.536092,98.8103444 L114.536092,102.362463 Z M122.618986,131.170164 L126.211107,127.587503 L119.438197,122.970398 L118.001502,124.475964 L122.466053,131.154893 C122.4739,131.166728 122.492275,131.194025 122.538979,131.198607 C122.585873,131.20357 122.609033,131.18009 122.618986,131.170164 Z M128.449795,125.645177 L136.22376,120.345634 L136.22376,117.730413 C133.851279,118.972547 131.20949,119.626925 128.464533,119.626925 C128.089568,119.626925 127.713455,119.614899 127.335045,119.590465 C124.939596,119.435842 122.687318,118.757603 120.67583,117.673146 L120.67583,120.345634 L128.449795,125.645177 Z M134.433537,131.155274 L138.898279,124.476345 L137.461393,122.97078 L130.688482,127.588076 L134.280604,131.170546 C134.290748,131.180281 134.313717,131.204906 134.360611,131.198989 C134.407315,131.194407 134.42569,131.16711 134.433537,131.155274 Z M160.646815,129.94731 L163.919861,126.683248 C163.852104,126.414281 163.816119,126.134433 163.816119,125.848859 L163.816119,125.272365 C162.803963,125.585619 161.74051,125.749786 160.651025,125.749786 C160.540775,125.749786 160.4311,125.748259 160.320467,125.744823 C159.334533,125.715425 158.381713,125.539805 157.477701,125.243922 L157.477893,125.848095 C157.478084,126.159058 157.445928,126.441006 157.38908,126.698519 L160.646815,129.94731 Z M166.060357,120.697829 C167.582611,119.224525 168.420971,117.248411 168.420971,115.133328 L168.420971,112.071802 C168.420971,111.849413 168.472842,111.63046 168.572565,111.43155 L169.297229,109.986116 C169.728084,109.126529 169.955857,108.164243 169.955857,107.203293 L169.955857,101.257007 L157.577041,101.257007 C154.136897,101.257007 151.337963,104.04823 151.337963,107.479322 L151.337963,107.564651 C151.337963,108.289277 151.509654,109.014667 151.834471,109.662745 L152.721256,111.43155 C152.820979,111.630269 152.87285,111.849413 152.87285,112.071802 L152.87285,114.748299 C152.87285,119.109226 156.25251,122.758508 160.406791,122.882779 C162.528912,122.948064 164.538869,122.17037 166.060357,120.697829 Z M169.775361,134.931611 C170.62102,134.931611 171.306611,135.58356 171.306611,136.387288 L171.306611,145.725935 C171.306611,146.529857 170.62102,147.181611 169.775361,147.181611 C168.929703,147.181611 168.244111,146.529857 168.244111,145.725935 L168.244111,136.387288 C168.244111,135.583366 168.929703,134.931611 169.775361,134.931611 Z M87.0878614,137.119111 C87.9335197,137.119111 88.6191114,137.754437 88.6191114,138.53767 L88.6191114,145.763053 C88.6191114,146.546475 87.9335197,147.181611 87.0878614,147.181611 C86.2422031,147.181611 85.5566114,146.546475 85.5566114,145.763053 L85.5566114,138.53767 C85.5566114,137.754247 86.2422031,137.119111 87.0878614,137.119111 Z M140.258724,92.8527469 C140.822574,93.4175301 140.822574,94.3335667 140.258724,94.8985428 C139.695066,95.4635189 138.780855,95.4635189 138.217005,94.8985428 C136.287902,92.9653949 133.02685,91.8329352 128.52452,91.5326048 C124.698463,91.277025 121.00562,91.7106427 119.144664,91.991684 C119.101543,91.9982423 119.069202,92.0402924 119.069202,92.0894795 L119.069202,95.4224332 C119.069202,96.2213853 118.422766,96.8691114 117.625407,96.8691114 C116.828047,96.8691114 116.181611,96.2213853 116.181611,95.4224332 L116.181611,92.0896724 C116.181611,90.5968933 117.246555,89.3525572 118.714028,89.1309261 C123.373059,88.4272618 134.798098,87.381217 140.258724,92.8527469 Z M111.587861,137.994111 C112.43352,137.994111 113.119111,138.64965 113.119111,139.457804 L113.119111,145.717919 C113.119111,146.526268 112.43352,147.181611 111.587861,147.181611 C110.742203,147.181611 110.056611,146.526268 110.056611,145.717919 L110.056611,139.457804 C110.056611,138.649455 110.742203,137.994111 111.587861,137.994111 Z M145.275361,137.994111 C146.12102,137.994111 146.806611,138.64965 146.806611,139.457804 L146.806611,145.717919 C146.806611,146.526268 146.12102,147.181611 145.275361,147.181611 C144.429703,147.181611 143.744111,146.526268 143.744111,145.717919 L143.744111,139.457804 C143.744111,138.649455 144.429703,137.994111 145.275361,137.994111 Z" id="Combined-Shape" fill="#E2E2E2" fill-rule="nonzero"></path>
                    </g>
                </g>
            </g>
        </g>
    </g>
</svg>