<?xml version="1.0" encoding="UTF-8"?>
<svg width="191px" height="191px" viewBox="0 0 191 191" version="1.1" xmlns="http://www.w3.org/2000/svg" xmlns:xlink="http://www.w3.org/1999/xlink">
    <!-- Generator: Sketch 53.2 (72643) - https://sketchapp.com -->
    <title>new-users-chart</title>
    <desc>Created with Sketch.</desc>
    <defs>
        <circle id="path-1" cx="130.906899" cy="130.906899" r="95"></circle>
        <filter x="-1.1%" y="-1.1%" width="102.1%" height="102.1%" filterUnits="objectBoundingBox" id="filter-2">
            <feGaussianBlur stdDeviation="1.5" in="SourceAlpha" result="shadowBlurInner1"></feGaussianBlur>
            <feOffset dx="0" dy="1" in="shadowBlurInner1" result="shadowOffsetInner1"></feOffset>
            <feComposite in="shadowOffsetInner1" in2="SourceAlpha" operator="arithmetic" k2="-1" k3="1" result="shadowInnerInner1"></feComposite>
            <feColorMatrix values="0 0 0 0 0   0 0 0 0 0   0 0 0 0 0  0 0 0 0.5 0" type="matrix" in="shadowInnerInner1"></feColorMatrix>
        </filter>
        <mask id="mask-3" maskContentUnits="userSpaceOnUse" maskUnits="objectBoundingBox" x="0" y="0" width="190" height="190" fill="white">
            <use xlink:href="#path-1"></use>
        </mask>
    </defs>
    <g id="Page-1" stroke="none" stroke-width="1" fill="none" fill-rule="evenodd">
        <g id="1-Dashboard" transform="translate(-223.000000, -1208.000000)">
            <g id="New-users" transform="translate(134.000000, 1138.000000)">
                <g id="new-users-chart" transform="translate(54.000000, 35.000000)">
                    <circle id="Oval-Copy-2" stroke="#DFDFDF" stroke-width="32" transform="translate(130.906899, 130.906899) rotate(212.000000) translate(-130.906899, -130.906899) " cx="130.906899" cy="130.906899" r="79"></circle>
                    <g id="Oval-Copy-8" stroke-dasharray="269,170" transform="translate(130.906899, 130.906899) rotate(94.000000) translate(-130.906899, -130.906899) ">
                        <use fill="black" fill-opacity="1" filter="url(#filter-2)" xlink:href="#path-1"></use>
                        <use stroke="#3D1E6D" mask="url(#mask-3)" stroke-width="64" xlink:href="#path-1"></use>
                    </g>
                    <path d="M166.694986,115.299477 C167.41407,115.651628 167.705586,116.507776 167.345946,117.211888 C167.090919,117.711133 166.576788,118 166.042861,118 C165.824128,118 165.602095,117.951729 165.393065,117.849295 C163.091414,116.722525 158.341577,116.475848 156.705636,116.475658 C155.901737,116.475658 155.25,115.837491 155.25,115.050329 C155.25,114.263167 155.901737,113.625 156.705636,113.625 C156.973861,113.625 163.313641,113.644194 166.694986,115.299477 Z M173.619094,135.681417 C176.198484,136.416542 178,138.798683 178,141.474607 L178,153.31831 C178,154.108985 177.357258,154.75 176.564453,154.75 C175.771648,154.75 175.128906,154.108985 175.128906,153.31831 L175.128906,141.474607 C175.128906,140.070788 174.183551,138.821018 172.830309,138.435416 L166.901309,136.746022 C166.687316,136.685127 166.484043,136.60228 166.290531,136.504162 L162.65075,140.134164 L162.65075,153.31831 C162.65075,154.108985 162.008008,154.75 161.215203,154.75 C160.422398,154.75 159.779656,154.108985 159.779656,153.31831 L159.779656,140.134164 L156.114418,136.478773 C155.624418,136.718343 155.136332,136.857885 154.778594,136.959821 L154.423918,137.060803 C155.754191,138.441525 156.547188,140.308448 156.547188,142.29907 L156.547188,153.31831 C156.547188,154.108985 155.904445,154.75 155.111641,154.75 C154.318836,154.75 153.676094,154.108985 153.676094,153.31831 L153.676094,142.29907 C153.676094,140.333646 152.43157,138.561786 150.579523,137.890038 L141.267418,134.512967 L137.390676,140.312266 C136.895125,141.053691 136.10098,141.529202 135.211707,141.617013 C135.11275,141.626748 135.013984,141.631521 134.915793,141.631521 C134.131219,141.631521 133.379949,141.323612 132.818555,140.763535 L130.453539,138.404873 L130.453539,153.318119 C130.453539,154.108794 129.810797,154.749809 129.017992,154.749809 C128.225188,154.749809 127.582445,154.108794 127.582445,153.318119 L127.582445,138.404873 L125.21743,140.763535 C124.655844,141.323421 123.904574,141.63133 123.120191,141.63133 C123.021809,141.63133 122.923234,141.626557 122.824086,141.616822 C121.935004,141.529012 121.140859,141.0535 120.645309,140.312075 L116.768758,134.512586 L107.456461,137.889656 C105.604223,138.561405 104.359891,140.333264 104.359891,142.298688 L104.359891,153.317928 C104.359891,154.108603 103.717148,154.749618 102.924344,154.749618 C102.131539,154.749618 101.488797,154.108603 101.488797,153.317928 L101.488797,142.298688 C101.488797,140.854972 101.906828,139.476732 102.643359,138.30141 L101.079188,137.521425 L99.4106992,139.102774 C98.2442695,140.20823 96.746707,140.761244 95.2497187,140.761244 C93.7523477,140.761244 92.2555508,140.208612 91.0887383,139.102774 L89.4200586,137.521234 L84.6228438,139.913302 C83.5423555,140.45219 82.8710938,141.535502 82.8710938,142.740412 L82.8710938,153.317546 C82.8710938,154.108221 82.2283516,154.749236 81.4355469,154.749236 C80.6427422,154.749236 80,154.108221 80,153.317546 L80,142.740412 C80,140.444172 81.2793594,138.379676 83.3388906,137.351913 L87.1913242,135.430967 C83.0544609,133.636582 81.7492617,131.121008 81.6864805,130.995782 C81.4843555,130.592809 81.4843555,130.118252 81.6864805,129.715279 C82.7212227,127.650973 82.8467852,123.867685 82.9474648,120.82773 C82.9809609,119.815429 83.0127344,118.859251 83.0734102,118.007682 C83.5626445,111.140343 88.7974141,105.961825 95.2497187,105.961825 C101.702023,105.961825 106.936602,111.140534 107.426027,118.007682 C107.486703,118.859061 107.518477,119.815239 107.551973,120.827348 C107.652652,123.867494 107.778023,127.651164 108.812957,129.71547 C109.015082,130.118443 109.015082,130.593 108.812957,130.995973 C108.750176,131.121198 107.442297,133.641927 103.313664,135.434212 L104.700594,136.125814 C105.240551,135.744984 105.83525,135.430585 106.475313,135.19846 L115.307754,131.995484 C115.277703,131.601674 115.410922,131.201182 115.698988,130.899382 L118.373125,128.097469 L118.373125,123.283173 C114.619457,120.10444 112.233387,115.28289 112.233387,109.931042 L112.233387,106.69905 C111.214723,104.48833 110.6985,102.148948 110.6985,99.7397005 L110.6985,96.6779838 C110.6985,89.1360322 116.850871,83 124.413332,83 L145.90232,83 C146.695125,83 147.337867,83.6410153 147.337867,84.4316899 L147.337867,99.7393187 C147.337867,102.148567 146.821645,104.487948 145.80298,106.698668 L145.80298,110.455041 C145.80298,115.06451 143.868246,119.516874 140.494711,122.67041 C140.224637,122.922769 139.945949,123.161384 139.663242,123.3937 L139.663242,128.097278 L142.337379,130.899191 C142.625445,131.200991 142.758664,131.601483 142.728613,131.995293 L151.097086,135.030094 L153.99,134.205822 C155.175379,133.867943 155.175379,133.735846 155.175379,133.416866 L155.174996,131.34836 C152.401328,129.34743 150.570145,126.022282 150.570145,122.316305 L150.570145,119.977878 L149.834953,118.511446 C149.31184,117.468031 149.035258,116.299581 149.035258,115.132849 L149.035258,115.04752 C149.035258,110.037751 153.122164,105.961825 158.14543,105.961825 L171.959793,105.961825 C172.752598,105.961825 173.39534,106.60284 173.39534,107.393515 L173.39534,114.77149 C173.39534,116.174546 173.062867,117.579702 172.433715,118.834817 L171.860453,119.978069 L171.860453,122.701525 C171.860453,125.597739 170.71259,128.303633 168.628176,130.320979 C168.198086,130.737315 167.737945,131.110318 167.255602,131.443615 L167.255602,133.417247 C167.255602,133.682778 167.434375,133.919102 167.690285,133.992023 L173.619094,135.681417 Z M89.2095117,133.152671 L89.2095117,131.436743 C87.5381523,130.283755 86.2122813,128.667664 85.420625,126.774588 C85.2485508,128.010232 84.9943633,129.180781 84.6023633,130.202817 C85.1773477,130.904345 86.5242734,132.189048 89.2095117,133.152671 Z M97.4332813,137.027397 L98.7681484,135.762355 C98.5426719,135.341248 98.4190234,134.863827 98.4190234,134.36369 L98.4192148,132.838845 C97.4160547,133.149235 96.3520273,133.318365 95.2501016,133.318365 C94.1468359,133.318365 93.0822344,133.149999 92.0807969,132.83789 L92.0807969,134.363881 C92.0807969,134.863827 91.956957,135.341057 91.7316719,135.761974 L93.0667305,137.027206 C94.2907734,138.187447 96.2088555,138.187638 97.4332813,137.027397 Z M95.2504844,130.454985 C99.1054063,130.454985 102.344383,127.663763 102.928746,123.905481 C100.606414,118.80542 94.6351133,118.112864 92.7790469,118.022381 L90.6238125,120.251427 C90.0735195,120.820476 89.1647227,120.837083 88.5939492,120.288269 C88.0231758,119.739454 88.0067148,118.833099 88.5570078,118.263859 L91.1471172,115.584881 C91.4080039,115.31496 91.7647852,115.158047 92.140707,115.147548 C92.2452148,115.144875 94.7216289,115.087798 97.6009531,116.010379 C100.717621,117.009126 103.129723,118.777741 104.691598,121.177635 C104.688727,121.092497 104.685855,121.006786 104.682984,120.922221 C104.650445,119.937982 104.619438,119.008338 104.562781,118.210982 C104.379414,115.638522 103.348691,113.268025 101.660488,111.535871 C99.9569727,109.788064 97.6805781,108.825587 95.2501016,108.825587 C92.819625,108.825587 90.5430391,109.788064 88.8397148,111.535871 C87.1515117,113.268025 86.1207891,115.638522 85.9374219,118.210982 C85.8805742,119.008529 85.8497578,119.938364 85.817793,120.922794 C85.813582,121.044774 85.8095625,121.16809 85.8053516,121.291215 C85.8821055,121.278426 85.960582,121.270217 86.0409727,121.270217 C86.8337773,121.270217 87.4765195,121.911233 87.4765195,122.701907 C87.4765195,126.976933 90.96375,130.454985 95.2504844,130.454985 Z M101.289926,133.157443 C103.972484,132.194202 105.325727,130.898046 105.897457,130.203199 C105.506223,129.183454 105.252227,128.015577 105.080152,126.782796 C104.287922,128.690189 102.960137,130.303226 101.290117,131.449914 L101.289926,133.157443 Z M115.10448,109.930851 C115.10448,117.51919 120.808004,123.831606 128.089289,124.301773 C131.489813,124.52149 134.746016,123.543168 137.404457,121.530212 C137.412688,121.524294 137.420727,121.517995 137.429148,121.512268 C137.809281,121.223067 138.176973,120.912677 138.531266,120.58167 C141.369055,117.928844 142.931887,114.33263 142.931887,110.455422 L142.931887,106.378924 C142.931887,106.163407 142.980695,105.950562 143.074676,105.756425 C143.998402,103.848651 144.466773,101.824432 144.466773,99.7398914 L144.466773,85.8635708 L124.413332,85.8635708 C118.434184,85.8635708 113.569594,90.7148998 113.569594,96.6781747 L113.569594,99.7397005 C113.569594,101.824241 114.037965,103.84846 114.961691,105.756234 C115.055672,105.950371 115.10448,106.163216 115.10448,106.378733 L115.10448,109.930851 Z M123.187375,138.738552 L126.779496,135.155892 L120.006586,130.538787 L118.569891,132.044352 L123.034441,138.723281 C123.042289,138.735116 123.060664,138.762414 123.107367,138.766995 C123.154262,138.771959 123.177422,138.748479 123.187375,138.738552 Z M129.018184,133.213566 L136.792148,127.914022 L136.792148,125.298802 C134.419668,126.540936 131.777879,127.195314 129.032922,127.195314 C128.657957,127.195314 128.281844,127.183288 127.903434,127.158853 C125.507984,127.004231 123.255707,126.325992 121.244219,125.241534 L121.244219,127.914022 L129.018184,133.213566 Z M135.001926,138.723663 L139.466668,132.044734 L138.029781,130.539169 L131.256871,135.156464 L134.848992,138.738934 C134.859137,138.74867 134.882105,138.773295 134.929,138.767377 C134.975703,138.762796 134.994078,138.735498 135.001926,138.723663 Z M161.215203,137.515698 L164.48825,134.251636 C164.420492,133.982669 164.384508,133.702822 164.384508,133.417247 L164.384508,132.840754 C163.372352,133.154007 162.308898,133.318174 161.219414,133.318174 C161.109164,133.318174 160.999488,133.316647 160.888855,133.313211 C159.902922,133.283814 158.950102,133.108193 158.04609,132.812311 L158.046281,133.416484 C158.046473,133.727447 158.014316,134.009394 157.957469,134.266908 L161.215203,137.515698 Z M166.628746,128.266218 C168.151,126.792913 168.989359,124.8168 168.989359,122.701716 L168.989359,119.640191 C168.989359,119.417801 169.04123,119.198848 169.140953,118.999939 L169.865617,117.554505 C170.296473,116.694918 170.524246,115.732631 170.524246,114.771681 L170.524246,108.825396 L158.14543,108.825396 C154.705285,108.825396 151.906352,111.616618 151.906352,115.047711 L151.906352,115.13304 C151.906352,115.857666 152.078043,116.583055 152.402859,117.231134 L153.289645,118.999939 C153.389367,119.198657 153.441238,119.417801 153.441238,119.640191 L153.441238,122.316687 C153.441238,126.677615 156.820898,130.326897 160.97518,130.451168 C163.097301,130.516453 165.107258,129.738759 166.628746,128.266218 Z M170.34375,142.5 C171.189408,142.5 171.875,143.151949 171.875,143.955676 L171.875,153.294324 C171.875,154.098245 171.189408,154.75 170.34375,154.75 C169.498092,154.75 168.8125,154.098245 168.8125,153.294324 L168.8125,143.955676 C168.8125,143.151755 169.498092,142.5 170.34375,142.5 Z M87.65625,144.6875 C88.5019083,144.6875 89.1875,145.322825 89.1875,146.106059 L89.1875,153.331441 C89.1875,154.114864 88.5019083,154.75 87.65625,154.75 C86.8105917,154.75 86.125,154.114864 86.125,153.331441 L86.125,146.106059 C86.125,145.322636 86.8105917,144.6875 87.65625,144.6875 Z M140.827112,100.421135 C141.390963,100.985919 141.390963,101.901955 140.827112,102.466931 C140.263455,103.031907 139.349244,103.031907 138.785394,102.466931 C136.856291,100.533784 133.595239,99.4013238 129.092908,99.1009934 C125.266851,98.8454136 121.574008,99.2790313 119.713053,99.5600726 C119.669931,99.5666309 119.63759,99.608681 119.63759,99.6578681 L119.63759,102.990822 C119.63759,103.789774 118.991155,104.4375 118.193795,104.4375 C117.396435,104.4375 116.75,103.789774 116.75,102.990822 L116.75,99.658061 C116.75,98.1652819 117.814943,96.9209458 119.282417,96.6993147 C123.941447,95.9956504 135.366487,94.9496056 140.827112,100.421135 Z M112.15625,145.5625 C113.001908,145.5625 113.6875,146.218039 113.6875,147.026192 L113.6875,153.286308 C113.6875,154.094656 113.001908,154.75 112.15625,154.75 C111.310592,154.75 110.625,154.094656 110.625,153.286308 L110.625,147.026192 C110.625,146.217844 111.310592,145.5625 112.15625,145.5625 Z M145.84375,145.5625 C146.689408,145.5625 147.375,146.218039 147.375,147.026192 L147.375,153.286308 C147.375,154.094656 146.689408,154.75 145.84375,154.75 C144.998092,154.75 144.3125,154.094656 144.3125,153.286308 L144.3125,147.026192 C144.3125,146.217844 144.998092,145.5625 145.84375,145.5625 Z" id="Combined-Shape" fill="#E2E2E2" fill-rule="nonzero"></path>
                </g>
            </g>
        </g>
    </g>
</svg>