<?xml version="1.0" encoding="UTF-8"?>
<svg width="203px" height="203px" viewBox="0 0 203 203" version="1.1" xmlns="http://www.w3.org/2000/svg" xmlns:xlink="http://www.w3.org/1999/xlink">
    <!-- Generator: Sketch 53.2 (72643) - https://sketchapp.com -->
    <title>past-achievement</title>
    <desc>Created with Sketch.</desc>
    <g id="Page-1" stroke="none" stroke-width="1" fill="none" fill-rule="evenodd">
        <g id="1-Dashboard" transform="translate(-412.000000, -2408.000000)">
            <g id="total-Challenge-Copy-2" transform="translate(125.000000, 2326.000000)">
                <g id="past-achievement" transform="translate(248.000000, 43.000000)">
                    <circle id="Oval-Copy" stroke="#EAEAEA" stroke-width="2" stroke-linecap="round" transform="translate(140.500000, 140.500000) rotate(187.000000) translate(-140.500000, -140.500000) " cx="140.5" cy="140.5" r="100.5"></circle>
                    <path d="M140.5,241 C196.004617,241 241,196.004617 241,140.5 C241,84.9953826 196.004617,40 140.5,40 C84.9953826,40 40,84.9953826 40,140.5 C40,196.004617 84.9953826,241 140.5,241 Z" id="Oval-Copy-9" stroke="#0289BE" stroke-width="2" stroke-linecap="round" stroke-dasharray="220" transform="translate(140.500000, 140.500000) rotate(125.000000) translate(-140.500000, -140.500000) "></path>
                    <circle id="Oval" fill="#0289BE" cx="141" cy="89" r="24"></circle>
                    <path d="M152.539063,75 C153.895996,75 155,76.1040039 155,77.4609375 L155,78.710846 C155,80.7353516 154.303589,82.7209778 153.038727,84.3017883 C151.958649,85.651886 150.520538,86.6546326 148.880127,87.2015076 C148.876709,87.2025757 148.873077,87.2038574 148.869659,87.2049255 L147.952789,87.4967346 C146.94278,89.1394958 145.360474,90.4045715 143.460938,91.0059204 L143.460938,92.28125 C143.460938,92.73349 143.82901,93.1015625 144.28125,93.1015625 C145.638184,93.1015625 146.742188,94.2055664 146.742188,95.5625 L146.742188,96.3828125 L147.5625,96.3828125 C148.015594,96.3828125 148.382813,96.7500305 148.382813,97.203125 L148.382813,101.359375 L149.203125,101.359375 C149.656219,101.359375 150.023438,101.726593 150.023438,102.179688 C150.023438,102.632782 149.656219,103 149.203125,103 L132.796875,103 C132.343781,103 131.976563,102.632782 131.976563,102.179688 C131.976563,101.726593 132.343781,101.359375 132.796875,101.359375 L133.617188,101.359375 L133.617188,97.203125 C133.617188,96.7500305 133.984406,96.3828125 134.4375,96.3828125 L135.257813,96.3828125 L135.257813,95.5625 C135.257813,94.2055664 136.361816,93.1015625 137.71875,93.1015625 C138.17099,93.1015625 138.539063,92.73349 138.539063,92.28125 L138.539063,91.0059204 C136.63739,90.4039307 135.053589,89.1365051 134.043793,87.4911804 L133.174347,87.2015076 C131.509369,86.6465149 130.013153,85.6166382 128.961273,84.3017883 C127.696411,82.7209778 127,80.7353516 127,78.710846 L127,77.4609375 C127,76.1040039 128.104004,75 129.460938,75 C129.856567,75 152.141937,75 152.539063,75 Z M130.242371,83.2768249 C130.983643,84.2033081 132.001129,84.9571839 133.148285,85.4393311 C133.031647,85.0227661 132.946411,84.5935974 132.897491,84.1541748 L132.062653,76.640625 L129.460938,76.640625 C129.008698,76.640625 128.640625,77.0086975 128.640625,77.4609375 L128.640625,78.710846 C128.640625,80.3642883 129.209503,81.9856872 130.242371,83.2768249 Z M135.257813,101.359375 L146.742188,101.359375 L146.742188,98.0234375 L135.257813,98.0234375 L135.257813,101.359375 Z M142.456696,89.5806275 C145.152832,88.9602661 147.168152,86.7067566 147.471924,83.9730225 L148.286682,76.640625 L133.713318,76.640625 L134.528076,83.9730225 C134.831848,86.7067566 136.847168,88.9602661 139.543304,89.5806275 C139.915863,89.6662903 140.179688,89.9978333 140.179688,90.3800049 L140.179688,92.28125 C140.179688,93.6381836 139.075684,94.7421875 137.71875,94.7421875 C137.26651,94.7421875 136.898438,95.11026 136.898438,95.5625 L136.898438,96.3828125 L145.101563,96.3828125 L145.101563,95.5625 C145.101563,95.11026 144.73349,94.7421875 144.28125,94.7421875 C142.924316,94.7421875 141.820313,93.6381836 141.820313,92.28125 L141.820313,90.3800049 C141.820313,89.9978333 142.084137,89.6662903 142.456696,89.5806275 Z M153.359375,78.710846 L153.359375,77.4609375 C153.359375,77.0086975 152.991302,76.640625 152.539063,76.640625 L149.937347,76.640625 L149.102509,84.1541748 C149.052521,84.6025696 148.964935,85.0400696 148.844452,85.4647522 C149.98349,84.993927 150.983246,84.2449646 151.757629,83.2768249 C152.790497,81.9856872 153.359375,80.3642883 153.359375,78.710846 Z M144.365703,80.4798223 C144.674351,80.5237161 144.93071,80.7404291 145.02576,81.0377203 C145.12081,81.3350115 145.037827,81.6605051 144.811951,81.8757336 L143.501785,83.1249079 L143.810221,84.8834213 C143.863568,85.1879221 143.740363,85.4962398 143.491836,85.6798733 C143.24352,85.8632947 142.912856,85.8900128 142.638291,85.7487889 L141.000002,84.9063225 L139.361502,85.7487889 C139.087571,85.8895887 138.756907,85.8635068 138.507957,85.6798733 C138.259642,85.4964518 138.136436,85.1879221 138.189783,84.8834213 L138.498219,83.1249079 L137.187842,81.8757336 C136.962178,81.6607171 136.879194,81.3350115 136.974244,81.0377203 C137.069294,80.7404291 137.325654,80.5237161 137.63409,80.4798223 L139.460997,80.2202756 L140.274532,78.6082873 C140.412767,78.3341094 140.693471,78.1612903 141.000002,78.1612903 C141.306533,78.1612903 141.587237,78.3341094 141.725473,78.6082873 L142.539007,80.2202756 L144.365703,80.4798223 Z M142.065451,82.2459693 L142.474653,81.8558012 L141.890593,81.7728904 C141.627459,81.73557 141.399254,81.571657 141.279225,81.3339512 L141.000002,80.7805062 L140.720568,81.3341633 C140.60075,81.571657 140.372545,81.73557 140.109411,81.7728904 L139.525352,81.8560132 L139.934553,82.2459693 C140.131639,82.4340559 140.22182,82.7082338 140.174824,82.9768985 L140.073847,83.5519725 L140.628693,83.266768 C140.861767,83.1469609 141.138237,83.1469609 141.371099,83.266768 L141.925946,83.5519725 L141.82518,82.9768985 C141.777972,82.7082338 141.868154,82.4340559 142.065451,82.2459693 Z" id="Combined-Shape" fill="#FFFFFF" fill-rule="nonzero"></path>
                </g>
            </g>
        </g>
    </g>
</svg>