<?xml version="1.0" encoding="UTF-8"?>
<svg width="201px" height="133px" viewBox="0 0 201 133" version="1.1" xmlns="http://www.w3.org/2000/svg" xmlns:xlink="http://www.w3.org/1999/xlink">
    <!-- Generator: Sketch 53.2 (72643) - https://sketchapp.com -->
    <title>Past challenge chart</title>
    <desc>Created with Sketch.</desc>
    <defs>
        <circle id="path-1" cx="116.5" cy="116.5" r="100.5"></circle>
        <mask id="mask-2" maskContentUnits="userSpaceOnUse" maskUnits="objectBoundingBox" x="0" y="0" width="201" height="201" fill="white">
            <use xlink:href="#path-1"></use>
        </mask>
        <circle id="path-3" cx="116.5" cy="116.5" r="100.5"></circle>
        <mask id="mask-4" maskContentUnits="userSpaceOnUse" maskUnits="objectBoundingBox" x="0" y="0" width="201" height="201" fill="white">
            <use xlink:href="#path-3"></use>
        </mask>
    </defs>
    <g id="Page-1" stroke="none" stroke-width="1" fill="none" fill-rule="evenodd">
        <g id="1-Dashboard" transform="translate(-813.000000, -2047.000000)">
            <g id="total-Challenge" transform="translate(525.000000, 1964.000000)">
                <g id="Past-challenge-chart" transform="translate(272.000000, 67.000000)">
                    <use id="Oval-Copy" stroke="#EAEAEA" mask="url(#mask-2)" stroke-width="32" stroke-dasharray="202,251" transform="translate(116.500000, 116.500000) rotate(187.000000) translate(-116.500000, -116.500000) " xlink:href="#path-1"></use>
                    <use id="Oval-Copy-9" stroke="#EB385A" mask="url(#mask-4)" stroke-width="32" stroke-dasharray="172,301" transform="translate(116.500000, 116.500000) rotate(170.000000) translate(-116.500000, -116.500000) " xlink:href="#path-3"></use>
                    <circle id="Oval" stroke="#EB385A" fill-opacity="0.18" fill="#EB385A" cx="116.5" cy="77.5" r="23.5"></circle>
                    <path d="M108.150943,66 C108.620245,66 109,66.4472667 109,67 C109,67.5527333 108.620245,68 108.150943,68 L103.849057,68 C103.379755,68 103,67.5527333 103,67 C103,66.4472667 103.379755,66 103.849057,66 L108.150943,66 Z M108.150943,73 C108.620245,73 109,73.4472667 109,74 C109,74.5527333 108.620245,75 108.150943,75 L103.849057,75 C103.379755,75 103,74.5527333 103,74 C103,73.4472667 103.379755,73 103.849057,73 L108.150943,73 Z M106.150943,69 C106.620245,69 107,69.4472667 107,70 C107,70.5527333 106.620245,71 106.150943,71 L101.849057,71 C101.379755,71 101,70.5527333 101,70 C101,69.4472667 101.379755,69 101.849057,69 L106.150943,69 Z M130.196204,73.5210827 C131.19232,73.5210827 132,74.3449227 132,75.3609695 C132,76.3770163 131.19232,77.2008563 130.196204,77.2008563 L122.920893,77.2008563 C121.924777,77.2008563 121.117097,76.3770163 121.117097,75.3609695 L121.117097,74.2829185 L118.256397,77.2008563 L122.392441,81.4196555 C123.097064,82.1383767 123.097064,83.3026571 122.392441,84.0213782 L116.079155,90.4609822 C115.374532,91.1797033 114.23303,91.179642 113.528467,90.4609822 C112.823844,89.742261 112.823844,88.5779806 113.528467,87.8592595 L118.566409,82.7205169 L114.430365,78.5017177 C113.725742,77.7829965 113.725742,76.6187161 114.430365,75.899995 L121.645008,68.5409996 C122.786871,67.3747567 124.724689,68.2255203 124.724689,69.841309 L124.724689,73.5210827 L130.196204,73.5210827 Z M117.696506,64.3179276 L121,66.741707 C120.623164,66.9293564 120.278571,67.1696816 119.986424,67.4792938 L118.239857,69.3302717 L116.932644,68.3323378 L113.052126,72.4448361 C112.353702,73.1850125 111.222242,73.1850757 110.523818,72.4448993 C109.825394,71.7047228 109.825394,70.5056863 110.523818,69.7655099 L115.440618,64.554779 C116.043031,63.9164171 116.985865,63.8173816 117.696506,64.3179276 Z M112.751004,79.6786845 L114,80.9939393 L105.015542,90.4550182 C104.325476,91.1816916 103.207556,91.1816296 102.517549,90.4550182 C101.827484,89.7283447 101.827484,88.5511821 102.517549,87.8245086 L111.847129,78 C112.004645,78.6272744 112.303424,79.2073606 112.751004,79.6786845 Z M125.5,68 C124.119288,68 123,66.8807119 123,65.5 C123,64.1192881 124.119288,63 125.5,63 C126.880712,63 128,64.1192881 128,65.5 C128,66.8807119 126.880712,68 125.5,68 Z" id="Combined-Shape" fill="#EB385A" fill-rule="nonzero"></path>
                </g>
            </g>
        </g>
    </g>
</svg>