<?xml version="1.0" encoding="UTF-8"?>
<svg width="182px" height="187px" viewBox="0 0 182 187" version="1.1" xmlns="http://www.w3.org/2000/svg" xmlns:xlink="http://www.w3.org/1999/xlink">
    <!-- Generator: Sketch 53.2 (72643) - https://sketchapp.com -->
    <title>registered-user-chart</title>
    <desc>Created with Sketch.</desc>
    <g id="Page-1" stroke="none" stroke-width="1" fill="none" fill-rule="evenodd">
        <g id="1-Dashboard" transform="translate(-1027.000000, -853.000000)">
            <g id="New-users-Copy-3" transform="translate(934.000000, 772.000000)">
                <g id="registered-user-chart" transform="translate(54.000000, 42.000000)">
                    <path d="M131.568389,226.568389 C184.03544,226.568389 226.568389,184.03544 226.568389,131.568389 C226.568389,79.1013374 184.03544,36.5683886 131.568389,36.5683886 C79.1013374,36.5683886 36.5683886,79.1013374 36.5683886,131.568389 C36.5683886,184.03544 79.1013374,226.568389 131.568389,226.568389 Z" id="Oval-Copy-2" transform="translate(131.568389, 131.568389) rotate(212.000000) translate(-131.568389, -131.568389) "></path>
                    <path d="M132.017062,211.017062 C175.647558,211.017062 211.017062,175.647558 211.017062,132.017062 C211.017062,88.3865672 175.647558,53.0170624 132.017062,53.0170624 C88.3865672,53.0170624 53.0170624,88.3865672 53.0170624,132.017062 C53.0170624,175.647558 88.3865672,211.017062 132.017062,211.017062 Z" id="Oval-Copy-6" stroke="#646464" stroke-linecap="round" stroke-dasharray="8,11" transform="translate(132.017062, 132.017062) rotate(146.000000) translate(-132.017062, -132.017062) "></path>
                    <path d="M132.017062,222.017062 C181.72269,222.017062 222.017062,181.72269 222.017062,132.017062 C222.017062,82.311435 181.72269,42.0170624 132.017062,42.0170624 C82.311435,42.0170624 42.0170624,82.311435 42.0170624,132.017062 C42.0170624,181.72269 82.311435,222.017062 132.017062,222.017062 Z" id="Oval-Copy-7" stroke="#035B96" stroke-width="6" stroke-linecap="round" stroke-dasharray="234,164" transform="translate(132.017062, 132.017062) rotate(146.000000) translate(-132.017062, -132.017062) "></path>
                    <circle id="Oval" fill="#FFFFFF" cx="131" cy="132" r="65"></circle>
                    <path d="M163.27713,127.53095 C163.922839,127.852917 164.184607,128.63568 163.861666,129.279441 C163.632662,129.735893 163.170994,130 162.691549,130 C162.495135,130 162.295758,129.955866 162.108059,129.862213 C160.041269,128.832023 155.77611,128.60649 154.307102,128.606316 C153.585233,128.606316 153,128.022849 153,127.303158 C153,126.583467 153.585233,126 154.307102,126 C154.547957,126 160.24082,126.017549 163.27713,127.53095 Z M169.244937,146.522618 C171.455844,147.157848 173,149.216284 173,151.528581 L173,161.76286 C173,162.446091 172.449078,163 171.769531,163 C171.089984,163 170.539062,162.446091 170.539062,161.76286 L170.539062,151.528581 C170.539062,150.315524 169.728758,149.235583 168.568836,148.90238 L163.486836,147.442555 C163.303414,147.389936 163.12918,147.318347 162.963313,147.233561 L159.8435,150.370288 L159.8435,161.76286 C159.8435,162.446091 159.292578,163 158.613031,163 C157.933484,163 157.382563,162.446091 157.382563,161.76286 L157.382563,150.370288 L154.24093,147.211623 C153.82093,147.418637 153.40257,147.539217 153.095937,147.627302 L152.79193,147.714561 C153.932164,148.907659 154.611875,150.520889 154.611875,152.241008 L154.611875,161.76286 C154.611875,162.446091 154.060953,163 153.381406,163 C152.701859,163 152.150937,162.446091 152.150937,161.76286 L152.150937,152.241008 C152.150937,150.542663 151.084203,149.011579 149.496734,148.431113 L141.51493,145.512947 L138.192008,150.524188 C137.76725,151.164862 137.086555,151.575757 136.32432,151.651635 C136.2395,151.660047 136.154844,151.664171 136.07068,151.664171 C135.398188,151.664171 134.754242,151.398104 134.273047,150.914135 L132.245891,148.875988 L132.245891,161.762695 C132.245891,162.445926 131.694969,162.999835 131.015422,162.999835 C130.335875,162.999835 129.784953,162.445926 129.784953,161.762695 L129.784953,148.875988 L127.757797,150.914135 C127.276438,151.397939 126.632492,151.664006 125.960164,151.664006 C125.875836,151.664006 125.791344,151.659882 125.706359,151.65147 C124.944289,151.575592 124.263594,151.164697 123.838836,150.524023 L120.516078,145.512617 L112.534109,148.430783 C110.946477,149.011249 109.879906,150.542333 109.879906,152.240678 L109.879906,161.76253 C109.879906,162.445761 109.328984,162.99967 108.649438,162.99967 C107.969891,162.99967 107.418969,162.445761 107.418969,161.76253 L107.418969,152.240678 C107.418969,150.993147 107.777281,149.802193 108.408594,148.786584 L107.067875,148.11259 L105.637742,149.479052 C104.637945,150.434289 103.35432,150.912155 102.071188,150.912155 C100.787727,150.912155 99.5047578,150.434619 98.5046328,149.479052 L97.0743359,148.112425 L92.9624375,150.179438 C92.0363047,150.645098 91.4609375,151.5812 91.4609375,152.622377 L91.4609375,161.7622 C91.4609375,162.445431 90.9100156,162.99934 90.2304688,162.99934 C89.5509219,162.99934 89,162.445431 89,161.7622 L89,152.622377 C89,150.63817 90.0965937,148.854214 91.8619063,147.966113 L95.1639922,146.306201 C91.6181094,144.755653 90.4993672,142.581916 90.4455547,142.473707 C90.2723047,142.125494 90.2723047,141.715423 90.4455547,141.36721 C91.3324766,139.583419 91.4401016,136.314236 91.5263984,133.687376 C91.5551094,132.812636 91.5823438,131.986391 91.6343516,131.250541 C92.0536953,125.316394 96.5406406,120.841577 102.071188,120.841577 C107.601734,120.841577 112.088516,125.316559 112.508023,131.250541 C112.560031,131.986227 112.587266,132.812471 112.615977,133.687046 C112.702273,136.314071 112.809734,139.583584 113.69682,141.367375 C113.87007,141.715588 113.87007,142.125659 113.69682,142.473872 C113.643008,142.582081 112.521969,144.760272 108.983141,146.309006 L110.171937,146.906627 C110.634758,146.577547 111.1445,146.305871 111.693125,146.10529 L119.263789,143.337561 C119.238031,142.997265 119.352219,142.651196 119.599133,142.390407 L121.89125,139.969242 L121.89125,135.809153 C118.67382,133.062373 116.628617,128.896016 116.628617,124.271423 L116.628617,121.478621 C115.755477,119.568313 115.313,117.546826 115.313,115.464968 L115.313,112.819303 C115.313,106.302216 120.586461,101 127.06857,101 L145.487703,101 C146.16725,101 146.718172,101.553909 146.718172,102.23714 L146.718172,115.464638 C146.718172,117.546497 146.275695,119.567983 145.402555,121.478292 L145.402555,124.724216 C145.402555,128.707311 143.744211,132.554651 140.852609,135.279657 C140.621117,135.497724 140.382242,135.703914 140.139922,135.90466 L140.139922,139.969077 L142.432039,142.390242 C142.678953,142.651031 142.793141,142.9971 142.767383,143.337396 L149.940359,145.959802 L152.42,145.24754 C153.436039,144.955575 153.436039,144.841428 153.436039,144.565793 L153.435711,142.778374 C151.058281,141.049347 149.488695,138.176049 149.488695,134.973672 L149.488695,132.95301 L148.858531,131.685849 C148.410148,130.784222 148.173078,129.774551 148.173078,128.766364 L148.173078,128.692631 C148.173078,124.363631 151.676141,120.841577 155.981797,120.841577 L167.82268,120.841577 C168.502227,120.841577 169.053148,121.395486 169.053148,122.078717 L169.053148,128.45411 C169.053148,129.666507 168.768172,130.880718 168.228898,131.965278 L167.737531,132.953175 L167.737531,135.306545 C167.737531,137.809196 166.753648,140.14739 164.967008,141.890602 C164.598359,142.250362 164.203953,142.572679 163.790516,142.860685 L163.790516,144.566123 C163.790516,144.795571 163.94375,144.999782 164.163102,145.062793 L169.244937,146.522618 Z M96.8938672,144.3375 L96.8938672,142.854746 C95.4612734,141.858437 94.3248125,140.461953 93.64625,138.826125 C93.4987578,139.893859 93.2808828,140.905344 92.9448828,141.788497 C93.4377266,142.394695 94.5922344,143.504822 96.8938672,144.3375 Z M103.942813,147.685695 L105.086984,146.592558 C104.893719,146.228674 104.787734,145.816129 104.787734,145.383955 L104.787898,144.066319 C103.928047,144.334531 103.016023,144.480678 102.071516,144.480678 C101.125859,144.480678 100.213344,144.33519 99.3549687,144.065494 L99.3549687,145.38412 C99.3549687,145.816129 99.2488203,146.228509 99.0557187,146.592228 L100.200055,147.68553 C101.249234,148.688108 102.893305,148.688273 103.942813,147.685695 Z M102.071844,142.006399 C105.376063,142.006399 108.152328,139.594471 108.653211,136.346897 C106.662641,131.939875 101.544383,131.341429 99.9534688,131.263242 L98.106125,133.189386 C97.6344453,133.681108 96.8554766,133.695459 96.3662422,133.221222 C95.8770078,132.746985 95.8628984,131.963793 96.3345781,131.471906 L98.5546719,129.15697 C98.7782891,128.923728 99.0841016,128.788138 99.4063203,128.779065 C99.4958984,128.776756 101.618539,128.727436 104.086531,129.524648 C106.757961,130.387677 108.825477,131.915957 110.164227,133.989733 C110.161766,133.916164 110.159305,133.842101 110.156844,133.769027 C110.128953,132.918535 110.102375,132.115219 110.053813,131.426215 C109.896641,129.203322 109.013164,127.154948 107.566133,125.658174 C106.105977,124.147874 104.154781,123.316186 102.071516,123.316186 C99.98825,123.316186 98.0368906,124.147874 96.5768984,125.658174 C95.1298672,127.154948 94.2463906,129.203322 94.0892188,131.426215 C94.0404922,132.115384 94.0140781,132.918865 93.9866797,133.769522 C93.9830703,133.874927 93.979625,133.981485 93.9760156,134.087879 C94.0418047,134.076828 94.1090703,134.069735 94.1779766,134.069735 C94.8575234,134.069735 95.4084453,134.623643 95.4084453,135.306875 C95.4084453,139.000974 98.3975,142.006399 102.071844,142.006399 Z M107.248508,144.341623 C109.547844,143.509276 110.707766,142.389252 111.19782,141.788827 C110.862477,140.907654 110.644766,139.898477 110.497273,138.833218 C109.818219,140.481418 108.680117,141.875262 107.248672,142.866128 L107.248508,144.341623 Z M119.089555,124.271258 C119.089555,130.828429 123.978289,136.28306 130.219391,136.689337 C133.134125,136.879197 135.925156,136.033818 138.20382,134.294399 C138.210875,134.289286 138.217766,134.283842 138.224984,134.278894 C138.550813,134.028992 138.865977,133.76078 139.169656,133.474753 C141.602047,131.182416 142.941617,128.074886 142.941617,124.724546 L142.941617,121.201997 C142.941617,121.015766 142.983453,120.831845 143.064008,120.664089 C143.855773,119.015559 144.257234,117.266408 144.257234,115.465133 L144.257234,103.474444 L127.06857,103.474444 C121.943586,103.474444 117.773938,107.666534 117.773938,112.819468 L117.773938,115.464968 C117.773938,117.266243 118.175398,119.015394 118.967164,120.663924 C119.047719,120.83168 119.089555,121.015601 119.089555,121.201832 L119.089555,124.271258 Z M126.01775,149.164324 L129.096711,146.068506 L123.291359,142.078812 L122.059906,143.379789 L125.886664,149.151128 C125.893391,149.161355 125.909141,149.184943 125.949172,149.188902 C125.989367,149.193191 126.009219,149.172902 126.01775,149.164324 Z M131.015586,144.390119 L137.678984,139.810723 L137.678984,137.550881 C135.64543,138.624223 133.381039,139.189679 131.028219,139.189679 C130.70682,139.189679 130.384438,139.179287 130.060086,139.158173 C128.006844,139.024562 126.07632,138.438488 124.352188,137.501395 L124.352188,139.810723 L131.015586,144.390119 Z M136.144508,149.151458 L139.97143,143.380118 L138.739813,142.079142 L132.934461,146.069 L136.013422,149.164654 C136.022117,149.173067 136.041805,149.194345 136.082,149.189232 C136.122031,149.185273 136.137781,149.161685 136.144508,149.151458 Z M158.613031,148.107642 L161.4185,145.287128 C161.360422,145.054711 161.329578,144.812891 161.329578,144.566123 L161.329578,144.067968 C160.462016,144.338654 159.550484,144.480513 158.616641,144.480513 C158.522141,144.480513 158.428133,144.479193 158.333305,144.476224 C157.488219,144.450822 156.671516,144.299066 155.896648,144.04339 L155.896813,144.565463 C155.896977,144.83417 155.869414,145.077804 155.820688,145.300324 L158.613031,148.107642 Z M163.253211,140.115059 C164.558,138.84196 165.276594,137.134377 165.276594,135.30671 L165.276594,132.66121 C165.276594,132.469041 165.321055,132.279841 165.406531,132.107961 L166.027672,130.858945 C166.396977,130.116166 166.592211,129.284643 166.592211,128.454275 L166.592211,123.316021 L155.981797,123.316021 C153.033102,123.316021 150.634016,125.727949 150.634016,128.692796 L150.634016,128.766529 C150.634016,129.392687 150.78118,130.019504 151.059594,130.579516 L151.819695,132.107961 C151.905172,132.279676 151.949633,132.469041 151.949633,132.66121 L151.949633,134.974001 C151.949633,138.742329 154.846484,141.895716 158.407297,142.0031 C160.226258,142.059513 161.949078,141.387499 163.253211,140.115059 Z M165.5,152 C166.3284,152 167,152.585423 167,153.307138 L167,161.692862 C167,162.414751 166.3284,163 165.5,163 C164.6716,163 164,162.414751 164,161.692862 L164,153.307138 C164,152.585249 164.6716,152 165.5,152 Z M95.5,155 C96.3284,155 97,155.505103 97,156.127798 L97,161.872202 C97,162.495047 96.3284,163 95.5,163 C94.6716,163 94,162.495047 94,161.872202 L94,156.127798 C94,155.504953 94.6716,155 95.5,155 Z M140.637525,115.617798 C141.120825,116.093405 141.120825,116.864804 140.637525,117.340574 C140.15439,117.816343 139.37078,117.816343 138.88748,117.340574 C137.233964,115.71266 134.438776,114.75901 130.579636,114.5061 C127.300158,114.290875 124.134864,114.656026 122.539759,114.892693 C122.502798,114.898215 122.475077,114.933626 122.475077,114.975047 L122.475077,117.781745 C122.475077,118.454546 121.92099,119 121.237539,119 C120.554087,119 120,118.454546 120,117.781745 L120,114.975209 C120,113.718132 120.912809,112.67027 122.170643,112.483633 C126.164098,111.891074 135.956989,111.010194 140.637525,115.617798 Z M116.5,155 C117.3284,155 118,155.57081 118,156.274508 L118,161.725492 C118,162.42936 117.3284,163 116.5,163 C115.6716,163 115,162.42936 115,161.725492 L115,156.274508 C115,155.57064 115.6716,155 116.5,155 Z M144.5,155 C145.3284,155 146,155.57081 146,156.274508 L146,161.725492 C146,162.42936 145.3284,163 144.5,163 C143.6716,163 143,162.42936 143,161.725492 L143,156.274508 C143,155.57064 143.6716,155 144.5,155 Z" id="Combined-Shape" fill="#BCB3B3" fill-rule="nonzero"></path>
                </g>
            </g>
        </g>
    </g>
</svg>