<?xml version="1.0" encoding="UTF-8"?>
<svg width="222px" height="222px" viewBox="0 0 222 222" version="1.1" xmlns="http://www.w3.org/2000/svg" xmlns:xlink="http://www.w3.org/1999/xlink">
    <!-- Generator: Sketch 53.2 (72643) - https://sketchapp.com -->
    <title>special-sales-chart</title>
    <desc>Created with Sketch.</desc>
    <defs>
        <circle id="path-1" cx="131.568389" cy="131.568389" r="95"></circle>
        <filter x="-12.1%" y="-13.7%" width="126.3%" height="126.3%" filterUnits="objectBoundingBox" id="filter-2">
            <feOffset dx="2" dy="-1" in="SourceAlpha" result="shadowOffsetOuter1"></feOffset>
            <feGaussianBlur stdDeviation="8" in="shadowOffsetOuter1" result="shadowBlurOuter1"></feGaussianBlur>
            <feColorMatrix values="0 0 0 0 0   0 0 0 0 0   0 0 0 0 0  0 0 0 0.148546766 0" type="matrix" in="shadowBlurOuter1"></feColorMatrix>
        </filter>
        <linearGradient x1="86.8291444%" y1="27.0619007%" x2="16.3922353%" y2="75.5637141%" id="linearGradient-3">
            <stop stop-color="#2E3192" offset="0%"></stop>
            <stop stop-color="#1BFFFF" offset="100%"></stop>
        </linearGradient>
    </defs>
    <g id="Page-1" stroke="none" stroke-width="1" fill="none" fill-rule="evenodd">
        <g id="1-Dashboard" transform="translate(-1006.000000, -1201.000000)">
            <g id="New-users-Copy-2" transform="translate(934.000000, 1138.000000)">
                <g id="special-sales-chart" transform="translate(54.000000, 42.000000)">
                    <g id="Oval-Copy-2" transform="translate(131.568389, 131.568389) rotate(212.000000) translate(-131.568389, -131.568389) ">
                        <use fill="black" fill-opacity="1" filter="url(#filter-2)" xlink:href="#path-1"></use>
                        <use fill="#FFFFFF" fill-rule="evenodd" xlink:href="#path-1"></use>
                    </g>
                    <path d="M132.017062,222.017062 C181.72269,222.017062 222.017062,181.72269 222.017062,132.017062 C222.017062,82.311435 181.72269,42.0170624 132.017062,42.0170624 C82.311435,42.0170624 42.0170624,82.311435 42.0170624,132.017062 C42.0170624,181.72269 82.311435,222.017062 132.017062,222.017062 Z" id="Oval-Copy-6" stroke="url(#linearGradient-3)" stroke-width="6" stroke-linecap="round" stroke-dasharray="234,234" transform="translate(132.017062, 132.017062) rotate(145.000000) translate(-132.017062, -132.017062) "></path>
                    <circle id="Oval" fill="#EDEDED" cx="131" cy="132" r="49"></circle>
                    <path d="M127.896027,142.310562 C127.422531,142.782639 126.656235,142.782639 126.182739,142.310562 C125.71019,141.837067 125.71019,141.070297 126.182739,140.596802 C126.656235,140.124725 127.422531,140.124725 127.896027,140.596802 C128.368576,141.070297 128.368576,141.837067 127.896027,142.310562 Z M128.336883,113.809067 C127.66803,113.809067 127.125946,113.266983 127.125946,112.598129 C127.125946,111.929276 127.66803,111.387192 128.336883,111.387192 L130.758758,111.387192 C131.427612,111.387192 131.969696,111.929276 131.969696,112.598129 C131.969696,113.266983 131.427612,113.809067 130.758758,113.809067 L130.758758,116.230942 C130.758758,118.90683 132.927567,121.074692 135.602508,121.074692 C138.273666,121.074692 140.446732,118.901627 140.446732,116.230942 L140.446732,113.809067 C139.777878,113.809067 139.235794,113.266983 139.235794,112.598129 C139.235794,111.929276 139.777878,111.387192 140.446732,111.387192 L142.868607,111.387192 C143.53746,111.387192 144.079544,111.929276 144.079544,112.598129 C144.079544,113.266983 143.53746,113.809067 142.868607,113.809067 L142.868607,116.230942 C142.868607,120.237442 139.609009,123.496567 135.602508,123.496567 C131.58844,123.496567 128.336883,120.24501 128.336883,116.230942 L128.336883,113.809067 Z M114.073364,161.270248 L100.35524,147.570572 C100.127716,147.343048 99.999527,147.034637 100,146.712509 C100.000473,146.390854 100.128662,146.082443 100.356659,145.855392 L104.094009,142.13649 C105.237305,140.991776 106.777939,140.410904 108.357834,140.492737 C110.361084,136.237427 114.08046,133.326447 118.770004,132.342087 L118.770004,105.210938 C118.770004,104.542084 119.312561,104 119.980942,104 L151.103455,104 C151.771835,104 152.314392,104.542084 152.314392,105.210938 L152.314392,128.855911 L153.486069,127.644028 C155.214966,125.638412 158.254608,125.392441 160.282928,127.101944 C162.324493,128.82753 162.582291,131.889877 160.858597,133.92955 L150.0103,146.956589 C149.983337,146.989227 149.954956,147.019974 149.924683,147.049301 C147.879333,149.041199 145.179794,150.138138 142.323685,150.138138 L126.37999,150.138138 C124.912674,150.138138 123.521515,150.700089 122.463364,151.719925 L121.129913,153.007492 C121.298309,154.682938 120.715073,156.340881 119.503662,157.551346 L115.785233,161.269775 C115.548721,161.505814 115.238892,161.624069 114.929062,161.624069 C114.619232,161.624069 114.309875,161.506287 114.073364,161.270248 Z M149.892517,106.421875 L121.192352,106.421875 L121.192352,132.014755 C121.593948,131.988266 121.99791,131.973602 122.40329,131.973602 C124.455734,131.973602 126.453308,132.363373 128.339722,133.132507 C128.424393,133.166565 128.508591,133.18454 128.586166,133.18454 L142.626419,133.18454 C144.111237,133.18454 145.48584,133.875153 146.387894,134.983444 L149.892517,131.360092 L149.892517,106.421875 Z M120.154541,134.554886 C115.88504,135.175491 112.580505,137.501343 110.730514,141.150238 C111.218201,141.410873 111.668991,141.741043 112.06633,142.138382 L119.504135,149.576187 C119.785111,149.856689 120.03392,150.163681 120.247726,150.492432 L120.781769,149.976837 C122.294495,148.518509 124.282135,147.716263 126.37999,147.716263 L142.323685,147.716263 C144.524658,147.716263 146.605957,146.879013 148.191055,145.356827 L159.00293,132.373306 C159.870453,131.346848 159.741318,129.815674 158.721008,128.953354 C157.701645,128.094345 156.169525,128.223007 155.306732,129.241898 C155.289703,129.262238 155.271256,129.282104 155.252808,129.301498 C154.999268,129.564026 147.679718,137.134277 147.427124,137.393021 C147.454559,137.60257 147.470169,137.814957 147.470169,138.028763 C147.470169,140.699448 145.297577,142.872513 142.626419,142.872513 L132.09079,142.872513 C131.422409,142.872513 130.879852,142.330429 130.879852,141.661575 C130.879852,140.992722 131.422409,140.450638 132.09079,140.450638 L142.626419,140.450638 C143.961761,140.450638 145.048294,139.364105 145.048294,138.028763 C145.048294,136.677811 143.939529,135.606888 142.626419,135.606888 L128.586166,135.606888 C128.196869,135.606888 127.807571,135.529312 127.430099,135.376999 C125.054108,134.408722 122.604324,134.200592 120.154541,134.554886 Z M105.804932,143.850723 L102.926117,146.715347 L114.928116,158.701263 L117.791794,155.838058 C119.061386,154.569885 119.039154,152.533997 117.792267,151.289474 L110.353516,143.851196 C109.110886,142.60762 107.077362,142.576401 105.804932,143.850723 Z" id="Combined-Shape" fill="#C4C4C4" fill-rule="nonzero"></path>
                </g>
            </g>
        </g>
    </g>
</svg>