<?xml version="1.0" encoding="UTF-8"?>
<svg width="192px" height="194px" viewBox="0 0 192 194" version="1.1" xmlns="http://www.w3.org/2000/svg" xmlns:xlink="http://www.w3.org/1999/xlink">
    <!-- Generator: Sketch 53.2 (72643) - https://sketchapp.com -->
    <title>stores-chart</title>
    <desc>Created with Sketch.</desc>
    <defs>
        <linearGradient x1="86.8291444%" y1="27.0619007%" x2="16.3922353%" y2="75.5637141%" id="linearGradient-1">
            <stop stop-color="#D4373B" offset="0%"></stop>
            <stop stop-color="#FE794C" offset="100%"></stop>
        </linearGradient>
    </defs>
    <g id="Page-1" stroke="none" stroke-width="1" fill="none" fill-rule="evenodd">
        <g id="1-Dashboard" transform="translate(-623.000000, -1215.000000)">
            <g id="New-users-Copy" transform="translate(534.000000, 1138.000000)">
                <g id="stores-chart" transform="translate(52.000000, 40.000000)">
                    <circle id="Oval-Copy-2" fill="#FFFFFF" transform="translate(133.568389, 133.568389) rotate(212.000000) translate(-133.568389, -133.568389) " cx="133.568389" cy="133.568389" r="95"></circle>
                    <path d="M133.568389,228.568389 C186.03544,228.568389 228.568389,186.03544 228.568389,133.568389 C228.568389,81.1013374 186.03544,38.5683886 133.568389,38.5683886 C81.1013374,38.5683886 38.5683886,81.1013374 38.5683886,133.568389 C38.5683886,186.03544 81.1013374,228.568389 133.568389,228.568389 Z" id="Oval-Copy-6" stroke="url(#linearGradient-1)" stroke-width="3" stroke-linecap="round" stroke-dasharray="234,234" transform="translate(133.568389, 133.568389) rotate(142.000000) translate(-133.568389, -133.568389) "></path>
                    <path d="M154.959184,137.5 C158.673469,137.5 161.693878,140.520408 161.693878,144.234694 L161.693878,154.642857 C161.693878,158.357143 158.673469,161.377551 154.959184,161.377551 L141.387755,161.377551 C137.673469,161.377551 134.653061,158.357143 134.653061,154.642857 L134.653061,144.234694 C134.653061,140.520408 137.673469,137.5 141.387755,137.5 L154.959184,137.5 Z M156.795918,154.642857 L156.795918,144.234694 C156.795918,143.234694 155.979592,142.397959 154.959184,142.397959 L141.387755,142.397959 C140.387755,142.397959 139.55102,143.214286 139.55102,144.234694 L139.55102,154.642857 C139.55102,155.642857 140.367347,156.479592 141.387755,156.479592 L154.959184,156.479592 C155.959184,156.479592 156.795918,155.663265 156.795918,154.642857 Z M183.877551,118.581633 C183.877551,124.459184 180.326531,129.5 175.265306,131.72449 C175.285714,131.806122 175.285714,131.887755 175.285714,131.989796 L175.285714,174.765306 C175.285714,176.112245 174.183673,177.214286 172.836735,177.214286 L127.653061,177.214286 C127.632653,177.214286 127.612245,177.214286 127.591837,177.214286 L108.612245,177.214286 C108.591837,177.214286 108.571429,177.214286 108.55102,177.214286 L95.0204082,177.214286 C93.6734694,177.214286 92.5714286,176.112245 92.5714286,174.765306 L92.5714286,131.683673 C87.5306122,129.459184 84,124.438776 84,118.581633 C84,118.153061 84.122449,117.744898 84.3265306,117.377551 L99.1632653,91.255102 C99.5918367,90.4795918 100.408163,90.0102041 101.285714,90.0102041 L166.571429,90.0102041 C167.44898,90.0102041 168.265306,90.5 168.693878,91.255102 L183.55102,117.377551 C183.77551,117.744898 183.877551,118.153061 183.877551,118.581633 Z M102.714286,94.9285714 L91.122449,115.357143 L176.755102,115.357143 L165.142857,94.9285714 L102.714286,94.9285714 Z M155.081633,120.234694 L136.55102,120.234694 C137.326531,124.642857 141.183673,127.989796 145.816327,127.989796 C150.44898,127.989796 154.306122,124.642857 155.081633,120.234694 Z M131.346939,120.234694 L112.795918,120.234694 C113.591837,124.642857 117.44898,127.989796 122.081633,127.989796 C126.714286,127.989796 130.571429,124.642857 131.346939,120.234694 Z M89.0612245,120.234694 C89.8367347,124.642857 93.6938776,128.010204 98.3265306,127.989796 C102.959184,127.989796 106.836735,124.642857 107.612245,120.234694 L89.0612245,120.234694 Z M125.142857,172.316327 L125.163265,172.316327 L125.163265,145.887755 C125.163265,143.94898 123.591837,142.397959 121.673469,142.397959 L114.55102,142.397959 C112.612245,142.397959 111.061224,143.969388 111.061224,145.887755 L111.061224,172.316327 L125.142857,172.316327 Z M170.387755,172.316327 L170.387755,132.887755 C170.102041,132.887755 169.836735,132.908163 169.55102,132.908163 C164.612245,132.908163 160.244898,130.397959 157.673469,126.581633 C155.102041,130.397959 150.755102,132.908163 145.816327,132.908163 C140.897959,132.908163 136.530612,130.397959 133.959184,126.581633 C131.367347,130.397959 127.020408,132.908163 122.081633,132.908163 C117.142857,132.908163 112.77551,130.397959 110.204082,126.581633 C107.632653,130.397959 103.265306,132.908163 98.3265306,132.908163 C98.0408163,132.908163 97.755102,132.908163 97.4693878,132.887755 L97.4693878,172.336735 L106.142857,172.336735 L106.142857,145.887755 C106.142857,141.255102 109.918367,137.5 114.530612,137.5 L121.653061,137.5 C126.285714,137.5 130.040816,141.27551 130.040816,145.887755 L130.040816,172.316327 L170.387755,172.316327 Z M169.55102,128.010204 C174.183673,128.010204 178.040816,124.642857 178.836735,120.255102 L160.285714,120.255102 C161.061224,124.663265 164.918367,128.010204 169.55102,128.010204 Z" id="Combined-Shape" fill="#D0D0D0" fill-rule="nonzero"></path>
                    <circle id="Oval" fill="#FE794C" cx="193" cy="59" r="6"></circle>
                </g>
            </g>
        </g>
    </g>
</svg>