<?xml version="1.0" encoding="UTF-8"?>
<svg width="207px" height="207px" viewBox="0 0 207 207" version="1.1" xmlns="http://www.w3.org/2000/svg" xmlns:xlink="http://www.w3.org/1999/xlink">
    <!-- Generator: Sketch 53.2 (72643) - https://sketchapp.com -->
    <title>team-dial-chart</title>
    <desc>Created with Sketch.</desc>
    <defs>
        <filter x="-9.9%" y="-9.9%" width="119.9%" height="119.9%" filterUnits="objectBoundingBox" id="filter-1">
            <feGaussianBlur stdDeviation="6" in="SourceGraphic"></feGaussianBlur>
        </filter>
        <linearGradient x1="86.8291444%" y1="27.0619007%" x2="16.3922353%" y2="75.5637141%" id="linearGradient-2">
            <stop stop-color="#4699C2" offset="0%"></stop>
            <stop stop-color="#8ADFE3" offset="100%"></stop>
        </linearGradient>
        <circle id="path-3" cx="91.5683886" cy="91.5683886" r="91"></circle>
        <mask id="mask-4" maskContentUnits="userSpaceOnUse" maskUnits="objectBoundingBox" x="0" y="0" width="182" height="182" fill="white">
            <use xlink:href="#path-3"></use>
        </mask>
    </defs>
    <g id="Page-1" stroke="none" stroke-width="1" fill="none" fill-rule="evenodd">
        <g id="1-Dashboard" transform="translate(-221.000000, -2758.000000)">
            <g id="Achievement-Copy" transform="translate(139.000000, 2688.000000)">
                <g id="team-dial-chart" transform="translate(94.000000, 82.000000)">
                    <circle id="Oval" fill-opacity="0.175071023" fill="#000000" filter="url(#filter-1)" cx="91.5" cy="91.5" r="90.5"></circle>
                    <circle id="Oval-Copy" stroke="#CFCFCF" fill="#F1F1F1" cx="91.5" cy="91.5" r="90"></circle>
                    <ellipse id="Oval-Copy-4" fill="#FFFFFF" cx="91.5" cy="91.5" rx="55" ry="55.5"></ellipse>
                    <use id="Oval-Copy-5" stroke="url(#linearGradient-2)" mask="url(#mask-4)" stroke-width="72" stroke-dasharray="139,427" transform="translate(91.568389, 91.568389) rotate(270.000000) translate(-91.568389, -91.568389) " xlink:href="#path-3"></use>
                    <path d="M116.550781,61 C119.55542,61 122,63.4445801 122,66.4492188 L122,69.2168732 C122,73.699707 120.457947,78.0964508 117.657181,81.596817 C115.265579,84.586319 112.081192,86.8066864 108.448853,88.0176239 C108.441284,88.019989 108.433243,88.0228271 108.425674,88.0251922 L106.395462,88.671341 C104.159012,92.3088836 100.655334,95.1101227 96.4492188,96.441681 L96.4492188,99.265625 C96.4492188,100.267014 97.2642365,101.082031 98.265625,101.082031 C101.270264,101.082031 103.714844,103.526611 103.714844,106.53125 L103.714844,108.347656 L105.53125,108.347656 C106.534531,108.347656 107.347656,109.160782 107.347656,110.164062 L107.347656,119.367188 L109.164062,119.367188 C110.167343,119.367188 110.980469,120.180313 110.980469,121.183594 C110.980469,122.186874 110.167343,123 109.164062,123 L72.8359375,123 C71.8326569,123 71.0195312,122.186874 71.0195312,121.183594 C71.0195312,120.180313 71.8326569,119.367188 72.8359375,119.367188 L74.6523438,119.367188 L74.6523438,110.164062 C74.6523438,109.160782 75.4654694,108.347656 76.46875,108.347656 L78.2851562,108.347656 L78.2851562,106.53125 C78.2851562,103.526611 80.7297363,101.082031 83.734375,101.082031 C84.7357635,101.082031 85.5507812,100.267014 85.5507812,99.265625 L85.5507812,96.441681 C81.3399352,95.1087036 77.8329468,92.3022614 75.5969696,88.6590423 L73.6717682,88.0176239 C69.9850311,86.7887116 66.6719818,84.5082702 64.3428192,81.596817 C61.5420532,78.0964508 60,73.699707 60,69.2168732 L60,66.4492188 C60,63.4445801 62.4445801,61 65.4492188,61 C66.3252563,61 115.671432,61 116.550781,61 Z M67.1795349,79.3272552 C68.8209229,81.3787536 71.0739289,83.04805 73.6140594,84.1156616 C73.3557892,83.1932679 73.1670532,82.2429657 73.0587311,81.2699585 L71.2101593,64.6328125 L65.4492188,64.6328125 C64.4478302,64.6328125 63.6328125,65.4478302 63.6328125,66.4492188 L63.6328125,69.2168732 C63.6328125,72.878067 64.8924713,76.4683075 67.1795349,79.3272552 Z M78.2851562,119.367188 L103.714844,119.367188 L103.714844,111.980469 L78.2851562,111.980469 L78.2851562,119.367188 Z M94.2255402,93.2856751 C100.195557,91.9120179 104.65805,86.9221039 105.330688,80.8688354 L107.134796,64.6328125 L74.8652038,64.6328125 L76.6693115,80.8688354 C77.3419495,86.9221039 81.8044434,91.9120179 87.7744598,93.2856751 C88.599411,93.4753571 89.1835938,94.2094879 89.1835938,95.0557251 L89.1835938,99.265625 C89.1835938,102.270264 86.7390137,104.714844 83.734375,104.714844 C82.7329865,104.714844 81.9179688,105.529861 81.9179688,106.53125 L81.9179688,108.347656 L100.082031,108.347656 L100.082031,106.53125 C100.082031,105.529861 99.2670135,104.714844 98.265625,104.714844 C95.2609863,104.714844 92.8164063,102.270264 92.8164063,99.265625 L92.8164063,95.0557251 C92.8164063,94.2094879 93.400589,93.4753571 94.2255402,93.2856751 Z M118.367188,69.2168732 L118.367188,66.4492188 C118.367188,65.4478302 117.55217,64.6328125 116.550781,64.6328125 L110.789841,64.6328125 L108.941269,81.2699585 C108.830582,82.2628327 108.636642,83.2315827 108.369858,84.1719513 C110.892014,83.1294098 113.105759,81.470993 114.820465,79.3272552 C117.107529,76.4683075 118.367188,72.878067 118.367188,69.2168732 Z M98.4526275,73.1338921 C99.1360619,73.2310857 99.7037156,73.7109502 99.9141834,74.3692378 C100.124651,75.0275254 99.940902,75.7482612 99.4407481,76.2248388 L96.5396673,78.9908676 L97.2226331,82.8847186 C97.3407575,83.5589703 97.0679462,84.2416738 96.5176362,84.6482908 C95.967795,85.0544382 95.2356107,85.1135997 94.6276448,84.8008896 L91.0000048,82.9354283 L87.3718962,84.8008896 C86.7653365,85.1126607 86.0331522,85.0549079 85.4819047,84.6482908 C84.9320635,84.2421433 84.6592522,83.5589703 84.7773766,82.8847186 L85.4603424,78.9908676 L82.5587929,76.2248388 C82.0591077,75.7487307 81.8753585,75.0275254 82.0858263,74.3692378 C82.2962941,73.7109502 82.8639478,73.2310857 83.5469134,73.1338921 L87.5922076,72.5591817 L89.3936058,68.9897791 C89.6996981,68.3826708 90.3212579,68 91.0000048,68 C91.6787518,68 92.3003115,68.3826708 92.6064039,68.9897791 L94.407802,72.5591817 L98.4526275,73.1338921 Z M93.3592129,77.0446464 L94.2653027,76.1807026 L92.9720272,75.9971145 C92.3893736,75.9144764 91.8840634,75.5515261 91.6182833,75.0251777 L91.0000048,73.7996922 L90.3812576,75.0256473 C90.1159463,75.5515261 89.6106361,75.9144764 89.0279825,75.9971145 L87.734707,76.1811721 L88.6407968,77.0446464 C89.077201,77.4611237 89.2768876,78.068232 89.1728256,78.6631324 L88.9492328,79.9365105 L90.1778211,79.3049862 C90.6939125,79.0396992 91.3060972,79.0396992 91.8217199,79.3049862 L93.0503082,79.9365105 L92.827184,78.6631324 C92.7226534,78.068232 92.9223399,77.4611237 93.3592129,77.0446464 Z" id="Combined-Shape" fill="#E3E3E3" fill-rule="nonzero"></path>
                </g>
            </g>
        </g>
    </g>
</svg>