<?xml version="1.0" encoding="UTF-8"?>
<svg width="207px" height="207px" viewBox="0 0 207 207" version="1.1" xmlns="http://www.w3.org/2000/svg" xmlns:xlink="http://www.w3.org/1999/xlink">
    <!-- Generator: Sketch 53.2 (72643) - https://sketchapp.com -->
    <title>tracker-chart</title>
    <desc>Created with Sketch.</desc>
    <defs>
        <filter x="-9.9%" y="-9.9%" width="119.9%" height="119.9%" filterUnits="objectBoundingBox" id="filter-1">
            <feGaussianBlur stdDeviation="6" in="SourceGraphic"></feGaussianBlur>
        </filter>
        <ellipse id="path-2" cx="122.5" cy="122.5" rx="98" ry="98.5"></ellipse>
        <filter x="-1.0%" y="-1.0%" width="102.0%" height="102.0%" filterUnits="objectBoundingBox" id="filter-3">
            <feGaussianBlur stdDeviation="1.5" in="SourceAlpha" result="shadowBlurInner1"></feGaussianBlur>
            <feOffset dx="0" dy="1" in="shadowBlurInner1" result="shadowOffsetInner1"></feOffset>
            <feComposite in="shadowOffsetInner1" in2="SourceAlpha" operator="arithmetic" k2="-1" k3="1" result="shadowInnerInner1"></feComposite>
            <feColorMatrix values="0 0 0 0 0   0 0 0 0 0   0 0 0 0 0  0 0 0 0.5 0" type="matrix" in="shadowInnerInner1"></feColorMatrix>
        </filter>
        <linearGradient x1="8.01780004%" y1="88.4907298%" x2="95.5249424%" y2="9.37060449%" id="linearGradient-4">
            <stop stop-color="#6236FF" offset="0%"></stop>
            <stop stop-color="#A11FFF" offset="100%"></stop>
        </linearGradient>
    </defs>
    <g id="Page-1" stroke="none" stroke-width="1" fill="none" fill-rule="evenodd">
        <g id="1-Dashboard" transform="translate(-216.000000, -2034.000000)">
            <g id="total-tracker" transform="translate(134.000000, 1964.000000)">
                <g id="tracker-chart" transform="translate(63.000000, 51.000000)">
                    <circle id="Oval" fill-opacity="0.175071023" fill="#000000" filter="url(#filter-1)" cx="122.5" cy="122.5" r="90.5"></circle>
                    <circle id="Oval-Copy" stroke="#DADADA" fill="#FFFFFF" cx="122.5" cy="122.5" r="90"></circle>
                    <g id="Oval-Copy-3">
                        <use fill="#C9C5C5" fill-rule="evenodd" xlink:href="#path-2"></use>
                        <use fill="black" fill-opacity="1" filter="url(#filter-3)" xlink:href="#path-2"></use>
                        <ellipse stroke="#DADADA" stroke-width="1" stroke-linejoin="square" cx="122.5" cy="122.5" rx="97.5" ry="98"></ellipse>
                    </g>
                    <path d="M122.568389,209.568389 C170.617162,209.568389 209.568389,170.617162 209.568389,122.568389 C209.568389,74.5196154 170.617162,35.5683886 122.568389,35.5683886 C74.5196154,35.5683886 35.5683886,74.5196154 35.5683886,122.568389 C35.5683886,170.617162 74.5196154,209.568389 122.568389,209.568389 Z" id="Oval-Copy-2" stroke="url(#linearGradient-4)" stroke-width="6" fill="#FFFFFF" stroke-linecap="round" stroke-dasharray="219,177" transform="translate(122.568389, 122.568389) rotate(140.000000) translate(-122.568389, -122.568389) "></path>
                    <path d="M119.888889,114.975093 L119.888889,118.259259 L78.9166667,118.259259 C78.012,118.259259 77.2777778,119.015907 77.2777778,119.944444 C77.2777778,120.872981 78.012,121.62963 78.9166667,121.62963 L100.222222,121.62963 C95.6185833,121.62963 91.2968333,122.85813 87.5372222,125 L78.9166667,125 C76.2059444,125 74,122.731741 74,119.944444 C74,117.157148 76.2059444,114.888889 78.9166667,114.888889 L119.888889,114.888889 L119.888889,114.413565 C119.888889,111.801313 120.918094,109.294142 122.751772,107.447012 L125.567429,104.608179 C129.718447,100.424635 135.333476,98.2556943 141.246518,98.5889987 C147.003225,98.9124516 152.31047,101.853082 156.04948,106.279626 L156.64225,106.982357 C157.249676,107.877188 158.243054,108.40752 159.325999,108.40752 L168.743549,108.40752 C169.719014,108.40752 170.634225,108.844263 171.256307,109.606102 C171.888161,110.377792 172.127549,111.35636 171.935387,112.361199 C171.647145,113.850396 170.194533,114.975093 168.551388,114.975093 L159.325999,114.975093 C156.748102,114.975093 154.277684,113.937416 152.458663,112.109989 L149.201685,109.315487 L149.201685,125.187668 L149.743972,125.678594 C150.146209,126.041453 150.442594,126.47327 150.621727,126.955987 L160.394288,153.226278 C161.022885,154.922353 160.167928,156.81874 158.498727,157.452511 C158.02158,157.629835 157.549318,157.698795 157.057515,157.652822 C155.816606,157.547741 154.697835,156.618429 154.202774,155.290137 L145.182575,131.037733 L143.847214,131.279092 C142.762641,131.474477 141.751349,131.415369 140.753086,131.0952 C138.100278,130.243057 136.245429,127.570055 136.185175,124.565391 L136.193318,124.465235 L136.177033,124.463593 C136.177033,124.447174 136.173776,124.432397 136.173776,124.41762 L136.173776,109.568338 C136.173776,108.020033 134.92961,106.765627 133.393946,106.765627 C132.65624,106.765627 131.949476,107.061167 131.42836,107.586573 L127.357138,111.691306 C126.746455,112.307016 126.402844,113.14274 126.402844,114.012943 L126.402844,114.975093 L119.888889,114.975093 Z M118.96274,151.192722 C119.053461,151.196 119.140942,151.222222 119.231663,151.222222 L122.222222,151.222222 C120.639461,162.379778 111.113737,170.888889 99.7914083,170.888889 C87.2848444,170.888889 77.1111111,160.596667 77.1111111,147.944444 C77.1111111,135.292222 87.2848444,125 99.7914083,125 C108.599464,125 116.553768,130.185444 120.274957,138.111111 L119.422826,138.111111 C118.530194,138.111111 117.681303,138.296306 116.897212,138.609333 C113.525948,132.281583 106.995643,128.277778 99.7914083,128.277778 C89.0717278,128.277778 80.3511536,137.099917 80.3511536,147.944444 C80.3511536,158.788972 89.0717278,167.611111 99.7914083,167.611111 C109.321993,167.611111 117.418859,160.531111 118.96274,151.192722 Z M114.36798,140.980067 C113.704664,141.777133 113.220312,142.722833 113.013437,143.777967 C112.634164,145.723267 113.133293,147.707767 114.386041,149.2186 C114.845765,149.773933 115.404001,150.206767 116,150.577533 C114.891737,158.554733 107.956474,164.666667 99.752044,164.666667 C90.6987669,164.666667 83.3333333,157.339533 83.3333333,148.333333 C83.3333333,139.327133 90.6987669,132 99.752044,132 C105.981303,132 111.583367,135.506767 114.36798,140.980067 Z M111.245141,148.333333 L111.245141,145.066667 L103.56611,145.066667 L101.443171,150.3456 L96.9526538,138.4337 L90.7217531,146.7 L86.6170755,146.7 L86.6170755,149.966667 L92.3636242,149.966667 L95.9839499,145.1663 L101.344659,159.387733 L105.789204,148.333333 L111.245141,148.333333 Z M142.833333,95.4444444 C137.463898,95.4444444 133.111111,91.0916573 133.111111,85.7222222 C133.111111,80.3527872 137.463898,76 142.833333,76 C148.202768,76 152.555556,80.3527872 152.555556,85.7222222 C152.555556,91.0916573 148.202768,95.4444444 142.833333,95.4444444 Z M135.342647,132 C136.479214,133.24034 137.902409,134.201027 139.532704,134.717561 C140.228561,134.937993 140.9443,135.046564 141.666667,135.105784 L140.907851,143.822708 C140.684182,146.393863 138.555189,148.333333 135.957321,148.333333 L119.313071,148.333333 C118.320646,148.333333 117.389522,147.89576 116.756623,147.130829 C116.113783,146.359318 115.870233,145.37889 116.065736,144.372142 C116.35899,142.880115 117.836859,141.753282 119.508574,141.753282 L131.507146,141.753282 C133.225252,141.753282 134.674955,140.420821 134.81247,138.719878 L135.342647,132 Z M122.366889,124.93908 C120.954444,124.665245 119.888889,123.274284 119.888889,121.704396 L119.888889,118.777778 L126.111111,118.777778 L126.111111,121.889547 C126.111111,122.821522 125.695778,123.695929 124.975556,124.290276 C124.242889,124.892404 123.315778,125.121119 122.366889,124.93908 Z M95.3888889,95.4444444 L88.6366889,89.8753212 C87.7367222,89.1333102 87.2222222,88.0453509 87.2222222,86.8878785 C87.2222222,84.7442914 88.9845889,83 91.1503889,83 L91.4525556,83 C92.4864556,83 93.4974889,83.4154614 94.3370222,84.2383014 L95.4934222,85.1840016 L96.5485556,84.13969 C97.2802889,83.4154614 98.2913222,83 99.3252222,83 L99.6273889,83 C101.793189,83 103.555556,84.7442914 103.555556,86.8878785 C103.555556,88.0453509 103.041056,89.1333102 102.141089,89.8753212 L95.3888889,95.4444444 Z M78.7373737,102.077267 C77.8396768,102.077267 77.1111111,101.345474 77.1111111,100.447438 L77.1111111,77.6298292 C77.1111111,76.7317933 77.8396768,76 78.7373737,76 L111.262626,76 C112.160323,76 112.888889,76.7317933 112.888889,77.6298292 L112.888889,100.447438 C112.888889,101.345474 112.160323,102.077267 111.262626,102.077267 L103.131313,102.077267 L103.131313,106.966755 C103.131313,107.903907 102.370222,108.666667 101.435121,108.666667 C100.929354,108.666667 100.454485,108.44338 100.132485,108.055481 L92.2922727,102.077267 L78.7373737,102.077267 Z M90.7798485,79.2596584 C86.8312828,79.2596584 83.6161616,82.4802009 83.6161616,86.439056 C83.6161616,88.5757621 84.5561414,90.5869713 86.1937879,91.954398 L95,99.3098172 L103.806212,91.954398 C105.443859,90.5853415 106.383838,88.5757621 106.383838,86.439056 C106.383838,82.4802009 103.168717,79.2596584 99.2201515,79.2596584 L98.9192929,79.2596584 C97.483303,79.2596584 96.1123636,79.6801543 94.9918687,80.4217266 C93.8372222,79.6654859 92.4906768,79.2596584 91.0807071,79.2596584 L90.7798485,79.2596584 Z" id="Combined-Shape" fill="#E3E3E3" fill-rule="nonzero"></path>
                </g>
            </g>
        </g>
    </g>
</svg>