<svg width="304" height="190" viewBox="0 0 304 190" fill="none" xmlns="http://www.w3.org/2000/svg">
<rect width="304" height="190" fill="#F1F1F1"/>
<path d="M134.878 108.019C135.156 107.741 135.346 107.386 135.423 106.999C135.499 106.613 135.46 106.212 135.309 105.848C135.158 105.484 134.903 105.173 134.575 104.954C134.248 104.736 133.862 104.619 133.469 104.619C133.075 104.619 132.689 104.736 132.362 104.954C132.034 105.173 131.779 105.484 131.628 105.848C131.477 106.212 131.438 106.613 131.515 106.999C131.591 107.386 131.781 107.741 132.059 108.019C132.433 108.392 132.94 108.602 133.469 108.602C133.997 108.602 134.504 108.392 134.878 108.019Z" fill="#CCCCCC"/>
<path d="M135.606 61.1314V65.1158C135.662 68.2483 136.945 71.2332 139.18 73.4284C141.415 75.624 144.422 76.8541 147.555 76.8541C150.687 76.8541 153.695 75.624 155.929 73.4284C158.164 71.2332 159.447 68.2483 159.503 65.1158V61.1314C160.032 61.1314 160.538 60.9212 160.912 60.5477C161.286 60.1739 161.495 59.6675 161.495 59.139C161.495 58.6105 161.286 58.1036 160.912 57.7302C160.538 57.3564 160.032 57.1465 159.503 57.1465H155.518C154.99 57.1465 154.483 57.3564 154.109 57.7302C153.736 58.1036 153.526 58.6105 153.526 59.139C153.526 59.6675 153.736 60.1739 154.109 60.5477C154.483 60.9212 154.99 61.1314 155.518 61.1314V65.1158C155.518 67.2285 154.679 69.2544 153.185 70.7485C151.691 72.2421 149.665 73.0814 147.553 73.0814C145.44 73.0814 143.414 72.2421 141.92 70.7485C140.426 69.2544 139.587 67.2285 139.587 65.1158V61.1314C139.849 61.1314 140.108 61.0796 140.349 60.9796C140.591 60.8797 140.811 60.7326 140.996 60.5477C141.181 60.3625 141.328 60.1432 141.428 59.9014C141.528 59.6595 141.58 59.4007 141.58 59.139C141.58 58.8773 141.528 58.618 141.428 58.3766C141.328 58.1348 141.181 57.915 140.996 57.7302C140.811 57.5449 140.591 57.3983 140.349 57.2984C140.108 57.1979 139.849 57.1465 139.587 57.1465H135.602C135.341 57.1465 135.082 57.1979 134.84 57.2984C134.598 57.3983 134.379 57.5449 134.193 57.7302C134.009 57.915 133.862 58.1348 133.762 58.3766C133.662 58.618 133.61 58.8773 133.61 59.139C133.61 59.4007 133.662 59.6595 133.762 59.9014C133.862 60.1432 134.009 60.3625 134.193 60.5477C134.379 60.7326 134.598 60.8797 134.84 60.9796C135.082 61.0796 135.341 61.1314 135.602 61.1314H135.606Z" fill="#CCCCCC"/>
<path d="M112.147 139.184C112.521 139.557 113.027 139.766 113.555 139.766C114.082 139.766 114.589 139.557 114.962 139.184L121.075 133.067C122.049 132.099 122.795 130.927 123.258 129.634C123.721 128.341 123.889 126.962 123.75 125.596L125.943 123.486C127.67 121.815 129.98 120.883 132.384 120.887H158.605C163.277 120.898 167.766 119.073 171.106 115.808C171.155 115.76 171.202 115.71 171.246 115.657L189.086 94.2311C190.461 92.6234 191.141 90.5357 190.976 88.4268C190.811 86.3179 189.815 84.3613 188.207 82.9865C186.599 81.6122 184.511 80.9323 182.403 81.0973C180.294 81.2624 178.337 82.2581 176.963 83.8658L175.034 85.8583V46.9923C175.034 46.4639 174.824 45.9572 174.451 45.5835C174.077 45.2099 173.57 45 173.042 45H121.86C121.331 45 120.824 45.2099 120.451 45.5835C120.077 45.9572 119.867 46.4639 119.867 46.9923V91.6088C116.161 92.333 112.677 93.9233 109.702 96.25C106.727 98.5767 104.344 101.574 102.748 104.997C101.455 104.928 100.162 105.133 98.9536 105.599C97.7454 106.065 96.6492 106.78 95.7366 107.699L89.586 113.834C89.4002 114.019 89.2529 114.239 89.1523 114.481C89.0518 114.724 89 114.983 89 115.245C89 115.508 89.0518 115.767 89.1523 116.009C89.2529 116.252 89.4002 116.471 89.586 116.657L112.147 139.184ZM171.054 48.9998V89.994L165.288 95.9407C164.54 95.0204 163.598 94.2773 162.528 93.7658C161.459 93.2542 160.288 92.9864 159.103 92.9822H136.014C135.875 92.9794 135.738 92.9497 135.61 92.8955C132.511 91.6314 129.195 90.9846 125.848 90.9902C125.18 90.9902 124.516 91.0129 123.856 91.0581V48.9847L171.054 48.9998Z" fill="#CCCCCC"/>
</svg>
