<svg width="350" height="350" viewBox="0 0 350 350" fill="none" xmlns="http://www.w3.org/2000/svg">
<path d="M350 0H0V350H350V0Z" fill="#F1F1F1"/>
<g clip-path="url(#clip0_15_2)">
<path d="M285 214.149C285.012 201.234 281.089 188.62 273.751 177.979C268.51 170.339 261.686 163.91 253.741 159.125C258.648 154.498 262.527 148.895 265.126 142.679C267.726 136.463 268.989 129.772 268.834 123.039C268.679 116.305 267.109 109.68 264.225 103.589C261.341 97.499 257.208 92.0798 252.093 87.6821C246.978 83.2844 240.994 80.0059 234.529 78.0585C228.064 76.1111 221.261 75.5382 214.559 76.3768C207.858 77.2153 201.408 79.4467 195.626 82.9267C189.843 86.4067 184.858 91.0579 180.991 96.5796C176.355 95.8989 171.645 95.8989 167.01 96.5796C163.142 91.0579 158.157 86.4067 152.374 82.9267C146.592 79.4467 140.142 77.2153 133.441 76.3768C126.739 75.5382 119.936 76.1111 113.471 78.0585C107.006 80.0059 101.022 83.2844 95.9071 87.6821C90.7919 92.0798 86.6589 97.499 83.7751 103.589C80.8914 109.68 79.3212 116.305 79.1659 123.039C79.0106 129.772 80.2737 136.463 82.8736 142.679C85.4735 148.895 89.3523 154.498 94.2594 159.125C86.3133 163.909 79.4895 170.339 74.2492 177.979C66.9117 188.621 62.9888 201.234 63 214.149V240.941H109.563V261H238.437V240.941H285V214.149ZM220.559 87.8862C230.207 87.8862 239.46 91.7085 246.283 98.5121C253.105 105.316 256.938 114.543 256.938 124.165C256.938 133.787 253.105 143.015 246.283 149.818C239.46 156.622 230.207 160.444 220.559 160.444H219.48L219.601 160.201C220.227 158.432 220.747 156.627 221.159 154.796C221.159 154.666 221.22 154.536 221.246 154.406C221.35 153.911 221.446 153.408 221.542 152.905C221.585 152.67 221.629 152.428 221.672 152.193C221.748 151.742 221.817 151.291 221.881 150.84C221.924 150.528 221.968 150.215 222.003 149.894C222.038 149.573 222.098 149.096 222.133 148.688C222.168 148.28 222.203 147.864 222.229 147.456C222.255 147.048 222.281 146.805 222.29 146.484C222.325 145.785 222.342 145.085 222.342 144.385C222.342 144.333 222.342 144.281 222.342 144.229C222.342 144.177 222.342 144.177 222.342 144.142C222.342 143.422 222.342 142.71 222.29 142.008C222.29 141.799 222.29 141.6 222.29 141.392C222.255 140.813 222.209 140.212 222.151 139.587C222.151 139.448 222.151 139.318 222.151 139.179C221.284 130.711 218.172 122.626 213.133 115.755C208.095 108.884 201.313 103.475 193.484 100.085C196.886 96.2714 201.055 93.2147 205.72 91.1131C210.384 89.0115 215.44 87.912 220.559 87.8862V87.8862ZM161.398 110.184L161.746 110.062L162.842 109.689L163.712 109.429L164.33 109.255L165.435 108.969C171.074 107.595 176.961 107.595 182.6 108.969L183.705 109.255L184.331 109.429L185.201 109.681L186.306 110.054L186.646 110.175C192.709 112.422 198.066 116.234 202.169 121.222C206.271 126.209 208.972 132.194 209.997 138.563L210.04 138.876C210.11 139.318 210.162 139.743 210.214 140.212C210.214 140.376 210.214 140.541 210.266 140.706C210.266 141.114 210.336 141.53 210.362 141.938C210.362 142.112 210.362 142.294 210.362 142.467C210.362 142.994 210.362 143.526 210.362 144.064C210.362 144.107 210.362 144.159 210.362 144.203C210.362 144.246 210.362 144.246 210.362 144.263C210.362 144.784 210.362 145.296 210.362 145.808C210.362 145.973 210.362 146.129 210.362 146.294C210.362 146.785 210.324 147.277 210.249 147.769C210.249 147.959 210.205 148.15 210.188 148.332C210.171 148.515 210.11 148.966 210.066 149.278C210.023 149.59 209.997 149.764 209.962 150.007C209.927 150.25 209.831 150.744 209.762 151.109C209.692 151.473 209.631 151.759 209.553 152.081L209.414 152.662C209.298 153.142 209.17 153.622 209.031 154.102C208.979 154.293 208.926 154.484 208.866 154.666C208.805 154.848 208.692 155.213 208.605 155.482L208.387 156.132C208.3 156.375 208.213 156.618 208.126 156.861C207.969 157.272 207.807 157.679 207.639 158.084L207.404 158.622C207.259 158.958 207.108 159.293 206.952 159.629L206.899 159.75L206.725 160.106C206.551 160.464 206.369 160.82 206.177 161.173L205.96 161.581C205.751 161.954 205.542 162.327 205.316 162.691L205.055 163.125C204.817 163.513 204.571 163.894 204.315 164.27C204.159 164.505 203.994 164.73 203.837 164.964L203.419 165.546L202.863 166.283L202.471 166.778L201.862 167.524L201.471 167.975C201.253 168.218 201.044 168.47 200.818 168.704L200.418 169.12C200.058 169.496 199.693 169.866 199.322 170.231L198.652 170.873L198.173 171.298L197.381 171.983L196.973 172.322C196.648 172.582 196.32 172.839 195.989 173.094L195.72 173.302C189.459 177.945 181.864 180.453 174.061 180.453C166.258 180.453 158.663 177.945 152.402 173.302L152.132 173.103C151.796 172.848 151.465 172.591 151.141 172.33L150.732 171.992L149.879 171.367L149.401 170.942L148.731 170.3C148.354 169.936 147.985 169.566 147.626 169.19L147.234 168.765C147.017 168.522 146.799 168.279 146.582 168.036L146.19 167.585L145.581 166.847L145.19 166.353L144.633 165.615L144.215 165.034C144.05 164.808 143.893 164.574 143.737 164.34C143.482 163.964 143.235 163.582 142.997 163.195L142.736 162.769C142.51 162.396 142.293 162.023 142.084 161.642L141.858 161.216C141.666 160.861 141.483 160.505 141.309 160.149L141.127 159.768V159.707C140.961 159.36 140.805 159.013 140.648 158.657L140.431 158.145C140.257 157.729 140.091 157.312 139.935 156.896C139.848 156.67 139.77 156.436 139.691 156.21C139.613 155.985 139.526 155.742 139.448 155.499C139.369 155.256 139.282 154.987 139.204 154.727C139.126 154.466 138.978 153.955 138.873 153.564C138.769 153.174 138.734 153.018 138.665 152.697C138.595 152.376 138.56 152.263 138.517 152.046C138.473 151.829 138.395 151.508 138.343 151.239C138.262 150.822 138.186 150.4 138.117 149.972C138.117 149.747 138.047 149.512 138.012 149.287C137.977 149.061 137.916 148.61 137.882 148.272C137.882 148.107 137.882 147.933 137.821 147.769C137.769 147.265 137.734 146.762 137.708 146.259C137.708 146.111 137.708 145.964 137.708 145.825C137.708 145.287 137.708 144.741 137.708 144.194C137.708 143.647 137.708 143.023 137.751 142.459C137.751 142.303 137.751 142.146 137.751 141.99C137.751 141.556 137.812 141.123 137.847 140.689C137.847 140.541 137.847 140.385 137.89 140.238C137.943 139.769 138.003 139.309 138.064 138.841V138.572C139.085 132.202 141.785 126.217 145.888 121.23C149.991 116.243 155.35 112.434 161.415 110.192L161.398 110.184ZM91.0578 124.17C91.0558 116.811 93.2983 109.626 97.4877 103.569C101.677 97.5118 107.615 92.8686 114.513 90.2562C121.411 87.6438 128.943 87.1857 136.108 88.9427C143.273 90.6997 149.733 94.5888 154.629 100.093C146.79 103.48 139.997 108.888 134.951 115.763C129.904 122.638 126.787 130.73 125.919 139.205C125.919 139.327 125.919 139.439 125.919 139.561C125.861 140.18 125.815 140.802 125.78 141.426C125.78 141.617 125.78 141.808 125.78 141.999C125.78 142.745 125.719 143.491 125.719 144.237C125.719 144.983 125.719 145.756 125.78 146.51C125.78 146.814 125.78 147.118 125.841 147.378C125.841 147.812 125.902 148.246 125.936 148.679C125.971 149.113 126.015 149.452 126.058 149.833C126.102 150.215 126.137 150.501 126.189 150.831C126.241 151.161 126.319 151.699 126.389 152.133C126.432 152.393 126.476 152.644 126.528 152.905C126.615 153.391 126.711 153.876 126.815 154.354C126.815 154.51 126.885 154.666 126.928 154.822C127.33 156.584 127.833 158.322 128.433 160.028L128.546 160.358H127.468C117.833 160.355 108.592 156.546 101.767 149.763C94.9433 142.981 91.0923 133.778 91.0578 124.17V124.17ZM119.551 199.946L119.168 200.571C118.898 201.014 118.628 201.439 118.367 201.89L117.941 202.636C117.706 203.044 117.471 203.504 117.245 203.877L116.827 204.666C116.613 205.083 116.401 205.499 116.192 205.916L115.81 206.705C115.601 207.148 115.392 207.573 115.192 208.033C115.079 208.275 114.974 208.518 114.861 208.761C114.626 209.291 114.409 209.828 114.191 210.366L114 210.835C113.722 211.535 113.458 212.238 113.208 212.943L113.043 213.429C112.851 213.976 112.669 214.522 112.495 215.069C112.416 215.32 112.338 215.572 112.269 215.832C112.129 216.301 111.99 216.761 111.86 217.238C111.781 217.516 111.712 217.793 111.633 218.105C111.517 218.557 111.404 219.008 111.294 219.459C111.225 219.748 111.158 220.037 111.094 220.327C110.99 220.786 110.894 221.246 110.807 221.706C110.755 221.984 110.694 222.261 110.642 222.574C110.546 223.077 110.468 223.58 110.381 224.083C110.381 224.318 110.302 224.56 110.268 224.795C110.154 225.541 110.059 226.278 109.972 227.033C109.896 227.716 109.83 228.398 109.772 229.081H74.9191V214.149C74.915 204.221 77.7464 194.498 83.082 186.116C88.4176 177.735 96.0367 171.042 105.048 166.821C114.068 171.552 124.362 173.302 134.445 171.819C134.81 172.33 135.176 172.842 135.559 173.346L135.95 173.84C136.324 174.317 136.707 174.794 137.107 175.263L137.603 175.827C137.974 176.249 138.351 176.666 138.734 177.076L139.343 177.718C139.697 178.077 140.054 178.433 140.413 178.785L140.814 179.185C140.297 179.497 139.784 179.815 139.274 180.139L139.03 180.304C138.52 180.633 138.015 180.969 137.516 181.31L137.003 181.666L135.681 182.62L135.263 182.924C134.683 183.34 134.135 183.766 133.619 184.199L133.271 184.486C132.841 184.838 132.415 185.194 131.992 185.553L131.504 185.978C131.081 186.348 130.663 186.724 130.252 187.106L129.93 187.401C129.425 187.875 128.926 188.358 128.433 188.85L128.051 189.24C127.674 189.622 127.302 190.009 126.937 190.403L126.502 190.871C126.09 191.322 125.684 191.776 125.284 192.233L125.093 192.45C124.634 192.982 124.188 193.52 123.753 194.064L123.387 194.524C123.057 194.94 122.732 195.363 122.413 195.791L122.039 196.285C121.621 196.858 121.169 197.43 120.803 198.02C120.438 198.61 119.959 199.304 119.551 199.946ZM121.473 249.114V234.217C121.473 233.558 121.473 232.901 121.473 232.247C121.473 232.031 121.473 231.814 121.473 231.605C121.473 231.172 121.473 230.738 121.543 230.295C121.543 230.035 121.595 229.766 121.612 229.506C121.63 229.246 121.682 228.734 121.717 228.352C121.752 227.97 121.786 227.797 121.821 227.484C121.856 227.172 121.908 226.756 121.969 226.4C122.03 226.044 122.065 225.827 122.117 225.532C122.169 225.237 122.23 224.838 122.291 224.491C122.352 224.144 122.413 223.91 122.474 223.623C122.535 223.337 122.613 222.947 122.683 222.617C122.752 222.287 122.822 222.027 122.9 221.749C122.978 221.472 123.057 221.09 123.144 220.769C123.231 220.448 123.309 220.179 123.396 219.901C123.483 219.624 123.579 219.259 123.674 218.947C123.77 218.635 123.866 218.357 123.961 218.079C124.057 217.802 124.162 217.455 124.266 217.151C124.37 216.847 124.475 216.57 124.579 216.283C124.684 215.997 124.797 215.667 124.919 215.373C125.04 215.078 125.153 214.8 125.267 214.505C125.38 214.21 125.51 213.906 125.641 213.637C125.771 213.368 125.893 213.065 126.023 212.77C126.154 212.475 126.284 212.188 126.424 211.902C126.563 211.616 126.702 211.338 126.841 211.034C126.98 210.731 127.12 210.462 127.268 210.167C127.415 209.872 127.563 209.612 127.711 209.299C127.859 208.987 128.016 208.744 128.172 208.432L128.651 207.616L129.138 206.801L129.643 206.002L130.156 205.204L130.695 204.423L131.235 203.651L131.8 202.888L132.366 202.133L132.957 201.387L133.558 200.658L134.175 199.938L134.802 199.226L135.446 198.524L136.098 197.838L136.768 197.161L137.447 196.493L138.143 195.843L138.847 195.201L139.569 194.576L140.3 193.951L141.04 193.353L141.797 192.754L142.562 192.181L143.345 191.609L144.128 191.062L144.937 190.516L145.738 189.995L146.608 189.474L147.426 188.989L148.296 188.494L149.166 188.034L150.036 187.566L150.906 187.132L151.584 186.811C158.491 190.43 166.176 192.321 173.978 192.321C181.78 192.321 189.466 190.43 196.372 186.811L197.051 187.132L197.921 187.566L198.791 188.026L199.661 188.494L200.531 188.98L201.401 189.474L202.271 189.986L203.08 190.516L203.88 191.053L204.672 191.609L205.446 192.173L206.221 192.754L206.969 193.344L207.717 193.951L208.448 194.567L209.17 195.201L209.875 195.843L210.571 196.502L211.241 197.161L211.919 197.847L212.563 198.532L213.216 199.235L213.833 199.938L214.46 200.667L215.051 201.395L215.652 202.141L216.217 202.888L216.783 203.651L217.322 204.423L217.861 205.204L218.375 205.994L218.888 206.801L219.367 207.607C219.523 207.876 219.688 208.154 219.845 208.423C220.002 208.692 220.15 208.978 220.297 209.291C220.445 209.603 220.602 209.846 220.741 210.158C220.88 210.471 221.028 210.722 221.168 211.026C221.307 211.329 221.446 211.581 221.585 211.893C221.724 212.206 221.855 212.475 221.985 212.761C222.116 213.047 222.246 213.325 222.368 213.629C222.49 213.932 222.612 214.219 222.734 214.496C222.855 214.774 222.968 215.069 223.082 215.364C223.195 215.659 223.308 215.971 223.421 216.231C223.534 216.492 223.638 216.813 223.734 217.099C223.83 217.385 223.943 217.724 224.039 218.036C224.134 218.348 224.23 218.617 224.317 218.904C224.404 219.19 224.5 219.537 224.595 219.858C224.691 220.179 224.769 220.439 224.848 220.726C224.926 221.012 225.013 221.376 225.091 221.706C225.17 222.036 225.239 222.287 225.309 222.574C225.378 222.86 225.448 223.242 225.518 223.58C225.587 223.918 225.639 224.161 225.7 224.448C225.761 224.734 225.822 225.142 225.874 225.48C225.926 225.819 225.979 226.061 226.022 226.348C226.066 226.634 226.118 227.068 226.161 227.424C226.205 227.779 226.24 227.988 226.274 228.291C226.309 228.595 226.344 229.055 226.379 229.445C226.414 229.836 226.431 229.974 226.448 230.235C226.448 230.668 226.501 231.102 226.518 231.545C226.518 231.762 226.518 231.97 226.518 232.187C226.518 232.84 226.518 233.497 226.518 234.156V249.062L121.473 249.114ZM238.228 229.055C238.112 227.609 237.947 226.163 237.732 224.717C237.732 224.491 237.654 224.265 237.619 224.04C237.532 223.519 237.454 223.007 237.358 222.487C237.306 222.218 237.254 221.949 237.202 221.671C237.109 221.203 237.01 220.734 236.906 220.266C236.842 219.982 236.778 219.693 236.715 219.398C236.604 218.941 236.491 218.484 236.375 218.027C236.306 217.75 236.227 217.472 236.158 217.16C236.027 216.683 235.888 216.214 235.749 215.746C235.671 215.494 235.601 215.251 235.523 214.999C235.349 214.444 235.157 213.889 234.966 213.334L234.809 212.865C234.56 212.154 234.296 211.448 234.018 210.748L233.835 210.297C233.617 209.75 233.391 209.204 233.156 208.666L232.834 207.954C232.634 207.503 232.425 207.087 232.217 206.61L231.834 205.829C231.625 205.407 231.41 204.987 231.19 204.571L230.772 203.79C230.546 203.374 230.314 202.957 230.076 202.541L229.65 201.794C229.389 201.352 229.119 200.927 228.841 200.467L228.458 199.851C228.052 199.209 227.632 198.573 227.197 197.942C226.796 197.352 226.379 196.78 225.961 196.207L225.596 195.712C225.271 195.284 224.943 194.859 224.613 194.437L224.256 193.986C223.815 193.436 223.366 192.896 222.908 192.364L222.725 192.155C222.325 191.693 221.916 191.233 221.498 190.776L221.063 190.307C220.692 189.914 220.318 189.524 219.941 189.136L219.601 188.867C219.108 188.375 218.61 187.892 218.105 187.418L217.792 187.123C217.38 186.741 216.962 186.363 216.539 185.987L216.052 185.561C215.628 185.197 215.202 184.838 214.773 184.486L214.425 184.199C213.886 183.766 213.337 183.34 212.781 182.924L212.363 182.62C211.928 182.302 211.49 181.987 211.049 181.675L210.527 181.31C210.034 180.969 209.535 180.636 209.031 180.312L208.77 180.139C208.259 179.815 207.746 179.497 207.23 179.185L207.621 178.794C207.993 178.436 208.355 178.074 208.709 177.71L209.301 177.085C209.692 176.669 210.075 176.217 210.449 175.818L210.901 175.272C211.302 174.803 211.693 174.317 212.076 173.831L212.45 173.354C212.833 172.851 213.207 172.339 213.564 171.819C223.646 173.3 233.94 171.551 242.961 166.821C251.972 171.042 259.591 177.735 264.927 186.116C270.262 194.498 273.094 204.221 273.09 214.149V229.055H238.228Z" fill="#CCCCCC"/>
</g>
<defs>
<clipPath id="clip0_15_2">
<rect width="222" height="185" fill="white" transform="translate(63 76)"/>
</clipPath>
</defs>
</svg>
