<svg width="350" height="350" viewBox="0 0 350 350" fill="none" xmlns="http://www.w3.org/2000/svg">
<rect width="350" height="350" fill="#F1F1F1"/>
<path d="M258.334 74C255.483 74 95.5061 74 92.666 74C82.9252 74 75 81.9252 75 91.666V100.639C75 115.172 79.9992 129.426 89.0791 140.774C96.6301 150.212 107.371 157.605 119.323 161.589L125.564 163.669C132.813 175.48 144.183 184.578 157.834 188.9V198.055C157.834 201.301 155.192 203.943 151.945 203.943C142.204 203.943 134.279 211.869 134.279 221.609V227.498H128.391C125.138 227.498 122.502 230.134 122.502 233.387V263.223H116.613C113.361 263.223 110.725 265.859 110.725 269.111C110.725 272.364 113.361 275 116.613 275H234.387C237.639 275 240.275 272.364 240.275 269.111C240.275 265.859 237.639 263.223 234.387 263.223H228.498V233.387C228.498 230.134 225.862 227.498 222.609 227.498H216.721V221.609C216.721 211.869 208.796 203.943 199.055 203.943C195.808 203.943 193.166 201.301 193.166 198.055V188.9C206.802 184.583 218.161 175.501 225.411 163.709L231.993 161.614C232.017 161.606 232.044 161.597 232.068 161.589C243.844 157.664 254.167 150.465 261.921 140.774C271.001 129.426 276 115.172 276 100.639V91.666C276 81.9252 268.075 74 258.334 74ZM98.2756 133.416C90.8611 124.147 86.7773 112.508 86.7773 100.639V91.666C86.7773 88.4196 89.4196 85.7773 92.666 85.7773H111.343L117.336 139.714C117.687 142.868 118.299 145.949 119.136 148.939C110.901 145.478 103.597 140.067 98.2756 133.416ZM134.279 263.223V239.275H216.721V263.223H134.279ZM264.223 100.639C264.223 112.508 260.139 124.147 252.724 133.416C247.165 140.366 239.989 145.742 231.812 149.122C232.677 146.073 233.306 142.933 233.664 139.714L239.657 85.7773H258.334C261.58 85.7773 264.223 88.4196 264.223 91.666V100.639Z" fill="#CCCCCC"/>
<path d="M199.881 114.322L186.649 112.445L180.755 100.787C179.754 98.8045 177.72 97.5547 175.5 97.5547C173.279 97.5547 171.246 98.8045 170.245 100.787L164.351 112.445L151.117 114.322C148.883 114.64 147.026 116.207 146.337 118.357C145.649 120.507 146.25 122.862 147.885 124.417L157.377 133.451L155.143 146.168C154.756 148.371 155.649 150.602 157.448 151.928C159.251 153.256 161.646 153.445 163.631 152.427L175.5 146.334L187.368 152.427C189.357 153.448 191.752 153.255 193.551 151.928C195.351 150.6 196.244 148.371 195.857 146.168L193.623 133.451L203.114 124.417C204.75 122.861 205.351 120.507 204.663 118.357C203.974 116.207 202.117 114.64 199.881 114.322V114.322ZM183.218 127.095C181.789 128.455 181.136 130.438 181.478 132.381L182.208 136.54L178.188 134.477C176.501 133.611 174.499 133.611 172.81 134.477L168.791 136.54L169.522 132.381C169.863 130.438 169.21 128.455 167.782 127.095L164.818 124.275L169.048 123.673C170.955 123.404 172.608 122.218 173.476 120.501L175.5 116.497L177.523 120.499C178.392 122.218 180.045 123.404 181.951 123.673L186.182 124.273L183.218 127.095Z" fill="white"/>
</svg>
