<svg width="700" height="324" viewBox="0 0 700 324" fill="none" xmlns="http://www.w3.org/2000/svg">
<g clip-path="url(#clip0_8_2)">
<path d="M700 0H0V324H700V0Z" fill="#F1F1F1"/>
<mask id="mask0_8_2" style="mask-type:luminance" maskUnits="userSpaceOnUse" x="217" y="102" width="272" height="127">
<path d="M488.833 102.799H217V228.544H488.833V102.799Z" fill="white"/>
</mask>
<g mask="url(#mask0_8_2)">
<path d="M483.501 139.678C484.201 139.678 484.894 139.57 485.541 139.359C486.189 139.147 486.777 138.838 487.271 138.448C487.767 138.058 488.159 137.595 488.427 137.085C488.696 136.576 488.833 136.03 488.833 135.478V106.999C488.833 105.885 488.271 104.816 487.271 104.029C486.271 103.241 484.915 102.799 483.501 102.799H222.333C220.919 102.799 219.562 103.241 218.562 104.029C217.562 104.816 217 105.885 217 106.999V135.478C217 136.03 217.138 136.576 217.406 137.085C217.674 137.595 218.066 138.058 218.562 138.448C219.057 138.838 219.645 139.147 220.292 139.359C220.94 139.57 221.633 139.678 222.333 139.678C231.089 139.678 239.484 142.417 245.675 147.292C251.866 152.168 255.344 158.78 255.344 165.675C255.344 172.57 251.866 179.182 245.675 184.057C239.484 188.932 231.089 191.671 222.333 191.671C220.92 191.671 219.565 192.113 218.566 192.899C217.565 193.685 217.002 194.752 217 195.865V224.364C217 225.478 217.562 226.547 218.562 227.334C219.562 228.122 220.919 228.564 222.333 228.564H269.744C271.158 228.564 272.515 228.122 273.514 227.334C274.514 226.547 275.077 225.478 275.077 224.364C275.077 223.251 274.514 222.182 273.514 221.394C272.515 220.606 271.158 220.164 269.744 220.164H227.667V199.778C238.271 198.774 248.039 194.745 255.126 188.452C262.213 182.161 266.126 174.041 266.126 165.63C266.126 157.22 262.213 149.101 255.126 142.808C248.039 136.516 238.271 132.487 227.667 131.483V111.199H410.794V119.593C410.794 120.707 411.356 121.775 412.356 122.563C413.356 123.35 414.713 123.793 416.127 123.793C417.542 123.793 418.899 123.35 419.899 122.563C420.898 121.775 421.461 120.707 421.461 119.593V111.199H478.167V131.53C467.563 132.534 457.794 136.564 450.708 142.856C443.62 149.148 439.707 157.268 439.707 165.678C439.707 174.089 443.62 182.208 450.708 188.501C457.794 194.793 467.563 198.822 478.167 199.825V220.164H421.461V211.764C421.461 210.65 420.898 209.581 419.899 208.794C418.899 208.006 417.542 207.564 416.127 207.564C414.713 207.564 413.356 208.006 412.356 208.794C411.356 209.581 410.794 210.65 410.794 211.764V220.164H313.519C312.105 220.164 310.749 220.606 309.749 221.394C308.748 222.182 308.187 223.251 308.187 224.364C308.187 225.478 308.748 226.547 309.749 227.334C310.749 228.122 312.105 228.564 313.519 228.564H483.491C484.906 228.564 486.262 228.122 487.263 227.334C488.263 226.547 488.825 225.478 488.825 224.364V195.885C488.825 194.771 488.263 193.702 487.263 192.915C486.262 192.127 484.906 191.685 483.491 191.685C479.156 191.685 474.864 191.012 470.859 189.706C466.855 188.4 463.215 186.484 460.15 184.071C457.085 181.657 454.654 178.791 452.995 175.637C451.336 172.483 450.482 169.102 450.482 165.689C450.482 162.274 451.336 158.894 452.995 155.74C454.654 152.586 457.085 149.72 460.15 147.306C463.215 144.892 466.855 142.978 470.859 141.671C474.864 140.365 479.156 139.692 483.491 139.692L483.501 139.678Z" fill="#CCCCCC"/>
<path d="M416.127 185.224C417.542 185.224 418.899 184.782 419.898 183.994C420.898 183.207 421.461 182.138 421.461 181.024V150.291C421.461 149.178 420.898 148.109 419.898 147.322C418.899 146.533 417.542 146.091 416.127 146.091C414.713 146.091 413.356 146.533 412.356 147.322C411.356 148.109 410.794 149.178 410.794 150.291V181.024C410.794 182.138 411.356 183.207 412.356 183.994C413.356 184.782 414.713 185.224 416.127 185.224Z" fill="#CCCCCC"/>
<path d="M330.542 159.723C333.976 157.025 336.115 153.472 336.596 149.671C337.076 145.871 335.867 142.056 333.175 138.879C330.484 135.7 326.476 133.356 321.837 132.244C317.196 131.134 312.209 131.324 307.727 132.784C303.246 134.243 299.545 136.882 297.257 140.251C294.968 143.619 294.234 147.507 295.179 151.254C296.124 155 298.691 158.374 302.44 160.797C306.189 163.22 310.89 164.545 315.74 164.544C318.489 164.551 321.212 164.128 323.753 163.301C326.294 162.473 328.602 161.257 330.542 159.723ZM305.472 148.065C305.471 146.194 306.294 144.381 307.8 142.934C309.307 141.488 311.403 140.498 313.733 140.131C316.063 139.766 318.481 140.048 320.577 140.929C322.672 141.811 324.315 143.237 325.225 144.966C326.135 146.693 326.255 148.617 325.566 150.407C324.877 152.197 323.421 153.744 321.446 154.784C319.472 155.824 317.1 156.292 314.736 156.109C312.371 155.927 310.162 155.103 308.481 153.782C307.524 153.033 306.766 152.141 306.25 151.16C305.733 150.179 305.468 149.127 305.472 148.065Z" fill="#CCCCCC"/>
<path d="M348.789 173.641C345.86 175.947 343.864 178.885 343.056 182.082C342.247 185.281 342.662 188.596 344.246 191.61C345.83 194.622 348.514 197.198 351.956 199.009C355.399 200.821 359.446 201.789 363.587 201.789C367.729 201.789 371.776 200.821 375.219 199.009C378.661 197.198 381.345 194.622 382.929 191.61C384.514 188.596 384.928 185.281 384.119 182.082C383.311 178.885 381.316 175.947 378.386 173.641C374.458 170.555 369.137 168.821 363.587 168.821C358.038 168.821 352.717 170.555 348.789 173.641ZM370.851 179.583C372.534 180.906 373.583 182.647 373.819 184.51C374.054 186.374 373.463 188.244 372.143 189.802C370.824 191.361 368.859 192.51 366.584 193.055C364.309 193.601 361.865 193.508 359.667 192.792C357.47 192.077 355.655 190.784 354.534 189.132C353.411 187.481 353.051 185.575 353.514 183.737C353.976 181.901 355.234 180.247 357.072 179.058C358.91 177.87 361.214 177.221 363.592 177.22C366.312 177.218 368.922 178.065 370.851 179.576V179.583Z" fill="#CCCCCC"/>
<path d="M315.601 191.705L371.101 147.996C372.102 147.209 372.665 146.14 372.665 145.025C372.665 143.911 372.102 142.843 371.101 142.055C370.102 141.267 368.745 140.824 367.33 140.824C365.914 140.824 364.558 141.267 363.557 142.055L308.056 185.764C307.561 186.154 307.168 186.617 306.9 187.127C306.631 187.636 306.494 188.182 306.494 188.735C306.494 189.287 306.631 189.833 306.9 190.342C307.168 190.853 307.561 191.315 308.056 191.705C308.552 192.095 309.14 192.406 309.787 192.617C310.435 192.828 311.128 192.936 311.829 192.936C312.529 192.936 313.223 192.828 313.871 192.617C314.517 192.406 315.105 192.095 315.601 191.705Z" fill="#CCCCCC"/>
<path d="M291.536 220.11C290.437 220.103 289.362 220.366 288.459 220.859C287.556 221.353 286.869 222.054 286.491 222.866C286.113 223.679 286.064 224.564 286.35 225.4C286.635 226.236 287.241 226.983 288.086 227.536C288.93 228.09 289.971 228.425 291.067 228.496C292.162 228.566 293.258 228.369 294.205 227.929C295.153 227.49 295.905 226.831 296.358 226.043C296.812 225.254 296.945 224.374 296.739 223.524C296.5 222.571 295.854 221.712 294.906 221.09C293.959 220.469 292.769 220.123 291.536 220.11Z" fill="#CCCCCC"/>
</g>
</g>
<defs>
<clipPath id="clip0_8_2">
<rect width="700" height="324" fill="white"/>
</clipPath>
</defs>
</svg>
