<svg xmlns="http://www.w3.org/2000/svg" xmlns:xlink="http://www.w3.org/1999/xlink" width="1600" height="400" viewBox="0 0 1600 400">
  <defs>
    <clipPath id="clip-Custom_Size_1">
      <rect width="1600" height="400"/>
    </clipPath>
  </defs>
  <g id="Custom_Size_1" data-name="Custom Size – 1" clip-path="url(#clip-Custom_Size_1)">
    <rect width="1600" height="400" fill="#f1f1f1"/>
    <g id="default-special-sales" transform="translate(625 25)">
      <rect id="Rectangle_1" data-name="Rectangle 1" width="350" height="350" fill="#f1f1f1"/>
      <path id="Path_1" data-name="Path 1" d="M164.308,218.665a4.236,4.236,0,1,0-2.989,1.235A4.223,4.223,0,0,0,164.308,218.665Z" fill="#ccc"/>
      <path id="Path_2" data-name="Path 2" d="M165.852,119.215v8.451a25.347,25.347,0,0,0,50.686,0v-8.451a4.226,4.226,0,0,0,0-8.452h-8.452a4.226,4.226,0,0,0,0,8.452v8.451a16.895,16.895,0,0,1-33.79,0v-8.451a4.226,4.226,0,0,0,0-8.452h-8.452a4.226,4.226,0,0,0,0,8.452Z" fill="#ccc"/>
      <path id="Path_3" data-name="Path 3" d="M116.1,284.765a4.226,4.226,0,0,0,5.971,0l12.965-12.973a19.555,19.555,0,0,0,5.675-15.847l4.65-4.474a19.6,19.6,0,0,1,13.662-5.514h55.615a37.8,37.8,0,0,0,26.516-10.773,4.08,4.08,0,0,0,.3-.32l37.84-45.444a16.916,16.916,0,0,0-25.715-21.985l-4.09,4.226V89.226A4.226,4.226,0,0,0,245.254,85H136.7a4.226,4.226,0,0,0-4.226,4.226v94.632a50.815,50.815,0,0,0-36.311,28.4,19.5,19.5,0,0,0-14.87,5.731L68.243,231a4.227,4.227,0,0,0,0,5.987ZM241.037,93.484v86.949l-12.23,12.613a16.977,16.977,0,0,0-13.117-6.275H166.717a2.32,2.32,0,0,1-.857-.184,54.576,54.576,0,0,0-20.7-4.041q-2.126,0-4.226.144V93.452Z" fill="#ccc"/>
    </g>
  </g>
</svg>
