<svg width="350" height="350" viewBox="0 0 350 350" fill="none" xmlns="http://www.w3.org/2000/svg">
<rect width="350" height="350" fill="#F1F1F1"/>
<path d="M163.919 234.437C160.583 254.38 143.09 269.5 122.5 269.5C99.3405 269.5 80.5 250.66 80.5 227.5C80.5 204.34 99.3405 185.5 122.5 185.5C138.064 185.5 152.173 194.051 159.456 207.564C161.15 206.896 162.984 206.5 164.913 206.5H166.754C158.714 189.574 141.529 178.5 122.5 178.5C95.48 178.5 73.5 200.48 73.5 227.5C73.5 254.52 95.48 276.5 122.5 276.5C146.961 276.5 167.541 258.328 170.961 234.5H164.5C164.304 234.5 164.115 234.444 163.919 234.437Z" fill="#CCCCCC"/>
<path d="M153.657 211.743C147.721 200.015 135.779 192.5 122.5 192.5C103.201 192.5 87.5 208.201 87.5 227.5C87.5 246.799 103.201 262.5 122.5 262.5C139.99 262.5 154.773 249.403 157.136 232.309C155.865 231.515 154.676 230.587 153.696 229.397C151.025 226.159 149.961 221.907 150.769 217.738C151.21 215.477 152.243 213.451 153.657 211.743ZM147 227.5H135.37L125.895 251.188L114.467 220.714L106.75 231H94.5V224H103.25L116.533 206.286L126.105 231.812L130.63 220.5H147V227.5Z" fill="#CCCCCC"/>
<path d="M213.5 115.5C225.098 115.5 234.5 106.098 234.5 94.5C234.5 82.902 225.098 73.5 213.5 73.5C201.902 73.5 192.5 82.902 192.5 94.5C192.5 106.098 201.902 115.5 213.5 115.5Z" fill="#CCCCCC"/>
<path d="M198.362 192.749L197.242 207.046C196.952 210.665 193.889 213.5 190.26 213.5H164.913C161.381 213.5 158.259 215.897 157.64 219.072C157.227 221.214 157.741 223.3 159.099 224.942C160.436 226.569 162.403 227.5 164.5 227.5H199.661C205.149 227.5 209.646 223.373 210.119 217.903L211.722 199.357C210.196 199.231 208.684 199 207.214 198.531C203.77 197.432 200.763 195.388 198.362 192.749V192.749Z" fill="#CCCCCC"/>
<path d="M274.901 146.055C273.564 144.431 271.597 143.5 269.5 143.5H249.26C246.932 143.5 244.797 142.37 243.492 140.462L242.218 138.964C234.182 129.528 222.775 123.26 210.403 122.57C197.694 121.86 185.626 126.483 176.704 135.401L170.653 141.453C166.712 145.39 164.5 150.735 164.5 156.303V157.5H178.5V155.449C178.5 153.594 179.238 151.813 180.551 150.5L189.301 141.75C190.421 140.63 191.94 140 193.525 140C196.826 140 199.5 142.674 199.5 145.975V177.629C199.5 177.66 199.507 177.692 199.507 177.727L199.542 177.73L199.525 177.944C199.654 184.349 203.641 190.047 209.342 191.863C211.488 192.546 213.661 192.672 215.992 192.255L218.862 191.741L238.249 243.439C239.313 246.271 241.717 248.252 244.384 248.476C245.441 248.574 246.456 248.427 247.482 248.049C251.069 246.698 252.907 242.655 251.556 239.04L230.552 183.04C230.167 182.011 229.53 181.09 228.666 180.317L227.5 179.27V145.435L234.5 151.392C238.41 155.288 243.719 157.5 249.26 157.5H269.087C272.619 157.5 275.741 155.103 276.36 151.928C276.773 149.786 276.259 147.7 274.901 146.055V146.055Z" fill="#CCCCCC"/>
<path d="M170.076 178.36C172.211 178.769 174.297 178.255 175.945 176.9C177.566 175.563 178.5 173.597 178.5 171.5V164.5H164.5V171.084C164.5 174.615 166.898 177.744 170.076 178.36Z" fill="#CCCCCC"/>
<path d="M112 114.443L126.469 102.386C128.398 100.779 129.5 98.4235 129.5 95.9175C129.5 91.2765 125.723 87.5 121.082 87.5H120.435C118.219 87.5 116.053 88.3995 114.485 89.9675L112.224 92.2285L109.746 90.181C107.947 88.3995 105.781 87.5 103.565 87.5H102.917C98.2765 87.5 94.5 91.2765 94.5 95.9175C94.5 98.4235 95.6025 100.779 97.531 102.386L112 114.443Z" fill="#CCCCCC"/>
<path d="M77 129.5H106.173L123.046 142.338C123.739 143.171 124.761 143.65 125.85 143.65C127.862 143.65 129.5 142.012 129.5 140V129.5H147C148.932 129.5 150.5 127.928 150.5 126V77C150.5 75.0715 148.932 73.5 147 73.5H77C75.068 73.5 73.5 75.0715 73.5 77V126C73.5 127.928 75.068 129.5 77 129.5V129.5ZM102.917 80.5H103.565C106.6 80.5 109.497 81.3715 111.982 82.9955C114.394 81.403 117.344 80.5 120.435 80.5H121.082C129.58 80.5 136.5 87.416 136.5 95.9175C136.5 100.506 134.477 104.821 130.953 107.761L112 123.557L93.0475 107.761C89.523 104.825 87.5 100.506 87.5 95.9175C87.5 87.416 94.4195 80.5 102.917 80.5V80.5Z" fill="#CCCCCC"/>
<path d="M66.5 168C66.5 173.789 71.211 178.5 77 178.5H95.41C103.439 174.051 112.668 171.5 122.5 171.5H77C75.068 171.5 73.5 169.928 73.5 168C73.5 166.072 75.068 164.5 77 164.5H164.5V157.5H77C71.211 157.5 66.5 162.211 66.5 168Z" fill="#CCCCCC"/>
</svg>
