<svg width="350" height="350" viewBox="0 0 350 350" fill="none" xmlns="http://www.w3.org/2000/svg">
<rect width="350" height="350" fill="#F1F1F1"/>
<g clip-path="url(#clip0)">
<ellipse cx="175.5" cy="94.303" rx="20.303" ry="20.303" fill="#CCCCCC"/>
<path d="M195.6 117.55H180.813L175.5 122.863L170.187 117.55H155.4C149.849 117.55 145.35 122.049 145.35 127.6V154.4C145.35 159.95 149.849 164.45 155.4 164.45H195.6C201.151 164.45 205.65 159.95 205.65 154.4V127.6C205.65 122.049 201.151 117.55 195.6 117.55Z" fill="#CCCCCC"/>
<ellipse cx="105.455" cy="204.955" rx="20.303" ry="20.303" fill="#CCCCCC"/>
<path d="M125.555 228.202H110.768L105.455 233.515L100.141 228.202H85.3545C79.804 228.202 75.3045 232.701 75.3045 238.252V265.051C75.3045 270.602 79.804 275.101 85.3545 275.101H125.555C131.105 275.101 135.605 270.602 135.605 265.051V238.252C135.605 232.701 131.105 228.202 125.555 228.202Z" fill="#CCCCCC"/>
<ellipse cx="248.591" cy="204.955" rx="20.303" ry="20.303" fill="#CCCCCC"/>
<path d="M268.691 228.202H253.904L248.591 233.515L243.278 228.202H228.491C222.94 228.202 218.441 232.701 218.441 238.252V265.051C218.441 270.602 222.94 275.101 228.491 275.101H268.691C274.241 275.101 278.741 270.602 278.741 265.051V238.252C278.741 232.701 274.241 228.202 268.691 228.202Z" fill="#CCCCCC"/>
<path d="M137.668 148.682C136.36 147.374 134.24 147.374 132.932 148.682L109.482 172.132C108.151 173.417 108.114 175.538 109.399 176.868C110.685 178.199 112.806 178.236 114.136 176.951C114.164 176.924 114.192 176.896 114.218 176.868L137.668 153.418C138.976 152.11 138.976 149.99 137.668 148.682Z" fill="#CCCCCC"/>
<path d="M241.518 172.132L218.068 148.682C216.738 147.396 214.617 147.433 213.332 148.764C212.078 150.062 212.078 152.12 213.332 153.418L236.782 176.868C237.41 177.497 238.261 177.85 239.15 177.85C241 177.85 242.5 176.35 242.499 174.499C242.499 173.611 242.146 172.76 241.518 172.132Z" fill="#CCCCCC"/>
<path d="M205.65 248.2H145.35C143.5 248.2 142 249.7 142 251.55C142 253.4 143.5 254.9 145.35 254.9H205.65C207.5 254.9 209 253.4 209 251.55C209 249.7 207.5 248.2 205.65 248.2Z" fill="#CCCCCC"/>
</g>
<defs>
<clipPath id="clip0">
<rect width="201" height="201" fill="white" transform="translate(75 74)"/>
</clipPath>
</defs>
</svg>
