<svg width="350" height="350" viewBox="0 0 350 350" fill="none" xmlns="http://www.w3.org/2000/svg">
<path d="M350 0H0V350H350V0Z" fill="#F1F1F1"/>
<path fill-rule="evenodd" clip-rule="evenodd" d="M198.833 115.417C192.252 115.417 186.917 120.752 186.917 127.333V222.666C186.917 229.248 192.252 234.583 198.833 234.583H246.5C253.081 234.583 258.417 229.248 258.417 222.666V127.333C258.417 120.752 253.081 115.417 246.5 115.417H198.833ZM234.583 139.25H210.75V210.75H234.583V139.25Z" fill="#CCCCCC"/>
<path d="M103.5 115.417C96.9188 115.417 91.5835 120.752 91.5835 127.333C91.5835 133.915 96.9188 139.25 103.5 139.25H151.167C157.748 139.25 163.083 133.915 163.083 127.333C163.083 120.752 157.748 115.417 151.167 115.417H103.5Z" fill="#CCCCCC"/>
<path d="M103.5 163.083C96.9188 163.083 91.5835 168.419 91.5835 175C91.5835 181.582 96.9188 186.917 103.5 186.917H151.167C157.748 186.917 163.083 181.582 163.083 175C163.083 168.419 157.748 163.083 151.167 163.083H103.5Z" fill="#CCCCCC"/>
<path d="M91.5835 222.667C91.5835 216.085 96.9188 210.75 103.5 210.75H151.167C157.748 210.75 163.083 216.085 163.083 222.667C163.083 229.248 157.748 234.583 151.167 234.583H103.5C96.9188 234.583 91.5835 229.248 91.5835 222.667Z" fill="#CCCCCC"/>
<path fill-rule="evenodd" clip-rule="evenodd" d="M79.6665 67.75C59.9224 67.75 43.9165 83.7559 43.9165 103.5V246.5C43.9165 266.245 59.9224 282.25 79.6665 282.25H270.333C290.078 282.25 306.083 266.245 306.083 246.5V103.5C306.083 83.7559 290.078 67.75 270.333 67.75H79.6665ZM270.333 91.5833H79.6665C73.0852 91.5833 67.7498 96.9187 67.7498 103.5V246.5C67.7498 253.082 73.0852 258.417 79.6665 258.417H270.333C276.915 258.417 282.25 253.082 282.25 246.5V103.5C282.25 96.9187 276.915 91.5833 270.333 91.5833Z" fill="#CCCCCC"/>
</svg>
