<svg width="350" height="350" viewBox="0 0 350 350" fill="none" xmlns="http://www.w3.org/2000/svg">
<path d="M350 0H0V350H350V0Z" fill="#F1F1F1"/>
<path d="M287.429 151.18C288.029 151.18 288.623 151.062 289.178 150.832C289.733 150.602 290.237 150.265 290.661 149.84C291.086 149.415 291.422 148.911 291.652 148.355C291.882 147.8 292 147.205 292 146.604V115.576C292 114.362 291.518 113.198 290.661 112.34C289.804 111.482 288.641 111 287.429 111H63.571C62.359 111 61.196 111.482 60.339 112.34C59.482 113.198 59 114.362 59 115.576V146.604C59 147.205 59.118 147.8 59.348 148.355C59.578 148.911 59.914 149.415 60.339 149.84C60.763 150.265 61.267 150.602 61.822 150.832C62.377 151.062 62.971 151.18 63.571 151.18C71.076 151.18 78.272 154.164 83.579 159.476C88.885 164.788 91.866 171.992 91.866 179.504C91.866 187.016 88.885 194.22 83.579 199.531C78.272 204.843 71.076 207.827 63.571 207.827C62.36 207.827 61.199 208.308 60.342 209.165C59.484 210.021 59.002 211.183 59 212.396V243.446C59 244.66 59.482 245.824 60.339 246.682C61.196 247.54 62.359 248.022 63.571 248.022H104.209C105.421 248.022 106.584 247.54 107.441 246.682C108.298 245.824 108.78 244.66 108.78 243.446C108.78 242.233 108.298 241.069 107.441 240.21C106.584 239.352 105.421 238.87 104.209 238.87H68.143V216.659C77.232 215.566 85.605 211.176 91.679 204.32C97.754 197.465 101.108 188.619 101.108 179.455C101.108 170.292 97.754 161.446 91.679 154.59C85.605 147.735 77.232 143.345 68.143 142.251V120.152H225.109V129.297C225.109 130.511 225.591 131.675 226.448 132.533C227.305 133.391 228.468 133.873 229.68 133.873C230.893 133.873 232.056 133.391 232.913 132.533C233.77 131.675 234.252 130.511 234.252 129.297V120.152H282.857V142.303C273.768 143.397 265.395 147.787 259.321 154.642C253.246 161.498 249.892 170.344 249.892 179.507C249.892 188.671 253.246 197.517 259.321 204.373C265.395 211.228 273.768 215.618 282.857 216.711V238.87H234.252V229.718C234.252 228.504 233.77 227.34 232.913 226.482C232.056 225.624 230.893 225.142 229.68 225.142C228.468 225.142 227.305 225.624 226.448 226.482C225.591 227.34 225.109 228.504 225.109 229.718V238.87H141.731C140.519 238.87 139.356 239.352 138.499 240.21C137.641 241.069 137.16 242.233 137.16 243.446C137.16 244.66 137.641 245.824 138.499 246.682C139.356 247.54 140.519 248.022 141.731 248.022H287.421C288.634 248.022 289.796 247.54 290.654 246.682C291.511 245.824 291.993 244.66 291.993 243.446V212.418C291.993 211.204 291.511 210.04 290.654 209.182C289.796 208.324 288.634 207.842 287.421 207.842C283.705 207.842 280.026 207.109 276.593 205.686C273.161 204.263 270.041 202.176 267.414 199.546C264.787 196.916 262.703 193.794 261.281 190.358C259.859 186.921 259.127 183.238 259.127 179.519C259.127 175.799 259.859 172.116 261.281 168.68C262.703 165.243 264.787 162.121 267.414 159.491C270.041 156.861 273.161 154.775 276.593 153.351C280.026 151.928 283.705 151.195 287.421 151.195L287.429 151.18Z" fill="#CCCCCC"/>
<path d="M229.68 200.803C230.893 200.803 232.056 200.321 232.913 199.463C233.77 198.605 234.252 197.441 234.252 196.227V162.743C234.252 161.53 233.77 160.366 232.913 159.508C232.056 158.649 230.893 158.167 229.68 158.167C228.468 158.167 227.305 158.649 226.448 159.508C225.591 160.366 225.109 161.53 225.109 162.743V196.227C225.109 197.441 225.591 198.605 226.448 199.463C227.305 200.321 228.468 200.803 229.68 200.803Z" fill="#CCCCCC"/>
<path d="M156.322 173.019C159.265 170.08 161.099 166.209 161.511 162.068C161.922 157.927 160.886 153.771 158.579 150.309C156.272 146.846 152.837 144.292 148.86 143.081C144.882 141.871 140.608 142.078 136.766 143.669C132.925 145.259 129.753 148.134 127.792 151.804C125.83 155.474 125.201 159.71 126.011 163.792C126.821 167.874 129.021 171.549 132.234 174.189C135.448 176.829 139.477 178.273 143.634 178.272C145.991 178.279 148.325 177.818 150.503 176.917C152.681 176.015 154.659 174.69 156.322 173.019ZM134.833 160.318C134.832 158.279 135.538 156.304 136.829 154.728C138.12 153.152 139.917 152.073 141.914 151.674C143.911 151.276 145.984 151.583 147.78 152.543C149.576 153.504 150.984 155.058 151.764 156.941C152.544 158.823 152.647 160.919 152.057 162.869C151.466 164.82 150.218 166.505 148.525 167.638C146.833 168.771 144.8 169.281 142.774 169.082C140.747 168.883 138.853 167.986 137.412 166.546C136.592 165.73 135.942 164.759 135.5 163.69C135.057 162.621 134.83 161.475 134.833 160.318Z" fill="#CCCCCC"/>
<path d="M171.962 188.183C169.451 190.695 167.741 193.896 167.048 197.38C166.355 200.865 166.71 204.477 168.068 207.76C169.426 211.042 171.726 213.848 174.677 215.822C177.628 217.796 181.097 218.85 184.646 218.85C188.196 218.85 191.665 217.796 194.616 215.822C197.567 213.848 199.867 211.042 201.225 207.76C202.583 204.477 202.938 200.865 202.245 197.38C201.552 193.896 199.842 190.695 197.331 188.183C193.964 184.821 189.403 182.932 184.646 182.932C179.89 182.932 175.329 184.821 171.962 188.183ZM190.872 194.657C192.315 196.098 193.214 197.995 193.416 200.025C193.618 202.056 193.111 204.093 191.98 205.791C190.849 207.489 189.165 208.741 187.215 209.335C185.265 209.929 183.17 209.828 181.286 209.048C179.403 208.269 177.847 206.86 176.886 205.061C175.924 203.262 175.615 201.185 176.012 199.183C176.408 197.182 177.486 195.38 179.062 194.085C180.637 192.791 182.612 192.083 184.65 192.082C186.982 192.08 189.219 193.003 190.872 194.649V194.657Z" fill="#CCCCCC"/>
<path d="M143.515 207.864L191.087 160.243C191.945 159.385 192.427 158.22 192.427 157.006C192.427 155.792 191.945 154.628 191.087 153.77C190.23 152.911 189.067 152.429 187.854 152.429C186.641 152.429 185.478 152.911 184.62 153.77L137.048 201.391C136.624 201.816 136.287 202.32 136.057 202.876C135.827 203.431 135.709 204.026 135.709 204.628C135.709 205.229 135.827 205.824 136.057 206.379C136.287 206.935 136.624 207.439 137.048 207.864C137.473 208.289 137.977 208.627 138.532 208.857C139.087 209.087 139.681 209.205 140.282 209.205C140.882 209.205 141.477 209.087 142.032 208.857C142.586 208.627 143.09 208.289 143.515 207.864Z" fill="#CCCCCC"/>
<path d="M122.888 238.811C121.946 238.804 121.025 239.09 120.251 239.627C119.477 240.165 118.888 240.929 118.564 241.814C118.24 242.7 118.198 243.664 118.443 244.575C118.687 245.486 119.207 246.299 119.931 246.902C120.654 247.506 121.547 247.871 122.486 247.948C123.425 248.024 124.364 247.809 125.176 247.33C125.988 246.852 126.633 246.134 127.021 245.275C127.41 244.416 127.524 243.457 127.348 242.531C127.143 241.493 126.589 240.557 125.777 239.879C124.965 239.202 123.945 238.825 122.888 238.811Z" fill="#CCCCCC"/>
</svg>
