<svg width="350" height="350" viewBox="0 0 350 350" fill="none" xmlns="http://www.w3.org/2000/svg">
<rect width="350" height="350" fill="#F1F1F1"/>
<path d="M280.823 132.667C280.824 130.746 280.3 128.861 279.309 127.216L250.639 79.4325C248.75 76.3087 246.09 73.7236 242.913 71.9256C239.736 70.1277 236.15 69.1776 232.499 69.1667H117.48C110.092 69.1667 103.139 73.1037 99.3398 79.4431L70.6695 127.216C69.6784 128.861 69.1551 130.746 69.1561 132.667C69.1561 143.303 73.2413 152.923 79.7394 160.374V259.667C79.7394 262.474 80.8544 265.165 82.8392 267.15C84.824 269.135 87.5159 270.25 90.3228 270.25H174.989C177.796 270.25 180.488 269.135 182.473 267.15C184.458 265.165 185.573 262.474 185.573 259.667V206.75H227.906V259.667C227.906 262.474 229.021 265.165 231.006 267.15C232.991 269.135 235.683 270.25 238.489 270.25H259.656C262.463 270.25 265.155 269.135 267.14 267.15C269.124 265.165 270.239 262.474 270.239 259.667V160.374C276.738 152.923 280.823 143.303 280.823 132.667V132.667ZM259.487 135.323C258.836 140.434 256.345 145.132 252.48 148.539C248.615 151.946 243.641 153.828 238.489 153.833C226.816 153.833 217.323 144.34 217.323 132.667C217.323 131.947 217.058 131.312 216.91 130.635L217.122 130.592L209.068 90.3333H232.499L259.487 135.323V135.323ZM153.897 133.355L162.491 90.3333H187.478L196.082 133.355C195.712 144.71 186.419 153.833 174.989 153.833C163.559 153.833 154.267 144.71 153.897 133.355V133.355ZM117.48 90.3333H140.911L132.868 130.592L133.079 130.635C132.921 131.312 132.656 131.947 132.656 132.667C132.656 144.34 123.163 153.833 111.489 153.833C106.337 153.828 101.364 151.946 97.4989 148.539C93.6341 145.132 91.1432 140.434 90.4921 135.323L117.48 90.3333ZM153.823 217.333H111.489V185.583H153.823V217.333Z" fill="#CCCCCC"/>
</svg>
