<svg width="350" height="350" viewBox="0 0 350 350" fill="none" xmlns="http://www.w3.org/2000/svg">
<rect width="350" height="350" fill="#F1F1F1"/>
<path d="M164.308 218.665C164.898 218.074 165.301 217.321 165.463 216.501C165.626 215.682 165.542 214.832 165.222 214.06C164.902 213.288 164.361 212.628 163.666 212.164C162.971 211.7 162.154 211.452 161.319 211.452C160.483 211.452 159.666 211.7 158.971 212.164C158.276 212.628 157.735 213.288 157.415 214.06C157.095 214.832 157.011 215.682 157.174 216.501C157.337 217.321 157.739 218.074 158.329 218.665C159.123 219.456 160.198 219.9 161.319 219.9C162.439 219.9 163.514 219.456 164.308 218.665Z" fill="#CCCCCC"/>
<path d="M165.852 119.215V127.666C165.97 134.31 168.692 140.641 173.432 145.297C178.172 149.954 184.551 152.563 191.195 152.563C197.84 152.563 204.218 149.954 208.958 145.297C213.698 140.641 216.42 134.31 216.538 127.666V119.215C217.659 119.215 218.734 118.769 219.526 117.977C220.319 117.184 220.764 116.11 220.764 114.989C220.764 113.868 220.319 112.793 219.526 112.001C218.734 111.208 217.659 110.763 216.538 110.763H208.086C206.966 110.763 205.891 111.208 205.098 112.001C204.306 112.793 203.861 113.868 203.861 114.989C203.861 116.11 204.306 117.184 205.098 117.977C205.891 118.769 206.966 119.215 208.086 119.215V127.666C208.086 132.147 206.306 136.444 203.138 139.613C199.969 142.781 195.672 144.561 191.191 144.561C186.71 144.561 182.413 142.781 179.245 139.613C176.076 136.444 174.296 132.147 174.296 127.666V119.215C174.851 119.215 175.401 119.105 175.913 118.893C176.426 118.681 176.892 118.369 177.284 117.977C177.677 117.584 177.988 117.119 178.2 116.606C178.413 116.093 178.522 115.544 178.522 114.989C178.522 114.434 178.413 113.884 178.2 113.372C177.988 112.859 177.677 112.393 177.284 112.001C176.892 111.608 176.426 111.297 175.913 111.085C175.401 110.872 174.851 110.763 174.296 110.763H165.844C165.29 110.763 164.74 110.872 164.227 111.085C163.715 111.297 163.249 111.608 162.856 112.001C162.464 112.393 162.153 112.859 161.94 113.372C161.728 113.884 161.619 114.434 161.619 114.989C161.619 115.544 161.728 116.093 161.94 116.606C162.153 117.119 162.464 117.584 162.856 117.977C163.249 118.369 163.715 118.681 164.227 118.893C164.74 119.105 165.29 119.215 165.844 119.215H165.852Z" fill="#CCCCCC"/>
<path d="M116.095 284.765C116.888 285.556 117.961 286 119.081 286C120.2 286 121.274 285.556 122.066 284.765L135.031 271.792C137.098 269.739 138.679 267.252 139.661 264.51C140.643 261.768 141 258.842 140.706 255.945L145.356 251.471C149.019 247.926 153.92 245.948 159.018 245.957H214.633C224.542 245.98 234.064 242.111 241.149 235.184C241.253 235.083 241.352 234.976 241.445 234.864L279.285 189.42C282.2 186.01 283.642 181.582 283.292 177.109C282.942 172.636 280.83 168.486 277.42 165.57C274.01 162.655 269.581 161.213 265.109 161.563C260.636 161.913 256.485 164.025 253.57 167.435L249.48 171.661V89.2258C249.48 88.105 249.035 87.0302 248.242 86.2377C247.45 85.4452 246.375 85 245.254 85H136.696C135.575 85 134.5 85.4452 133.708 86.2377C132.915 87.0302 132.47 88.105 132.47 89.2258V183.858C124.608 185.394 117.22 188.767 110.909 193.702C104.599 198.637 99.5444 204.994 96.1588 212.254C93.4164 212.109 90.6742 212.544 88.1117 213.531C85.5491 214.519 83.224 216.036 81.2885 217.985L68.2429 230.998C67.8489 231.391 67.5364 231.857 67.3231 232.371C67.1098 232.885 67 233.435 67 233.991C67 234.548 67.1098 235.098 67.3231 235.612C67.5364 236.126 67.8489 236.592 68.2429 236.985L116.095 284.765ZM241.037 93.4836V180.433L228.807 193.046C227.222 191.094 225.223 189.518 222.954 188.433C220.686 187.348 218.204 186.78 215.69 186.771H166.717C166.422 186.765 166.132 186.702 165.86 186.587C159.287 183.906 152.254 182.534 145.156 182.546C143.739 182.546 142.33 182.594 140.93 182.69V93.4516L241.037 93.4836Z" fill="#CCCCCC"/>
</svg>
