<svg width="350" height="350" viewBox="0 0 350 350" fill="none" xmlns="http://www.w3.org/2000/svg">
<g clip-path="url(#clip0_364_25154)">
<path d="M350 0H0V350H350V0Z" fill="#F1F1F1"/>
<g clip-path="url(#clip1_364_25154)">
<path d="M175 324.999C257.842 324.999 324.999 257.842 324.999 175C324.999 92.1571 257.842 25 175 25C92.1571 25 25 92.1571 25 175C25 257.842 92.1571 324.999 175 324.999Z" fill="#6D7278"/>
<path d="M324.634 185.254C320.015 253.327 270.046 309.024 204.651 322.139L67.3957 184.885L65.918 175.094H192.551L197.261 101.848L239.287 137.224L240.95 135.376L267.644 156.62L268.752 141.842L251.018 131.313L260.624 121.338L324.541 185.255H324.633V185.254H324.634Z" fill="#333333"/>
<path d="M251.203 131.313C258.223 137.594 263.673 146.276 266.535 153.48C272.17 167.612 273.278 183.868 268.014 198.462C264.596 207.883 261.64 212.871 254.252 221.645L263.396 230.512C282.146 213.333 286.949 184.237 282.792 162.254C281.961 158.098 280.484 152.925 278.636 148.584C274.295 138.516 269.4 130.757 260.256 121.983L251.297 131.312H251.204V131.313H251.203ZM213.518 158.191C225.248 170.013 224.324 188.579 214.718 196.892L223.955 205.944C238.641 192.736 239.38 164.471 222.292 148.77L213.61 158.191H213.518V158.191ZM232.36 144.798C250.649 162.07 251.665 189.41 234.392 209.454L243.537 218.321C253.974 210.008 260.07 189.78 259.608 176.387C259.054 162.717 252.958 144.706 241.043 135.377L232.36 144.798Z" fill="#F7F7F8"/>
<path d="M271.339 176.202C271.616 183.684 270.507 191.258 267.921 198.369C264.503 207.791 261.548 212.778 254.159 221.553L263.303 230.42C278.266 216.75 284.362 195.413 284.085 176.201H271.431L271.339 176.202ZM221.831 176.202H234.762C235.409 187.563 231.529 198.924 223.77 205.943L214.533 196.892C219.891 192.182 222.569 184.33 221.831 176.202ZM246.585 176.202H259.423V176.295C259.978 189.687 253.882 209.915 243.444 218.228L234.3 209.361C242.89 199.386 246.954 187.563 246.677 176.109L246.585 176.202Z" fill="#E6E6E6"/>
<path d="M102.033 140.734H134.546V202.711C134.546 206.314 131.59 209.269 127.988 209.269H102.033C98.4311 209.269 95.4756 206.314 95.4756 202.711V147.292C95.475 143.69 98.4305 140.734 102.033 140.734Z" fill="black"/>
<path d="M95.4747 203.08C79.2183 202.988 65.918 190.426 65.918 175.001C65.918 159.576 79.2189 147.015 95.4747 146.922V203.08Z" fill="#F9F9F9"/>
<path d="M177.218 102.587L134.638 140.733V209.269L177.218 247.415C180.913 250.74 197.262 252.218 197.262 248.154V101.756C197.262 97.6915 180.913 99.1693 177.218 102.495V102.587Z" fill="#F7F7F8"/>
<path d="M134.546 175.001V203.08C134.546 206.498 131.59 209.268 127.988 209.268H102.033C98.4311 209.268 95.4756 206.497 95.4756 203.08V175.002L134.546 175.001Z" fill="#333333"/>
<path d="M95.4747 203.08C79.2183 202.988 65.918 190.426 65.918 175.001H95.4747V203.08Z" fill="#E6E6E6"/>
<path d="M134.546 175.001V209.269L177.126 247.415C180.821 250.74 197.17 252.218 197.17 248.154V174.909H134.453L134.546 175.001Z" fill="#E6E6E6"/>
</g>
</g>
<defs>
<clipPath id="clip0_364_25154">
<rect width="350" height="350" fill="white"/>
</clipPath>
<clipPath id="clip1_364_25154">
<rect width="300" height="300" fill="white" transform="translate(25 25)"/>
</clipPath>
</defs>
</svg>
