<svg width="350" height="350" viewBox="0 0 350 350" fill="none" xmlns="http://www.w3.org/2000/svg">
<rect width="350" height="350" fill="#F1F1F1"/>
<g clip-path="url(#clip0)">
<path d="M174.938 175.5C202.693 175.5 225.188 153.005 225.188 125.25C225.188 97.4947 202.693 75 174.938 75C147.182 75 124.688 97.4947 124.688 125.25C124.688 153.005 147.182 175.5 174.938 175.5ZM212.546 188.298L193.781 263.438L181.219 210.047L193.781 188.062H156.094L168.656 210.047L156.094 263.438L137.329 188.298C109.338 189.633 87 212.52 87 240.825V257.156C87 267.56 95.4404 276 105.844 276H244.031C254.435 276 262.875 267.56 262.875 257.156V240.825C262.875 212.52 240.537 189.633 212.546 188.298V188.298Z" fill="#CCCCCC"/>
</g>
<defs>
<clipPath id="clip0">
<rect width="175.875" height="201" fill="white" transform="translate(87 75)"/>
</clipPath>
</defs>
</svg>
