<svg width="350" height="350" viewBox="0 0 350 350" fill="none" xmlns="http://www.w3.org/2000/svg">
<rect width="350" height="350" fill="#F1F1F1"/>
<g clip-path="url(#clip0)">
<path d="M199.781 111.688C210.188 111.688 218.625 103.251 218.625 92.8438C218.625 82.4365 210.188 74 199.781 74C189.374 74 180.938 82.4365 180.938 92.8438C180.938 103.251 189.374 111.688 199.781 111.688ZM137.632 198.632L131.822 212.184H105.562C98.6256 212.184 93 217.809 93 224.746C93 231.683 98.6256 237.309 105.562 237.309H135.968C143.525 237.309 150.328 232.817 153.284 225.888L156.735 217.833L152.546 215.36C145.747 211.343 140.745 205.4 137.632 198.632ZM243.75 161.934H226.465L216.234 141.029C211.327 130.998 202.317 123.665 191.981 121.031L164.076 112.732C152.966 110.062 141.397 112.516 132.34 119.461L116.767 131.399C111.259 135.619 110.215 143.502 114.443 149.01C118.671 154.518 126.55 155.55 132.054 151.334L147.635 139.396C150.646 137.083 154.482 136.255 157.556 136.985L163.326 138.701L148.62 173.008C143.666 184.581 148.106 198.137 158.945 204.536L192.307 224.232L181.522 258.673C179.45 265.292 183.136 272.338 189.755 274.411C191.007 274.804 192.271 274.992 193.516 274.992C198.859 274.992 203.813 271.549 205.497 266.179L217.918 226.505C220.239 218.351 216.784 209.593 209.423 205.152L185.381 190.965L197.673 160.234L205.631 176.498C208.771 182.913 215.414 187.055 222.555 187.055H243.75C250.687 187.055 256.312 181.429 256.312 174.492C256.312 167.555 250.687 161.934 243.75 161.934Z" fill="#CCCCCC"/>
</g>
<defs>
<clipPath id="clip0">
<rect width="163.312" height="201" fill="white" transform="translate(93 74)"/>
</clipPath>
</defs>
</svg>
