<svg width="450" height="237" viewBox="0 0 450 237" fill="none" xmlns="http://www.w3.org/2000/svg">
<g clip-path="url(#clip0_151_10)">
<path d="M450 0H0V237H450V0Z" fill="#F1F1F1"/>
<path d="M284.08 52C281.995 52 164.997 52 162.92 52C155.796 52 150 57.796 150 64.9199V71.4823C150 82.1109 153.656 92.5354 160.297 100.835C165.819 107.737 173.674 113.144 182.415 116.058L186.98 117.579C192.281 126.217 200.597 132.87 210.58 136.031V142.727C210.58 145.101 208.648 147.033 206.273 147.033C199.149 147.033 193.353 152.83 193.353 159.953V164.26H189.047C186.668 164.26 184.74 166.188 184.74 168.567V190.387H180.433C178.055 190.387 176.127 192.315 176.127 194.693C176.127 197.072 178.055 199 180.433 199H266.567C268.945 199 270.873 197.072 270.873 194.693C270.873 192.315 268.945 190.387 266.567 190.387H262.26V168.567C262.26 166.188 260.332 164.26 257.953 164.26H253.647V159.953C253.647 152.83 247.851 147.033 240.727 147.033C238.352 147.033 236.42 145.101 236.42 142.727V136.031C246.393 132.874 254.7 126.232 260.002 117.608L264.816 116.076C264.833 116.07 264.853 116.063 264.871 116.058C273.483 113.187 281.033 107.922 286.703 100.835C293.344 92.5354 297 82.1109 297 71.4823V64.9199C297 57.796 291.204 52 284.08 52ZM167.022 95.4535C161.6 88.6747 158.613 80.1626 158.613 71.4823V64.9199C158.613 62.5457 160.546 60.6132 162.92 60.6132H176.579L180.962 100.059C181.219 102.366 181.666 104.619 182.279 106.806C176.256 104.275 170.914 100.318 167.022 95.4535ZM193.353 190.387V172.873H253.647V190.387H193.353ZM288.387 71.4823C288.387 80.1626 285.4 88.6747 279.977 95.4535C275.912 100.536 270.664 104.468 264.683 106.94C265.316 104.71 265.776 102.414 266.038 100.059L270.421 60.6132H284.08C286.454 60.6132 288.387 62.5457 288.387 64.9199V71.4823Z" fill="#CCCCCC"/>
<path d="M241.331 81.4892L231.654 80.1165L227.343 71.5905C226.611 70.1406 225.124 69.2266 223.5 69.2266C221.876 69.2266 220.389 70.1406 219.657 71.5905L215.346 80.1165L205.668 81.4892C204.034 81.7218 202.676 82.8678 202.172 84.4402C201.669 86.0126 202.108 87.7349 203.304 88.8721L210.246 95.4791L208.612 104.78C208.329 106.391 208.982 108.022 210.298 108.992C211.616 109.963 213.368 110.102 214.82 109.357L223.5 104.901L232.18 109.357C233.634 110.104 235.386 109.963 236.702 108.992C238.018 108.021 238.671 106.391 238.388 104.78L236.754 95.4791L243.695 88.8721C244.892 87.7342 245.331 86.0126 244.828 84.4402C244.324 82.8678 242.966 81.7218 241.331 81.4892ZM229.145 90.8307C228.099 91.8253 227.622 93.2755 227.872 94.6965L228.406 97.7382L225.466 96.2294C224.232 95.5961 222.768 95.5961 221.533 96.2294L218.593 97.7382L219.128 94.6965C219.377 93.2755 218.9 91.8253 217.856 90.8307L215.688 88.7683L218.781 88.328C220.176 88.1313 221.385 87.2639 222.02 86.0082L223.5 83.0799L224.98 86.0067C225.615 87.2639 226.824 88.1313 228.218 88.328L231.312 88.7668L229.145 90.8307Z" fill="white"/>
</g>
<defs>
<clipPath id="clip0_151_10">
<rect width="450" height="237" fill="white"/>
</clipPath>
</defs>
</svg>
