<svg width="450" height="237" viewBox="0 0 450 237" fill="none" xmlns="http://www.w3.org/2000/svg">
<g clip-path="url(#clip0_151_10)">
<path d="M450 0H0V237H450V0Z" fill="#F1F1F1"/>
</g>
<path d="M234.423 79.314C242.261 79.314 248.616 72.9755 248.616 65.1569C248.616 57.3381 242.261 51 234.423 51C226.585 51 220.231 57.3381 220.231 65.1569C220.231 72.9755 226.585 79.314 234.423 79.314ZM187.615 144.633L183.239 154.814H163.461C158.237 154.814 154 159.04 154 164.252C154 169.463 158.237 173.69 163.461 173.69H186.362C192.053 173.69 197.177 170.315 199.403 165.109L202.003 159.058L198.848 157.2C193.727 154.182 189.96 149.717 187.615 144.633ZM267.539 117.063H254.52L246.815 101.357C243.119 93.8211 236.333 88.312 228.548 86.3332L207.532 80.0983C199.164 78.0924 190.451 79.9361 183.629 85.1537L171.9 94.1224C167.752 97.2927 166.966 103.215 170.15 107.353C173.334 111.491 179.269 112.266 183.414 109.099L195.149 100.13C197.417 98.3926 200.306 97.7705 202.621 98.319L206.967 99.6082L195.891 125.382C192.16 134.077 195.504 144.261 203.667 149.068L228.794 163.865L220.671 189.74C219.111 194.713 221.887 200.006 226.872 201.564C227.815 201.859 228.767 202 229.705 202C233.729 202 237.46 199.413 238.728 195.379L248.083 165.573C249.831 159.447 247.229 152.867 241.685 149.531L223.578 138.873L232.835 115.785L238.829 128.004C241.194 132.823 246.197 135.935 251.576 135.935H267.539C272.763 135.935 277 131.709 277 126.497C277 121.285 272.763 117.063 267.539 117.063Z" fill="#CCCCCC"/>
<defs>
<clipPath id="clip0_151_10">
<rect width="450" height="237" fill="white"/>
</clipPath>
</defs>
</svg>
