<svg width="1500" height="659" viewBox="0 0 1500 659" fill="none" xmlns="http://www.w3.org/2000/svg">
<rect width="1500" height="659" fill="#F4F7FC"/>
<path fill-rule="evenodd" clip-rule="evenodd" d="M752.833 272.417C746.252 272.417 740.917 277.752 740.917 284.333V379.666C740.917 386.248 746.252 391.583 752.833 391.583H800.5C807.081 391.583 812.417 386.248 812.417 379.666V284.333C812.417 277.752 807.081 272.417 800.5 272.417H752.833ZM788.583 296.25H764.75V367.75H788.583V296.25Z" fill="#CCCCCC"/>
<path d="M657.5 272.417C650.919 272.417 645.583 277.752 645.583 284.333C645.583 290.915 650.919 296.25 657.5 296.25H705.167C711.748 296.25 717.083 290.915 717.083 284.333C717.083 277.752 711.748 272.417 705.167 272.417H657.5Z" fill="#CCCCCC"/>
<path d="M657.5 320.083C650.919 320.083 645.583 325.419 645.583 332C645.583 338.582 650.919 343.917 657.5 343.917H705.167C711.748 343.917 717.083 338.582 717.083 332C717.083 325.419 711.748 320.083 705.167 320.083H657.5Z" fill="#CCCCCC"/>
<path d="M645.583 379.667C645.583 373.085 650.919 367.75 657.5 367.75H705.167C711.748 367.75 717.083 373.085 717.083 379.667C717.083 386.248 711.748 391.583 705.167 391.583H657.5C650.919 391.583 645.583 386.248 645.583 379.667Z" fill="#CCCCCC"/>
<path fill-rule="evenodd" clip-rule="evenodd" d="M633.667 224.75C613.922 224.75 597.917 240.756 597.917 260.5V403.5C597.917 423.245 613.922 439.25 633.667 439.25H824.333C844.078 439.25 860.083 423.245 860.083 403.5V260.5C860.083 240.756 844.078 224.75 824.333 224.75H633.667ZM824.333 248.583H633.667C627.085 248.583 621.75 253.919 621.75 260.5V403.5C621.75 410.082 627.085 415.417 633.667 415.417H824.333C830.915 415.417 836.25 410.082 836.25 403.5V260.5C836.25 253.919 830.915 248.583 824.333 248.583Z" fill="#CCCCCC"/>
</svg>
